G04 #@! TF.GenerationSoftware,KiCad,Pcbnew,9.0.2-9.0.2-0~ubuntu24.04.1*
G04 #@! TF.CreationDate,2025-06-11T14:59:59-05:00*
G04 #@! TF.ProjectId,bias-supply,62696173-2d73-4757-9070-6c792e6b6963,0.1*
G04 #@! TF.SameCoordinates,Original*
G04 #@! TF.FileFunction,Legend,Bot*
G04 #@! TF.FilePolarity,Positive*
%FSLAX46Y46*%
G04 Gerber Fmt 4.6, Leading zero omitted, Abs format (unit mm)*
G04 Created by KiCad (PCBNEW 9.0.2-9.0.2-0~ubuntu24.04.1) date 2025-06-11 14:59:59*
%MOMM*%
%LPD*%
G01*
G04 APERTURE LIST*
G04 Aperture macros list*
%AMRoundRect*
0 Rectangle with rounded corners*
0 $1 Rounding radius*
0 $2 $3 $4 $5 $6 $7 $8 $9 X,Y pos of 4 corners*
0 Add a 4 corners polygon primitive as box body*
4,1,4,$2,$3,$4,$5,$6,$7,$8,$9,$2,$3,0*
0 Add four circle primitives for the rounded corners*
1,1,$1+$1,$2,$3*
1,1,$1+$1,$4,$5*
1,1,$1+$1,$6,$7*
1,1,$1+$1,$8,$9*
0 Add four rect primitives between the rounded corners*
20,1,$1+$1,$2,$3,$4,$5,0*
20,1,$1+$1,$4,$5,$6,$7,0*
20,1,$1+$1,$6,$7,$8,$9,0*
20,1,$1+$1,$8,$9,$2,$3,0*%
G04 Aperture macros list end*
%ADD10C,0.200000*%
%ADD11C,0.150000*%
%ADD12C,0.250000*%
%ADD13C,0.508000*%
%ADD14C,0.120000*%
%ADD15C,1.270000*%
%ADD16C,2.362200*%
%ADD17C,2.000000*%
%ADD18C,6.400000*%
%ADD19C,1.214000*%
%ADD20C,2.891000*%
%ADD21RoundRect,0.250000X0.625000X-0.312500X0.625000X0.312500X-0.625000X0.312500X-0.625000X-0.312500X0*%
%ADD22RoundRect,0.250000X0.312500X0.625000X-0.312500X0.625000X-0.312500X-0.625000X0.312500X-0.625000X0*%
%ADD23RoundRect,0.250000X-0.650000X0.325000X-0.650000X-0.325000X0.650000X-0.325000X0.650000X0.325000X0*%
%ADD24RoundRect,0.250000X0.650000X-0.325000X0.650000X0.325000X-0.650000X0.325000X-0.650000X-0.325000X0*%
%ADD25R,1.500000X1.000000*%
%ADD26RoundRect,0.250000X-0.625000X0.312500X-0.625000X-0.312500X0.625000X-0.312500X0.625000X0.312500X0*%
%ADD27R,1.000000X1.500000*%
%ADD28RoundRect,0.250000X-0.312500X-0.625000X0.312500X-0.625000X0.312500X0.625000X-0.312500X0.625000X0*%
G04 APERTURE END LIST*
D10*
X41000000Y-50250000D02*
X43200000Y-50250000D01*
X44000000Y-50250000D02*
X46000000Y-50250000D01*
X46000000Y-50250000D02*
X46000000Y-52450000D01*
X46000000Y-53250000D02*
X46000000Y-55450000D01*
X46000000Y-55750000D02*
X43800000Y-55750000D01*
X43000000Y-55750000D02*
X41000000Y-55750000D01*
X41000000Y-55750000D02*
X41000000Y-53550000D01*
X41000000Y-52750000D02*
X41000000Y-50550000D01*
X58750000Y-43500000D02*
X60950000Y-43500000D01*
X61750000Y-43500000D02*
X63950000Y-43500000D01*
X64750000Y-43500000D02*
X66950000Y-43500000D01*
X67750000Y-43500000D02*
X69950000Y-43500000D01*
X70750000Y-43500000D02*
X72950000Y-43500000D01*
X73750000Y-43500000D02*
X75750000Y-43500000D01*
X75750000Y-43500000D02*
X75750000Y-45700000D01*
X75750000Y-46500000D02*
X75750000Y-48500000D01*
X75750000Y-48500000D02*
X73550000Y-48500000D01*
X72750000Y-48500000D02*
X70550000Y-48500000D01*
X69750000Y-48500000D02*
X67550000Y-48500000D01*
X66750000Y-48500000D02*
X64550000Y-48500000D01*
X63750000Y-48500000D02*
X61550000Y-48500000D01*
X60750000Y-48500000D02*
X58750000Y-48500000D01*
X58750000Y-48500000D02*
X58750000Y-46300000D01*
X58750000Y-45500000D02*
X58750000Y-43500000D01*
D11*
X26750000Y-61500000D02*
X28400000Y-61500000D01*
X29000000Y-61500000D02*
X30650000Y-61500000D01*
X31250000Y-61500000D02*
X32900000Y-61500000D01*
X33500000Y-61500000D02*
X35150000Y-61500000D01*
X35250000Y-61500000D02*
X35250000Y-63150000D01*
X35250000Y-63750000D02*
X35250000Y-65400000D01*
X35250000Y-66000000D02*
X35250000Y-67650000D01*
X35250000Y-68000000D02*
X33600000Y-68000000D01*
X33000000Y-68000000D02*
X31350000Y-68000000D01*
X30750000Y-68000000D02*
X29100000Y-68000000D01*
X28500000Y-68000000D02*
X26850000Y-68000000D01*
X26750000Y-68000000D02*
X26750000Y-66350000D01*
X26750000Y-65750000D02*
X26750000Y-64100000D01*
X26750000Y-63500000D02*
X26750000Y-61850000D01*
D12*
X35635380Y-67202381D02*
X36111571Y-67535714D01*
X35635380Y-67773809D02*
X36635380Y-67773809D01*
X36635380Y-67773809D02*
X36635380Y-67392857D01*
X36635380Y-67392857D02*
X36587761Y-67297619D01*
X36587761Y-67297619D02*
X36540142Y-67250000D01*
X36540142Y-67250000D02*
X36444904Y-67202381D01*
X36444904Y-67202381D02*
X36302047Y-67202381D01*
X36302047Y-67202381D02*
X36206809Y-67250000D01*
X36206809Y-67250000D02*
X36159190Y-67297619D01*
X36159190Y-67297619D02*
X36111571Y-67392857D01*
X36111571Y-67392857D02*
X36111571Y-67773809D01*
X35635380Y-66297619D02*
X35635380Y-66773809D01*
X35635380Y-66773809D02*
X36635380Y-66773809D01*
X35730619Y-64630952D02*
X35683000Y-64678571D01*
X35683000Y-64678571D02*
X35635380Y-64821428D01*
X35635380Y-64821428D02*
X35635380Y-64916666D01*
X35635380Y-64916666D02*
X35683000Y-65059523D01*
X35683000Y-65059523D02*
X35778238Y-65154761D01*
X35778238Y-65154761D02*
X35873476Y-65202380D01*
X35873476Y-65202380D02*
X36063952Y-65249999D01*
X36063952Y-65249999D02*
X36206809Y-65249999D01*
X36206809Y-65249999D02*
X36397285Y-65202380D01*
X36397285Y-65202380D02*
X36492523Y-65154761D01*
X36492523Y-65154761D02*
X36587761Y-65059523D01*
X36587761Y-65059523D02*
X36635380Y-64916666D01*
X36635380Y-64916666D02*
X36635380Y-64821428D01*
X36635380Y-64821428D02*
X36587761Y-64678571D01*
X36587761Y-64678571D02*
X36540142Y-64630952D01*
X36635380Y-64011904D02*
X36635380Y-63821428D01*
X36635380Y-63821428D02*
X36587761Y-63726190D01*
X36587761Y-63726190D02*
X36492523Y-63630952D01*
X36492523Y-63630952D02*
X36302047Y-63583333D01*
X36302047Y-63583333D02*
X35968714Y-63583333D01*
X35968714Y-63583333D02*
X35778238Y-63630952D01*
X35778238Y-63630952D02*
X35683000Y-63726190D01*
X35683000Y-63726190D02*
X35635380Y-63821428D01*
X35635380Y-63821428D02*
X35635380Y-64011904D01*
X35635380Y-64011904D02*
X35683000Y-64107142D01*
X35683000Y-64107142D02*
X35778238Y-64202380D01*
X35778238Y-64202380D02*
X35968714Y-64249999D01*
X35968714Y-64249999D02*
X36302047Y-64249999D01*
X36302047Y-64249999D02*
X36492523Y-64202380D01*
X36492523Y-64202380D02*
X36587761Y-64107142D01*
X36587761Y-64107142D02*
X36635380Y-64011904D01*
X35635380Y-63154761D02*
X36635380Y-63154761D01*
X36635380Y-63154761D02*
X35635380Y-62583333D01*
X35635380Y-62583333D02*
X36635380Y-62583333D01*
X36159190Y-61773809D02*
X36159190Y-62107142D01*
X35635380Y-62107142D02*
X36635380Y-62107142D01*
X36635380Y-62107142D02*
X36635380Y-61630952D01*
X80154761Y-77517000D02*
X80011904Y-77564619D01*
X80011904Y-77564619D02*
X79773809Y-77564619D01*
X79773809Y-77564619D02*
X79678571Y-77517000D01*
X79678571Y-77517000D02*
X79630952Y-77469380D01*
X79630952Y-77469380D02*
X79583333Y-77374142D01*
X79583333Y-77374142D02*
X79583333Y-77278904D01*
X79583333Y-77278904D02*
X79630952Y-77183666D01*
X79630952Y-77183666D02*
X79678571Y-77136047D01*
X79678571Y-77136047D02*
X79773809Y-77088428D01*
X79773809Y-77088428D02*
X79964285Y-77040809D01*
X79964285Y-77040809D02*
X80059523Y-76993190D01*
X80059523Y-76993190D02*
X80107142Y-76945571D01*
X80107142Y-76945571D02*
X80154761Y-76850333D01*
X80154761Y-76850333D02*
X80154761Y-76755095D01*
X80154761Y-76755095D02*
X80107142Y-76659857D01*
X80107142Y-76659857D02*
X80059523Y-76612238D01*
X80059523Y-76612238D02*
X79964285Y-76564619D01*
X79964285Y-76564619D02*
X79726190Y-76564619D01*
X79726190Y-76564619D02*
X79583333Y-76612238D01*
X79154761Y-77564619D02*
X79154761Y-76564619D01*
X78583333Y-77564619D02*
X79011904Y-76993190D01*
X78583333Y-76564619D02*
X79154761Y-77136047D01*
X78154761Y-77564619D02*
X78154761Y-76564619D01*
X77678571Y-77564619D02*
X77678571Y-76564619D01*
X77678571Y-76564619D02*
X77297619Y-76564619D01*
X77297619Y-76564619D02*
X77202381Y-76612238D01*
X77202381Y-76612238D02*
X77154762Y-76659857D01*
X77154762Y-76659857D02*
X77107143Y-76755095D01*
X77107143Y-76755095D02*
X77107143Y-76897952D01*
X77107143Y-76897952D02*
X77154762Y-76993190D01*
X77154762Y-76993190D02*
X77202381Y-77040809D01*
X77202381Y-77040809D02*
X77297619Y-77088428D01*
X77297619Y-77088428D02*
X77678571Y-77088428D01*
X75916666Y-76564619D02*
X75916666Y-77374142D01*
X75916666Y-77374142D02*
X75869047Y-77469380D01*
X75869047Y-77469380D02*
X75821428Y-77517000D01*
X75821428Y-77517000D02*
X75726190Y-77564619D01*
X75726190Y-77564619D02*
X75535714Y-77564619D01*
X75535714Y-77564619D02*
X75440476Y-77517000D01*
X75440476Y-77517000D02*
X75392857Y-77469380D01*
X75392857Y-77469380D02*
X75345238Y-77374142D01*
X75345238Y-77374142D02*
X75345238Y-76564619D01*
X74964285Y-76564619D02*
X74345238Y-76564619D01*
X74345238Y-76564619D02*
X74678571Y-76945571D01*
X74678571Y-76945571D02*
X74535714Y-76945571D01*
X74535714Y-76945571D02*
X74440476Y-76993190D01*
X74440476Y-76993190D02*
X74392857Y-77040809D01*
X74392857Y-77040809D02*
X74345238Y-77136047D01*
X74345238Y-77136047D02*
X74345238Y-77374142D01*
X74345238Y-77374142D02*
X74392857Y-77469380D01*
X74392857Y-77469380D02*
X74440476Y-77517000D01*
X74440476Y-77517000D02*
X74535714Y-77564619D01*
X74535714Y-77564619D02*
X74821428Y-77564619D01*
X74821428Y-77564619D02*
X74916666Y-77517000D01*
X74916666Y-77517000D02*
X74964285Y-77469380D01*
X70892857Y-42162238D02*
X70988095Y-42114619D01*
X70988095Y-42114619D02*
X71130952Y-42114619D01*
X71130952Y-42114619D02*
X71273809Y-42162238D01*
X71273809Y-42162238D02*
X71369047Y-42257476D01*
X71369047Y-42257476D02*
X71416666Y-42352714D01*
X71416666Y-42352714D02*
X71464285Y-42543190D01*
X71464285Y-42543190D02*
X71464285Y-42686047D01*
X71464285Y-42686047D02*
X71416666Y-42876523D01*
X71416666Y-42876523D02*
X71369047Y-42971761D01*
X71369047Y-42971761D02*
X71273809Y-43067000D01*
X71273809Y-43067000D02*
X71130952Y-43114619D01*
X71130952Y-43114619D02*
X71035714Y-43114619D01*
X71035714Y-43114619D02*
X70892857Y-43067000D01*
X70892857Y-43067000D02*
X70845238Y-43019380D01*
X70845238Y-43019380D02*
X70845238Y-42686047D01*
X70845238Y-42686047D02*
X71035714Y-42686047D01*
X70416666Y-43114619D02*
X70416666Y-42114619D01*
X70416666Y-42114619D02*
X69845238Y-43114619D01*
X69845238Y-43114619D02*
X69845238Y-42114619D01*
X69369047Y-43114619D02*
X69369047Y-42114619D01*
X69369047Y-42114619D02*
X69130952Y-42114619D01*
X69130952Y-42114619D02*
X68988095Y-42162238D01*
X68988095Y-42162238D02*
X68892857Y-42257476D01*
X68892857Y-42257476D02*
X68845238Y-42352714D01*
X68845238Y-42352714D02*
X68797619Y-42543190D01*
X68797619Y-42543190D02*
X68797619Y-42686047D01*
X68797619Y-42686047D02*
X68845238Y-42876523D01*
X68845238Y-42876523D02*
X68892857Y-42971761D01*
X68892857Y-42971761D02*
X68988095Y-43067000D01*
X68988095Y-43067000D02*
X69130952Y-43114619D01*
X69130952Y-43114619D02*
X69369047Y-43114619D01*
X67654761Y-43067000D02*
X67511904Y-43114619D01*
X67511904Y-43114619D02*
X67273809Y-43114619D01*
X67273809Y-43114619D02*
X67178571Y-43067000D01*
X67178571Y-43067000D02*
X67130952Y-43019380D01*
X67130952Y-43019380D02*
X67083333Y-42924142D01*
X67083333Y-42924142D02*
X67083333Y-42828904D01*
X67083333Y-42828904D02*
X67130952Y-42733666D01*
X67130952Y-42733666D02*
X67178571Y-42686047D01*
X67178571Y-42686047D02*
X67273809Y-42638428D01*
X67273809Y-42638428D02*
X67464285Y-42590809D01*
X67464285Y-42590809D02*
X67559523Y-42543190D01*
X67559523Y-42543190D02*
X67607142Y-42495571D01*
X67607142Y-42495571D02*
X67654761Y-42400333D01*
X67654761Y-42400333D02*
X67654761Y-42305095D01*
X67654761Y-42305095D02*
X67607142Y-42209857D01*
X67607142Y-42209857D02*
X67559523Y-42162238D01*
X67559523Y-42162238D02*
X67464285Y-42114619D01*
X67464285Y-42114619D02*
X67226190Y-42114619D01*
X67226190Y-42114619D02*
X67083333Y-42162238D01*
X66797618Y-42114619D02*
X66226190Y-42114619D01*
X66511904Y-43114619D02*
X66511904Y-42114619D01*
X65892856Y-43114619D02*
X65892856Y-42114619D01*
X65559523Y-42114619D02*
X64988095Y-42114619D01*
X65273809Y-43114619D02*
X65273809Y-42114619D01*
X64083333Y-43019380D02*
X64130952Y-43067000D01*
X64130952Y-43067000D02*
X64273809Y-43114619D01*
X64273809Y-43114619D02*
X64369047Y-43114619D01*
X64369047Y-43114619D02*
X64511904Y-43067000D01*
X64511904Y-43067000D02*
X64607142Y-42971761D01*
X64607142Y-42971761D02*
X64654761Y-42876523D01*
X64654761Y-42876523D02*
X64702380Y-42686047D01*
X64702380Y-42686047D02*
X64702380Y-42543190D01*
X64702380Y-42543190D02*
X64654761Y-42352714D01*
X64654761Y-42352714D02*
X64607142Y-42257476D01*
X64607142Y-42257476D02*
X64511904Y-42162238D01*
X64511904Y-42162238D02*
X64369047Y-42114619D01*
X64369047Y-42114619D02*
X64273809Y-42114619D01*
X64273809Y-42114619D02*
X64130952Y-42162238D01*
X64130952Y-42162238D02*
X64083333Y-42209857D01*
X63654761Y-43114619D02*
X63654761Y-42114619D01*
X63654761Y-42590809D02*
X63083333Y-42590809D01*
X63083333Y-43114619D02*
X63083333Y-42114619D01*
X44261904Y-47302294D02*
X44357142Y-47254675D01*
X44357142Y-47254675D02*
X44499999Y-47254675D01*
X44499999Y-47254675D02*
X44642856Y-47302294D01*
X44642856Y-47302294D02*
X44738094Y-47397532D01*
X44738094Y-47397532D02*
X44785713Y-47492770D01*
X44785713Y-47492770D02*
X44833332Y-47683246D01*
X44833332Y-47683246D02*
X44833332Y-47826103D01*
X44833332Y-47826103D02*
X44785713Y-48016579D01*
X44785713Y-48016579D02*
X44738094Y-48111817D01*
X44738094Y-48111817D02*
X44642856Y-48207056D01*
X44642856Y-48207056D02*
X44499999Y-48254675D01*
X44499999Y-48254675D02*
X44404761Y-48254675D01*
X44404761Y-48254675D02*
X44261904Y-48207056D01*
X44261904Y-48207056D02*
X44214285Y-48159436D01*
X44214285Y-48159436D02*
X44214285Y-47826103D01*
X44214285Y-47826103D02*
X44404761Y-47826103D01*
X43785713Y-48254675D02*
X43785713Y-47254675D01*
X43785713Y-47254675D02*
X43214285Y-48254675D01*
X43214285Y-48254675D02*
X43214285Y-47254675D01*
X42738094Y-48254675D02*
X42738094Y-47254675D01*
X42738094Y-47254675D02*
X42499999Y-47254675D01*
X42499999Y-47254675D02*
X42357142Y-47302294D01*
X42357142Y-47302294D02*
X42261904Y-47397532D01*
X42261904Y-47397532D02*
X42214285Y-47492770D01*
X42214285Y-47492770D02*
X42166666Y-47683246D01*
X42166666Y-47683246D02*
X42166666Y-47826103D01*
X42166666Y-47826103D02*
X42214285Y-48016579D01*
X42214285Y-48016579D02*
X42261904Y-48111817D01*
X42261904Y-48111817D02*
X42357142Y-48207056D01*
X42357142Y-48207056D02*
X42499999Y-48254675D01*
X42499999Y-48254675D02*
X42738094Y-48254675D01*
X45809523Y-49817000D02*
X45666666Y-49864619D01*
X45666666Y-49864619D02*
X45428571Y-49864619D01*
X45428571Y-49864619D02*
X45333333Y-49817000D01*
X45333333Y-49817000D02*
X45285714Y-49769380D01*
X45285714Y-49769380D02*
X45238095Y-49674142D01*
X45238095Y-49674142D02*
X45238095Y-49578904D01*
X45238095Y-49578904D02*
X45285714Y-49483666D01*
X45285714Y-49483666D02*
X45333333Y-49436047D01*
X45333333Y-49436047D02*
X45428571Y-49388428D01*
X45428571Y-49388428D02*
X45619047Y-49340809D01*
X45619047Y-49340809D02*
X45714285Y-49293190D01*
X45714285Y-49293190D02*
X45761904Y-49245571D01*
X45761904Y-49245571D02*
X45809523Y-49150333D01*
X45809523Y-49150333D02*
X45809523Y-49055095D01*
X45809523Y-49055095D02*
X45761904Y-48959857D01*
X45761904Y-48959857D02*
X45714285Y-48912238D01*
X45714285Y-48912238D02*
X45619047Y-48864619D01*
X45619047Y-48864619D02*
X45380952Y-48864619D01*
X45380952Y-48864619D02*
X45238095Y-48912238D01*
X44952380Y-48864619D02*
X44380952Y-48864619D01*
X44666666Y-49864619D02*
X44666666Y-48864619D01*
X44047618Y-49864619D02*
X44047618Y-48864619D01*
X43714285Y-48864619D02*
X43142857Y-48864619D01*
X43428571Y-49864619D02*
X43428571Y-48864619D01*
X42238095Y-49769380D02*
X42285714Y-49817000D01*
X42285714Y-49817000D02*
X42428571Y-49864619D01*
X42428571Y-49864619D02*
X42523809Y-49864619D01*
X42523809Y-49864619D02*
X42666666Y-49817000D01*
X42666666Y-49817000D02*
X42761904Y-49721761D01*
X42761904Y-49721761D02*
X42809523Y-49626523D01*
X42809523Y-49626523D02*
X42857142Y-49436047D01*
X42857142Y-49436047D02*
X42857142Y-49293190D01*
X42857142Y-49293190D02*
X42809523Y-49102714D01*
X42809523Y-49102714D02*
X42761904Y-49007476D01*
X42761904Y-49007476D02*
X42666666Y-48912238D01*
X42666666Y-48912238D02*
X42523809Y-48864619D01*
X42523809Y-48864619D02*
X42428571Y-48864619D01*
X42428571Y-48864619D02*
X42285714Y-48912238D01*
X42285714Y-48912238D02*
X42238095Y-48959857D01*
X41809523Y-49864619D02*
X41809523Y-48864619D01*
X41809523Y-49340809D02*
X41238095Y-49340809D01*
X41238095Y-49864619D02*
X41238095Y-48864619D01*
X53873722Y-49404762D02*
X53873722Y-50166667D01*
X54254675Y-49785714D02*
X53492770Y-49785714D01*
X53254675Y-50500000D02*
X54254675Y-50833333D01*
X54254675Y-50833333D02*
X53254675Y-51166666D01*
X53254675Y-52119048D02*
X53254675Y-52690476D01*
X54254675Y-52404762D02*
X53254675Y-52404762D01*
X53254675Y-53214286D02*
X53254675Y-53404762D01*
X53254675Y-53404762D02*
X53302294Y-53500000D01*
X53302294Y-53500000D02*
X53397532Y-53595238D01*
X53397532Y-53595238D02*
X53588008Y-53642857D01*
X53588008Y-53642857D02*
X53921341Y-53642857D01*
X53921341Y-53642857D02*
X54111817Y-53595238D01*
X54111817Y-53595238D02*
X54207056Y-53500000D01*
X54207056Y-53500000D02*
X54254675Y-53404762D01*
X54254675Y-53404762D02*
X54254675Y-53214286D01*
X54254675Y-53214286D02*
X54207056Y-53119048D01*
X54207056Y-53119048D02*
X54111817Y-53023810D01*
X54111817Y-53023810D02*
X53921341Y-52976191D01*
X53921341Y-52976191D02*
X53588008Y-52976191D01*
X53588008Y-52976191D02*
X53397532Y-53023810D01*
X53397532Y-53023810D02*
X53302294Y-53119048D01*
X53302294Y-53119048D02*
X53254675Y-53214286D01*
X54864619Y-48428571D02*
X54864619Y-49047618D01*
X54864619Y-49047618D02*
X55245571Y-48714285D01*
X55245571Y-48714285D02*
X55245571Y-48857142D01*
X55245571Y-48857142D02*
X55293190Y-48952380D01*
X55293190Y-48952380D02*
X55340809Y-48999999D01*
X55340809Y-48999999D02*
X55436047Y-49047618D01*
X55436047Y-49047618D02*
X55674142Y-49047618D01*
X55674142Y-49047618D02*
X55769380Y-48999999D01*
X55769380Y-48999999D02*
X55817000Y-48952380D01*
X55817000Y-48952380D02*
X55864619Y-48857142D01*
X55864619Y-48857142D02*
X55864619Y-48571428D01*
X55864619Y-48571428D02*
X55817000Y-48476190D01*
X55817000Y-48476190D02*
X55769380Y-48428571D01*
X54864619Y-49333333D02*
X55864619Y-49666666D01*
X55864619Y-49666666D02*
X54864619Y-49999999D01*
X54864619Y-50238095D02*
X54864619Y-50857142D01*
X54864619Y-50857142D02*
X55245571Y-50523809D01*
X55245571Y-50523809D02*
X55245571Y-50666666D01*
X55245571Y-50666666D02*
X55293190Y-50761904D01*
X55293190Y-50761904D02*
X55340809Y-50809523D01*
X55340809Y-50809523D02*
X55436047Y-50857142D01*
X55436047Y-50857142D02*
X55674142Y-50857142D01*
X55674142Y-50857142D02*
X55769380Y-50809523D01*
X55769380Y-50809523D02*
X55817000Y-50761904D01*
X55817000Y-50761904D02*
X55864619Y-50666666D01*
X55864619Y-50666666D02*
X55864619Y-50380952D01*
X55864619Y-50380952D02*
X55817000Y-50285714D01*
X55817000Y-50285714D02*
X55769380Y-50238095D01*
X55864619Y-52619047D02*
X55388428Y-52285714D01*
X55864619Y-52047619D02*
X54864619Y-52047619D01*
X54864619Y-52047619D02*
X54864619Y-52428571D01*
X54864619Y-52428571D02*
X54912238Y-52523809D01*
X54912238Y-52523809D02*
X54959857Y-52571428D01*
X54959857Y-52571428D02*
X55055095Y-52619047D01*
X55055095Y-52619047D02*
X55197952Y-52619047D01*
X55197952Y-52619047D02*
X55293190Y-52571428D01*
X55293190Y-52571428D02*
X55340809Y-52523809D01*
X55340809Y-52523809D02*
X55388428Y-52428571D01*
X55388428Y-52428571D02*
X55388428Y-52047619D01*
X55340809Y-53047619D02*
X55340809Y-53380952D01*
X55864619Y-53523809D02*
X55864619Y-53047619D01*
X55864619Y-53047619D02*
X54864619Y-53047619D01*
X54864619Y-53047619D02*
X54864619Y-53523809D01*
X54912238Y-54476190D02*
X54864619Y-54380952D01*
X54864619Y-54380952D02*
X54864619Y-54238095D01*
X54864619Y-54238095D02*
X54912238Y-54095238D01*
X54912238Y-54095238D02*
X55007476Y-54000000D01*
X55007476Y-54000000D02*
X55102714Y-53952381D01*
X55102714Y-53952381D02*
X55293190Y-53904762D01*
X55293190Y-53904762D02*
X55436047Y-53904762D01*
X55436047Y-53904762D02*
X55626523Y-53952381D01*
X55626523Y-53952381D02*
X55721761Y-54000000D01*
X55721761Y-54000000D02*
X55817000Y-54095238D01*
X55817000Y-54095238D02*
X55864619Y-54238095D01*
X55864619Y-54238095D02*
X55864619Y-54333333D01*
X55864619Y-54333333D02*
X55817000Y-54476190D01*
X55817000Y-54476190D02*
X55769380Y-54523809D01*
X55769380Y-54523809D02*
X55436047Y-54523809D01*
X55436047Y-54523809D02*
X55436047Y-54333333D01*
D11*
X22784819Y-87319644D02*
X22308628Y-86986311D01*
X22784819Y-86748216D02*
X21784819Y-86748216D01*
X21784819Y-86748216D02*
X21784819Y-87129168D01*
X21784819Y-87129168D02*
X21832438Y-87224406D01*
X21832438Y-87224406D02*
X21880057Y-87272025D01*
X21880057Y-87272025D02*
X21975295Y-87319644D01*
X21975295Y-87319644D02*
X22118152Y-87319644D01*
X22118152Y-87319644D02*
X22213390Y-87272025D01*
X22213390Y-87272025D02*
X22261009Y-87224406D01*
X22261009Y-87224406D02*
X22308628Y-87129168D01*
X22308628Y-87129168D02*
X22308628Y-86748216D01*
X21784819Y-87652978D02*
X21784819Y-88272025D01*
X21784819Y-88272025D02*
X22165771Y-87938692D01*
X22165771Y-87938692D02*
X22165771Y-88081549D01*
X22165771Y-88081549D02*
X22213390Y-88176787D01*
X22213390Y-88176787D02*
X22261009Y-88224406D01*
X22261009Y-88224406D02*
X22356247Y-88272025D01*
X22356247Y-88272025D02*
X22594342Y-88272025D01*
X22594342Y-88272025D02*
X22689580Y-88224406D01*
X22689580Y-88224406D02*
X22737200Y-88176787D01*
X22737200Y-88176787D02*
X22784819Y-88081549D01*
X22784819Y-88081549D02*
X22784819Y-87795835D01*
X22784819Y-87795835D02*
X22737200Y-87700597D01*
X22737200Y-87700597D02*
X22689580Y-87652978D01*
X21880057Y-88652978D02*
X21832438Y-88700597D01*
X21832438Y-88700597D02*
X21784819Y-88795835D01*
X21784819Y-88795835D02*
X21784819Y-89033930D01*
X21784819Y-89033930D02*
X21832438Y-89129168D01*
X21832438Y-89129168D02*
X21880057Y-89176787D01*
X21880057Y-89176787D02*
X21975295Y-89224406D01*
X21975295Y-89224406D02*
X22070533Y-89224406D01*
X22070533Y-89224406D02*
X22213390Y-89176787D01*
X22213390Y-89176787D02*
X22784819Y-88605359D01*
X22784819Y-88605359D02*
X22784819Y-89224406D01*
X55142857Y-91124819D02*
X55476190Y-90648628D01*
X55714285Y-91124819D02*
X55714285Y-90124819D01*
X55714285Y-90124819D02*
X55333333Y-90124819D01*
X55333333Y-90124819D02*
X55238095Y-90172438D01*
X55238095Y-90172438D02*
X55190476Y-90220057D01*
X55190476Y-90220057D02*
X55142857Y-90315295D01*
X55142857Y-90315295D02*
X55142857Y-90458152D01*
X55142857Y-90458152D02*
X55190476Y-90553390D01*
X55190476Y-90553390D02*
X55238095Y-90601009D01*
X55238095Y-90601009D02*
X55333333Y-90648628D01*
X55333333Y-90648628D02*
X55714285Y-90648628D01*
X54809523Y-90124819D02*
X54190476Y-90124819D01*
X54190476Y-90124819D02*
X54523809Y-90505771D01*
X54523809Y-90505771D02*
X54380952Y-90505771D01*
X54380952Y-90505771D02*
X54285714Y-90553390D01*
X54285714Y-90553390D02*
X54238095Y-90601009D01*
X54238095Y-90601009D02*
X54190476Y-90696247D01*
X54190476Y-90696247D02*
X54190476Y-90934342D01*
X54190476Y-90934342D02*
X54238095Y-91029580D01*
X54238095Y-91029580D02*
X54285714Y-91077200D01*
X54285714Y-91077200D02*
X54380952Y-91124819D01*
X54380952Y-91124819D02*
X54666666Y-91124819D01*
X54666666Y-91124819D02*
X54761904Y-91077200D01*
X54761904Y-91077200D02*
X54809523Y-91029580D01*
X53571428Y-90124819D02*
X53476190Y-90124819D01*
X53476190Y-90124819D02*
X53380952Y-90172438D01*
X53380952Y-90172438D02*
X53333333Y-90220057D01*
X53333333Y-90220057D02*
X53285714Y-90315295D01*
X53285714Y-90315295D02*
X53238095Y-90505771D01*
X53238095Y-90505771D02*
X53238095Y-90743866D01*
X53238095Y-90743866D02*
X53285714Y-90934342D01*
X53285714Y-90934342D02*
X53333333Y-91029580D01*
X53333333Y-91029580D02*
X53380952Y-91077200D01*
X53380952Y-91077200D02*
X53476190Y-91124819D01*
X53476190Y-91124819D02*
X53571428Y-91124819D01*
X53571428Y-91124819D02*
X53666666Y-91077200D01*
X53666666Y-91077200D02*
X53714285Y-91029580D01*
X53714285Y-91029580D02*
X53761904Y-90934342D01*
X53761904Y-90934342D02*
X53809523Y-90743866D01*
X53809523Y-90743866D02*
X53809523Y-90505771D01*
X53809523Y-90505771D02*
X53761904Y-90315295D01*
X53761904Y-90315295D02*
X53714285Y-90220057D01*
X53714285Y-90220057D02*
X53666666Y-90172438D01*
X53666666Y-90172438D02*
X53571428Y-90124819D01*
X24859580Y-61357142D02*
X24907200Y-61309523D01*
X24907200Y-61309523D02*
X24954819Y-61166666D01*
X24954819Y-61166666D02*
X24954819Y-61071428D01*
X24954819Y-61071428D02*
X24907200Y-60928571D01*
X24907200Y-60928571D02*
X24811961Y-60833333D01*
X24811961Y-60833333D02*
X24716723Y-60785714D01*
X24716723Y-60785714D02*
X24526247Y-60738095D01*
X24526247Y-60738095D02*
X24383390Y-60738095D01*
X24383390Y-60738095D02*
X24192914Y-60785714D01*
X24192914Y-60785714D02*
X24097676Y-60833333D01*
X24097676Y-60833333D02*
X24002438Y-60928571D01*
X24002438Y-60928571D02*
X23954819Y-61071428D01*
X23954819Y-61071428D02*
X23954819Y-61166666D01*
X23954819Y-61166666D02*
X24002438Y-61309523D01*
X24002438Y-61309523D02*
X24050057Y-61357142D01*
X23954819Y-61690476D02*
X23954819Y-62309523D01*
X23954819Y-62309523D02*
X24335771Y-61976190D01*
X24335771Y-61976190D02*
X24335771Y-62119047D01*
X24335771Y-62119047D02*
X24383390Y-62214285D01*
X24383390Y-62214285D02*
X24431009Y-62261904D01*
X24431009Y-62261904D02*
X24526247Y-62309523D01*
X24526247Y-62309523D02*
X24764342Y-62309523D01*
X24764342Y-62309523D02*
X24859580Y-62261904D01*
X24859580Y-62261904D02*
X24907200Y-62214285D01*
X24907200Y-62214285D02*
X24954819Y-62119047D01*
X24954819Y-62119047D02*
X24954819Y-61833333D01*
X24954819Y-61833333D02*
X24907200Y-61738095D01*
X24907200Y-61738095D02*
X24859580Y-61690476D01*
X23954819Y-62642857D02*
X23954819Y-63309523D01*
X23954819Y-63309523D02*
X24954819Y-62880952D01*
X21892857Y-51704819D02*
X22226190Y-51228628D01*
X22464285Y-51704819D02*
X22464285Y-50704819D01*
X22464285Y-50704819D02*
X22083333Y-50704819D01*
X22083333Y-50704819D02*
X21988095Y-50752438D01*
X21988095Y-50752438D02*
X21940476Y-50800057D01*
X21940476Y-50800057D02*
X21892857Y-50895295D01*
X21892857Y-50895295D02*
X21892857Y-51038152D01*
X21892857Y-51038152D02*
X21940476Y-51133390D01*
X21940476Y-51133390D02*
X21988095Y-51181009D01*
X21988095Y-51181009D02*
X22083333Y-51228628D01*
X22083333Y-51228628D02*
X22464285Y-51228628D01*
X21511904Y-50800057D02*
X21464285Y-50752438D01*
X21464285Y-50752438D02*
X21369047Y-50704819D01*
X21369047Y-50704819D02*
X21130952Y-50704819D01*
X21130952Y-50704819D02*
X21035714Y-50752438D01*
X21035714Y-50752438D02*
X20988095Y-50800057D01*
X20988095Y-50800057D02*
X20940476Y-50895295D01*
X20940476Y-50895295D02*
X20940476Y-50990533D01*
X20940476Y-50990533D02*
X20988095Y-51133390D01*
X20988095Y-51133390D02*
X21559523Y-51704819D01*
X21559523Y-51704819D02*
X20940476Y-51704819D01*
X20083333Y-50704819D02*
X20273809Y-50704819D01*
X20273809Y-50704819D02*
X20369047Y-50752438D01*
X20369047Y-50752438D02*
X20416666Y-50800057D01*
X20416666Y-50800057D02*
X20511904Y-50942914D01*
X20511904Y-50942914D02*
X20559523Y-51133390D01*
X20559523Y-51133390D02*
X20559523Y-51514342D01*
X20559523Y-51514342D02*
X20511904Y-51609580D01*
X20511904Y-51609580D02*
X20464285Y-51657200D01*
X20464285Y-51657200D02*
X20369047Y-51704819D01*
X20369047Y-51704819D02*
X20178571Y-51704819D01*
X20178571Y-51704819D02*
X20083333Y-51657200D01*
X20083333Y-51657200D02*
X20035714Y-51609580D01*
X20035714Y-51609580D02*
X19988095Y-51514342D01*
X19988095Y-51514342D02*
X19988095Y-51276247D01*
X19988095Y-51276247D02*
X20035714Y-51181009D01*
X20035714Y-51181009D02*
X20083333Y-51133390D01*
X20083333Y-51133390D02*
X20178571Y-51085771D01*
X20178571Y-51085771D02*
X20369047Y-51085771D01*
X20369047Y-51085771D02*
X20464285Y-51133390D01*
X20464285Y-51133390D02*
X20511904Y-51181009D01*
X20511904Y-51181009D02*
X20559523Y-51276247D01*
X33892857Y-63454819D02*
X34226190Y-62978628D01*
X34464285Y-63454819D02*
X34464285Y-62454819D01*
X34464285Y-62454819D02*
X34083333Y-62454819D01*
X34083333Y-62454819D02*
X33988095Y-62502438D01*
X33988095Y-62502438D02*
X33940476Y-62550057D01*
X33940476Y-62550057D02*
X33892857Y-62645295D01*
X33892857Y-62645295D02*
X33892857Y-62788152D01*
X33892857Y-62788152D02*
X33940476Y-62883390D01*
X33940476Y-62883390D02*
X33988095Y-62931009D01*
X33988095Y-62931009D02*
X34083333Y-62978628D01*
X34083333Y-62978628D02*
X34464285Y-62978628D01*
X32940476Y-63454819D02*
X33511904Y-63454819D01*
X33226190Y-63454819D02*
X33226190Y-62454819D01*
X33226190Y-62454819D02*
X33321428Y-62597676D01*
X33321428Y-62597676D02*
X33416666Y-62692914D01*
X33416666Y-62692914D02*
X33511904Y-62740533D01*
X32607142Y-62454819D02*
X31940476Y-62454819D01*
X31940476Y-62454819D02*
X32369047Y-63454819D01*
X26359580Y-61357142D02*
X26407200Y-61309523D01*
X26407200Y-61309523D02*
X26454819Y-61166666D01*
X26454819Y-61166666D02*
X26454819Y-61071428D01*
X26454819Y-61071428D02*
X26407200Y-60928571D01*
X26407200Y-60928571D02*
X26311961Y-60833333D01*
X26311961Y-60833333D02*
X26216723Y-60785714D01*
X26216723Y-60785714D02*
X26026247Y-60738095D01*
X26026247Y-60738095D02*
X25883390Y-60738095D01*
X25883390Y-60738095D02*
X25692914Y-60785714D01*
X25692914Y-60785714D02*
X25597676Y-60833333D01*
X25597676Y-60833333D02*
X25502438Y-60928571D01*
X25502438Y-60928571D02*
X25454819Y-61071428D01*
X25454819Y-61071428D02*
X25454819Y-61166666D01*
X25454819Y-61166666D02*
X25502438Y-61309523D01*
X25502438Y-61309523D02*
X25550057Y-61357142D01*
X25454819Y-61690476D02*
X25454819Y-62309523D01*
X25454819Y-62309523D02*
X25835771Y-61976190D01*
X25835771Y-61976190D02*
X25835771Y-62119047D01*
X25835771Y-62119047D02*
X25883390Y-62214285D01*
X25883390Y-62214285D02*
X25931009Y-62261904D01*
X25931009Y-62261904D02*
X26026247Y-62309523D01*
X26026247Y-62309523D02*
X26264342Y-62309523D01*
X26264342Y-62309523D02*
X26359580Y-62261904D01*
X26359580Y-62261904D02*
X26407200Y-62214285D01*
X26407200Y-62214285D02*
X26454819Y-62119047D01*
X26454819Y-62119047D02*
X26454819Y-61833333D01*
X26454819Y-61833333D02*
X26407200Y-61738095D01*
X26407200Y-61738095D02*
X26359580Y-61690476D01*
X25454819Y-63166666D02*
X25454819Y-62976190D01*
X25454819Y-62976190D02*
X25502438Y-62880952D01*
X25502438Y-62880952D02*
X25550057Y-62833333D01*
X25550057Y-62833333D02*
X25692914Y-62738095D01*
X25692914Y-62738095D02*
X25883390Y-62690476D01*
X25883390Y-62690476D02*
X26264342Y-62690476D01*
X26264342Y-62690476D02*
X26359580Y-62738095D01*
X26359580Y-62738095D02*
X26407200Y-62785714D01*
X26407200Y-62785714D02*
X26454819Y-62880952D01*
X26454819Y-62880952D02*
X26454819Y-63071428D01*
X26454819Y-63071428D02*
X26407200Y-63166666D01*
X26407200Y-63166666D02*
X26359580Y-63214285D01*
X26359580Y-63214285D02*
X26264342Y-63261904D01*
X26264342Y-63261904D02*
X26026247Y-63261904D01*
X26026247Y-63261904D02*
X25931009Y-63214285D01*
X25931009Y-63214285D02*
X25883390Y-63166666D01*
X25883390Y-63166666D02*
X25835771Y-63071428D01*
X25835771Y-63071428D02*
X25835771Y-62880952D01*
X25835771Y-62880952D02*
X25883390Y-62785714D01*
X25883390Y-62785714D02*
X25931009Y-62738095D01*
X25931009Y-62738095D02*
X26026247Y-62690476D01*
X53359580Y-79357142D02*
X53407200Y-79309523D01*
X53407200Y-79309523D02*
X53454819Y-79166666D01*
X53454819Y-79166666D02*
X53454819Y-79071428D01*
X53454819Y-79071428D02*
X53407200Y-78928571D01*
X53407200Y-78928571D02*
X53311961Y-78833333D01*
X53311961Y-78833333D02*
X53216723Y-78785714D01*
X53216723Y-78785714D02*
X53026247Y-78738095D01*
X53026247Y-78738095D02*
X52883390Y-78738095D01*
X52883390Y-78738095D02*
X52692914Y-78785714D01*
X52692914Y-78785714D02*
X52597676Y-78833333D01*
X52597676Y-78833333D02*
X52502438Y-78928571D01*
X52502438Y-78928571D02*
X52454819Y-79071428D01*
X52454819Y-79071428D02*
X52454819Y-79166666D01*
X52454819Y-79166666D02*
X52502438Y-79309523D01*
X52502438Y-79309523D02*
X52550057Y-79357142D01*
X52550057Y-79738095D02*
X52502438Y-79785714D01*
X52502438Y-79785714D02*
X52454819Y-79880952D01*
X52454819Y-79880952D02*
X52454819Y-80119047D01*
X52454819Y-80119047D02*
X52502438Y-80214285D01*
X52502438Y-80214285D02*
X52550057Y-80261904D01*
X52550057Y-80261904D02*
X52645295Y-80309523D01*
X52645295Y-80309523D02*
X52740533Y-80309523D01*
X52740533Y-80309523D02*
X52883390Y-80261904D01*
X52883390Y-80261904D02*
X53454819Y-79690476D01*
X53454819Y-79690476D02*
X53454819Y-80309523D01*
X52454819Y-80642857D02*
X52454819Y-81261904D01*
X52454819Y-81261904D02*
X52835771Y-80928571D01*
X52835771Y-80928571D02*
X52835771Y-81071428D01*
X52835771Y-81071428D02*
X52883390Y-81166666D01*
X52883390Y-81166666D02*
X52931009Y-81214285D01*
X52931009Y-81214285D02*
X53026247Y-81261904D01*
X53026247Y-81261904D02*
X53264342Y-81261904D01*
X53264342Y-81261904D02*
X53359580Y-81214285D01*
X53359580Y-81214285D02*
X53407200Y-81166666D01*
X53407200Y-81166666D02*
X53454819Y-81071428D01*
X53454819Y-81071428D02*
X53454819Y-80785714D01*
X53454819Y-80785714D02*
X53407200Y-80690476D01*
X53407200Y-80690476D02*
X53359580Y-80642857D01*
X73704819Y-49190476D02*
X74419104Y-49190476D01*
X74419104Y-49190476D02*
X74561961Y-49142857D01*
X74561961Y-49142857D02*
X74657200Y-49047619D01*
X74657200Y-49047619D02*
X74704819Y-48904762D01*
X74704819Y-48904762D02*
X74704819Y-48809524D01*
X74704819Y-49666667D02*
X73704819Y-49666667D01*
X73704819Y-49666667D02*
X73704819Y-50047619D01*
X73704819Y-50047619D02*
X73752438Y-50142857D01*
X73752438Y-50142857D02*
X73800057Y-50190476D01*
X73800057Y-50190476D02*
X73895295Y-50238095D01*
X73895295Y-50238095D02*
X74038152Y-50238095D01*
X74038152Y-50238095D02*
X74133390Y-50190476D01*
X74133390Y-50190476D02*
X74181009Y-50142857D01*
X74181009Y-50142857D02*
X74228628Y-50047619D01*
X74228628Y-50047619D02*
X74228628Y-49666667D01*
X74704819Y-51190476D02*
X74704819Y-50619048D01*
X74704819Y-50904762D02*
X73704819Y-50904762D01*
X73704819Y-50904762D02*
X73847676Y-50809524D01*
X73847676Y-50809524D02*
X73942914Y-50714286D01*
X73942914Y-50714286D02*
X73990533Y-50619048D01*
X73800057Y-51571429D02*
X73752438Y-51619048D01*
X73752438Y-51619048D02*
X73704819Y-51714286D01*
X73704819Y-51714286D02*
X73704819Y-51952381D01*
X73704819Y-51952381D02*
X73752438Y-52047619D01*
X73752438Y-52047619D02*
X73800057Y-52095238D01*
X73800057Y-52095238D02*
X73895295Y-52142857D01*
X73895295Y-52142857D02*
X73990533Y-52142857D01*
X73990533Y-52142857D02*
X74133390Y-52095238D01*
X74133390Y-52095238D02*
X74704819Y-51523810D01*
X74704819Y-51523810D02*
X74704819Y-52142857D01*
X41954819Y-56865476D02*
X42669104Y-56865476D01*
X42669104Y-56865476D02*
X42811961Y-56817857D01*
X42811961Y-56817857D02*
X42907200Y-56722619D01*
X42907200Y-56722619D02*
X42954819Y-56579762D01*
X42954819Y-56579762D02*
X42954819Y-56484524D01*
X42954819Y-57341667D02*
X41954819Y-57341667D01*
X41954819Y-57341667D02*
X41954819Y-57722619D01*
X41954819Y-57722619D02*
X42002438Y-57817857D01*
X42002438Y-57817857D02*
X42050057Y-57865476D01*
X42050057Y-57865476D02*
X42145295Y-57913095D01*
X42145295Y-57913095D02*
X42288152Y-57913095D01*
X42288152Y-57913095D02*
X42383390Y-57865476D01*
X42383390Y-57865476D02*
X42431009Y-57817857D01*
X42431009Y-57817857D02*
X42478628Y-57722619D01*
X42478628Y-57722619D02*
X42478628Y-57341667D01*
X42954819Y-58865476D02*
X42954819Y-58294048D01*
X42954819Y-58579762D02*
X41954819Y-58579762D01*
X41954819Y-58579762D02*
X42097676Y-58484524D01*
X42097676Y-58484524D02*
X42192914Y-58389286D01*
X42192914Y-58389286D02*
X42240533Y-58294048D01*
X41954819Y-59722619D02*
X41954819Y-59532143D01*
X41954819Y-59532143D02*
X42002438Y-59436905D01*
X42002438Y-59436905D02*
X42050057Y-59389286D01*
X42050057Y-59389286D02*
X42192914Y-59294048D01*
X42192914Y-59294048D02*
X42383390Y-59246429D01*
X42383390Y-59246429D02*
X42764342Y-59246429D01*
X42764342Y-59246429D02*
X42859580Y-59294048D01*
X42859580Y-59294048D02*
X42907200Y-59341667D01*
X42907200Y-59341667D02*
X42954819Y-59436905D01*
X42954819Y-59436905D02*
X42954819Y-59627381D01*
X42954819Y-59627381D02*
X42907200Y-59722619D01*
X42907200Y-59722619D02*
X42859580Y-59770238D01*
X42859580Y-59770238D02*
X42764342Y-59817857D01*
X42764342Y-59817857D02*
X42526247Y-59817857D01*
X42526247Y-59817857D02*
X42431009Y-59770238D01*
X42431009Y-59770238D02*
X42383390Y-59722619D01*
X42383390Y-59722619D02*
X42335771Y-59627381D01*
X42335771Y-59627381D02*
X42335771Y-59436905D01*
X42335771Y-59436905D02*
X42383390Y-59341667D01*
X42383390Y-59341667D02*
X42431009Y-59294048D01*
X42431009Y-59294048D02*
X42526247Y-59246429D01*
X71204819Y-49190476D02*
X71919104Y-49190476D01*
X71919104Y-49190476D02*
X72061961Y-49142857D01*
X72061961Y-49142857D02*
X72157200Y-49047619D01*
X72157200Y-49047619D02*
X72204819Y-48904762D01*
X72204819Y-48904762D02*
X72204819Y-48809524D01*
X72204819Y-49666667D02*
X71204819Y-49666667D01*
X71204819Y-49666667D02*
X71204819Y-50047619D01*
X71204819Y-50047619D02*
X71252438Y-50142857D01*
X71252438Y-50142857D02*
X71300057Y-50190476D01*
X71300057Y-50190476D02*
X71395295Y-50238095D01*
X71395295Y-50238095D02*
X71538152Y-50238095D01*
X71538152Y-50238095D02*
X71633390Y-50190476D01*
X71633390Y-50190476D02*
X71681009Y-50142857D01*
X71681009Y-50142857D02*
X71728628Y-50047619D01*
X71728628Y-50047619D02*
X71728628Y-49666667D01*
X72204819Y-51190476D02*
X72204819Y-50619048D01*
X72204819Y-50904762D02*
X71204819Y-50904762D01*
X71204819Y-50904762D02*
X71347676Y-50809524D01*
X71347676Y-50809524D02*
X71442914Y-50714286D01*
X71442914Y-50714286D02*
X71490533Y-50619048D01*
X72204819Y-52142857D02*
X72204819Y-51571429D01*
X72204819Y-51857143D02*
X71204819Y-51857143D01*
X71204819Y-51857143D02*
X71347676Y-51761905D01*
X71347676Y-51761905D02*
X71442914Y-51666667D01*
X71442914Y-51666667D02*
X71490533Y-51571429D01*
X49309523Y-53704819D02*
X49309523Y-54419104D01*
X49309523Y-54419104D02*
X49357142Y-54561961D01*
X49357142Y-54561961D02*
X49452380Y-54657200D01*
X49452380Y-54657200D02*
X49595237Y-54704819D01*
X49595237Y-54704819D02*
X49690475Y-54704819D01*
X48833332Y-54704819D02*
X48833332Y-53704819D01*
X48833332Y-53704819D02*
X48452380Y-53704819D01*
X48452380Y-53704819D02*
X48357142Y-53752438D01*
X48357142Y-53752438D02*
X48309523Y-53800057D01*
X48309523Y-53800057D02*
X48261904Y-53895295D01*
X48261904Y-53895295D02*
X48261904Y-54038152D01*
X48261904Y-54038152D02*
X48309523Y-54133390D01*
X48309523Y-54133390D02*
X48357142Y-54181009D01*
X48357142Y-54181009D02*
X48452380Y-54228628D01*
X48452380Y-54228628D02*
X48833332Y-54228628D01*
X47309523Y-54704819D02*
X47880951Y-54704819D01*
X47595237Y-54704819D02*
X47595237Y-53704819D01*
X47595237Y-53704819D02*
X47690475Y-53847676D01*
X47690475Y-53847676D02*
X47785713Y-53942914D01*
X47785713Y-53942914D02*
X47880951Y-53990533D01*
X46452380Y-54038152D02*
X46452380Y-54704819D01*
X46690475Y-53657200D02*
X46928570Y-54371485D01*
X46928570Y-54371485D02*
X46309523Y-54371485D01*
X32204819Y-64690476D02*
X32919104Y-64690476D01*
X32919104Y-64690476D02*
X33061961Y-64642857D01*
X33061961Y-64642857D02*
X33157200Y-64547619D01*
X33157200Y-64547619D02*
X33204819Y-64404762D01*
X33204819Y-64404762D02*
X33204819Y-64309524D01*
X33204819Y-65166667D02*
X32204819Y-65166667D01*
X32204819Y-65166667D02*
X32204819Y-65547619D01*
X32204819Y-65547619D02*
X32252438Y-65642857D01*
X32252438Y-65642857D02*
X32300057Y-65690476D01*
X32300057Y-65690476D02*
X32395295Y-65738095D01*
X32395295Y-65738095D02*
X32538152Y-65738095D01*
X32538152Y-65738095D02*
X32633390Y-65690476D01*
X32633390Y-65690476D02*
X32681009Y-65642857D01*
X32681009Y-65642857D02*
X32728628Y-65547619D01*
X32728628Y-65547619D02*
X32728628Y-65166667D01*
X32300057Y-66119048D02*
X32252438Y-66166667D01*
X32252438Y-66166667D02*
X32204819Y-66261905D01*
X32204819Y-66261905D02*
X32204819Y-66500000D01*
X32204819Y-66500000D02*
X32252438Y-66595238D01*
X32252438Y-66595238D02*
X32300057Y-66642857D01*
X32300057Y-66642857D02*
X32395295Y-66690476D01*
X32395295Y-66690476D02*
X32490533Y-66690476D01*
X32490533Y-66690476D02*
X32633390Y-66642857D01*
X32633390Y-66642857D02*
X33204819Y-66071429D01*
X33204819Y-66071429D02*
X33204819Y-66690476D01*
X32204819Y-67309524D02*
X32204819Y-67404762D01*
X32204819Y-67404762D02*
X32252438Y-67500000D01*
X32252438Y-67500000D02*
X32300057Y-67547619D01*
X32300057Y-67547619D02*
X32395295Y-67595238D01*
X32395295Y-67595238D02*
X32585771Y-67642857D01*
X32585771Y-67642857D02*
X32823866Y-67642857D01*
X32823866Y-67642857D02*
X33014342Y-67595238D01*
X33014342Y-67595238D02*
X33109580Y-67547619D01*
X33109580Y-67547619D02*
X33157200Y-67500000D01*
X33157200Y-67500000D02*
X33204819Y-67404762D01*
X33204819Y-67404762D02*
X33204819Y-67309524D01*
X33204819Y-67309524D02*
X33157200Y-67214286D01*
X33157200Y-67214286D02*
X33109580Y-67166667D01*
X33109580Y-67166667D02*
X33014342Y-67119048D01*
X33014342Y-67119048D02*
X32823866Y-67071429D01*
X32823866Y-67071429D02*
X32585771Y-67071429D01*
X32585771Y-67071429D02*
X32395295Y-67119048D01*
X32395295Y-67119048D02*
X32300057Y-67166667D01*
X32300057Y-67166667D02*
X32252438Y-67214286D01*
X32252438Y-67214286D02*
X32204819Y-67309524D01*
X62204819Y-49166666D02*
X62919104Y-49166666D01*
X62919104Y-49166666D02*
X63061961Y-49119047D01*
X63061961Y-49119047D02*
X63157200Y-49023809D01*
X63157200Y-49023809D02*
X63204819Y-48880952D01*
X63204819Y-48880952D02*
X63204819Y-48785714D01*
X63204819Y-49642857D02*
X62204819Y-49642857D01*
X62204819Y-49642857D02*
X62204819Y-50023809D01*
X62204819Y-50023809D02*
X62252438Y-50119047D01*
X62252438Y-50119047D02*
X62300057Y-50166666D01*
X62300057Y-50166666D02*
X62395295Y-50214285D01*
X62395295Y-50214285D02*
X62538152Y-50214285D01*
X62538152Y-50214285D02*
X62633390Y-50166666D01*
X62633390Y-50166666D02*
X62681009Y-50119047D01*
X62681009Y-50119047D02*
X62728628Y-50023809D01*
X62728628Y-50023809D02*
X62728628Y-49642857D01*
X62633390Y-50785714D02*
X62585771Y-50690476D01*
X62585771Y-50690476D02*
X62538152Y-50642857D01*
X62538152Y-50642857D02*
X62442914Y-50595238D01*
X62442914Y-50595238D02*
X62395295Y-50595238D01*
X62395295Y-50595238D02*
X62300057Y-50642857D01*
X62300057Y-50642857D02*
X62252438Y-50690476D01*
X62252438Y-50690476D02*
X62204819Y-50785714D01*
X62204819Y-50785714D02*
X62204819Y-50976190D01*
X62204819Y-50976190D02*
X62252438Y-51071428D01*
X62252438Y-51071428D02*
X62300057Y-51119047D01*
X62300057Y-51119047D02*
X62395295Y-51166666D01*
X62395295Y-51166666D02*
X62442914Y-51166666D01*
X62442914Y-51166666D02*
X62538152Y-51119047D01*
X62538152Y-51119047D02*
X62585771Y-51071428D01*
X62585771Y-51071428D02*
X62633390Y-50976190D01*
X62633390Y-50976190D02*
X62633390Y-50785714D01*
X62633390Y-50785714D02*
X62681009Y-50690476D01*
X62681009Y-50690476D02*
X62728628Y-50642857D01*
X62728628Y-50642857D02*
X62823866Y-50595238D01*
X62823866Y-50595238D02*
X63014342Y-50595238D01*
X63014342Y-50595238D02*
X63109580Y-50642857D01*
X63109580Y-50642857D02*
X63157200Y-50690476D01*
X63157200Y-50690476D02*
X63204819Y-50785714D01*
X63204819Y-50785714D02*
X63204819Y-50976190D01*
X63204819Y-50976190D02*
X63157200Y-51071428D01*
X63157200Y-51071428D02*
X63109580Y-51119047D01*
X63109580Y-51119047D02*
X63014342Y-51166666D01*
X63014342Y-51166666D02*
X62823866Y-51166666D01*
X62823866Y-51166666D02*
X62728628Y-51119047D01*
X62728628Y-51119047D02*
X62681009Y-51071428D01*
X62681009Y-51071428D02*
X62633390Y-50976190D01*
X49309523Y-51204819D02*
X49309523Y-51919104D01*
X49309523Y-51919104D02*
X49357142Y-52061961D01*
X49357142Y-52061961D02*
X49452380Y-52157200D01*
X49452380Y-52157200D02*
X49595237Y-52204819D01*
X49595237Y-52204819D02*
X49690475Y-52204819D01*
X48833332Y-52204819D02*
X48833332Y-51204819D01*
X48833332Y-51204819D02*
X48452380Y-51204819D01*
X48452380Y-51204819D02*
X48357142Y-51252438D01*
X48357142Y-51252438D02*
X48309523Y-51300057D01*
X48309523Y-51300057D02*
X48261904Y-51395295D01*
X48261904Y-51395295D02*
X48261904Y-51538152D01*
X48261904Y-51538152D02*
X48309523Y-51633390D01*
X48309523Y-51633390D02*
X48357142Y-51681009D01*
X48357142Y-51681009D02*
X48452380Y-51728628D01*
X48452380Y-51728628D02*
X48833332Y-51728628D01*
X47309523Y-52204819D02*
X47880951Y-52204819D01*
X47595237Y-52204819D02*
X47595237Y-51204819D01*
X47595237Y-51204819D02*
X47690475Y-51347676D01*
X47690475Y-51347676D02*
X47785713Y-51442914D01*
X47785713Y-51442914D02*
X47880951Y-51490533D01*
X46976189Y-51204819D02*
X46357142Y-51204819D01*
X46357142Y-51204819D02*
X46690475Y-51585771D01*
X46690475Y-51585771D02*
X46547618Y-51585771D01*
X46547618Y-51585771D02*
X46452380Y-51633390D01*
X46452380Y-51633390D02*
X46404761Y-51681009D01*
X46404761Y-51681009D02*
X46357142Y-51776247D01*
X46357142Y-51776247D02*
X46357142Y-52014342D01*
X46357142Y-52014342D02*
X46404761Y-52109580D01*
X46404761Y-52109580D02*
X46452380Y-52157200D01*
X46452380Y-52157200D02*
X46547618Y-52204819D01*
X46547618Y-52204819D02*
X46833332Y-52204819D01*
X46833332Y-52204819D02*
X46928570Y-52157200D01*
X46928570Y-52157200D02*
X46976189Y-52109580D01*
X21892857Y-53204819D02*
X22226190Y-52728628D01*
X22464285Y-53204819D02*
X22464285Y-52204819D01*
X22464285Y-52204819D02*
X22083333Y-52204819D01*
X22083333Y-52204819D02*
X21988095Y-52252438D01*
X21988095Y-52252438D02*
X21940476Y-52300057D01*
X21940476Y-52300057D02*
X21892857Y-52395295D01*
X21892857Y-52395295D02*
X21892857Y-52538152D01*
X21892857Y-52538152D02*
X21940476Y-52633390D01*
X21940476Y-52633390D02*
X21988095Y-52681009D01*
X21988095Y-52681009D02*
X22083333Y-52728628D01*
X22083333Y-52728628D02*
X22464285Y-52728628D01*
X21511904Y-52300057D02*
X21464285Y-52252438D01*
X21464285Y-52252438D02*
X21369047Y-52204819D01*
X21369047Y-52204819D02*
X21130952Y-52204819D01*
X21130952Y-52204819D02*
X21035714Y-52252438D01*
X21035714Y-52252438D02*
X20988095Y-52300057D01*
X20988095Y-52300057D02*
X20940476Y-52395295D01*
X20940476Y-52395295D02*
X20940476Y-52490533D01*
X20940476Y-52490533D02*
X20988095Y-52633390D01*
X20988095Y-52633390D02*
X21559523Y-53204819D01*
X21559523Y-53204819D02*
X20940476Y-53204819D01*
X20607142Y-52204819D02*
X19940476Y-52204819D01*
X19940476Y-52204819D02*
X20369047Y-53204819D01*
X64704819Y-49166666D02*
X65419104Y-49166666D01*
X65419104Y-49166666D02*
X65561961Y-49119047D01*
X65561961Y-49119047D02*
X65657200Y-49023809D01*
X65657200Y-49023809D02*
X65704819Y-48880952D01*
X65704819Y-48880952D02*
X65704819Y-48785714D01*
X65704819Y-49642857D02*
X64704819Y-49642857D01*
X64704819Y-49642857D02*
X64704819Y-50023809D01*
X64704819Y-50023809D02*
X64752438Y-50119047D01*
X64752438Y-50119047D02*
X64800057Y-50166666D01*
X64800057Y-50166666D02*
X64895295Y-50214285D01*
X64895295Y-50214285D02*
X65038152Y-50214285D01*
X65038152Y-50214285D02*
X65133390Y-50166666D01*
X65133390Y-50166666D02*
X65181009Y-50119047D01*
X65181009Y-50119047D02*
X65228628Y-50023809D01*
X65228628Y-50023809D02*
X65228628Y-49642857D01*
X65704819Y-50690476D02*
X65704819Y-50880952D01*
X65704819Y-50880952D02*
X65657200Y-50976190D01*
X65657200Y-50976190D02*
X65609580Y-51023809D01*
X65609580Y-51023809D02*
X65466723Y-51119047D01*
X65466723Y-51119047D02*
X65276247Y-51166666D01*
X65276247Y-51166666D02*
X64895295Y-51166666D01*
X64895295Y-51166666D02*
X64800057Y-51119047D01*
X64800057Y-51119047D02*
X64752438Y-51071428D01*
X64752438Y-51071428D02*
X64704819Y-50976190D01*
X64704819Y-50976190D02*
X64704819Y-50785714D01*
X64704819Y-50785714D02*
X64752438Y-50690476D01*
X64752438Y-50690476D02*
X64800057Y-50642857D01*
X64800057Y-50642857D02*
X64895295Y-50595238D01*
X64895295Y-50595238D02*
X65133390Y-50595238D01*
X65133390Y-50595238D02*
X65228628Y-50642857D01*
X65228628Y-50642857D02*
X65276247Y-50690476D01*
X65276247Y-50690476D02*
X65323866Y-50785714D01*
X65323866Y-50785714D02*
X65323866Y-50976190D01*
X65323866Y-50976190D02*
X65276247Y-51071428D01*
X65276247Y-51071428D02*
X65228628Y-51119047D01*
X65228628Y-51119047D02*
X65133390Y-51166666D01*
X89142857Y-91124819D02*
X89476190Y-90648628D01*
X89714285Y-91124819D02*
X89714285Y-90124819D01*
X89714285Y-90124819D02*
X89333333Y-90124819D01*
X89333333Y-90124819D02*
X89238095Y-90172438D01*
X89238095Y-90172438D02*
X89190476Y-90220057D01*
X89190476Y-90220057D02*
X89142857Y-90315295D01*
X89142857Y-90315295D02*
X89142857Y-90458152D01*
X89142857Y-90458152D02*
X89190476Y-90553390D01*
X89190476Y-90553390D02*
X89238095Y-90601009D01*
X89238095Y-90601009D02*
X89333333Y-90648628D01*
X89333333Y-90648628D02*
X89714285Y-90648628D01*
X88761904Y-90220057D02*
X88714285Y-90172438D01*
X88714285Y-90172438D02*
X88619047Y-90124819D01*
X88619047Y-90124819D02*
X88380952Y-90124819D01*
X88380952Y-90124819D02*
X88285714Y-90172438D01*
X88285714Y-90172438D02*
X88238095Y-90220057D01*
X88238095Y-90220057D02*
X88190476Y-90315295D01*
X88190476Y-90315295D02*
X88190476Y-90410533D01*
X88190476Y-90410533D02*
X88238095Y-90553390D01*
X88238095Y-90553390D02*
X88809523Y-91124819D01*
X88809523Y-91124819D02*
X88190476Y-91124819D01*
X87619047Y-90553390D02*
X87714285Y-90505771D01*
X87714285Y-90505771D02*
X87761904Y-90458152D01*
X87761904Y-90458152D02*
X87809523Y-90362914D01*
X87809523Y-90362914D02*
X87809523Y-90315295D01*
X87809523Y-90315295D02*
X87761904Y-90220057D01*
X87761904Y-90220057D02*
X87714285Y-90172438D01*
X87714285Y-90172438D02*
X87619047Y-90124819D01*
X87619047Y-90124819D02*
X87428571Y-90124819D01*
X87428571Y-90124819D02*
X87333333Y-90172438D01*
X87333333Y-90172438D02*
X87285714Y-90220057D01*
X87285714Y-90220057D02*
X87238095Y-90315295D01*
X87238095Y-90315295D02*
X87238095Y-90362914D01*
X87238095Y-90362914D02*
X87285714Y-90458152D01*
X87285714Y-90458152D02*
X87333333Y-90505771D01*
X87333333Y-90505771D02*
X87428571Y-90553390D01*
X87428571Y-90553390D02*
X87619047Y-90553390D01*
X87619047Y-90553390D02*
X87714285Y-90601009D01*
X87714285Y-90601009D02*
X87761904Y-90648628D01*
X87761904Y-90648628D02*
X87809523Y-90743866D01*
X87809523Y-90743866D02*
X87809523Y-90934342D01*
X87809523Y-90934342D02*
X87761904Y-91029580D01*
X87761904Y-91029580D02*
X87714285Y-91077200D01*
X87714285Y-91077200D02*
X87619047Y-91124819D01*
X87619047Y-91124819D02*
X87428571Y-91124819D01*
X87428571Y-91124819D02*
X87333333Y-91077200D01*
X87333333Y-91077200D02*
X87285714Y-91029580D01*
X87285714Y-91029580D02*
X87238095Y-90934342D01*
X87238095Y-90934342D02*
X87238095Y-90743866D01*
X87238095Y-90743866D02*
X87285714Y-90648628D01*
X87285714Y-90648628D02*
X87333333Y-90601009D01*
X87333333Y-90601009D02*
X87428571Y-90553390D01*
X72142857Y-91124819D02*
X72476190Y-90648628D01*
X72714285Y-91124819D02*
X72714285Y-90124819D01*
X72714285Y-90124819D02*
X72333333Y-90124819D01*
X72333333Y-90124819D02*
X72238095Y-90172438D01*
X72238095Y-90172438D02*
X72190476Y-90220057D01*
X72190476Y-90220057D02*
X72142857Y-90315295D01*
X72142857Y-90315295D02*
X72142857Y-90458152D01*
X72142857Y-90458152D02*
X72190476Y-90553390D01*
X72190476Y-90553390D02*
X72238095Y-90601009D01*
X72238095Y-90601009D02*
X72333333Y-90648628D01*
X72333333Y-90648628D02*
X72714285Y-90648628D01*
X71761904Y-90220057D02*
X71714285Y-90172438D01*
X71714285Y-90172438D02*
X71619047Y-90124819D01*
X71619047Y-90124819D02*
X71380952Y-90124819D01*
X71380952Y-90124819D02*
X71285714Y-90172438D01*
X71285714Y-90172438D02*
X71238095Y-90220057D01*
X71238095Y-90220057D02*
X71190476Y-90315295D01*
X71190476Y-90315295D02*
X71190476Y-90410533D01*
X71190476Y-90410533D02*
X71238095Y-90553390D01*
X71238095Y-90553390D02*
X71809523Y-91124819D01*
X71809523Y-91124819D02*
X71190476Y-91124819D01*
X70714285Y-91124819D02*
X70523809Y-91124819D01*
X70523809Y-91124819D02*
X70428571Y-91077200D01*
X70428571Y-91077200D02*
X70380952Y-91029580D01*
X70380952Y-91029580D02*
X70285714Y-90886723D01*
X70285714Y-90886723D02*
X70238095Y-90696247D01*
X70238095Y-90696247D02*
X70238095Y-90315295D01*
X70238095Y-90315295D02*
X70285714Y-90220057D01*
X70285714Y-90220057D02*
X70333333Y-90172438D01*
X70333333Y-90172438D02*
X70428571Y-90124819D01*
X70428571Y-90124819D02*
X70619047Y-90124819D01*
X70619047Y-90124819D02*
X70714285Y-90172438D01*
X70714285Y-90172438D02*
X70761904Y-90220057D01*
X70761904Y-90220057D02*
X70809523Y-90315295D01*
X70809523Y-90315295D02*
X70809523Y-90553390D01*
X70809523Y-90553390D02*
X70761904Y-90648628D01*
X70761904Y-90648628D02*
X70714285Y-90696247D01*
X70714285Y-90696247D02*
X70619047Y-90743866D01*
X70619047Y-90743866D02*
X70428571Y-90743866D01*
X70428571Y-90743866D02*
X70333333Y-90696247D01*
X70333333Y-90696247D02*
X70285714Y-90648628D01*
X70285714Y-90648628D02*
X70238095Y-90553390D01*
X68704819Y-49190476D02*
X69419104Y-49190476D01*
X69419104Y-49190476D02*
X69561961Y-49142857D01*
X69561961Y-49142857D02*
X69657200Y-49047619D01*
X69657200Y-49047619D02*
X69704819Y-48904762D01*
X69704819Y-48904762D02*
X69704819Y-48809524D01*
X69704819Y-49666667D02*
X68704819Y-49666667D01*
X68704819Y-49666667D02*
X68704819Y-50047619D01*
X68704819Y-50047619D02*
X68752438Y-50142857D01*
X68752438Y-50142857D02*
X68800057Y-50190476D01*
X68800057Y-50190476D02*
X68895295Y-50238095D01*
X68895295Y-50238095D02*
X69038152Y-50238095D01*
X69038152Y-50238095D02*
X69133390Y-50190476D01*
X69133390Y-50190476D02*
X69181009Y-50142857D01*
X69181009Y-50142857D02*
X69228628Y-50047619D01*
X69228628Y-50047619D02*
X69228628Y-49666667D01*
X69704819Y-51190476D02*
X69704819Y-50619048D01*
X69704819Y-50904762D02*
X68704819Y-50904762D01*
X68704819Y-50904762D02*
X68847676Y-50809524D01*
X68847676Y-50809524D02*
X68942914Y-50714286D01*
X68942914Y-50714286D02*
X68990533Y-50619048D01*
X68704819Y-51809524D02*
X68704819Y-51904762D01*
X68704819Y-51904762D02*
X68752438Y-52000000D01*
X68752438Y-52000000D02*
X68800057Y-52047619D01*
X68800057Y-52047619D02*
X68895295Y-52095238D01*
X68895295Y-52095238D02*
X69085771Y-52142857D01*
X69085771Y-52142857D02*
X69323866Y-52142857D01*
X69323866Y-52142857D02*
X69514342Y-52095238D01*
X69514342Y-52095238D02*
X69609580Y-52047619D01*
X69609580Y-52047619D02*
X69657200Y-52000000D01*
X69657200Y-52000000D02*
X69704819Y-51904762D01*
X69704819Y-51904762D02*
X69704819Y-51809524D01*
X69704819Y-51809524D02*
X69657200Y-51714286D01*
X69657200Y-51714286D02*
X69609580Y-51666667D01*
X69609580Y-51666667D02*
X69514342Y-51619048D01*
X69514342Y-51619048D02*
X69323866Y-51571429D01*
X69323866Y-51571429D02*
X69085771Y-51571429D01*
X69085771Y-51571429D02*
X68895295Y-51619048D01*
X68895295Y-51619048D02*
X68800057Y-51666667D01*
X68800057Y-51666667D02*
X68752438Y-51714286D01*
X68752438Y-51714286D02*
X68704819Y-51809524D01*
X94371333Y-47804819D02*
X94371333Y-48519104D01*
X94371333Y-48519104D02*
X94418952Y-48661961D01*
X94418952Y-48661961D02*
X94514190Y-48757200D01*
X94514190Y-48757200D02*
X94657047Y-48804819D01*
X94657047Y-48804819D02*
X94752285Y-48804819D01*
X93895142Y-48804819D02*
X93895142Y-47804819D01*
X93895142Y-47804819D02*
X93514190Y-47804819D01*
X93514190Y-47804819D02*
X93418952Y-47852438D01*
X93418952Y-47852438D02*
X93371333Y-47900057D01*
X93371333Y-47900057D02*
X93323714Y-47995295D01*
X93323714Y-47995295D02*
X93323714Y-48138152D01*
X93323714Y-48138152D02*
X93371333Y-48233390D01*
X93371333Y-48233390D02*
X93418952Y-48281009D01*
X93418952Y-48281009D02*
X93514190Y-48328628D01*
X93514190Y-48328628D02*
X93895142Y-48328628D01*
X92990380Y-47804819D02*
X92371333Y-47804819D01*
X92371333Y-47804819D02*
X92704666Y-48185771D01*
X92704666Y-48185771D02*
X92561809Y-48185771D01*
X92561809Y-48185771D02*
X92466571Y-48233390D01*
X92466571Y-48233390D02*
X92418952Y-48281009D01*
X92418952Y-48281009D02*
X92371333Y-48376247D01*
X92371333Y-48376247D02*
X92371333Y-48614342D01*
X92371333Y-48614342D02*
X92418952Y-48709580D01*
X92418952Y-48709580D02*
X92466571Y-48757200D01*
X92466571Y-48757200D02*
X92561809Y-48804819D01*
X92561809Y-48804819D02*
X92847523Y-48804819D01*
X92847523Y-48804819D02*
X92942761Y-48757200D01*
X92942761Y-48757200D02*
X92990380Y-48709580D01*
X84407333Y-47804819D02*
X84407333Y-48519104D01*
X84407333Y-48519104D02*
X84454952Y-48661961D01*
X84454952Y-48661961D02*
X84550190Y-48757200D01*
X84550190Y-48757200D02*
X84693047Y-48804819D01*
X84693047Y-48804819D02*
X84788285Y-48804819D01*
X83931142Y-48804819D02*
X83931142Y-47804819D01*
X83931142Y-47804819D02*
X83550190Y-47804819D01*
X83550190Y-47804819D02*
X83454952Y-47852438D01*
X83454952Y-47852438D02*
X83407333Y-47900057D01*
X83407333Y-47900057D02*
X83359714Y-47995295D01*
X83359714Y-47995295D02*
X83359714Y-48138152D01*
X83359714Y-48138152D02*
X83407333Y-48233390D01*
X83407333Y-48233390D02*
X83454952Y-48281009D01*
X83454952Y-48281009D02*
X83550190Y-48328628D01*
X83550190Y-48328628D02*
X83931142Y-48328628D01*
X82502571Y-48138152D02*
X82502571Y-48804819D01*
X82740666Y-47757200D02*
X82978761Y-48471485D01*
X82978761Y-48471485D02*
X82359714Y-48471485D01*
X78559523Y-80254819D02*
X78559523Y-80969104D01*
X78559523Y-80969104D02*
X78607142Y-81111961D01*
X78607142Y-81111961D02*
X78702380Y-81207200D01*
X78702380Y-81207200D02*
X78845237Y-81254819D01*
X78845237Y-81254819D02*
X78940475Y-81254819D01*
X78083332Y-81254819D02*
X78083332Y-80254819D01*
X78083332Y-80254819D02*
X77702380Y-80254819D01*
X77702380Y-80254819D02*
X77607142Y-80302438D01*
X77607142Y-80302438D02*
X77559523Y-80350057D01*
X77559523Y-80350057D02*
X77511904Y-80445295D01*
X77511904Y-80445295D02*
X77511904Y-80588152D01*
X77511904Y-80588152D02*
X77559523Y-80683390D01*
X77559523Y-80683390D02*
X77607142Y-80731009D01*
X77607142Y-80731009D02*
X77702380Y-80778628D01*
X77702380Y-80778628D02*
X78083332Y-80778628D01*
X77130951Y-80350057D02*
X77083332Y-80302438D01*
X77083332Y-80302438D02*
X76988094Y-80254819D01*
X76988094Y-80254819D02*
X76749999Y-80254819D01*
X76749999Y-80254819D02*
X76654761Y-80302438D01*
X76654761Y-80302438D02*
X76607142Y-80350057D01*
X76607142Y-80350057D02*
X76559523Y-80445295D01*
X76559523Y-80445295D02*
X76559523Y-80540533D01*
X76559523Y-80540533D02*
X76607142Y-80683390D01*
X76607142Y-80683390D02*
X77178570Y-81254819D01*
X77178570Y-81254819D02*
X76559523Y-81254819D01*
X75607142Y-81254819D02*
X76178570Y-81254819D01*
X75892856Y-81254819D02*
X75892856Y-80254819D01*
X75892856Y-80254819D02*
X75988094Y-80397676D01*
X75988094Y-80397676D02*
X76083332Y-80492914D01*
X76083332Y-80492914D02*
X76178570Y-80540533D01*
X89810819Y-51766666D02*
X90525104Y-51766666D01*
X90525104Y-51766666D02*
X90667961Y-51719047D01*
X90667961Y-51719047D02*
X90763200Y-51623809D01*
X90763200Y-51623809D02*
X90810819Y-51480952D01*
X90810819Y-51480952D02*
X90810819Y-51385714D01*
X90810819Y-52242857D02*
X89810819Y-52242857D01*
X89810819Y-52242857D02*
X89810819Y-52623809D01*
X89810819Y-52623809D02*
X89858438Y-52719047D01*
X89858438Y-52719047D02*
X89906057Y-52766666D01*
X89906057Y-52766666D02*
X90001295Y-52814285D01*
X90001295Y-52814285D02*
X90144152Y-52814285D01*
X90144152Y-52814285D02*
X90239390Y-52766666D01*
X90239390Y-52766666D02*
X90287009Y-52719047D01*
X90287009Y-52719047D02*
X90334628Y-52623809D01*
X90334628Y-52623809D02*
X90334628Y-52242857D01*
X89810819Y-53719047D02*
X89810819Y-53242857D01*
X89810819Y-53242857D02*
X90287009Y-53195238D01*
X90287009Y-53195238D02*
X90239390Y-53242857D01*
X90239390Y-53242857D02*
X90191771Y-53338095D01*
X90191771Y-53338095D02*
X90191771Y-53576190D01*
X90191771Y-53576190D02*
X90239390Y-53671428D01*
X90239390Y-53671428D02*
X90287009Y-53719047D01*
X90287009Y-53719047D02*
X90382247Y-53766666D01*
X90382247Y-53766666D02*
X90620342Y-53766666D01*
X90620342Y-53766666D02*
X90715580Y-53719047D01*
X90715580Y-53719047D02*
X90763200Y-53671428D01*
X90763200Y-53671428D02*
X90810819Y-53576190D01*
X90810819Y-53576190D02*
X90810819Y-53338095D01*
X90810819Y-53338095D02*
X90763200Y-53242857D01*
X90763200Y-53242857D02*
X90715580Y-53195238D01*
X33704819Y-64690476D02*
X34419104Y-64690476D01*
X34419104Y-64690476D02*
X34561961Y-64642857D01*
X34561961Y-64642857D02*
X34657200Y-64547619D01*
X34657200Y-64547619D02*
X34704819Y-64404762D01*
X34704819Y-64404762D02*
X34704819Y-64309524D01*
X34704819Y-65166667D02*
X33704819Y-65166667D01*
X33704819Y-65166667D02*
X33704819Y-65547619D01*
X33704819Y-65547619D02*
X33752438Y-65642857D01*
X33752438Y-65642857D02*
X33800057Y-65690476D01*
X33800057Y-65690476D02*
X33895295Y-65738095D01*
X33895295Y-65738095D02*
X34038152Y-65738095D01*
X34038152Y-65738095D02*
X34133390Y-65690476D01*
X34133390Y-65690476D02*
X34181009Y-65642857D01*
X34181009Y-65642857D02*
X34228628Y-65547619D01*
X34228628Y-65547619D02*
X34228628Y-65166667D01*
X34704819Y-66690476D02*
X34704819Y-66119048D01*
X34704819Y-66404762D02*
X33704819Y-66404762D01*
X33704819Y-66404762D02*
X33847676Y-66309524D01*
X33847676Y-66309524D02*
X33942914Y-66214286D01*
X33942914Y-66214286D02*
X33990533Y-66119048D01*
X34704819Y-67166667D02*
X34704819Y-67357143D01*
X34704819Y-67357143D02*
X34657200Y-67452381D01*
X34657200Y-67452381D02*
X34609580Y-67500000D01*
X34609580Y-67500000D02*
X34466723Y-67595238D01*
X34466723Y-67595238D02*
X34276247Y-67642857D01*
X34276247Y-67642857D02*
X33895295Y-67642857D01*
X33895295Y-67642857D02*
X33800057Y-67595238D01*
X33800057Y-67595238D02*
X33752438Y-67547619D01*
X33752438Y-67547619D02*
X33704819Y-67452381D01*
X33704819Y-67452381D02*
X33704819Y-67261905D01*
X33704819Y-67261905D02*
X33752438Y-67166667D01*
X33752438Y-67166667D02*
X33800057Y-67119048D01*
X33800057Y-67119048D02*
X33895295Y-67071429D01*
X33895295Y-67071429D02*
X34133390Y-67071429D01*
X34133390Y-67071429D02*
X34228628Y-67119048D01*
X34228628Y-67119048D02*
X34276247Y-67166667D01*
X34276247Y-67166667D02*
X34323866Y-67261905D01*
X34323866Y-67261905D02*
X34323866Y-67452381D01*
X34323866Y-67452381D02*
X34276247Y-67547619D01*
X34276247Y-67547619D02*
X34228628Y-67595238D01*
X34228628Y-67595238D02*
X34133390Y-67642857D01*
X59704819Y-49166666D02*
X60419104Y-49166666D01*
X60419104Y-49166666D02*
X60561961Y-49119047D01*
X60561961Y-49119047D02*
X60657200Y-49023809D01*
X60657200Y-49023809D02*
X60704819Y-48880952D01*
X60704819Y-48880952D02*
X60704819Y-48785714D01*
X60704819Y-49642857D02*
X59704819Y-49642857D01*
X59704819Y-49642857D02*
X59704819Y-50023809D01*
X59704819Y-50023809D02*
X59752438Y-50119047D01*
X59752438Y-50119047D02*
X59800057Y-50166666D01*
X59800057Y-50166666D02*
X59895295Y-50214285D01*
X59895295Y-50214285D02*
X60038152Y-50214285D01*
X60038152Y-50214285D02*
X60133390Y-50166666D01*
X60133390Y-50166666D02*
X60181009Y-50119047D01*
X60181009Y-50119047D02*
X60228628Y-50023809D01*
X60228628Y-50023809D02*
X60228628Y-49642857D01*
X59704819Y-50547619D02*
X59704819Y-51214285D01*
X59704819Y-51214285D02*
X60704819Y-50785714D01*
X26142857Y-50124819D02*
X26476190Y-49648628D01*
X26714285Y-50124819D02*
X26714285Y-49124819D01*
X26714285Y-49124819D02*
X26333333Y-49124819D01*
X26333333Y-49124819D02*
X26238095Y-49172438D01*
X26238095Y-49172438D02*
X26190476Y-49220057D01*
X26190476Y-49220057D02*
X26142857Y-49315295D01*
X26142857Y-49315295D02*
X26142857Y-49458152D01*
X26142857Y-49458152D02*
X26190476Y-49553390D01*
X26190476Y-49553390D02*
X26238095Y-49601009D01*
X26238095Y-49601009D02*
X26333333Y-49648628D01*
X26333333Y-49648628D02*
X26714285Y-49648628D01*
X25761904Y-49220057D02*
X25714285Y-49172438D01*
X25714285Y-49172438D02*
X25619047Y-49124819D01*
X25619047Y-49124819D02*
X25380952Y-49124819D01*
X25380952Y-49124819D02*
X25285714Y-49172438D01*
X25285714Y-49172438D02*
X25238095Y-49220057D01*
X25238095Y-49220057D02*
X25190476Y-49315295D01*
X25190476Y-49315295D02*
X25190476Y-49410533D01*
X25190476Y-49410533D02*
X25238095Y-49553390D01*
X25238095Y-49553390D02*
X25809523Y-50124819D01*
X25809523Y-50124819D02*
X25190476Y-50124819D01*
X24809523Y-49220057D02*
X24761904Y-49172438D01*
X24761904Y-49172438D02*
X24666666Y-49124819D01*
X24666666Y-49124819D02*
X24428571Y-49124819D01*
X24428571Y-49124819D02*
X24333333Y-49172438D01*
X24333333Y-49172438D02*
X24285714Y-49220057D01*
X24285714Y-49220057D02*
X24238095Y-49315295D01*
X24238095Y-49315295D02*
X24238095Y-49410533D01*
X24238095Y-49410533D02*
X24285714Y-49553390D01*
X24285714Y-49553390D02*
X24857142Y-50124819D01*
X24857142Y-50124819D02*
X24238095Y-50124819D01*
X52374819Y-44690476D02*
X53089104Y-44690476D01*
X53089104Y-44690476D02*
X53231961Y-44642857D01*
X53231961Y-44642857D02*
X53327200Y-44547619D01*
X53327200Y-44547619D02*
X53374819Y-44404762D01*
X53374819Y-44404762D02*
X53374819Y-44309524D01*
X53374819Y-45166667D02*
X52374819Y-45166667D01*
X52374819Y-45166667D02*
X52374819Y-45547619D01*
X52374819Y-45547619D02*
X52422438Y-45642857D01*
X52422438Y-45642857D02*
X52470057Y-45690476D01*
X52470057Y-45690476D02*
X52565295Y-45738095D01*
X52565295Y-45738095D02*
X52708152Y-45738095D01*
X52708152Y-45738095D02*
X52803390Y-45690476D01*
X52803390Y-45690476D02*
X52851009Y-45642857D01*
X52851009Y-45642857D02*
X52898628Y-45547619D01*
X52898628Y-45547619D02*
X52898628Y-45166667D01*
X53374819Y-46690476D02*
X53374819Y-46119048D01*
X53374819Y-46404762D02*
X52374819Y-46404762D01*
X52374819Y-46404762D02*
X52517676Y-46309524D01*
X52517676Y-46309524D02*
X52612914Y-46214286D01*
X52612914Y-46214286D02*
X52660533Y-46119048D01*
X52374819Y-47595238D02*
X52374819Y-47119048D01*
X52374819Y-47119048D02*
X52851009Y-47071429D01*
X52851009Y-47071429D02*
X52803390Y-47119048D01*
X52803390Y-47119048D02*
X52755771Y-47214286D01*
X52755771Y-47214286D02*
X52755771Y-47452381D01*
X52755771Y-47452381D02*
X52803390Y-47547619D01*
X52803390Y-47547619D02*
X52851009Y-47595238D01*
X52851009Y-47595238D02*
X52946247Y-47642857D01*
X52946247Y-47642857D02*
X53184342Y-47642857D01*
X53184342Y-47642857D02*
X53279580Y-47595238D01*
X53279580Y-47595238D02*
X53327200Y-47547619D01*
X53327200Y-47547619D02*
X53374819Y-47452381D01*
X53374819Y-47452381D02*
X53374819Y-47214286D01*
X53374819Y-47214286D02*
X53327200Y-47119048D01*
X53327200Y-47119048D02*
X53279580Y-47071429D01*
X51642857Y-72954819D02*
X51976190Y-72478628D01*
X52214285Y-72954819D02*
X52214285Y-71954819D01*
X52214285Y-71954819D02*
X51833333Y-71954819D01*
X51833333Y-71954819D02*
X51738095Y-72002438D01*
X51738095Y-72002438D02*
X51690476Y-72050057D01*
X51690476Y-72050057D02*
X51642857Y-72145295D01*
X51642857Y-72145295D02*
X51642857Y-72288152D01*
X51642857Y-72288152D02*
X51690476Y-72383390D01*
X51690476Y-72383390D02*
X51738095Y-72431009D01*
X51738095Y-72431009D02*
X51833333Y-72478628D01*
X51833333Y-72478628D02*
X52214285Y-72478628D01*
X50690476Y-72954819D02*
X51261904Y-72954819D01*
X50976190Y-72954819D02*
X50976190Y-71954819D01*
X50976190Y-71954819D02*
X51071428Y-72097676D01*
X51071428Y-72097676D02*
X51166666Y-72192914D01*
X51166666Y-72192914D02*
X51261904Y-72240533D01*
X50119047Y-72383390D02*
X50214285Y-72335771D01*
X50214285Y-72335771D02*
X50261904Y-72288152D01*
X50261904Y-72288152D02*
X50309523Y-72192914D01*
X50309523Y-72192914D02*
X50309523Y-72145295D01*
X50309523Y-72145295D02*
X50261904Y-72050057D01*
X50261904Y-72050057D02*
X50214285Y-72002438D01*
X50214285Y-72002438D02*
X50119047Y-71954819D01*
X50119047Y-71954819D02*
X49928571Y-71954819D01*
X49928571Y-71954819D02*
X49833333Y-72002438D01*
X49833333Y-72002438D02*
X49785714Y-72050057D01*
X49785714Y-72050057D02*
X49738095Y-72145295D01*
X49738095Y-72145295D02*
X49738095Y-72192914D01*
X49738095Y-72192914D02*
X49785714Y-72288152D01*
X49785714Y-72288152D02*
X49833333Y-72335771D01*
X49833333Y-72335771D02*
X49928571Y-72383390D01*
X49928571Y-72383390D02*
X50119047Y-72383390D01*
X50119047Y-72383390D02*
X50214285Y-72431009D01*
X50214285Y-72431009D02*
X50261904Y-72478628D01*
X50261904Y-72478628D02*
X50309523Y-72573866D01*
X50309523Y-72573866D02*
X50309523Y-72764342D01*
X50309523Y-72764342D02*
X50261904Y-72859580D01*
X50261904Y-72859580D02*
X50214285Y-72907200D01*
X50214285Y-72907200D02*
X50119047Y-72954819D01*
X50119047Y-72954819D02*
X49928571Y-72954819D01*
X49928571Y-72954819D02*
X49833333Y-72907200D01*
X49833333Y-72907200D02*
X49785714Y-72859580D01*
X49785714Y-72859580D02*
X49738095Y-72764342D01*
X49738095Y-72764342D02*
X49738095Y-72573866D01*
X49738095Y-72573866D02*
X49785714Y-72478628D01*
X49785714Y-72478628D02*
X49833333Y-72431009D01*
X49833333Y-72431009D02*
X49928571Y-72383390D01*
X38142857Y-91124819D02*
X38476190Y-90648628D01*
X38714285Y-91124819D02*
X38714285Y-90124819D01*
X38714285Y-90124819D02*
X38333333Y-90124819D01*
X38333333Y-90124819D02*
X38238095Y-90172438D01*
X38238095Y-90172438D02*
X38190476Y-90220057D01*
X38190476Y-90220057D02*
X38142857Y-90315295D01*
X38142857Y-90315295D02*
X38142857Y-90458152D01*
X38142857Y-90458152D02*
X38190476Y-90553390D01*
X38190476Y-90553390D02*
X38238095Y-90601009D01*
X38238095Y-90601009D02*
X38333333Y-90648628D01*
X38333333Y-90648628D02*
X38714285Y-90648628D01*
X37809523Y-90124819D02*
X37190476Y-90124819D01*
X37190476Y-90124819D02*
X37523809Y-90505771D01*
X37523809Y-90505771D02*
X37380952Y-90505771D01*
X37380952Y-90505771D02*
X37285714Y-90553390D01*
X37285714Y-90553390D02*
X37238095Y-90601009D01*
X37238095Y-90601009D02*
X37190476Y-90696247D01*
X37190476Y-90696247D02*
X37190476Y-90934342D01*
X37190476Y-90934342D02*
X37238095Y-91029580D01*
X37238095Y-91029580D02*
X37285714Y-91077200D01*
X37285714Y-91077200D02*
X37380952Y-91124819D01*
X37380952Y-91124819D02*
X37666666Y-91124819D01*
X37666666Y-91124819D02*
X37761904Y-91077200D01*
X37761904Y-91077200D02*
X37809523Y-91029580D01*
X36238095Y-91124819D02*
X36809523Y-91124819D01*
X36523809Y-91124819D02*
X36523809Y-90124819D01*
X36523809Y-90124819D02*
X36619047Y-90267676D01*
X36619047Y-90267676D02*
X36714285Y-90362914D01*
X36714285Y-90362914D02*
X36809523Y-90410533D01*
D13*
X58478300Y-96000000D02*
G75*
G02*
X57716300Y-96000000I-381000J0D01*
G01*
X57716300Y-96000000D02*
G75*
G02*
X58478300Y-96000000I381000J0D01*
G01*
X16381000Y-76597301D02*
G75*
G02*
X15619000Y-76597301I-381000J0D01*
G01*
X15619000Y-76597301D02*
G75*
G02*
X16381000Y-76597301I381000J0D01*
G01*
X24478300Y-96000000D02*
G75*
G02*
X23716300Y-96000000I-381000J0D01*
G01*
X23716300Y-96000000D02*
G75*
G02*
X24478300Y-96000000I381000J0D01*
G01*
X75478300Y-96000000D02*
G75*
G02*
X74716300Y-96000000I-381000J0D01*
G01*
X74716300Y-96000000D02*
G75*
G02*
X75478300Y-96000000I381000J0D01*
G01*
X41478300Y-96000000D02*
G75*
G02*
X40716300Y-96000000I-381000J0D01*
G01*
X40716300Y-96000000D02*
G75*
G02*
X41478300Y-96000000I381000J0D01*
G01*
X27381000Y-20347300D02*
G75*
G02*
X26619000Y-20347300I-381000J0D01*
G01*
X26619000Y-20347300D02*
G75*
G02*
X27381000Y-20347300I381000J0D01*
G01*
X16381000Y-47097300D02*
G75*
G02*
X15619000Y-47097300I-381000J0D01*
G01*
X15619000Y-47097300D02*
G75*
G02*
X16381000Y-47097300I381000J0D01*
G01*
D14*
X19590000Y-88689566D02*
X19590000Y-87235438D01*
X21410000Y-88689566D02*
X21410000Y-87235438D01*
X55227064Y-91590000D02*
X53772936Y-91590000D01*
X55227064Y-93410000D02*
X53772936Y-93410000D01*
X19090000Y-61288748D02*
X19090000Y-62711252D01*
X20910000Y-61288748D02*
X20910000Y-62711252D01*
X21977064Y-53840000D02*
X20522936Y-53840000D01*
X21977064Y-55660000D02*
X20522936Y-55660000D01*
X30227064Y-62090000D02*
X28772936Y-62090000D01*
X30227064Y-63910000D02*
X28772936Y-63910000D01*
X21590000Y-61288748D02*
X21590000Y-62711252D01*
X23410000Y-61288748D02*
X23410000Y-62711252D01*
X50090000Y-80711252D02*
X50090000Y-79288748D01*
X51910000Y-80711252D02*
X51910000Y-79288748D01*
X73340000Y-46727064D02*
X73340000Y-45272936D01*
X75160000Y-46727064D02*
X75160000Y-45272936D01*
X39500000Y-56775000D02*
X39500000Y-59575000D01*
X39500000Y-59575000D02*
X41500000Y-59575000D01*
X41500000Y-56775000D02*
X39500000Y-56775000D01*
X41500000Y-59575000D02*
X41500000Y-56775000D01*
X70840000Y-45272936D02*
X70840000Y-46727064D01*
X72660000Y-45272936D02*
X72660000Y-46727064D01*
X44227064Y-53340000D02*
X42772936Y-53340000D01*
X44227064Y-55160000D02*
X42772936Y-55160000D01*
X27250000Y-64600000D02*
X27250000Y-67400000D01*
X27250000Y-67400000D02*
X29250000Y-67400000D01*
X29250000Y-64600000D02*
X27250000Y-64600000D01*
X29250000Y-67400000D02*
X29250000Y-64600000D01*
X61840000Y-45272936D02*
X61840000Y-46727064D01*
X63660000Y-45272936D02*
X63660000Y-46727064D01*
X44227064Y-50840000D02*
X42772936Y-50840000D01*
X44227064Y-52660000D02*
X42772936Y-52660000D01*
X21977064Y-56340000D02*
X20522936Y-56340000D01*
X21977064Y-58160000D02*
X20522936Y-58160000D01*
X64340000Y-45272936D02*
X64340000Y-46727064D01*
X66160000Y-45272936D02*
X66160000Y-46727064D01*
X89227064Y-91590000D02*
X87772936Y-91590000D01*
X89227064Y-93410000D02*
X87772936Y-93410000D01*
X72227064Y-91590000D02*
X70772936Y-91590000D01*
X72227064Y-93410000D02*
X70772936Y-93410000D01*
X68340000Y-45272936D02*
X68340000Y-46727064D01*
X70160000Y-45272936D02*
X70160000Y-46727064D01*
X92138000Y-49150000D02*
X92138000Y-51150000D01*
X92138000Y-51150000D02*
X94938000Y-51150000D01*
X94938000Y-49150000D02*
X92138000Y-49150000D01*
X94938000Y-51150000D02*
X94938000Y-49150000D01*
X82174000Y-49150000D02*
X82174000Y-51150000D01*
X82174000Y-51150000D02*
X84974000Y-51150000D01*
X84974000Y-49150000D02*
X82174000Y-49150000D01*
X84974000Y-51150000D02*
X84974000Y-49150000D01*
X76522936Y-77990000D02*
X77977064Y-77990000D01*
X76522936Y-79810000D02*
X77977064Y-79810000D01*
X87556000Y-51200000D02*
X87556000Y-54000000D01*
X87556000Y-54000000D02*
X89556000Y-54000000D01*
X89556000Y-51200000D02*
X87556000Y-51200000D01*
X89556000Y-54000000D02*
X89556000Y-51200000D01*
X29750000Y-64600000D02*
X29750000Y-67400000D01*
X29750000Y-67400000D02*
X31750000Y-67400000D01*
X31750000Y-64600000D02*
X29750000Y-64600000D01*
X31750000Y-67400000D02*
X31750000Y-64600000D01*
X59340000Y-45272936D02*
X59340000Y-46727064D01*
X61160000Y-45272936D02*
X61160000Y-46727064D01*
X24772936Y-50590000D02*
X26227064Y-50590000D01*
X24772936Y-52410000D02*
X26227064Y-52410000D01*
X53840000Y-45272936D02*
X53840000Y-46727064D01*
X55660000Y-45272936D02*
X55660000Y-46727064D01*
X51727064Y-73590000D02*
X50272936Y-73590000D01*
X51727064Y-75410000D02*
X50272936Y-75410000D01*
X38227064Y-91590000D02*
X36772936Y-91590000D01*
X38227064Y-93410000D02*
X36772936Y-93410000D01*
%LPC*%
G36*
X41250000Y-58325000D02*
G01*
X39750000Y-58325000D01*
X39750000Y-58025000D01*
X41250000Y-58025000D01*
X41250000Y-58325000D01*
G37*
G36*
X29000000Y-66150000D02*
G01*
X27500000Y-66150000D01*
X27500000Y-65850000D01*
X29000000Y-65850000D01*
X29000000Y-66150000D01*
G37*
G36*
X93388000Y-50900000D02*
G01*
X93688000Y-50900000D01*
X93688000Y-49400000D01*
X93388000Y-49400000D01*
X93388000Y-50900000D01*
G37*
G36*
X83724000Y-49400000D02*
G01*
X83424000Y-49400000D01*
X83424000Y-50900000D01*
X83724000Y-50900000D01*
X83724000Y-49400000D01*
G37*
G36*
X89306000Y-52750000D02*
G01*
X87806000Y-52750000D01*
X87806000Y-52450000D01*
X89306000Y-52450000D01*
X89306000Y-52750000D01*
G37*
G36*
X31500000Y-66150000D02*
G01*
X30000000Y-66150000D01*
X30000000Y-65850000D01*
X31500000Y-65850000D01*
X31500000Y-66150000D01*
G37*
D15*
X66000000Y-96000000D03*
X68000001Y-96000000D03*
X66000000Y-93999999D03*
X68000001Y-93999999D03*
D16*
X62500001Y-95000000D03*
X71499999Y-95000000D03*
D17*
X97500000Y-82500000D03*
X60000000Y-17500000D03*
X60000000Y-40000000D03*
X94306000Y-62500000D03*
X90000000Y-19000000D03*
D15*
X16000000Y-84500001D03*
X16000000Y-86500002D03*
X18000001Y-84500001D03*
X18000001Y-86500002D03*
D16*
X17000000Y-81000002D03*
X17000000Y-90000000D03*
D15*
X32000000Y-96000000D03*
X34000001Y-96000000D03*
X32000000Y-93999999D03*
X34000001Y-93999999D03*
D16*
X28500001Y-95000000D03*
X37499999Y-95000000D03*
D18*
X96000000Y-98500000D03*
X18500000Y-18500000D03*
D19*
X85000000Y-56500000D03*
X88556000Y-56500000D03*
X92112000Y-56500000D03*
X92112000Y-43800000D03*
X88556000Y-43800000D03*
X85000000Y-43800000D03*
D20*
X78574000Y-50150000D03*
X98538000Y-50150000D03*
D17*
X100000000Y-66500000D03*
D15*
X83000000Y-96000000D03*
X85000001Y-96000000D03*
X83000000Y-93999999D03*
X85000001Y-93999999D03*
D16*
X79500001Y-95000000D03*
X88499999Y-95000000D03*
D17*
X98500000Y-33500000D03*
X55000000Y-76500000D03*
X78500000Y-17500000D03*
D18*
X98500000Y-18500000D03*
D17*
X82806000Y-62500000D03*
D15*
X49000000Y-96000000D03*
X51000001Y-96000000D03*
X49000000Y-93999999D03*
X51000001Y-93999999D03*
D16*
X45500001Y-95000000D03*
X54499999Y-95000000D03*
D15*
X27000000Y-28250000D03*
X27000000Y-30250001D03*
X29000001Y-28250000D03*
X29000001Y-30250001D03*
D16*
X28000000Y-24750001D03*
X28000000Y-33749999D03*
D15*
X16000000Y-55000000D03*
X16000000Y-57000001D03*
X18000001Y-55000000D03*
X18000001Y-57000001D03*
D16*
X17000000Y-51500001D03*
X17000000Y-60499999D03*
D18*
X21000000Y-98500000D03*
D17*
X57500000Y-79000000D03*
X97500000Y-88750000D03*
X28750000Y-77500000D03*
D21*
X20500000Y-89425002D03*
X20500000Y-86500002D03*
D22*
X55962500Y-92500000D03*
X53037500Y-92500000D03*
D23*
X20000000Y-60525000D03*
X20000000Y-63475000D03*
D22*
X22712500Y-54750000D03*
X19787500Y-54750000D03*
X30962500Y-63000000D03*
X28037500Y-63000000D03*
D23*
X22500000Y-60525000D03*
X22500000Y-63475000D03*
D24*
X51000000Y-81475000D03*
X51000000Y-78525000D03*
D21*
X74250000Y-47462500D03*
X74250000Y-44537500D03*
D25*
X40500000Y-58825000D03*
X40500000Y-57525000D03*
D26*
X71750000Y-44537500D03*
X71750000Y-47462500D03*
D22*
X44962500Y-54250000D03*
X42037500Y-54250000D03*
D25*
X28250000Y-66650000D03*
X28250000Y-65350000D03*
D26*
X62750000Y-44537500D03*
X62750000Y-47462500D03*
D22*
X44962500Y-51750000D03*
X42037500Y-51750000D03*
X22712500Y-57250000D03*
X19787500Y-57250000D03*
D26*
X65250000Y-44537500D03*
X65250000Y-47462500D03*
D22*
X89962500Y-92500000D03*
X87037500Y-92500000D03*
X72962500Y-92500000D03*
X70037500Y-92500000D03*
D26*
X69250000Y-44537500D03*
X69250000Y-47462500D03*
D27*
X92888000Y-50150000D03*
X94188000Y-50150000D03*
X84224000Y-50150000D03*
X82924000Y-50150000D03*
D28*
X75787500Y-78900000D03*
X78712500Y-78900000D03*
D25*
X88556000Y-53250000D03*
X88556000Y-51950000D03*
X30750000Y-66650000D03*
X30750000Y-65350000D03*
D26*
X60250000Y-44537500D03*
X60250000Y-47462500D03*
D28*
X24037500Y-51500000D03*
X26962500Y-51500000D03*
D26*
X54750000Y-44537500D03*
X54750000Y-47462500D03*
D22*
X52462500Y-74500000D03*
X49537500Y-74500000D03*
X38962500Y-92500000D03*
X36037500Y-92500000D03*
%LPD*%
M02*
