%TF.GenerationSoftware,KiCad,Pcbnew,9.0.2-9.0.2-0~ubuntu24.04.1*%
%TF.CreationDate,2025-06-11T15:00:52-05:00*%
%TF.ProjectId,bias-supply,62696173-2d73-4757-9070-6c792e6b6963,0.1*%
%TF.SameCoordinates,Original*%
%TF.FileFunction,Drillmap*%
%TF.FilePolarity,Positive*%
%FSLAX45Y45*%
G04 Gerber Fmt 4.5, Leading zero omitted, Abs format (unit mm)*
G04 Created by KiCad (PCBNEW 9.0.2-9.0.2-0~ubuntu24.04.1) date 2025-06-11 15:00:52*
%MOMM*%
%LPD*%
G01*
G04 APERTURE LIST*
%ADD10C,0.050000*%
%ADD11C,0.200000*%
%ADD12C,0.100000*%
%ADD13C,0.185420*%
%ADD14C,0.192720*%
%ADD15C,0.320000*%
G04 APERTURE END LIST*
D10*
X1350000Y-1450000D02*
G75*
G02*
X1450000Y-1350000I100000J0D01*
G01*
X9350000Y-10350000D02*
X8950000Y-10350000D01*
X2750000Y-10350000D02*
X2350000Y-10350000D01*
X2850000Y-9950000D02*
X2850000Y-10250000D01*
X1450000Y-10350000D02*
G75*
G02*
X1350000Y-10250000I0J100000D01*
G01*
X8750000Y-9850000D02*
G75*
G02*
X8850000Y-9950000I0J-100000D01*
G01*
X1450000Y-1350000D02*
X10250000Y-1350000D01*
X2850000Y-9950000D02*
G75*
G02*
X2950000Y-9850000I100000J0D01*
G01*
X10350000Y-1450000D02*
X10350000Y-10250000D01*
X8950000Y-10350000D02*
G75*
G02*
X8850000Y-10250000I0J100000D01*
G01*
X10250000Y-1350000D02*
G75*
G02*
X10350000Y-1450000I0J-100000D01*
G01*
X1350000Y-10250000D02*
X1350000Y-1450000D01*
X2850000Y-10250000D02*
G75*
G02*
X2750000Y-10350000I-100000J0D01*
G01*
X8750000Y-9850000D02*
X2950000Y-9850000D01*
X2350000Y-10350000D02*
X1450000Y-10350000D01*
X10250000Y-10350000D02*
X9350000Y-10350000D01*
X10350000Y-10250000D02*
G75*
G02*
X10250000Y-10350000I-100000J0D01*
G01*
X8850000Y-10250000D02*
X8850000Y-9950000D01*
D11*
D12*
X1990000Y-6042500D02*
X2010000Y-6062500D01*
X2010000Y-6042500D02*
X1990000Y-6062500D01*
X2240000Y-6042500D02*
X2260000Y-6062500D01*
X2260000Y-6042500D02*
X2240000Y-6062500D01*
X2393750Y-5140000D02*
X2413750Y-5160000D01*
X2413750Y-5140000D02*
X2393750Y-5160000D01*
X2793750Y-6290000D02*
X2813750Y-6310000D01*
X2813750Y-6290000D02*
X2793750Y-6310000D01*
X2812415Y-5526500D02*
X2832415Y-5546500D01*
X2832415Y-5526500D02*
X2812415Y-5546500D01*
X2812415Y-5653500D02*
X2832415Y-5673500D01*
X2832415Y-5653500D02*
X2812415Y-5673500D01*
X2812415Y-5780500D02*
X2832415Y-5800500D01*
X2832415Y-5780500D02*
X2812415Y-5800500D01*
X2832500Y-6915000D02*
X2852500Y-6935000D01*
X2852500Y-6915000D02*
X2832500Y-6935000D01*
X2840000Y-5940000D02*
X2860000Y-5960000D01*
X2860000Y-5940000D02*
X2840000Y-5960000D01*
X2865000Y-6140000D02*
X2885000Y-6160000D01*
X2885000Y-6140000D02*
X2865000Y-6160000D01*
X2962500Y-7165000D02*
X2982500Y-7185000D01*
X2982500Y-7165000D02*
X2962500Y-7185000D01*
X2965000Y-6365000D02*
X2985000Y-6385000D01*
X2985000Y-6365000D02*
X2965000Y-6385000D01*
X2990000Y-5190000D02*
X3010000Y-5210000D01*
X3010000Y-5190000D02*
X2990000Y-5210000D01*
X2990000Y-5790000D02*
X3010000Y-5810000D01*
X3010000Y-5790000D02*
X2990000Y-5810000D01*
X3065000Y-5740000D02*
X3085000Y-5760000D01*
X3085000Y-5740000D02*
X3065000Y-5760000D01*
X3065000Y-6525000D02*
X3085000Y-6545000D01*
X3085000Y-6525000D02*
X3065000Y-6545000D01*
X3090000Y-6040000D02*
X3110000Y-6060000D01*
X3110000Y-6040000D02*
X3090000Y-6060000D01*
X3238125Y-5188125D02*
X3258125Y-5208125D01*
X3258125Y-5188125D02*
X3238125Y-5208125D01*
X3290000Y-5315000D02*
X3310000Y-5335000D01*
X3310000Y-5315000D02*
X3290000Y-5335000D01*
X3440000Y-6540000D02*
X3460000Y-6560000D01*
X3460000Y-6540000D02*
X3440000Y-6560000D01*
X3640000Y-5440000D02*
X3660000Y-5460000D01*
X3660000Y-5440000D02*
X3640000Y-5460000D01*
X4040000Y-5742500D02*
X4060000Y-5762500D01*
X4060000Y-5742500D02*
X4040000Y-5762500D01*
X4486250Y-5165000D02*
X4506250Y-5185000D01*
X4506250Y-5165000D02*
X4486250Y-5185000D01*
X4486250Y-5415000D02*
X4506250Y-5435000D01*
X4506250Y-5415000D02*
X4486250Y-5435000D01*
X4745711Y-8534289D02*
X4765711Y-8554289D01*
X4765711Y-8534289D02*
X4745711Y-8554289D01*
X4787536Y-8371940D02*
X4807536Y-8391940D01*
X4807536Y-8371940D02*
X4787536Y-8391940D01*
X4890000Y-7590000D02*
X4910000Y-7610000D01*
X4910000Y-7590000D02*
X4890000Y-7610000D01*
X4943750Y-7440000D02*
X4963750Y-7460000D01*
X4963750Y-7440000D02*
X4943750Y-7460000D01*
X6015000Y-4443750D02*
X6035000Y-4463750D01*
X6035000Y-4443750D02*
X6015000Y-4463750D01*
X6015000Y-4736250D02*
X6035000Y-4756250D01*
X6035000Y-4736250D02*
X6015000Y-4756250D01*
X6265000Y-4443750D02*
X6285000Y-4463750D01*
X6285000Y-4443750D02*
X6265000Y-4463750D01*
X6265000Y-4736250D02*
X6285000Y-4756250D01*
X6285000Y-4736250D02*
X6265000Y-4756250D01*
X6515000Y-4443750D02*
X6535000Y-4463750D01*
X6535000Y-4443750D02*
X6515000Y-4463750D01*
X6515000Y-4736250D02*
X6535000Y-4756250D01*
X6535000Y-4736250D02*
X6515000Y-4756250D01*
X6915000Y-4443750D02*
X6935000Y-4463750D01*
X6935000Y-4443750D02*
X6915000Y-4463750D01*
X6915000Y-4736250D02*
X6935000Y-4756250D01*
X6935000Y-4736250D02*
X6915000Y-4756250D01*
X7165000Y-4443750D02*
X7185000Y-4463750D01*
X7185000Y-4443750D02*
X7165000Y-4463750D01*
X7165000Y-4736250D02*
X7185000Y-4756250D01*
X7185000Y-4736250D02*
X7165000Y-4756250D01*
X7415000Y-4443750D02*
X7435000Y-4463750D01*
X7435000Y-4443750D02*
X7415000Y-4463750D01*
X7415000Y-4736250D02*
X7435000Y-4756250D01*
X7435000Y-4736250D02*
X7415000Y-4756250D01*
X1470000Y-2400000D02*
G75*
G02*
X1430000Y-2400000I-20000J0D01*
G01*
X1430000Y-2400000D02*
G75*
G02*
X1470000Y-2400000I20000J0D01*
G01*
X1470000Y-2600000D02*
G75*
G02*
X1430000Y-2600000I-20000J0D01*
G01*
X1430000Y-2600000D02*
G75*
G02*
X1470000Y-2600000I20000J0D01*
G01*
X1470000Y-2800000D02*
G75*
G02*
X1430000Y-2800000I-20000J0D01*
G01*
X1430000Y-2800000D02*
G75*
G02*
X1470000Y-2800000I20000J0D01*
G01*
X1470000Y-3000000D02*
G75*
G02*
X1430000Y-3000000I-20000J0D01*
G01*
X1430000Y-3000000D02*
G75*
G02*
X1470000Y-3000000I20000J0D01*
G01*
X1470000Y-3200000D02*
G75*
G02*
X1430000Y-3200000I-20000J0D01*
G01*
X1430000Y-3200000D02*
G75*
G02*
X1470000Y-3200000I20000J0D01*
G01*
X1470000Y-3400000D02*
G75*
G02*
X1430000Y-3400000I-20000J0D01*
G01*
X1430000Y-3400000D02*
G75*
G02*
X1470000Y-3400000I20000J0D01*
G01*
X1470000Y-3600000D02*
G75*
G02*
X1430000Y-3600000I-20000J0D01*
G01*
X1430000Y-3600000D02*
G75*
G02*
X1470000Y-3600000I20000J0D01*
G01*
X1470000Y-3800000D02*
G75*
G02*
X1430000Y-3800000I-20000J0D01*
G01*
X1430000Y-3800000D02*
G75*
G02*
X1470000Y-3800000I20000J0D01*
G01*
X1470000Y-4000000D02*
G75*
G02*
X1430000Y-4000000I-20000J0D01*
G01*
X1430000Y-4000000D02*
G75*
G02*
X1470000Y-4000000I20000J0D01*
G01*
X1470000Y-4200000D02*
G75*
G02*
X1430000Y-4200000I-20000J0D01*
G01*
X1430000Y-4200000D02*
G75*
G02*
X1470000Y-4200000I20000J0D01*
G01*
X1470000Y-9450000D02*
G75*
G02*
X1430000Y-9450000I-20000J0D01*
G01*
X1430000Y-9450000D02*
G75*
G02*
X1470000Y-9450000I20000J0D01*
G01*
X1470000Y-9650000D02*
G75*
G02*
X1430000Y-9650000I-20000J0D01*
G01*
X1430000Y-9650000D02*
G75*
G02*
X1470000Y-9650000I20000J0D01*
G01*
X1470000Y-9850000D02*
G75*
G02*
X1430000Y-9850000I-20000J0D01*
G01*
X1430000Y-9850000D02*
G75*
G02*
X1470000Y-9850000I20000J0D01*
G01*
X1470000Y-10050000D02*
G75*
G02*
X1430000Y-10050000I-20000J0D01*
G01*
X1430000Y-10050000D02*
G75*
G02*
X1470000Y-10050000I20000J0D01*
G01*
X1670000Y-4200000D02*
G75*
G02*
X1630000Y-4200000I-20000J0D01*
G01*
X1630000Y-4200000D02*
G75*
G02*
X1670000Y-4200000I20000J0D01*
G01*
X1670000Y-10250000D02*
G75*
G02*
X1630000Y-10250000I-20000J0D01*
G01*
X1630000Y-10250000D02*
G75*
G02*
X1670000Y-10250000I20000J0D01*
G01*
X1870000Y-4200000D02*
G75*
G02*
X1830000Y-4200000I-20000J0D01*
G01*
X1830000Y-4200000D02*
G75*
G02*
X1870000Y-4200000I20000J0D01*
G01*
X1870000Y-10250000D02*
G75*
G02*
X1830000Y-10250000I-20000J0D01*
G01*
X1830000Y-10250000D02*
G75*
G02*
X1870000Y-10250000I20000J0D01*
G01*
X2070000Y-4200000D02*
G75*
G02*
X2030000Y-4200000I-20000J0D01*
G01*
X2030000Y-4200000D02*
G75*
G02*
X2070000Y-4200000I20000J0D01*
G01*
X2070000Y-10250000D02*
G75*
G02*
X2030000Y-10250000I-20000J0D01*
G01*
X2030000Y-10250000D02*
G75*
G02*
X2070000Y-10250000I20000J0D01*
G01*
X2270000Y-4200000D02*
G75*
G02*
X2230000Y-4200000I-20000J0D01*
G01*
X2230000Y-4200000D02*
G75*
G02*
X2270000Y-4200000I20000J0D01*
G01*
X2270000Y-10250000D02*
G75*
G02*
X2230000Y-10250000I-20000J0D01*
G01*
X2230000Y-10250000D02*
G75*
G02*
X2270000Y-10250000I20000J0D01*
G01*
X2420000Y-1450000D02*
G75*
G02*
X2380000Y-1450000I-20000J0D01*
G01*
X2380000Y-1450000D02*
G75*
G02*
X2420000Y-1450000I20000J0D01*
G01*
X2470000Y-4200000D02*
G75*
G02*
X2430000Y-4200000I-20000J0D01*
G01*
X2430000Y-4200000D02*
G75*
G02*
X2470000Y-4200000I20000J0D01*
G01*
X2470000Y-10250000D02*
G75*
G02*
X2430000Y-10250000I-20000J0D01*
G01*
X2430000Y-10250000D02*
G75*
G02*
X2470000Y-10250000I20000J0D01*
G01*
X2620000Y-1450000D02*
G75*
G02*
X2580000Y-1450000I-20000J0D01*
G01*
X2580000Y-1450000D02*
G75*
G02*
X2620000Y-1450000I20000J0D01*
G01*
X2670000Y-4200000D02*
G75*
G02*
X2630000Y-4200000I-20000J0D01*
G01*
X2630000Y-4200000D02*
G75*
G02*
X2670000Y-4200000I20000J0D01*
G01*
X2670000Y-10250000D02*
G75*
G02*
X2630000Y-10250000I-20000J0D01*
G01*
X2630000Y-10250000D02*
G75*
G02*
X2670000Y-10250000I20000J0D01*
G01*
X2770000Y-4400000D02*
G75*
G02*
X2730000Y-4400000I-20000J0D01*
G01*
X2730000Y-4400000D02*
G75*
G02*
X2770000Y-4400000I20000J0D01*
G01*
X2770000Y-8050000D02*
G75*
G02*
X2730000Y-8050000I-20000J0D01*
G01*
X2730000Y-8050000D02*
G75*
G02*
X2770000Y-8050000I20000J0D01*
G01*
X2770000Y-8250000D02*
G75*
G02*
X2730000Y-8250000I-20000J0D01*
G01*
X2730000Y-8250000D02*
G75*
G02*
X2770000Y-8250000I20000J0D01*
G01*
X2770000Y-8450000D02*
G75*
G02*
X2730000Y-8450000I-20000J0D01*
G01*
X2730000Y-8450000D02*
G75*
G02*
X2770000Y-8450000I20000J0D01*
G01*
X2770000Y-8650000D02*
G75*
G02*
X2730000Y-8650000I-20000J0D01*
G01*
X2730000Y-8650000D02*
G75*
G02*
X2770000Y-8650000I20000J0D01*
G01*
X2820000Y-1450000D02*
G75*
G02*
X2780000Y-1450000I-20000J0D01*
G01*
X2780000Y-1450000D02*
G75*
G02*
X2820000Y-1450000I20000J0D01*
G01*
X2970000Y-4400000D02*
G75*
G02*
X2930000Y-4400000I-20000J0D01*
G01*
X2930000Y-4400000D02*
G75*
G02*
X2970000Y-4400000I20000J0D01*
G01*
X3020000Y-1450000D02*
G75*
G02*
X2980000Y-1450000I-20000J0D01*
G01*
X2980000Y-1450000D02*
G75*
G02*
X3020000Y-1450000I20000J0D01*
G01*
X3170000Y-4400000D02*
G75*
G02*
X3130000Y-4400000I-20000J0D01*
G01*
X3130000Y-4400000D02*
G75*
G02*
X3170000Y-4400000I20000J0D01*
G01*
X3220000Y-1450000D02*
G75*
G02*
X3180000Y-1450000I-20000J0D01*
G01*
X3180000Y-1450000D02*
G75*
G02*
X3220000Y-1450000I20000J0D01*
G01*
X3370000Y-4400000D02*
G75*
G02*
X3330000Y-4400000I-20000J0D01*
G01*
X3330000Y-4400000D02*
G75*
G02*
X3370000Y-4400000I20000J0D01*
G01*
X3420000Y-1450000D02*
G75*
G02*
X3380000Y-1450000I-20000J0D01*
G01*
X3380000Y-1450000D02*
G75*
G02*
X3420000Y-1450000I20000J0D01*
G01*
X3570000Y-4400000D02*
G75*
G02*
X3530000Y-4400000I-20000J0D01*
G01*
X3530000Y-4400000D02*
G75*
G02*
X3570000Y-4400000I20000J0D01*
G01*
X3620000Y-1450000D02*
G75*
G02*
X3580000Y-1450000I-20000J0D01*
G01*
X3580000Y-1450000D02*
G75*
G02*
X3620000Y-1450000I20000J0D01*
G01*
X3770000Y-8347500D02*
G75*
G02*
X3730000Y-8347500I-20000J0D01*
G01*
X3730000Y-8347500D02*
G75*
G02*
X3770000Y-8347500I20000J0D01*
G01*
X3977500Y-7825000D02*
G75*
G02*
X3937500Y-7825000I-20000J0D01*
G01*
X3937500Y-7825000D02*
G75*
G02*
X3977500Y-7825000I20000J0D01*
G01*
X4085000Y-7400000D02*
G75*
G02*
X4045000Y-7400000I-20000J0D01*
G01*
X4045000Y-7400000D02*
G75*
G02*
X4085000Y-7400000I20000J0D01*
G01*
X4270000Y-8053750D02*
G75*
G02*
X4230000Y-8053750I-20000J0D01*
G01*
X4230000Y-8053750D02*
G75*
G02*
X4270000Y-8053750I20000J0D01*
G01*
X4270000Y-8346250D02*
G75*
G02*
X4230000Y-8346250I-20000J0D01*
G01*
X4230000Y-8346250D02*
G75*
G02*
X4270000Y-8346250I20000J0D01*
G01*
X4570000Y-5700000D02*
G75*
G02*
X4530000Y-5700000I-20000J0D01*
G01*
X4530000Y-5700000D02*
G75*
G02*
X4570000Y-5700000I20000J0D01*
G01*
X4570000Y-5900000D02*
G75*
G02*
X4530000Y-5900000I-20000J0D01*
G01*
X4530000Y-5900000D02*
G75*
G02*
X4570000Y-5900000I20000J0D01*
G01*
X4570000Y-6100000D02*
G75*
G02*
X4530000Y-6100000I-20000J0D01*
G01*
X4530000Y-6100000D02*
G75*
G02*
X4570000Y-6100000I20000J0D01*
G01*
X4570000Y-6300000D02*
G75*
G02*
X4530000Y-6300000I-20000J0D01*
G01*
X4530000Y-6300000D02*
G75*
G02*
X4570000Y-6300000I20000J0D01*
G01*
X4595000Y-7400000D02*
G75*
G02*
X4555000Y-7400000I-20000J0D01*
G01*
X4555000Y-7400000D02*
G75*
G02*
X4595000Y-7400000I20000J0D01*
G01*
X4820000Y-5400000D02*
G75*
G02*
X4780000Y-5400000I-20000J0D01*
G01*
X4780000Y-5400000D02*
G75*
G02*
X4820000Y-5400000I20000J0D01*
G01*
X4820000Y-6550000D02*
G75*
G02*
X4780000Y-6550000I-20000J0D01*
G01*
X4780000Y-6550000D02*
G75*
G02*
X4820000Y-6550000I20000J0D01*
G01*
X5495000Y-2252500D02*
G75*
G02*
X5455000Y-2252500I-20000J0D01*
G01*
X5455000Y-2252500D02*
G75*
G02*
X5495000Y-2252500I20000J0D01*
G01*
X5495000Y-3800000D02*
G75*
G02*
X5455000Y-3800000I-20000J0D01*
G01*
X5455000Y-3800000D02*
G75*
G02*
X5495000Y-3800000I20000J0D01*
G01*
X5520000Y-1450000D02*
G75*
G02*
X5480000Y-1450000I-20000J0D01*
G01*
X5480000Y-1450000D02*
G75*
G02*
X5520000Y-1450000I20000J0D01*
G01*
X5670000Y-8650000D02*
G75*
G02*
X5630000Y-8650000I-20000J0D01*
G01*
X5630000Y-8650000D02*
G75*
G02*
X5670000Y-8650000I20000J0D01*
G01*
X5720000Y-1450000D02*
G75*
G02*
X5680000Y-1450000I-20000J0D01*
G01*
X5680000Y-1450000D02*
G75*
G02*
X5720000Y-1450000I20000J0D01*
G01*
X5870000Y-8650000D02*
G75*
G02*
X5830000Y-8650000I-20000J0D01*
G01*
X5830000Y-8650000D02*
G75*
G02*
X5870000Y-8650000I20000J0D01*
G01*
X5920000Y-1450000D02*
G75*
G02*
X5880000Y-1450000I-20000J0D01*
G01*
X5880000Y-1450000D02*
G75*
G02*
X5920000Y-1450000I20000J0D01*
G01*
X6070000Y-8650000D02*
G75*
G02*
X6030000Y-8650000I-20000J0D01*
G01*
X6030000Y-8650000D02*
G75*
G02*
X6070000Y-8650000I20000J0D01*
G01*
X6120000Y-1450000D02*
G75*
G02*
X6080000Y-1450000I-20000J0D01*
G01*
X6080000Y-1450000D02*
G75*
G02*
X6120000Y-1450000I20000J0D01*
G01*
X6270000Y-8650000D02*
G75*
G02*
X6230000Y-8650000I-20000J0D01*
G01*
X6230000Y-8650000D02*
G75*
G02*
X6270000Y-8650000I20000J0D01*
G01*
X6320000Y-1450000D02*
G75*
G02*
X6280000Y-1450000I-20000J0D01*
G01*
X6280000Y-1450000D02*
G75*
G02*
X6320000Y-1450000I20000J0D01*
G01*
X6439000Y-3072135D02*
G75*
G02*
X6399000Y-3072135I-20000J0D01*
G01*
X6399000Y-3072135D02*
G75*
G02*
X6439000Y-3072135I20000J0D01*
G01*
X6470000Y-8650000D02*
G75*
G02*
X6430000Y-8650000I-20000J0D01*
G01*
X6430000Y-8650000D02*
G75*
G02*
X6470000Y-8650000I20000J0D01*
G01*
X6520000Y-1450000D02*
G75*
G02*
X6480000Y-1450000I-20000J0D01*
G01*
X6480000Y-1450000D02*
G75*
G02*
X6520000Y-1450000I20000J0D01*
G01*
X6566000Y-3596250D02*
G75*
G02*
X6526000Y-3596250I-20000J0D01*
G01*
X6526000Y-3596250D02*
G75*
G02*
X6566000Y-3596250I20000J0D01*
G01*
X6670000Y-8650000D02*
G75*
G02*
X6630000Y-8650000I-20000J0D01*
G01*
X6630000Y-8650000D02*
G75*
G02*
X6670000Y-8650000I20000J0D01*
G01*
X6720000Y-1450000D02*
G75*
G02*
X6680000Y-1450000I-20000J0D01*
G01*
X6680000Y-1450000D02*
G75*
G02*
X6720000Y-1450000I20000J0D01*
G01*
X6820000Y-3350000D02*
G75*
G02*
X6780000Y-3350000I-20000J0D01*
G01*
X6780000Y-3350000D02*
G75*
G02*
X6820000Y-3350000I20000J0D01*
G01*
X6870000Y-8650000D02*
G75*
G02*
X6830000Y-8650000I-20000J0D01*
G01*
X6830000Y-8650000D02*
G75*
G02*
X6870000Y-8650000I20000J0D01*
G01*
X6920000Y-1450000D02*
G75*
G02*
X6880000Y-1450000I-20000J0D01*
G01*
X6880000Y-1450000D02*
G75*
G02*
X6920000Y-1450000I20000J0D01*
G01*
X6920000Y-2250000D02*
G75*
G02*
X6880000Y-2250000I-20000J0D01*
G01*
X6880000Y-2250000D02*
G75*
G02*
X6920000Y-2250000I20000J0D01*
G01*
X6920000Y-5400000D02*
G75*
G02*
X6880000Y-5400000I-20000J0D01*
G01*
X6880000Y-5400000D02*
G75*
G02*
X6920000Y-5400000I20000J0D01*
G01*
X6920000Y-6550000D02*
G75*
G02*
X6880000Y-6550000I-20000J0D01*
G01*
X6880000Y-6550000D02*
G75*
G02*
X6920000Y-6550000I20000J0D01*
G01*
X7070000Y-8650000D02*
G75*
G02*
X7030000Y-8650000I-20000J0D01*
G01*
X7030000Y-8650000D02*
G75*
G02*
X7070000Y-8650000I20000J0D01*
G01*
X7120000Y-1450000D02*
G75*
G02*
X7080000Y-1450000I-20000J0D01*
G01*
X7080000Y-1450000D02*
G75*
G02*
X7120000Y-1450000I20000J0D01*
G01*
X7270000Y-8650000D02*
G75*
G02*
X7230000Y-8650000I-20000J0D01*
G01*
X7230000Y-8650000D02*
G75*
G02*
X7270000Y-8650000I20000J0D01*
G01*
X7320000Y-1450000D02*
G75*
G02*
X7280000Y-1450000I-20000J0D01*
G01*
X7280000Y-1450000D02*
G75*
G02*
X7320000Y-1450000I20000J0D01*
G01*
X7520000Y-1450000D02*
G75*
G02*
X7480000Y-1450000I-20000J0D01*
G01*
X7480000Y-1450000D02*
G75*
G02*
X7520000Y-1450000I20000J0D01*
G01*
X7554850Y-7890000D02*
G75*
G02*
X7514850Y-7890000I-20000J0D01*
G01*
X7514850Y-7890000D02*
G75*
G02*
X7554850Y-7890000I20000J0D01*
G01*
X7554850Y-8310000D02*
G75*
G02*
X7514850Y-8310000I-20000J0D01*
G01*
X7514850Y-8310000D02*
G75*
G02*
X7554850Y-8310000I20000J0D01*
G01*
X7690000Y-7050000D02*
G75*
G02*
X7650000Y-7050000I-20000J0D01*
G01*
X7650000Y-7050000D02*
G75*
G02*
X7690000Y-7050000I20000J0D01*
G01*
X7720000Y-1450000D02*
G75*
G02*
X7680000Y-1450000I-20000J0D01*
G01*
X7680000Y-1450000D02*
G75*
G02*
X7720000Y-1450000I20000J0D01*
G01*
X7820000Y-3927500D02*
G75*
G02*
X7780000Y-3927500I-20000J0D01*
G01*
X7780000Y-3927500D02*
G75*
G02*
X7820000Y-3927500I20000J0D01*
G01*
X7920000Y-1450000D02*
G75*
G02*
X7880000Y-1450000I-20000J0D01*
G01*
X7880000Y-1450000D02*
G75*
G02*
X7920000Y-1450000I20000J0D01*
G01*
X7920000Y-8750000D02*
G75*
G02*
X7880000Y-8750000I-20000J0D01*
G01*
X7880000Y-8750000D02*
G75*
G02*
X7920000Y-8750000I20000J0D01*
G01*
X8023750Y-6700000D02*
G75*
G02*
X7983750Y-6700000I-20000J0D01*
G01*
X7983750Y-6700000D02*
G75*
G02*
X8023750Y-6700000I20000J0D01*
G01*
X8070000Y-7750000D02*
G75*
G02*
X8030000Y-7750000I-20000J0D01*
G01*
X8030000Y-7750000D02*
G75*
G02*
X8070000Y-7750000I20000J0D01*
G01*
X8070000Y-8150000D02*
G75*
G02*
X8030000Y-8150000I-20000J0D01*
G01*
X8030000Y-8150000D02*
G75*
G02*
X8070000Y-8150000I20000J0D01*
G01*
X8070000Y-8350000D02*
G75*
G02*
X8030000Y-8350000I-20000J0D01*
G01*
X8030000Y-8350000D02*
G75*
G02*
X8070000Y-8350000I20000J0D01*
G01*
X8070000Y-8559740D02*
G75*
G02*
X8030000Y-8559740I-20000J0D01*
G01*
X8030000Y-8559740D02*
G75*
G02*
X8070000Y-8559740I20000J0D01*
G01*
X8120000Y-1450000D02*
G75*
G02*
X8080000Y-1450000I-20000J0D01*
G01*
X8080000Y-1450000D02*
G75*
G02*
X8120000Y-1450000I20000J0D01*
G01*
X8120000Y-8750000D02*
G75*
G02*
X8080000Y-8750000I-20000J0D01*
G01*
X8080000Y-8750000D02*
G75*
G02*
X8120000Y-8750000I20000J0D01*
G01*
X8172500Y-2050000D02*
G75*
G02*
X8132500Y-2050000I-20000J0D01*
G01*
X8132500Y-2050000D02*
G75*
G02*
X8172500Y-2050000I20000J0D01*
G01*
X8320000Y-1450000D02*
G75*
G02*
X8280000Y-1450000I-20000J0D01*
G01*
X8280000Y-1450000D02*
G75*
G02*
X8320000Y-1450000I20000J0D01*
G01*
X8320000Y-8750000D02*
G75*
G02*
X8280000Y-8750000I-20000J0D01*
G01*
X8280000Y-8750000D02*
G75*
G02*
X8320000Y-8750000I20000J0D01*
G01*
X8370000Y-7750000D02*
G75*
G02*
X8330000Y-7750000I-20000J0D01*
G01*
X8330000Y-7750000D02*
G75*
G02*
X8370000Y-7750000I20000J0D01*
G01*
X8370000Y-8150000D02*
G75*
G02*
X8330000Y-8150000I-20000J0D01*
G01*
X8330000Y-8150000D02*
G75*
G02*
X8370000Y-8150000I20000J0D01*
G01*
X8370000Y-8350000D02*
G75*
G02*
X8330000Y-8350000I-20000J0D01*
G01*
X8330000Y-8350000D02*
G75*
G02*
X8370000Y-8350000I20000J0D01*
G01*
X8370000Y-8559740D02*
G75*
G02*
X8330000Y-8559740I-20000J0D01*
G01*
X8330000Y-8559740D02*
G75*
G02*
X8370000Y-8559740I20000J0D01*
G01*
X8445000Y-7640260D02*
G75*
G02*
X8405000Y-7640260I-20000J0D01*
G01*
X8405000Y-7640260D02*
G75*
G02*
X8445000Y-7640260I20000J0D01*
G01*
X8520000Y-1450000D02*
G75*
G02*
X8480000Y-1450000I-20000J0D01*
G01*
X8480000Y-1450000D02*
G75*
G02*
X8520000Y-1450000I20000J0D01*
G01*
X8520000Y-2972500D02*
G75*
G02*
X8480000Y-2972500I-20000J0D01*
G01*
X8480000Y-2972500D02*
G75*
G02*
X8520000Y-2972500I20000J0D01*
G01*
X8520000Y-3300000D02*
G75*
G02*
X8480000Y-3300000I-20000J0D01*
G01*
X8480000Y-3300000D02*
G75*
G02*
X8520000Y-3300000I20000J0D01*
G01*
X8520000Y-3927500D02*
G75*
G02*
X8480000Y-3927500I-20000J0D01*
G01*
X8480000Y-3927500D02*
G75*
G02*
X8520000Y-3927500I20000J0D01*
G01*
X8520000Y-8750000D02*
G75*
G02*
X8480000Y-8750000I-20000J0D01*
G01*
X8480000Y-8750000D02*
G75*
G02*
X8520000Y-8750000I20000J0D01*
G01*
X8685150Y-7890000D02*
G75*
G02*
X8645150Y-7890000I-20000J0D01*
G01*
X8645150Y-7890000D02*
G75*
G02*
X8685150Y-7890000I20000J0D01*
G01*
X8685150Y-8310000D02*
G75*
G02*
X8645150Y-8310000I-20000J0D01*
G01*
X8645150Y-8310000D02*
G75*
G02*
X8685150Y-8310000I20000J0D01*
G01*
X8720000Y-1450000D02*
G75*
G02*
X8680000Y-1450000I-20000J0D01*
G01*
X8680000Y-1450000D02*
G75*
G02*
X8720000Y-1450000I20000J0D01*
G01*
X8920000Y-1450000D02*
G75*
G02*
X8880000Y-1450000I-20000J0D01*
G01*
X8880000Y-1450000D02*
G75*
G02*
X8920000Y-1450000I20000J0D01*
G01*
X8964500Y-2972500D02*
G75*
G02*
X8924500Y-2972500I-20000J0D01*
G01*
X8924500Y-2972500D02*
G75*
G02*
X8964500Y-2972500I20000J0D01*
G01*
X9070000Y-10250000D02*
G75*
G02*
X9030000Y-10250000I-20000J0D01*
G01*
X9030000Y-10250000D02*
G75*
G02*
X9070000Y-10250000I20000J0D01*
G01*
X9120000Y-1450000D02*
G75*
G02*
X9080000Y-1450000I-20000J0D01*
G01*
X9080000Y-1450000D02*
G75*
G02*
X9120000Y-1450000I20000J0D01*
G01*
X9270000Y-10250000D02*
G75*
G02*
X9230000Y-10250000I-20000J0D01*
G01*
X9230000Y-10250000D02*
G75*
G02*
X9270000Y-10250000I20000J0D01*
G01*
X9320000Y-1450000D02*
G75*
G02*
X9280000Y-1450000I-20000J0D01*
G01*
X9280000Y-1450000D02*
G75*
G02*
X9320000Y-1450000I20000J0D01*
G01*
X9470000Y-7550000D02*
G75*
G02*
X9430000Y-7550000I-20000J0D01*
G01*
X9430000Y-7550000D02*
G75*
G02*
X9470000Y-7550000I20000J0D01*
G01*
X9470000Y-10250000D02*
G75*
G02*
X9430000Y-10250000I-20000J0D01*
G01*
X9430000Y-10250000D02*
G75*
G02*
X9470000Y-10250000I20000J0D01*
G01*
X9670000Y-7550000D02*
G75*
G02*
X9630000Y-7550000I-20000J0D01*
G01*
X9630000Y-7550000D02*
G75*
G02*
X9670000Y-7550000I20000J0D01*
G01*
X9670000Y-10250000D02*
G75*
G02*
X9630000Y-10250000I-20000J0D01*
G01*
X9630000Y-10250000D02*
G75*
G02*
X9670000Y-10250000I20000J0D01*
G01*
X9870000Y-7550000D02*
G75*
G02*
X9830000Y-7550000I-20000J0D01*
G01*
X9830000Y-7550000D02*
G75*
G02*
X9870000Y-7550000I20000J0D01*
G01*
X9870000Y-10250000D02*
G75*
G02*
X9830000Y-10250000I-20000J0D01*
G01*
X9830000Y-10250000D02*
G75*
G02*
X9870000Y-10250000I20000J0D01*
G01*
X10070000Y-7550000D02*
G75*
G02*
X10030000Y-7550000I-20000J0D01*
G01*
X10030000Y-7550000D02*
G75*
G02*
X10070000Y-7550000I20000J0D01*
G01*
X10070000Y-10250000D02*
G75*
G02*
X10030000Y-10250000I-20000J0D01*
G01*
X10030000Y-10250000D02*
G75*
G02*
X10070000Y-10250000I20000J0D01*
G01*
X10270000Y-2400000D02*
G75*
G02*
X10230000Y-2400000I-20000J0D01*
G01*
X10230000Y-2400000D02*
G75*
G02*
X10270000Y-2400000I20000J0D01*
G01*
X10270000Y-2600000D02*
G75*
G02*
X10230000Y-2600000I-20000J0D01*
G01*
X10230000Y-2600000D02*
G75*
G02*
X10270000Y-2600000I20000J0D01*
G01*
X10270000Y-2800000D02*
G75*
G02*
X10230000Y-2800000I-20000J0D01*
G01*
X10230000Y-2800000D02*
G75*
G02*
X10270000Y-2800000I20000J0D01*
G01*
X10270000Y-3000000D02*
G75*
G02*
X10230000Y-3000000I-20000J0D01*
G01*
X10230000Y-3000000D02*
G75*
G02*
X10270000Y-3000000I20000J0D01*
G01*
X10270000Y-3200000D02*
G75*
G02*
X10230000Y-3200000I-20000J0D01*
G01*
X10230000Y-3200000D02*
G75*
G02*
X10270000Y-3200000I20000J0D01*
G01*
X10270000Y-3400000D02*
G75*
G02*
X10230000Y-3400000I-20000J0D01*
G01*
X10230000Y-3400000D02*
G75*
G02*
X10270000Y-3400000I20000J0D01*
G01*
X10270000Y-3600000D02*
G75*
G02*
X10230000Y-3600000I-20000J0D01*
G01*
X10230000Y-3600000D02*
G75*
G02*
X10270000Y-3600000I20000J0D01*
G01*
X10270000Y-3800000D02*
G75*
G02*
X10230000Y-3800000I-20000J0D01*
G01*
X10230000Y-3800000D02*
G75*
G02*
X10270000Y-3800000I20000J0D01*
G01*
X10270000Y-4000000D02*
G75*
G02*
X10230000Y-4000000I-20000J0D01*
G01*
X10230000Y-4000000D02*
G75*
G02*
X10270000Y-4000000I20000J0D01*
G01*
X10270000Y-4200000D02*
G75*
G02*
X10230000Y-4200000I-20000J0D01*
G01*
X10230000Y-4200000D02*
G75*
G02*
X10270000Y-4200000I20000J0D01*
G01*
X10270000Y-4400000D02*
G75*
G02*
X10230000Y-4400000I-20000J0D01*
G01*
X10230000Y-4400000D02*
G75*
G02*
X10270000Y-4400000I20000J0D01*
G01*
X10270000Y-4800000D02*
G75*
G02*
X10230000Y-4800000I-20000J0D01*
G01*
X10230000Y-4800000D02*
G75*
G02*
X10270000Y-4800000I20000J0D01*
G01*
X10270000Y-5000000D02*
G75*
G02*
X10230000Y-5000000I-20000J0D01*
G01*
X10230000Y-5000000D02*
G75*
G02*
X10270000Y-5000000I20000J0D01*
G01*
X10270000Y-5200000D02*
G75*
G02*
X10230000Y-5200000I-20000J0D01*
G01*
X10230000Y-5200000D02*
G75*
G02*
X10270000Y-5200000I20000J0D01*
G01*
X10270000Y-5400000D02*
G75*
G02*
X10230000Y-5400000I-20000J0D01*
G01*
X10230000Y-5400000D02*
G75*
G02*
X10270000Y-5400000I20000J0D01*
G01*
X10270000Y-5600000D02*
G75*
G02*
X10230000Y-5600000I-20000J0D01*
G01*
X10230000Y-5600000D02*
G75*
G02*
X10270000Y-5600000I20000J0D01*
G01*
X10270000Y-5800000D02*
G75*
G02*
X10230000Y-5800000I-20000J0D01*
G01*
X10230000Y-5800000D02*
G75*
G02*
X10270000Y-5800000I20000J0D01*
G01*
X10270000Y-6000000D02*
G75*
G02*
X10230000Y-6000000I-20000J0D01*
G01*
X10230000Y-6000000D02*
G75*
G02*
X10270000Y-6000000I20000J0D01*
G01*
X10270000Y-6200000D02*
G75*
G02*
X10230000Y-6200000I-20000J0D01*
G01*
X10230000Y-6200000D02*
G75*
G02*
X10270000Y-6200000I20000J0D01*
G01*
X10270000Y-6400000D02*
G75*
G02*
X10230000Y-6400000I-20000J0D01*
G01*
X10230000Y-6400000D02*
G75*
G02*
X10270000Y-6400000I20000J0D01*
G01*
X10270000Y-6600000D02*
G75*
G02*
X10230000Y-6600000I-20000J0D01*
G01*
X10230000Y-6600000D02*
G75*
G02*
X10270000Y-6600000I20000J0D01*
G01*
X10270000Y-6800000D02*
G75*
G02*
X10230000Y-6800000I-20000J0D01*
G01*
X10230000Y-6800000D02*
G75*
G02*
X10270000Y-6800000I20000J0D01*
G01*
X10270000Y-7000000D02*
G75*
G02*
X10230000Y-7000000I-20000J0D01*
G01*
X10230000Y-7000000D02*
G75*
G02*
X10270000Y-7000000I20000J0D01*
G01*
X10270000Y-7200000D02*
G75*
G02*
X10230000Y-7200000I-20000J0D01*
G01*
X10230000Y-7200000D02*
G75*
G02*
X10270000Y-7200000I20000J0D01*
G01*
X10270000Y-7550000D02*
G75*
G02*
X10230000Y-7550000I-20000J0D01*
G01*
X10230000Y-7550000D02*
G75*
G02*
X10270000Y-7550000I20000J0D01*
G01*
X10270000Y-7750000D02*
G75*
G02*
X10230000Y-7750000I-20000J0D01*
G01*
X10230000Y-7750000D02*
G75*
G02*
X10270000Y-7750000I20000J0D01*
G01*
X10270000Y-7950000D02*
G75*
G02*
X10230000Y-7950000I-20000J0D01*
G01*
X10230000Y-7950000D02*
G75*
G02*
X10270000Y-7950000I20000J0D01*
G01*
X10270000Y-8150000D02*
G75*
G02*
X10230000Y-8150000I-20000J0D01*
G01*
X10230000Y-8150000D02*
G75*
G02*
X10270000Y-8150000I20000J0D01*
G01*
X10270000Y-8350000D02*
G75*
G02*
X10230000Y-8350000I-20000J0D01*
G01*
X10230000Y-8350000D02*
G75*
G02*
X10270000Y-8350000I20000J0D01*
G01*
X10270000Y-8550000D02*
G75*
G02*
X10230000Y-8550000I-20000J0D01*
G01*
X10230000Y-8550000D02*
G75*
G02*
X10270000Y-8550000I20000J0D01*
G01*
X10270000Y-8750000D02*
G75*
G02*
X10230000Y-8750000I-20000J0D01*
G01*
X10230000Y-8750000D02*
G75*
G02*
X10270000Y-8750000I20000J0D01*
G01*
X10270000Y-8950000D02*
G75*
G02*
X10230000Y-8950000I-20000J0D01*
G01*
X10230000Y-8950000D02*
G75*
G02*
X10270000Y-8950000I20000J0D01*
G01*
X10270000Y-9150000D02*
G75*
G02*
X10230000Y-9150000I-20000J0D01*
G01*
X10230000Y-9150000D02*
G75*
G02*
X10270000Y-9150000I20000J0D01*
G01*
X10270000Y-9350000D02*
G75*
G02*
X10230000Y-9350000I-20000J0D01*
G01*
X10230000Y-9350000D02*
G75*
G02*
X10270000Y-9350000I20000J0D01*
G01*
X10270000Y-9550000D02*
G75*
G02*
X10230000Y-9550000I-20000J0D01*
G01*
X10230000Y-9550000D02*
G75*
G02*
X10270000Y-9550000I20000J0D01*
G01*
X10270000Y-9750000D02*
G75*
G02*
X10230000Y-9750000I-20000J0D01*
G01*
X10230000Y-9750000D02*
G75*
G02*
X10270000Y-9750000I20000J0D01*
G01*
X10270000Y-9950000D02*
G75*
G02*
X10230000Y-9950000I-20000J0D01*
G01*
X10230000Y-9950000D02*
G75*
G02*
X10270000Y-9950000I20000J0D01*
G01*
X10270000Y-10150000D02*
G75*
G02*
X10230000Y-10150000I-20000J0D01*
G01*
X10230000Y-10150000D02*
G75*
G02*
X10270000Y-10150000I20000J0D01*
G01*
X8500000Y-4344600D02*
X8500000Y-4415400D01*
X8464600Y-4380000D02*
X8535400Y-4380000D01*
X8500000Y-5614600D02*
X8500000Y-5685400D01*
X8464600Y-5650000D02*
X8535400Y-5650000D01*
X8855600Y-4344600D02*
X8855600Y-4415400D01*
X8820200Y-4380000D02*
X8891000Y-4380000D01*
X8855600Y-5614600D02*
X8855600Y-5685400D01*
X8820200Y-5650000D02*
X8891000Y-5650000D01*
X9211200Y-4344600D02*
X9211200Y-4415400D01*
X9175800Y-4380000D02*
X9246600Y-4380000D01*
X9211200Y-5614600D02*
X9211200Y-5685400D01*
X9175800Y-5650000D02*
X9246600Y-5650000D01*
X1626941Y-5526941D02*
X1626941Y-5473059D01*
X1573059Y-5473059D01*
X1573059Y-5526941D01*
X1626941Y-5526941D01*
X1626941Y-5726941D02*
X1626941Y-5673059D01*
X1573059Y-5673059D01*
X1573059Y-5726941D01*
X1626941Y-5726941D01*
X1626941Y-8476941D02*
X1626941Y-8423059D01*
X1573059Y-8423059D01*
X1573059Y-8476941D01*
X1626941Y-8476941D01*
X1626941Y-8676941D02*
X1626941Y-8623059D01*
X1573059Y-8623059D01*
X1573059Y-8676941D01*
X1626941Y-8676941D01*
X1826941Y-5526941D02*
X1826941Y-5473059D01*
X1773059Y-5473059D01*
X1773059Y-5526941D01*
X1826941Y-5526941D01*
X1826941Y-5726941D02*
X1826941Y-5673059D01*
X1773059Y-5673059D01*
X1773059Y-5726941D01*
X1826941Y-5726941D01*
X1826941Y-8476941D02*
X1826941Y-8423059D01*
X1773059Y-8423059D01*
X1773059Y-8476941D01*
X1826941Y-8476941D01*
X1826941Y-8676941D02*
X1826941Y-8623059D01*
X1773059Y-8623059D01*
X1773059Y-8676941D01*
X1826941Y-8676941D01*
X2726941Y-2851941D02*
X2726941Y-2798059D01*
X2673059Y-2798059D01*
X2673059Y-2851941D01*
X2726941Y-2851941D01*
X2726941Y-3051941D02*
X2726941Y-2998059D01*
X2673059Y-2998059D01*
X2673059Y-3051941D01*
X2726941Y-3051941D01*
X2926941Y-2851941D02*
X2926941Y-2798059D01*
X2873059Y-2798059D01*
X2873059Y-2851941D01*
X2926941Y-2851941D01*
X2926941Y-3051941D02*
X2926941Y-2998059D01*
X2873059Y-2998059D01*
X2873059Y-3051941D01*
X2926941Y-3051941D01*
X3226941Y-9426941D02*
X3226941Y-9373059D01*
X3173059Y-9373059D01*
X3173059Y-9426941D01*
X3226941Y-9426941D01*
X3226941Y-9626941D02*
X3226941Y-9573059D01*
X3173059Y-9573059D01*
X3173059Y-9626941D01*
X3226941Y-9626941D01*
X3426941Y-9426941D02*
X3426941Y-9373059D01*
X3373059Y-9373059D01*
X3373059Y-9426941D01*
X3426941Y-9426941D01*
X3426941Y-9626941D02*
X3426941Y-9573059D01*
X3373059Y-9573059D01*
X3373059Y-9626941D01*
X3426941Y-9626941D01*
X4926941Y-9426941D02*
X4926941Y-9373059D01*
X4873059Y-9373059D01*
X4873059Y-9426941D01*
X4926941Y-9426941D01*
X4926941Y-9626941D02*
X4926941Y-9573059D01*
X4873059Y-9573059D01*
X4873059Y-9626941D01*
X4926941Y-9626941D01*
X5126941Y-9426941D02*
X5126941Y-9373059D01*
X5073059Y-9373059D01*
X5073059Y-9426941D01*
X5126941Y-9426941D01*
X5126941Y-9626941D02*
X5126941Y-9573059D01*
X5073059Y-9573059D01*
X5073059Y-9626941D01*
X5126941Y-9626941D01*
X6626941Y-9426941D02*
X6626941Y-9373059D01*
X6573059Y-9373059D01*
X6573059Y-9426941D01*
X6626941Y-9426941D01*
X6626941Y-9626941D02*
X6626941Y-9573059D01*
X6573059Y-9573059D01*
X6573059Y-9626941D01*
X6626941Y-9626941D01*
X6826941Y-9426941D02*
X6826941Y-9373059D01*
X6773059Y-9373059D01*
X6773059Y-9426941D01*
X6826941Y-9426941D01*
X6826941Y-9626941D02*
X6826941Y-9573059D01*
X6773059Y-9573059D01*
X6773059Y-9626941D01*
X6826941Y-9626941D01*
X8326941Y-9426941D02*
X8326941Y-9373059D01*
X8273059Y-9373059D01*
X8273059Y-9426941D01*
X8326941Y-9426941D01*
X8326941Y-9626941D02*
X8326941Y-9573059D01*
X8273059Y-9573059D01*
X8273059Y-9626941D01*
X8326941Y-9626941D01*
X8526941Y-9426941D02*
X8526941Y-9373059D01*
X8473059Y-9373059D01*
X8473059Y-9426941D01*
X8526941Y-9426941D01*
X8526941Y-9626941D02*
X8526941Y-9573059D01*
X8473059Y-9573059D01*
X8473059Y-9626941D01*
X8526941Y-9626941D01*
X2875000Y-7800000D02*
X2925000Y-7750000D01*
X2875000Y-7700000D01*
X2825000Y-7750000D01*
X2875000Y-7800000D01*
X5500000Y-7700000D02*
X5550000Y-7650000D01*
X5500000Y-7600000D01*
X5450000Y-7650000D01*
X5500000Y-7700000D01*
X5750000Y-7950000D02*
X5800000Y-7900000D01*
X5750000Y-7850000D01*
X5700000Y-7900000D01*
X5750000Y-7950000D01*
X6000000Y-1800000D02*
X6050000Y-1750000D01*
X6000000Y-1700000D01*
X5950000Y-1750000D01*
X6000000Y-1800000D01*
X6000000Y-4050000D02*
X6050000Y-4000000D01*
X6000000Y-3950000D01*
X5950000Y-4000000D01*
X6000000Y-4050000D01*
X7850000Y-1800000D02*
X7900000Y-1750000D01*
X7850000Y-1700000D01*
X7800000Y-1750000D01*
X7850000Y-1800000D01*
X8280600Y-6300000D02*
X8330600Y-6250000D01*
X8280600Y-6200000D01*
X8230600Y-6250000D01*
X8280600Y-6300000D01*
X9000000Y-1950000D02*
X9050000Y-1900000D01*
X9000000Y-1850000D01*
X8950000Y-1900000D01*
X9000000Y-1950000D01*
X9430600Y-6300000D02*
X9480600Y-6250000D01*
X9430600Y-6200000D01*
X9380600Y-6250000D01*
X9430600Y-6300000D01*
X9750000Y-8300000D02*
X9800000Y-8250000D01*
X9750000Y-8200000D01*
X9700000Y-8250000D01*
X9750000Y-8300000D01*
X9750000Y-8925000D02*
X9800000Y-8875000D01*
X9750000Y-8825000D01*
X9700000Y-8875000D01*
X9750000Y-8925000D01*
X9850000Y-3400000D02*
X9900000Y-3350000D01*
X9850000Y-3300000D01*
X9800000Y-3350000D01*
X9850000Y-3400000D01*
X10000000Y-6700000D02*
X10050000Y-6650000D01*
X10000000Y-6600000D01*
X9950000Y-6650000D01*
X10000000Y-6700000D01*
D13*
X1607290Y-5057290D02*
X1792710Y-5242710D01*
X1792710Y-5057290D02*
X1607290Y-5242710D01*
X1792710Y-5150000D02*
G75*
G02*
X1607290Y-5150000I-92710J0D01*
G01*
X1607290Y-5150000D02*
G75*
G02*
X1792710Y-5150000I92710J0D01*
G01*
X1607290Y-5957290D02*
X1792710Y-6142710D01*
X1792710Y-5957290D02*
X1607290Y-6142710D01*
X1792710Y-6050000D02*
G75*
G02*
X1607290Y-6050000I-92710J0D01*
G01*
X1607290Y-6050000D02*
G75*
G02*
X1792710Y-6050000I92710J0D01*
G01*
X1607290Y-8007290D02*
X1792710Y-8192710D01*
X1792710Y-8007290D02*
X1607290Y-8192710D01*
X1792710Y-8100000D02*
G75*
G02*
X1607290Y-8100000I-92710J0D01*
G01*
X1607290Y-8100000D02*
G75*
G02*
X1792710Y-8100000I92710J0D01*
G01*
X1607290Y-8907290D02*
X1792710Y-9092710D01*
X1792710Y-8907290D02*
X1607290Y-9092710D01*
X1792710Y-9000000D02*
G75*
G02*
X1607290Y-9000000I-92710J0D01*
G01*
X1607290Y-9000000D02*
G75*
G02*
X1792710Y-9000000I92710J0D01*
G01*
X2707290Y-2382290D02*
X2892710Y-2567710D01*
X2892710Y-2382290D02*
X2707290Y-2567710D01*
X2892710Y-2475000D02*
G75*
G02*
X2707290Y-2475000I-92710J0D01*
G01*
X2707290Y-2475000D02*
G75*
G02*
X2892710Y-2475000I92710J0D01*
G01*
X2707290Y-3282290D02*
X2892710Y-3467710D01*
X2892710Y-3282290D02*
X2707290Y-3467710D01*
X2892710Y-3375000D02*
G75*
G02*
X2707290Y-3375000I-92710J0D01*
G01*
X2707290Y-3375000D02*
G75*
G02*
X2892710Y-3375000I92710J0D01*
G01*
X2757290Y-9407290D02*
X2942710Y-9592710D01*
X2942710Y-9407290D02*
X2757290Y-9592710D01*
X2942710Y-9500000D02*
G75*
G02*
X2757290Y-9500000I-92710J0D01*
G01*
X2757290Y-9500000D02*
G75*
G02*
X2942710Y-9500000I92710J0D01*
G01*
X3657290Y-9407290D02*
X3842710Y-9592710D01*
X3842710Y-9407290D02*
X3657290Y-9592710D01*
X3842710Y-9500000D02*
G75*
G02*
X3657290Y-9500000I-92710J0D01*
G01*
X3657290Y-9500000D02*
G75*
G02*
X3842710Y-9500000I92710J0D01*
G01*
X4457290Y-9407290D02*
X4642710Y-9592710D01*
X4642710Y-9407290D02*
X4457290Y-9592710D01*
X4642710Y-9500000D02*
G75*
G02*
X4457290Y-9500000I-92710J0D01*
G01*
X4457290Y-9500000D02*
G75*
G02*
X4642710Y-9500000I92710J0D01*
G01*
X5357290Y-9407290D02*
X5542710Y-9592710D01*
X5542710Y-9407290D02*
X5357290Y-9592710D01*
X5542710Y-9500000D02*
G75*
G02*
X5357290Y-9500000I-92710J0D01*
G01*
X5357290Y-9500000D02*
G75*
G02*
X5542710Y-9500000I92710J0D01*
G01*
X6157290Y-9407290D02*
X6342710Y-9592710D01*
X6342710Y-9407290D02*
X6157290Y-9592710D01*
X6342710Y-9500000D02*
G75*
G02*
X6157290Y-9500000I-92710J0D01*
G01*
X6157290Y-9500000D02*
G75*
G02*
X6342710Y-9500000I92710J0D01*
G01*
X7057290Y-9407290D02*
X7242710Y-9592710D01*
X7242710Y-9407290D02*
X7057290Y-9592710D01*
X7242710Y-9500000D02*
G75*
G02*
X7057290Y-9500000I-92710J0D01*
G01*
X7057290Y-9500000D02*
G75*
G02*
X7242710Y-9500000I92710J0D01*
G01*
X7857290Y-9407290D02*
X8042710Y-9592710D01*
X8042710Y-9407290D02*
X7857290Y-9592710D01*
X8042710Y-9500000D02*
G75*
G02*
X7857290Y-9500000I-92710J0D01*
G01*
X7857290Y-9500000D02*
G75*
G02*
X8042710Y-9500000I92710J0D01*
G01*
X8757290Y-9407290D02*
X8942710Y-9592710D01*
X8942710Y-9407290D02*
X8757290Y-9592710D01*
X8942710Y-9500000D02*
G75*
G02*
X8757290Y-9500000I-92710J0D01*
G01*
X8757290Y-9500000D02*
G75*
G02*
X8942710Y-9500000I92710J0D01*
G01*
D14*
X7761040Y-4918640D02*
X7953760Y-5111360D01*
X7953760Y-4918640D02*
X7761040Y-5111360D01*
X7857400Y-4918640D02*
X7857400Y-5111360D01*
X7761040Y-5015000D02*
X7953760Y-5015000D01*
X9757440Y-4918640D02*
X9950160Y-5111360D01*
X9950160Y-4918640D02*
X9757440Y-5111360D01*
X9853800Y-4918640D02*
X9853800Y-5111360D01*
X9757440Y-5015000D02*
X9950160Y-5015000D01*
D15*
X1690000Y-1690000D02*
X2010000Y-2010000D01*
X2010000Y-1690000D02*
X1690000Y-2010000D01*
X1963138Y-1963138D02*
X1963138Y-1736862D01*
X1736862Y-1736862D01*
X1736862Y-1963138D01*
X1963138Y-1963138D01*
X1940000Y-9690000D02*
X2260000Y-10010000D01*
X2260000Y-9690000D02*
X1940000Y-10010000D01*
X2213138Y-9963138D02*
X2213138Y-9736862D01*
X1986862Y-9736862D01*
X1986862Y-9963138D01*
X2213138Y-9963138D01*
X9440000Y-9690000D02*
X9760000Y-10010000D01*
X9760000Y-9690000D02*
X9440000Y-10010000D01*
X9713138Y-9963138D02*
X9713138Y-9736862D01*
X9486862Y-9736862D01*
X9486862Y-9963138D01*
X9713138Y-9963138D01*
X9690000Y-1690000D02*
X10010000Y-2010000D01*
X10010000Y-1690000D02*
X9690000Y-2010000D01*
X9963138Y-1963138D02*
X9963138Y-1736862D01*
X9736862Y-1736862D01*
X9736862Y-1963138D01*
X9963138Y-1963138D01*
D11*
X1608277Y-10663984D02*
X1608277Y-10463984D01*
X1608277Y-10463984D02*
X1655896Y-10463984D01*
X1655896Y-10463984D02*
X1684467Y-10473508D01*
X1684467Y-10473508D02*
X1703515Y-10492555D01*
X1703515Y-10492555D02*
X1713039Y-10511603D01*
X1713039Y-10511603D02*
X1722562Y-10549698D01*
X1722562Y-10549698D02*
X1722562Y-10578270D01*
X1722562Y-10578270D02*
X1713039Y-10616365D01*
X1713039Y-10616365D02*
X1703515Y-10635412D01*
X1703515Y-10635412D02*
X1684467Y-10654460D01*
X1684467Y-10654460D02*
X1655896Y-10663984D01*
X1655896Y-10663984D02*
X1608277Y-10663984D01*
X1808277Y-10663984D02*
X1808277Y-10530650D01*
X1808277Y-10568746D02*
X1817801Y-10549698D01*
X1817801Y-10549698D02*
X1827324Y-10540174D01*
X1827324Y-10540174D02*
X1846372Y-10530650D01*
X1846372Y-10530650D02*
X1865420Y-10530650D01*
X1932086Y-10663984D02*
X1932086Y-10530650D01*
X1932086Y-10463984D02*
X1922562Y-10473508D01*
X1922562Y-10473508D02*
X1932086Y-10483031D01*
X1932086Y-10483031D02*
X1941610Y-10473508D01*
X1941610Y-10473508D02*
X1932086Y-10463984D01*
X1932086Y-10463984D02*
X1932086Y-10483031D01*
X2055896Y-10663984D02*
X2036848Y-10654460D01*
X2036848Y-10654460D02*
X2027324Y-10635412D01*
X2027324Y-10635412D02*
X2027324Y-10463984D01*
X2160658Y-10663984D02*
X2141610Y-10654460D01*
X2141610Y-10654460D02*
X2132086Y-10635412D01*
X2132086Y-10635412D02*
X2132086Y-10463984D01*
X2389229Y-10663984D02*
X2389229Y-10463984D01*
X2389229Y-10463984D02*
X2455896Y-10606841D01*
X2455896Y-10606841D02*
X2522563Y-10463984D01*
X2522563Y-10463984D02*
X2522563Y-10663984D01*
X2703515Y-10663984D02*
X2703515Y-10559222D01*
X2703515Y-10559222D02*
X2693991Y-10540174D01*
X2693991Y-10540174D02*
X2674944Y-10530650D01*
X2674944Y-10530650D02*
X2636848Y-10530650D01*
X2636848Y-10530650D02*
X2617801Y-10540174D01*
X2703515Y-10654460D02*
X2684467Y-10663984D01*
X2684467Y-10663984D02*
X2636848Y-10663984D01*
X2636848Y-10663984D02*
X2617801Y-10654460D01*
X2617801Y-10654460D02*
X2608277Y-10635412D01*
X2608277Y-10635412D02*
X2608277Y-10616365D01*
X2608277Y-10616365D02*
X2617801Y-10597317D01*
X2617801Y-10597317D02*
X2636848Y-10587793D01*
X2636848Y-10587793D02*
X2684467Y-10587793D01*
X2684467Y-10587793D02*
X2703515Y-10578270D01*
X2798753Y-10530650D02*
X2798753Y-10730650D01*
X2798753Y-10540174D02*
X2817801Y-10530650D01*
X2817801Y-10530650D02*
X2855896Y-10530650D01*
X2855896Y-10530650D02*
X2874943Y-10540174D01*
X2874943Y-10540174D02*
X2884467Y-10549698D01*
X2884467Y-10549698D02*
X2893991Y-10568746D01*
X2893991Y-10568746D02*
X2893991Y-10625889D01*
X2893991Y-10625889D02*
X2884467Y-10644936D01*
X2884467Y-10644936D02*
X2874943Y-10654460D01*
X2874943Y-10654460D02*
X2855896Y-10663984D01*
X2855896Y-10663984D02*
X2817801Y-10663984D01*
X2817801Y-10663984D02*
X2798753Y-10654460D01*
X2979705Y-10644936D02*
X2989229Y-10654460D01*
X2989229Y-10654460D02*
X2979705Y-10663984D01*
X2979705Y-10663984D02*
X2970182Y-10654460D01*
X2970182Y-10654460D02*
X2979705Y-10644936D01*
X2979705Y-10644936D02*
X2979705Y-10663984D01*
X2979705Y-10540174D02*
X2989229Y-10549698D01*
X2989229Y-10549698D02*
X2979705Y-10559222D01*
X2979705Y-10559222D02*
X2970182Y-10549698D01*
X2970182Y-10549698D02*
X2979705Y-10540174D01*
X2979705Y-10540174D02*
X2979705Y-10559222D01*
D12*
X1327500Y-10982500D02*
X1347500Y-11002500D01*
X1347500Y-10982500D02*
X1327500Y-11002500D01*
D11*
X1646372Y-10883984D02*
X1665420Y-10883984D01*
X1665420Y-10883984D02*
X1684467Y-10893508D01*
X1684467Y-10893508D02*
X1693991Y-10903031D01*
X1693991Y-10903031D02*
X1703515Y-10922079D01*
X1703515Y-10922079D02*
X1713039Y-10960174D01*
X1713039Y-10960174D02*
X1713039Y-11007793D01*
X1713039Y-11007793D02*
X1703515Y-11045889D01*
X1703515Y-11045889D02*
X1693991Y-11064936D01*
X1693991Y-11064936D02*
X1684467Y-11074460D01*
X1684467Y-11074460D02*
X1665420Y-11083984D01*
X1665420Y-11083984D02*
X1646372Y-11083984D01*
X1646372Y-11083984D02*
X1627324Y-11074460D01*
X1627324Y-11074460D02*
X1617801Y-11064936D01*
X1617801Y-11064936D02*
X1608277Y-11045889D01*
X1608277Y-11045889D02*
X1598753Y-11007793D01*
X1598753Y-11007793D02*
X1598753Y-10960174D01*
X1598753Y-10960174D02*
X1608277Y-10922079D01*
X1608277Y-10922079D02*
X1617801Y-10903031D01*
X1617801Y-10903031D02*
X1627324Y-10893508D01*
X1627324Y-10893508D02*
X1646372Y-10883984D01*
X1798753Y-11064936D02*
X1808277Y-11074460D01*
X1808277Y-11074460D02*
X1798753Y-11083984D01*
X1798753Y-11083984D02*
X1789229Y-11074460D01*
X1789229Y-11074460D02*
X1798753Y-11064936D01*
X1798753Y-11064936D02*
X1798753Y-11083984D01*
X1884467Y-10903031D02*
X1893991Y-10893508D01*
X1893991Y-10893508D02*
X1913039Y-10883984D01*
X1913039Y-10883984D02*
X1960658Y-10883984D01*
X1960658Y-10883984D02*
X1979705Y-10893508D01*
X1979705Y-10893508D02*
X1989229Y-10903031D01*
X1989229Y-10903031D02*
X1998753Y-10922079D01*
X1998753Y-10922079D02*
X1998753Y-10941127D01*
X1998753Y-10941127D02*
X1989229Y-10969698D01*
X1989229Y-10969698D02*
X1874943Y-11083984D01*
X1874943Y-11083984D02*
X1998753Y-11083984D01*
X2122563Y-10883984D02*
X2141610Y-10883984D01*
X2141610Y-10883984D02*
X2160658Y-10893508D01*
X2160658Y-10893508D02*
X2170182Y-10903031D01*
X2170182Y-10903031D02*
X2179705Y-10922079D01*
X2179705Y-10922079D02*
X2189229Y-10960174D01*
X2189229Y-10960174D02*
X2189229Y-11007793D01*
X2189229Y-11007793D02*
X2179705Y-11045889D01*
X2179705Y-11045889D02*
X2170182Y-11064936D01*
X2170182Y-11064936D02*
X2160658Y-11074460D01*
X2160658Y-11074460D02*
X2141610Y-11083984D01*
X2141610Y-11083984D02*
X2122563Y-11083984D01*
X2122563Y-11083984D02*
X2103515Y-11074460D01*
X2103515Y-11074460D02*
X2093991Y-11064936D01*
X2093991Y-11064936D02*
X2084467Y-11045889D01*
X2084467Y-11045889D02*
X2074943Y-11007793D01*
X2074943Y-11007793D02*
X2074943Y-10960174D01*
X2074943Y-10960174D02*
X2084467Y-10922079D01*
X2084467Y-10922079D02*
X2093991Y-10903031D01*
X2093991Y-10903031D02*
X2103515Y-10893508D01*
X2103515Y-10893508D02*
X2122563Y-10883984D01*
X2313039Y-10883984D02*
X2332086Y-10883984D01*
X2332086Y-10883984D02*
X2351134Y-10893508D01*
X2351134Y-10893508D02*
X2360658Y-10903031D01*
X2360658Y-10903031D02*
X2370182Y-10922079D01*
X2370182Y-10922079D02*
X2379705Y-10960174D01*
X2379705Y-10960174D02*
X2379705Y-11007793D01*
X2379705Y-11007793D02*
X2370182Y-11045889D01*
X2370182Y-11045889D02*
X2360658Y-11064936D01*
X2360658Y-11064936D02*
X2351134Y-11074460D01*
X2351134Y-11074460D02*
X2332086Y-11083984D01*
X2332086Y-11083984D02*
X2313039Y-11083984D01*
X2313039Y-11083984D02*
X2293991Y-11074460D01*
X2293991Y-11074460D02*
X2284467Y-11064936D01*
X2284467Y-11064936D02*
X2274944Y-11045889D01*
X2274944Y-11045889D02*
X2265420Y-11007793D01*
X2265420Y-11007793D02*
X2265420Y-10960174D01*
X2265420Y-10960174D02*
X2274944Y-10922079D01*
X2274944Y-10922079D02*
X2284467Y-10903031D01*
X2284467Y-10903031D02*
X2293991Y-10893508D01*
X2293991Y-10893508D02*
X2313039Y-10883984D01*
X2465420Y-11083984D02*
X2465420Y-10950650D01*
X2465420Y-10969698D02*
X2474944Y-10960174D01*
X2474944Y-10960174D02*
X2493991Y-10950650D01*
X2493991Y-10950650D02*
X2522563Y-10950650D01*
X2522563Y-10950650D02*
X2541610Y-10960174D01*
X2541610Y-10960174D02*
X2551134Y-10979222D01*
X2551134Y-10979222D02*
X2551134Y-11083984D01*
X2551134Y-10979222D02*
X2560658Y-10960174D01*
X2560658Y-10960174D02*
X2579705Y-10950650D01*
X2579705Y-10950650D02*
X2608277Y-10950650D01*
X2608277Y-10950650D02*
X2627325Y-10960174D01*
X2627325Y-10960174D02*
X2636848Y-10979222D01*
X2636848Y-10979222D02*
X2636848Y-11083984D01*
X2732086Y-11083984D02*
X2732086Y-10950650D01*
X2732086Y-10969698D02*
X2741610Y-10960174D01*
X2741610Y-10960174D02*
X2760658Y-10950650D01*
X2760658Y-10950650D02*
X2789229Y-10950650D01*
X2789229Y-10950650D02*
X2808277Y-10960174D01*
X2808277Y-10960174D02*
X2817801Y-10979222D01*
X2817801Y-10979222D02*
X2817801Y-11083984D01*
X2817801Y-10979222D02*
X2827324Y-10960174D01*
X2827324Y-10960174D02*
X2846372Y-10950650D01*
X2846372Y-10950650D02*
X2874943Y-10950650D01*
X2874943Y-10950650D02*
X2893991Y-10960174D01*
X2893991Y-10960174D02*
X2903515Y-10979222D01*
X2903515Y-10979222D02*
X2903515Y-11083984D01*
X3293991Y-10874460D02*
X3122563Y-11131603D01*
X3551134Y-10883984D02*
X3570182Y-10883984D01*
X3570182Y-10883984D02*
X3589229Y-10893508D01*
X3589229Y-10893508D02*
X3598753Y-10903031D01*
X3598753Y-10903031D02*
X3608277Y-10922079D01*
X3608277Y-10922079D02*
X3617801Y-10960174D01*
X3617801Y-10960174D02*
X3617801Y-11007793D01*
X3617801Y-11007793D02*
X3608277Y-11045889D01*
X3608277Y-11045889D02*
X3598753Y-11064936D01*
X3598753Y-11064936D02*
X3589229Y-11074460D01*
X3589229Y-11074460D02*
X3570182Y-11083984D01*
X3570182Y-11083984D02*
X3551134Y-11083984D01*
X3551134Y-11083984D02*
X3532086Y-11074460D01*
X3532086Y-11074460D02*
X3522563Y-11064936D01*
X3522563Y-11064936D02*
X3513039Y-11045889D01*
X3513039Y-11045889D02*
X3503515Y-11007793D01*
X3503515Y-11007793D02*
X3503515Y-10960174D01*
X3503515Y-10960174D02*
X3513039Y-10922079D01*
X3513039Y-10922079D02*
X3522563Y-10903031D01*
X3522563Y-10903031D02*
X3532086Y-10893508D01*
X3532086Y-10893508D02*
X3551134Y-10883984D01*
X3703515Y-11064936D02*
X3713039Y-11074460D01*
X3713039Y-11074460D02*
X3703515Y-11083984D01*
X3703515Y-11083984D02*
X3693991Y-11074460D01*
X3693991Y-11074460D02*
X3703515Y-11064936D01*
X3703515Y-11064936D02*
X3703515Y-11083984D01*
X3836848Y-10883984D02*
X3855896Y-10883984D01*
X3855896Y-10883984D02*
X3874944Y-10893508D01*
X3874944Y-10893508D02*
X3884467Y-10903031D01*
X3884467Y-10903031D02*
X3893991Y-10922079D01*
X3893991Y-10922079D02*
X3903515Y-10960174D01*
X3903515Y-10960174D02*
X3903515Y-11007793D01*
X3903515Y-11007793D02*
X3893991Y-11045889D01*
X3893991Y-11045889D02*
X3884467Y-11064936D01*
X3884467Y-11064936D02*
X3874944Y-11074460D01*
X3874944Y-11074460D02*
X3855896Y-11083984D01*
X3855896Y-11083984D02*
X3836848Y-11083984D01*
X3836848Y-11083984D02*
X3817801Y-11074460D01*
X3817801Y-11074460D02*
X3808277Y-11064936D01*
X3808277Y-11064936D02*
X3798753Y-11045889D01*
X3798753Y-11045889D02*
X3789229Y-11007793D01*
X3789229Y-11007793D02*
X3789229Y-10960174D01*
X3789229Y-10960174D02*
X3798753Y-10922079D01*
X3798753Y-10922079D02*
X3808277Y-10903031D01*
X3808277Y-10903031D02*
X3817801Y-10893508D01*
X3817801Y-10893508D02*
X3836848Y-10883984D01*
X4027325Y-10883984D02*
X4046372Y-10883984D01*
X4046372Y-10883984D02*
X4065420Y-10893508D01*
X4065420Y-10893508D02*
X4074944Y-10903031D01*
X4074944Y-10903031D02*
X4084467Y-10922079D01*
X4084467Y-10922079D02*
X4093991Y-10960174D01*
X4093991Y-10960174D02*
X4093991Y-11007793D01*
X4093991Y-11007793D02*
X4084467Y-11045889D01*
X4084467Y-11045889D02*
X4074944Y-11064936D01*
X4074944Y-11064936D02*
X4065420Y-11074460D01*
X4065420Y-11074460D02*
X4046372Y-11083984D01*
X4046372Y-11083984D02*
X4027325Y-11083984D01*
X4027325Y-11083984D02*
X4008277Y-11074460D01*
X4008277Y-11074460D02*
X3998753Y-11064936D01*
X3998753Y-11064936D02*
X3989229Y-11045889D01*
X3989229Y-11045889D02*
X3979706Y-11007793D01*
X3979706Y-11007793D02*
X3979706Y-10960174D01*
X3979706Y-10960174D02*
X3989229Y-10922079D01*
X3989229Y-10922079D02*
X3998753Y-10903031D01*
X3998753Y-10903031D02*
X4008277Y-10893508D01*
X4008277Y-10893508D02*
X4027325Y-10883984D01*
X4160658Y-10883984D02*
X4293991Y-10883984D01*
X4293991Y-10883984D02*
X4208277Y-11083984D01*
X4379706Y-11083984D02*
X4417801Y-11083984D01*
X4417801Y-11083984D02*
X4436849Y-11074460D01*
X4436849Y-11074460D02*
X4446372Y-11064936D01*
X4446372Y-11064936D02*
X4465420Y-11036365D01*
X4465420Y-11036365D02*
X4474944Y-10998270D01*
X4474944Y-10998270D02*
X4474944Y-10922079D01*
X4474944Y-10922079D02*
X4465420Y-10903031D01*
X4465420Y-10903031D02*
X4455896Y-10893508D01*
X4455896Y-10893508D02*
X4436849Y-10883984D01*
X4436849Y-10883984D02*
X4398753Y-10883984D01*
X4398753Y-10883984D02*
X4379706Y-10893508D01*
X4379706Y-10893508D02*
X4370182Y-10903031D01*
X4370182Y-10903031D02*
X4360658Y-10922079D01*
X4360658Y-10922079D02*
X4360658Y-10969698D01*
X4360658Y-10969698D02*
X4370182Y-10988746D01*
X4370182Y-10988746D02*
X4379706Y-10998270D01*
X4379706Y-10998270D02*
X4398753Y-11007793D01*
X4398753Y-11007793D02*
X4436849Y-11007793D01*
X4436849Y-11007793D02*
X4455896Y-10998270D01*
X4455896Y-10998270D02*
X4465420Y-10988746D01*
X4465420Y-10988746D02*
X4474944Y-10969698D01*
X4551134Y-10883984D02*
X4551134Y-10922079D01*
X4627325Y-10883984D02*
X4627325Y-10922079D01*
X4922563Y-11160174D02*
X4913039Y-11150650D01*
X4913039Y-11150650D02*
X4893991Y-11122079D01*
X4893991Y-11122079D02*
X4884468Y-11103031D01*
X4884468Y-11103031D02*
X4874944Y-11074460D01*
X4874944Y-11074460D02*
X4865420Y-11026841D01*
X4865420Y-11026841D02*
X4865420Y-10988746D01*
X4865420Y-10988746D02*
X4874944Y-10941127D01*
X4874944Y-10941127D02*
X4884468Y-10912555D01*
X4884468Y-10912555D02*
X4893991Y-10893508D01*
X4893991Y-10893508D02*
X4913039Y-10864936D01*
X4913039Y-10864936D02*
X4922563Y-10855412D01*
X5084468Y-10950650D02*
X5084468Y-11083984D01*
X5036849Y-10874460D02*
X4989230Y-11017317D01*
X4989230Y-11017317D02*
X5113039Y-11017317D01*
X5227325Y-10883984D02*
X5246372Y-10883984D01*
X5246372Y-10883984D02*
X5265420Y-10893508D01*
X5265420Y-10893508D02*
X5274944Y-10903031D01*
X5274944Y-10903031D02*
X5284468Y-10922079D01*
X5284468Y-10922079D02*
X5293991Y-10960174D01*
X5293991Y-10960174D02*
X5293991Y-11007793D01*
X5293991Y-11007793D02*
X5284468Y-11045889D01*
X5284468Y-11045889D02*
X5274944Y-11064936D01*
X5274944Y-11064936D02*
X5265420Y-11074460D01*
X5265420Y-11074460D02*
X5246372Y-11083984D01*
X5246372Y-11083984D02*
X5227325Y-11083984D01*
X5227325Y-11083984D02*
X5208277Y-11074460D01*
X5208277Y-11074460D02*
X5198753Y-11064936D01*
X5198753Y-11064936D02*
X5189230Y-11045889D01*
X5189230Y-11045889D02*
X5179706Y-11007793D01*
X5179706Y-11007793D02*
X5179706Y-10960174D01*
X5179706Y-10960174D02*
X5189230Y-10922079D01*
X5189230Y-10922079D02*
X5198753Y-10903031D01*
X5198753Y-10903031D02*
X5208277Y-10893508D01*
X5208277Y-10893508D02*
X5227325Y-10883984D01*
X5532087Y-11083984D02*
X5532087Y-10883984D01*
X5617801Y-11083984D02*
X5617801Y-10979222D01*
X5617801Y-10979222D02*
X5608277Y-10960174D01*
X5608277Y-10960174D02*
X5589230Y-10950650D01*
X5589230Y-10950650D02*
X5560658Y-10950650D01*
X5560658Y-10950650D02*
X5541611Y-10960174D01*
X5541611Y-10960174D02*
X5532087Y-10969698D01*
X5741610Y-11083984D02*
X5722563Y-11074460D01*
X5722563Y-11074460D02*
X5713039Y-11064936D01*
X5713039Y-11064936D02*
X5703515Y-11045889D01*
X5703515Y-11045889D02*
X5703515Y-10988746D01*
X5703515Y-10988746D02*
X5713039Y-10969698D01*
X5713039Y-10969698D02*
X5722563Y-10960174D01*
X5722563Y-10960174D02*
X5741610Y-10950650D01*
X5741610Y-10950650D02*
X5770182Y-10950650D01*
X5770182Y-10950650D02*
X5789230Y-10960174D01*
X5789230Y-10960174D02*
X5798753Y-10969698D01*
X5798753Y-10969698D02*
X5808277Y-10988746D01*
X5808277Y-10988746D02*
X5808277Y-11045889D01*
X5808277Y-11045889D02*
X5798753Y-11064936D01*
X5798753Y-11064936D02*
X5789230Y-11074460D01*
X5789230Y-11074460D02*
X5770182Y-11083984D01*
X5770182Y-11083984D02*
X5741610Y-11083984D01*
X5922563Y-11083984D02*
X5903515Y-11074460D01*
X5903515Y-11074460D02*
X5893991Y-11055412D01*
X5893991Y-11055412D02*
X5893991Y-10883984D01*
X6074944Y-11074460D02*
X6055896Y-11083984D01*
X6055896Y-11083984D02*
X6017801Y-11083984D01*
X6017801Y-11083984D02*
X5998753Y-11074460D01*
X5998753Y-11074460D02*
X5989230Y-11055412D01*
X5989230Y-11055412D02*
X5989230Y-10979222D01*
X5989230Y-10979222D02*
X5998753Y-10960174D01*
X5998753Y-10960174D02*
X6017801Y-10950650D01*
X6017801Y-10950650D02*
X6055896Y-10950650D01*
X6055896Y-10950650D02*
X6074944Y-10960174D01*
X6074944Y-10960174D02*
X6084468Y-10979222D01*
X6084468Y-10979222D02*
X6084468Y-10998270D01*
X6084468Y-10998270D02*
X5989230Y-11017317D01*
X6160658Y-11074460D02*
X6179706Y-11083984D01*
X6179706Y-11083984D02*
X6217801Y-11083984D01*
X6217801Y-11083984D02*
X6236849Y-11074460D01*
X6236849Y-11074460D02*
X6246372Y-11055412D01*
X6246372Y-11055412D02*
X6246372Y-11045889D01*
X6246372Y-11045889D02*
X6236849Y-11026841D01*
X6236849Y-11026841D02*
X6217801Y-11017317D01*
X6217801Y-11017317D02*
X6189230Y-11017317D01*
X6189230Y-11017317D02*
X6170182Y-11007793D01*
X6170182Y-11007793D02*
X6160658Y-10988746D01*
X6160658Y-10988746D02*
X6160658Y-10979222D01*
X6160658Y-10979222D02*
X6170182Y-10960174D01*
X6170182Y-10960174D02*
X6189230Y-10950650D01*
X6189230Y-10950650D02*
X6217801Y-10950650D01*
X6217801Y-10950650D02*
X6236849Y-10960174D01*
X6313039Y-11160174D02*
X6322563Y-11150650D01*
X6322563Y-11150650D02*
X6341611Y-11122079D01*
X6341611Y-11122079D02*
X6351134Y-11103031D01*
X6351134Y-11103031D02*
X6360658Y-11074460D01*
X6360658Y-11074460D02*
X6370182Y-11026841D01*
X6370182Y-11026841D02*
X6370182Y-10988746D01*
X6370182Y-10988746D02*
X6360658Y-10941127D01*
X6360658Y-10941127D02*
X6351134Y-10912555D01*
X6351134Y-10912555D02*
X6341611Y-10893508D01*
X6341611Y-10893508D02*
X6322563Y-10864936D01*
X6322563Y-10864936D02*
X6313039Y-10855412D01*
D12*
X1347500Y-11256500D02*
G75*
G02*
X1307500Y-11256500I-20000J0D01*
G01*
X1307500Y-11256500D02*
G75*
G02*
X1347500Y-11256500I20000J0D01*
G01*
D11*
X1646372Y-11147984D02*
X1665420Y-11147984D01*
X1665420Y-11147984D02*
X1684467Y-11157508D01*
X1684467Y-11157508D02*
X1693991Y-11167031D01*
X1693991Y-11167031D02*
X1703515Y-11186079D01*
X1703515Y-11186079D02*
X1713039Y-11224174D01*
X1713039Y-11224174D02*
X1713039Y-11271793D01*
X1713039Y-11271793D02*
X1703515Y-11309888D01*
X1703515Y-11309888D02*
X1693991Y-11328936D01*
X1693991Y-11328936D02*
X1684467Y-11338460D01*
X1684467Y-11338460D02*
X1665420Y-11347984D01*
X1665420Y-11347984D02*
X1646372Y-11347984D01*
X1646372Y-11347984D02*
X1627324Y-11338460D01*
X1627324Y-11338460D02*
X1617801Y-11328936D01*
X1617801Y-11328936D02*
X1608277Y-11309888D01*
X1608277Y-11309888D02*
X1598753Y-11271793D01*
X1598753Y-11271793D02*
X1598753Y-11224174D01*
X1598753Y-11224174D02*
X1608277Y-11186079D01*
X1608277Y-11186079D02*
X1617801Y-11167031D01*
X1617801Y-11167031D02*
X1627324Y-11157508D01*
X1627324Y-11157508D02*
X1646372Y-11147984D01*
X1798753Y-11328936D02*
X1808277Y-11338460D01*
X1808277Y-11338460D02*
X1798753Y-11347984D01*
X1798753Y-11347984D02*
X1789229Y-11338460D01*
X1789229Y-11338460D02*
X1798753Y-11328936D01*
X1798753Y-11328936D02*
X1798753Y-11347984D01*
X1979705Y-11214650D02*
X1979705Y-11347984D01*
X1932086Y-11138460D02*
X1884467Y-11281317D01*
X1884467Y-11281317D02*
X2008277Y-11281317D01*
X2122563Y-11147984D02*
X2141610Y-11147984D01*
X2141610Y-11147984D02*
X2160658Y-11157508D01*
X2160658Y-11157508D02*
X2170182Y-11167031D01*
X2170182Y-11167031D02*
X2179705Y-11186079D01*
X2179705Y-11186079D02*
X2189229Y-11224174D01*
X2189229Y-11224174D02*
X2189229Y-11271793D01*
X2189229Y-11271793D02*
X2179705Y-11309888D01*
X2179705Y-11309888D02*
X2170182Y-11328936D01*
X2170182Y-11328936D02*
X2160658Y-11338460D01*
X2160658Y-11338460D02*
X2141610Y-11347984D01*
X2141610Y-11347984D02*
X2122563Y-11347984D01*
X2122563Y-11347984D02*
X2103515Y-11338460D01*
X2103515Y-11338460D02*
X2093991Y-11328936D01*
X2093991Y-11328936D02*
X2084467Y-11309888D01*
X2084467Y-11309888D02*
X2074943Y-11271793D01*
X2074943Y-11271793D02*
X2074943Y-11224174D01*
X2074943Y-11224174D02*
X2084467Y-11186079D01*
X2084467Y-11186079D02*
X2093991Y-11167031D01*
X2093991Y-11167031D02*
X2103515Y-11157508D01*
X2103515Y-11157508D02*
X2122563Y-11147984D01*
X2313039Y-11147984D02*
X2332086Y-11147984D01*
X2332086Y-11147984D02*
X2351134Y-11157508D01*
X2351134Y-11157508D02*
X2360658Y-11167031D01*
X2360658Y-11167031D02*
X2370182Y-11186079D01*
X2370182Y-11186079D02*
X2379705Y-11224174D01*
X2379705Y-11224174D02*
X2379705Y-11271793D01*
X2379705Y-11271793D02*
X2370182Y-11309888D01*
X2370182Y-11309888D02*
X2360658Y-11328936D01*
X2360658Y-11328936D02*
X2351134Y-11338460D01*
X2351134Y-11338460D02*
X2332086Y-11347984D01*
X2332086Y-11347984D02*
X2313039Y-11347984D01*
X2313039Y-11347984D02*
X2293991Y-11338460D01*
X2293991Y-11338460D02*
X2284467Y-11328936D01*
X2284467Y-11328936D02*
X2274944Y-11309888D01*
X2274944Y-11309888D02*
X2265420Y-11271793D01*
X2265420Y-11271793D02*
X2265420Y-11224174D01*
X2265420Y-11224174D02*
X2274944Y-11186079D01*
X2274944Y-11186079D02*
X2284467Y-11167031D01*
X2284467Y-11167031D02*
X2293991Y-11157508D01*
X2293991Y-11157508D02*
X2313039Y-11147984D01*
X2465420Y-11347984D02*
X2465420Y-11214650D01*
X2465420Y-11233698D02*
X2474944Y-11224174D01*
X2474944Y-11224174D02*
X2493991Y-11214650D01*
X2493991Y-11214650D02*
X2522563Y-11214650D01*
X2522563Y-11214650D02*
X2541610Y-11224174D01*
X2541610Y-11224174D02*
X2551134Y-11243222D01*
X2551134Y-11243222D02*
X2551134Y-11347984D01*
X2551134Y-11243222D02*
X2560658Y-11224174D01*
X2560658Y-11224174D02*
X2579705Y-11214650D01*
X2579705Y-11214650D02*
X2608277Y-11214650D01*
X2608277Y-11214650D02*
X2627325Y-11224174D01*
X2627325Y-11224174D02*
X2636848Y-11243222D01*
X2636848Y-11243222D02*
X2636848Y-11347984D01*
X2732086Y-11347984D02*
X2732086Y-11214650D01*
X2732086Y-11233698D02*
X2741610Y-11224174D01*
X2741610Y-11224174D02*
X2760658Y-11214650D01*
X2760658Y-11214650D02*
X2789229Y-11214650D01*
X2789229Y-11214650D02*
X2808277Y-11224174D01*
X2808277Y-11224174D02*
X2817801Y-11243222D01*
X2817801Y-11243222D02*
X2817801Y-11347984D01*
X2817801Y-11243222D02*
X2827324Y-11224174D01*
X2827324Y-11224174D02*
X2846372Y-11214650D01*
X2846372Y-11214650D02*
X2874943Y-11214650D01*
X2874943Y-11214650D02*
X2893991Y-11224174D01*
X2893991Y-11224174D02*
X2903515Y-11243222D01*
X2903515Y-11243222D02*
X2903515Y-11347984D01*
X3293991Y-11138460D02*
X3122563Y-11395603D01*
X3551134Y-11147984D02*
X3570182Y-11147984D01*
X3570182Y-11147984D02*
X3589229Y-11157508D01*
X3589229Y-11157508D02*
X3598753Y-11167031D01*
X3598753Y-11167031D02*
X3608277Y-11186079D01*
X3608277Y-11186079D02*
X3617801Y-11224174D01*
X3617801Y-11224174D02*
X3617801Y-11271793D01*
X3617801Y-11271793D02*
X3608277Y-11309888D01*
X3608277Y-11309888D02*
X3598753Y-11328936D01*
X3598753Y-11328936D02*
X3589229Y-11338460D01*
X3589229Y-11338460D02*
X3570182Y-11347984D01*
X3570182Y-11347984D02*
X3551134Y-11347984D01*
X3551134Y-11347984D02*
X3532086Y-11338460D01*
X3532086Y-11338460D02*
X3522563Y-11328936D01*
X3522563Y-11328936D02*
X3513039Y-11309888D01*
X3513039Y-11309888D02*
X3503515Y-11271793D01*
X3503515Y-11271793D02*
X3503515Y-11224174D01*
X3503515Y-11224174D02*
X3513039Y-11186079D01*
X3513039Y-11186079D02*
X3522563Y-11167031D01*
X3522563Y-11167031D02*
X3532086Y-11157508D01*
X3532086Y-11157508D02*
X3551134Y-11147984D01*
X3703515Y-11328936D02*
X3713039Y-11338460D01*
X3713039Y-11338460D02*
X3703515Y-11347984D01*
X3703515Y-11347984D02*
X3693991Y-11338460D01*
X3693991Y-11338460D02*
X3703515Y-11328936D01*
X3703515Y-11328936D02*
X3703515Y-11347984D01*
X3836848Y-11147984D02*
X3855896Y-11147984D01*
X3855896Y-11147984D02*
X3874944Y-11157508D01*
X3874944Y-11157508D02*
X3884467Y-11167031D01*
X3884467Y-11167031D02*
X3893991Y-11186079D01*
X3893991Y-11186079D02*
X3903515Y-11224174D01*
X3903515Y-11224174D02*
X3903515Y-11271793D01*
X3903515Y-11271793D02*
X3893991Y-11309888D01*
X3893991Y-11309888D02*
X3884467Y-11328936D01*
X3884467Y-11328936D02*
X3874944Y-11338460D01*
X3874944Y-11338460D02*
X3855896Y-11347984D01*
X3855896Y-11347984D02*
X3836848Y-11347984D01*
X3836848Y-11347984D02*
X3817801Y-11338460D01*
X3817801Y-11338460D02*
X3808277Y-11328936D01*
X3808277Y-11328936D02*
X3798753Y-11309888D01*
X3798753Y-11309888D02*
X3789229Y-11271793D01*
X3789229Y-11271793D02*
X3789229Y-11224174D01*
X3789229Y-11224174D02*
X3798753Y-11186079D01*
X3798753Y-11186079D02*
X3808277Y-11167031D01*
X3808277Y-11167031D02*
X3817801Y-11157508D01*
X3817801Y-11157508D02*
X3836848Y-11147984D01*
X4093991Y-11347984D02*
X3979706Y-11347984D01*
X4036848Y-11347984D02*
X4036848Y-11147984D01*
X4036848Y-11147984D02*
X4017801Y-11176555D01*
X4017801Y-11176555D02*
X3998753Y-11195603D01*
X3998753Y-11195603D02*
X3979706Y-11205127D01*
X4274944Y-11147984D02*
X4179706Y-11147984D01*
X4179706Y-11147984D02*
X4170182Y-11243222D01*
X4170182Y-11243222D02*
X4179706Y-11233698D01*
X4179706Y-11233698D02*
X4198753Y-11224174D01*
X4198753Y-11224174D02*
X4246372Y-11224174D01*
X4246372Y-11224174D02*
X4265420Y-11233698D01*
X4265420Y-11233698D02*
X4274944Y-11243222D01*
X4274944Y-11243222D02*
X4284468Y-11262269D01*
X4284468Y-11262269D02*
X4284468Y-11309888D01*
X4284468Y-11309888D02*
X4274944Y-11328936D01*
X4274944Y-11328936D02*
X4265420Y-11338460D01*
X4265420Y-11338460D02*
X4246372Y-11347984D01*
X4246372Y-11347984D02*
X4198753Y-11347984D01*
X4198753Y-11347984D02*
X4179706Y-11338460D01*
X4179706Y-11338460D02*
X4170182Y-11328936D01*
X4351134Y-11147984D02*
X4484468Y-11147984D01*
X4484468Y-11147984D02*
X4398753Y-11347984D01*
X4551134Y-11147984D02*
X4551134Y-11186079D01*
X4627325Y-11147984D02*
X4627325Y-11186079D01*
X4922563Y-11424174D02*
X4913039Y-11414650D01*
X4913039Y-11414650D02*
X4893991Y-11386079D01*
X4893991Y-11386079D02*
X4884468Y-11367031D01*
X4884468Y-11367031D02*
X4874944Y-11338460D01*
X4874944Y-11338460D02*
X4865420Y-11290841D01*
X4865420Y-11290841D02*
X4865420Y-11252746D01*
X4865420Y-11252746D02*
X4874944Y-11205127D01*
X4874944Y-11205127D02*
X4884468Y-11176555D01*
X4884468Y-11176555D02*
X4893991Y-11157508D01*
X4893991Y-11157508D02*
X4913039Y-11128936D01*
X4913039Y-11128936D02*
X4922563Y-11119412D01*
X5103515Y-11347984D02*
X4989230Y-11347984D01*
X5046372Y-11347984D02*
X5046372Y-11147984D01*
X5046372Y-11147984D02*
X5027325Y-11176555D01*
X5027325Y-11176555D02*
X5008277Y-11195603D01*
X5008277Y-11195603D02*
X4989230Y-11205127D01*
X5274944Y-11147984D02*
X5236849Y-11147984D01*
X5236849Y-11147984D02*
X5217801Y-11157508D01*
X5217801Y-11157508D02*
X5208277Y-11167031D01*
X5208277Y-11167031D02*
X5189230Y-11195603D01*
X5189230Y-11195603D02*
X5179706Y-11233698D01*
X5179706Y-11233698D02*
X5179706Y-11309888D01*
X5179706Y-11309888D02*
X5189230Y-11328936D01*
X5189230Y-11328936D02*
X5198753Y-11338460D01*
X5198753Y-11338460D02*
X5217801Y-11347984D01*
X5217801Y-11347984D02*
X5255896Y-11347984D01*
X5255896Y-11347984D02*
X5274944Y-11338460D01*
X5274944Y-11338460D02*
X5284468Y-11328936D01*
X5284468Y-11328936D02*
X5293991Y-11309888D01*
X5293991Y-11309888D02*
X5293991Y-11262269D01*
X5293991Y-11262269D02*
X5284468Y-11243222D01*
X5284468Y-11243222D02*
X5274944Y-11233698D01*
X5274944Y-11233698D02*
X5255896Y-11224174D01*
X5255896Y-11224174D02*
X5217801Y-11224174D01*
X5217801Y-11224174D02*
X5198753Y-11233698D01*
X5198753Y-11233698D02*
X5189230Y-11243222D01*
X5189230Y-11243222D02*
X5179706Y-11262269D01*
X5465420Y-11214650D02*
X5465420Y-11347984D01*
X5417801Y-11138460D02*
X5370182Y-11281317D01*
X5370182Y-11281317D02*
X5493991Y-11281317D01*
X5722563Y-11347984D02*
X5722563Y-11147984D01*
X5808277Y-11347984D02*
X5808277Y-11243222D01*
X5808277Y-11243222D02*
X5798753Y-11224174D01*
X5798753Y-11224174D02*
X5779706Y-11214650D01*
X5779706Y-11214650D02*
X5751134Y-11214650D01*
X5751134Y-11214650D02*
X5732087Y-11224174D01*
X5732087Y-11224174D02*
X5722563Y-11233698D01*
X5932087Y-11347984D02*
X5913039Y-11338460D01*
X5913039Y-11338460D02*
X5903515Y-11328936D01*
X5903515Y-11328936D02*
X5893991Y-11309888D01*
X5893991Y-11309888D02*
X5893991Y-11252746D01*
X5893991Y-11252746D02*
X5903515Y-11233698D01*
X5903515Y-11233698D02*
X5913039Y-11224174D01*
X5913039Y-11224174D02*
X5932087Y-11214650D01*
X5932087Y-11214650D02*
X5960658Y-11214650D01*
X5960658Y-11214650D02*
X5979706Y-11224174D01*
X5979706Y-11224174D02*
X5989230Y-11233698D01*
X5989230Y-11233698D02*
X5998753Y-11252746D01*
X5998753Y-11252746D02*
X5998753Y-11309888D01*
X5998753Y-11309888D02*
X5989230Y-11328936D01*
X5989230Y-11328936D02*
X5979706Y-11338460D01*
X5979706Y-11338460D02*
X5960658Y-11347984D01*
X5960658Y-11347984D02*
X5932087Y-11347984D01*
X6113039Y-11347984D02*
X6093991Y-11338460D01*
X6093991Y-11338460D02*
X6084468Y-11319412D01*
X6084468Y-11319412D02*
X6084468Y-11147984D01*
X6265420Y-11338460D02*
X6246372Y-11347984D01*
X6246372Y-11347984D02*
X6208277Y-11347984D01*
X6208277Y-11347984D02*
X6189230Y-11338460D01*
X6189230Y-11338460D02*
X6179706Y-11319412D01*
X6179706Y-11319412D02*
X6179706Y-11243222D01*
X6179706Y-11243222D02*
X6189230Y-11224174D01*
X6189230Y-11224174D02*
X6208277Y-11214650D01*
X6208277Y-11214650D02*
X6246372Y-11214650D01*
X6246372Y-11214650D02*
X6265420Y-11224174D01*
X6265420Y-11224174D02*
X6274944Y-11243222D01*
X6274944Y-11243222D02*
X6274944Y-11262269D01*
X6274944Y-11262269D02*
X6179706Y-11281317D01*
X6351134Y-11338460D02*
X6370182Y-11347984D01*
X6370182Y-11347984D02*
X6408277Y-11347984D01*
X6408277Y-11347984D02*
X6427325Y-11338460D01*
X6427325Y-11338460D02*
X6436849Y-11319412D01*
X6436849Y-11319412D02*
X6436849Y-11309888D01*
X6436849Y-11309888D02*
X6427325Y-11290841D01*
X6427325Y-11290841D02*
X6408277Y-11281317D01*
X6408277Y-11281317D02*
X6379706Y-11281317D01*
X6379706Y-11281317D02*
X6360658Y-11271793D01*
X6360658Y-11271793D02*
X6351134Y-11252746D01*
X6351134Y-11252746D02*
X6351134Y-11243222D01*
X6351134Y-11243222D02*
X6360658Y-11224174D01*
X6360658Y-11224174D02*
X6379706Y-11214650D01*
X6379706Y-11214650D02*
X6408277Y-11214650D01*
X6408277Y-11214650D02*
X6427325Y-11224174D01*
X6503515Y-11424174D02*
X6513039Y-11414650D01*
X6513039Y-11414650D02*
X6532087Y-11386079D01*
X6532087Y-11386079D02*
X6541611Y-11367031D01*
X6541611Y-11367031D02*
X6551134Y-11338460D01*
X6551134Y-11338460D02*
X6560658Y-11290841D01*
X6560658Y-11290841D02*
X6560658Y-11252746D01*
X6560658Y-11252746D02*
X6551134Y-11205127D01*
X6551134Y-11205127D02*
X6541611Y-11176555D01*
X6541611Y-11176555D02*
X6532087Y-11157508D01*
X6532087Y-11157508D02*
X6513039Y-11128936D01*
X6513039Y-11128936D02*
X6503515Y-11119412D01*
D12*
X1312100Y-11485100D02*
X1312100Y-11555900D01*
X1276700Y-11520500D02*
X1347500Y-11520500D01*
D11*
X1646372Y-11411984D02*
X1665420Y-11411984D01*
X1665420Y-11411984D02*
X1684467Y-11421508D01*
X1684467Y-11421508D02*
X1693991Y-11431031D01*
X1693991Y-11431031D02*
X1703515Y-11450079D01*
X1703515Y-11450079D02*
X1713039Y-11488174D01*
X1713039Y-11488174D02*
X1713039Y-11535793D01*
X1713039Y-11535793D02*
X1703515Y-11573888D01*
X1703515Y-11573888D02*
X1693991Y-11592936D01*
X1693991Y-11592936D02*
X1684467Y-11602460D01*
X1684467Y-11602460D02*
X1665420Y-11611984D01*
X1665420Y-11611984D02*
X1646372Y-11611984D01*
X1646372Y-11611984D02*
X1627324Y-11602460D01*
X1627324Y-11602460D02*
X1617801Y-11592936D01*
X1617801Y-11592936D02*
X1608277Y-11573888D01*
X1608277Y-11573888D02*
X1598753Y-11535793D01*
X1598753Y-11535793D02*
X1598753Y-11488174D01*
X1598753Y-11488174D02*
X1608277Y-11450079D01*
X1608277Y-11450079D02*
X1617801Y-11431031D01*
X1617801Y-11431031D02*
X1627324Y-11421508D01*
X1627324Y-11421508D02*
X1646372Y-11411984D01*
X1798753Y-11592936D02*
X1808277Y-11602460D01*
X1808277Y-11602460D02*
X1798753Y-11611984D01*
X1798753Y-11611984D02*
X1789229Y-11602460D01*
X1789229Y-11602460D02*
X1798753Y-11592936D01*
X1798753Y-11592936D02*
X1798753Y-11611984D01*
X1874943Y-11411984D02*
X2008277Y-11411984D01*
X2008277Y-11411984D02*
X1922562Y-11611984D01*
X2122563Y-11411984D02*
X2141610Y-11411984D01*
X2141610Y-11411984D02*
X2160658Y-11421508D01*
X2160658Y-11421508D02*
X2170182Y-11431031D01*
X2170182Y-11431031D02*
X2179705Y-11450079D01*
X2179705Y-11450079D02*
X2189229Y-11488174D01*
X2189229Y-11488174D02*
X2189229Y-11535793D01*
X2189229Y-11535793D02*
X2179705Y-11573888D01*
X2179705Y-11573888D02*
X2170182Y-11592936D01*
X2170182Y-11592936D02*
X2160658Y-11602460D01*
X2160658Y-11602460D02*
X2141610Y-11611984D01*
X2141610Y-11611984D02*
X2122563Y-11611984D01*
X2122563Y-11611984D02*
X2103515Y-11602460D01*
X2103515Y-11602460D02*
X2093991Y-11592936D01*
X2093991Y-11592936D02*
X2084467Y-11573888D01*
X2084467Y-11573888D02*
X2074943Y-11535793D01*
X2074943Y-11535793D02*
X2074943Y-11488174D01*
X2074943Y-11488174D02*
X2084467Y-11450079D01*
X2084467Y-11450079D02*
X2093991Y-11431031D01*
X2093991Y-11431031D02*
X2103515Y-11421508D01*
X2103515Y-11421508D02*
X2122563Y-11411984D01*
X2303515Y-11497698D02*
X2284467Y-11488174D01*
X2284467Y-11488174D02*
X2274944Y-11478650D01*
X2274944Y-11478650D02*
X2265420Y-11459603D01*
X2265420Y-11459603D02*
X2265420Y-11450079D01*
X2265420Y-11450079D02*
X2274944Y-11431031D01*
X2274944Y-11431031D02*
X2284467Y-11421508D01*
X2284467Y-11421508D02*
X2303515Y-11411984D01*
X2303515Y-11411984D02*
X2341610Y-11411984D01*
X2341610Y-11411984D02*
X2360658Y-11421508D01*
X2360658Y-11421508D02*
X2370182Y-11431031D01*
X2370182Y-11431031D02*
X2379705Y-11450079D01*
X2379705Y-11450079D02*
X2379705Y-11459603D01*
X2379705Y-11459603D02*
X2370182Y-11478650D01*
X2370182Y-11478650D02*
X2360658Y-11488174D01*
X2360658Y-11488174D02*
X2341610Y-11497698D01*
X2341610Y-11497698D02*
X2303515Y-11497698D01*
X2303515Y-11497698D02*
X2284467Y-11507222D01*
X2284467Y-11507222D02*
X2274944Y-11516746D01*
X2274944Y-11516746D02*
X2265420Y-11535793D01*
X2265420Y-11535793D02*
X2265420Y-11573888D01*
X2265420Y-11573888D02*
X2274944Y-11592936D01*
X2274944Y-11592936D02*
X2284467Y-11602460D01*
X2284467Y-11602460D02*
X2303515Y-11611984D01*
X2303515Y-11611984D02*
X2341610Y-11611984D01*
X2341610Y-11611984D02*
X2360658Y-11602460D01*
X2360658Y-11602460D02*
X2370182Y-11592936D01*
X2370182Y-11592936D02*
X2379705Y-11573888D01*
X2379705Y-11573888D02*
X2379705Y-11535793D01*
X2379705Y-11535793D02*
X2370182Y-11516746D01*
X2370182Y-11516746D02*
X2360658Y-11507222D01*
X2360658Y-11507222D02*
X2341610Y-11497698D01*
X2465420Y-11611984D02*
X2465420Y-11478650D01*
X2465420Y-11497698D02*
X2474944Y-11488174D01*
X2474944Y-11488174D02*
X2493991Y-11478650D01*
X2493991Y-11478650D02*
X2522563Y-11478650D01*
X2522563Y-11478650D02*
X2541610Y-11488174D01*
X2541610Y-11488174D02*
X2551134Y-11507222D01*
X2551134Y-11507222D02*
X2551134Y-11611984D01*
X2551134Y-11507222D02*
X2560658Y-11488174D01*
X2560658Y-11488174D02*
X2579705Y-11478650D01*
X2579705Y-11478650D02*
X2608277Y-11478650D01*
X2608277Y-11478650D02*
X2627325Y-11488174D01*
X2627325Y-11488174D02*
X2636848Y-11507222D01*
X2636848Y-11507222D02*
X2636848Y-11611984D01*
X2732086Y-11611984D02*
X2732086Y-11478650D01*
X2732086Y-11497698D02*
X2741610Y-11488174D01*
X2741610Y-11488174D02*
X2760658Y-11478650D01*
X2760658Y-11478650D02*
X2789229Y-11478650D01*
X2789229Y-11478650D02*
X2808277Y-11488174D01*
X2808277Y-11488174D02*
X2817801Y-11507222D01*
X2817801Y-11507222D02*
X2817801Y-11611984D01*
X2817801Y-11507222D02*
X2827324Y-11488174D01*
X2827324Y-11488174D02*
X2846372Y-11478650D01*
X2846372Y-11478650D02*
X2874943Y-11478650D01*
X2874943Y-11478650D02*
X2893991Y-11488174D01*
X2893991Y-11488174D02*
X2903515Y-11507222D01*
X2903515Y-11507222D02*
X2903515Y-11611984D01*
X3293991Y-11402460D02*
X3122563Y-11659603D01*
X3551134Y-11411984D02*
X3570182Y-11411984D01*
X3570182Y-11411984D02*
X3589229Y-11421508D01*
X3589229Y-11421508D02*
X3598753Y-11431031D01*
X3598753Y-11431031D02*
X3608277Y-11450079D01*
X3608277Y-11450079D02*
X3617801Y-11488174D01*
X3617801Y-11488174D02*
X3617801Y-11535793D01*
X3617801Y-11535793D02*
X3608277Y-11573888D01*
X3608277Y-11573888D02*
X3598753Y-11592936D01*
X3598753Y-11592936D02*
X3589229Y-11602460D01*
X3589229Y-11602460D02*
X3570182Y-11611984D01*
X3570182Y-11611984D02*
X3551134Y-11611984D01*
X3551134Y-11611984D02*
X3532086Y-11602460D01*
X3532086Y-11602460D02*
X3522563Y-11592936D01*
X3522563Y-11592936D02*
X3513039Y-11573888D01*
X3513039Y-11573888D02*
X3503515Y-11535793D01*
X3503515Y-11535793D02*
X3503515Y-11488174D01*
X3503515Y-11488174D02*
X3513039Y-11450079D01*
X3513039Y-11450079D02*
X3522563Y-11431031D01*
X3522563Y-11431031D02*
X3532086Y-11421508D01*
X3532086Y-11421508D02*
X3551134Y-11411984D01*
X3703515Y-11592936D02*
X3713039Y-11602460D01*
X3713039Y-11602460D02*
X3703515Y-11611984D01*
X3703515Y-11611984D02*
X3693991Y-11602460D01*
X3693991Y-11602460D02*
X3703515Y-11592936D01*
X3703515Y-11592936D02*
X3703515Y-11611984D01*
X3836848Y-11411984D02*
X3855896Y-11411984D01*
X3855896Y-11411984D02*
X3874944Y-11421508D01*
X3874944Y-11421508D02*
X3884467Y-11431031D01*
X3884467Y-11431031D02*
X3893991Y-11450079D01*
X3893991Y-11450079D02*
X3903515Y-11488174D01*
X3903515Y-11488174D02*
X3903515Y-11535793D01*
X3903515Y-11535793D02*
X3893991Y-11573888D01*
X3893991Y-11573888D02*
X3884467Y-11592936D01*
X3884467Y-11592936D02*
X3874944Y-11602460D01*
X3874944Y-11602460D02*
X3855896Y-11611984D01*
X3855896Y-11611984D02*
X3836848Y-11611984D01*
X3836848Y-11611984D02*
X3817801Y-11602460D01*
X3817801Y-11602460D02*
X3808277Y-11592936D01*
X3808277Y-11592936D02*
X3798753Y-11573888D01*
X3798753Y-11573888D02*
X3789229Y-11535793D01*
X3789229Y-11535793D02*
X3789229Y-11488174D01*
X3789229Y-11488174D02*
X3798753Y-11450079D01*
X3798753Y-11450079D02*
X3808277Y-11431031D01*
X3808277Y-11431031D02*
X3817801Y-11421508D01*
X3817801Y-11421508D02*
X3836848Y-11411984D01*
X3979706Y-11431031D02*
X3989229Y-11421508D01*
X3989229Y-11421508D02*
X4008277Y-11411984D01*
X4008277Y-11411984D02*
X4055896Y-11411984D01*
X4055896Y-11411984D02*
X4074944Y-11421508D01*
X4074944Y-11421508D02*
X4084467Y-11431031D01*
X4084467Y-11431031D02*
X4093991Y-11450079D01*
X4093991Y-11450079D02*
X4093991Y-11469127D01*
X4093991Y-11469127D02*
X4084467Y-11497698D01*
X4084467Y-11497698D02*
X3970182Y-11611984D01*
X3970182Y-11611984D02*
X4093991Y-11611984D01*
X4160658Y-11411984D02*
X4293991Y-11411984D01*
X4293991Y-11411984D02*
X4208277Y-11611984D01*
X4379706Y-11611984D02*
X4417801Y-11611984D01*
X4417801Y-11611984D02*
X4436849Y-11602460D01*
X4436849Y-11602460D02*
X4446372Y-11592936D01*
X4446372Y-11592936D02*
X4465420Y-11564365D01*
X4465420Y-11564365D02*
X4474944Y-11526269D01*
X4474944Y-11526269D02*
X4474944Y-11450079D01*
X4474944Y-11450079D02*
X4465420Y-11431031D01*
X4465420Y-11431031D02*
X4455896Y-11421508D01*
X4455896Y-11421508D02*
X4436849Y-11411984D01*
X4436849Y-11411984D02*
X4398753Y-11411984D01*
X4398753Y-11411984D02*
X4379706Y-11421508D01*
X4379706Y-11421508D02*
X4370182Y-11431031D01*
X4370182Y-11431031D02*
X4360658Y-11450079D01*
X4360658Y-11450079D02*
X4360658Y-11497698D01*
X4360658Y-11497698D02*
X4370182Y-11516746D01*
X4370182Y-11516746D02*
X4379706Y-11526269D01*
X4379706Y-11526269D02*
X4398753Y-11535793D01*
X4398753Y-11535793D02*
X4436849Y-11535793D01*
X4436849Y-11535793D02*
X4455896Y-11526269D01*
X4455896Y-11526269D02*
X4465420Y-11516746D01*
X4465420Y-11516746D02*
X4474944Y-11497698D01*
X4551134Y-11411984D02*
X4551134Y-11450079D01*
X4627325Y-11411984D02*
X4627325Y-11450079D01*
X4922563Y-11688174D02*
X4913039Y-11678650D01*
X4913039Y-11678650D02*
X4893991Y-11650079D01*
X4893991Y-11650079D02*
X4884468Y-11631031D01*
X4884468Y-11631031D02*
X4874944Y-11602460D01*
X4874944Y-11602460D02*
X4865420Y-11554841D01*
X4865420Y-11554841D02*
X4865420Y-11516746D01*
X4865420Y-11516746D02*
X4874944Y-11469127D01*
X4874944Y-11469127D02*
X4884468Y-11440555D01*
X4884468Y-11440555D02*
X4893991Y-11421508D01*
X4893991Y-11421508D02*
X4913039Y-11392936D01*
X4913039Y-11392936D02*
X4922563Y-11383412D01*
X5084468Y-11411984D02*
X5046372Y-11411984D01*
X5046372Y-11411984D02*
X5027325Y-11421508D01*
X5027325Y-11421508D02*
X5017801Y-11431031D01*
X5017801Y-11431031D02*
X4998753Y-11459603D01*
X4998753Y-11459603D02*
X4989230Y-11497698D01*
X4989230Y-11497698D02*
X4989230Y-11573888D01*
X4989230Y-11573888D02*
X4998753Y-11592936D01*
X4998753Y-11592936D02*
X5008277Y-11602460D01*
X5008277Y-11602460D02*
X5027325Y-11611984D01*
X5027325Y-11611984D02*
X5065420Y-11611984D01*
X5065420Y-11611984D02*
X5084468Y-11602460D01*
X5084468Y-11602460D02*
X5093991Y-11592936D01*
X5093991Y-11592936D02*
X5103515Y-11573888D01*
X5103515Y-11573888D02*
X5103515Y-11526269D01*
X5103515Y-11526269D02*
X5093991Y-11507222D01*
X5093991Y-11507222D02*
X5084468Y-11497698D01*
X5084468Y-11497698D02*
X5065420Y-11488174D01*
X5065420Y-11488174D02*
X5027325Y-11488174D01*
X5027325Y-11488174D02*
X5008277Y-11497698D01*
X5008277Y-11497698D02*
X4998753Y-11507222D01*
X4998753Y-11507222D02*
X4989230Y-11526269D01*
X5341611Y-11611984D02*
X5341611Y-11411984D01*
X5427325Y-11611984D02*
X5427325Y-11507222D01*
X5427325Y-11507222D02*
X5417801Y-11488174D01*
X5417801Y-11488174D02*
X5398753Y-11478650D01*
X5398753Y-11478650D02*
X5370182Y-11478650D01*
X5370182Y-11478650D02*
X5351134Y-11488174D01*
X5351134Y-11488174D02*
X5341611Y-11497698D01*
X5551134Y-11611984D02*
X5532087Y-11602460D01*
X5532087Y-11602460D02*
X5522563Y-11592936D01*
X5522563Y-11592936D02*
X5513039Y-11573888D01*
X5513039Y-11573888D02*
X5513039Y-11516746D01*
X5513039Y-11516746D02*
X5522563Y-11497698D01*
X5522563Y-11497698D02*
X5532087Y-11488174D01*
X5532087Y-11488174D02*
X5551134Y-11478650D01*
X5551134Y-11478650D02*
X5579706Y-11478650D01*
X5579706Y-11478650D02*
X5598753Y-11488174D01*
X5598753Y-11488174D02*
X5608277Y-11497698D01*
X5608277Y-11497698D02*
X5617801Y-11516746D01*
X5617801Y-11516746D02*
X5617801Y-11573888D01*
X5617801Y-11573888D02*
X5608277Y-11592936D01*
X5608277Y-11592936D02*
X5598753Y-11602460D01*
X5598753Y-11602460D02*
X5579706Y-11611984D01*
X5579706Y-11611984D02*
X5551134Y-11611984D01*
X5732087Y-11611984D02*
X5713039Y-11602460D01*
X5713039Y-11602460D02*
X5703515Y-11583412D01*
X5703515Y-11583412D02*
X5703515Y-11411984D01*
X5884468Y-11602460D02*
X5865420Y-11611984D01*
X5865420Y-11611984D02*
X5827325Y-11611984D01*
X5827325Y-11611984D02*
X5808277Y-11602460D01*
X5808277Y-11602460D02*
X5798753Y-11583412D01*
X5798753Y-11583412D02*
X5798753Y-11507222D01*
X5798753Y-11507222D02*
X5808277Y-11488174D01*
X5808277Y-11488174D02*
X5827325Y-11478650D01*
X5827325Y-11478650D02*
X5865420Y-11478650D01*
X5865420Y-11478650D02*
X5884468Y-11488174D01*
X5884468Y-11488174D02*
X5893991Y-11507222D01*
X5893991Y-11507222D02*
X5893991Y-11526269D01*
X5893991Y-11526269D02*
X5798753Y-11545317D01*
X5970182Y-11602460D02*
X5989230Y-11611984D01*
X5989230Y-11611984D02*
X6027325Y-11611984D01*
X6027325Y-11611984D02*
X6046372Y-11602460D01*
X6046372Y-11602460D02*
X6055896Y-11583412D01*
X6055896Y-11583412D02*
X6055896Y-11573888D01*
X6055896Y-11573888D02*
X6046372Y-11554841D01*
X6046372Y-11554841D02*
X6027325Y-11545317D01*
X6027325Y-11545317D02*
X5998753Y-11545317D01*
X5998753Y-11545317D02*
X5979706Y-11535793D01*
X5979706Y-11535793D02*
X5970182Y-11516746D01*
X5970182Y-11516746D02*
X5970182Y-11507222D01*
X5970182Y-11507222D02*
X5979706Y-11488174D01*
X5979706Y-11488174D02*
X5998753Y-11478650D01*
X5998753Y-11478650D02*
X6027325Y-11478650D01*
X6027325Y-11478650D02*
X6046372Y-11488174D01*
X6122563Y-11688174D02*
X6132087Y-11678650D01*
X6132087Y-11678650D02*
X6151134Y-11650079D01*
X6151134Y-11650079D02*
X6160658Y-11631031D01*
X6160658Y-11631031D02*
X6170182Y-11602460D01*
X6170182Y-11602460D02*
X6179706Y-11554841D01*
X6179706Y-11554841D02*
X6179706Y-11516746D01*
X6179706Y-11516746D02*
X6170182Y-11469127D01*
X6170182Y-11469127D02*
X6160658Y-11440555D01*
X6160658Y-11440555D02*
X6151134Y-11421508D01*
X6151134Y-11421508D02*
X6132087Y-11392936D01*
X6132087Y-11392936D02*
X6122563Y-11383412D01*
D12*
X1336341Y-11811441D02*
X1336341Y-11757559D01*
X1282459Y-11757559D01*
X1282459Y-11811441D01*
X1336341Y-11811441D01*
D11*
X1646372Y-11675984D02*
X1665420Y-11675984D01*
X1665420Y-11675984D02*
X1684467Y-11685508D01*
X1684467Y-11685508D02*
X1693991Y-11695031D01*
X1693991Y-11695031D02*
X1703515Y-11714079D01*
X1703515Y-11714079D02*
X1713039Y-11752174D01*
X1713039Y-11752174D02*
X1713039Y-11799793D01*
X1713039Y-11799793D02*
X1703515Y-11837888D01*
X1703515Y-11837888D02*
X1693991Y-11856936D01*
X1693991Y-11856936D02*
X1684467Y-11866460D01*
X1684467Y-11866460D02*
X1665420Y-11875984D01*
X1665420Y-11875984D02*
X1646372Y-11875984D01*
X1646372Y-11875984D02*
X1627324Y-11866460D01*
X1627324Y-11866460D02*
X1617801Y-11856936D01*
X1617801Y-11856936D02*
X1608277Y-11837888D01*
X1608277Y-11837888D02*
X1598753Y-11799793D01*
X1598753Y-11799793D02*
X1598753Y-11752174D01*
X1598753Y-11752174D02*
X1608277Y-11714079D01*
X1608277Y-11714079D02*
X1617801Y-11695031D01*
X1617801Y-11695031D02*
X1627324Y-11685508D01*
X1627324Y-11685508D02*
X1646372Y-11675984D01*
X1798753Y-11856936D02*
X1808277Y-11866460D01*
X1808277Y-11866460D02*
X1798753Y-11875984D01*
X1798753Y-11875984D02*
X1789229Y-11866460D01*
X1789229Y-11866460D02*
X1798753Y-11856936D01*
X1798753Y-11856936D02*
X1798753Y-11875984D01*
X1874943Y-11675984D02*
X2008277Y-11675984D01*
X2008277Y-11675984D02*
X1922562Y-11875984D01*
X2170182Y-11675984D02*
X2132086Y-11675984D01*
X2132086Y-11675984D02*
X2113039Y-11685508D01*
X2113039Y-11685508D02*
X2103515Y-11695031D01*
X2103515Y-11695031D02*
X2084467Y-11723603D01*
X2084467Y-11723603D02*
X2074943Y-11761698D01*
X2074943Y-11761698D02*
X2074943Y-11837888D01*
X2074943Y-11837888D02*
X2084467Y-11856936D01*
X2084467Y-11856936D02*
X2093991Y-11866460D01*
X2093991Y-11866460D02*
X2113039Y-11875984D01*
X2113039Y-11875984D02*
X2151134Y-11875984D01*
X2151134Y-11875984D02*
X2170182Y-11866460D01*
X2170182Y-11866460D02*
X2179705Y-11856936D01*
X2179705Y-11856936D02*
X2189229Y-11837888D01*
X2189229Y-11837888D02*
X2189229Y-11790269D01*
X2189229Y-11790269D02*
X2179705Y-11771222D01*
X2179705Y-11771222D02*
X2170182Y-11761698D01*
X2170182Y-11761698D02*
X2151134Y-11752174D01*
X2151134Y-11752174D02*
X2113039Y-11752174D01*
X2113039Y-11752174D02*
X2093991Y-11761698D01*
X2093991Y-11761698D02*
X2084467Y-11771222D01*
X2084467Y-11771222D02*
X2074943Y-11790269D01*
X2265420Y-11695031D02*
X2274944Y-11685508D01*
X2274944Y-11685508D02*
X2293991Y-11675984D01*
X2293991Y-11675984D02*
X2341610Y-11675984D01*
X2341610Y-11675984D02*
X2360658Y-11685508D01*
X2360658Y-11685508D02*
X2370182Y-11695031D01*
X2370182Y-11695031D02*
X2379705Y-11714079D01*
X2379705Y-11714079D02*
X2379705Y-11733127D01*
X2379705Y-11733127D02*
X2370182Y-11761698D01*
X2370182Y-11761698D02*
X2255896Y-11875984D01*
X2255896Y-11875984D02*
X2379705Y-11875984D01*
X2465420Y-11875984D02*
X2465420Y-11742650D01*
X2465420Y-11761698D02*
X2474944Y-11752174D01*
X2474944Y-11752174D02*
X2493991Y-11742650D01*
X2493991Y-11742650D02*
X2522563Y-11742650D01*
X2522563Y-11742650D02*
X2541610Y-11752174D01*
X2541610Y-11752174D02*
X2551134Y-11771222D01*
X2551134Y-11771222D02*
X2551134Y-11875984D01*
X2551134Y-11771222D02*
X2560658Y-11752174D01*
X2560658Y-11752174D02*
X2579705Y-11742650D01*
X2579705Y-11742650D02*
X2608277Y-11742650D01*
X2608277Y-11742650D02*
X2627325Y-11752174D01*
X2627325Y-11752174D02*
X2636848Y-11771222D01*
X2636848Y-11771222D02*
X2636848Y-11875984D01*
X2732086Y-11875984D02*
X2732086Y-11742650D01*
X2732086Y-11761698D02*
X2741610Y-11752174D01*
X2741610Y-11752174D02*
X2760658Y-11742650D01*
X2760658Y-11742650D02*
X2789229Y-11742650D01*
X2789229Y-11742650D02*
X2808277Y-11752174D01*
X2808277Y-11752174D02*
X2817801Y-11771222D01*
X2817801Y-11771222D02*
X2817801Y-11875984D01*
X2817801Y-11771222D02*
X2827324Y-11752174D01*
X2827324Y-11752174D02*
X2846372Y-11742650D01*
X2846372Y-11742650D02*
X2874943Y-11742650D01*
X2874943Y-11742650D02*
X2893991Y-11752174D01*
X2893991Y-11752174D02*
X2903515Y-11771222D01*
X2903515Y-11771222D02*
X2903515Y-11875984D01*
X3293991Y-11666460D02*
X3122563Y-11923603D01*
X3551134Y-11675984D02*
X3570182Y-11675984D01*
X3570182Y-11675984D02*
X3589229Y-11685508D01*
X3589229Y-11685508D02*
X3598753Y-11695031D01*
X3598753Y-11695031D02*
X3608277Y-11714079D01*
X3608277Y-11714079D02*
X3617801Y-11752174D01*
X3617801Y-11752174D02*
X3617801Y-11799793D01*
X3617801Y-11799793D02*
X3608277Y-11837888D01*
X3608277Y-11837888D02*
X3598753Y-11856936D01*
X3598753Y-11856936D02*
X3589229Y-11866460D01*
X3589229Y-11866460D02*
X3570182Y-11875984D01*
X3570182Y-11875984D02*
X3551134Y-11875984D01*
X3551134Y-11875984D02*
X3532086Y-11866460D01*
X3532086Y-11866460D02*
X3522563Y-11856936D01*
X3522563Y-11856936D02*
X3513039Y-11837888D01*
X3513039Y-11837888D02*
X3503515Y-11799793D01*
X3503515Y-11799793D02*
X3503515Y-11752174D01*
X3503515Y-11752174D02*
X3513039Y-11714079D01*
X3513039Y-11714079D02*
X3522563Y-11695031D01*
X3522563Y-11695031D02*
X3532086Y-11685508D01*
X3532086Y-11685508D02*
X3551134Y-11675984D01*
X3703515Y-11856936D02*
X3713039Y-11866460D01*
X3713039Y-11866460D02*
X3703515Y-11875984D01*
X3703515Y-11875984D02*
X3693991Y-11866460D01*
X3693991Y-11866460D02*
X3703515Y-11856936D01*
X3703515Y-11856936D02*
X3703515Y-11875984D01*
X3836848Y-11675984D02*
X3855896Y-11675984D01*
X3855896Y-11675984D02*
X3874944Y-11685508D01*
X3874944Y-11685508D02*
X3884467Y-11695031D01*
X3884467Y-11695031D02*
X3893991Y-11714079D01*
X3893991Y-11714079D02*
X3903515Y-11752174D01*
X3903515Y-11752174D02*
X3903515Y-11799793D01*
X3903515Y-11799793D02*
X3893991Y-11837888D01*
X3893991Y-11837888D02*
X3884467Y-11856936D01*
X3884467Y-11856936D02*
X3874944Y-11866460D01*
X3874944Y-11866460D02*
X3855896Y-11875984D01*
X3855896Y-11875984D02*
X3836848Y-11875984D01*
X3836848Y-11875984D02*
X3817801Y-11866460D01*
X3817801Y-11866460D02*
X3808277Y-11856936D01*
X3808277Y-11856936D02*
X3798753Y-11837888D01*
X3798753Y-11837888D02*
X3789229Y-11799793D01*
X3789229Y-11799793D02*
X3789229Y-11752174D01*
X3789229Y-11752174D02*
X3798753Y-11714079D01*
X3798753Y-11714079D02*
X3808277Y-11695031D01*
X3808277Y-11695031D02*
X3817801Y-11685508D01*
X3817801Y-11685508D02*
X3836848Y-11675984D01*
X3970182Y-11675984D02*
X4093991Y-11675984D01*
X4093991Y-11675984D02*
X4027325Y-11752174D01*
X4027325Y-11752174D02*
X4055896Y-11752174D01*
X4055896Y-11752174D02*
X4074944Y-11761698D01*
X4074944Y-11761698D02*
X4084467Y-11771222D01*
X4084467Y-11771222D02*
X4093991Y-11790269D01*
X4093991Y-11790269D02*
X4093991Y-11837888D01*
X4093991Y-11837888D02*
X4084467Y-11856936D01*
X4084467Y-11856936D02*
X4074944Y-11866460D01*
X4074944Y-11866460D02*
X4055896Y-11875984D01*
X4055896Y-11875984D02*
X3998753Y-11875984D01*
X3998753Y-11875984D02*
X3979706Y-11866460D01*
X3979706Y-11866460D02*
X3970182Y-11856936D01*
X4217801Y-11675984D02*
X4236849Y-11675984D01*
X4236849Y-11675984D02*
X4255896Y-11685508D01*
X4255896Y-11685508D02*
X4265420Y-11695031D01*
X4265420Y-11695031D02*
X4274944Y-11714079D01*
X4274944Y-11714079D02*
X4284468Y-11752174D01*
X4284468Y-11752174D02*
X4284468Y-11799793D01*
X4284468Y-11799793D02*
X4274944Y-11837888D01*
X4274944Y-11837888D02*
X4265420Y-11856936D01*
X4265420Y-11856936D02*
X4255896Y-11866460D01*
X4255896Y-11866460D02*
X4236849Y-11875984D01*
X4236849Y-11875984D02*
X4217801Y-11875984D01*
X4217801Y-11875984D02*
X4198753Y-11866460D01*
X4198753Y-11866460D02*
X4189229Y-11856936D01*
X4189229Y-11856936D02*
X4179706Y-11837888D01*
X4179706Y-11837888D02*
X4170182Y-11799793D01*
X4170182Y-11799793D02*
X4170182Y-11752174D01*
X4170182Y-11752174D02*
X4179706Y-11714079D01*
X4179706Y-11714079D02*
X4189229Y-11695031D01*
X4189229Y-11695031D02*
X4198753Y-11685508D01*
X4198753Y-11685508D02*
X4217801Y-11675984D01*
X4408277Y-11675984D02*
X4427325Y-11675984D01*
X4427325Y-11675984D02*
X4446372Y-11685508D01*
X4446372Y-11685508D02*
X4455896Y-11695031D01*
X4455896Y-11695031D02*
X4465420Y-11714079D01*
X4465420Y-11714079D02*
X4474944Y-11752174D01*
X4474944Y-11752174D02*
X4474944Y-11799793D01*
X4474944Y-11799793D02*
X4465420Y-11837888D01*
X4465420Y-11837888D02*
X4455896Y-11856936D01*
X4455896Y-11856936D02*
X4446372Y-11866460D01*
X4446372Y-11866460D02*
X4427325Y-11875984D01*
X4427325Y-11875984D02*
X4408277Y-11875984D01*
X4408277Y-11875984D02*
X4389229Y-11866460D01*
X4389229Y-11866460D02*
X4379706Y-11856936D01*
X4379706Y-11856936D02*
X4370182Y-11837888D01*
X4370182Y-11837888D02*
X4360658Y-11799793D01*
X4360658Y-11799793D02*
X4360658Y-11752174D01*
X4360658Y-11752174D02*
X4370182Y-11714079D01*
X4370182Y-11714079D02*
X4379706Y-11695031D01*
X4379706Y-11695031D02*
X4389229Y-11685508D01*
X4389229Y-11685508D02*
X4408277Y-11675984D01*
X4551134Y-11675984D02*
X4551134Y-11714079D01*
X4627325Y-11675984D02*
X4627325Y-11714079D01*
X4922563Y-11952174D02*
X4913039Y-11942650D01*
X4913039Y-11942650D02*
X4893991Y-11914079D01*
X4893991Y-11914079D02*
X4884468Y-11895031D01*
X4884468Y-11895031D02*
X4874944Y-11866460D01*
X4874944Y-11866460D02*
X4865420Y-11818841D01*
X4865420Y-11818841D02*
X4865420Y-11780746D01*
X4865420Y-11780746D02*
X4874944Y-11733127D01*
X4874944Y-11733127D02*
X4884468Y-11704555D01*
X4884468Y-11704555D02*
X4893991Y-11685508D01*
X4893991Y-11685508D02*
X4913039Y-11656936D01*
X4913039Y-11656936D02*
X4922563Y-11647412D01*
X4989230Y-11695031D02*
X4998753Y-11685508D01*
X4998753Y-11685508D02*
X5017801Y-11675984D01*
X5017801Y-11675984D02*
X5065420Y-11675984D01*
X5065420Y-11675984D02*
X5084468Y-11685508D01*
X5084468Y-11685508D02*
X5093991Y-11695031D01*
X5093991Y-11695031D02*
X5103515Y-11714079D01*
X5103515Y-11714079D02*
X5103515Y-11733127D01*
X5103515Y-11733127D02*
X5093991Y-11761698D01*
X5093991Y-11761698D02*
X4979706Y-11875984D01*
X4979706Y-11875984D02*
X5103515Y-11875984D01*
X5217801Y-11761698D02*
X5198753Y-11752174D01*
X5198753Y-11752174D02*
X5189230Y-11742650D01*
X5189230Y-11742650D02*
X5179706Y-11723603D01*
X5179706Y-11723603D02*
X5179706Y-11714079D01*
X5179706Y-11714079D02*
X5189230Y-11695031D01*
X5189230Y-11695031D02*
X5198753Y-11685508D01*
X5198753Y-11685508D02*
X5217801Y-11675984D01*
X5217801Y-11675984D02*
X5255896Y-11675984D01*
X5255896Y-11675984D02*
X5274944Y-11685508D01*
X5274944Y-11685508D02*
X5284468Y-11695031D01*
X5284468Y-11695031D02*
X5293991Y-11714079D01*
X5293991Y-11714079D02*
X5293991Y-11723603D01*
X5293991Y-11723603D02*
X5284468Y-11742650D01*
X5284468Y-11742650D02*
X5274944Y-11752174D01*
X5274944Y-11752174D02*
X5255896Y-11761698D01*
X5255896Y-11761698D02*
X5217801Y-11761698D01*
X5217801Y-11761698D02*
X5198753Y-11771222D01*
X5198753Y-11771222D02*
X5189230Y-11780746D01*
X5189230Y-11780746D02*
X5179706Y-11799793D01*
X5179706Y-11799793D02*
X5179706Y-11837888D01*
X5179706Y-11837888D02*
X5189230Y-11856936D01*
X5189230Y-11856936D02*
X5198753Y-11866460D01*
X5198753Y-11866460D02*
X5217801Y-11875984D01*
X5217801Y-11875984D02*
X5255896Y-11875984D01*
X5255896Y-11875984D02*
X5274944Y-11866460D01*
X5274944Y-11866460D02*
X5284468Y-11856936D01*
X5284468Y-11856936D02*
X5293991Y-11837888D01*
X5293991Y-11837888D02*
X5293991Y-11799793D01*
X5293991Y-11799793D02*
X5284468Y-11780746D01*
X5284468Y-11780746D02*
X5274944Y-11771222D01*
X5274944Y-11771222D02*
X5255896Y-11761698D01*
X5532087Y-11875984D02*
X5532087Y-11675984D01*
X5617801Y-11875984D02*
X5617801Y-11771222D01*
X5617801Y-11771222D02*
X5608277Y-11752174D01*
X5608277Y-11752174D02*
X5589230Y-11742650D01*
X5589230Y-11742650D02*
X5560658Y-11742650D01*
X5560658Y-11742650D02*
X5541611Y-11752174D01*
X5541611Y-11752174D02*
X5532087Y-11761698D01*
X5741610Y-11875984D02*
X5722563Y-11866460D01*
X5722563Y-11866460D02*
X5713039Y-11856936D01*
X5713039Y-11856936D02*
X5703515Y-11837888D01*
X5703515Y-11837888D02*
X5703515Y-11780746D01*
X5703515Y-11780746D02*
X5713039Y-11761698D01*
X5713039Y-11761698D02*
X5722563Y-11752174D01*
X5722563Y-11752174D02*
X5741610Y-11742650D01*
X5741610Y-11742650D02*
X5770182Y-11742650D01*
X5770182Y-11742650D02*
X5789230Y-11752174D01*
X5789230Y-11752174D02*
X5798753Y-11761698D01*
X5798753Y-11761698D02*
X5808277Y-11780746D01*
X5808277Y-11780746D02*
X5808277Y-11837888D01*
X5808277Y-11837888D02*
X5798753Y-11856936D01*
X5798753Y-11856936D02*
X5789230Y-11866460D01*
X5789230Y-11866460D02*
X5770182Y-11875984D01*
X5770182Y-11875984D02*
X5741610Y-11875984D01*
X5922563Y-11875984D02*
X5903515Y-11866460D01*
X5903515Y-11866460D02*
X5893991Y-11847412D01*
X5893991Y-11847412D02*
X5893991Y-11675984D01*
X6074944Y-11866460D02*
X6055896Y-11875984D01*
X6055896Y-11875984D02*
X6017801Y-11875984D01*
X6017801Y-11875984D02*
X5998753Y-11866460D01*
X5998753Y-11866460D02*
X5989230Y-11847412D01*
X5989230Y-11847412D02*
X5989230Y-11771222D01*
X5989230Y-11771222D02*
X5998753Y-11752174D01*
X5998753Y-11752174D02*
X6017801Y-11742650D01*
X6017801Y-11742650D02*
X6055896Y-11742650D01*
X6055896Y-11742650D02*
X6074944Y-11752174D01*
X6074944Y-11752174D02*
X6084468Y-11771222D01*
X6084468Y-11771222D02*
X6084468Y-11790269D01*
X6084468Y-11790269D02*
X5989230Y-11809317D01*
X6160658Y-11866460D02*
X6179706Y-11875984D01*
X6179706Y-11875984D02*
X6217801Y-11875984D01*
X6217801Y-11875984D02*
X6236849Y-11866460D01*
X6236849Y-11866460D02*
X6246372Y-11847412D01*
X6246372Y-11847412D02*
X6246372Y-11837888D01*
X6246372Y-11837888D02*
X6236849Y-11818841D01*
X6236849Y-11818841D02*
X6217801Y-11809317D01*
X6217801Y-11809317D02*
X6189230Y-11809317D01*
X6189230Y-11809317D02*
X6170182Y-11799793D01*
X6170182Y-11799793D02*
X6160658Y-11780746D01*
X6160658Y-11780746D02*
X6160658Y-11771222D01*
X6160658Y-11771222D02*
X6170182Y-11752174D01*
X6170182Y-11752174D02*
X6189230Y-11742650D01*
X6189230Y-11742650D02*
X6217801Y-11742650D01*
X6217801Y-11742650D02*
X6236849Y-11752174D01*
X6313039Y-11952174D02*
X6322563Y-11942650D01*
X6322563Y-11942650D02*
X6341611Y-11914079D01*
X6341611Y-11914079D02*
X6351134Y-11895031D01*
X6351134Y-11895031D02*
X6360658Y-11866460D01*
X6360658Y-11866460D02*
X6370182Y-11818841D01*
X6370182Y-11818841D02*
X6370182Y-11780746D01*
X6370182Y-11780746D02*
X6360658Y-11733127D01*
X6360658Y-11733127D02*
X6351134Y-11704555D01*
X6351134Y-11704555D02*
X6341611Y-11685508D01*
X6341611Y-11685508D02*
X6322563Y-11656936D01*
X6322563Y-11656936D02*
X6313039Y-11647412D01*
D12*
X1297500Y-12098500D02*
X1347500Y-12048500D01*
X1297500Y-11998500D01*
X1247500Y-12048500D01*
X1297500Y-12098500D01*
D11*
X1713039Y-12139984D02*
X1598753Y-12139984D01*
X1655896Y-12139984D02*
X1655896Y-11939984D01*
X1655896Y-11939984D02*
X1636848Y-11968555D01*
X1636848Y-11968555D02*
X1617801Y-11987603D01*
X1617801Y-11987603D02*
X1598753Y-11997127D01*
X1798753Y-12120936D02*
X1808277Y-12130460D01*
X1808277Y-12130460D02*
X1798753Y-12139984D01*
X1798753Y-12139984D02*
X1789229Y-12130460D01*
X1789229Y-12130460D02*
X1798753Y-12120936D01*
X1798753Y-12120936D02*
X1798753Y-12139984D01*
X1932086Y-11939984D02*
X1951134Y-11939984D01*
X1951134Y-11939984D02*
X1970182Y-11949508D01*
X1970182Y-11949508D02*
X1979705Y-11959031D01*
X1979705Y-11959031D02*
X1989229Y-11978079D01*
X1989229Y-11978079D02*
X1998753Y-12016174D01*
X1998753Y-12016174D02*
X1998753Y-12063793D01*
X1998753Y-12063793D02*
X1989229Y-12101888D01*
X1989229Y-12101888D02*
X1979705Y-12120936D01*
X1979705Y-12120936D02*
X1970182Y-12130460D01*
X1970182Y-12130460D02*
X1951134Y-12139984D01*
X1951134Y-12139984D02*
X1932086Y-12139984D01*
X1932086Y-12139984D02*
X1913039Y-12130460D01*
X1913039Y-12130460D02*
X1903515Y-12120936D01*
X1903515Y-12120936D02*
X1893991Y-12101888D01*
X1893991Y-12101888D02*
X1884467Y-12063793D01*
X1884467Y-12063793D02*
X1884467Y-12016174D01*
X1884467Y-12016174D02*
X1893991Y-11978079D01*
X1893991Y-11978079D02*
X1903515Y-11959031D01*
X1903515Y-11959031D02*
X1913039Y-11949508D01*
X1913039Y-11949508D02*
X1932086Y-11939984D01*
X2122563Y-11939984D02*
X2141610Y-11939984D01*
X2141610Y-11939984D02*
X2160658Y-11949508D01*
X2160658Y-11949508D02*
X2170182Y-11959031D01*
X2170182Y-11959031D02*
X2179705Y-11978079D01*
X2179705Y-11978079D02*
X2189229Y-12016174D01*
X2189229Y-12016174D02*
X2189229Y-12063793D01*
X2189229Y-12063793D02*
X2179705Y-12101888D01*
X2179705Y-12101888D02*
X2170182Y-12120936D01*
X2170182Y-12120936D02*
X2160658Y-12130460D01*
X2160658Y-12130460D02*
X2141610Y-12139984D01*
X2141610Y-12139984D02*
X2122563Y-12139984D01*
X2122563Y-12139984D02*
X2103515Y-12130460D01*
X2103515Y-12130460D02*
X2093991Y-12120936D01*
X2093991Y-12120936D02*
X2084467Y-12101888D01*
X2084467Y-12101888D02*
X2074943Y-12063793D01*
X2074943Y-12063793D02*
X2074943Y-12016174D01*
X2074943Y-12016174D02*
X2084467Y-11978079D01*
X2084467Y-11978079D02*
X2093991Y-11959031D01*
X2093991Y-11959031D02*
X2103515Y-11949508D01*
X2103515Y-11949508D02*
X2122563Y-11939984D01*
X2313039Y-11939984D02*
X2332086Y-11939984D01*
X2332086Y-11939984D02*
X2351134Y-11949508D01*
X2351134Y-11949508D02*
X2360658Y-11959031D01*
X2360658Y-11959031D02*
X2370182Y-11978079D01*
X2370182Y-11978079D02*
X2379705Y-12016174D01*
X2379705Y-12016174D02*
X2379705Y-12063793D01*
X2379705Y-12063793D02*
X2370182Y-12101888D01*
X2370182Y-12101888D02*
X2360658Y-12120936D01*
X2360658Y-12120936D02*
X2351134Y-12130460D01*
X2351134Y-12130460D02*
X2332086Y-12139984D01*
X2332086Y-12139984D02*
X2313039Y-12139984D01*
X2313039Y-12139984D02*
X2293991Y-12130460D01*
X2293991Y-12130460D02*
X2284467Y-12120936D01*
X2284467Y-12120936D02*
X2274944Y-12101888D01*
X2274944Y-12101888D02*
X2265420Y-12063793D01*
X2265420Y-12063793D02*
X2265420Y-12016174D01*
X2265420Y-12016174D02*
X2274944Y-11978079D01*
X2274944Y-11978079D02*
X2284467Y-11959031D01*
X2284467Y-11959031D02*
X2293991Y-11949508D01*
X2293991Y-11949508D02*
X2313039Y-11939984D01*
X2465420Y-12139984D02*
X2465420Y-12006650D01*
X2465420Y-12025698D02*
X2474944Y-12016174D01*
X2474944Y-12016174D02*
X2493991Y-12006650D01*
X2493991Y-12006650D02*
X2522563Y-12006650D01*
X2522563Y-12006650D02*
X2541610Y-12016174D01*
X2541610Y-12016174D02*
X2551134Y-12035222D01*
X2551134Y-12035222D02*
X2551134Y-12139984D01*
X2551134Y-12035222D02*
X2560658Y-12016174D01*
X2560658Y-12016174D02*
X2579705Y-12006650D01*
X2579705Y-12006650D02*
X2608277Y-12006650D01*
X2608277Y-12006650D02*
X2627325Y-12016174D01*
X2627325Y-12016174D02*
X2636848Y-12035222D01*
X2636848Y-12035222D02*
X2636848Y-12139984D01*
X2732086Y-12139984D02*
X2732086Y-12006650D01*
X2732086Y-12025698D02*
X2741610Y-12016174D01*
X2741610Y-12016174D02*
X2760658Y-12006650D01*
X2760658Y-12006650D02*
X2789229Y-12006650D01*
X2789229Y-12006650D02*
X2808277Y-12016174D01*
X2808277Y-12016174D02*
X2817801Y-12035222D01*
X2817801Y-12035222D02*
X2817801Y-12139984D01*
X2817801Y-12035222D02*
X2827324Y-12016174D01*
X2827324Y-12016174D02*
X2846372Y-12006650D01*
X2846372Y-12006650D02*
X2874943Y-12006650D01*
X2874943Y-12006650D02*
X2893991Y-12016174D01*
X2893991Y-12016174D02*
X2903515Y-12035222D01*
X2903515Y-12035222D02*
X2903515Y-12139984D01*
X3293991Y-11930460D02*
X3122563Y-12187603D01*
X3551134Y-11939984D02*
X3570182Y-11939984D01*
X3570182Y-11939984D02*
X3589229Y-11949508D01*
X3589229Y-11949508D02*
X3598753Y-11959031D01*
X3598753Y-11959031D02*
X3608277Y-11978079D01*
X3608277Y-11978079D02*
X3617801Y-12016174D01*
X3617801Y-12016174D02*
X3617801Y-12063793D01*
X3617801Y-12063793D02*
X3608277Y-12101888D01*
X3608277Y-12101888D02*
X3598753Y-12120936D01*
X3598753Y-12120936D02*
X3589229Y-12130460D01*
X3589229Y-12130460D02*
X3570182Y-12139984D01*
X3570182Y-12139984D02*
X3551134Y-12139984D01*
X3551134Y-12139984D02*
X3532086Y-12130460D01*
X3532086Y-12130460D02*
X3522563Y-12120936D01*
X3522563Y-12120936D02*
X3513039Y-12101888D01*
X3513039Y-12101888D02*
X3503515Y-12063793D01*
X3503515Y-12063793D02*
X3503515Y-12016174D01*
X3503515Y-12016174D02*
X3513039Y-11978079D01*
X3513039Y-11978079D02*
X3522563Y-11959031D01*
X3522563Y-11959031D02*
X3532086Y-11949508D01*
X3532086Y-11949508D02*
X3551134Y-11939984D01*
X3703515Y-12120936D02*
X3713039Y-12130460D01*
X3713039Y-12130460D02*
X3703515Y-12139984D01*
X3703515Y-12139984D02*
X3693991Y-12130460D01*
X3693991Y-12130460D02*
X3703515Y-12120936D01*
X3703515Y-12120936D02*
X3703515Y-12139984D01*
X3836848Y-11939984D02*
X3855896Y-11939984D01*
X3855896Y-11939984D02*
X3874944Y-11949508D01*
X3874944Y-11949508D02*
X3884467Y-11959031D01*
X3884467Y-11959031D02*
X3893991Y-11978079D01*
X3893991Y-11978079D02*
X3903515Y-12016174D01*
X3903515Y-12016174D02*
X3903515Y-12063793D01*
X3903515Y-12063793D02*
X3893991Y-12101888D01*
X3893991Y-12101888D02*
X3884467Y-12120936D01*
X3884467Y-12120936D02*
X3874944Y-12130460D01*
X3874944Y-12130460D02*
X3855896Y-12139984D01*
X3855896Y-12139984D02*
X3836848Y-12139984D01*
X3836848Y-12139984D02*
X3817801Y-12130460D01*
X3817801Y-12130460D02*
X3808277Y-12120936D01*
X3808277Y-12120936D02*
X3798753Y-12101888D01*
X3798753Y-12101888D02*
X3789229Y-12063793D01*
X3789229Y-12063793D02*
X3789229Y-12016174D01*
X3789229Y-12016174D02*
X3798753Y-11978079D01*
X3798753Y-11978079D02*
X3808277Y-11959031D01*
X3808277Y-11959031D02*
X3817801Y-11949508D01*
X3817801Y-11949508D02*
X3836848Y-11939984D01*
X3970182Y-11939984D02*
X4093991Y-11939984D01*
X4093991Y-11939984D02*
X4027325Y-12016174D01*
X4027325Y-12016174D02*
X4055896Y-12016174D01*
X4055896Y-12016174D02*
X4074944Y-12025698D01*
X4074944Y-12025698D02*
X4084467Y-12035222D01*
X4084467Y-12035222D02*
X4093991Y-12054269D01*
X4093991Y-12054269D02*
X4093991Y-12101888D01*
X4093991Y-12101888D02*
X4084467Y-12120936D01*
X4084467Y-12120936D02*
X4074944Y-12130460D01*
X4074944Y-12130460D02*
X4055896Y-12139984D01*
X4055896Y-12139984D02*
X3998753Y-12139984D01*
X3998753Y-12139984D02*
X3979706Y-12130460D01*
X3979706Y-12130460D02*
X3970182Y-12120936D01*
X4189229Y-12139984D02*
X4227325Y-12139984D01*
X4227325Y-12139984D02*
X4246372Y-12130460D01*
X4246372Y-12130460D02*
X4255896Y-12120936D01*
X4255896Y-12120936D02*
X4274944Y-12092365D01*
X4274944Y-12092365D02*
X4284468Y-12054269D01*
X4284468Y-12054269D02*
X4284468Y-11978079D01*
X4284468Y-11978079D02*
X4274944Y-11959031D01*
X4274944Y-11959031D02*
X4265420Y-11949508D01*
X4265420Y-11949508D02*
X4246372Y-11939984D01*
X4246372Y-11939984D02*
X4208277Y-11939984D01*
X4208277Y-11939984D02*
X4189229Y-11949508D01*
X4189229Y-11949508D02*
X4179706Y-11959031D01*
X4179706Y-11959031D02*
X4170182Y-11978079D01*
X4170182Y-11978079D02*
X4170182Y-12025698D01*
X4170182Y-12025698D02*
X4179706Y-12044746D01*
X4179706Y-12044746D02*
X4189229Y-12054269D01*
X4189229Y-12054269D02*
X4208277Y-12063793D01*
X4208277Y-12063793D02*
X4246372Y-12063793D01*
X4246372Y-12063793D02*
X4265420Y-12054269D01*
X4265420Y-12054269D02*
X4274944Y-12044746D01*
X4274944Y-12044746D02*
X4284468Y-12025698D01*
X4455896Y-12006650D02*
X4455896Y-12139984D01*
X4408277Y-11930460D02*
X4360658Y-12073317D01*
X4360658Y-12073317D02*
X4484468Y-12073317D01*
X4551134Y-11939984D02*
X4551134Y-11978079D01*
X4627325Y-11939984D02*
X4627325Y-11978079D01*
X4922563Y-12216174D02*
X4913039Y-12206650D01*
X4913039Y-12206650D02*
X4893991Y-12178079D01*
X4893991Y-12178079D02*
X4884468Y-12159031D01*
X4884468Y-12159031D02*
X4874944Y-12130460D01*
X4874944Y-12130460D02*
X4865420Y-12082841D01*
X4865420Y-12082841D02*
X4865420Y-12044746D01*
X4865420Y-12044746D02*
X4874944Y-11997127D01*
X4874944Y-11997127D02*
X4884468Y-11968555D01*
X4884468Y-11968555D02*
X4893991Y-11949508D01*
X4893991Y-11949508D02*
X4913039Y-11920936D01*
X4913039Y-11920936D02*
X4922563Y-11911412D01*
X5103515Y-12139984D02*
X4989230Y-12139984D01*
X5046372Y-12139984D02*
X5046372Y-11939984D01*
X5046372Y-11939984D02*
X5027325Y-11968555D01*
X5027325Y-11968555D02*
X5008277Y-11987603D01*
X5008277Y-11987603D02*
X4989230Y-11997127D01*
X5170182Y-11939984D02*
X5293991Y-11939984D01*
X5293991Y-11939984D02*
X5227325Y-12016174D01*
X5227325Y-12016174D02*
X5255896Y-12016174D01*
X5255896Y-12016174D02*
X5274944Y-12025698D01*
X5274944Y-12025698D02*
X5284468Y-12035222D01*
X5284468Y-12035222D02*
X5293991Y-12054269D01*
X5293991Y-12054269D02*
X5293991Y-12101888D01*
X5293991Y-12101888D02*
X5284468Y-12120936D01*
X5284468Y-12120936D02*
X5274944Y-12130460D01*
X5274944Y-12130460D02*
X5255896Y-12139984D01*
X5255896Y-12139984D02*
X5198753Y-12139984D01*
X5198753Y-12139984D02*
X5179706Y-12130460D01*
X5179706Y-12130460D02*
X5170182Y-12120936D01*
X5532087Y-12139984D02*
X5532087Y-11939984D01*
X5617801Y-12139984D02*
X5617801Y-12035222D01*
X5617801Y-12035222D02*
X5608277Y-12016174D01*
X5608277Y-12016174D02*
X5589230Y-12006650D01*
X5589230Y-12006650D02*
X5560658Y-12006650D01*
X5560658Y-12006650D02*
X5541611Y-12016174D01*
X5541611Y-12016174D02*
X5532087Y-12025698D01*
X5741610Y-12139984D02*
X5722563Y-12130460D01*
X5722563Y-12130460D02*
X5713039Y-12120936D01*
X5713039Y-12120936D02*
X5703515Y-12101888D01*
X5703515Y-12101888D02*
X5703515Y-12044746D01*
X5703515Y-12044746D02*
X5713039Y-12025698D01*
X5713039Y-12025698D02*
X5722563Y-12016174D01*
X5722563Y-12016174D02*
X5741610Y-12006650D01*
X5741610Y-12006650D02*
X5770182Y-12006650D01*
X5770182Y-12006650D02*
X5789230Y-12016174D01*
X5789230Y-12016174D02*
X5798753Y-12025698D01*
X5798753Y-12025698D02*
X5808277Y-12044746D01*
X5808277Y-12044746D02*
X5808277Y-12101888D01*
X5808277Y-12101888D02*
X5798753Y-12120936D01*
X5798753Y-12120936D02*
X5789230Y-12130460D01*
X5789230Y-12130460D02*
X5770182Y-12139984D01*
X5770182Y-12139984D02*
X5741610Y-12139984D01*
X5922563Y-12139984D02*
X5903515Y-12130460D01*
X5903515Y-12130460D02*
X5893991Y-12111412D01*
X5893991Y-12111412D02*
X5893991Y-11939984D01*
X6074944Y-12130460D02*
X6055896Y-12139984D01*
X6055896Y-12139984D02*
X6017801Y-12139984D01*
X6017801Y-12139984D02*
X5998753Y-12130460D01*
X5998753Y-12130460D02*
X5989230Y-12111412D01*
X5989230Y-12111412D02*
X5989230Y-12035222D01*
X5989230Y-12035222D02*
X5998753Y-12016174D01*
X5998753Y-12016174D02*
X6017801Y-12006650D01*
X6017801Y-12006650D02*
X6055896Y-12006650D01*
X6055896Y-12006650D02*
X6074944Y-12016174D01*
X6074944Y-12016174D02*
X6084468Y-12035222D01*
X6084468Y-12035222D02*
X6084468Y-12054269D01*
X6084468Y-12054269D02*
X5989230Y-12073317D01*
X6160658Y-12130460D02*
X6179706Y-12139984D01*
X6179706Y-12139984D02*
X6217801Y-12139984D01*
X6217801Y-12139984D02*
X6236849Y-12130460D01*
X6236849Y-12130460D02*
X6246372Y-12111412D01*
X6246372Y-12111412D02*
X6246372Y-12101888D01*
X6246372Y-12101888D02*
X6236849Y-12082841D01*
X6236849Y-12082841D02*
X6217801Y-12073317D01*
X6217801Y-12073317D02*
X6189230Y-12073317D01*
X6189230Y-12073317D02*
X6170182Y-12063793D01*
X6170182Y-12063793D02*
X6160658Y-12044746D01*
X6160658Y-12044746D02*
X6160658Y-12035222D01*
X6160658Y-12035222D02*
X6170182Y-12016174D01*
X6170182Y-12016174D02*
X6189230Y-12006650D01*
X6189230Y-12006650D02*
X6217801Y-12006650D01*
X6217801Y-12006650D02*
X6236849Y-12016174D01*
X6313039Y-12216174D02*
X6322563Y-12206650D01*
X6322563Y-12206650D02*
X6341611Y-12178079D01*
X6341611Y-12178079D02*
X6351134Y-12159031D01*
X6351134Y-12159031D02*
X6360658Y-12130460D01*
X6360658Y-12130460D02*
X6370182Y-12082841D01*
X6370182Y-12082841D02*
X6370182Y-12044746D01*
X6370182Y-12044746D02*
X6360658Y-11997127D01*
X6360658Y-11997127D02*
X6351134Y-11968555D01*
X6351134Y-11968555D02*
X6341611Y-11949508D01*
X6341611Y-11949508D02*
X6322563Y-11920936D01*
X6322563Y-11920936D02*
X6313039Y-11911412D01*
D13*
X1162080Y-12219790D02*
X1347500Y-12405210D01*
X1347500Y-12219790D02*
X1162080Y-12405210D01*
X1347500Y-12312500D02*
G75*
G02*
X1162080Y-12312500I-92710J0D01*
G01*
X1162080Y-12312500D02*
G75*
G02*
X1347500Y-12312500I92710J0D01*
G01*
D11*
X1713039Y-12403984D02*
X1598753Y-12403984D01*
X1655896Y-12403984D02*
X1655896Y-12203984D01*
X1655896Y-12203984D02*
X1636848Y-12232555D01*
X1636848Y-12232555D02*
X1617801Y-12251603D01*
X1617801Y-12251603D02*
X1598753Y-12261127D01*
X1798753Y-12384936D02*
X1808277Y-12394460D01*
X1808277Y-12394460D02*
X1798753Y-12403984D01*
X1798753Y-12403984D02*
X1789229Y-12394460D01*
X1789229Y-12394460D02*
X1798753Y-12384936D01*
X1798753Y-12384936D02*
X1798753Y-12403984D01*
X1922562Y-12289698D02*
X1903515Y-12280174D01*
X1903515Y-12280174D02*
X1893991Y-12270650D01*
X1893991Y-12270650D02*
X1884467Y-12251603D01*
X1884467Y-12251603D02*
X1884467Y-12242079D01*
X1884467Y-12242079D02*
X1893991Y-12223031D01*
X1893991Y-12223031D02*
X1903515Y-12213508D01*
X1903515Y-12213508D02*
X1922562Y-12203984D01*
X1922562Y-12203984D02*
X1960658Y-12203984D01*
X1960658Y-12203984D02*
X1979705Y-12213508D01*
X1979705Y-12213508D02*
X1989229Y-12223031D01*
X1989229Y-12223031D02*
X1998753Y-12242079D01*
X1998753Y-12242079D02*
X1998753Y-12251603D01*
X1998753Y-12251603D02*
X1989229Y-12270650D01*
X1989229Y-12270650D02*
X1979705Y-12280174D01*
X1979705Y-12280174D02*
X1960658Y-12289698D01*
X1960658Y-12289698D02*
X1922562Y-12289698D01*
X1922562Y-12289698D02*
X1903515Y-12299222D01*
X1903515Y-12299222D02*
X1893991Y-12308746D01*
X1893991Y-12308746D02*
X1884467Y-12327793D01*
X1884467Y-12327793D02*
X1884467Y-12365888D01*
X1884467Y-12365888D02*
X1893991Y-12384936D01*
X1893991Y-12384936D02*
X1903515Y-12394460D01*
X1903515Y-12394460D02*
X1922562Y-12403984D01*
X1922562Y-12403984D02*
X1960658Y-12403984D01*
X1960658Y-12403984D02*
X1979705Y-12394460D01*
X1979705Y-12394460D02*
X1989229Y-12384936D01*
X1989229Y-12384936D02*
X1998753Y-12365888D01*
X1998753Y-12365888D02*
X1998753Y-12327793D01*
X1998753Y-12327793D02*
X1989229Y-12308746D01*
X1989229Y-12308746D02*
X1979705Y-12299222D01*
X1979705Y-12299222D02*
X1960658Y-12289698D01*
X2179705Y-12203984D02*
X2084467Y-12203984D01*
X2084467Y-12203984D02*
X2074943Y-12299222D01*
X2074943Y-12299222D02*
X2084467Y-12289698D01*
X2084467Y-12289698D02*
X2103515Y-12280174D01*
X2103515Y-12280174D02*
X2151134Y-12280174D01*
X2151134Y-12280174D02*
X2170182Y-12289698D01*
X2170182Y-12289698D02*
X2179705Y-12299222D01*
X2179705Y-12299222D02*
X2189229Y-12318269D01*
X2189229Y-12318269D02*
X2189229Y-12365888D01*
X2189229Y-12365888D02*
X2179705Y-12384936D01*
X2179705Y-12384936D02*
X2170182Y-12394460D01*
X2170182Y-12394460D02*
X2151134Y-12403984D01*
X2151134Y-12403984D02*
X2103515Y-12403984D01*
X2103515Y-12403984D02*
X2084467Y-12394460D01*
X2084467Y-12394460D02*
X2074943Y-12384936D01*
X2360658Y-12270650D02*
X2360658Y-12403984D01*
X2313039Y-12194460D02*
X2265420Y-12337317D01*
X2265420Y-12337317D02*
X2389229Y-12337317D01*
X2465420Y-12403984D02*
X2465420Y-12270650D01*
X2465420Y-12289698D02*
X2474944Y-12280174D01*
X2474944Y-12280174D02*
X2493991Y-12270650D01*
X2493991Y-12270650D02*
X2522563Y-12270650D01*
X2522563Y-12270650D02*
X2541610Y-12280174D01*
X2541610Y-12280174D02*
X2551134Y-12299222D01*
X2551134Y-12299222D02*
X2551134Y-12403984D01*
X2551134Y-12299222D02*
X2560658Y-12280174D01*
X2560658Y-12280174D02*
X2579705Y-12270650D01*
X2579705Y-12270650D02*
X2608277Y-12270650D01*
X2608277Y-12270650D02*
X2627325Y-12280174D01*
X2627325Y-12280174D02*
X2636848Y-12299222D01*
X2636848Y-12299222D02*
X2636848Y-12403984D01*
X2732086Y-12403984D02*
X2732086Y-12270650D01*
X2732086Y-12289698D02*
X2741610Y-12280174D01*
X2741610Y-12280174D02*
X2760658Y-12270650D01*
X2760658Y-12270650D02*
X2789229Y-12270650D01*
X2789229Y-12270650D02*
X2808277Y-12280174D01*
X2808277Y-12280174D02*
X2817801Y-12299222D01*
X2817801Y-12299222D02*
X2817801Y-12403984D01*
X2817801Y-12299222D02*
X2827324Y-12280174D01*
X2827324Y-12280174D02*
X2846372Y-12270650D01*
X2846372Y-12270650D02*
X2874943Y-12270650D01*
X2874943Y-12270650D02*
X2893991Y-12280174D01*
X2893991Y-12280174D02*
X2903515Y-12299222D01*
X2903515Y-12299222D02*
X2903515Y-12403984D01*
X3293991Y-12194460D02*
X3122563Y-12451603D01*
X3551134Y-12203984D02*
X3570182Y-12203984D01*
X3570182Y-12203984D02*
X3589229Y-12213508D01*
X3589229Y-12213508D02*
X3598753Y-12223031D01*
X3598753Y-12223031D02*
X3608277Y-12242079D01*
X3608277Y-12242079D02*
X3617801Y-12280174D01*
X3617801Y-12280174D02*
X3617801Y-12327793D01*
X3617801Y-12327793D02*
X3608277Y-12365888D01*
X3608277Y-12365888D02*
X3598753Y-12384936D01*
X3598753Y-12384936D02*
X3589229Y-12394460D01*
X3589229Y-12394460D02*
X3570182Y-12403984D01*
X3570182Y-12403984D02*
X3551134Y-12403984D01*
X3551134Y-12403984D02*
X3532086Y-12394460D01*
X3532086Y-12394460D02*
X3522563Y-12384936D01*
X3522563Y-12384936D02*
X3513039Y-12365888D01*
X3513039Y-12365888D02*
X3503515Y-12327793D01*
X3503515Y-12327793D02*
X3503515Y-12280174D01*
X3503515Y-12280174D02*
X3513039Y-12242079D01*
X3513039Y-12242079D02*
X3522563Y-12223031D01*
X3522563Y-12223031D02*
X3532086Y-12213508D01*
X3532086Y-12213508D02*
X3551134Y-12203984D01*
X3703515Y-12384936D02*
X3713039Y-12394460D01*
X3713039Y-12394460D02*
X3703515Y-12403984D01*
X3703515Y-12403984D02*
X3693991Y-12394460D01*
X3693991Y-12394460D02*
X3703515Y-12384936D01*
X3703515Y-12384936D02*
X3703515Y-12403984D01*
X3836848Y-12203984D02*
X3855896Y-12203984D01*
X3855896Y-12203984D02*
X3874944Y-12213508D01*
X3874944Y-12213508D02*
X3884467Y-12223031D01*
X3884467Y-12223031D02*
X3893991Y-12242079D01*
X3893991Y-12242079D02*
X3903515Y-12280174D01*
X3903515Y-12280174D02*
X3903515Y-12327793D01*
X3903515Y-12327793D02*
X3893991Y-12365888D01*
X3893991Y-12365888D02*
X3884467Y-12384936D01*
X3884467Y-12384936D02*
X3874944Y-12394460D01*
X3874944Y-12394460D02*
X3855896Y-12403984D01*
X3855896Y-12403984D02*
X3836848Y-12403984D01*
X3836848Y-12403984D02*
X3817801Y-12394460D01*
X3817801Y-12394460D02*
X3808277Y-12384936D01*
X3808277Y-12384936D02*
X3798753Y-12365888D01*
X3798753Y-12365888D02*
X3789229Y-12327793D01*
X3789229Y-12327793D02*
X3789229Y-12280174D01*
X3789229Y-12280174D02*
X3798753Y-12242079D01*
X3798753Y-12242079D02*
X3808277Y-12223031D01*
X3808277Y-12223031D02*
X3817801Y-12213508D01*
X3817801Y-12213508D02*
X3836848Y-12203984D01*
X3970182Y-12203984D02*
X4103515Y-12203984D01*
X4103515Y-12203984D02*
X4017801Y-12403984D01*
X4160658Y-12203984D02*
X4284468Y-12203984D01*
X4284468Y-12203984D02*
X4217801Y-12280174D01*
X4217801Y-12280174D02*
X4246372Y-12280174D01*
X4246372Y-12280174D02*
X4265420Y-12289698D01*
X4265420Y-12289698D02*
X4274944Y-12299222D01*
X4274944Y-12299222D02*
X4284468Y-12318269D01*
X4284468Y-12318269D02*
X4284468Y-12365888D01*
X4284468Y-12365888D02*
X4274944Y-12384936D01*
X4274944Y-12384936D02*
X4265420Y-12394460D01*
X4265420Y-12394460D02*
X4246372Y-12403984D01*
X4246372Y-12403984D02*
X4189229Y-12403984D01*
X4189229Y-12403984D02*
X4170182Y-12394460D01*
X4170182Y-12394460D02*
X4160658Y-12384936D01*
X4408277Y-12203984D02*
X4427325Y-12203984D01*
X4427325Y-12203984D02*
X4446372Y-12213508D01*
X4446372Y-12213508D02*
X4455896Y-12223031D01*
X4455896Y-12223031D02*
X4465420Y-12242079D01*
X4465420Y-12242079D02*
X4474944Y-12280174D01*
X4474944Y-12280174D02*
X4474944Y-12327793D01*
X4474944Y-12327793D02*
X4465420Y-12365888D01*
X4465420Y-12365888D02*
X4455896Y-12384936D01*
X4455896Y-12384936D02*
X4446372Y-12394460D01*
X4446372Y-12394460D02*
X4427325Y-12403984D01*
X4427325Y-12403984D02*
X4408277Y-12403984D01*
X4408277Y-12403984D02*
X4389229Y-12394460D01*
X4389229Y-12394460D02*
X4379706Y-12384936D01*
X4379706Y-12384936D02*
X4370182Y-12365888D01*
X4370182Y-12365888D02*
X4360658Y-12327793D01*
X4360658Y-12327793D02*
X4360658Y-12280174D01*
X4360658Y-12280174D02*
X4370182Y-12242079D01*
X4370182Y-12242079D02*
X4379706Y-12223031D01*
X4379706Y-12223031D02*
X4389229Y-12213508D01*
X4389229Y-12213508D02*
X4408277Y-12203984D01*
X4551134Y-12203984D02*
X4551134Y-12242079D01*
X4627325Y-12203984D02*
X4627325Y-12242079D01*
X4922563Y-12480174D02*
X4913039Y-12470650D01*
X4913039Y-12470650D02*
X4893991Y-12442079D01*
X4893991Y-12442079D02*
X4884468Y-12423031D01*
X4884468Y-12423031D02*
X4874944Y-12394460D01*
X4874944Y-12394460D02*
X4865420Y-12346841D01*
X4865420Y-12346841D02*
X4865420Y-12308746D01*
X4865420Y-12308746D02*
X4874944Y-12261127D01*
X4874944Y-12261127D02*
X4884468Y-12232555D01*
X4884468Y-12232555D02*
X4893991Y-12213508D01*
X4893991Y-12213508D02*
X4913039Y-12184936D01*
X4913039Y-12184936D02*
X4922563Y-12175412D01*
X5103515Y-12403984D02*
X4989230Y-12403984D01*
X5046372Y-12403984D02*
X5046372Y-12203984D01*
X5046372Y-12203984D02*
X5027325Y-12232555D01*
X5027325Y-12232555D02*
X5008277Y-12251603D01*
X5008277Y-12251603D02*
X4989230Y-12261127D01*
X5274944Y-12270650D02*
X5274944Y-12403984D01*
X5227325Y-12194460D02*
X5179706Y-12337317D01*
X5179706Y-12337317D02*
X5303515Y-12337317D01*
X5532087Y-12403984D02*
X5532087Y-12203984D01*
X5617801Y-12403984D02*
X5617801Y-12299222D01*
X5617801Y-12299222D02*
X5608277Y-12280174D01*
X5608277Y-12280174D02*
X5589230Y-12270650D01*
X5589230Y-12270650D02*
X5560658Y-12270650D01*
X5560658Y-12270650D02*
X5541611Y-12280174D01*
X5541611Y-12280174D02*
X5532087Y-12289698D01*
X5741610Y-12403984D02*
X5722563Y-12394460D01*
X5722563Y-12394460D02*
X5713039Y-12384936D01*
X5713039Y-12384936D02*
X5703515Y-12365888D01*
X5703515Y-12365888D02*
X5703515Y-12308746D01*
X5703515Y-12308746D02*
X5713039Y-12289698D01*
X5713039Y-12289698D02*
X5722563Y-12280174D01*
X5722563Y-12280174D02*
X5741610Y-12270650D01*
X5741610Y-12270650D02*
X5770182Y-12270650D01*
X5770182Y-12270650D02*
X5789230Y-12280174D01*
X5789230Y-12280174D02*
X5798753Y-12289698D01*
X5798753Y-12289698D02*
X5808277Y-12308746D01*
X5808277Y-12308746D02*
X5808277Y-12365888D01*
X5808277Y-12365888D02*
X5798753Y-12384936D01*
X5798753Y-12384936D02*
X5789230Y-12394460D01*
X5789230Y-12394460D02*
X5770182Y-12403984D01*
X5770182Y-12403984D02*
X5741610Y-12403984D01*
X5922563Y-12403984D02*
X5903515Y-12394460D01*
X5903515Y-12394460D02*
X5893991Y-12375412D01*
X5893991Y-12375412D02*
X5893991Y-12203984D01*
X6074944Y-12394460D02*
X6055896Y-12403984D01*
X6055896Y-12403984D02*
X6017801Y-12403984D01*
X6017801Y-12403984D02*
X5998753Y-12394460D01*
X5998753Y-12394460D02*
X5989230Y-12375412D01*
X5989230Y-12375412D02*
X5989230Y-12299222D01*
X5989230Y-12299222D02*
X5998753Y-12280174D01*
X5998753Y-12280174D02*
X6017801Y-12270650D01*
X6017801Y-12270650D02*
X6055896Y-12270650D01*
X6055896Y-12270650D02*
X6074944Y-12280174D01*
X6074944Y-12280174D02*
X6084468Y-12299222D01*
X6084468Y-12299222D02*
X6084468Y-12318269D01*
X6084468Y-12318269D02*
X5989230Y-12337317D01*
X6160658Y-12394460D02*
X6179706Y-12403984D01*
X6179706Y-12403984D02*
X6217801Y-12403984D01*
X6217801Y-12403984D02*
X6236849Y-12394460D01*
X6236849Y-12394460D02*
X6246372Y-12375412D01*
X6246372Y-12375412D02*
X6246372Y-12365888D01*
X6246372Y-12365888D02*
X6236849Y-12346841D01*
X6236849Y-12346841D02*
X6217801Y-12337317D01*
X6217801Y-12337317D02*
X6189230Y-12337317D01*
X6189230Y-12337317D02*
X6170182Y-12327793D01*
X6170182Y-12327793D02*
X6160658Y-12308746D01*
X6160658Y-12308746D02*
X6160658Y-12299222D01*
X6160658Y-12299222D02*
X6170182Y-12280174D01*
X6170182Y-12280174D02*
X6189230Y-12270650D01*
X6189230Y-12270650D02*
X6217801Y-12270650D01*
X6217801Y-12270650D02*
X6236849Y-12280174D01*
X6313039Y-12480174D02*
X6322563Y-12470650D01*
X6322563Y-12470650D02*
X6341611Y-12442079D01*
X6341611Y-12442079D02*
X6351134Y-12423031D01*
X6351134Y-12423031D02*
X6360658Y-12394460D01*
X6360658Y-12394460D02*
X6370182Y-12346841D01*
X6370182Y-12346841D02*
X6370182Y-12308746D01*
X6370182Y-12308746D02*
X6360658Y-12261127D01*
X6360658Y-12261127D02*
X6351134Y-12232555D01*
X6351134Y-12232555D02*
X6341611Y-12213508D01*
X6341611Y-12213508D02*
X6322563Y-12184936D01*
X6322563Y-12184936D02*
X6313039Y-12175412D01*
D14*
X1154780Y-12521560D02*
X1347500Y-12714280D01*
X1347500Y-12521560D02*
X1154780Y-12714280D01*
X1251140Y-12521560D02*
X1251140Y-12714280D01*
X1154780Y-12617920D02*
X1347500Y-12617920D01*
D11*
X1713039Y-12709404D02*
X1598753Y-12709404D01*
X1655896Y-12709404D02*
X1655896Y-12509404D01*
X1655896Y-12509404D02*
X1636848Y-12537975D01*
X1636848Y-12537975D02*
X1617801Y-12557023D01*
X1617801Y-12557023D02*
X1598753Y-12566547D01*
X1798753Y-12690356D02*
X1808277Y-12699880D01*
X1808277Y-12699880D02*
X1798753Y-12709404D01*
X1798753Y-12709404D02*
X1789229Y-12699880D01*
X1789229Y-12699880D02*
X1798753Y-12690356D01*
X1798753Y-12690356D02*
X1798753Y-12709404D01*
X1903515Y-12709404D02*
X1941610Y-12709404D01*
X1941610Y-12709404D02*
X1960658Y-12699880D01*
X1960658Y-12699880D02*
X1970182Y-12690356D01*
X1970182Y-12690356D02*
X1989229Y-12661785D01*
X1989229Y-12661785D02*
X1998753Y-12623689D01*
X1998753Y-12623689D02*
X1998753Y-12547499D01*
X1998753Y-12547499D02*
X1989229Y-12528451D01*
X1989229Y-12528451D02*
X1979705Y-12518928D01*
X1979705Y-12518928D02*
X1960658Y-12509404D01*
X1960658Y-12509404D02*
X1922562Y-12509404D01*
X1922562Y-12509404D02*
X1903515Y-12518928D01*
X1903515Y-12518928D02*
X1893991Y-12528451D01*
X1893991Y-12528451D02*
X1884467Y-12547499D01*
X1884467Y-12547499D02*
X1884467Y-12595118D01*
X1884467Y-12595118D02*
X1893991Y-12614166D01*
X1893991Y-12614166D02*
X1903515Y-12623689D01*
X1903515Y-12623689D02*
X1922562Y-12633213D01*
X1922562Y-12633213D02*
X1960658Y-12633213D01*
X1960658Y-12633213D02*
X1979705Y-12623689D01*
X1979705Y-12623689D02*
X1989229Y-12614166D01*
X1989229Y-12614166D02*
X1998753Y-12595118D01*
X2074943Y-12528451D02*
X2084467Y-12518928D01*
X2084467Y-12518928D02*
X2103515Y-12509404D01*
X2103515Y-12509404D02*
X2151134Y-12509404D01*
X2151134Y-12509404D02*
X2170182Y-12518928D01*
X2170182Y-12518928D02*
X2179705Y-12528451D01*
X2179705Y-12528451D02*
X2189229Y-12547499D01*
X2189229Y-12547499D02*
X2189229Y-12566547D01*
X2189229Y-12566547D02*
X2179705Y-12595118D01*
X2179705Y-12595118D02*
X2065420Y-12709404D01*
X2065420Y-12709404D02*
X2189229Y-12709404D01*
X2255896Y-12509404D02*
X2389229Y-12509404D01*
X2389229Y-12509404D02*
X2303515Y-12709404D01*
X2465420Y-12709404D02*
X2465420Y-12576070D01*
X2465420Y-12595118D02*
X2474944Y-12585594D01*
X2474944Y-12585594D02*
X2493991Y-12576070D01*
X2493991Y-12576070D02*
X2522563Y-12576070D01*
X2522563Y-12576070D02*
X2541610Y-12585594D01*
X2541610Y-12585594D02*
X2551134Y-12604642D01*
X2551134Y-12604642D02*
X2551134Y-12709404D01*
X2551134Y-12604642D02*
X2560658Y-12585594D01*
X2560658Y-12585594D02*
X2579705Y-12576070D01*
X2579705Y-12576070D02*
X2608277Y-12576070D01*
X2608277Y-12576070D02*
X2627325Y-12585594D01*
X2627325Y-12585594D02*
X2636848Y-12604642D01*
X2636848Y-12604642D02*
X2636848Y-12709404D01*
X2732086Y-12709404D02*
X2732086Y-12576070D01*
X2732086Y-12595118D02*
X2741610Y-12585594D01*
X2741610Y-12585594D02*
X2760658Y-12576070D01*
X2760658Y-12576070D02*
X2789229Y-12576070D01*
X2789229Y-12576070D02*
X2808277Y-12585594D01*
X2808277Y-12585594D02*
X2817801Y-12604642D01*
X2817801Y-12604642D02*
X2817801Y-12709404D01*
X2817801Y-12604642D02*
X2827324Y-12585594D01*
X2827324Y-12585594D02*
X2846372Y-12576070D01*
X2846372Y-12576070D02*
X2874943Y-12576070D01*
X2874943Y-12576070D02*
X2893991Y-12585594D01*
X2893991Y-12585594D02*
X2903515Y-12604642D01*
X2903515Y-12604642D02*
X2903515Y-12709404D01*
X3293991Y-12499880D02*
X3122563Y-12757023D01*
X3551134Y-12509404D02*
X3570182Y-12509404D01*
X3570182Y-12509404D02*
X3589229Y-12518928D01*
X3589229Y-12518928D02*
X3598753Y-12528451D01*
X3598753Y-12528451D02*
X3608277Y-12547499D01*
X3608277Y-12547499D02*
X3617801Y-12585594D01*
X3617801Y-12585594D02*
X3617801Y-12633213D01*
X3617801Y-12633213D02*
X3608277Y-12671308D01*
X3608277Y-12671308D02*
X3598753Y-12690356D01*
X3598753Y-12690356D02*
X3589229Y-12699880D01*
X3589229Y-12699880D02*
X3570182Y-12709404D01*
X3570182Y-12709404D02*
X3551134Y-12709404D01*
X3551134Y-12709404D02*
X3532086Y-12699880D01*
X3532086Y-12699880D02*
X3522563Y-12690356D01*
X3522563Y-12690356D02*
X3513039Y-12671308D01*
X3513039Y-12671308D02*
X3503515Y-12633213D01*
X3503515Y-12633213D02*
X3503515Y-12585594D01*
X3503515Y-12585594D02*
X3513039Y-12547499D01*
X3513039Y-12547499D02*
X3522563Y-12528451D01*
X3522563Y-12528451D02*
X3532086Y-12518928D01*
X3532086Y-12518928D02*
X3551134Y-12509404D01*
X3703515Y-12690356D02*
X3713039Y-12699880D01*
X3713039Y-12699880D02*
X3703515Y-12709404D01*
X3703515Y-12709404D02*
X3693991Y-12699880D01*
X3693991Y-12699880D02*
X3703515Y-12690356D01*
X3703515Y-12690356D02*
X3703515Y-12709404D01*
X3836848Y-12509404D02*
X3855896Y-12509404D01*
X3855896Y-12509404D02*
X3874944Y-12518928D01*
X3874944Y-12518928D02*
X3884467Y-12528451D01*
X3884467Y-12528451D02*
X3893991Y-12547499D01*
X3893991Y-12547499D02*
X3903515Y-12585594D01*
X3903515Y-12585594D02*
X3903515Y-12633213D01*
X3903515Y-12633213D02*
X3893991Y-12671308D01*
X3893991Y-12671308D02*
X3884467Y-12690356D01*
X3884467Y-12690356D02*
X3874944Y-12699880D01*
X3874944Y-12699880D02*
X3855896Y-12709404D01*
X3855896Y-12709404D02*
X3836848Y-12709404D01*
X3836848Y-12709404D02*
X3817801Y-12699880D01*
X3817801Y-12699880D02*
X3808277Y-12690356D01*
X3808277Y-12690356D02*
X3798753Y-12671308D01*
X3798753Y-12671308D02*
X3789229Y-12633213D01*
X3789229Y-12633213D02*
X3789229Y-12585594D01*
X3789229Y-12585594D02*
X3798753Y-12547499D01*
X3798753Y-12547499D02*
X3808277Y-12528451D01*
X3808277Y-12528451D02*
X3817801Y-12518928D01*
X3817801Y-12518928D02*
X3836848Y-12509404D01*
X3970182Y-12509404D02*
X4103515Y-12509404D01*
X4103515Y-12509404D02*
X4017801Y-12709404D01*
X4274944Y-12509404D02*
X4179706Y-12509404D01*
X4179706Y-12509404D02*
X4170182Y-12604642D01*
X4170182Y-12604642D02*
X4179706Y-12595118D01*
X4179706Y-12595118D02*
X4198753Y-12585594D01*
X4198753Y-12585594D02*
X4246372Y-12585594D01*
X4246372Y-12585594D02*
X4265420Y-12595118D01*
X4265420Y-12595118D02*
X4274944Y-12604642D01*
X4274944Y-12604642D02*
X4284468Y-12623689D01*
X4284468Y-12623689D02*
X4284468Y-12671308D01*
X4284468Y-12671308D02*
X4274944Y-12690356D01*
X4274944Y-12690356D02*
X4265420Y-12699880D01*
X4265420Y-12699880D02*
X4246372Y-12709404D01*
X4246372Y-12709404D02*
X4198753Y-12709404D01*
X4198753Y-12709404D02*
X4179706Y-12699880D01*
X4179706Y-12699880D02*
X4170182Y-12690356D01*
X4379706Y-12709404D02*
X4417801Y-12709404D01*
X4417801Y-12709404D02*
X4436849Y-12699880D01*
X4436849Y-12699880D02*
X4446372Y-12690356D01*
X4446372Y-12690356D02*
X4465420Y-12661785D01*
X4465420Y-12661785D02*
X4474944Y-12623689D01*
X4474944Y-12623689D02*
X4474944Y-12547499D01*
X4474944Y-12547499D02*
X4465420Y-12528451D01*
X4465420Y-12528451D02*
X4455896Y-12518928D01*
X4455896Y-12518928D02*
X4436849Y-12509404D01*
X4436849Y-12509404D02*
X4398753Y-12509404D01*
X4398753Y-12509404D02*
X4379706Y-12518928D01*
X4379706Y-12518928D02*
X4370182Y-12528451D01*
X4370182Y-12528451D02*
X4360658Y-12547499D01*
X4360658Y-12547499D02*
X4360658Y-12595118D01*
X4360658Y-12595118D02*
X4370182Y-12614166D01*
X4370182Y-12614166D02*
X4379706Y-12623689D01*
X4379706Y-12623689D02*
X4398753Y-12633213D01*
X4398753Y-12633213D02*
X4436849Y-12633213D01*
X4436849Y-12633213D02*
X4455896Y-12623689D01*
X4455896Y-12623689D02*
X4465420Y-12614166D01*
X4465420Y-12614166D02*
X4474944Y-12595118D01*
X4551134Y-12509404D02*
X4551134Y-12547499D01*
X4627325Y-12509404D02*
X4627325Y-12547499D01*
X4922563Y-12785594D02*
X4913039Y-12776070D01*
X4913039Y-12776070D02*
X4893991Y-12747499D01*
X4893991Y-12747499D02*
X4884468Y-12728451D01*
X4884468Y-12728451D02*
X4874944Y-12699880D01*
X4874944Y-12699880D02*
X4865420Y-12652261D01*
X4865420Y-12652261D02*
X4865420Y-12614166D01*
X4865420Y-12614166D02*
X4874944Y-12566547D01*
X4874944Y-12566547D02*
X4884468Y-12537975D01*
X4884468Y-12537975D02*
X4893991Y-12518928D01*
X4893991Y-12518928D02*
X4913039Y-12490356D01*
X4913039Y-12490356D02*
X4922563Y-12480832D01*
X4989230Y-12528451D02*
X4998753Y-12518928D01*
X4998753Y-12518928D02*
X5017801Y-12509404D01*
X5017801Y-12509404D02*
X5065420Y-12509404D01*
X5065420Y-12509404D02*
X5084468Y-12518928D01*
X5084468Y-12518928D02*
X5093991Y-12528451D01*
X5093991Y-12528451D02*
X5103515Y-12547499D01*
X5103515Y-12547499D02*
X5103515Y-12566547D01*
X5103515Y-12566547D02*
X5093991Y-12595118D01*
X5093991Y-12595118D02*
X4979706Y-12709404D01*
X4979706Y-12709404D02*
X5103515Y-12709404D01*
X5341611Y-12709404D02*
X5341611Y-12509404D01*
X5427325Y-12709404D02*
X5427325Y-12604642D01*
X5427325Y-12604642D02*
X5417801Y-12585594D01*
X5417801Y-12585594D02*
X5398753Y-12576070D01*
X5398753Y-12576070D02*
X5370182Y-12576070D01*
X5370182Y-12576070D02*
X5351134Y-12585594D01*
X5351134Y-12585594D02*
X5341611Y-12595118D01*
X5551134Y-12709404D02*
X5532087Y-12699880D01*
X5532087Y-12699880D02*
X5522563Y-12690356D01*
X5522563Y-12690356D02*
X5513039Y-12671308D01*
X5513039Y-12671308D02*
X5513039Y-12614166D01*
X5513039Y-12614166D02*
X5522563Y-12595118D01*
X5522563Y-12595118D02*
X5532087Y-12585594D01*
X5532087Y-12585594D02*
X5551134Y-12576070D01*
X5551134Y-12576070D02*
X5579706Y-12576070D01*
X5579706Y-12576070D02*
X5598753Y-12585594D01*
X5598753Y-12585594D02*
X5608277Y-12595118D01*
X5608277Y-12595118D02*
X5617801Y-12614166D01*
X5617801Y-12614166D02*
X5617801Y-12671308D01*
X5617801Y-12671308D02*
X5608277Y-12690356D01*
X5608277Y-12690356D02*
X5598753Y-12699880D01*
X5598753Y-12699880D02*
X5579706Y-12709404D01*
X5579706Y-12709404D02*
X5551134Y-12709404D01*
X5732087Y-12709404D02*
X5713039Y-12699880D01*
X5713039Y-12699880D02*
X5703515Y-12680832D01*
X5703515Y-12680832D02*
X5703515Y-12509404D01*
X5884468Y-12699880D02*
X5865420Y-12709404D01*
X5865420Y-12709404D02*
X5827325Y-12709404D01*
X5827325Y-12709404D02*
X5808277Y-12699880D01*
X5808277Y-12699880D02*
X5798753Y-12680832D01*
X5798753Y-12680832D02*
X5798753Y-12604642D01*
X5798753Y-12604642D02*
X5808277Y-12585594D01*
X5808277Y-12585594D02*
X5827325Y-12576070D01*
X5827325Y-12576070D02*
X5865420Y-12576070D01*
X5865420Y-12576070D02*
X5884468Y-12585594D01*
X5884468Y-12585594D02*
X5893991Y-12604642D01*
X5893991Y-12604642D02*
X5893991Y-12623689D01*
X5893991Y-12623689D02*
X5798753Y-12642737D01*
X5970182Y-12699880D02*
X5989230Y-12709404D01*
X5989230Y-12709404D02*
X6027325Y-12709404D01*
X6027325Y-12709404D02*
X6046372Y-12699880D01*
X6046372Y-12699880D02*
X6055896Y-12680832D01*
X6055896Y-12680832D02*
X6055896Y-12671308D01*
X6055896Y-12671308D02*
X6046372Y-12652261D01*
X6046372Y-12652261D02*
X6027325Y-12642737D01*
X6027325Y-12642737D02*
X5998753Y-12642737D01*
X5998753Y-12642737D02*
X5979706Y-12633213D01*
X5979706Y-12633213D02*
X5970182Y-12614166D01*
X5970182Y-12614166D02*
X5970182Y-12604642D01*
X5970182Y-12604642D02*
X5979706Y-12585594D01*
X5979706Y-12585594D02*
X5998753Y-12576070D01*
X5998753Y-12576070D02*
X6027325Y-12576070D01*
X6027325Y-12576070D02*
X6046372Y-12585594D01*
X6122563Y-12785594D02*
X6132087Y-12776070D01*
X6132087Y-12776070D02*
X6151134Y-12747499D01*
X6151134Y-12747499D02*
X6160658Y-12728451D01*
X6160658Y-12728451D02*
X6170182Y-12699880D01*
X6170182Y-12699880D02*
X6179706Y-12652261D01*
X6179706Y-12652261D02*
X6179706Y-12614166D01*
X6179706Y-12614166D02*
X6170182Y-12566547D01*
X6170182Y-12566547D02*
X6160658Y-12537975D01*
X6160658Y-12537975D02*
X6151134Y-12518928D01*
X6151134Y-12518928D02*
X6132087Y-12490356D01*
X6132087Y-12490356D02*
X6122563Y-12480832D01*
X1147500Y-12830640D02*
X1347500Y-13030640D01*
X1347500Y-12830640D02*
X1147500Y-13030640D01*
X1318211Y-13001351D02*
X1318211Y-12859929D01*
X1176789Y-12859929D01*
X1176789Y-13001351D01*
X1318211Y-13001351D01*
X1589229Y-12822124D02*
X1713039Y-12822124D01*
X1713039Y-12822124D02*
X1646372Y-12898314D01*
X1646372Y-12898314D02*
X1674943Y-12898314D01*
X1674943Y-12898314D02*
X1693991Y-12907838D01*
X1693991Y-12907838D02*
X1703515Y-12917362D01*
X1703515Y-12917362D02*
X1713039Y-12936409D01*
X1713039Y-12936409D02*
X1713039Y-12984028D01*
X1713039Y-12984028D02*
X1703515Y-13003076D01*
X1703515Y-13003076D02*
X1693991Y-13012600D01*
X1693991Y-13012600D02*
X1674943Y-13022124D01*
X1674943Y-13022124D02*
X1617801Y-13022124D01*
X1617801Y-13022124D02*
X1598753Y-13012600D01*
X1598753Y-13012600D02*
X1589229Y-13003076D01*
X1798753Y-13003076D02*
X1808277Y-13012600D01*
X1808277Y-13012600D02*
X1798753Y-13022124D01*
X1798753Y-13022124D02*
X1789229Y-13012600D01*
X1789229Y-13012600D02*
X1798753Y-13003076D01*
X1798753Y-13003076D02*
X1798753Y-13022124D01*
X1884467Y-12841171D02*
X1893991Y-12831648D01*
X1893991Y-12831648D02*
X1913039Y-12822124D01*
X1913039Y-12822124D02*
X1960658Y-12822124D01*
X1960658Y-12822124D02*
X1979705Y-12831648D01*
X1979705Y-12831648D02*
X1989229Y-12841171D01*
X1989229Y-12841171D02*
X1998753Y-12860219D01*
X1998753Y-12860219D02*
X1998753Y-12879267D01*
X1998753Y-12879267D02*
X1989229Y-12907838D01*
X1989229Y-12907838D02*
X1874943Y-13022124D01*
X1874943Y-13022124D02*
X1998753Y-13022124D01*
X2122563Y-12822124D02*
X2141610Y-12822124D01*
X2141610Y-12822124D02*
X2160658Y-12831648D01*
X2160658Y-12831648D02*
X2170182Y-12841171D01*
X2170182Y-12841171D02*
X2179705Y-12860219D01*
X2179705Y-12860219D02*
X2189229Y-12898314D01*
X2189229Y-12898314D02*
X2189229Y-12945933D01*
X2189229Y-12945933D02*
X2179705Y-12984028D01*
X2179705Y-12984028D02*
X2170182Y-13003076D01*
X2170182Y-13003076D02*
X2160658Y-13012600D01*
X2160658Y-13012600D02*
X2141610Y-13022124D01*
X2141610Y-13022124D02*
X2122563Y-13022124D01*
X2122563Y-13022124D02*
X2103515Y-13012600D01*
X2103515Y-13012600D02*
X2093991Y-13003076D01*
X2093991Y-13003076D02*
X2084467Y-12984028D01*
X2084467Y-12984028D02*
X2074943Y-12945933D01*
X2074943Y-12945933D02*
X2074943Y-12898314D01*
X2074943Y-12898314D02*
X2084467Y-12860219D01*
X2084467Y-12860219D02*
X2093991Y-12841171D01*
X2093991Y-12841171D02*
X2103515Y-12831648D01*
X2103515Y-12831648D02*
X2122563Y-12822124D01*
X2313039Y-12822124D02*
X2332086Y-12822124D01*
X2332086Y-12822124D02*
X2351134Y-12831648D01*
X2351134Y-12831648D02*
X2360658Y-12841171D01*
X2360658Y-12841171D02*
X2370182Y-12860219D01*
X2370182Y-12860219D02*
X2379705Y-12898314D01*
X2379705Y-12898314D02*
X2379705Y-12945933D01*
X2379705Y-12945933D02*
X2370182Y-12984028D01*
X2370182Y-12984028D02*
X2360658Y-13003076D01*
X2360658Y-13003076D02*
X2351134Y-13012600D01*
X2351134Y-13012600D02*
X2332086Y-13022124D01*
X2332086Y-13022124D02*
X2313039Y-13022124D01*
X2313039Y-13022124D02*
X2293991Y-13012600D01*
X2293991Y-13012600D02*
X2284467Y-13003076D01*
X2284467Y-13003076D02*
X2274944Y-12984028D01*
X2274944Y-12984028D02*
X2265420Y-12945933D01*
X2265420Y-12945933D02*
X2265420Y-12898314D01*
X2265420Y-12898314D02*
X2274944Y-12860219D01*
X2274944Y-12860219D02*
X2284467Y-12841171D01*
X2284467Y-12841171D02*
X2293991Y-12831648D01*
X2293991Y-12831648D02*
X2313039Y-12822124D01*
X2465420Y-13022124D02*
X2465420Y-12888790D01*
X2465420Y-12907838D02*
X2474944Y-12898314D01*
X2474944Y-12898314D02*
X2493991Y-12888790D01*
X2493991Y-12888790D02*
X2522563Y-12888790D01*
X2522563Y-12888790D02*
X2541610Y-12898314D01*
X2541610Y-12898314D02*
X2551134Y-12917362D01*
X2551134Y-12917362D02*
X2551134Y-13022124D01*
X2551134Y-12917362D02*
X2560658Y-12898314D01*
X2560658Y-12898314D02*
X2579705Y-12888790D01*
X2579705Y-12888790D02*
X2608277Y-12888790D01*
X2608277Y-12888790D02*
X2627325Y-12898314D01*
X2627325Y-12898314D02*
X2636848Y-12917362D01*
X2636848Y-12917362D02*
X2636848Y-13022124D01*
X2732086Y-13022124D02*
X2732086Y-12888790D01*
X2732086Y-12907838D02*
X2741610Y-12898314D01*
X2741610Y-12898314D02*
X2760658Y-12888790D01*
X2760658Y-12888790D02*
X2789229Y-12888790D01*
X2789229Y-12888790D02*
X2808277Y-12898314D01*
X2808277Y-12898314D02*
X2817801Y-12917362D01*
X2817801Y-12917362D02*
X2817801Y-13022124D01*
X2817801Y-12917362D02*
X2827324Y-12898314D01*
X2827324Y-12898314D02*
X2846372Y-12888790D01*
X2846372Y-12888790D02*
X2874943Y-12888790D01*
X2874943Y-12888790D02*
X2893991Y-12898314D01*
X2893991Y-12898314D02*
X2903515Y-12917362D01*
X2903515Y-12917362D02*
X2903515Y-13022124D01*
X3293991Y-12812600D02*
X3122563Y-13069743D01*
X3551134Y-12822124D02*
X3570182Y-12822124D01*
X3570182Y-12822124D02*
X3589229Y-12831648D01*
X3589229Y-12831648D02*
X3598753Y-12841171D01*
X3598753Y-12841171D02*
X3608277Y-12860219D01*
X3608277Y-12860219D02*
X3617801Y-12898314D01*
X3617801Y-12898314D02*
X3617801Y-12945933D01*
X3617801Y-12945933D02*
X3608277Y-12984028D01*
X3608277Y-12984028D02*
X3598753Y-13003076D01*
X3598753Y-13003076D02*
X3589229Y-13012600D01*
X3589229Y-13012600D02*
X3570182Y-13022124D01*
X3570182Y-13022124D02*
X3551134Y-13022124D01*
X3551134Y-13022124D02*
X3532086Y-13012600D01*
X3532086Y-13012600D02*
X3522563Y-13003076D01*
X3522563Y-13003076D02*
X3513039Y-12984028D01*
X3513039Y-12984028D02*
X3503515Y-12945933D01*
X3503515Y-12945933D02*
X3503515Y-12898314D01*
X3503515Y-12898314D02*
X3513039Y-12860219D01*
X3513039Y-12860219D02*
X3522563Y-12841171D01*
X3522563Y-12841171D02*
X3532086Y-12831648D01*
X3532086Y-12831648D02*
X3551134Y-12822124D01*
X3703515Y-13003076D02*
X3713039Y-13012600D01*
X3713039Y-13012600D02*
X3703515Y-13022124D01*
X3703515Y-13022124D02*
X3693991Y-13012600D01*
X3693991Y-13012600D02*
X3703515Y-13003076D01*
X3703515Y-13003076D02*
X3703515Y-13022124D01*
X3903515Y-13022124D02*
X3789229Y-13022124D01*
X3846372Y-13022124D02*
X3846372Y-12822124D01*
X3846372Y-12822124D02*
X3827325Y-12850695D01*
X3827325Y-12850695D02*
X3808277Y-12869743D01*
X3808277Y-12869743D02*
X3789229Y-12879267D01*
X3979706Y-12841171D02*
X3989229Y-12831648D01*
X3989229Y-12831648D02*
X4008277Y-12822124D01*
X4008277Y-12822124D02*
X4055896Y-12822124D01*
X4055896Y-12822124D02*
X4074944Y-12831648D01*
X4074944Y-12831648D02*
X4084467Y-12841171D01*
X4084467Y-12841171D02*
X4093991Y-12860219D01*
X4093991Y-12860219D02*
X4093991Y-12879267D01*
X4093991Y-12879267D02*
X4084467Y-12907838D01*
X4084467Y-12907838D02*
X3970182Y-13022124D01*
X3970182Y-13022124D02*
X4093991Y-13022124D01*
X4265420Y-12822124D02*
X4227325Y-12822124D01*
X4227325Y-12822124D02*
X4208277Y-12831648D01*
X4208277Y-12831648D02*
X4198753Y-12841171D01*
X4198753Y-12841171D02*
X4179706Y-12869743D01*
X4179706Y-12869743D02*
X4170182Y-12907838D01*
X4170182Y-12907838D02*
X4170182Y-12984028D01*
X4170182Y-12984028D02*
X4179706Y-13003076D01*
X4179706Y-13003076D02*
X4189229Y-13012600D01*
X4189229Y-13012600D02*
X4208277Y-13022124D01*
X4208277Y-13022124D02*
X4246372Y-13022124D01*
X4246372Y-13022124D02*
X4265420Y-13012600D01*
X4265420Y-13012600D02*
X4274944Y-13003076D01*
X4274944Y-13003076D02*
X4284468Y-12984028D01*
X4284468Y-12984028D02*
X4284468Y-12936409D01*
X4284468Y-12936409D02*
X4274944Y-12917362D01*
X4274944Y-12917362D02*
X4265420Y-12907838D01*
X4265420Y-12907838D02*
X4246372Y-12898314D01*
X4246372Y-12898314D02*
X4208277Y-12898314D01*
X4208277Y-12898314D02*
X4189229Y-12907838D01*
X4189229Y-12907838D02*
X4179706Y-12917362D01*
X4179706Y-12917362D02*
X4170182Y-12936409D01*
X4408277Y-12822124D02*
X4427325Y-12822124D01*
X4427325Y-12822124D02*
X4446372Y-12831648D01*
X4446372Y-12831648D02*
X4455896Y-12841171D01*
X4455896Y-12841171D02*
X4465420Y-12860219D01*
X4465420Y-12860219D02*
X4474944Y-12898314D01*
X4474944Y-12898314D02*
X4474944Y-12945933D01*
X4474944Y-12945933D02*
X4465420Y-12984028D01*
X4465420Y-12984028D02*
X4455896Y-13003076D01*
X4455896Y-13003076D02*
X4446372Y-13012600D01*
X4446372Y-13012600D02*
X4427325Y-13022124D01*
X4427325Y-13022124D02*
X4408277Y-13022124D01*
X4408277Y-13022124D02*
X4389229Y-13012600D01*
X4389229Y-13012600D02*
X4379706Y-13003076D01*
X4379706Y-13003076D02*
X4370182Y-12984028D01*
X4370182Y-12984028D02*
X4360658Y-12945933D01*
X4360658Y-12945933D02*
X4360658Y-12898314D01*
X4360658Y-12898314D02*
X4370182Y-12860219D01*
X4370182Y-12860219D02*
X4379706Y-12841171D01*
X4379706Y-12841171D02*
X4389229Y-12831648D01*
X4389229Y-12831648D02*
X4408277Y-12822124D01*
X4551134Y-12822124D02*
X4551134Y-12860219D01*
X4627325Y-12822124D02*
X4627325Y-12860219D01*
X4922563Y-13098314D02*
X4913039Y-13088790D01*
X4913039Y-13088790D02*
X4893991Y-13060219D01*
X4893991Y-13060219D02*
X4884468Y-13041171D01*
X4884468Y-13041171D02*
X4874944Y-13012600D01*
X4874944Y-13012600D02*
X4865420Y-12964981D01*
X4865420Y-12964981D02*
X4865420Y-12926886D01*
X4865420Y-12926886D02*
X4874944Y-12879267D01*
X4874944Y-12879267D02*
X4884468Y-12850695D01*
X4884468Y-12850695D02*
X4893991Y-12831648D01*
X4893991Y-12831648D02*
X4913039Y-12803076D01*
X4913039Y-12803076D02*
X4922563Y-12793552D01*
X5084468Y-12888790D02*
X5084468Y-13022124D01*
X5036849Y-12812600D02*
X4989230Y-12955457D01*
X4989230Y-12955457D02*
X5113039Y-12955457D01*
X5341611Y-13022124D02*
X5341611Y-12822124D01*
X5427325Y-13022124D02*
X5427325Y-12917362D01*
X5427325Y-12917362D02*
X5417801Y-12898314D01*
X5417801Y-12898314D02*
X5398753Y-12888790D01*
X5398753Y-12888790D02*
X5370182Y-12888790D01*
X5370182Y-12888790D02*
X5351134Y-12898314D01*
X5351134Y-12898314D02*
X5341611Y-12907838D01*
X5551134Y-13022124D02*
X5532087Y-13012600D01*
X5532087Y-13012600D02*
X5522563Y-13003076D01*
X5522563Y-13003076D02*
X5513039Y-12984028D01*
X5513039Y-12984028D02*
X5513039Y-12926886D01*
X5513039Y-12926886D02*
X5522563Y-12907838D01*
X5522563Y-12907838D02*
X5532087Y-12898314D01*
X5532087Y-12898314D02*
X5551134Y-12888790D01*
X5551134Y-12888790D02*
X5579706Y-12888790D01*
X5579706Y-12888790D02*
X5598753Y-12898314D01*
X5598753Y-12898314D02*
X5608277Y-12907838D01*
X5608277Y-12907838D02*
X5617801Y-12926886D01*
X5617801Y-12926886D02*
X5617801Y-12984028D01*
X5617801Y-12984028D02*
X5608277Y-13003076D01*
X5608277Y-13003076D02*
X5598753Y-13012600D01*
X5598753Y-13012600D02*
X5579706Y-13022124D01*
X5579706Y-13022124D02*
X5551134Y-13022124D01*
X5732087Y-13022124D02*
X5713039Y-13012600D01*
X5713039Y-13012600D02*
X5703515Y-12993552D01*
X5703515Y-12993552D02*
X5703515Y-12822124D01*
X5884468Y-13012600D02*
X5865420Y-13022124D01*
X5865420Y-13022124D02*
X5827325Y-13022124D01*
X5827325Y-13022124D02*
X5808277Y-13012600D01*
X5808277Y-13012600D02*
X5798753Y-12993552D01*
X5798753Y-12993552D02*
X5798753Y-12917362D01*
X5798753Y-12917362D02*
X5808277Y-12898314D01*
X5808277Y-12898314D02*
X5827325Y-12888790D01*
X5827325Y-12888790D02*
X5865420Y-12888790D01*
X5865420Y-12888790D02*
X5884468Y-12898314D01*
X5884468Y-12898314D02*
X5893991Y-12917362D01*
X5893991Y-12917362D02*
X5893991Y-12936409D01*
X5893991Y-12936409D02*
X5798753Y-12955457D01*
X5970182Y-13012600D02*
X5989230Y-13022124D01*
X5989230Y-13022124D02*
X6027325Y-13022124D01*
X6027325Y-13022124D02*
X6046372Y-13012600D01*
X6046372Y-13012600D02*
X6055896Y-12993552D01*
X6055896Y-12993552D02*
X6055896Y-12984028D01*
X6055896Y-12984028D02*
X6046372Y-12964981D01*
X6046372Y-12964981D02*
X6027325Y-12955457D01*
X6027325Y-12955457D02*
X5998753Y-12955457D01*
X5998753Y-12955457D02*
X5979706Y-12945933D01*
X5979706Y-12945933D02*
X5970182Y-12926886D01*
X5970182Y-12926886D02*
X5970182Y-12917362D01*
X5970182Y-12917362D02*
X5979706Y-12898314D01*
X5979706Y-12898314D02*
X5998753Y-12888790D01*
X5998753Y-12888790D02*
X6027325Y-12888790D01*
X6027325Y-12888790D02*
X6046372Y-12898314D01*
X6122563Y-13098314D02*
X6132087Y-13088790D01*
X6132087Y-13088790D02*
X6151134Y-13060219D01*
X6151134Y-13060219D02*
X6160658Y-13041171D01*
X6160658Y-13041171D02*
X6170182Y-13012600D01*
X6170182Y-13012600D02*
X6179706Y-12964981D01*
X6179706Y-12964981D02*
X6179706Y-12926886D01*
X6179706Y-12926886D02*
X6170182Y-12879267D01*
X6170182Y-12879267D02*
X6160658Y-12850695D01*
X6160658Y-12850695D02*
X6151134Y-12831648D01*
X6151134Y-12831648D02*
X6132087Y-12803076D01*
X6132087Y-12803076D02*
X6122563Y-12793552D01*
M02*
