M48
; DRILL file {KiCad 9.0.2-9.0.2-0~ubuntu24.04.1} date 2025-06-11T15:00:52-0500
; FORMAT={-:-/ absolute / metric / decimal}
; #@! TF.CreationDate,2025-06-11T15:00:52-05:00
; #@! TF.GenerationSoftware,Kicad,Pcbnew,9.0.2-9.0.2-0~ubuntu24.04.1
; #@! TF.FileFunction,Plated,1,2,PTH
FMAT,2
METRIC
; #@! TA.AperFunction,Plated,PTH,ViaDrill
T1C0.200
; #@! TA.AperFunction,Plated,PTH,ViaDrill
T2C0.400
; #@! TA.AperFunction,Plated,PTH,ComponentDrill
T3C0.708
; #@! TA.AperFunction,Plated,PTH,ComponentDrill
T4C0.762
; #@! TA.AperFunction,Plated,PTH,ComponentDrill
T5C1.000
; #@! TA.AperFunction,Plated,PTH,ComponentDrill
T6C1.854
; #@! TA.AperFunction,Plated,PTH,ComponentDrill
T7C1.927
; #@! TA.AperFunction,Plated,PTH,ComponentDrill
T8C3.200
%
G90
G05
T1
X20.0Y-60.525
X22.5Y-60.525
X24.037Y-51.5
X28.037Y-63.0
X28.224Y-55.365
X28.224Y-56.635
X28.224Y-57.905
X28.425Y-69.25
X28.5Y-59.5
X28.75Y-61.5
X29.725Y-71.75
X29.75Y-63.75
X30.0Y-52.0
X30.0Y-58.0
X30.75Y-57.5
X30.75Y-65.35
X31.0Y-60.5
X32.481Y-51.981
X33.0Y-53.25
X34.5Y-65.5
X36.5Y-54.5
X40.5Y-57.525
X44.962Y-51.75
X44.962Y-54.25
X47.557Y-85.443
X47.975Y-83.819
X49.0Y-76.0
X49.537Y-74.5
X60.25Y-44.538
X60.25Y-47.462
X62.75Y-44.538
X62.75Y-47.462
X65.25Y-44.538
X65.25Y-47.462
X69.25Y-44.538
X69.25Y-47.462
X71.75Y-44.538
X71.75Y-47.462
X74.25Y-44.538
X74.25Y-47.462
T2
X14.5Y-24.0
X14.5Y-26.0
X14.5Y-28.0
X14.5Y-30.0
X14.5Y-32.0
X14.5Y-34.0
X14.5Y-36.0
X14.5Y-38.0
X14.5Y-40.0
X14.5Y-42.0
X14.5Y-94.5
X14.5Y-96.5
X14.5Y-98.5
X14.5Y-100.5
X16.5Y-42.0
X16.5Y-102.5
X18.5Y-42.0
X18.5Y-102.5
X20.5Y-42.0
X20.5Y-102.5
X22.5Y-42.0
X22.5Y-102.5
X24.0Y-14.5
X24.5Y-42.0
X24.5Y-102.5
X26.0Y-14.5
X26.5Y-42.0
X26.5Y-102.5
X27.5Y-44.0
X27.5Y-80.5
X27.5Y-82.5
X27.5Y-84.5
X27.5Y-86.5
X28.0Y-14.5
X29.5Y-44.0
X30.0Y-14.5
X31.5Y-44.0
X32.0Y-14.5
X33.5Y-44.0
X34.0Y-14.5
X35.5Y-44.0
X36.0Y-14.5
X37.5Y-83.475
X39.575Y-78.25
X40.65Y-74.0
X42.5Y-80.537
X42.5Y-83.462
X45.5Y-57.0
X45.5Y-59.0
X45.5Y-61.0
X45.5Y-63.0
X45.75Y-74.0
X48.0Y-54.0
X48.0Y-65.5
X54.75Y-22.525
X54.75Y-38.0
X55.0Y-14.5
X56.5Y-86.5
X57.0Y-14.5
X58.5Y-86.5
X59.0Y-14.5
X60.5Y-86.5
X61.0Y-14.5
X62.5Y-86.5
X63.0Y-14.5
X64.19Y-30.721
X64.5Y-86.5
X65.0Y-14.5
X65.46Y-35.962
X66.5Y-86.5
X67.0Y-14.5
X68.0Y-33.5
X68.5Y-86.5
X69.0Y-14.5
X69.0Y-22.5
X69.0Y-54.0
X69.0Y-65.5
X70.5Y-86.5
X71.0Y-14.5
X72.5Y-86.5
X73.0Y-14.5
X75.0Y-14.5
X75.349Y-78.9
X75.349Y-83.1
X76.7Y-70.5
X77.0Y-14.5
X78.0Y-39.275
X79.0Y-14.5
X79.0Y-87.5
X80.037Y-67.0
X80.5Y-77.5
X80.5Y-81.5
X80.5Y-83.5
X80.5Y-85.597
X81.0Y-14.5
X81.0Y-87.5
X81.525Y-20.5
X83.0Y-14.5
X83.0Y-87.5
X83.5Y-77.5
X83.5Y-81.5
X83.5Y-83.5
X83.5Y-85.597
X84.25Y-76.403
X85.0Y-14.5
X85.0Y-29.725
X85.0Y-33.0
X85.0Y-39.275
X85.0Y-87.5
X86.651Y-78.9
X86.651Y-83.1
X87.0Y-14.5
X89.0Y-14.5
X89.445Y-29.725
X90.5Y-102.5
X91.0Y-14.5
X92.5Y-102.5
X93.0Y-14.5
X94.5Y-75.5
X94.5Y-102.5
X96.5Y-75.5
X96.5Y-102.5
X98.5Y-75.5
X98.5Y-102.5
X100.5Y-75.5
X100.5Y-102.5
X102.5Y-24.0
X102.5Y-26.0
X102.5Y-28.0
X102.5Y-30.0
X102.5Y-32.0
X102.5Y-34.0
X102.5Y-36.0
X102.5Y-38.0
X102.5Y-40.0
X102.5Y-42.0
X102.5Y-44.0
X102.5Y-48.0
X102.5Y-50.0
X102.5Y-52.0
X102.5Y-54.0
X102.5Y-56.0
X102.5Y-58.0
X102.5Y-60.0
X102.5Y-62.0
X102.5Y-64.0
X102.5Y-66.0
X102.5Y-68.0
X102.5Y-70.0
X102.5Y-72.0
X102.5Y-75.5
X102.5Y-77.5
X102.5Y-79.5
X102.5Y-81.5
X102.5Y-83.5
X102.5Y-85.5
X102.5Y-87.5
X102.5Y-89.5
X102.5Y-91.5
X102.5Y-93.5
X102.5Y-95.5
X102.5Y-97.5
X102.5Y-99.5
X102.5Y-101.5
T3
X85.0Y-43.8
X85.0Y-56.5
X88.556Y-43.8
X88.556Y-56.5
X92.112Y-43.8
X92.112Y-56.5
T4
X16.0Y-55.0
X16.0Y-57.0
X16.0Y-84.5
X16.0Y-86.5
X18.0Y-55.0
X18.0Y-57.0
X18.0Y-84.5
X18.0Y-86.5
X27.0Y-28.25
X27.0Y-30.25
X29.0Y-28.25
X29.0Y-30.25
X32.0Y-94.0
X32.0Y-96.0
X34.0Y-94.0
X34.0Y-96.0
X49.0Y-94.0
X49.0Y-96.0
X51.0Y-94.0
X51.0Y-96.0
X66.0Y-94.0
X66.0Y-96.0
X68.0Y-94.0
X68.0Y-96.0
X83.0Y-94.0
X83.0Y-96.0
X85.0Y-94.0
X85.0Y-96.0
T5
X28.75Y-77.5
X55.0Y-76.5
X57.5Y-79.0
X60.0Y-17.5
X60.0Y-40.0
X78.5Y-17.5
X82.806Y-62.5
X90.0Y-19.0
X94.306Y-62.5
X97.5Y-82.5
X97.5Y-88.75
X98.5Y-33.5
X100.0Y-66.5
T6
X17.0Y-51.5
X17.0Y-60.5
X17.0Y-81.0
X17.0Y-90.0
X28.0Y-24.75
X28.0Y-33.75
X28.5Y-95.0
X37.5Y-95.0
X45.5Y-95.0
X54.5Y-95.0
X62.5Y-95.0
X71.5Y-95.0
X79.5Y-95.0
X88.5Y-95.0
T7
X78.574Y-50.15
X98.538Y-50.15
T8
X18.5Y-18.5
X21.0Y-98.5
X96.0Y-98.5
X98.5Y-18.5
M30
