%TF.GenerationSoftware,KiCad,Pcbnew,9.0.2-9.0.2-0~ubuntu24.04.1*%
%TF.CreationDate,2025-06-11T15:00:52-05:00*%
%TF.ProjectId,bias-supply,62696173-2d73-4757-9070-6c792e6b6963,0.1*%
%TF.SameCoordinates,Original*%
%TF.FileFunction,Drillmap*%
%TF.FilePolarity,Positive*%
%FSLAX45Y45*%
G04 Gerber Fmt 4.5, Leading zero omitted, Abs format (unit mm)*
G04 Created by KiCad (PCBNEW 9.0.2-9.0.2-0~ubuntu24.04.1) date 2025-06-11 15:00:52*
%MOMM*%
%LPD*%
G01*
G04 APERTURE LIST*
%ADD10C,0.050000*%
%ADD11C,0.200000*%
G04 APERTURE END LIST*
D10*
X1350000Y-1450000D02*
G75*
G02*
X1450000Y-1350000I100000J0D01*
G01*
X9350000Y-10350000D02*
X8950000Y-10350000D01*
X2750000Y-10350000D02*
X2350000Y-10350000D01*
X2850000Y-9950000D02*
X2850000Y-10250000D01*
X1450000Y-10350000D02*
G75*
G02*
X1350000Y-10250000I0J100000D01*
G01*
X8750000Y-9850000D02*
G75*
G02*
X8850000Y-9950000I0J-100000D01*
G01*
X1450000Y-1350000D02*
X10250000Y-1350000D01*
X2850000Y-9950000D02*
G75*
G02*
X2950000Y-9850000I100000J0D01*
G01*
X10350000Y-1450000D02*
X10350000Y-10250000D01*
X8950000Y-10350000D02*
G75*
G02*
X8850000Y-10250000I0J100000D01*
G01*
X10250000Y-1350000D02*
G75*
G02*
X10350000Y-1450000I0J-100000D01*
G01*
X1350000Y-10250000D02*
X1350000Y-1450000D01*
X2850000Y-10250000D02*
G75*
G02*
X2750000Y-10350000I-100000J0D01*
G01*
X8750000Y-9850000D02*
X2950000Y-9850000D01*
X2350000Y-10350000D02*
X1450000Y-10350000D01*
X10250000Y-10350000D02*
X9350000Y-10350000D01*
X10350000Y-10250000D02*
G75*
G02*
X10250000Y-10350000I-100000J0D01*
G01*
X8850000Y-10250000D02*
X8850000Y-9950000D01*
D11*
X1608277Y-10663984D02*
X1608277Y-10463984D01*
X1608277Y-10463984D02*
X1655896Y-10463984D01*
X1655896Y-10463984D02*
X1684467Y-10473508D01*
X1684467Y-10473508D02*
X1703515Y-10492555D01*
X1703515Y-10492555D02*
X1713039Y-10511603D01*
X1713039Y-10511603D02*
X1722562Y-10549698D01*
X1722562Y-10549698D02*
X1722562Y-10578270D01*
X1722562Y-10578270D02*
X1713039Y-10616365D01*
X1713039Y-10616365D02*
X1703515Y-10635412D01*
X1703515Y-10635412D02*
X1684467Y-10654460D01*
X1684467Y-10654460D02*
X1655896Y-10663984D01*
X1655896Y-10663984D02*
X1608277Y-10663984D01*
X1808277Y-10663984D02*
X1808277Y-10530650D01*
X1808277Y-10568746D02*
X1817801Y-10549698D01*
X1817801Y-10549698D02*
X1827324Y-10540174D01*
X1827324Y-10540174D02*
X1846372Y-10530650D01*
X1846372Y-10530650D02*
X1865420Y-10530650D01*
X1932086Y-10663984D02*
X1932086Y-10530650D01*
X1932086Y-10463984D02*
X1922562Y-10473508D01*
X1922562Y-10473508D02*
X1932086Y-10483031D01*
X1932086Y-10483031D02*
X1941610Y-10473508D01*
X1941610Y-10473508D02*
X1932086Y-10463984D01*
X1932086Y-10463984D02*
X1932086Y-10483031D01*
X2055896Y-10663984D02*
X2036848Y-10654460D01*
X2036848Y-10654460D02*
X2027324Y-10635412D01*
X2027324Y-10635412D02*
X2027324Y-10463984D01*
X2160658Y-10663984D02*
X2141610Y-10654460D01*
X2141610Y-10654460D02*
X2132086Y-10635412D01*
X2132086Y-10635412D02*
X2132086Y-10463984D01*
X2389229Y-10663984D02*
X2389229Y-10463984D01*
X2389229Y-10463984D02*
X2455896Y-10606841D01*
X2455896Y-10606841D02*
X2522563Y-10463984D01*
X2522563Y-10463984D02*
X2522563Y-10663984D01*
X2703515Y-10663984D02*
X2703515Y-10559222D01*
X2703515Y-10559222D02*
X2693991Y-10540174D01*
X2693991Y-10540174D02*
X2674944Y-10530650D01*
X2674944Y-10530650D02*
X2636848Y-10530650D01*
X2636848Y-10530650D02*
X2617801Y-10540174D01*
X2703515Y-10654460D02*
X2684467Y-10663984D01*
X2684467Y-10663984D02*
X2636848Y-10663984D01*
X2636848Y-10663984D02*
X2617801Y-10654460D01*
X2617801Y-10654460D02*
X2608277Y-10635412D01*
X2608277Y-10635412D02*
X2608277Y-10616365D01*
X2608277Y-10616365D02*
X2617801Y-10597317D01*
X2617801Y-10597317D02*
X2636848Y-10587793D01*
X2636848Y-10587793D02*
X2684467Y-10587793D01*
X2684467Y-10587793D02*
X2703515Y-10578270D01*
X2798753Y-10530650D02*
X2798753Y-10730650D01*
X2798753Y-10540174D02*
X2817801Y-10530650D01*
X2817801Y-10530650D02*
X2855896Y-10530650D01*
X2855896Y-10530650D02*
X2874943Y-10540174D01*
X2874943Y-10540174D02*
X2884467Y-10549698D01*
X2884467Y-10549698D02*
X2893991Y-10568746D01*
X2893991Y-10568746D02*
X2893991Y-10625889D01*
X2893991Y-10625889D02*
X2884467Y-10644936D01*
X2884467Y-10644936D02*
X2874943Y-10654460D01*
X2874943Y-10654460D02*
X2855896Y-10663984D01*
X2855896Y-10663984D02*
X2817801Y-10663984D01*
X2817801Y-10663984D02*
X2798753Y-10654460D01*
X2979705Y-10644936D02*
X2989229Y-10654460D01*
X2989229Y-10654460D02*
X2979705Y-10663984D01*
X2979705Y-10663984D02*
X2970182Y-10654460D01*
X2970182Y-10654460D02*
X2979705Y-10644936D01*
X2979705Y-10644936D02*
X2979705Y-10663984D01*
X2979705Y-10540174D02*
X2989229Y-10549698D01*
X2989229Y-10549698D02*
X2979705Y-10559222D01*
X2979705Y-10559222D02*
X2970182Y-10549698D01*
X2970182Y-10549698D02*
X2979705Y-10540174D01*
X2979705Y-10540174D02*
X2979705Y-10559222D01*
M02*
