G04 #@! TF.GenerationSoftware,KiCad,Pcbnew,9.0.2-9.0.2-0~ubuntu24.04.1*
G04 #@! TF.CreationDate,2025-06-11T14:59:59-05:00*
G04 #@! TF.ProjectId,bias-supply,62696173-2d73-4757-9070-6c792e6b6963,0.1*
G04 #@! TF.SameCoordinates,Original*
G04 #@! TF.FileFunction,Soldermask,Bot*
G04 #@! TF.FilePolarity,Negative*
%FSLAX46Y46*%
G04 Gerber Fmt 4.6, Leading zero omitted, Abs format (unit mm)*
G04 Created by KiCad (PCBNEW 9.0.2-9.0.2-0~ubuntu24.04.1) date 2025-06-11 14:59:59*
%MOMM*%
%LPD*%
G01*
G04 APERTURE LIST*
G04 Aperture macros list*
%AMRoundRect*
0 Rectangle with rounded corners*
0 $1 Rounding radius*
0 $2 $3 $4 $5 $6 $7 $8 $9 X,Y pos of 4 corners*
0 Add a 4 corners polygon primitive as box body*
4,1,4,$2,$3,$4,$5,$6,$7,$8,$9,$2,$3,0*
0 Add four circle primitives for the rounded corners*
1,1,$1+$1,$2,$3*
1,1,$1+$1,$4,$5*
1,1,$1+$1,$6,$7*
1,1,$1+$1,$8,$9*
0 Add four rect primitives between the rounded corners*
20,1,$1+$1,$2,$3,$4,$5,0*
20,1,$1+$1,$4,$5,$6,$7,0*
20,1,$1+$1,$6,$7,$8,$9,0*
20,1,$1+$1,$8,$9,$2,$3,0*%
G04 Aperture macros list end*
%ADD10C,1.270000*%
%ADD11C,2.362200*%
%ADD12C,2.000000*%
%ADD13C,6.400000*%
%ADD14C,1.214000*%
%ADD15C,2.891000*%
%ADD16RoundRect,0.250000X0.625000X-0.312500X0.625000X0.312500X-0.625000X0.312500X-0.625000X-0.312500X0*%
%ADD17RoundRect,0.250000X0.312500X0.625000X-0.312500X0.625000X-0.312500X-0.625000X0.312500X-0.625000X0*%
%ADD18RoundRect,0.250000X-0.650000X0.325000X-0.650000X-0.325000X0.650000X-0.325000X0.650000X0.325000X0*%
%ADD19RoundRect,0.250000X0.650000X-0.325000X0.650000X0.325000X-0.650000X0.325000X-0.650000X-0.325000X0*%
%ADD20R,1.500000X1.000000*%
%ADD21RoundRect,0.250000X-0.625000X0.312500X-0.625000X-0.312500X0.625000X-0.312500X0.625000X0.312500X0*%
%ADD22R,1.000000X1.500000*%
%ADD23RoundRect,0.250000X-0.312500X-0.625000X0.312500X-0.625000X0.312500X0.625000X-0.312500X0.625000X0*%
G04 APERTURE END LIST*
G36*
X41250000Y-58325000D02*
G01*
X39750000Y-58325000D01*
X39750000Y-58025000D01*
X41250000Y-58025000D01*
X41250000Y-58325000D01*
G37*
G36*
X29000000Y-66150000D02*
G01*
X27500000Y-66150000D01*
X27500000Y-65850000D01*
X29000000Y-65850000D01*
X29000000Y-66150000D01*
G37*
G36*
X93388000Y-50900000D02*
G01*
X93688000Y-50900000D01*
X93688000Y-49400000D01*
X93388000Y-49400000D01*
X93388000Y-50900000D01*
G37*
G36*
X83724000Y-49400000D02*
G01*
X83424000Y-49400000D01*
X83424000Y-50900000D01*
X83724000Y-50900000D01*
X83724000Y-49400000D01*
G37*
G36*
X89306000Y-52750000D02*
G01*
X87806000Y-52750000D01*
X87806000Y-52450000D01*
X89306000Y-52450000D01*
X89306000Y-52750000D01*
G37*
G36*
X31500000Y-66150000D02*
G01*
X30000000Y-66150000D01*
X30000000Y-65850000D01*
X31500000Y-65850000D01*
X31500000Y-66150000D01*
G37*
D10*
X66000000Y-96000000D03*
X68000001Y-96000000D03*
X66000000Y-93999999D03*
X68000001Y-93999999D03*
D11*
X62500001Y-95000000D03*
X71499999Y-95000000D03*
D12*
X97500000Y-82500000D03*
X60000000Y-17500000D03*
X60000000Y-40000000D03*
X94306000Y-62500000D03*
X90000000Y-19000000D03*
D10*
X16000000Y-84500001D03*
X16000000Y-86500002D03*
X18000001Y-84500001D03*
X18000001Y-86500002D03*
D11*
X17000000Y-81000002D03*
X17000000Y-90000000D03*
D10*
X32000000Y-96000000D03*
X34000001Y-96000000D03*
X32000000Y-93999999D03*
X34000001Y-93999999D03*
D11*
X28500001Y-95000000D03*
X37499999Y-95000000D03*
D13*
X96000000Y-98500000D03*
X18500000Y-18500000D03*
D14*
X85000000Y-56500000D03*
X88556000Y-56500000D03*
X92112000Y-56500000D03*
X92112000Y-43800000D03*
X88556000Y-43800000D03*
X85000000Y-43800000D03*
D15*
X78574000Y-50150000D03*
X98538000Y-50150000D03*
D12*
X100000000Y-66500000D03*
D10*
X83000000Y-96000000D03*
X85000001Y-96000000D03*
X83000000Y-93999999D03*
X85000001Y-93999999D03*
D11*
X79500001Y-95000000D03*
X88499999Y-95000000D03*
D12*
X98500000Y-33500000D03*
X55000000Y-76500000D03*
X78500000Y-17500000D03*
D13*
X98500000Y-18500000D03*
D12*
X82806000Y-62500000D03*
D10*
X49000000Y-96000000D03*
X51000001Y-96000000D03*
X49000000Y-93999999D03*
X51000001Y-93999999D03*
D11*
X45500001Y-95000000D03*
X54499999Y-95000000D03*
D10*
X27000000Y-28250000D03*
X27000000Y-30250001D03*
X29000001Y-28250000D03*
X29000001Y-30250001D03*
D11*
X28000000Y-24750001D03*
X28000000Y-33749999D03*
D10*
X16000000Y-55000000D03*
X16000000Y-57000001D03*
X18000001Y-55000000D03*
X18000001Y-57000001D03*
D11*
X17000000Y-51500001D03*
X17000000Y-60499999D03*
D13*
X21000000Y-98500000D03*
D12*
X57500000Y-79000000D03*
X97500000Y-88750000D03*
X28750000Y-77500000D03*
D16*
X20500000Y-89425002D03*
X20500000Y-86500002D03*
D17*
X55962500Y-92500000D03*
X53037500Y-92500000D03*
D18*
X20000000Y-60525000D03*
X20000000Y-63475000D03*
D17*
X22712500Y-54750000D03*
X19787500Y-54750000D03*
X30962500Y-63000000D03*
X28037500Y-63000000D03*
D18*
X22500000Y-60525000D03*
X22500000Y-63475000D03*
D19*
X51000000Y-81475000D03*
X51000000Y-78525000D03*
D16*
X74250000Y-47462500D03*
X74250000Y-44537500D03*
D20*
X40500000Y-58825000D03*
X40500000Y-57525000D03*
D21*
X71750000Y-44537500D03*
X71750000Y-47462500D03*
D17*
X44962500Y-54250000D03*
X42037500Y-54250000D03*
D20*
X28250000Y-66650000D03*
X28250000Y-65350000D03*
D21*
X62750000Y-44537500D03*
X62750000Y-47462500D03*
D17*
X44962500Y-51750000D03*
X42037500Y-51750000D03*
X22712500Y-57250000D03*
X19787500Y-57250000D03*
D21*
X65250000Y-44537500D03*
X65250000Y-47462500D03*
D17*
X89962500Y-92500000D03*
X87037500Y-92500000D03*
X72962500Y-92500000D03*
X70037500Y-92500000D03*
D21*
X69250000Y-44537500D03*
X69250000Y-47462500D03*
D22*
X92888000Y-50150000D03*
X94188000Y-50150000D03*
X84224000Y-50150000D03*
X82924000Y-50150000D03*
D23*
X75787500Y-78900000D03*
X78712500Y-78900000D03*
D20*
X88556000Y-53250000D03*
X88556000Y-51950000D03*
X30750000Y-66650000D03*
X30750000Y-65350000D03*
D21*
X60250000Y-44537500D03*
X60250000Y-47462500D03*
D23*
X24037500Y-51500000D03*
X26962500Y-51500000D03*
D21*
X54750000Y-44537500D03*
X54750000Y-47462500D03*
D17*
X52462500Y-74500000D03*
X49537500Y-74500000D03*
X38962500Y-92500000D03*
X36037500Y-92500000D03*
M02*
