G04 #@! TF.GenerationSoftware,KiCad,Pcbnew,9.0.2-9.0.2-0~ubuntu24.04.1*
G04 #@! TF.CreationDate,2025-06-11T14:59:59-05:00*
G04 #@! TF.ProjectId,bias-supply,62696173-2d73-4757-9070-6c792e6b6963,0.1*
G04 #@! TF.SameCoordinates,Original*
G04 #@! TF.FileFunction,Soldermask,Top*
G04 #@! TF.FilePolarity,Negative*
%FSLAX46Y46*%
G04 Gerber Fmt 4.6, Leading zero omitted, Abs format (unit mm)*
G04 Created by KiCad (PCBNEW 9.0.2-9.0.2-0~ubuntu24.04.1) date 2025-06-11 14:59:59*
%MOMM*%
%LPD*%
G01*
G04 APERTURE LIST*
G04 Aperture macros list*
%AMRoundRect*
0 Rectangle with rounded corners*
0 $1 Rounding radius*
0 $2 $3 $4 $5 $6 $7 $8 $9 X,Y pos of 4 corners*
0 Add a 4 corners polygon primitive as box body*
4,1,4,$2,$3,$4,$5,$6,$7,$8,$9,$2,$3,0*
0 Add four circle primitives for the rounded corners*
1,1,$1+$1,$2,$3*
1,1,$1+$1,$4,$5*
1,1,$1+$1,$6,$7*
1,1,$1+$1,$8,$9*
0 Add four rect primitives between the rounded corners*
20,1,$1+$1,$2,$3,$4,$5,0*
20,1,$1+$1,$4,$5,$6,$7,0*
20,1,$1+$1,$6,$7,$8,$9,0*
20,1,$1+$1,$8,$9,$2,$3,0*%
%AMFreePoly0*
4,1,9,3.862500,-0.866500,0.737500,-0.866500,0.737500,-0.450000,-1.287500,-0.450000,-1.287500,0.450000,0.737500,0.450000,0.737500,0.866500,3.862500,0.866500,3.862500,-0.866500,3.862500,-0.866500,$1*%
G04 Aperture macros list end*
%ADD10R,0.254000X0.609600*%
%ADD11R,2.387600X1.651000*%
%ADD12R,1.000000X1.500000*%
%ADD13RoundRect,0.250000X-0.650000X0.325000X-0.650000X-0.325000X0.650000X-0.325000X0.650000X0.325000X0*%
%ADD14RoundRect,0.250000X0.312500X0.625000X-0.312500X0.625000X-0.312500X-0.625000X0.312500X-0.625000X0*%
%ADD15R,1.257300X0.508000*%
%ADD16R,1.727200X1.701800*%
%ADD17RoundRect,0.225000X-0.225000X-0.375000X0.225000X-0.375000X0.225000X0.375000X-0.225000X0.375000X0*%
%ADD18C,1.270000*%
%ADD19C,2.362200*%
%ADD20C,2.000000*%
%ADD21RoundRect,0.250000X-1.750000X-1.000000X1.750000X-1.000000X1.750000X1.000000X-1.750000X1.000000X0*%
%ADD22RoundRect,0.250000X0.650000X-0.325000X0.650000X0.325000X-0.650000X0.325000X-0.650000X-0.325000X0*%
%ADD23RoundRect,0.250000X-0.625000X0.312500X-0.625000X-0.312500X0.625000X-0.312500X0.625000X0.312500X0*%
%ADD24RoundRect,0.250000X0.625000X-0.312500X0.625000X0.312500X-0.625000X0.312500X-0.625000X-0.312500X0*%
%ADD25R,0.355600X1.473200*%
%ADD26R,3.581400X2.946400*%
%ADD27RoundRect,0.250000X-0.325000X-0.650000X0.325000X-0.650000X0.325000X0.650000X-0.325000X0.650000X0*%
%ADD28RoundRect,0.250000X0.700000X-0.275000X0.700000X0.275000X-0.700000X0.275000X-0.700000X-0.275000X0*%
%ADD29C,6.400000*%
%ADD30RoundRect,0.250000X-0.275000X-0.700000X0.275000X-0.700000X0.275000X0.700000X-0.275000X0.700000X0*%
%ADD31RoundRect,0.250000X0.650000X2.450000X-0.650000X2.450000X-0.650000X-2.450000X0.650000X-2.450000X0*%
%ADD32C,1.214000*%
%ADD33C,2.891000*%
%ADD34RoundRect,0.225000X0.375000X-0.225000X0.375000X0.225000X-0.375000X0.225000X-0.375000X-0.225000X0*%
%ADD35RoundRect,0.250000X1.750000X1.000000X-1.750000X1.000000X-1.750000X-1.000000X1.750000X-1.000000X0*%
%ADD36RoundRect,0.250000X0.550000X-0.400000X0.550000X0.400000X-0.550000X0.400000X-0.550000X-0.400000X0*%
%ADD37RoundRect,0.250000X0.550000X-0.750000X0.550000X0.750000X-0.550000X0.750000X-0.550000X-0.750000X0*%
%ADD38R,0.762000X1.803400*%
%ADD39RoundRect,0.250000X-0.700000X0.275000X-0.700000X-0.275000X0.700000X-0.275000X0.700000X0.275000X0*%
%ADD40RoundRect,0.250000X0.325000X0.650000X-0.325000X0.650000X-0.325000X-0.650000X0.325000X-0.650000X0*%
%ADD41R,0.532600X1.454899*%
%ADD42R,1.600200X1.397000*%
%ADD43R,2.590800X0.711200*%
%ADD44R,7.086600X0.711200*%
%ADD45RoundRect,0.250000X-0.312500X-0.625000X0.312500X-0.625000X0.312500X0.625000X-0.312500X0.625000X0*%
%ADD46RoundRect,0.250000X-0.550000X0.400000X-0.550000X-0.400000X0.550000X-0.400000X0.550000X0.400000X0*%
%ADD47RoundRect,0.250000X-0.550000X0.750000X-0.550000X-0.750000X0.550000X-0.750000X0.550000X0.750000X0*%
%ADD48R,1.460500X0.533400*%
%ADD49R,0.650000X1.750000*%
%ADD50RoundRect,0.225000X0.225000X-0.500000X0.225000X0.500000X-0.225000X0.500000X-0.225000X-0.500000X0*%
%ADD51FreePoly0,90.000000*%
%ADD52R,4.600000X2.250000*%
G04 APERTURE END LIST*
G36*
X36850000Y-26750000D02*
G01*
X37150000Y-26750000D01*
X37150000Y-28250000D01*
X36850000Y-28250000D01*
X36850000Y-26750000D01*
G37*
G36*
X37150000Y-31750000D02*
G01*
X36850000Y-31750000D01*
X36850000Y-30250000D01*
X37150000Y-30250000D01*
X37150000Y-31750000D01*
G37*
G36*
X28925000Y-68500000D02*
G01*
X29225000Y-68500000D01*
X29225000Y-70000000D01*
X28925000Y-70000000D01*
X28925000Y-68500000D01*
G37*
G36*
X28925000Y-71000000D02*
G01*
X29225000Y-71000000D01*
X29225000Y-72500000D01*
X28925000Y-72500000D01*
X28925000Y-71000000D01*
G37*
G36*
X77500000Y-71250000D02*
G01*
X77200000Y-71250000D01*
X77200000Y-69750000D01*
X77500000Y-69750000D01*
X77500000Y-71250000D01*
G37*
D10*
X32000001Y-59100000D03*
X31499999Y-59100000D03*
X31000000Y-59100000D03*
X30500001Y-59100000D03*
X29999999Y-59100000D03*
X29999999Y-61900000D03*
X30500001Y-61900000D03*
X31000000Y-61900000D03*
X31499999Y-61900000D03*
X32000001Y-61900000D03*
D11*
X31000000Y-60500000D03*
D12*
X36350000Y-27500000D03*
X37650000Y-27500000D03*
D13*
X54750000Y-22525000D03*
X54750000Y-25475000D03*
X67500000Y-81525000D03*
X67500000Y-84475000D03*
D14*
X82962500Y-67000000D03*
X80037500Y-67000000D03*
D15*
X38678050Y-55474999D03*
X38678050Y-54825001D03*
X38678050Y-54174999D03*
X38678050Y-53525001D03*
X34321950Y-53525001D03*
X34321950Y-54174999D03*
X34321950Y-54825001D03*
X34321950Y-55474999D03*
D16*
X36500000Y-54500000D03*
D17*
X67750000Y-75500000D03*
X71050000Y-75500000D03*
D18*
X66000000Y-96000000D03*
X68000001Y-96000000D03*
X66000000Y-93999999D03*
X68000001Y-93999999D03*
D19*
X62500001Y-95000000D03*
X71499999Y-95000000D03*
D20*
X97500000Y-82500000D03*
X60000000Y-17500000D03*
X60000000Y-40000000D03*
D21*
X61000000Y-54000000D03*
X69000000Y-54000000D03*
D22*
X65000000Y-79500000D03*
X65000000Y-76550000D03*
D23*
X30000000Y-49037500D03*
X30000000Y-51962500D03*
X51500000Y-76537500D03*
X51500000Y-79462500D03*
D20*
X94306000Y-62500000D03*
D12*
X37650000Y-31000000D03*
X36350000Y-31000000D03*
D24*
X82527500Y-27462500D03*
X82527500Y-24537500D03*
D13*
X37250000Y-39525000D03*
X37250000Y-42475000D03*
D20*
X90000000Y-19000000D03*
D25*
X44724160Y-83819400D03*
X45374400Y-83819400D03*
X46024640Y-83819400D03*
X46674880Y-83819400D03*
X47325120Y-83819400D03*
X47975360Y-83819400D03*
X48625600Y-83819400D03*
X49275840Y-83819400D03*
X49275840Y-78180600D03*
X48625600Y-78180600D03*
X47975360Y-78180600D03*
X47325120Y-78180600D03*
X46674880Y-78180600D03*
X46024640Y-78180600D03*
X45374400Y-78180600D03*
X44724160Y-78180600D03*
D26*
X47000000Y-81000000D03*
D18*
X16000000Y-84500001D03*
X16000000Y-86500002D03*
X18000001Y-84500001D03*
X18000001Y-86500002D03*
D19*
X17000000Y-81000002D03*
X17000000Y-90000000D03*
D22*
X37250000Y-37475000D03*
X37250000Y-34525000D03*
D24*
X73975000Y-30462500D03*
X73975000Y-27537500D03*
D23*
X62990000Y-33037500D03*
X62990000Y-35962500D03*
D27*
X35025000Y-57750000D03*
X37975000Y-57750000D03*
D28*
X62500000Y-84575000D03*
X62500000Y-81425000D03*
D18*
X32000000Y-96000000D03*
X34000001Y-96000000D03*
X32000000Y-93999999D03*
X34000001Y-93999999D03*
D19*
X28500001Y-95000000D03*
X37499999Y-95000000D03*
D29*
X96000000Y-98500000D03*
D30*
X50675000Y-29250000D03*
X53825000Y-29250000D03*
D31*
X45750000Y-74000000D03*
X40650000Y-74000000D03*
D29*
X18500000Y-18500000D03*
D22*
X60000000Y-84475000D03*
X60000000Y-81525000D03*
D32*
X85000000Y-56500000D03*
X88556000Y-56500000D03*
X92112000Y-56500000D03*
X92112000Y-43800000D03*
X88556000Y-43800000D03*
X85000000Y-43800000D03*
D33*
X78574000Y-50150000D03*
X98538000Y-50150000D03*
D34*
X73500000Y-64150000D03*
X73500000Y-60850000D03*
D21*
X61000000Y-65500000D03*
X69000000Y-65500000D03*
D13*
X73975000Y-22525000D03*
X73975000Y-25475000D03*
X65000000Y-81525000D03*
X65000000Y-84475000D03*
D35*
X56000000Y-65500000D03*
X48000000Y-65500000D03*
D22*
X54750000Y-20475000D03*
X54750000Y-17525000D03*
D36*
X32100000Y-82750000D03*
D37*
X35000000Y-84000000D03*
D36*
X32100000Y-85250000D03*
D24*
X62500000Y-79500000D03*
X62500000Y-76575000D03*
D38*
X87306000Y-65959100D03*
X89806000Y-65959100D03*
X89806000Y-60040900D03*
X87306000Y-60040900D03*
D39*
X57500000Y-81425000D03*
X57500000Y-84575000D03*
D20*
X100000000Y-66500000D03*
D18*
X83000000Y-96000000D03*
X85000001Y-96000000D03*
X83000000Y-93999999D03*
X85000001Y-93999999D03*
D19*
X79500001Y-95000000D03*
X88499999Y-95000000D03*
D20*
X98500000Y-33500000D03*
D23*
X65460000Y-33037500D03*
X65460000Y-35962500D03*
D40*
X70950000Y-33500000D03*
X68000000Y-33500000D03*
D24*
X42500000Y-83462500D03*
X42500000Y-80537500D03*
D20*
X55000000Y-76500000D03*
D41*
X64190000Y-30721348D03*
X65460000Y-30721348D03*
X66730000Y-30721348D03*
X68000000Y-30721348D03*
X69270000Y-30721348D03*
X70540000Y-30721348D03*
X71810000Y-30721348D03*
X71810000Y-25278652D03*
X70540000Y-25278652D03*
X69270000Y-25278652D03*
X68000000Y-25278652D03*
X66730000Y-25278652D03*
X65460000Y-25278652D03*
X64190000Y-25278652D03*
D42*
X75348500Y-78900002D03*
X86651500Y-78900002D03*
X75348500Y-83099998D03*
X86651500Y-83099998D03*
D43*
X84250000Y-76402600D03*
D44*
X82000000Y-85597400D03*
D45*
X68012500Y-36000000D03*
X70937500Y-36000000D03*
D24*
X80055000Y-27462500D03*
X80055000Y-24537500D03*
D27*
X35025000Y-62750000D03*
X37975000Y-62750000D03*
D20*
X78500000Y-17500000D03*
D46*
X90950000Y-26750000D03*
D47*
X88050000Y-25500000D03*
D46*
X90950000Y-24250000D03*
D29*
X98500000Y-18500000D03*
D13*
X60500000Y-33025000D03*
X60500000Y-35975000D03*
D48*
X22775850Y-54095000D03*
X22775850Y-55365000D03*
X22775850Y-56635000D03*
X22775850Y-57905000D03*
X28224150Y-57905000D03*
X28224150Y-56635000D03*
X28224150Y-55365000D03*
X28224150Y-54095000D03*
D13*
X40500000Y-57525000D03*
X40500000Y-60475000D03*
D20*
X82806000Y-62500000D03*
D22*
X54750000Y-35975000D03*
X54750000Y-33025000D03*
D24*
X40000000Y-83462500D03*
X40000000Y-80537500D03*
D18*
X49000000Y-96000000D03*
X51000001Y-96000000D03*
X49000000Y-93999999D03*
X51000001Y-93999999D03*
D19*
X45500001Y-95000000D03*
X54499999Y-95000000D03*
D13*
X54750000Y-38025000D03*
X54750000Y-40975000D03*
D35*
X56000000Y-54000000D03*
X48000000Y-54000000D03*
D12*
X28425000Y-69250000D03*
X29725000Y-69250000D03*
D49*
X89445000Y-29725000D03*
X88175000Y-29725000D03*
X86905000Y-29725000D03*
X85635000Y-29725000D03*
X84365000Y-29725000D03*
X83095000Y-29725000D03*
X81825000Y-29725000D03*
X80555000Y-29725000D03*
X80555000Y-39275000D03*
X81825000Y-39275000D03*
X83095000Y-39275000D03*
X84365000Y-39275000D03*
X85635000Y-39275000D03*
X86905000Y-39275000D03*
X88175000Y-39275000D03*
X89445000Y-39275000D03*
D40*
X84475000Y-20500000D03*
X81525000Y-20500000D03*
X71950000Y-22500000D03*
X69000000Y-22500000D03*
D18*
X27000000Y-28250000D03*
X27000000Y-30250001D03*
X29000001Y-28250000D03*
X29000001Y-30250001D03*
D19*
X28000000Y-24750001D03*
X28000000Y-33749999D03*
D18*
X16000000Y-55000000D03*
X16000000Y-57000001D03*
X18000001Y-55000000D03*
X18000001Y-57000001D03*
D19*
X17000000Y-51500001D03*
X17000000Y-60499999D03*
D45*
X75075000Y-67000000D03*
X78000000Y-67000000D03*
D12*
X28425000Y-71750000D03*
X29725000Y-71750000D03*
D50*
X76500000Y-64525000D03*
D51*
X78000000Y-64000000D03*
D50*
X79500000Y-64525000D03*
D29*
X21000000Y-98500000D03*
D22*
X37500000Y-83475000D03*
X37500000Y-80525000D03*
D13*
X40500000Y-48525000D03*
X40500000Y-51475000D03*
D22*
X64000000Y-22975000D03*
X64000000Y-20025000D03*
D23*
X22500000Y-87037500D03*
X22500000Y-89962500D03*
D20*
X57500000Y-79000000D03*
D24*
X22500000Y-83962500D03*
X22500000Y-81037500D03*
D27*
X35025000Y-60250000D03*
X37975000Y-60250000D03*
D14*
X42500000Y-78250000D03*
X39575000Y-78250000D03*
D23*
X32500000Y-49037500D03*
X32500000Y-51962500D03*
D24*
X85000000Y-27462500D03*
X85000000Y-24537500D03*
D45*
X32037500Y-80000000D03*
X34962500Y-80000000D03*
D20*
X97500000Y-88750000D03*
X28750000Y-77500000D03*
D23*
X92500000Y-72287500D03*
X92500000Y-75212500D03*
D24*
X66730000Y-22962500D03*
X66730000Y-20037500D03*
D22*
X37250000Y-18975000D03*
X37250000Y-16025000D03*
D13*
X92000000Y-29725000D03*
X92000000Y-32675000D03*
D12*
X78000000Y-70500000D03*
X76700000Y-70500000D03*
D52*
X41450000Y-35625000D03*
X41450000Y-39375000D03*
X50550000Y-39375000D03*
X50550000Y-35625000D03*
D40*
X70950000Y-38500000D03*
X68000000Y-38500000D03*
D13*
X37250000Y-21025000D03*
X37250000Y-23975000D03*
D22*
X55000000Y-84475000D03*
X55000000Y-81525000D03*
D24*
X62000000Y-29462500D03*
X62000000Y-26537500D03*
D52*
X41450000Y-19125000D03*
X41450000Y-22875000D03*
X50550000Y-22875000D03*
X50550000Y-19125000D03*
D13*
X78000000Y-36325000D03*
X78000000Y-39275000D03*
D40*
X37975000Y-51250000D03*
X35025000Y-51250000D03*
M02*
