M48
; DRILL file {KiCad 8.0.2-8.0.2-0~ubuntu22.04.1} date 2024-05-22T14:53:28-0500
; FORMAT={-:-/ absolute / metric / decimal}
; #@! TF.CreationDate,2024-05-22T14:53:28-05:00
; #@! TF.GenerationSoftware,Kicad,Pcbnew,8.0.2-8.0.2-0~ubuntu22.04.1
; #@! TF.FileFunction,Plated,1,2,PTH
FMAT,2
METRIC
; #@! TA.AperFunction,Plated,PTH,ViaDrill
T1C0.400
; #@! TA.AperFunction,Plated,PTH,ComponentDrill
T2C0.708
; #@! TA.AperFunction,Plated,PTH,ComponentDrill
T3C1.000
; #@! TA.AperFunction,Plated,PTH,ComponentDrill
T4C1.520
; #@! TA.AperFunction,Plated,PTH,ComponentDrill
T5C1.600
; #@! TA.AperFunction,Plated,PTH,ComponentDrill
T6C1.927
; #@! TA.AperFunction,Plated,PTH,ComponentDrill
T7C3.500
%
G90
G05
T1
X107.5Y-65.5
X107.5Y-67.5
X107.5Y-69.5
X107.5Y-71.5
X107.5Y-73.5
X107.5Y-75.5
X107.5Y-77.5
X107.5Y-79.5
X107.5Y-81.5
X107.5Y-83.5
X107.5Y-85.5
X107.5Y-98.0
X107.5Y-100.0
X107.5Y-102.0
X107.5Y-104.0
X107.5Y-106.0
X107.5Y-108.0
X107.5Y-110.0
X107.5Y-112.0
X107.5Y-114.0
X107.5Y-116.0
X107.5Y-118.0
X107.5Y-120.0
X107.5Y-122.0
X107.5Y-124.0
X107.5Y-126.0
X107.5Y-128.0
X107.5Y-130.0
X107.5Y-132.0
X107.5Y-134.0
X107.5Y-136.0
X107.5Y-141.5
X107.5Y-143.5
X107.5Y-145.5
X108.5Y-137.0
X108.5Y-140.5
X110.5Y-137.0
X110.5Y-140.5
X112.5Y-137.0
X112.5Y-140.5
X114.5Y-137.0
X114.5Y-140.5
X116.5Y-56.5
X116.5Y-137.0
X116.5Y-140.5
X116.5Y-153.5
X118.5Y-56.5
X118.5Y-137.0
X118.5Y-140.5
X118.5Y-153.5
X120.5Y-56.5
X120.5Y-137.0
X120.5Y-140.5
X120.5Y-153.5
X121.0Y-92.75
X121.0Y-95.75
X122.5Y-56.5
X122.5Y-140.5
X122.5Y-153.5
X123.5Y-103.5
X123.5Y-114.5
X124.5Y-56.5
X124.5Y-137.0
X124.5Y-140.5
X124.5Y-153.5
X125.0Y-92.75
X125.0Y-95.75
X126.5Y-56.5
X126.5Y-137.0
X126.5Y-140.5
X126.5Y-153.5
X128.0Y-132.0
X128.5Y-56.5
X128.5Y-137.0
X128.5Y-140.5
X128.5Y-153.5
X130.5Y-56.5
X130.5Y-137.0
X130.5Y-140.5
X130.5Y-153.5
X132.5Y-137.0
X132.5Y-140.5
X132.5Y-153.5
X134.5Y-137.0
X134.5Y-140.5
X134.5Y-153.5
X136.5Y-137.0
X136.5Y-140.5
X136.5Y-153.5
X138.5Y-137.0
X138.5Y-140.5
X138.5Y-153.5
X140.5Y-140.5
X140.5Y-153.5
X142.5Y-140.5
X142.5Y-153.5
X144.5Y-137.0
X144.5Y-140.5
X144.5Y-153.5
X146.5Y-137.0
X146.5Y-140.5
X146.5Y-153.5
X147.0Y-66.25
X147.0Y-79.75
X148.0Y-92.75
X148.0Y-95.75
X148.5Y-56.5
X148.5Y-137.0
X148.5Y-140.5
X148.5Y-153.5
X149.5Y-103.5
X149.5Y-114.5
X150.5Y-56.5
X150.5Y-137.0
X150.5Y-140.5
X150.5Y-153.5
X152.0Y-92.75
X152.0Y-95.75
X152.5Y-56.5
X152.5Y-137.0
X152.5Y-140.5
X152.5Y-153.5
X154.5Y-56.5
X154.5Y-137.0
X154.5Y-140.5
X154.5Y-153.5
X156.5Y-56.5
X156.5Y-137.0
X156.5Y-140.5
X156.5Y-153.5
X156.69Y-75.721
X157.5Y-81.462
X158.5Y-56.5
X158.5Y-137.0
X158.5Y-140.5
X158.5Y-153.5
X159.662Y-121.5
X160.5Y-56.5
X160.5Y-70.25
X160.5Y-75.75
X160.5Y-137.0
X160.5Y-140.5
X160.5Y-153.5
X162.5Y-56.5
X162.5Y-137.0
X162.5Y-140.5
X162.5Y-153.5
X163.037Y-118.0
X164.5Y-56.5
X164.5Y-137.0
X164.5Y-140.5
X164.5Y-153.5
X166.5Y-56.5
X166.5Y-137.0
X166.5Y-140.5
X166.5Y-153.5
X166.725Y-82.865
X168.5Y-56.5
X168.5Y-140.5
X168.5Y-153.5
X170.5Y-56.5
X170.5Y-140.5
X170.5Y-153.5
X172.5Y-56.5
X172.5Y-140.5
X172.5Y-153.5
X174.0Y-121.0
X174.0Y-124.5
X174.0Y-128.0
X174.0Y-131.0
X174.0Y-134.0
X174.0Y-137.097
X174.5Y-56.5
X174.5Y-140.5
X174.5Y-153.5
X176.0Y-121.0
X176.0Y-124.5
X176.275Y-82.865
X176.275Y-87.945
X176.5Y-56.5
X176.5Y-140.5
X176.5Y-153.5
X177.0Y-131.0
X177.0Y-134.0
X177.0Y-137.097
X178.0Y-121.0
X178.0Y-124.5
X178.25Y-127.903
X178.5Y-56.5
X178.5Y-140.5
X178.5Y-153.5
X180.0Y-121.0
X180.0Y-124.5
X180.651Y-134.6
X182.0Y-121.0
X182.0Y-124.5
X184.0Y-121.0
X184.0Y-124.5
X187.5Y-65.5
X187.5Y-67.5
X187.5Y-69.5
X187.5Y-71.5
X187.5Y-73.5
X187.5Y-75.5
X187.5Y-77.5
X187.5Y-79.5
X187.5Y-81.5
X187.5Y-87.5
X187.5Y-89.5
X187.5Y-91.5
X187.5Y-133.5
X187.5Y-135.5
X187.5Y-137.5
X187.5Y-139.5
X187.5Y-141.5
X187.5Y-143.5
X187.5Y-145.5
T2
X168.0Y-92.3
X168.0Y-105.0
X171.556Y-92.3
X171.556Y-105.0
X175.112Y-92.3
X175.112Y-105.0
T3
X117.5Y-127.5
X141.75Y-136.0
X151.0Y-59.5
X151.0Y-86.5
X165.5Y-59.5
X166.5Y-109.75
X172.5Y-67.5
X176.75Y-109.75
X186.0Y-113.75
X186.0Y-129.5
X186.5Y-85.0
T4
X114.0Y-67.92
X114.0Y-73.0
X114.0Y-78.08
X120.5Y-146.5
X125.58Y-146.5
T5
X120.46Y-64.371
X120.46Y-69.451
X120.46Y-76.549
X120.46Y-81.629
X123.0Y-66.911
X123.0Y-79.089
X125.54Y-64.371
X125.54Y-69.451
X125.54Y-76.549
X125.54Y-81.629
X133.645Y-143.96
X133.645Y-149.04
X136.185Y-146.5
X138.725Y-143.96
X138.725Y-149.04
X145.822Y-143.96
X145.822Y-149.04
X148.362Y-146.5
X150.903Y-143.96
X150.903Y-149.04
X158.0Y-143.96
X158.0Y-149.04
X160.54Y-146.5
X163.08Y-143.96
X163.08Y-149.04
X170.177Y-143.96
X170.177Y-149.04
X172.718Y-146.5
X175.257Y-143.96
X175.257Y-149.04
T6
X161.574Y-98.65
X181.538Y-98.65
T7
X111.0Y-60.0
X111.0Y-149.5
X184.0Y-60.0
X184.0Y-149.5
M30
