%TF.GenerationSoftware,KiCad,Pcbnew,8.0.2-8.0.2-0~ubuntu22.04.1*%
%TF.CreationDate,2024-05-22T14:53:29-05:00*%
%TF.ProjectId,bias-supply,62696173-2d73-4757-9070-6c792e6b6963,0.1*%
%TF.SameCoordinates,Original*%
%TF.FileFunction,Drillmap*%
%TF.FilePolarity,Positive*%
%FSLAX45Y45*%
G04 Gerber Fmt 4.5, Leading zero omitted, Abs format (unit mm)*
G04 Created by KiCad (PCBNEW 8.0.2-8.0.2-0~ubuntu22.04.1) date 2024-05-22 14:53:29*
%MOMM*%
%LPD*%
G01*
G04 APERTURE LIST*
%ADD10C,0.100000*%
%ADD11C,0.200000*%
%ADD12C,0.152000*%
%ADD13C,0.160000*%
%ADD14C,0.192720*%
%ADD15C,0.350000*%
G04 APERTURE END LIST*
D10*
X10650000Y-5550000D02*
X18850000Y-5550000D01*
X18850000Y-15450000D01*
X10650000Y-15450000D01*
X10650000Y-5550000D01*
D11*
D10*
X10730000Y-6530000D02*
X10770000Y-6570000D01*
X10770000Y-6530000D02*
X10730000Y-6570000D01*
X10730000Y-6730000D02*
X10770000Y-6770000D01*
X10770000Y-6730000D02*
X10730000Y-6770000D01*
X10730000Y-6930000D02*
X10770000Y-6970000D01*
X10770000Y-6930000D02*
X10730000Y-6970000D01*
X10730000Y-7130000D02*
X10770000Y-7170000D01*
X10770000Y-7130000D02*
X10730000Y-7170000D01*
X10730000Y-7330000D02*
X10770000Y-7370000D01*
X10770000Y-7330000D02*
X10730000Y-7370000D01*
X10730000Y-7530000D02*
X10770000Y-7570000D01*
X10770000Y-7530000D02*
X10730000Y-7570000D01*
X10730000Y-7730000D02*
X10770000Y-7770000D01*
X10770000Y-7730000D02*
X10730000Y-7770000D01*
X10730000Y-7930000D02*
X10770000Y-7970000D01*
X10770000Y-7930000D02*
X10730000Y-7970000D01*
X10730000Y-8130000D02*
X10770000Y-8170000D01*
X10770000Y-8130000D02*
X10730000Y-8170000D01*
X10730000Y-8330000D02*
X10770000Y-8370000D01*
X10770000Y-8330000D02*
X10730000Y-8370000D01*
X10730000Y-8530000D02*
X10770000Y-8570000D01*
X10770000Y-8530000D02*
X10730000Y-8570000D01*
X10730000Y-9780000D02*
X10770000Y-9820000D01*
X10770000Y-9780000D02*
X10730000Y-9820000D01*
X10730000Y-9980000D02*
X10770000Y-10020000D01*
X10770000Y-9980000D02*
X10730000Y-10020000D01*
X10730000Y-10180000D02*
X10770000Y-10220000D01*
X10770000Y-10180000D02*
X10730000Y-10220000D01*
X10730000Y-10380000D02*
X10770000Y-10420000D01*
X10770000Y-10380000D02*
X10730000Y-10420000D01*
X10730000Y-10580000D02*
X10770000Y-10620000D01*
X10770000Y-10580000D02*
X10730000Y-10620000D01*
X10730000Y-10780000D02*
X10770000Y-10820000D01*
X10770000Y-10780000D02*
X10730000Y-10820000D01*
X10730000Y-10980000D02*
X10770000Y-11020000D01*
X10770000Y-10980000D02*
X10730000Y-11020000D01*
X10730000Y-11180000D02*
X10770000Y-11220000D01*
X10770000Y-11180000D02*
X10730000Y-11220000D01*
X10730000Y-11380000D02*
X10770000Y-11420000D01*
X10770000Y-11380000D02*
X10730000Y-11420000D01*
X10730000Y-11580000D02*
X10770000Y-11620000D01*
X10770000Y-11580000D02*
X10730000Y-11620000D01*
X10730000Y-11780000D02*
X10770000Y-11820000D01*
X10770000Y-11780000D02*
X10730000Y-11820000D01*
X10730000Y-11980000D02*
X10770000Y-12020000D01*
X10770000Y-11980000D02*
X10730000Y-12020000D01*
X10730000Y-12180000D02*
X10770000Y-12220000D01*
X10770000Y-12180000D02*
X10730000Y-12220000D01*
X10730000Y-12380000D02*
X10770000Y-12420000D01*
X10770000Y-12380000D02*
X10730000Y-12420000D01*
X10730000Y-12580000D02*
X10770000Y-12620000D01*
X10770000Y-12580000D02*
X10730000Y-12620000D01*
X10730000Y-12780000D02*
X10770000Y-12820000D01*
X10770000Y-12780000D02*
X10730000Y-12820000D01*
X10730000Y-12980000D02*
X10770000Y-13020000D01*
X10770000Y-12980000D02*
X10730000Y-13020000D01*
X10730000Y-13180000D02*
X10770000Y-13220000D01*
X10770000Y-13180000D02*
X10730000Y-13220000D01*
X10730000Y-13380000D02*
X10770000Y-13420000D01*
X10770000Y-13380000D02*
X10730000Y-13420000D01*
X10730000Y-13580000D02*
X10770000Y-13620000D01*
X10770000Y-13580000D02*
X10730000Y-13620000D01*
X10730000Y-14130000D02*
X10770000Y-14170000D01*
X10770000Y-14130000D02*
X10730000Y-14170000D01*
X10730000Y-14330000D02*
X10770000Y-14370000D01*
X10770000Y-14330000D02*
X10730000Y-14370000D01*
X10730000Y-14530000D02*
X10770000Y-14570000D01*
X10770000Y-14530000D02*
X10730000Y-14570000D01*
X10830000Y-13680000D02*
X10870000Y-13720000D01*
X10870000Y-13680000D02*
X10830000Y-13720000D01*
X10830000Y-14030000D02*
X10870000Y-14070000D01*
X10870000Y-14030000D02*
X10830000Y-14070000D01*
X11030000Y-13680000D02*
X11070000Y-13720000D01*
X11070000Y-13680000D02*
X11030000Y-13720000D01*
X11030000Y-14030000D02*
X11070000Y-14070000D01*
X11070000Y-14030000D02*
X11030000Y-14070000D01*
X11230000Y-13680000D02*
X11270000Y-13720000D01*
X11270000Y-13680000D02*
X11230000Y-13720000D01*
X11230000Y-14030000D02*
X11270000Y-14070000D01*
X11270000Y-14030000D02*
X11230000Y-14070000D01*
X11430000Y-13680000D02*
X11470000Y-13720000D01*
X11470000Y-13680000D02*
X11430000Y-13720000D01*
X11430000Y-14030000D02*
X11470000Y-14070000D01*
X11470000Y-14030000D02*
X11430000Y-14070000D01*
X11630000Y-5630000D02*
X11670000Y-5670000D01*
X11670000Y-5630000D02*
X11630000Y-5670000D01*
X11630000Y-13680000D02*
X11670000Y-13720000D01*
X11670000Y-13680000D02*
X11630000Y-13720000D01*
X11630000Y-14030000D02*
X11670000Y-14070000D01*
X11670000Y-14030000D02*
X11630000Y-14070000D01*
X11630000Y-15330000D02*
X11670000Y-15370000D01*
X11670000Y-15330000D02*
X11630000Y-15370000D01*
X11830000Y-5630000D02*
X11870000Y-5670000D01*
X11870000Y-5630000D02*
X11830000Y-5670000D01*
X11830000Y-13680000D02*
X11870000Y-13720000D01*
X11870000Y-13680000D02*
X11830000Y-13720000D01*
X11830000Y-14030000D02*
X11870000Y-14070000D01*
X11870000Y-14030000D02*
X11830000Y-14070000D01*
X11830000Y-15330000D02*
X11870000Y-15370000D01*
X11870000Y-15330000D02*
X11830000Y-15370000D01*
X12030000Y-5630000D02*
X12070000Y-5670000D01*
X12070000Y-5630000D02*
X12030000Y-5670000D01*
X12030000Y-13680000D02*
X12070000Y-13720000D01*
X12070000Y-13680000D02*
X12030000Y-13720000D01*
X12030000Y-14030000D02*
X12070000Y-14070000D01*
X12070000Y-14030000D02*
X12030000Y-14070000D01*
X12030000Y-15330000D02*
X12070000Y-15370000D01*
X12070000Y-15330000D02*
X12030000Y-15370000D01*
X12080000Y-9255000D02*
X12120000Y-9295000D01*
X12120000Y-9255000D02*
X12080000Y-9295000D01*
X12080000Y-9555000D02*
X12120000Y-9595000D01*
X12120000Y-9555000D02*
X12080000Y-9595000D01*
X12230000Y-5630000D02*
X12270000Y-5670000D01*
X12270000Y-5630000D02*
X12230000Y-5670000D01*
X12230000Y-14030000D02*
X12270000Y-14070000D01*
X12270000Y-14030000D02*
X12230000Y-14070000D01*
X12230000Y-15330000D02*
X12270000Y-15370000D01*
X12270000Y-15330000D02*
X12230000Y-15370000D01*
X12330000Y-10330000D02*
X12370000Y-10370000D01*
X12370000Y-10330000D02*
X12330000Y-10370000D01*
X12330000Y-11430000D02*
X12370000Y-11470000D01*
X12370000Y-11430000D02*
X12330000Y-11470000D01*
X12430000Y-5630000D02*
X12470000Y-5670000D01*
X12470000Y-5630000D02*
X12430000Y-5670000D01*
X12430000Y-13680000D02*
X12470000Y-13720000D01*
X12470000Y-13680000D02*
X12430000Y-13720000D01*
X12430000Y-14030000D02*
X12470000Y-14070000D01*
X12470000Y-14030000D02*
X12430000Y-14070000D01*
X12430000Y-15330000D02*
X12470000Y-15370000D01*
X12470000Y-15330000D02*
X12430000Y-15370000D01*
X12480000Y-9255000D02*
X12520000Y-9295000D01*
X12520000Y-9255000D02*
X12480000Y-9295000D01*
X12480000Y-9555000D02*
X12520000Y-9595000D01*
X12520000Y-9555000D02*
X12480000Y-9595000D01*
X12630000Y-5630000D02*
X12670000Y-5670000D01*
X12670000Y-5630000D02*
X12630000Y-5670000D01*
X12630000Y-13680000D02*
X12670000Y-13720000D01*
X12670000Y-13680000D02*
X12630000Y-13720000D01*
X12630000Y-14030000D02*
X12670000Y-14070000D01*
X12670000Y-14030000D02*
X12630000Y-14070000D01*
X12630000Y-15330000D02*
X12670000Y-15370000D01*
X12670000Y-15330000D02*
X12630000Y-15370000D01*
X12780000Y-13180000D02*
X12820000Y-13220000D01*
X12820000Y-13180000D02*
X12780000Y-13220000D01*
X12830000Y-5630000D02*
X12870000Y-5670000D01*
X12870000Y-5630000D02*
X12830000Y-5670000D01*
X12830000Y-13680000D02*
X12870000Y-13720000D01*
X12870000Y-13680000D02*
X12830000Y-13720000D01*
X12830000Y-14030000D02*
X12870000Y-14070000D01*
X12870000Y-14030000D02*
X12830000Y-14070000D01*
X12830000Y-15330000D02*
X12870000Y-15370000D01*
X12870000Y-15330000D02*
X12830000Y-15370000D01*
X13030000Y-5630000D02*
X13070000Y-5670000D01*
X13070000Y-5630000D02*
X13030000Y-5670000D01*
X13030000Y-13680000D02*
X13070000Y-13720000D01*
X13070000Y-13680000D02*
X13030000Y-13720000D01*
X13030000Y-14030000D02*
X13070000Y-14070000D01*
X13070000Y-14030000D02*
X13030000Y-14070000D01*
X13030000Y-15330000D02*
X13070000Y-15370000D01*
X13070000Y-15330000D02*
X13030000Y-15370000D01*
X13230000Y-13680000D02*
X13270000Y-13720000D01*
X13270000Y-13680000D02*
X13230000Y-13720000D01*
X13230000Y-14030000D02*
X13270000Y-14070000D01*
X13270000Y-14030000D02*
X13230000Y-14070000D01*
X13230000Y-15330000D02*
X13270000Y-15370000D01*
X13270000Y-15330000D02*
X13230000Y-15370000D01*
X13430000Y-13680000D02*
X13470000Y-13720000D01*
X13470000Y-13680000D02*
X13430000Y-13720000D01*
X13430000Y-14030000D02*
X13470000Y-14070000D01*
X13470000Y-14030000D02*
X13430000Y-14070000D01*
X13430000Y-15330000D02*
X13470000Y-15370000D01*
X13470000Y-15330000D02*
X13430000Y-15370000D01*
X13630000Y-13680000D02*
X13670000Y-13720000D01*
X13670000Y-13680000D02*
X13630000Y-13720000D01*
X13630000Y-14030000D02*
X13670000Y-14070000D01*
X13670000Y-14030000D02*
X13630000Y-14070000D01*
X13630000Y-15330000D02*
X13670000Y-15370000D01*
X13670000Y-15330000D02*
X13630000Y-15370000D01*
X13830000Y-13680000D02*
X13870000Y-13720000D01*
X13870000Y-13680000D02*
X13830000Y-13720000D01*
X13830000Y-14030000D02*
X13870000Y-14070000D01*
X13870000Y-14030000D02*
X13830000Y-14070000D01*
X13830000Y-15330000D02*
X13870000Y-15370000D01*
X13870000Y-15330000D02*
X13830000Y-15370000D01*
X14030000Y-14030000D02*
X14070000Y-14070000D01*
X14070000Y-14030000D02*
X14030000Y-14070000D01*
X14030000Y-15330000D02*
X14070000Y-15370000D01*
X14070000Y-15330000D02*
X14030000Y-15370000D01*
X14230000Y-14030000D02*
X14270000Y-14070000D01*
X14270000Y-14030000D02*
X14230000Y-14070000D01*
X14230000Y-15330000D02*
X14270000Y-15370000D01*
X14270000Y-15330000D02*
X14230000Y-15370000D01*
X14430000Y-13680000D02*
X14470000Y-13720000D01*
X14470000Y-13680000D02*
X14430000Y-13720000D01*
X14430000Y-14030000D02*
X14470000Y-14070000D01*
X14470000Y-14030000D02*
X14430000Y-14070000D01*
X14430000Y-15330000D02*
X14470000Y-15370000D01*
X14470000Y-15330000D02*
X14430000Y-15370000D01*
X14630000Y-13680000D02*
X14670000Y-13720000D01*
X14670000Y-13680000D02*
X14630000Y-13720000D01*
X14630000Y-14030000D02*
X14670000Y-14070000D01*
X14670000Y-14030000D02*
X14630000Y-14070000D01*
X14630000Y-15330000D02*
X14670000Y-15370000D01*
X14670000Y-15330000D02*
X14630000Y-15370000D01*
X14680000Y-6605000D02*
X14720000Y-6645000D01*
X14720000Y-6605000D02*
X14680000Y-6645000D01*
X14680000Y-7955000D02*
X14720000Y-7995000D01*
X14720000Y-7955000D02*
X14680000Y-7995000D01*
X14780000Y-9255000D02*
X14820000Y-9295000D01*
X14820000Y-9255000D02*
X14780000Y-9295000D01*
X14780000Y-9555000D02*
X14820000Y-9595000D01*
X14820000Y-9555000D02*
X14780000Y-9595000D01*
X14830000Y-5630000D02*
X14870000Y-5670000D01*
X14870000Y-5630000D02*
X14830000Y-5670000D01*
X14830000Y-13680000D02*
X14870000Y-13720000D01*
X14870000Y-13680000D02*
X14830000Y-13720000D01*
X14830000Y-14030000D02*
X14870000Y-14070000D01*
X14870000Y-14030000D02*
X14830000Y-14070000D01*
X14830000Y-15330000D02*
X14870000Y-15370000D01*
X14870000Y-15330000D02*
X14830000Y-15370000D01*
X14930000Y-10330000D02*
X14970000Y-10370000D01*
X14970000Y-10330000D02*
X14930000Y-10370000D01*
X14930000Y-11430000D02*
X14970000Y-11470000D01*
X14970000Y-11430000D02*
X14930000Y-11470000D01*
X15030000Y-5630000D02*
X15070000Y-5670000D01*
X15070000Y-5630000D02*
X15030000Y-5670000D01*
X15030000Y-13680000D02*
X15070000Y-13720000D01*
X15070000Y-13680000D02*
X15030000Y-13720000D01*
X15030000Y-14030000D02*
X15070000Y-14070000D01*
X15070000Y-14030000D02*
X15030000Y-14070000D01*
X15030000Y-15330000D02*
X15070000Y-15370000D01*
X15070000Y-15330000D02*
X15030000Y-15370000D01*
X15180000Y-9255000D02*
X15220000Y-9295000D01*
X15220000Y-9255000D02*
X15180000Y-9295000D01*
X15180000Y-9555000D02*
X15220000Y-9595000D01*
X15220000Y-9555000D02*
X15180000Y-9595000D01*
X15230000Y-5630000D02*
X15270000Y-5670000D01*
X15270000Y-5630000D02*
X15230000Y-5670000D01*
X15230000Y-13680000D02*
X15270000Y-13720000D01*
X15270000Y-13680000D02*
X15230000Y-13720000D01*
X15230000Y-14030000D02*
X15270000Y-14070000D01*
X15270000Y-14030000D02*
X15230000Y-14070000D01*
X15230000Y-15330000D02*
X15270000Y-15370000D01*
X15270000Y-15330000D02*
X15230000Y-15370000D01*
X15430000Y-5630000D02*
X15470000Y-5670000D01*
X15470000Y-5630000D02*
X15430000Y-5670000D01*
X15430000Y-13680000D02*
X15470000Y-13720000D01*
X15470000Y-13680000D02*
X15430000Y-13720000D01*
X15430000Y-14030000D02*
X15470000Y-14070000D01*
X15470000Y-14030000D02*
X15430000Y-14070000D01*
X15430000Y-15330000D02*
X15470000Y-15370000D01*
X15470000Y-15330000D02*
X15430000Y-15370000D01*
X15630000Y-5630000D02*
X15670000Y-5670000D01*
X15670000Y-5630000D02*
X15630000Y-5670000D01*
X15630000Y-13680000D02*
X15670000Y-13720000D01*
X15670000Y-13680000D02*
X15630000Y-13720000D01*
X15630000Y-14030000D02*
X15670000Y-14070000D01*
X15670000Y-14030000D02*
X15630000Y-14070000D01*
X15630000Y-15330000D02*
X15670000Y-15370000D01*
X15670000Y-15330000D02*
X15630000Y-15370000D01*
X15649000Y-7552135D02*
X15689000Y-7592135D01*
X15689000Y-7552135D02*
X15649000Y-7592135D01*
X15730000Y-8126250D02*
X15770000Y-8166250D01*
X15770000Y-8126250D02*
X15730000Y-8166250D01*
X15830000Y-5630000D02*
X15870000Y-5670000D01*
X15870000Y-5630000D02*
X15830000Y-5670000D01*
X15830000Y-13680000D02*
X15870000Y-13720000D01*
X15870000Y-13680000D02*
X15830000Y-13720000D01*
X15830000Y-14030000D02*
X15870000Y-14070000D01*
X15870000Y-14030000D02*
X15830000Y-14070000D01*
X15830000Y-15330000D02*
X15870000Y-15370000D01*
X15870000Y-15330000D02*
X15830000Y-15370000D01*
X15946250Y-12130000D02*
X15986250Y-12170000D01*
X15986250Y-12130000D02*
X15946250Y-12170000D01*
X16030000Y-5630000D02*
X16070000Y-5670000D01*
X16070000Y-5630000D02*
X16030000Y-5670000D01*
X16030000Y-7005000D02*
X16070000Y-7045000D01*
X16070000Y-7005000D02*
X16030000Y-7045000D01*
X16030000Y-7555000D02*
X16070000Y-7595000D01*
X16070000Y-7555000D02*
X16030000Y-7595000D01*
X16030000Y-13680000D02*
X16070000Y-13720000D01*
X16070000Y-13680000D02*
X16030000Y-13720000D01*
X16030000Y-14030000D02*
X16070000Y-14070000D01*
X16070000Y-14030000D02*
X16030000Y-14070000D01*
X16030000Y-15330000D02*
X16070000Y-15370000D01*
X16070000Y-15330000D02*
X16030000Y-15370000D01*
X16230000Y-5630000D02*
X16270000Y-5670000D01*
X16270000Y-5630000D02*
X16230000Y-5670000D01*
X16230000Y-13680000D02*
X16270000Y-13720000D01*
X16270000Y-13680000D02*
X16230000Y-13720000D01*
X16230000Y-14030000D02*
X16270000Y-14070000D01*
X16270000Y-14030000D02*
X16230000Y-14070000D01*
X16230000Y-15330000D02*
X16270000Y-15370000D01*
X16270000Y-15330000D02*
X16230000Y-15370000D01*
X16283750Y-11780000D02*
X16323750Y-11820000D01*
X16323750Y-11780000D02*
X16283750Y-11820000D01*
X16430000Y-5630000D02*
X16470000Y-5670000D01*
X16470000Y-5630000D02*
X16430000Y-5670000D01*
X16430000Y-13680000D02*
X16470000Y-13720000D01*
X16470000Y-13680000D02*
X16430000Y-13720000D01*
X16430000Y-14030000D02*
X16470000Y-14070000D01*
X16470000Y-14030000D02*
X16430000Y-14070000D01*
X16430000Y-15330000D02*
X16470000Y-15370000D01*
X16470000Y-15330000D02*
X16430000Y-15370000D01*
X16630000Y-5630000D02*
X16670000Y-5670000D01*
X16670000Y-5630000D02*
X16630000Y-5670000D01*
X16630000Y-13680000D02*
X16670000Y-13720000D01*
X16670000Y-13680000D02*
X16630000Y-13720000D01*
X16630000Y-14030000D02*
X16670000Y-14070000D01*
X16670000Y-14030000D02*
X16630000Y-14070000D01*
X16630000Y-15330000D02*
X16670000Y-15370000D01*
X16670000Y-15330000D02*
X16630000Y-15370000D01*
X16652500Y-8266500D02*
X16692500Y-8306500D01*
X16692500Y-8266500D02*
X16652500Y-8306500D01*
X16830000Y-5630000D02*
X16870000Y-5670000D01*
X16870000Y-5630000D02*
X16830000Y-5670000D01*
X16830000Y-14030000D02*
X16870000Y-14070000D01*
X16870000Y-14030000D02*
X16830000Y-14070000D01*
X16830000Y-15330000D02*
X16870000Y-15370000D01*
X16870000Y-15330000D02*
X16830000Y-15370000D01*
X17030000Y-5630000D02*
X17070000Y-5670000D01*
X17070000Y-5630000D02*
X17030000Y-5670000D01*
X17030000Y-14030000D02*
X17070000Y-14070000D01*
X17070000Y-14030000D02*
X17030000Y-14070000D01*
X17030000Y-15330000D02*
X17070000Y-15370000D01*
X17070000Y-15330000D02*
X17030000Y-15370000D01*
X17230000Y-5630000D02*
X17270000Y-5670000D01*
X17270000Y-5630000D02*
X17230000Y-5670000D01*
X17230000Y-14030000D02*
X17270000Y-14070000D01*
X17270000Y-14030000D02*
X17230000Y-14070000D01*
X17230000Y-15330000D02*
X17270000Y-15370000D01*
X17270000Y-15330000D02*
X17230000Y-15370000D01*
X17380000Y-12080000D02*
X17420000Y-12120000D01*
X17420000Y-12080000D02*
X17380000Y-12120000D01*
X17380000Y-12430000D02*
X17420000Y-12470000D01*
X17420000Y-12430000D02*
X17380000Y-12470000D01*
X17380000Y-12780000D02*
X17420000Y-12820000D01*
X17420000Y-12780000D02*
X17380000Y-12820000D01*
X17380000Y-13080000D02*
X17420000Y-13120000D01*
X17420000Y-13080000D02*
X17380000Y-13120000D01*
X17380000Y-13380000D02*
X17420000Y-13420000D01*
X17420000Y-13380000D02*
X17380000Y-13420000D01*
X17380000Y-13689740D02*
X17420000Y-13729740D01*
X17420000Y-13689740D02*
X17380000Y-13729740D01*
X17430000Y-5630000D02*
X17470000Y-5670000D01*
X17470000Y-5630000D02*
X17430000Y-5670000D01*
X17430000Y-14030000D02*
X17470000Y-14070000D01*
X17470000Y-14030000D02*
X17430000Y-14070000D01*
X17430000Y-15330000D02*
X17470000Y-15370000D01*
X17470000Y-15330000D02*
X17430000Y-15370000D01*
X17580000Y-12080000D02*
X17620000Y-12120000D01*
X17620000Y-12080000D02*
X17580000Y-12120000D01*
X17580000Y-12430000D02*
X17620000Y-12470000D01*
X17620000Y-12430000D02*
X17580000Y-12470000D01*
X17607500Y-8266500D02*
X17647500Y-8306500D01*
X17647500Y-8266500D02*
X17607500Y-8306500D01*
X17607500Y-8774500D02*
X17647500Y-8814500D01*
X17647500Y-8774500D02*
X17607500Y-8814500D01*
X17630000Y-5630000D02*
X17670000Y-5670000D01*
X17670000Y-5630000D02*
X17630000Y-5670000D01*
X17630000Y-14030000D02*
X17670000Y-14070000D01*
X17670000Y-14030000D02*
X17630000Y-14070000D01*
X17630000Y-15330000D02*
X17670000Y-15370000D01*
X17670000Y-15330000D02*
X17630000Y-15370000D01*
X17680000Y-13080000D02*
X17720000Y-13120000D01*
X17720000Y-13080000D02*
X17680000Y-13120000D01*
X17680000Y-13380000D02*
X17720000Y-13420000D01*
X17720000Y-13380000D02*
X17680000Y-13420000D01*
X17680000Y-13689740D02*
X17720000Y-13729740D01*
X17720000Y-13689740D02*
X17680000Y-13729740D01*
X17780000Y-12080000D02*
X17820000Y-12120000D01*
X17820000Y-12080000D02*
X17780000Y-12120000D01*
X17780000Y-12430000D02*
X17820000Y-12470000D01*
X17820000Y-12430000D02*
X17780000Y-12470000D01*
X17805000Y-12770260D02*
X17845000Y-12810260D01*
X17845000Y-12770260D02*
X17805000Y-12810260D01*
X17830000Y-5630000D02*
X17870000Y-5670000D01*
X17870000Y-5630000D02*
X17830000Y-5670000D01*
X17830000Y-14030000D02*
X17870000Y-14070000D01*
X17870000Y-14030000D02*
X17830000Y-14070000D01*
X17830000Y-15330000D02*
X17870000Y-15370000D01*
X17870000Y-15330000D02*
X17830000Y-15370000D01*
X17980000Y-12080000D02*
X18020000Y-12120000D01*
X18020000Y-12080000D02*
X17980000Y-12120000D01*
X17980000Y-12430000D02*
X18020000Y-12470000D01*
X18020000Y-12430000D02*
X17980000Y-12470000D01*
X18045150Y-13440000D02*
X18085150Y-13480000D01*
X18085150Y-13440000D02*
X18045150Y-13480000D01*
X18180000Y-12080000D02*
X18220000Y-12120000D01*
X18220000Y-12080000D02*
X18180000Y-12120000D01*
X18180000Y-12430000D02*
X18220000Y-12470000D01*
X18220000Y-12430000D02*
X18180000Y-12470000D01*
X18380000Y-12080000D02*
X18420000Y-12120000D01*
X18420000Y-12080000D02*
X18380000Y-12120000D01*
X18380000Y-12430000D02*
X18420000Y-12470000D01*
X18420000Y-12430000D02*
X18380000Y-12470000D01*
X18730000Y-6530000D02*
X18770000Y-6570000D01*
X18770000Y-6530000D02*
X18730000Y-6570000D01*
X18730000Y-6730000D02*
X18770000Y-6770000D01*
X18770000Y-6730000D02*
X18730000Y-6770000D01*
X18730000Y-6930000D02*
X18770000Y-6970000D01*
X18770000Y-6930000D02*
X18730000Y-6970000D01*
X18730000Y-7130000D02*
X18770000Y-7170000D01*
X18770000Y-7130000D02*
X18730000Y-7170000D01*
X18730000Y-7330000D02*
X18770000Y-7370000D01*
X18770000Y-7330000D02*
X18730000Y-7370000D01*
X18730000Y-7530000D02*
X18770000Y-7570000D01*
X18770000Y-7530000D02*
X18730000Y-7570000D01*
X18730000Y-7730000D02*
X18770000Y-7770000D01*
X18770000Y-7730000D02*
X18730000Y-7770000D01*
X18730000Y-7930000D02*
X18770000Y-7970000D01*
X18770000Y-7930000D02*
X18730000Y-7970000D01*
X18730000Y-8130000D02*
X18770000Y-8170000D01*
X18770000Y-8130000D02*
X18730000Y-8170000D01*
X18730000Y-8730000D02*
X18770000Y-8770000D01*
X18770000Y-8730000D02*
X18730000Y-8770000D01*
X18730000Y-8930000D02*
X18770000Y-8970000D01*
X18770000Y-8930000D02*
X18730000Y-8970000D01*
X18730000Y-9130000D02*
X18770000Y-9170000D01*
X18770000Y-9130000D02*
X18730000Y-9170000D01*
X18730000Y-13330000D02*
X18770000Y-13370000D01*
X18770000Y-13330000D02*
X18730000Y-13370000D01*
X18730000Y-13530000D02*
X18770000Y-13570000D01*
X18770000Y-13530000D02*
X18730000Y-13570000D01*
X18730000Y-13730000D02*
X18770000Y-13770000D01*
X18770000Y-13730000D02*
X18730000Y-13770000D01*
X18730000Y-13930000D02*
X18770000Y-13970000D01*
X18770000Y-13930000D02*
X18730000Y-13970000D01*
X18730000Y-14130000D02*
X18770000Y-14170000D01*
X18770000Y-14130000D02*
X18730000Y-14170000D01*
X18730000Y-14330000D02*
X18770000Y-14370000D01*
X18770000Y-14330000D02*
X18730000Y-14370000D01*
X18730000Y-14530000D02*
X18770000Y-14570000D01*
X18770000Y-14530000D02*
X18730000Y-14570000D01*
X16835400Y-9230000D02*
G75*
G02*
X16764600Y-9230000I-35400J0D01*
G01*
X16764600Y-9230000D02*
G75*
G02*
X16835400Y-9230000I35400J0D01*
G01*
X16835400Y-10500000D02*
G75*
G02*
X16764600Y-10500000I-35400J0D01*
G01*
X16764600Y-10500000D02*
G75*
G02*
X16835400Y-10500000I35400J0D01*
G01*
X17191000Y-9230000D02*
G75*
G02*
X17120200Y-9230000I-35400J0D01*
G01*
X17120200Y-9230000D02*
G75*
G02*
X17191000Y-9230000I35400J0D01*
G01*
X17191000Y-10500000D02*
G75*
G02*
X17120200Y-10500000I-35400J0D01*
G01*
X17120200Y-10500000D02*
G75*
G02*
X17191000Y-10500000I35400J0D01*
G01*
X17546600Y-9230000D02*
G75*
G02*
X17475800Y-9230000I-35400J0D01*
G01*
X17475800Y-9230000D02*
G75*
G02*
X17546600Y-9230000I35400J0D01*
G01*
X17546600Y-10500000D02*
G75*
G02*
X17475800Y-10500000I-35400J0D01*
G01*
X17475800Y-10500000D02*
G75*
G02*
X17546600Y-10500000I35400J0D01*
G01*
X11750000Y-12700000D02*
X11750000Y-12800000D01*
X11700000Y-12750000D02*
X11800000Y-12750000D01*
X14175000Y-13550000D02*
X14175000Y-13650000D01*
X14125000Y-13600000D02*
X14225000Y-13600000D01*
X15100000Y-5900000D02*
X15100000Y-6000000D01*
X15050000Y-5950000D02*
X15150000Y-5950000D01*
X15100000Y-8600000D02*
X15100000Y-8700000D01*
X15050000Y-8650000D02*
X15150000Y-8650000D01*
X16550000Y-5900000D02*
X16550000Y-6000000D01*
X16500000Y-5950000D02*
X16600000Y-5950000D01*
X16650000Y-10925000D02*
X16650000Y-11025000D01*
X16600000Y-10975000D02*
X16700000Y-10975000D01*
X17250000Y-6700000D02*
X17250000Y-6800000D01*
X17200000Y-6750000D02*
X17300000Y-6750000D01*
X17675000Y-10925000D02*
X17675000Y-11025000D01*
X17625000Y-10975000D02*
X17725000Y-10975000D01*
X18600000Y-11325000D02*
X18600000Y-11425000D01*
X18550000Y-11375000D02*
X18650000Y-11375000D01*
X18600000Y-12900000D02*
X18600000Y-13000000D01*
X18550000Y-12950000D02*
X18650000Y-12950000D01*
X18650000Y-8450000D02*
X18650000Y-8550000D01*
X18600000Y-8500000D02*
X18700000Y-8500000D01*
D12*
X11453741Y-6845741D02*
X11453741Y-6738259D01*
X11346259Y-6738259D01*
X11346259Y-6845741D01*
X11453741Y-6845741D01*
X11453741Y-7353741D02*
X11453741Y-7246259D01*
X11346259Y-7246259D01*
X11346259Y-7353741D01*
X11453741Y-7353741D01*
X11453741Y-7861741D02*
X11453741Y-7754259D01*
X11346259Y-7754259D01*
X11346259Y-7861741D01*
X11453741Y-7861741D01*
X12103741Y-14703741D02*
X12103741Y-14596259D01*
X11996259Y-14596259D01*
X11996259Y-14703741D01*
X12103741Y-14703741D01*
X12611741Y-14703741D02*
X12611741Y-14596259D01*
X12504259Y-14596259D01*
X12504259Y-14703741D01*
X12611741Y-14703741D01*
D13*
X12046000Y-6517100D02*
X12126000Y-6437100D01*
X12046000Y-6357100D01*
X11966000Y-6437100D01*
X12046000Y-6517100D01*
X12046000Y-7025100D02*
X12126000Y-6945100D01*
X12046000Y-6865100D01*
X11966000Y-6945100D01*
X12046000Y-7025100D01*
X12046000Y-7734900D02*
X12126000Y-7654900D01*
X12046000Y-7574900D01*
X11966000Y-7654900D01*
X12046000Y-7734900D01*
X12046000Y-8242900D02*
X12126000Y-8162900D01*
X12046000Y-8082900D01*
X11966000Y-8162900D01*
X12046000Y-8242900D01*
X12300000Y-6771100D02*
X12380000Y-6691100D01*
X12300000Y-6611100D01*
X12220000Y-6691100D01*
X12300000Y-6771100D01*
X12300000Y-7988900D02*
X12380000Y-7908900D01*
X12300000Y-7828900D01*
X12220000Y-7908900D01*
X12300000Y-7988900D01*
X12554000Y-6517100D02*
X12634000Y-6437100D01*
X12554000Y-6357100D01*
X12474000Y-6437100D01*
X12554000Y-6517100D01*
X12554000Y-7025100D02*
X12634000Y-6945100D01*
X12554000Y-6865100D01*
X12474000Y-6945100D01*
X12554000Y-7025100D01*
X12554000Y-7734900D02*
X12634000Y-7654900D01*
X12554000Y-7574900D01*
X12474000Y-7654900D01*
X12554000Y-7734900D01*
X12554000Y-8242900D02*
X12634000Y-8162900D01*
X12554000Y-8082900D01*
X12474000Y-8162900D01*
X12554000Y-8242900D01*
X13364500Y-14476000D02*
X13444500Y-14396000D01*
X13364500Y-14316000D01*
X13284500Y-14396000D01*
X13364500Y-14476000D01*
X13364500Y-14984000D02*
X13444500Y-14904000D01*
X13364500Y-14824000D01*
X13284500Y-14904000D01*
X13364500Y-14984000D01*
X13618500Y-14730000D02*
X13698500Y-14650000D01*
X13618500Y-14570000D01*
X13538500Y-14650000D01*
X13618500Y-14730000D01*
X13872500Y-14476000D02*
X13952500Y-14396000D01*
X13872500Y-14316000D01*
X13792500Y-14396000D01*
X13872500Y-14476000D01*
X13872500Y-14984000D02*
X13952500Y-14904000D01*
X13872500Y-14824000D01*
X13792500Y-14904000D01*
X13872500Y-14984000D01*
X14582250Y-14476000D02*
X14662250Y-14396000D01*
X14582250Y-14316000D01*
X14502250Y-14396000D01*
X14582250Y-14476000D01*
X14582250Y-14984000D02*
X14662250Y-14904000D01*
X14582250Y-14824000D01*
X14502250Y-14904000D01*
X14582250Y-14984000D01*
X14836250Y-14730000D02*
X14916250Y-14650000D01*
X14836250Y-14570000D01*
X14756250Y-14650000D01*
X14836250Y-14730000D01*
X15090250Y-14476000D02*
X15170250Y-14396000D01*
X15090250Y-14316000D01*
X15010250Y-14396000D01*
X15090250Y-14476000D01*
X15090250Y-14984000D02*
X15170250Y-14904000D01*
X15090250Y-14824000D01*
X15010250Y-14904000D01*
X15090250Y-14984000D01*
X15800000Y-14476000D02*
X15880000Y-14396000D01*
X15800000Y-14316000D01*
X15720000Y-14396000D01*
X15800000Y-14476000D01*
X15800000Y-14984000D02*
X15880000Y-14904000D01*
X15800000Y-14824000D01*
X15720000Y-14904000D01*
X15800000Y-14984000D01*
X16054000Y-14730000D02*
X16134000Y-14650000D01*
X16054000Y-14570000D01*
X15974000Y-14650000D01*
X16054000Y-14730000D01*
X16308000Y-14476000D02*
X16388000Y-14396000D01*
X16308000Y-14316000D01*
X16228000Y-14396000D01*
X16308000Y-14476000D01*
X16308000Y-14984000D02*
X16388000Y-14904000D01*
X16308000Y-14824000D01*
X16228000Y-14904000D01*
X16308000Y-14984000D01*
X17017750Y-14476000D02*
X17097750Y-14396000D01*
X17017750Y-14316000D01*
X16937750Y-14396000D01*
X17017750Y-14476000D01*
X17017750Y-14984000D02*
X17097750Y-14904000D01*
X17017750Y-14824000D01*
X16937750Y-14904000D01*
X17017750Y-14984000D01*
X17271750Y-14730000D02*
X17351750Y-14650000D01*
X17271750Y-14570000D01*
X17191750Y-14650000D01*
X17271750Y-14730000D01*
X17525750Y-14476000D02*
X17605750Y-14396000D01*
X17525750Y-14316000D01*
X17445750Y-14396000D01*
X17525750Y-14476000D01*
X17525750Y-14984000D02*
X17605750Y-14904000D01*
X17525750Y-14824000D01*
X17445750Y-14904000D01*
X17525750Y-14984000D01*
D14*
X16061040Y-9768640D02*
X16253760Y-9961360D01*
X16253760Y-9768640D02*
X16061040Y-9961360D01*
X16253760Y-9865000D02*
G75*
G02*
X16061040Y-9865000I-96360J0D01*
G01*
X16061040Y-9865000D02*
G75*
G02*
X16253760Y-9865000I96360J0D01*
G01*
X18057440Y-9768640D02*
X18250160Y-9961360D01*
X18250160Y-9768640D02*
X18057440Y-9961360D01*
X18250160Y-9865000D02*
G75*
G02*
X18057440Y-9865000I-96360J0D01*
G01*
X18057440Y-9865000D02*
G75*
G02*
X18250160Y-9865000I96360J0D01*
G01*
D15*
X10925000Y-5825000D02*
X11275000Y-6175000D01*
X11275000Y-5825000D02*
X10925000Y-6175000D01*
X11100000Y-5825000D02*
X11100000Y-6175000D01*
X10925000Y-6000000D02*
X11275000Y-6000000D01*
X10925000Y-14775000D02*
X11275000Y-15125000D01*
X11275000Y-14775000D02*
X10925000Y-15125000D01*
X11100000Y-14775000D02*
X11100000Y-15125000D01*
X10925000Y-14950000D02*
X11275000Y-14950000D01*
X18225000Y-5825000D02*
X18575000Y-6175000D01*
X18575000Y-5825000D02*
X18225000Y-6175000D01*
X18400000Y-5825000D02*
X18400000Y-6175000D01*
X18225000Y-6000000D02*
X18575000Y-6000000D01*
X18225000Y-14775000D02*
X18575000Y-15125000D01*
X18575000Y-14775000D02*
X18225000Y-15125000D01*
X18400000Y-14775000D02*
X18400000Y-15125000D01*
X18225000Y-14950000D02*
X18575000Y-14950000D01*
D11*
X10905777Y-15766484D02*
X10905777Y-15566484D01*
X10905777Y-15566484D02*
X10953396Y-15566484D01*
X10953396Y-15566484D02*
X10981967Y-15576008D01*
X10981967Y-15576008D02*
X11001015Y-15595055D01*
X11001015Y-15595055D02*
X11010539Y-15614103D01*
X11010539Y-15614103D02*
X11020063Y-15652198D01*
X11020063Y-15652198D02*
X11020063Y-15680769D01*
X11020063Y-15680769D02*
X11010539Y-15718865D01*
X11010539Y-15718865D02*
X11001015Y-15737912D01*
X11001015Y-15737912D02*
X10981967Y-15756960D01*
X10981967Y-15756960D02*
X10953396Y-15766484D01*
X10953396Y-15766484D02*
X10905777Y-15766484D01*
X11105777Y-15766484D02*
X11105777Y-15633150D01*
X11105777Y-15671246D02*
X11115301Y-15652198D01*
X11115301Y-15652198D02*
X11124824Y-15642674D01*
X11124824Y-15642674D02*
X11143872Y-15633150D01*
X11143872Y-15633150D02*
X11162920Y-15633150D01*
X11229586Y-15766484D02*
X11229586Y-15633150D01*
X11229586Y-15566484D02*
X11220062Y-15576008D01*
X11220062Y-15576008D02*
X11229586Y-15585531D01*
X11229586Y-15585531D02*
X11239110Y-15576008D01*
X11239110Y-15576008D02*
X11229586Y-15566484D01*
X11229586Y-15566484D02*
X11229586Y-15585531D01*
X11353396Y-15766484D02*
X11334348Y-15756960D01*
X11334348Y-15756960D02*
X11324824Y-15737912D01*
X11324824Y-15737912D02*
X11324824Y-15566484D01*
X11458158Y-15766484D02*
X11439110Y-15756960D01*
X11439110Y-15756960D02*
X11429586Y-15737912D01*
X11429586Y-15737912D02*
X11429586Y-15566484D01*
X11686729Y-15766484D02*
X11686729Y-15566484D01*
X11686729Y-15566484D02*
X11753396Y-15709341D01*
X11753396Y-15709341D02*
X11820062Y-15566484D01*
X11820062Y-15566484D02*
X11820062Y-15766484D01*
X12001015Y-15766484D02*
X12001015Y-15661722D01*
X12001015Y-15661722D02*
X11991491Y-15642674D01*
X11991491Y-15642674D02*
X11972443Y-15633150D01*
X11972443Y-15633150D02*
X11934348Y-15633150D01*
X11934348Y-15633150D02*
X11915301Y-15642674D01*
X12001015Y-15756960D02*
X11981967Y-15766484D01*
X11981967Y-15766484D02*
X11934348Y-15766484D01*
X11934348Y-15766484D02*
X11915301Y-15756960D01*
X11915301Y-15756960D02*
X11905777Y-15737912D01*
X11905777Y-15737912D02*
X11905777Y-15718865D01*
X11905777Y-15718865D02*
X11915301Y-15699817D01*
X11915301Y-15699817D02*
X11934348Y-15690293D01*
X11934348Y-15690293D02*
X11981967Y-15690293D01*
X11981967Y-15690293D02*
X12001015Y-15680769D01*
X12096253Y-15633150D02*
X12096253Y-15833150D01*
X12096253Y-15642674D02*
X12115301Y-15633150D01*
X12115301Y-15633150D02*
X12153396Y-15633150D01*
X12153396Y-15633150D02*
X12172443Y-15642674D01*
X12172443Y-15642674D02*
X12181967Y-15652198D01*
X12181967Y-15652198D02*
X12191491Y-15671246D01*
X12191491Y-15671246D02*
X12191491Y-15728388D01*
X12191491Y-15728388D02*
X12181967Y-15747436D01*
X12181967Y-15747436D02*
X12172443Y-15756960D01*
X12172443Y-15756960D02*
X12153396Y-15766484D01*
X12153396Y-15766484D02*
X12115301Y-15766484D01*
X12115301Y-15766484D02*
X12096253Y-15756960D01*
X12277205Y-15747436D02*
X12286729Y-15756960D01*
X12286729Y-15756960D02*
X12277205Y-15766484D01*
X12277205Y-15766484D02*
X12267682Y-15756960D01*
X12267682Y-15756960D02*
X12277205Y-15747436D01*
X12277205Y-15747436D02*
X12277205Y-15766484D01*
X12277205Y-15642674D02*
X12286729Y-15652198D01*
X12286729Y-15652198D02*
X12277205Y-15661722D01*
X12277205Y-15661722D02*
X12267682Y-15652198D01*
X12267682Y-15652198D02*
X12277205Y-15642674D01*
X12277205Y-15642674D02*
X12277205Y-15661722D01*
D10*
X10605000Y-16075000D02*
X10645000Y-16115000D01*
X10645000Y-16075000D02*
X10605000Y-16115000D01*
D11*
X10943872Y-15986484D02*
X10962920Y-15986484D01*
X10962920Y-15986484D02*
X10981967Y-15996008D01*
X10981967Y-15996008D02*
X10991491Y-16005531D01*
X10991491Y-16005531D02*
X11001015Y-16024579D01*
X11001015Y-16024579D02*
X11010539Y-16062674D01*
X11010539Y-16062674D02*
X11010539Y-16110293D01*
X11010539Y-16110293D02*
X11001015Y-16148388D01*
X11001015Y-16148388D02*
X10991491Y-16167436D01*
X10991491Y-16167436D02*
X10981967Y-16176960D01*
X10981967Y-16176960D02*
X10962920Y-16186484D01*
X10962920Y-16186484D02*
X10943872Y-16186484D01*
X10943872Y-16186484D02*
X10924824Y-16176960D01*
X10924824Y-16176960D02*
X10915301Y-16167436D01*
X10915301Y-16167436D02*
X10905777Y-16148388D01*
X10905777Y-16148388D02*
X10896253Y-16110293D01*
X10896253Y-16110293D02*
X10896253Y-16062674D01*
X10896253Y-16062674D02*
X10905777Y-16024579D01*
X10905777Y-16024579D02*
X10915301Y-16005531D01*
X10915301Y-16005531D02*
X10924824Y-15996008D01*
X10924824Y-15996008D02*
X10943872Y-15986484D01*
X11096253Y-16167436D02*
X11105777Y-16176960D01*
X11105777Y-16176960D02*
X11096253Y-16186484D01*
X11096253Y-16186484D02*
X11086729Y-16176960D01*
X11086729Y-16176960D02*
X11096253Y-16167436D01*
X11096253Y-16167436D02*
X11096253Y-16186484D01*
X11277205Y-16053150D02*
X11277205Y-16186484D01*
X11229586Y-15976960D02*
X11181967Y-16119817D01*
X11181967Y-16119817D02*
X11305777Y-16119817D01*
X11420062Y-15986484D02*
X11439110Y-15986484D01*
X11439110Y-15986484D02*
X11458158Y-15996008D01*
X11458158Y-15996008D02*
X11467682Y-16005531D01*
X11467682Y-16005531D02*
X11477205Y-16024579D01*
X11477205Y-16024579D02*
X11486729Y-16062674D01*
X11486729Y-16062674D02*
X11486729Y-16110293D01*
X11486729Y-16110293D02*
X11477205Y-16148388D01*
X11477205Y-16148388D02*
X11467682Y-16167436D01*
X11467682Y-16167436D02*
X11458158Y-16176960D01*
X11458158Y-16176960D02*
X11439110Y-16186484D01*
X11439110Y-16186484D02*
X11420062Y-16186484D01*
X11420062Y-16186484D02*
X11401015Y-16176960D01*
X11401015Y-16176960D02*
X11391491Y-16167436D01*
X11391491Y-16167436D02*
X11381967Y-16148388D01*
X11381967Y-16148388D02*
X11372443Y-16110293D01*
X11372443Y-16110293D02*
X11372443Y-16062674D01*
X11372443Y-16062674D02*
X11381967Y-16024579D01*
X11381967Y-16024579D02*
X11391491Y-16005531D01*
X11391491Y-16005531D02*
X11401015Y-15996008D01*
X11401015Y-15996008D02*
X11420062Y-15986484D01*
X11610539Y-15986484D02*
X11629586Y-15986484D01*
X11629586Y-15986484D02*
X11648634Y-15996008D01*
X11648634Y-15996008D02*
X11658158Y-16005531D01*
X11658158Y-16005531D02*
X11667682Y-16024579D01*
X11667682Y-16024579D02*
X11677205Y-16062674D01*
X11677205Y-16062674D02*
X11677205Y-16110293D01*
X11677205Y-16110293D02*
X11667682Y-16148388D01*
X11667682Y-16148388D02*
X11658158Y-16167436D01*
X11658158Y-16167436D02*
X11648634Y-16176960D01*
X11648634Y-16176960D02*
X11629586Y-16186484D01*
X11629586Y-16186484D02*
X11610539Y-16186484D01*
X11610539Y-16186484D02*
X11591491Y-16176960D01*
X11591491Y-16176960D02*
X11581967Y-16167436D01*
X11581967Y-16167436D02*
X11572443Y-16148388D01*
X11572443Y-16148388D02*
X11562920Y-16110293D01*
X11562920Y-16110293D02*
X11562920Y-16062674D01*
X11562920Y-16062674D02*
X11572443Y-16024579D01*
X11572443Y-16024579D02*
X11581967Y-16005531D01*
X11581967Y-16005531D02*
X11591491Y-15996008D01*
X11591491Y-15996008D02*
X11610539Y-15986484D01*
X11762920Y-16186484D02*
X11762920Y-16053150D01*
X11762920Y-16072198D02*
X11772443Y-16062674D01*
X11772443Y-16062674D02*
X11791491Y-16053150D01*
X11791491Y-16053150D02*
X11820063Y-16053150D01*
X11820063Y-16053150D02*
X11839110Y-16062674D01*
X11839110Y-16062674D02*
X11848634Y-16081722D01*
X11848634Y-16081722D02*
X11848634Y-16186484D01*
X11848634Y-16081722D02*
X11858158Y-16062674D01*
X11858158Y-16062674D02*
X11877205Y-16053150D01*
X11877205Y-16053150D02*
X11905777Y-16053150D01*
X11905777Y-16053150D02*
X11924824Y-16062674D01*
X11924824Y-16062674D02*
X11934348Y-16081722D01*
X11934348Y-16081722D02*
X11934348Y-16186484D01*
X12029586Y-16186484D02*
X12029586Y-16053150D01*
X12029586Y-16072198D02*
X12039110Y-16062674D01*
X12039110Y-16062674D02*
X12058158Y-16053150D01*
X12058158Y-16053150D02*
X12086729Y-16053150D01*
X12086729Y-16053150D02*
X12105777Y-16062674D01*
X12105777Y-16062674D02*
X12115301Y-16081722D01*
X12115301Y-16081722D02*
X12115301Y-16186484D01*
X12115301Y-16081722D02*
X12124824Y-16062674D01*
X12124824Y-16062674D02*
X12143872Y-16053150D01*
X12143872Y-16053150D02*
X12172443Y-16053150D01*
X12172443Y-16053150D02*
X12191491Y-16062674D01*
X12191491Y-16062674D02*
X12201015Y-16081722D01*
X12201015Y-16081722D02*
X12201015Y-16186484D01*
X12591491Y-15976960D02*
X12420063Y-16234103D01*
X12848634Y-15986484D02*
X12867682Y-15986484D01*
X12867682Y-15986484D02*
X12886729Y-15996008D01*
X12886729Y-15996008D02*
X12896253Y-16005531D01*
X12896253Y-16005531D02*
X12905777Y-16024579D01*
X12905777Y-16024579D02*
X12915301Y-16062674D01*
X12915301Y-16062674D02*
X12915301Y-16110293D01*
X12915301Y-16110293D02*
X12905777Y-16148388D01*
X12905777Y-16148388D02*
X12896253Y-16167436D01*
X12896253Y-16167436D02*
X12886729Y-16176960D01*
X12886729Y-16176960D02*
X12867682Y-16186484D01*
X12867682Y-16186484D02*
X12848634Y-16186484D01*
X12848634Y-16186484D02*
X12829586Y-16176960D01*
X12829586Y-16176960D02*
X12820063Y-16167436D01*
X12820063Y-16167436D02*
X12810539Y-16148388D01*
X12810539Y-16148388D02*
X12801015Y-16110293D01*
X12801015Y-16110293D02*
X12801015Y-16062674D01*
X12801015Y-16062674D02*
X12810539Y-16024579D01*
X12810539Y-16024579D02*
X12820063Y-16005531D01*
X12820063Y-16005531D02*
X12829586Y-15996008D01*
X12829586Y-15996008D02*
X12848634Y-15986484D01*
X13001015Y-16167436D02*
X13010539Y-16176960D01*
X13010539Y-16176960D02*
X13001015Y-16186484D01*
X13001015Y-16186484D02*
X12991491Y-16176960D01*
X12991491Y-16176960D02*
X13001015Y-16167436D01*
X13001015Y-16167436D02*
X13001015Y-16186484D01*
X13134348Y-15986484D02*
X13153396Y-15986484D01*
X13153396Y-15986484D02*
X13172444Y-15996008D01*
X13172444Y-15996008D02*
X13181967Y-16005531D01*
X13181967Y-16005531D02*
X13191491Y-16024579D01*
X13191491Y-16024579D02*
X13201015Y-16062674D01*
X13201015Y-16062674D02*
X13201015Y-16110293D01*
X13201015Y-16110293D02*
X13191491Y-16148388D01*
X13191491Y-16148388D02*
X13181967Y-16167436D01*
X13181967Y-16167436D02*
X13172444Y-16176960D01*
X13172444Y-16176960D02*
X13153396Y-16186484D01*
X13153396Y-16186484D02*
X13134348Y-16186484D01*
X13134348Y-16186484D02*
X13115301Y-16176960D01*
X13115301Y-16176960D02*
X13105777Y-16167436D01*
X13105777Y-16167436D02*
X13096253Y-16148388D01*
X13096253Y-16148388D02*
X13086729Y-16110293D01*
X13086729Y-16110293D02*
X13086729Y-16062674D01*
X13086729Y-16062674D02*
X13096253Y-16024579D01*
X13096253Y-16024579D02*
X13105777Y-16005531D01*
X13105777Y-16005531D02*
X13115301Y-15996008D01*
X13115301Y-15996008D02*
X13134348Y-15986484D01*
X13391491Y-16186484D02*
X13277206Y-16186484D01*
X13334348Y-16186484D02*
X13334348Y-15986484D01*
X13334348Y-15986484D02*
X13315301Y-16015055D01*
X13315301Y-16015055D02*
X13296253Y-16034103D01*
X13296253Y-16034103D02*
X13277206Y-16043627D01*
X13572444Y-15986484D02*
X13477206Y-15986484D01*
X13477206Y-15986484D02*
X13467682Y-16081722D01*
X13467682Y-16081722D02*
X13477206Y-16072198D01*
X13477206Y-16072198D02*
X13496253Y-16062674D01*
X13496253Y-16062674D02*
X13543872Y-16062674D01*
X13543872Y-16062674D02*
X13562920Y-16072198D01*
X13562920Y-16072198D02*
X13572444Y-16081722D01*
X13572444Y-16081722D02*
X13581967Y-16100769D01*
X13581967Y-16100769D02*
X13581967Y-16148388D01*
X13581967Y-16148388D02*
X13572444Y-16167436D01*
X13572444Y-16167436D02*
X13562920Y-16176960D01*
X13562920Y-16176960D02*
X13543872Y-16186484D01*
X13543872Y-16186484D02*
X13496253Y-16186484D01*
X13496253Y-16186484D02*
X13477206Y-16176960D01*
X13477206Y-16176960D02*
X13467682Y-16167436D01*
X13648634Y-15986484D02*
X13781967Y-15986484D01*
X13781967Y-15986484D02*
X13696253Y-16186484D01*
X13848634Y-15986484D02*
X13848634Y-16024579D01*
X13924825Y-15986484D02*
X13924825Y-16024579D01*
X14220063Y-16262674D02*
X14210539Y-16253150D01*
X14210539Y-16253150D02*
X14191491Y-16224579D01*
X14191491Y-16224579D02*
X14181968Y-16205531D01*
X14181968Y-16205531D02*
X14172444Y-16176960D01*
X14172444Y-16176960D02*
X14162920Y-16129341D01*
X14162920Y-16129341D02*
X14162920Y-16091246D01*
X14162920Y-16091246D02*
X14172444Y-16043627D01*
X14172444Y-16043627D02*
X14181968Y-16015055D01*
X14181968Y-16015055D02*
X14191491Y-15996008D01*
X14191491Y-15996008D02*
X14210539Y-15967436D01*
X14210539Y-15967436D02*
X14220063Y-15957912D01*
X14286729Y-16005531D02*
X14296253Y-15996008D01*
X14296253Y-15996008D02*
X14315301Y-15986484D01*
X14315301Y-15986484D02*
X14362920Y-15986484D01*
X14362920Y-15986484D02*
X14381968Y-15996008D01*
X14381968Y-15996008D02*
X14391491Y-16005531D01*
X14391491Y-16005531D02*
X14401015Y-16024579D01*
X14401015Y-16024579D02*
X14401015Y-16043627D01*
X14401015Y-16043627D02*
X14391491Y-16072198D01*
X14391491Y-16072198D02*
X14277206Y-16186484D01*
X14277206Y-16186484D02*
X14401015Y-16186484D01*
X14591491Y-16186484D02*
X14477206Y-16186484D01*
X14534348Y-16186484D02*
X14534348Y-15986484D01*
X14534348Y-15986484D02*
X14515301Y-16015055D01*
X14515301Y-16015055D02*
X14496253Y-16034103D01*
X14496253Y-16034103D02*
X14477206Y-16043627D01*
X14658158Y-15986484D02*
X14791491Y-15986484D01*
X14791491Y-15986484D02*
X14705777Y-16186484D01*
X15020063Y-16186484D02*
X15020063Y-15986484D01*
X15105777Y-16186484D02*
X15105777Y-16081722D01*
X15105777Y-16081722D02*
X15096253Y-16062674D01*
X15096253Y-16062674D02*
X15077206Y-16053150D01*
X15077206Y-16053150D02*
X15048634Y-16053150D01*
X15048634Y-16053150D02*
X15029587Y-16062674D01*
X15029587Y-16062674D02*
X15020063Y-16072198D01*
X15229587Y-16186484D02*
X15210539Y-16176960D01*
X15210539Y-16176960D02*
X15201015Y-16167436D01*
X15201015Y-16167436D02*
X15191491Y-16148388D01*
X15191491Y-16148388D02*
X15191491Y-16091246D01*
X15191491Y-16091246D02*
X15201015Y-16072198D01*
X15201015Y-16072198D02*
X15210539Y-16062674D01*
X15210539Y-16062674D02*
X15229587Y-16053150D01*
X15229587Y-16053150D02*
X15258158Y-16053150D01*
X15258158Y-16053150D02*
X15277206Y-16062674D01*
X15277206Y-16062674D02*
X15286730Y-16072198D01*
X15286730Y-16072198D02*
X15296253Y-16091246D01*
X15296253Y-16091246D02*
X15296253Y-16148388D01*
X15296253Y-16148388D02*
X15286730Y-16167436D01*
X15286730Y-16167436D02*
X15277206Y-16176960D01*
X15277206Y-16176960D02*
X15258158Y-16186484D01*
X15258158Y-16186484D02*
X15229587Y-16186484D01*
X15410539Y-16186484D02*
X15391491Y-16176960D01*
X15391491Y-16176960D02*
X15381968Y-16157912D01*
X15381968Y-16157912D02*
X15381968Y-15986484D01*
X15562920Y-16176960D02*
X15543872Y-16186484D01*
X15543872Y-16186484D02*
X15505777Y-16186484D01*
X15505777Y-16186484D02*
X15486730Y-16176960D01*
X15486730Y-16176960D02*
X15477206Y-16157912D01*
X15477206Y-16157912D02*
X15477206Y-16081722D01*
X15477206Y-16081722D02*
X15486730Y-16062674D01*
X15486730Y-16062674D02*
X15505777Y-16053150D01*
X15505777Y-16053150D02*
X15543872Y-16053150D01*
X15543872Y-16053150D02*
X15562920Y-16062674D01*
X15562920Y-16062674D02*
X15572444Y-16081722D01*
X15572444Y-16081722D02*
X15572444Y-16100769D01*
X15572444Y-16100769D02*
X15477206Y-16119817D01*
X15648634Y-16176960D02*
X15667682Y-16186484D01*
X15667682Y-16186484D02*
X15705777Y-16186484D01*
X15705777Y-16186484D02*
X15724825Y-16176960D01*
X15724825Y-16176960D02*
X15734349Y-16157912D01*
X15734349Y-16157912D02*
X15734349Y-16148388D01*
X15734349Y-16148388D02*
X15724825Y-16129341D01*
X15724825Y-16129341D02*
X15705777Y-16119817D01*
X15705777Y-16119817D02*
X15677206Y-16119817D01*
X15677206Y-16119817D02*
X15658158Y-16110293D01*
X15658158Y-16110293D02*
X15648634Y-16091246D01*
X15648634Y-16091246D02*
X15648634Y-16081722D01*
X15648634Y-16081722D02*
X15658158Y-16062674D01*
X15658158Y-16062674D02*
X15677206Y-16053150D01*
X15677206Y-16053150D02*
X15705777Y-16053150D01*
X15705777Y-16053150D02*
X15724825Y-16062674D01*
X15801015Y-16262674D02*
X15810539Y-16253150D01*
X15810539Y-16253150D02*
X15829587Y-16224579D01*
X15829587Y-16224579D02*
X15839111Y-16205531D01*
X15839111Y-16205531D02*
X15848634Y-16176960D01*
X15848634Y-16176960D02*
X15858158Y-16129341D01*
X15858158Y-16129341D02*
X15858158Y-16091246D01*
X15858158Y-16091246D02*
X15848634Y-16043627D01*
X15848634Y-16043627D02*
X15839111Y-16015055D01*
X15839111Y-16015055D02*
X15829587Y-15996008D01*
X15829587Y-15996008D02*
X15810539Y-15967436D01*
X15810539Y-15967436D02*
X15801015Y-15957912D01*
D10*
X10645000Y-16359000D02*
G75*
G02*
X10574200Y-16359000I-35400J0D01*
G01*
X10574200Y-16359000D02*
G75*
G02*
X10645000Y-16359000I35400J0D01*
G01*
D11*
X10943872Y-16250484D02*
X10962920Y-16250484D01*
X10962920Y-16250484D02*
X10981967Y-16260008D01*
X10981967Y-16260008D02*
X10991491Y-16269531D01*
X10991491Y-16269531D02*
X11001015Y-16288579D01*
X11001015Y-16288579D02*
X11010539Y-16326674D01*
X11010539Y-16326674D02*
X11010539Y-16374293D01*
X11010539Y-16374293D02*
X11001015Y-16412388D01*
X11001015Y-16412388D02*
X10991491Y-16431436D01*
X10991491Y-16431436D02*
X10981967Y-16440960D01*
X10981967Y-16440960D02*
X10962920Y-16450484D01*
X10962920Y-16450484D02*
X10943872Y-16450484D01*
X10943872Y-16450484D02*
X10924824Y-16440960D01*
X10924824Y-16440960D02*
X10915301Y-16431436D01*
X10915301Y-16431436D02*
X10905777Y-16412388D01*
X10905777Y-16412388D02*
X10896253Y-16374293D01*
X10896253Y-16374293D02*
X10896253Y-16326674D01*
X10896253Y-16326674D02*
X10905777Y-16288579D01*
X10905777Y-16288579D02*
X10915301Y-16269531D01*
X10915301Y-16269531D02*
X10924824Y-16260008D01*
X10924824Y-16260008D02*
X10943872Y-16250484D01*
X11096253Y-16431436D02*
X11105777Y-16440960D01*
X11105777Y-16440960D02*
X11096253Y-16450484D01*
X11096253Y-16450484D02*
X11086729Y-16440960D01*
X11086729Y-16440960D02*
X11096253Y-16431436D01*
X11096253Y-16431436D02*
X11096253Y-16450484D01*
X11172444Y-16250484D02*
X11305777Y-16250484D01*
X11305777Y-16250484D02*
X11220062Y-16450484D01*
X11420062Y-16250484D02*
X11439110Y-16250484D01*
X11439110Y-16250484D02*
X11458158Y-16260008D01*
X11458158Y-16260008D02*
X11467682Y-16269531D01*
X11467682Y-16269531D02*
X11477205Y-16288579D01*
X11477205Y-16288579D02*
X11486729Y-16326674D01*
X11486729Y-16326674D02*
X11486729Y-16374293D01*
X11486729Y-16374293D02*
X11477205Y-16412388D01*
X11477205Y-16412388D02*
X11467682Y-16431436D01*
X11467682Y-16431436D02*
X11458158Y-16440960D01*
X11458158Y-16440960D02*
X11439110Y-16450484D01*
X11439110Y-16450484D02*
X11420062Y-16450484D01*
X11420062Y-16450484D02*
X11401015Y-16440960D01*
X11401015Y-16440960D02*
X11391491Y-16431436D01*
X11391491Y-16431436D02*
X11381967Y-16412388D01*
X11381967Y-16412388D02*
X11372443Y-16374293D01*
X11372443Y-16374293D02*
X11372443Y-16326674D01*
X11372443Y-16326674D02*
X11381967Y-16288579D01*
X11381967Y-16288579D02*
X11391491Y-16269531D01*
X11391491Y-16269531D02*
X11401015Y-16260008D01*
X11401015Y-16260008D02*
X11420062Y-16250484D01*
X11601015Y-16336198D02*
X11581967Y-16326674D01*
X11581967Y-16326674D02*
X11572443Y-16317150D01*
X11572443Y-16317150D02*
X11562920Y-16298103D01*
X11562920Y-16298103D02*
X11562920Y-16288579D01*
X11562920Y-16288579D02*
X11572443Y-16269531D01*
X11572443Y-16269531D02*
X11581967Y-16260008D01*
X11581967Y-16260008D02*
X11601015Y-16250484D01*
X11601015Y-16250484D02*
X11639110Y-16250484D01*
X11639110Y-16250484D02*
X11658158Y-16260008D01*
X11658158Y-16260008D02*
X11667682Y-16269531D01*
X11667682Y-16269531D02*
X11677205Y-16288579D01*
X11677205Y-16288579D02*
X11677205Y-16298103D01*
X11677205Y-16298103D02*
X11667682Y-16317150D01*
X11667682Y-16317150D02*
X11658158Y-16326674D01*
X11658158Y-16326674D02*
X11639110Y-16336198D01*
X11639110Y-16336198D02*
X11601015Y-16336198D01*
X11601015Y-16336198D02*
X11581967Y-16345722D01*
X11581967Y-16345722D02*
X11572443Y-16355246D01*
X11572443Y-16355246D02*
X11562920Y-16374293D01*
X11562920Y-16374293D02*
X11562920Y-16412388D01*
X11562920Y-16412388D02*
X11572443Y-16431436D01*
X11572443Y-16431436D02*
X11581967Y-16440960D01*
X11581967Y-16440960D02*
X11601015Y-16450484D01*
X11601015Y-16450484D02*
X11639110Y-16450484D01*
X11639110Y-16450484D02*
X11658158Y-16440960D01*
X11658158Y-16440960D02*
X11667682Y-16431436D01*
X11667682Y-16431436D02*
X11677205Y-16412388D01*
X11677205Y-16412388D02*
X11677205Y-16374293D01*
X11677205Y-16374293D02*
X11667682Y-16355246D01*
X11667682Y-16355246D02*
X11658158Y-16345722D01*
X11658158Y-16345722D02*
X11639110Y-16336198D01*
X11762920Y-16450484D02*
X11762920Y-16317150D01*
X11762920Y-16336198D02*
X11772443Y-16326674D01*
X11772443Y-16326674D02*
X11791491Y-16317150D01*
X11791491Y-16317150D02*
X11820063Y-16317150D01*
X11820063Y-16317150D02*
X11839110Y-16326674D01*
X11839110Y-16326674D02*
X11848634Y-16345722D01*
X11848634Y-16345722D02*
X11848634Y-16450484D01*
X11848634Y-16345722D02*
X11858158Y-16326674D01*
X11858158Y-16326674D02*
X11877205Y-16317150D01*
X11877205Y-16317150D02*
X11905777Y-16317150D01*
X11905777Y-16317150D02*
X11924824Y-16326674D01*
X11924824Y-16326674D02*
X11934348Y-16345722D01*
X11934348Y-16345722D02*
X11934348Y-16450484D01*
X12029586Y-16450484D02*
X12029586Y-16317150D01*
X12029586Y-16336198D02*
X12039110Y-16326674D01*
X12039110Y-16326674D02*
X12058158Y-16317150D01*
X12058158Y-16317150D02*
X12086729Y-16317150D01*
X12086729Y-16317150D02*
X12105777Y-16326674D01*
X12105777Y-16326674D02*
X12115301Y-16345722D01*
X12115301Y-16345722D02*
X12115301Y-16450484D01*
X12115301Y-16345722D02*
X12124824Y-16326674D01*
X12124824Y-16326674D02*
X12143872Y-16317150D01*
X12143872Y-16317150D02*
X12172443Y-16317150D01*
X12172443Y-16317150D02*
X12191491Y-16326674D01*
X12191491Y-16326674D02*
X12201015Y-16345722D01*
X12201015Y-16345722D02*
X12201015Y-16450484D01*
X12591491Y-16240960D02*
X12420063Y-16498103D01*
X12848634Y-16250484D02*
X12867682Y-16250484D01*
X12867682Y-16250484D02*
X12886729Y-16260008D01*
X12886729Y-16260008D02*
X12896253Y-16269531D01*
X12896253Y-16269531D02*
X12905777Y-16288579D01*
X12905777Y-16288579D02*
X12915301Y-16326674D01*
X12915301Y-16326674D02*
X12915301Y-16374293D01*
X12915301Y-16374293D02*
X12905777Y-16412388D01*
X12905777Y-16412388D02*
X12896253Y-16431436D01*
X12896253Y-16431436D02*
X12886729Y-16440960D01*
X12886729Y-16440960D02*
X12867682Y-16450484D01*
X12867682Y-16450484D02*
X12848634Y-16450484D01*
X12848634Y-16450484D02*
X12829586Y-16440960D01*
X12829586Y-16440960D02*
X12820063Y-16431436D01*
X12820063Y-16431436D02*
X12810539Y-16412388D01*
X12810539Y-16412388D02*
X12801015Y-16374293D01*
X12801015Y-16374293D02*
X12801015Y-16326674D01*
X12801015Y-16326674D02*
X12810539Y-16288579D01*
X12810539Y-16288579D02*
X12820063Y-16269531D01*
X12820063Y-16269531D02*
X12829586Y-16260008D01*
X12829586Y-16260008D02*
X12848634Y-16250484D01*
X13001015Y-16431436D02*
X13010539Y-16440960D01*
X13010539Y-16440960D02*
X13001015Y-16450484D01*
X13001015Y-16450484D02*
X12991491Y-16440960D01*
X12991491Y-16440960D02*
X13001015Y-16431436D01*
X13001015Y-16431436D02*
X13001015Y-16450484D01*
X13134348Y-16250484D02*
X13153396Y-16250484D01*
X13153396Y-16250484D02*
X13172444Y-16260008D01*
X13172444Y-16260008D02*
X13181967Y-16269531D01*
X13181967Y-16269531D02*
X13191491Y-16288579D01*
X13191491Y-16288579D02*
X13201015Y-16326674D01*
X13201015Y-16326674D02*
X13201015Y-16374293D01*
X13201015Y-16374293D02*
X13191491Y-16412388D01*
X13191491Y-16412388D02*
X13181967Y-16431436D01*
X13181967Y-16431436D02*
X13172444Y-16440960D01*
X13172444Y-16440960D02*
X13153396Y-16450484D01*
X13153396Y-16450484D02*
X13134348Y-16450484D01*
X13134348Y-16450484D02*
X13115301Y-16440960D01*
X13115301Y-16440960D02*
X13105777Y-16431436D01*
X13105777Y-16431436D02*
X13096253Y-16412388D01*
X13096253Y-16412388D02*
X13086729Y-16374293D01*
X13086729Y-16374293D02*
X13086729Y-16326674D01*
X13086729Y-16326674D02*
X13096253Y-16288579D01*
X13096253Y-16288579D02*
X13105777Y-16269531D01*
X13105777Y-16269531D02*
X13115301Y-16260008D01*
X13115301Y-16260008D02*
X13134348Y-16250484D01*
X13277206Y-16269531D02*
X13286729Y-16260008D01*
X13286729Y-16260008D02*
X13305777Y-16250484D01*
X13305777Y-16250484D02*
X13353396Y-16250484D01*
X13353396Y-16250484D02*
X13372444Y-16260008D01*
X13372444Y-16260008D02*
X13381967Y-16269531D01*
X13381967Y-16269531D02*
X13391491Y-16288579D01*
X13391491Y-16288579D02*
X13391491Y-16307627D01*
X13391491Y-16307627D02*
X13381967Y-16336198D01*
X13381967Y-16336198D02*
X13267682Y-16450484D01*
X13267682Y-16450484D02*
X13391491Y-16450484D01*
X13458158Y-16250484D02*
X13591491Y-16250484D01*
X13591491Y-16250484D02*
X13505777Y-16450484D01*
X13677206Y-16450484D02*
X13715301Y-16450484D01*
X13715301Y-16450484D02*
X13734348Y-16440960D01*
X13734348Y-16440960D02*
X13743872Y-16431436D01*
X13743872Y-16431436D02*
X13762920Y-16402865D01*
X13762920Y-16402865D02*
X13772444Y-16364769D01*
X13772444Y-16364769D02*
X13772444Y-16288579D01*
X13772444Y-16288579D02*
X13762920Y-16269531D01*
X13762920Y-16269531D02*
X13753396Y-16260008D01*
X13753396Y-16260008D02*
X13734348Y-16250484D01*
X13734348Y-16250484D02*
X13696253Y-16250484D01*
X13696253Y-16250484D02*
X13677206Y-16260008D01*
X13677206Y-16260008D02*
X13667682Y-16269531D01*
X13667682Y-16269531D02*
X13658158Y-16288579D01*
X13658158Y-16288579D02*
X13658158Y-16336198D01*
X13658158Y-16336198D02*
X13667682Y-16355246D01*
X13667682Y-16355246D02*
X13677206Y-16364769D01*
X13677206Y-16364769D02*
X13696253Y-16374293D01*
X13696253Y-16374293D02*
X13734348Y-16374293D01*
X13734348Y-16374293D02*
X13753396Y-16364769D01*
X13753396Y-16364769D02*
X13762920Y-16355246D01*
X13762920Y-16355246D02*
X13772444Y-16336198D01*
X13848634Y-16250484D02*
X13848634Y-16288579D01*
X13924825Y-16250484D02*
X13924825Y-16288579D01*
X14220063Y-16526674D02*
X14210539Y-16517150D01*
X14210539Y-16517150D02*
X14191491Y-16488579D01*
X14191491Y-16488579D02*
X14181968Y-16469531D01*
X14181968Y-16469531D02*
X14172444Y-16440960D01*
X14172444Y-16440960D02*
X14162920Y-16393341D01*
X14162920Y-16393341D02*
X14162920Y-16355246D01*
X14162920Y-16355246D02*
X14172444Y-16307627D01*
X14172444Y-16307627D02*
X14181968Y-16279055D01*
X14181968Y-16279055D02*
X14191491Y-16260008D01*
X14191491Y-16260008D02*
X14210539Y-16231436D01*
X14210539Y-16231436D02*
X14220063Y-16221912D01*
X14381968Y-16250484D02*
X14343872Y-16250484D01*
X14343872Y-16250484D02*
X14324825Y-16260008D01*
X14324825Y-16260008D02*
X14315301Y-16269531D01*
X14315301Y-16269531D02*
X14296253Y-16298103D01*
X14296253Y-16298103D02*
X14286729Y-16336198D01*
X14286729Y-16336198D02*
X14286729Y-16412388D01*
X14286729Y-16412388D02*
X14296253Y-16431436D01*
X14296253Y-16431436D02*
X14305777Y-16440960D01*
X14305777Y-16440960D02*
X14324825Y-16450484D01*
X14324825Y-16450484D02*
X14362920Y-16450484D01*
X14362920Y-16450484D02*
X14381968Y-16440960D01*
X14381968Y-16440960D02*
X14391491Y-16431436D01*
X14391491Y-16431436D02*
X14401015Y-16412388D01*
X14401015Y-16412388D02*
X14401015Y-16364769D01*
X14401015Y-16364769D02*
X14391491Y-16345722D01*
X14391491Y-16345722D02*
X14381968Y-16336198D01*
X14381968Y-16336198D02*
X14362920Y-16326674D01*
X14362920Y-16326674D02*
X14324825Y-16326674D01*
X14324825Y-16326674D02*
X14305777Y-16336198D01*
X14305777Y-16336198D02*
X14296253Y-16345722D01*
X14296253Y-16345722D02*
X14286729Y-16364769D01*
X14639110Y-16450484D02*
X14639110Y-16250484D01*
X14724825Y-16450484D02*
X14724825Y-16345722D01*
X14724825Y-16345722D02*
X14715301Y-16326674D01*
X14715301Y-16326674D02*
X14696253Y-16317150D01*
X14696253Y-16317150D02*
X14667682Y-16317150D01*
X14667682Y-16317150D02*
X14648634Y-16326674D01*
X14648634Y-16326674D02*
X14639110Y-16336198D01*
X14848634Y-16450484D02*
X14829587Y-16440960D01*
X14829587Y-16440960D02*
X14820063Y-16431436D01*
X14820063Y-16431436D02*
X14810539Y-16412388D01*
X14810539Y-16412388D02*
X14810539Y-16355246D01*
X14810539Y-16355246D02*
X14820063Y-16336198D01*
X14820063Y-16336198D02*
X14829587Y-16326674D01*
X14829587Y-16326674D02*
X14848634Y-16317150D01*
X14848634Y-16317150D02*
X14877206Y-16317150D01*
X14877206Y-16317150D02*
X14896253Y-16326674D01*
X14896253Y-16326674D02*
X14905777Y-16336198D01*
X14905777Y-16336198D02*
X14915301Y-16355246D01*
X14915301Y-16355246D02*
X14915301Y-16412388D01*
X14915301Y-16412388D02*
X14905777Y-16431436D01*
X14905777Y-16431436D02*
X14896253Y-16440960D01*
X14896253Y-16440960D02*
X14877206Y-16450484D01*
X14877206Y-16450484D02*
X14848634Y-16450484D01*
X15029587Y-16450484D02*
X15010539Y-16440960D01*
X15010539Y-16440960D02*
X15001015Y-16421912D01*
X15001015Y-16421912D02*
X15001015Y-16250484D01*
X15181968Y-16440960D02*
X15162920Y-16450484D01*
X15162920Y-16450484D02*
X15124825Y-16450484D01*
X15124825Y-16450484D02*
X15105777Y-16440960D01*
X15105777Y-16440960D02*
X15096253Y-16421912D01*
X15096253Y-16421912D02*
X15096253Y-16345722D01*
X15096253Y-16345722D02*
X15105777Y-16326674D01*
X15105777Y-16326674D02*
X15124825Y-16317150D01*
X15124825Y-16317150D02*
X15162920Y-16317150D01*
X15162920Y-16317150D02*
X15181968Y-16326674D01*
X15181968Y-16326674D02*
X15191491Y-16345722D01*
X15191491Y-16345722D02*
X15191491Y-16364769D01*
X15191491Y-16364769D02*
X15096253Y-16383817D01*
X15267682Y-16440960D02*
X15286730Y-16450484D01*
X15286730Y-16450484D02*
X15324825Y-16450484D01*
X15324825Y-16450484D02*
X15343872Y-16440960D01*
X15343872Y-16440960D02*
X15353396Y-16421912D01*
X15353396Y-16421912D02*
X15353396Y-16412388D01*
X15353396Y-16412388D02*
X15343872Y-16393341D01*
X15343872Y-16393341D02*
X15324825Y-16383817D01*
X15324825Y-16383817D02*
X15296253Y-16383817D01*
X15296253Y-16383817D02*
X15277206Y-16374293D01*
X15277206Y-16374293D02*
X15267682Y-16355246D01*
X15267682Y-16355246D02*
X15267682Y-16345722D01*
X15267682Y-16345722D02*
X15277206Y-16326674D01*
X15277206Y-16326674D02*
X15296253Y-16317150D01*
X15296253Y-16317150D02*
X15324825Y-16317150D01*
X15324825Y-16317150D02*
X15343872Y-16326674D01*
X15420063Y-16526674D02*
X15429587Y-16517150D01*
X15429587Y-16517150D02*
X15448634Y-16488579D01*
X15448634Y-16488579D02*
X15458158Y-16469531D01*
X15458158Y-16469531D02*
X15467682Y-16440960D01*
X15467682Y-16440960D02*
X15477206Y-16393341D01*
X15477206Y-16393341D02*
X15477206Y-16355246D01*
X15477206Y-16355246D02*
X15467682Y-16307627D01*
X15467682Y-16307627D02*
X15458158Y-16279055D01*
X15458158Y-16279055D02*
X15448634Y-16260008D01*
X15448634Y-16260008D02*
X15429587Y-16231436D01*
X15429587Y-16231436D02*
X15420063Y-16221912D01*
D10*
X10595000Y-16573000D02*
X10595000Y-16673000D01*
X10545000Y-16623000D02*
X10645000Y-16623000D01*
D11*
X11010539Y-16714484D02*
X10896253Y-16714484D01*
X10953396Y-16714484D02*
X10953396Y-16514484D01*
X10953396Y-16514484D02*
X10934348Y-16543055D01*
X10934348Y-16543055D02*
X10915301Y-16562103D01*
X10915301Y-16562103D02*
X10896253Y-16571627D01*
X11096253Y-16695436D02*
X11105777Y-16704960D01*
X11105777Y-16704960D02*
X11096253Y-16714484D01*
X11096253Y-16714484D02*
X11086729Y-16704960D01*
X11086729Y-16704960D02*
X11096253Y-16695436D01*
X11096253Y-16695436D02*
X11096253Y-16714484D01*
X11229586Y-16514484D02*
X11248634Y-16514484D01*
X11248634Y-16514484D02*
X11267682Y-16524008D01*
X11267682Y-16524008D02*
X11277205Y-16533531D01*
X11277205Y-16533531D02*
X11286729Y-16552579D01*
X11286729Y-16552579D02*
X11296253Y-16590674D01*
X11296253Y-16590674D02*
X11296253Y-16638293D01*
X11296253Y-16638293D02*
X11286729Y-16676388D01*
X11286729Y-16676388D02*
X11277205Y-16695436D01*
X11277205Y-16695436D02*
X11267682Y-16704960D01*
X11267682Y-16704960D02*
X11248634Y-16714484D01*
X11248634Y-16714484D02*
X11229586Y-16714484D01*
X11229586Y-16714484D02*
X11210539Y-16704960D01*
X11210539Y-16704960D02*
X11201015Y-16695436D01*
X11201015Y-16695436D02*
X11191491Y-16676388D01*
X11191491Y-16676388D02*
X11181967Y-16638293D01*
X11181967Y-16638293D02*
X11181967Y-16590674D01*
X11181967Y-16590674D02*
X11191491Y-16552579D01*
X11191491Y-16552579D02*
X11201015Y-16533531D01*
X11201015Y-16533531D02*
X11210539Y-16524008D01*
X11210539Y-16524008D02*
X11229586Y-16514484D01*
X11420062Y-16514484D02*
X11439110Y-16514484D01*
X11439110Y-16514484D02*
X11458158Y-16524008D01*
X11458158Y-16524008D02*
X11467682Y-16533531D01*
X11467682Y-16533531D02*
X11477205Y-16552579D01*
X11477205Y-16552579D02*
X11486729Y-16590674D01*
X11486729Y-16590674D02*
X11486729Y-16638293D01*
X11486729Y-16638293D02*
X11477205Y-16676388D01*
X11477205Y-16676388D02*
X11467682Y-16695436D01*
X11467682Y-16695436D02*
X11458158Y-16704960D01*
X11458158Y-16704960D02*
X11439110Y-16714484D01*
X11439110Y-16714484D02*
X11420062Y-16714484D01*
X11420062Y-16714484D02*
X11401015Y-16704960D01*
X11401015Y-16704960D02*
X11391491Y-16695436D01*
X11391491Y-16695436D02*
X11381967Y-16676388D01*
X11381967Y-16676388D02*
X11372443Y-16638293D01*
X11372443Y-16638293D02*
X11372443Y-16590674D01*
X11372443Y-16590674D02*
X11381967Y-16552579D01*
X11381967Y-16552579D02*
X11391491Y-16533531D01*
X11391491Y-16533531D02*
X11401015Y-16524008D01*
X11401015Y-16524008D02*
X11420062Y-16514484D01*
X11610539Y-16514484D02*
X11629586Y-16514484D01*
X11629586Y-16514484D02*
X11648634Y-16524008D01*
X11648634Y-16524008D02*
X11658158Y-16533531D01*
X11658158Y-16533531D02*
X11667682Y-16552579D01*
X11667682Y-16552579D02*
X11677205Y-16590674D01*
X11677205Y-16590674D02*
X11677205Y-16638293D01*
X11677205Y-16638293D02*
X11667682Y-16676388D01*
X11667682Y-16676388D02*
X11658158Y-16695436D01*
X11658158Y-16695436D02*
X11648634Y-16704960D01*
X11648634Y-16704960D02*
X11629586Y-16714484D01*
X11629586Y-16714484D02*
X11610539Y-16714484D01*
X11610539Y-16714484D02*
X11591491Y-16704960D01*
X11591491Y-16704960D02*
X11581967Y-16695436D01*
X11581967Y-16695436D02*
X11572443Y-16676388D01*
X11572443Y-16676388D02*
X11562920Y-16638293D01*
X11562920Y-16638293D02*
X11562920Y-16590674D01*
X11562920Y-16590674D02*
X11572443Y-16552579D01*
X11572443Y-16552579D02*
X11581967Y-16533531D01*
X11581967Y-16533531D02*
X11591491Y-16524008D01*
X11591491Y-16524008D02*
X11610539Y-16514484D01*
X11762920Y-16714484D02*
X11762920Y-16581150D01*
X11762920Y-16600198D02*
X11772443Y-16590674D01*
X11772443Y-16590674D02*
X11791491Y-16581150D01*
X11791491Y-16581150D02*
X11820063Y-16581150D01*
X11820063Y-16581150D02*
X11839110Y-16590674D01*
X11839110Y-16590674D02*
X11848634Y-16609722D01*
X11848634Y-16609722D02*
X11848634Y-16714484D01*
X11848634Y-16609722D02*
X11858158Y-16590674D01*
X11858158Y-16590674D02*
X11877205Y-16581150D01*
X11877205Y-16581150D02*
X11905777Y-16581150D01*
X11905777Y-16581150D02*
X11924824Y-16590674D01*
X11924824Y-16590674D02*
X11934348Y-16609722D01*
X11934348Y-16609722D02*
X11934348Y-16714484D01*
X12029586Y-16714484D02*
X12029586Y-16581150D01*
X12029586Y-16600198D02*
X12039110Y-16590674D01*
X12039110Y-16590674D02*
X12058158Y-16581150D01*
X12058158Y-16581150D02*
X12086729Y-16581150D01*
X12086729Y-16581150D02*
X12105777Y-16590674D01*
X12105777Y-16590674D02*
X12115301Y-16609722D01*
X12115301Y-16609722D02*
X12115301Y-16714484D01*
X12115301Y-16609722D02*
X12124824Y-16590674D01*
X12124824Y-16590674D02*
X12143872Y-16581150D01*
X12143872Y-16581150D02*
X12172443Y-16581150D01*
X12172443Y-16581150D02*
X12191491Y-16590674D01*
X12191491Y-16590674D02*
X12201015Y-16609722D01*
X12201015Y-16609722D02*
X12201015Y-16714484D01*
X12591491Y-16504960D02*
X12420063Y-16762103D01*
X12848634Y-16514484D02*
X12867682Y-16514484D01*
X12867682Y-16514484D02*
X12886729Y-16524008D01*
X12886729Y-16524008D02*
X12896253Y-16533531D01*
X12896253Y-16533531D02*
X12905777Y-16552579D01*
X12905777Y-16552579D02*
X12915301Y-16590674D01*
X12915301Y-16590674D02*
X12915301Y-16638293D01*
X12915301Y-16638293D02*
X12905777Y-16676388D01*
X12905777Y-16676388D02*
X12896253Y-16695436D01*
X12896253Y-16695436D02*
X12886729Y-16704960D01*
X12886729Y-16704960D02*
X12867682Y-16714484D01*
X12867682Y-16714484D02*
X12848634Y-16714484D01*
X12848634Y-16714484D02*
X12829586Y-16704960D01*
X12829586Y-16704960D02*
X12820063Y-16695436D01*
X12820063Y-16695436D02*
X12810539Y-16676388D01*
X12810539Y-16676388D02*
X12801015Y-16638293D01*
X12801015Y-16638293D02*
X12801015Y-16590674D01*
X12801015Y-16590674D02*
X12810539Y-16552579D01*
X12810539Y-16552579D02*
X12820063Y-16533531D01*
X12820063Y-16533531D02*
X12829586Y-16524008D01*
X12829586Y-16524008D02*
X12848634Y-16514484D01*
X13001015Y-16695436D02*
X13010539Y-16704960D01*
X13010539Y-16704960D02*
X13001015Y-16714484D01*
X13001015Y-16714484D02*
X12991491Y-16704960D01*
X12991491Y-16704960D02*
X13001015Y-16695436D01*
X13001015Y-16695436D02*
X13001015Y-16714484D01*
X13134348Y-16514484D02*
X13153396Y-16514484D01*
X13153396Y-16514484D02*
X13172444Y-16524008D01*
X13172444Y-16524008D02*
X13181967Y-16533531D01*
X13181967Y-16533531D02*
X13191491Y-16552579D01*
X13191491Y-16552579D02*
X13201015Y-16590674D01*
X13201015Y-16590674D02*
X13201015Y-16638293D01*
X13201015Y-16638293D02*
X13191491Y-16676388D01*
X13191491Y-16676388D02*
X13181967Y-16695436D01*
X13181967Y-16695436D02*
X13172444Y-16704960D01*
X13172444Y-16704960D02*
X13153396Y-16714484D01*
X13153396Y-16714484D02*
X13134348Y-16714484D01*
X13134348Y-16714484D02*
X13115301Y-16704960D01*
X13115301Y-16704960D02*
X13105777Y-16695436D01*
X13105777Y-16695436D02*
X13096253Y-16676388D01*
X13096253Y-16676388D02*
X13086729Y-16638293D01*
X13086729Y-16638293D02*
X13086729Y-16590674D01*
X13086729Y-16590674D02*
X13096253Y-16552579D01*
X13096253Y-16552579D02*
X13105777Y-16533531D01*
X13105777Y-16533531D02*
X13115301Y-16524008D01*
X13115301Y-16524008D02*
X13134348Y-16514484D01*
X13267682Y-16514484D02*
X13391491Y-16514484D01*
X13391491Y-16514484D02*
X13324825Y-16590674D01*
X13324825Y-16590674D02*
X13353396Y-16590674D01*
X13353396Y-16590674D02*
X13372444Y-16600198D01*
X13372444Y-16600198D02*
X13381967Y-16609722D01*
X13381967Y-16609722D02*
X13391491Y-16628769D01*
X13391491Y-16628769D02*
X13391491Y-16676388D01*
X13391491Y-16676388D02*
X13381967Y-16695436D01*
X13381967Y-16695436D02*
X13372444Y-16704960D01*
X13372444Y-16704960D02*
X13353396Y-16714484D01*
X13353396Y-16714484D02*
X13296253Y-16714484D01*
X13296253Y-16714484D02*
X13277206Y-16704960D01*
X13277206Y-16704960D02*
X13267682Y-16695436D01*
X13486729Y-16714484D02*
X13524825Y-16714484D01*
X13524825Y-16714484D02*
X13543872Y-16704960D01*
X13543872Y-16704960D02*
X13553396Y-16695436D01*
X13553396Y-16695436D02*
X13572444Y-16666865D01*
X13572444Y-16666865D02*
X13581967Y-16628769D01*
X13581967Y-16628769D02*
X13581967Y-16552579D01*
X13581967Y-16552579D02*
X13572444Y-16533531D01*
X13572444Y-16533531D02*
X13562920Y-16524008D01*
X13562920Y-16524008D02*
X13543872Y-16514484D01*
X13543872Y-16514484D02*
X13505777Y-16514484D01*
X13505777Y-16514484D02*
X13486729Y-16524008D01*
X13486729Y-16524008D02*
X13477206Y-16533531D01*
X13477206Y-16533531D02*
X13467682Y-16552579D01*
X13467682Y-16552579D02*
X13467682Y-16600198D01*
X13467682Y-16600198D02*
X13477206Y-16619246D01*
X13477206Y-16619246D02*
X13486729Y-16628769D01*
X13486729Y-16628769D02*
X13505777Y-16638293D01*
X13505777Y-16638293D02*
X13543872Y-16638293D01*
X13543872Y-16638293D02*
X13562920Y-16628769D01*
X13562920Y-16628769D02*
X13572444Y-16619246D01*
X13572444Y-16619246D02*
X13581967Y-16600198D01*
X13753396Y-16581150D02*
X13753396Y-16714484D01*
X13705777Y-16504960D02*
X13658158Y-16647817D01*
X13658158Y-16647817D02*
X13781967Y-16647817D01*
X13848634Y-16514484D02*
X13848634Y-16552579D01*
X13924825Y-16514484D02*
X13924825Y-16552579D01*
X14220063Y-16790674D02*
X14210539Y-16781150D01*
X14210539Y-16781150D02*
X14191491Y-16752579D01*
X14191491Y-16752579D02*
X14181968Y-16733531D01*
X14181968Y-16733531D02*
X14172444Y-16704960D01*
X14172444Y-16704960D02*
X14162920Y-16657341D01*
X14162920Y-16657341D02*
X14162920Y-16619246D01*
X14162920Y-16619246D02*
X14172444Y-16571627D01*
X14172444Y-16571627D02*
X14181968Y-16543055D01*
X14181968Y-16543055D02*
X14191491Y-16524008D01*
X14191491Y-16524008D02*
X14210539Y-16495436D01*
X14210539Y-16495436D02*
X14220063Y-16485912D01*
X14401015Y-16714484D02*
X14286729Y-16714484D01*
X14343872Y-16714484D02*
X14343872Y-16514484D01*
X14343872Y-16514484D02*
X14324825Y-16543055D01*
X14324825Y-16543055D02*
X14305777Y-16562103D01*
X14305777Y-16562103D02*
X14286729Y-16571627D01*
X14591491Y-16714484D02*
X14477206Y-16714484D01*
X14534348Y-16714484D02*
X14534348Y-16514484D01*
X14534348Y-16514484D02*
X14515301Y-16543055D01*
X14515301Y-16543055D02*
X14496253Y-16562103D01*
X14496253Y-16562103D02*
X14477206Y-16571627D01*
X14829587Y-16714484D02*
X14829587Y-16514484D01*
X14915301Y-16714484D02*
X14915301Y-16609722D01*
X14915301Y-16609722D02*
X14905777Y-16590674D01*
X14905777Y-16590674D02*
X14886730Y-16581150D01*
X14886730Y-16581150D02*
X14858158Y-16581150D01*
X14858158Y-16581150D02*
X14839110Y-16590674D01*
X14839110Y-16590674D02*
X14829587Y-16600198D01*
X15039110Y-16714484D02*
X15020063Y-16704960D01*
X15020063Y-16704960D02*
X15010539Y-16695436D01*
X15010539Y-16695436D02*
X15001015Y-16676388D01*
X15001015Y-16676388D02*
X15001015Y-16619246D01*
X15001015Y-16619246D02*
X15010539Y-16600198D01*
X15010539Y-16600198D02*
X15020063Y-16590674D01*
X15020063Y-16590674D02*
X15039110Y-16581150D01*
X15039110Y-16581150D02*
X15067682Y-16581150D01*
X15067682Y-16581150D02*
X15086730Y-16590674D01*
X15086730Y-16590674D02*
X15096253Y-16600198D01*
X15096253Y-16600198D02*
X15105777Y-16619246D01*
X15105777Y-16619246D02*
X15105777Y-16676388D01*
X15105777Y-16676388D02*
X15096253Y-16695436D01*
X15096253Y-16695436D02*
X15086730Y-16704960D01*
X15086730Y-16704960D02*
X15067682Y-16714484D01*
X15067682Y-16714484D02*
X15039110Y-16714484D01*
X15220063Y-16714484D02*
X15201015Y-16704960D01*
X15201015Y-16704960D02*
X15191491Y-16685912D01*
X15191491Y-16685912D02*
X15191491Y-16514484D01*
X15372444Y-16704960D02*
X15353396Y-16714484D01*
X15353396Y-16714484D02*
X15315301Y-16714484D01*
X15315301Y-16714484D02*
X15296253Y-16704960D01*
X15296253Y-16704960D02*
X15286730Y-16685912D01*
X15286730Y-16685912D02*
X15286730Y-16609722D01*
X15286730Y-16609722D02*
X15296253Y-16590674D01*
X15296253Y-16590674D02*
X15315301Y-16581150D01*
X15315301Y-16581150D02*
X15353396Y-16581150D01*
X15353396Y-16581150D02*
X15372444Y-16590674D01*
X15372444Y-16590674D02*
X15381968Y-16609722D01*
X15381968Y-16609722D02*
X15381968Y-16628769D01*
X15381968Y-16628769D02*
X15286730Y-16647817D01*
X15458158Y-16704960D02*
X15477206Y-16714484D01*
X15477206Y-16714484D02*
X15515301Y-16714484D01*
X15515301Y-16714484D02*
X15534349Y-16704960D01*
X15534349Y-16704960D02*
X15543872Y-16685912D01*
X15543872Y-16685912D02*
X15543872Y-16676388D01*
X15543872Y-16676388D02*
X15534349Y-16657341D01*
X15534349Y-16657341D02*
X15515301Y-16647817D01*
X15515301Y-16647817D02*
X15486730Y-16647817D01*
X15486730Y-16647817D02*
X15467682Y-16638293D01*
X15467682Y-16638293D02*
X15458158Y-16619246D01*
X15458158Y-16619246D02*
X15458158Y-16609722D01*
X15458158Y-16609722D02*
X15467682Y-16590674D01*
X15467682Y-16590674D02*
X15486730Y-16581150D01*
X15486730Y-16581150D02*
X15515301Y-16581150D01*
X15515301Y-16581150D02*
X15534349Y-16590674D01*
X15610539Y-16790674D02*
X15620063Y-16781150D01*
X15620063Y-16781150D02*
X15639111Y-16752579D01*
X15639111Y-16752579D02*
X15648634Y-16733531D01*
X15648634Y-16733531D02*
X15658158Y-16704960D01*
X15658158Y-16704960D02*
X15667682Y-16657341D01*
X15667682Y-16657341D02*
X15667682Y-16619246D01*
X15667682Y-16619246D02*
X15658158Y-16571627D01*
X15658158Y-16571627D02*
X15648634Y-16543055D01*
X15648634Y-16543055D02*
X15639111Y-16524008D01*
X15639111Y-16524008D02*
X15620063Y-16495436D01*
X15620063Y-16495436D02*
X15610539Y-16485912D01*
D12*
X10622741Y-16940741D02*
X10622741Y-16833259D01*
X10515259Y-16833259D01*
X10515259Y-16940741D01*
X10622741Y-16940741D01*
D11*
X11010539Y-16978484D02*
X10896253Y-16978484D01*
X10953396Y-16978484D02*
X10953396Y-16778484D01*
X10953396Y-16778484D02*
X10934348Y-16807055D01*
X10934348Y-16807055D02*
X10915301Y-16826103D01*
X10915301Y-16826103D02*
X10896253Y-16835627D01*
X11096253Y-16959436D02*
X11105777Y-16968960D01*
X11105777Y-16968960D02*
X11096253Y-16978484D01*
X11096253Y-16978484D02*
X11086729Y-16968960D01*
X11086729Y-16968960D02*
X11096253Y-16959436D01*
X11096253Y-16959436D02*
X11096253Y-16978484D01*
X11286729Y-16778484D02*
X11191491Y-16778484D01*
X11191491Y-16778484D02*
X11181967Y-16873722D01*
X11181967Y-16873722D02*
X11191491Y-16864198D01*
X11191491Y-16864198D02*
X11210539Y-16854674D01*
X11210539Y-16854674D02*
X11258158Y-16854674D01*
X11258158Y-16854674D02*
X11277205Y-16864198D01*
X11277205Y-16864198D02*
X11286729Y-16873722D01*
X11286729Y-16873722D02*
X11296253Y-16892770D01*
X11296253Y-16892770D02*
X11296253Y-16940389D01*
X11296253Y-16940389D02*
X11286729Y-16959436D01*
X11286729Y-16959436D02*
X11277205Y-16968960D01*
X11277205Y-16968960D02*
X11258158Y-16978484D01*
X11258158Y-16978484D02*
X11210539Y-16978484D01*
X11210539Y-16978484D02*
X11191491Y-16968960D01*
X11191491Y-16968960D02*
X11181967Y-16959436D01*
X11372443Y-16797531D02*
X11381967Y-16788008D01*
X11381967Y-16788008D02*
X11401015Y-16778484D01*
X11401015Y-16778484D02*
X11448634Y-16778484D01*
X11448634Y-16778484D02*
X11467682Y-16788008D01*
X11467682Y-16788008D02*
X11477205Y-16797531D01*
X11477205Y-16797531D02*
X11486729Y-16816579D01*
X11486729Y-16816579D02*
X11486729Y-16835627D01*
X11486729Y-16835627D02*
X11477205Y-16864198D01*
X11477205Y-16864198D02*
X11362920Y-16978484D01*
X11362920Y-16978484D02*
X11486729Y-16978484D01*
X11610539Y-16778484D02*
X11629586Y-16778484D01*
X11629586Y-16778484D02*
X11648634Y-16788008D01*
X11648634Y-16788008D02*
X11658158Y-16797531D01*
X11658158Y-16797531D02*
X11667682Y-16816579D01*
X11667682Y-16816579D02*
X11677205Y-16854674D01*
X11677205Y-16854674D02*
X11677205Y-16902293D01*
X11677205Y-16902293D02*
X11667682Y-16940389D01*
X11667682Y-16940389D02*
X11658158Y-16959436D01*
X11658158Y-16959436D02*
X11648634Y-16968960D01*
X11648634Y-16968960D02*
X11629586Y-16978484D01*
X11629586Y-16978484D02*
X11610539Y-16978484D01*
X11610539Y-16978484D02*
X11591491Y-16968960D01*
X11591491Y-16968960D02*
X11581967Y-16959436D01*
X11581967Y-16959436D02*
X11572443Y-16940389D01*
X11572443Y-16940389D02*
X11562920Y-16902293D01*
X11562920Y-16902293D02*
X11562920Y-16854674D01*
X11562920Y-16854674D02*
X11572443Y-16816579D01*
X11572443Y-16816579D02*
X11581967Y-16797531D01*
X11581967Y-16797531D02*
X11591491Y-16788008D01*
X11591491Y-16788008D02*
X11610539Y-16778484D01*
X11762920Y-16978484D02*
X11762920Y-16845150D01*
X11762920Y-16864198D02*
X11772443Y-16854674D01*
X11772443Y-16854674D02*
X11791491Y-16845150D01*
X11791491Y-16845150D02*
X11820063Y-16845150D01*
X11820063Y-16845150D02*
X11839110Y-16854674D01*
X11839110Y-16854674D02*
X11848634Y-16873722D01*
X11848634Y-16873722D02*
X11848634Y-16978484D01*
X11848634Y-16873722D02*
X11858158Y-16854674D01*
X11858158Y-16854674D02*
X11877205Y-16845150D01*
X11877205Y-16845150D02*
X11905777Y-16845150D01*
X11905777Y-16845150D02*
X11924824Y-16854674D01*
X11924824Y-16854674D02*
X11934348Y-16873722D01*
X11934348Y-16873722D02*
X11934348Y-16978484D01*
X12029586Y-16978484D02*
X12029586Y-16845150D01*
X12029586Y-16864198D02*
X12039110Y-16854674D01*
X12039110Y-16854674D02*
X12058158Y-16845150D01*
X12058158Y-16845150D02*
X12086729Y-16845150D01*
X12086729Y-16845150D02*
X12105777Y-16854674D01*
X12105777Y-16854674D02*
X12115301Y-16873722D01*
X12115301Y-16873722D02*
X12115301Y-16978484D01*
X12115301Y-16873722D02*
X12124824Y-16854674D01*
X12124824Y-16854674D02*
X12143872Y-16845150D01*
X12143872Y-16845150D02*
X12172443Y-16845150D01*
X12172443Y-16845150D02*
X12191491Y-16854674D01*
X12191491Y-16854674D02*
X12201015Y-16873722D01*
X12201015Y-16873722D02*
X12201015Y-16978484D01*
X12591491Y-16768960D02*
X12420063Y-17026103D01*
X12848634Y-16778484D02*
X12867682Y-16778484D01*
X12867682Y-16778484D02*
X12886729Y-16788008D01*
X12886729Y-16788008D02*
X12896253Y-16797531D01*
X12896253Y-16797531D02*
X12905777Y-16816579D01*
X12905777Y-16816579D02*
X12915301Y-16854674D01*
X12915301Y-16854674D02*
X12915301Y-16902293D01*
X12915301Y-16902293D02*
X12905777Y-16940389D01*
X12905777Y-16940389D02*
X12896253Y-16959436D01*
X12896253Y-16959436D02*
X12886729Y-16968960D01*
X12886729Y-16968960D02*
X12867682Y-16978484D01*
X12867682Y-16978484D02*
X12848634Y-16978484D01*
X12848634Y-16978484D02*
X12829586Y-16968960D01*
X12829586Y-16968960D02*
X12820063Y-16959436D01*
X12820063Y-16959436D02*
X12810539Y-16940389D01*
X12810539Y-16940389D02*
X12801015Y-16902293D01*
X12801015Y-16902293D02*
X12801015Y-16854674D01*
X12801015Y-16854674D02*
X12810539Y-16816579D01*
X12810539Y-16816579D02*
X12820063Y-16797531D01*
X12820063Y-16797531D02*
X12829586Y-16788008D01*
X12829586Y-16788008D02*
X12848634Y-16778484D01*
X13001015Y-16959436D02*
X13010539Y-16968960D01*
X13010539Y-16968960D02*
X13001015Y-16978484D01*
X13001015Y-16978484D02*
X12991491Y-16968960D01*
X12991491Y-16968960D02*
X13001015Y-16959436D01*
X13001015Y-16959436D02*
X13001015Y-16978484D01*
X13134348Y-16778484D02*
X13153396Y-16778484D01*
X13153396Y-16778484D02*
X13172444Y-16788008D01*
X13172444Y-16788008D02*
X13181967Y-16797531D01*
X13181967Y-16797531D02*
X13191491Y-16816579D01*
X13191491Y-16816579D02*
X13201015Y-16854674D01*
X13201015Y-16854674D02*
X13201015Y-16902293D01*
X13201015Y-16902293D02*
X13191491Y-16940389D01*
X13191491Y-16940389D02*
X13181967Y-16959436D01*
X13181967Y-16959436D02*
X13172444Y-16968960D01*
X13172444Y-16968960D02*
X13153396Y-16978484D01*
X13153396Y-16978484D02*
X13134348Y-16978484D01*
X13134348Y-16978484D02*
X13115301Y-16968960D01*
X13115301Y-16968960D02*
X13105777Y-16959436D01*
X13105777Y-16959436D02*
X13096253Y-16940389D01*
X13096253Y-16940389D02*
X13086729Y-16902293D01*
X13086729Y-16902293D02*
X13086729Y-16854674D01*
X13086729Y-16854674D02*
X13096253Y-16816579D01*
X13096253Y-16816579D02*
X13105777Y-16797531D01*
X13105777Y-16797531D02*
X13115301Y-16788008D01*
X13115301Y-16788008D02*
X13134348Y-16778484D01*
X13381967Y-16778484D02*
X13286729Y-16778484D01*
X13286729Y-16778484D02*
X13277206Y-16873722D01*
X13277206Y-16873722D02*
X13286729Y-16864198D01*
X13286729Y-16864198D02*
X13305777Y-16854674D01*
X13305777Y-16854674D02*
X13353396Y-16854674D01*
X13353396Y-16854674D02*
X13372444Y-16864198D01*
X13372444Y-16864198D02*
X13381967Y-16873722D01*
X13381967Y-16873722D02*
X13391491Y-16892770D01*
X13391491Y-16892770D02*
X13391491Y-16940389D01*
X13391491Y-16940389D02*
X13381967Y-16959436D01*
X13381967Y-16959436D02*
X13372444Y-16968960D01*
X13372444Y-16968960D02*
X13353396Y-16978484D01*
X13353396Y-16978484D02*
X13305777Y-16978484D01*
X13305777Y-16978484D02*
X13286729Y-16968960D01*
X13286729Y-16968960D02*
X13277206Y-16959436D01*
X13486729Y-16978484D02*
X13524825Y-16978484D01*
X13524825Y-16978484D02*
X13543872Y-16968960D01*
X13543872Y-16968960D02*
X13553396Y-16959436D01*
X13553396Y-16959436D02*
X13572444Y-16930865D01*
X13572444Y-16930865D02*
X13581967Y-16892770D01*
X13581967Y-16892770D02*
X13581967Y-16816579D01*
X13581967Y-16816579D02*
X13572444Y-16797531D01*
X13572444Y-16797531D02*
X13562920Y-16788008D01*
X13562920Y-16788008D02*
X13543872Y-16778484D01*
X13543872Y-16778484D02*
X13505777Y-16778484D01*
X13505777Y-16778484D02*
X13486729Y-16788008D01*
X13486729Y-16788008D02*
X13477206Y-16797531D01*
X13477206Y-16797531D02*
X13467682Y-16816579D01*
X13467682Y-16816579D02*
X13467682Y-16864198D01*
X13467682Y-16864198D02*
X13477206Y-16883246D01*
X13477206Y-16883246D02*
X13486729Y-16892770D01*
X13486729Y-16892770D02*
X13505777Y-16902293D01*
X13505777Y-16902293D02*
X13543872Y-16902293D01*
X13543872Y-16902293D02*
X13562920Y-16892770D01*
X13562920Y-16892770D02*
X13572444Y-16883246D01*
X13572444Y-16883246D02*
X13581967Y-16864198D01*
X13696253Y-16864198D02*
X13677206Y-16854674D01*
X13677206Y-16854674D02*
X13667682Y-16845150D01*
X13667682Y-16845150D02*
X13658158Y-16826103D01*
X13658158Y-16826103D02*
X13658158Y-16816579D01*
X13658158Y-16816579D02*
X13667682Y-16797531D01*
X13667682Y-16797531D02*
X13677206Y-16788008D01*
X13677206Y-16788008D02*
X13696253Y-16778484D01*
X13696253Y-16778484D02*
X13734348Y-16778484D01*
X13734348Y-16778484D02*
X13753396Y-16788008D01*
X13753396Y-16788008D02*
X13762920Y-16797531D01*
X13762920Y-16797531D02*
X13772444Y-16816579D01*
X13772444Y-16816579D02*
X13772444Y-16826103D01*
X13772444Y-16826103D02*
X13762920Y-16845150D01*
X13762920Y-16845150D02*
X13753396Y-16854674D01*
X13753396Y-16854674D02*
X13734348Y-16864198D01*
X13734348Y-16864198D02*
X13696253Y-16864198D01*
X13696253Y-16864198D02*
X13677206Y-16873722D01*
X13677206Y-16873722D02*
X13667682Y-16883246D01*
X13667682Y-16883246D02*
X13658158Y-16902293D01*
X13658158Y-16902293D02*
X13658158Y-16940389D01*
X13658158Y-16940389D02*
X13667682Y-16959436D01*
X13667682Y-16959436D02*
X13677206Y-16968960D01*
X13677206Y-16968960D02*
X13696253Y-16978484D01*
X13696253Y-16978484D02*
X13734348Y-16978484D01*
X13734348Y-16978484D02*
X13753396Y-16968960D01*
X13753396Y-16968960D02*
X13762920Y-16959436D01*
X13762920Y-16959436D02*
X13772444Y-16940389D01*
X13772444Y-16940389D02*
X13772444Y-16902293D01*
X13772444Y-16902293D02*
X13762920Y-16883246D01*
X13762920Y-16883246D02*
X13753396Y-16873722D01*
X13753396Y-16873722D02*
X13734348Y-16864198D01*
X13848634Y-16778484D02*
X13848634Y-16816579D01*
X13924825Y-16778484D02*
X13924825Y-16816579D01*
X14220063Y-17054674D02*
X14210539Y-17045150D01*
X14210539Y-17045150D02*
X14191491Y-17016579D01*
X14191491Y-17016579D02*
X14181968Y-16997531D01*
X14181968Y-16997531D02*
X14172444Y-16968960D01*
X14172444Y-16968960D02*
X14162920Y-16921341D01*
X14162920Y-16921341D02*
X14162920Y-16883246D01*
X14162920Y-16883246D02*
X14172444Y-16835627D01*
X14172444Y-16835627D02*
X14181968Y-16807055D01*
X14181968Y-16807055D02*
X14191491Y-16788008D01*
X14191491Y-16788008D02*
X14210539Y-16759436D01*
X14210539Y-16759436D02*
X14220063Y-16749912D01*
X14391491Y-16778484D02*
X14296253Y-16778484D01*
X14296253Y-16778484D02*
X14286729Y-16873722D01*
X14286729Y-16873722D02*
X14296253Y-16864198D01*
X14296253Y-16864198D02*
X14315301Y-16854674D01*
X14315301Y-16854674D02*
X14362920Y-16854674D01*
X14362920Y-16854674D02*
X14381968Y-16864198D01*
X14381968Y-16864198D02*
X14391491Y-16873722D01*
X14391491Y-16873722D02*
X14401015Y-16892770D01*
X14401015Y-16892770D02*
X14401015Y-16940389D01*
X14401015Y-16940389D02*
X14391491Y-16959436D01*
X14391491Y-16959436D02*
X14381968Y-16968960D01*
X14381968Y-16968960D02*
X14362920Y-16978484D01*
X14362920Y-16978484D02*
X14315301Y-16978484D01*
X14315301Y-16978484D02*
X14296253Y-16968960D01*
X14296253Y-16968960D02*
X14286729Y-16959436D01*
X14639110Y-16978484D02*
X14639110Y-16778484D01*
X14724825Y-16978484D02*
X14724825Y-16873722D01*
X14724825Y-16873722D02*
X14715301Y-16854674D01*
X14715301Y-16854674D02*
X14696253Y-16845150D01*
X14696253Y-16845150D02*
X14667682Y-16845150D01*
X14667682Y-16845150D02*
X14648634Y-16854674D01*
X14648634Y-16854674D02*
X14639110Y-16864198D01*
X14848634Y-16978484D02*
X14829587Y-16968960D01*
X14829587Y-16968960D02*
X14820063Y-16959436D01*
X14820063Y-16959436D02*
X14810539Y-16940389D01*
X14810539Y-16940389D02*
X14810539Y-16883246D01*
X14810539Y-16883246D02*
X14820063Y-16864198D01*
X14820063Y-16864198D02*
X14829587Y-16854674D01*
X14829587Y-16854674D02*
X14848634Y-16845150D01*
X14848634Y-16845150D02*
X14877206Y-16845150D01*
X14877206Y-16845150D02*
X14896253Y-16854674D01*
X14896253Y-16854674D02*
X14905777Y-16864198D01*
X14905777Y-16864198D02*
X14915301Y-16883246D01*
X14915301Y-16883246D02*
X14915301Y-16940389D01*
X14915301Y-16940389D02*
X14905777Y-16959436D01*
X14905777Y-16959436D02*
X14896253Y-16968960D01*
X14896253Y-16968960D02*
X14877206Y-16978484D01*
X14877206Y-16978484D02*
X14848634Y-16978484D01*
X15029587Y-16978484D02*
X15010539Y-16968960D01*
X15010539Y-16968960D02*
X15001015Y-16949912D01*
X15001015Y-16949912D02*
X15001015Y-16778484D01*
X15181968Y-16968960D02*
X15162920Y-16978484D01*
X15162920Y-16978484D02*
X15124825Y-16978484D01*
X15124825Y-16978484D02*
X15105777Y-16968960D01*
X15105777Y-16968960D02*
X15096253Y-16949912D01*
X15096253Y-16949912D02*
X15096253Y-16873722D01*
X15096253Y-16873722D02*
X15105777Y-16854674D01*
X15105777Y-16854674D02*
X15124825Y-16845150D01*
X15124825Y-16845150D02*
X15162920Y-16845150D01*
X15162920Y-16845150D02*
X15181968Y-16854674D01*
X15181968Y-16854674D02*
X15191491Y-16873722D01*
X15191491Y-16873722D02*
X15191491Y-16892770D01*
X15191491Y-16892770D02*
X15096253Y-16911817D01*
X15267682Y-16968960D02*
X15286730Y-16978484D01*
X15286730Y-16978484D02*
X15324825Y-16978484D01*
X15324825Y-16978484D02*
X15343872Y-16968960D01*
X15343872Y-16968960D02*
X15353396Y-16949912D01*
X15353396Y-16949912D02*
X15353396Y-16940389D01*
X15353396Y-16940389D02*
X15343872Y-16921341D01*
X15343872Y-16921341D02*
X15324825Y-16911817D01*
X15324825Y-16911817D02*
X15296253Y-16911817D01*
X15296253Y-16911817D02*
X15277206Y-16902293D01*
X15277206Y-16902293D02*
X15267682Y-16883246D01*
X15267682Y-16883246D02*
X15267682Y-16873722D01*
X15267682Y-16873722D02*
X15277206Y-16854674D01*
X15277206Y-16854674D02*
X15296253Y-16845150D01*
X15296253Y-16845150D02*
X15324825Y-16845150D01*
X15324825Y-16845150D02*
X15343872Y-16854674D01*
X15420063Y-17054674D02*
X15429587Y-17045150D01*
X15429587Y-17045150D02*
X15448634Y-17016579D01*
X15448634Y-17016579D02*
X15458158Y-16997531D01*
X15458158Y-16997531D02*
X15467682Y-16968960D01*
X15467682Y-16968960D02*
X15477206Y-16921341D01*
X15477206Y-16921341D02*
X15477206Y-16883246D01*
X15477206Y-16883246D02*
X15467682Y-16835627D01*
X15467682Y-16835627D02*
X15458158Y-16807055D01*
X15458158Y-16807055D02*
X15448634Y-16788008D01*
X15448634Y-16788008D02*
X15429587Y-16759436D01*
X15429587Y-16759436D02*
X15420063Y-16749912D01*
D13*
X10565000Y-17239000D02*
X10645000Y-17159000D01*
X10565000Y-17079000D01*
X10485000Y-17159000D01*
X10565000Y-17239000D01*
D11*
X11010539Y-17250484D02*
X10896253Y-17250484D01*
X10953396Y-17250484D02*
X10953396Y-17050484D01*
X10953396Y-17050484D02*
X10934348Y-17079055D01*
X10934348Y-17079055D02*
X10915301Y-17098103D01*
X10915301Y-17098103D02*
X10896253Y-17107627D01*
X11096253Y-17231436D02*
X11105777Y-17240960D01*
X11105777Y-17240960D02*
X11096253Y-17250484D01*
X11096253Y-17250484D02*
X11086729Y-17240960D01*
X11086729Y-17240960D02*
X11096253Y-17231436D01*
X11096253Y-17231436D02*
X11096253Y-17250484D01*
X11277205Y-17050484D02*
X11239110Y-17050484D01*
X11239110Y-17050484D02*
X11220062Y-17060008D01*
X11220062Y-17060008D02*
X11210539Y-17069531D01*
X11210539Y-17069531D02*
X11191491Y-17098103D01*
X11191491Y-17098103D02*
X11181967Y-17136198D01*
X11181967Y-17136198D02*
X11181967Y-17212389D01*
X11181967Y-17212389D02*
X11191491Y-17231436D01*
X11191491Y-17231436D02*
X11201015Y-17240960D01*
X11201015Y-17240960D02*
X11220062Y-17250484D01*
X11220062Y-17250484D02*
X11258158Y-17250484D01*
X11258158Y-17250484D02*
X11277205Y-17240960D01*
X11277205Y-17240960D02*
X11286729Y-17231436D01*
X11286729Y-17231436D02*
X11296253Y-17212389D01*
X11296253Y-17212389D02*
X11296253Y-17164770D01*
X11296253Y-17164770D02*
X11286729Y-17145722D01*
X11286729Y-17145722D02*
X11277205Y-17136198D01*
X11277205Y-17136198D02*
X11258158Y-17126674D01*
X11258158Y-17126674D02*
X11220062Y-17126674D01*
X11220062Y-17126674D02*
X11201015Y-17136198D01*
X11201015Y-17136198D02*
X11191491Y-17145722D01*
X11191491Y-17145722D02*
X11181967Y-17164770D01*
X11420062Y-17050484D02*
X11439110Y-17050484D01*
X11439110Y-17050484D02*
X11458158Y-17060008D01*
X11458158Y-17060008D02*
X11467682Y-17069531D01*
X11467682Y-17069531D02*
X11477205Y-17088579D01*
X11477205Y-17088579D02*
X11486729Y-17126674D01*
X11486729Y-17126674D02*
X11486729Y-17174293D01*
X11486729Y-17174293D02*
X11477205Y-17212389D01*
X11477205Y-17212389D02*
X11467682Y-17231436D01*
X11467682Y-17231436D02*
X11458158Y-17240960D01*
X11458158Y-17240960D02*
X11439110Y-17250484D01*
X11439110Y-17250484D02*
X11420062Y-17250484D01*
X11420062Y-17250484D02*
X11401015Y-17240960D01*
X11401015Y-17240960D02*
X11391491Y-17231436D01*
X11391491Y-17231436D02*
X11381967Y-17212389D01*
X11381967Y-17212389D02*
X11372443Y-17174293D01*
X11372443Y-17174293D02*
X11372443Y-17126674D01*
X11372443Y-17126674D02*
X11381967Y-17088579D01*
X11381967Y-17088579D02*
X11391491Y-17069531D01*
X11391491Y-17069531D02*
X11401015Y-17060008D01*
X11401015Y-17060008D02*
X11420062Y-17050484D01*
X11610539Y-17050484D02*
X11629586Y-17050484D01*
X11629586Y-17050484D02*
X11648634Y-17060008D01*
X11648634Y-17060008D02*
X11658158Y-17069531D01*
X11658158Y-17069531D02*
X11667682Y-17088579D01*
X11667682Y-17088579D02*
X11677205Y-17126674D01*
X11677205Y-17126674D02*
X11677205Y-17174293D01*
X11677205Y-17174293D02*
X11667682Y-17212389D01*
X11667682Y-17212389D02*
X11658158Y-17231436D01*
X11658158Y-17231436D02*
X11648634Y-17240960D01*
X11648634Y-17240960D02*
X11629586Y-17250484D01*
X11629586Y-17250484D02*
X11610539Y-17250484D01*
X11610539Y-17250484D02*
X11591491Y-17240960D01*
X11591491Y-17240960D02*
X11581967Y-17231436D01*
X11581967Y-17231436D02*
X11572443Y-17212389D01*
X11572443Y-17212389D02*
X11562920Y-17174293D01*
X11562920Y-17174293D02*
X11562920Y-17126674D01*
X11562920Y-17126674D02*
X11572443Y-17088579D01*
X11572443Y-17088579D02*
X11581967Y-17069531D01*
X11581967Y-17069531D02*
X11591491Y-17060008D01*
X11591491Y-17060008D02*
X11610539Y-17050484D01*
X11762920Y-17250484D02*
X11762920Y-17117150D01*
X11762920Y-17136198D02*
X11772443Y-17126674D01*
X11772443Y-17126674D02*
X11791491Y-17117150D01*
X11791491Y-17117150D02*
X11820063Y-17117150D01*
X11820063Y-17117150D02*
X11839110Y-17126674D01*
X11839110Y-17126674D02*
X11848634Y-17145722D01*
X11848634Y-17145722D02*
X11848634Y-17250484D01*
X11848634Y-17145722D02*
X11858158Y-17126674D01*
X11858158Y-17126674D02*
X11877205Y-17117150D01*
X11877205Y-17117150D02*
X11905777Y-17117150D01*
X11905777Y-17117150D02*
X11924824Y-17126674D01*
X11924824Y-17126674D02*
X11934348Y-17145722D01*
X11934348Y-17145722D02*
X11934348Y-17250484D01*
X12029586Y-17250484D02*
X12029586Y-17117150D01*
X12029586Y-17136198D02*
X12039110Y-17126674D01*
X12039110Y-17126674D02*
X12058158Y-17117150D01*
X12058158Y-17117150D02*
X12086729Y-17117150D01*
X12086729Y-17117150D02*
X12105777Y-17126674D01*
X12105777Y-17126674D02*
X12115301Y-17145722D01*
X12115301Y-17145722D02*
X12115301Y-17250484D01*
X12115301Y-17145722D02*
X12124824Y-17126674D01*
X12124824Y-17126674D02*
X12143872Y-17117150D01*
X12143872Y-17117150D02*
X12172443Y-17117150D01*
X12172443Y-17117150D02*
X12191491Y-17126674D01*
X12191491Y-17126674D02*
X12201015Y-17145722D01*
X12201015Y-17145722D02*
X12201015Y-17250484D01*
X12591491Y-17040960D02*
X12420063Y-17298103D01*
X12848634Y-17050484D02*
X12867682Y-17050484D01*
X12867682Y-17050484D02*
X12886729Y-17060008D01*
X12886729Y-17060008D02*
X12896253Y-17069531D01*
X12896253Y-17069531D02*
X12905777Y-17088579D01*
X12905777Y-17088579D02*
X12915301Y-17126674D01*
X12915301Y-17126674D02*
X12915301Y-17174293D01*
X12915301Y-17174293D02*
X12905777Y-17212389D01*
X12905777Y-17212389D02*
X12896253Y-17231436D01*
X12896253Y-17231436D02*
X12886729Y-17240960D01*
X12886729Y-17240960D02*
X12867682Y-17250484D01*
X12867682Y-17250484D02*
X12848634Y-17250484D01*
X12848634Y-17250484D02*
X12829586Y-17240960D01*
X12829586Y-17240960D02*
X12820063Y-17231436D01*
X12820063Y-17231436D02*
X12810539Y-17212389D01*
X12810539Y-17212389D02*
X12801015Y-17174293D01*
X12801015Y-17174293D02*
X12801015Y-17126674D01*
X12801015Y-17126674D02*
X12810539Y-17088579D01*
X12810539Y-17088579D02*
X12820063Y-17069531D01*
X12820063Y-17069531D02*
X12829586Y-17060008D01*
X12829586Y-17060008D02*
X12848634Y-17050484D01*
X13001015Y-17231436D02*
X13010539Y-17240960D01*
X13010539Y-17240960D02*
X13001015Y-17250484D01*
X13001015Y-17250484D02*
X12991491Y-17240960D01*
X12991491Y-17240960D02*
X13001015Y-17231436D01*
X13001015Y-17231436D02*
X13001015Y-17250484D01*
X13134348Y-17050484D02*
X13153396Y-17050484D01*
X13153396Y-17050484D02*
X13172444Y-17060008D01*
X13172444Y-17060008D02*
X13181967Y-17069531D01*
X13181967Y-17069531D02*
X13191491Y-17088579D01*
X13191491Y-17088579D02*
X13201015Y-17126674D01*
X13201015Y-17126674D02*
X13201015Y-17174293D01*
X13201015Y-17174293D02*
X13191491Y-17212389D01*
X13191491Y-17212389D02*
X13181967Y-17231436D01*
X13181967Y-17231436D02*
X13172444Y-17240960D01*
X13172444Y-17240960D02*
X13153396Y-17250484D01*
X13153396Y-17250484D02*
X13134348Y-17250484D01*
X13134348Y-17250484D02*
X13115301Y-17240960D01*
X13115301Y-17240960D02*
X13105777Y-17231436D01*
X13105777Y-17231436D02*
X13096253Y-17212389D01*
X13096253Y-17212389D02*
X13086729Y-17174293D01*
X13086729Y-17174293D02*
X13086729Y-17126674D01*
X13086729Y-17126674D02*
X13096253Y-17088579D01*
X13096253Y-17088579D02*
X13105777Y-17069531D01*
X13105777Y-17069531D02*
X13115301Y-17060008D01*
X13115301Y-17060008D02*
X13134348Y-17050484D01*
X13372444Y-17050484D02*
X13334348Y-17050484D01*
X13334348Y-17050484D02*
X13315301Y-17060008D01*
X13315301Y-17060008D02*
X13305777Y-17069531D01*
X13305777Y-17069531D02*
X13286729Y-17098103D01*
X13286729Y-17098103D02*
X13277206Y-17136198D01*
X13277206Y-17136198D02*
X13277206Y-17212389D01*
X13277206Y-17212389D02*
X13286729Y-17231436D01*
X13286729Y-17231436D02*
X13296253Y-17240960D01*
X13296253Y-17240960D02*
X13315301Y-17250484D01*
X13315301Y-17250484D02*
X13353396Y-17250484D01*
X13353396Y-17250484D02*
X13372444Y-17240960D01*
X13372444Y-17240960D02*
X13381967Y-17231436D01*
X13381967Y-17231436D02*
X13391491Y-17212389D01*
X13391491Y-17212389D02*
X13391491Y-17164770D01*
X13391491Y-17164770D02*
X13381967Y-17145722D01*
X13381967Y-17145722D02*
X13372444Y-17136198D01*
X13372444Y-17136198D02*
X13353396Y-17126674D01*
X13353396Y-17126674D02*
X13315301Y-17126674D01*
X13315301Y-17126674D02*
X13296253Y-17136198D01*
X13296253Y-17136198D02*
X13286729Y-17145722D01*
X13286729Y-17145722D02*
X13277206Y-17164770D01*
X13458158Y-17050484D02*
X13581967Y-17050484D01*
X13581967Y-17050484D02*
X13515301Y-17126674D01*
X13515301Y-17126674D02*
X13543872Y-17126674D01*
X13543872Y-17126674D02*
X13562920Y-17136198D01*
X13562920Y-17136198D02*
X13572444Y-17145722D01*
X13572444Y-17145722D02*
X13581967Y-17164770D01*
X13581967Y-17164770D02*
X13581967Y-17212389D01*
X13581967Y-17212389D02*
X13572444Y-17231436D01*
X13572444Y-17231436D02*
X13562920Y-17240960D01*
X13562920Y-17240960D02*
X13543872Y-17250484D01*
X13543872Y-17250484D02*
X13486729Y-17250484D01*
X13486729Y-17250484D02*
X13467682Y-17240960D01*
X13467682Y-17240960D02*
X13458158Y-17231436D01*
X13705777Y-17050484D02*
X13724825Y-17050484D01*
X13724825Y-17050484D02*
X13743872Y-17060008D01*
X13743872Y-17060008D02*
X13753396Y-17069531D01*
X13753396Y-17069531D02*
X13762920Y-17088579D01*
X13762920Y-17088579D02*
X13772444Y-17126674D01*
X13772444Y-17126674D02*
X13772444Y-17174293D01*
X13772444Y-17174293D02*
X13762920Y-17212389D01*
X13762920Y-17212389D02*
X13753396Y-17231436D01*
X13753396Y-17231436D02*
X13743872Y-17240960D01*
X13743872Y-17240960D02*
X13724825Y-17250484D01*
X13724825Y-17250484D02*
X13705777Y-17250484D01*
X13705777Y-17250484D02*
X13686729Y-17240960D01*
X13686729Y-17240960D02*
X13677206Y-17231436D01*
X13677206Y-17231436D02*
X13667682Y-17212389D01*
X13667682Y-17212389D02*
X13658158Y-17174293D01*
X13658158Y-17174293D02*
X13658158Y-17126674D01*
X13658158Y-17126674D02*
X13667682Y-17088579D01*
X13667682Y-17088579D02*
X13677206Y-17069531D01*
X13677206Y-17069531D02*
X13686729Y-17060008D01*
X13686729Y-17060008D02*
X13705777Y-17050484D01*
X13848634Y-17050484D02*
X13848634Y-17088579D01*
X13924825Y-17050484D02*
X13924825Y-17088579D01*
X14220063Y-17326674D02*
X14210539Y-17317150D01*
X14210539Y-17317150D02*
X14191491Y-17288579D01*
X14191491Y-17288579D02*
X14181968Y-17269531D01*
X14181968Y-17269531D02*
X14172444Y-17240960D01*
X14172444Y-17240960D02*
X14162920Y-17193341D01*
X14162920Y-17193341D02*
X14162920Y-17155246D01*
X14162920Y-17155246D02*
X14172444Y-17107627D01*
X14172444Y-17107627D02*
X14181968Y-17079055D01*
X14181968Y-17079055D02*
X14191491Y-17060008D01*
X14191491Y-17060008D02*
X14210539Y-17031436D01*
X14210539Y-17031436D02*
X14220063Y-17021912D01*
X14277206Y-17050484D02*
X14401015Y-17050484D01*
X14401015Y-17050484D02*
X14334348Y-17126674D01*
X14334348Y-17126674D02*
X14362920Y-17126674D01*
X14362920Y-17126674D02*
X14381968Y-17136198D01*
X14381968Y-17136198D02*
X14391491Y-17145722D01*
X14391491Y-17145722D02*
X14401015Y-17164770D01*
X14401015Y-17164770D02*
X14401015Y-17212389D01*
X14401015Y-17212389D02*
X14391491Y-17231436D01*
X14391491Y-17231436D02*
X14381968Y-17240960D01*
X14381968Y-17240960D02*
X14362920Y-17250484D01*
X14362920Y-17250484D02*
X14305777Y-17250484D01*
X14305777Y-17250484D02*
X14286729Y-17240960D01*
X14286729Y-17240960D02*
X14277206Y-17231436D01*
X14524825Y-17050484D02*
X14543872Y-17050484D01*
X14543872Y-17050484D02*
X14562920Y-17060008D01*
X14562920Y-17060008D02*
X14572444Y-17069531D01*
X14572444Y-17069531D02*
X14581968Y-17088579D01*
X14581968Y-17088579D02*
X14591491Y-17126674D01*
X14591491Y-17126674D02*
X14591491Y-17174293D01*
X14591491Y-17174293D02*
X14581968Y-17212389D01*
X14581968Y-17212389D02*
X14572444Y-17231436D01*
X14572444Y-17231436D02*
X14562920Y-17240960D01*
X14562920Y-17240960D02*
X14543872Y-17250484D01*
X14543872Y-17250484D02*
X14524825Y-17250484D01*
X14524825Y-17250484D02*
X14505777Y-17240960D01*
X14505777Y-17240960D02*
X14496253Y-17231436D01*
X14496253Y-17231436D02*
X14486729Y-17212389D01*
X14486729Y-17212389D02*
X14477206Y-17174293D01*
X14477206Y-17174293D02*
X14477206Y-17126674D01*
X14477206Y-17126674D02*
X14486729Y-17088579D01*
X14486729Y-17088579D02*
X14496253Y-17069531D01*
X14496253Y-17069531D02*
X14505777Y-17060008D01*
X14505777Y-17060008D02*
X14524825Y-17050484D01*
X14829587Y-17250484D02*
X14829587Y-17050484D01*
X14915301Y-17250484D02*
X14915301Y-17145722D01*
X14915301Y-17145722D02*
X14905777Y-17126674D01*
X14905777Y-17126674D02*
X14886730Y-17117150D01*
X14886730Y-17117150D02*
X14858158Y-17117150D01*
X14858158Y-17117150D02*
X14839110Y-17126674D01*
X14839110Y-17126674D02*
X14829587Y-17136198D01*
X15039110Y-17250484D02*
X15020063Y-17240960D01*
X15020063Y-17240960D02*
X15010539Y-17231436D01*
X15010539Y-17231436D02*
X15001015Y-17212389D01*
X15001015Y-17212389D02*
X15001015Y-17155246D01*
X15001015Y-17155246D02*
X15010539Y-17136198D01*
X15010539Y-17136198D02*
X15020063Y-17126674D01*
X15020063Y-17126674D02*
X15039110Y-17117150D01*
X15039110Y-17117150D02*
X15067682Y-17117150D01*
X15067682Y-17117150D02*
X15086730Y-17126674D01*
X15086730Y-17126674D02*
X15096253Y-17136198D01*
X15096253Y-17136198D02*
X15105777Y-17155246D01*
X15105777Y-17155246D02*
X15105777Y-17212389D01*
X15105777Y-17212389D02*
X15096253Y-17231436D01*
X15096253Y-17231436D02*
X15086730Y-17240960D01*
X15086730Y-17240960D02*
X15067682Y-17250484D01*
X15067682Y-17250484D02*
X15039110Y-17250484D01*
X15220063Y-17250484D02*
X15201015Y-17240960D01*
X15201015Y-17240960D02*
X15191491Y-17221912D01*
X15191491Y-17221912D02*
X15191491Y-17050484D01*
X15372444Y-17240960D02*
X15353396Y-17250484D01*
X15353396Y-17250484D02*
X15315301Y-17250484D01*
X15315301Y-17250484D02*
X15296253Y-17240960D01*
X15296253Y-17240960D02*
X15286730Y-17221912D01*
X15286730Y-17221912D02*
X15286730Y-17145722D01*
X15286730Y-17145722D02*
X15296253Y-17126674D01*
X15296253Y-17126674D02*
X15315301Y-17117150D01*
X15315301Y-17117150D02*
X15353396Y-17117150D01*
X15353396Y-17117150D02*
X15372444Y-17126674D01*
X15372444Y-17126674D02*
X15381968Y-17145722D01*
X15381968Y-17145722D02*
X15381968Y-17164770D01*
X15381968Y-17164770D02*
X15286730Y-17183817D01*
X15458158Y-17240960D02*
X15477206Y-17250484D01*
X15477206Y-17250484D02*
X15515301Y-17250484D01*
X15515301Y-17250484D02*
X15534349Y-17240960D01*
X15534349Y-17240960D02*
X15543872Y-17221912D01*
X15543872Y-17221912D02*
X15543872Y-17212389D01*
X15543872Y-17212389D02*
X15534349Y-17193341D01*
X15534349Y-17193341D02*
X15515301Y-17183817D01*
X15515301Y-17183817D02*
X15486730Y-17183817D01*
X15486730Y-17183817D02*
X15467682Y-17174293D01*
X15467682Y-17174293D02*
X15458158Y-17155246D01*
X15458158Y-17155246D02*
X15458158Y-17145722D01*
X15458158Y-17145722D02*
X15467682Y-17126674D01*
X15467682Y-17126674D02*
X15486730Y-17117150D01*
X15486730Y-17117150D02*
X15515301Y-17117150D01*
X15515301Y-17117150D02*
X15534349Y-17126674D01*
X15610539Y-17326674D02*
X15620063Y-17317150D01*
X15620063Y-17317150D02*
X15639111Y-17288579D01*
X15639111Y-17288579D02*
X15648634Y-17269531D01*
X15648634Y-17269531D02*
X15658158Y-17240960D01*
X15658158Y-17240960D02*
X15667682Y-17193341D01*
X15667682Y-17193341D02*
X15667682Y-17155246D01*
X15667682Y-17155246D02*
X15658158Y-17107627D01*
X15658158Y-17107627D02*
X15648634Y-17079055D01*
X15648634Y-17079055D02*
X15639111Y-17060008D01*
X15639111Y-17060008D02*
X15620063Y-17031436D01*
X15620063Y-17031436D02*
X15610539Y-17021912D01*
D14*
X10452280Y-17342640D02*
X10645000Y-17535360D01*
X10645000Y-17342640D02*
X10452280Y-17535360D01*
X10645000Y-17439000D02*
G75*
G02*
X10452280Y-17439000I-96360J0D01*
G01*
X10452280Y-17439000D02*
G75*
G02*
X10645000Y-17439000I96360J0D01*
G01*
D11*
X11010539Y-17530484D02*
X10896253Y-17530484D01*
X10953396Y-17530484D02*
X10953396Y-17330484D01*
X10953396Y-17330484D02*
X10934348Y-17359055D01*
X10934348Y-17359055D02*
X10915301Y-17378103D01*
X10915301Y-17378103D02*
X10896253Y-17387627D01*
X11096253Y-17511436D02*
X11105777Y-17520960D01*
X11105777Y-17520960D02*
X11096253Y-17530484D01*
X11096253Y-17530484D02*
X11086729Y-17520960D01*
X11086729Y-17520960D02*
X11096253Y-17511436D01*
X11096253Y-17511436D02*
X11096253Y-17530484D01*
X11201015Y-17530484D02*
X11239110Y-17530484D01*
X11239110Y-17530484D02*
X11258158Y-17520960D01*
X11258158Y-17520960D02*
X11267682Y-17511436D01*
X11267682Y-17511436D02*
X11286729Y-17482865D01*
X11286729Y-17482865D02*
X11296253Y-17444770D01*
X11296253Y-17444770D02*
X11296253Y-17368579D01*
X11296253Y-17368579D02*
X11286729Y-17349531D01*
X11286729Y-17349531D02*
X11277205Y-17340008D01*
X11277205Y-17340008D02*
X11258158Y-17330484D01*
X11258158Y-17330484D02*
X11220062Y-17330484D01*
X11220062Y-17330484D02*
X11201015Y-17340008D01*
X11201015Y-17340008D02*
X11191491Y-17349531D01*
X11191491Y-17349531D02*
X11181967Y-17368579D01*
X11181967Y-17368579D02*
X11181967Y-17416198D01*
X11181967Y-17416198D02*
X11191491Y-17435246D01*
X11191491Y-17435246D02*
X11201015Y-17444770D01*
X11201015Y-17444770D02*
X11220062Y-17454293D01*
X11220062Y-17454293D02*
X11258158Y-17454293D01*
X11258158Y-17454293D02*
X11277205Y-17444770D01*
X11277205Y-17444770D02*
X11286729Y-17435246D01*
X11286729Y-17435246D02*
X11296253Y-17416198D01*
X11372443Y-17349531D02*
X11381967Y-17340008D01*
X11381967Y-17340008D02*
X11401015Y-17330484D01*
X11401015Y-17330484D02*
X11448634Y-17330484D01*
X11448634Y-17330484D02*
X11467682Y-17340008D01*
X11467682Y-17340008D02*
X11477205Y-17349531D01*
X11477205Y-17349531D02*
X11486729Y-17368579D01*
X11486729Y-17368579D02*
X11486729Y-17387627D01*
X11486729Y-17387627D02*
X11477205Y-17416198D01*
X11477205Y-17416198D02*
X11362920Y-17530484D01*
X11362920Y-17530484D02*
X11486729Y-17530484D01*
X11553396Y-17330484D02*
X11686729Y-17330484D01*
X11686729Y-17330484D02*
X11601015Y-17530484D01*
X11762920Y-17530484D02*
X11762920Y-17397150D01*
X11762920Y-17416198D02*
X11772443Y-17406674D01*
X11772443Y-17406674D02*
X11791491Y-17397150D01*
X11791491Y-17397150D02*
X11820063Y-17397150D01*
X11820063Y-17397150D02*
X11839110Y-17406674D01*
X11839110Y-17406674D02*
X11848634Y-17425722D01*
X11848634Y-17425722D02*
X11848634Y-17530484D01*
X11848634Y-17425722D02*
X11858158Y-17406674D01*
X11858158Y-17406674D02*
X11877205Y-17397150D01*
X11877205Y-17397150D02*
X11905777Y-17397150D01*
X11905777Y-17397150D02*
X11924824Y-17406674D01*
X11924824Y-17406674D02*
X11934348Y-17425722D01*
X11934348Y-17425722D02*
X11934348Y-17530484D01*
X12029586Y-17530484D02*
X12029586Y-17397150D01*
X12029586Y-17416198D02*
X12039110Y-17406674D01*
X12039110Y-17406674D02*
X12058158Y-17397150D01*
X12058158Y-17397150D02*
X12086729Y-17397150D01*
X12086729Y-17397150D02*
X12105777Y-17406674D01*
X12105777Y-17406674D02*
X12115301Y-17425722D01*
X12115301Y-17425722D02*
X12115301Y-17530484D01*
X12115301Y-17425722D02*
X12124824Y-17406674D01*
X12124824Y-17406674D02*
X12143872Y-17397150D01*
X12143872Y-17397150D02*
X12172443Y-17397150D01*
X12172443Y-17397150D02*
X12191491Y-17406674D01*
X12191491Y-17406674D02*
X12201015Y-17425722D01*
X12201015Y-17425722D02*
X12201015Y-17530484D01*
X12591491Y-17320960D02*
X12420063Y-17578103D01*
X12848634Y-17330484D02*
X12867682Y-17330484D01*
X12867682Y-17330484D02*
X12886729Y-17340008D01*
X12886729Y-17340008D02*
X12896253Y-17349531D01*
X12896253Y-17349531D02*
X12905777Y-17368579D01*
X12905777Y-17368579D02*
X12915301Y-17406674D01*
X12915301Y-17406674D02*
X12915301Y-17454293D01*
X12915301Y-17454293D02*
X12905777Y-17492389D01*
X12905777Y-17492389D02*
X12896253Y-17511436D01*
X12896253Y-17511436D02*
X12886729Y-17520960D01*
X12886729Y-17520960D02*
X12867682Y-17530484D01*
X12867682Y-17530484D02*
X12848634Y-17530484D01*
X12848634Y-17530484D02*
X12829586Y-17520960D01*
X12829586Y-17520960D02*
X12820063Y-17511436D01*
X12820063Y-17511436D02*
X12810539Y-17492389D01*
X12810539Y-17492389D02*
X12801015Y-17454293D01*
X12801015Y-17454293D02*
X12801015Y-17406674D01*
X12801015Y-17406674D02*
X12810539Y-17368579D01*
X12810539Y-17368579D02*
X12820063Y-17349531D01*
X12820063Y-17349531D02*
X12829586Y-17340008D01*
X12829586Y-17340008D02*
X12848634Y-17330484D01*
X13001015Y-17511436D02*
X13010539Y-17520960D01*
X13010539Y-17520960D02*
X13001015Y-17530484D01*
X13001015Y-17530484D02*
X12991491Y-17520960D01*
X12991491Y-17520960D02*
X13001015Y-17511436D01*
X13001015Y-17511436D02*
X13001015Y-17530484D01*
X13134348Y-17330484D02*
X13153396Y-17330484D01*
X13153396Y-17330484D02*
X13172444Y-17340008D01*
X13172444Y-17340008D02*
X13181967Y-17349531D01*
X13181967Y-17349531D02*
X13191491Y-17368579D01*
X13191491Y-17368579D02*
X13201015Y-17406674D01*
X13201015Y-17406674D02*
X13201015Y-17454293D01*
X13201015Y-17454293D02*
X13191491Y-17492389D01*
X13191491Y-17492389D02*
X13181967Y-17511436D01*
X13181967Y-17511436D02*
X13172444Y-17520960D01*
X13172444Y-17520960D02*
X13153396Y-17530484D01*
X13153396Y-17530484D02*
X13134348Y-17530484D01*
X13134348Y-17530484D02*
X13115301Y-17520960D01*
X13115301Y-17520960D02*
X13105777Y-17511436D01*
X13105777Y-17511436D02*
X13096253Y-17492389D01*
X13096253Y-17492389D02*
X13086729Y-17454293D01*
X13086729Y-17454293D02*
X13086729Y-17406674D01*
X13086729Y-17406674D02*
X13096253Y-17368579D01*
X13096253Y-17368579D02*
X13105777Y-17349531D01*
X13105777Y-17349531D02*
X13115301Y-17340008D01*
X13115301Y-17340008D02*
X13134348Y-17330484D01*
X13267682Y-17330484D02*
X13401015Y-17330484D01*
X13401015Y-17330484D02*
X13315301Y-17530484D01*
X13572444Y-17330484D02*
X13477206Y-17330484D01*
X13477206Y-17330484D02*
X13467682Y-17425722D01*
X13467682Y-17425722D02*
X13477206Y-17416198D01*
X13477206Y-17416198D02*
X13496253Y-17406674D01*
X13496253Y-17406674D02*
X13543872Y-17406674D01*
X13543872Y-17406674D02*
X13562920Y-17416198D01*
X13562920Y-17416198D02*
X13572444Y-17425722D01*
X13572444Y-17425722D02*
X13581967Y-17444770D01*
X13581967Y-17444770D02*
X13581967Y-17492389D01*
X13581967Y-17492389D02*
X13572444Y-17511436D01*
X13572444Y-17511436D02*
X13562920Y-17520960D01*
X13562920Y-17520960D02*
X13543872Y-17530484D01*
X13543872Y-17530484D02*
X13496253Y-17530484D01*
X13496253Y-17530484D02*
X13477206Y-17520960D01*
X13477206Y-17520960D02*
X13467682Y-17511436D01*
X13677206Y-17530484D02*
X13715301Y-17530484D01*
X13715301Y-17530484D02*
X13734348Y-17520960D01*
X13734348Y-17520960D02*
X13743872Y-17511436D01*
X13743872Y-17511436D02*
X13762920Y-17482865D01*
X13762920Y-17482865D02*
X13772444Y-17444770D01*
X13772444Y-17444770D02*
X13772444Y-17368579D01*
X13772444Y-17368579D02*
X13762920Y-17349531D01*
X13762920Y-17349531D02*
X13753396Y-17340008D01*
X13753396Y-17340008D02*
X13734348Y-17330484D01*
X13734348Y-17330484D02*
X13696253Y-17330484D01*
X13696253Y-17330484D02*
X13677206Y-17340008D01*
X13677206Y-17340008D02*
X13667682Y-17349531D01*
X13667682Y-17349531D02*
X13658158Y-17368579D01*
X13658158Y-17368579D02*
X13658158Y-17416198D01*
X13658158Y-17416198D02*
X13667682Y-17435246D01*
X13667682Y-17435246D02*
X13677206Y-17444770D01*
X13677206Y-17444770D02*
X13696253Y-17454293D01*
X13696253Y-17454293D02*
X13734348Y-17454293D01*
X13734348Y-17454293D02*
X13753396Y-17444770D01*
X13753396Y-17444770D02*
X13762920Y-17435246D01*
X13762920Y-17435246D02*
X13772444Y-17416198D01*
X13848634Y-17330484D02*
X13848634Y-17368579D01*
X13924825Y-17330484D02*
X13924825Y-17368579D01*
X14220063Y-17606674D02*
X14210539Y-17597150D01*
X14210539Y-17597150D02*
X14191491Y-17568579D01*
X14191491Y-17568579D02*
X14181968Y-17549531D01*
X14181968Y-17549531D02*
X14172444Y-17520960D01*
X14172444Y-17520960D02*
X14162920Y-17473341D01*
X14162920Y-17473341D02*
X14162920Y-17435246D01*
X14162920Y-17435246D02*
X14172444Y-17387627D01*
X14172444Y-17387627D02*
X14181968Y-17359055D01*
X14181968Y-17359055D02*
X14191491Y-17340008D01*
X14191491Y-17340008D02*
X14210539Y-17311436D01*
X14210539Y-17311436D02*
X14220063Y-17301912D01*
X14286729Y-17349531D02*
X14296253Y-17340008D01*
X14296253Y-17340008D02*
X14315301Y-17330484D01*
X14315301Y-17330484D02*
X14362920Y-17330484D01*
X14362920Y-17330484D02*
X14381968Y-17340008D01*
X14381968Y-17340008D02*
X14391491Y-17349531D01*
X14391491Y-17349531D02*
X14401015Y-17368579D01*
X14401015Y-17368579D02*
X14401015Y-17387627D01*
X14401015Y-17387627D02*
X14391491Y-17416198D01*
X14391491Y-17416198D02*
X14277206Y-17530484D01*
X14277206Y-17530484D02*
X14401015Y-17530484D01*
X14639110Y-17530484D02*
X14639110Y-17330484D01*
X14724825Y-17530484D02*
X14724825Y-17425722D01*
X14724825Y-17425722D02*
X14715301Y-17406674D01*
X14715301Y-17406674D02*
X14696253Y-17397150D01*
X14696253Y-17397150D02*
X14667682Y-17397150D01*
X14667682Y-17397150D02*
X14648634Y-17406674D01*
X14648634Y-17406674D02*
X14639110Y-17416198D01*
X14848634Y-17530484D02*
X14829587Y-17520960D01*
X14829587Y-17520960D02*
X14820063Y-17511436D01*
X14820063Y-17511436D02*
X14810539Y-17492389D01*
X14810539Y-17492389D02*
X14810539Y-17435246D01*
X14810539Y-17435246D02*
X14820063Y-17416198D01*
X14820063Y-17416198D02*
X14829587Y-17406674D01*
X14829587Y-17406674D02*
X14848634Y-17397150D01*
X14848634Y-17397150D02*
X14877206Y-17397150D01*
X14877206Y-17397150D02*
X14896253Y-17406674D01*
X14896253Y-17406674D02*
X14905777Y-17416198D01*
X14905777Y-17416198D02*
X14915301Y-17435246D01*
X14915301Y-17435246D02*
X14915301Y-17492389D01*
X14915301Y-17492389D02*
X14905777Y-17511436D01*
X14905777Y-17511436D02*
X14896253Y-17520960D01*
X14896253Y-17520960D02*
X14877206Y-17530484D01*
X14877206Y-17530484D02*
X14848634Y-17530484D01*
X15029587Y-17530484D02*
X15010539Y-17520960D01*
X15010539Y-17520960D02*
X15001015Y-17501912D01*
X15001015Y-17501912D02*
X15001015Y-17330484D01*
X15181968Y-17520960D02*
X15162920Y-17530484D01*
X15162920Y-17530484D02*
X15124825Y-17530484D01*
X15124825Y-17530484D02*
X15105777Y-17520960D01*
X15105777Y-17520960D02*
X15096253Y-17501912D01*
X15096253Y-17501912D02*
X15096253Y-17425722D01*
X15096253Y-17425722D02*
X15105777Y-17406674D01*
X15105777Y-17406674D02*
X15124825Y-17397150D01*
X15124825Y-17397150D02*
X15162920Y-17397150D01*
X15162920Y-17397150D02*
X15181968Y-17406674D01*
X15181968Y-17406674D02*
X15191491Y-17425722D01*
X15191491Y-17425722D02*
X15191491Y-17444770D01*
X15191491Y-17444770D02*
X15096253Y-17463817D01*
X15267682Y-17520960D02*
X15286730Y-17530484D01*
X15286730Y-17530484D02*
X15324825Y-17530484D01*
X15324825Y-17530484D02*
X15343872Y-17520960D01*
X15343872Y-17520960D02*
X15353396Y-17501912D01*
X15353396Y-17501912D02*
X15353396Y-17492389D01*
X15353396Y-17492389D02*
X15343872Y-17473341D01*
X15343872Y-17473341D02*
X15324825Y-17463817D01*
X15324825Y-17463817D02*
X15296253Y-17463817D01*
X15296253Y-17463817D02*
X15277206Y-17454293D01*
X15277206Y-17454293D02*
X15267682Y-17435246D01*
X15267682Y-17435246D02*
X15267682Y-17425722D01*
X15267682Y-17425722D02*
X15277206Y-17406674D01*
X15277206Y-17406674D02*
X15296253Y-17397150D01*
X15296253Y-17397150D02*
X15324825Y-17397150D01*
X15324825Y-17397150D02*
X15343872Y-17406674D01*
X15420063Y-17606674D02*
X15429587Y-17597150D01*
X15429587Y-17597150D02*
X15448634Y-17568579D01*
X15448634Y-17568579D02*
X15458158Y-17549531D01*
X15458158Y-17549531D02*
X15467682Y-17520960D01*
X15467682Y-17520960D02*
X15477206Y-17473341D01*
X15477206Y-17473341D02*
X15477206Y-17435246D01*
X15477206Y-17435246D02*
X15467682Y-17387627D01*
X15467682Y-17387627D02*
X15458158Y-17359055D01*
X15458158Y-17359055D02*
X15448634Y-17340008D01*
X15448634Y-17340008D02*
X15429587Y-17311436D01*
X15429587Y-17311436D02*
X15420063Y-17301912D01*
X10445000Y-17651720D02*
X10645000Y-17851720D01*
X10645000Y-17651720D02*
X10445000Y-17851720D01*
X10545000Y-17651720D02*
X10545000Y-17851720D01*
X10445000Y-17751720D02*
X10645000Y-17751720D01*
X10886729Y-17643204D02*
X11010539Y-17643204D01*
X11010539Y-17643204D02*
X10943872Y-17719394D01*
X10943872Y-17719394D02*
X10972444Y-17719394D01*
X10972444Y-17719394D02*
X10991491Y-17728918D01*
X10991491Y-17728918D02*
X11001015Y-17738442D01*
X11001015Y-17738442D02*
X11010539Y-17757490D01*
X11010539Y-17757490D02*
X11010539Y-17805109D01*
X11010539Y-17805109D02*
X11001015Y-17824156D01*
X11001015Y-17824156D02*
X10991491Y-17833680D01*
X10991491Y-17833680D02*
X10972444Y-17843204D01*
X10972444Y-17843204D02*
X10915301Y-17843204D01*
X10915301Y-17843204D02*
X10896253Y-17833680D01*
X10896253Y-17833680D02*
X10886729Y-17824156D01*
X11096253Y-17824156D02*
X11105777Y-17833680D01*
X11105777Y-17833680D02*
X11096253Y-17843204D01*
X11096253Y-17843204D02*
X11086729Y-17833680D01*
X11086729Y-17833680D02*
X11096253Y-17824156D01*
X11096253Y-17824156D02*
X11096253Y-17843204D01*
X11286729Y-17643204D02*
X11191491Y-17643204D01*
X11191491Y-17643204D02*
X11181967Y-17738442D01*
X11181967Y-17738442D02*
X11191491Y-17728918D01*
X11191491Y-17728918D02*
X11210539Y-17719394D01*
X11210539Y-17719394D02*
X11258158Y-17719394D01*
X11258158Y-17719394D02*
X11277205Y-17728918D01*
X11277205Y-17728918D02*
X11286729Y-17738442D01*
X11286729Y-17738442D02*
X11296253Y-17757490D01*
X11296253Y-17757490D02*
X11296253Y-17805109D01*
X11296253Y-17805109D02*
X11286729Y-17824156D01*
X11286729Y-17824156D02*
X11277205Y-17833680D01*
X11277205Y-17833680D02*
X11258158Y-17843204D01*
X11258158Y-17843204D02*
X11210539Y-17843204D01*
X11210539Y-17843204D02*
X11191491Y-17833680D01*
X11191491Y-17833680D02*
X11181967Y-17824156D01*
X11420062Y-17643204D02*
X11439110Y-17643204D01*
X11439110Y-17643204D02*
X11458158Y-17652728D01*
X11458158Y-17652728D02*
X11467682Y-17662251D01*
X11467682Y-17662251D02*
X11477205Y-17681299D01*
X11477205Y-17681299D02*
X11486729Y-17719394D01*
X11486729Y-17719394D02*
X11486729Y-17767013D01*
X11486729Y-17767013D02*
X11477205Y-17805109D01*
X11477205Y-17805109D02*
X11467682Y-17824156D01*
X11467682Y-17824156D02*
X11458158Y-17833680D01*
X11458158Y-17833680D02*
X11439110Y-17843204D01*
X11439110Y-17843204D02*
X11420062Y-17843204D01*
X11420062Y-17843204D02*
X11401015Y-17833680D01*
X11401015Y-17833680D02*
X11391491Y-17824156D01*
X11391491Y-17824156D02*
X11381967Y-17805109D01*
X11381967Y-17805109D02*
X11372443Y-17767013D01*
X11372443Y-17767013D02*
X11372443Y-17719394D01*
X11372443Y-17719394D02*
X11381967Y-17681299D01*
X11381967Y-17681299D02*
X11391491Y-17662251D01*
X11391491Y-17662251D02*
X11401015Y-17652728D01*
X11401015Y-17652728D02*
X11420062Y-17643204D01*
X11610539Y-17643204D02*
X11629586Y-17643204D01*
X11629586Y-17643204D02*
X11648634Y-17652728D01*
X11648634Y-17652728D02*
X11658158Y-17662251D01*
X11658158Y-17662251D02*
X11667682Y-17681299D01*
X11667682Y-17681299D02*
X11677205Y-17719394D01*
X11677205Y-17719394D02*
X11677205Y-17767013D01*
X11677205Y-17767013D02*
X11667682Y-17805109D01*
X11667682Y-17805109D02*
X11658158Y-17824156D01*
X11658158Y-17824156D02*
X11648634Y-17833680D01*
X11648634Y-17833680D02*
X11629586Y-17843204D01*
X11629586Y-17843204D02*
X11610539Y-17843204D01*
X11610539Y-17843204D02*
X11591491Y-17833680D01*
X11591491Y-17833680D02*
X11581967Y-17824156D01*
X11581967Y-17824156D02*
X11572443Y-17805109D01*
X11572443Y-17805109D02*
X11562920Y-17767013D01*
X11562920Y-17767013D02*
X11562920Y-17719394D01*
X11562920Y-17719394D02*
X11572443Y-17681299D01*
X11572443Y-17681299D02*
X11581967Y-17662251D01*
X11581967Y-17662251D02*
X11591491Y-17652728D01*
X11591491Y-17652728D02*
X11610539Y-17643204D01*
X11762920Y-17843204D02*
X11762920Y-17709870D01*
X11762920Y-17728918D02*
X11772443Y-17719394D01*
X11772443Y-17719394D02*
X11791491Y-17709870D01*
X11791491Y-17709870D02*
X11820063Y-17709870D01*
X11820063Y-17709870D02*
X11839110Y-17719394D01*
X11839110Y-17719394D02*
X11848634Y-17738442D01*
X11848634Y-17738442D02*
X11848634Y-17843204D01*
X11848634Y-17738442D02*
X11858158Y-17719394D01*
X11858158Y-17719394D02*
X11877205Y-17709870D01*
X11877205Y-17709870D02*
X11905777Y-17709870D01*
X11905777Y-17709870D02*
X11924824Y-17719394D01*
X11924824Y-17719394D02*
X11934348Y-17738442D01*
X11934348Y-17738442D02*
X11934348Y-17843204D01*
X12029586Y-17843204D02*
X12029586Y-17709870D01*
X12029586Y-17728918D02*
X12039110Y-17719394D01*
X12039110Y-17719394D02*
X12058158Y-17709870D01*
X12058158Y-17709870D02*
X12086729Y-17709870D01*
X12086729Y-17709870D02*
X12105777Y-17719394D01*
X12105777Y-17719394D02*
X12115301Y-17738442D01*
X12115301Y-17738442D02*
X12115301Y-17843204D01*
X12115301Y-17738442D02*
X12124824Y-17719394D01*
X12124824Y-17719394D02*
X12143872Y-17709870D01*
X12143872Y-17709870D02*
X12172443Y-17709870D01*
X12172443Y-17709870D02*
X12191491Y-17719394D01*
X12191491Y-17719394D02*
X12201015Y-17738442D01*
X12201015Y-17738442D02*
X12201015Y-17843204D01*
X12591491Y-17633680D02*
X12420063Y-17890823D01*
X12848634Y-17643204D02*
X12867682Y-17643204D01*
X12867682Y-17643204D02*
X12886729Y-17652728D01*
X12886729Y-17652728D02*
X12896253Y-17662251D01*
X12896253Y-17662251D02*
X12905777Y-17681299D01*
X12905777Y-17681299D02*
X12915301Y-17719394D01*
X12915301Y-17719394D02*
X12915301Y-17767013D01*
X12915301Y-17767013D02*
X12905777Y-17805109D01*
X12905777Y-17805109D02*
X12896253Y-17824156D01*
X12896253Y-17824156D02*
X12886729Y-17833680D01*
X12886729Y-17833680D02*
X12867682Y-17843204D01*
X12867682Y-17843204D02*
X12848634Y-17843204D01*
X12848634Y-17843204D02*
X12829586Y-17833680D01*
X12829586Y-17833680D02*
X12820063Y-17824156D01*
X12820063Y-17824156D02*
X12810539Y-17805109D01*
X12810539Y-17805109D02*
X12801015Y-17767013D01*
X12801015Y-17767013D02*
X12801015Y-17719394D01*
X12801015Y-17719394D02*
X12810539Y-17681299D01*
X12810539Y-17681299D02*
X12820063Y-17662251D01*
X12820063Y-17662251D02*
X12829586Y-17652728D01*
X12829586Y-17652728D02*
X12848634Y-17643204D01*
X13001015Y-17824156D02*
X13010539Y-17833680D01*
X13010539Y-17833680D02*
X13001015Y-17843204D01*
X13001015Y-17843204D02*
X12991491Y-17833680D01*
X12991491Y-17833680D02*
X13001015Y-17824156D01*
X13001015Y-17824156D02*
X13001015Y-17843204D01*
X13201015Y-17843204D02*
X13086729Y-17843204D01*
X13143872Y-17843204D02*
X13143872Y-17643204D01*
X13143872Y-17643204D02*
X13124825Y-17671775D01*
X13124825Y-17671775D02*
X13105777Y-17690823D01*
X13105777Y-17690823D02*
X13086729Y-17700347D01*
X13267682Y-17643204D02*
X13391491Y-17643204D01*
X13391491Y-17643204D02*
X13324825Y-17719394D01*
X13324825Y-17719394D02*
X13353396Y-17719394D01*
X13353396Y-17719394D02*
X13372444Y-17728918D01*
X13372444Y-17728918D02*
X13381967Y-17738442D01*
X13381967Y-17738442D02*
X13391491Y-17757490D01*
X13391491Y-17757490D02*
X13391491Y-17805109D01*
X13391491Y-17805109D02*
X13381967Y-17824156D01*
X13381967Y-17824156D02*
X13372444Y-17833680D01*
X13372444Y-17833680D02*
X13353396Y-17843204D01*
X13353396Y-17843204D02*
X13296253Y-17843204D01*
X13296253Y-17843204D02*
X13277206Y-17833680D01*
X13277206Y-17833680D02*
X13267682Y-17824156D01*
X13458158Y-17643204D02*
X13591491Y-17643204D01*
X13591491Y-17643204D02*
X13505777Y-17843204D01*
X13696253Y-17728918D02*
X13677206Y-17719394D01*
X13677206Y-17719394D02*
X13667682Y-17709870D01*
X13667682Y-17709870D02*
X13658158Y-17690823D01*
X13658158Y-17690823D02*
X13658158Y-17681299D01*
X13658158Y-17681299D02*
X13667682Y-17662251D01*
X13667682Y-17662251D02*
X13677206Y-17652728D01*
X13677206Y-17652728D02*
X13696253Y-17643204D01*
X13696253Y-17643204D02*
X13734348Y-17643204D01*
X13734348Y-17643204D02*
X13753396Y-17652728D01*
X13753396Y-17652728D02*
X13762920Y-17662251D01*
X13762920Y-17662251D02*
X13772444Y-17681299D01*
X13772444Y-17681299D02*
X13772444Y-17690823D01*
X13772444Y-17690823D02*
X13762920Y-17709870D01*
X13762920Y-17709870D02*
X13753396Y-17719394D01*
X13753396Y-17719394D02*
X13734348Y-17728918D01*
X13734348Y-17728918D02*
X13696253Y-17728918D01*
X13696253Y-17728918D02*
X13677206Y-17738442D01*
X13677206Y-17738442D02*
X13667682Y-17747966D01*
X13667682Y-17747966D02*
X13658158Y-17767013D01*
X13658158Y-17767013D02*
X13658158Y-17805109D01*
X13658158Y-17805109D02*
X13667682Y-17824156D01*
X13667682Y-17824156D02*
X13677206Y-17833680D01*
X13677206Y-17833680D02*
X13696253Y-17843204D01*
X13696253Y-17843204D02*
X13734348Y-17843204D01*
X13734348Y-17843204D02*
X13753396Y-17833680D01*
X13753396Y-17833680D02*
X13762920Y-17824156D01*
X13762920Y-17824156D02*
X13772444Y-17805109D01*
X13772444Y-17805109D02*
X13772444Y-17767013D01*
X13772444Y-17767013D02*
X13762920Y-17747966D01*
X13762920Y-17747966D02*
X13753396Y-17738442D01*
X13753396Y-17738442D02*
X13734348Y-17728918D01*
X13848634Y-17643204D02*
X13848634Y-17681299D01*
X13924825Y-17643204D02*
X13924825Y-17681299D01*
X14220063Y-17919394D02*
X14210539Y-17909870D01*
X14210539Y-17909870D02*
X14191491Y-17881299D01*
X14191491Y-17881299D02*
X14181968Y-17862251D01*
X14181968Y-17862251D02*
X14172444Y-17833680D01*
X14172444Y-17833680D02*
X14162920Y-17786061D01*
X14162920Y-17786061D02*
X14162920Y-17747966D01*
X14162920Y-17747966D02*
X14172444Y-17700347D01*
X14172444Y-17700347D02*
X14181968Y-17671775D01*
X14181968Y-17671775D02*
X14191491Y-17652728D01*
X14191491Y-17652728D02*
X14210539Y-17624156D01*
X14210539Y-17624156D02*
X14220063Y-17614632D01*
X14381968Y-17709870D02*
X14381968Y-17843204D01*
X14334348Y-17633680D02*
X14286729Y-17776537D01*
X14286729Y-17776537D02*
X14410539Y-17776537D01*
X14639110Y-17843204D02*
X14639110Y-17643204D01*
X14724825Y-17843204D02*
X14724825Y-17738442D01*
X14724825Y-17738442D02*
X14715301Y-17719394D01*
X14715301Y-17719394D02*
X14696253Y-17709870D01*
X14696253Y-17709870D02*
X14667682Y-17709870D01*
X14667682Y-17709870D02*
X14648634Y-17719394D01*
X14648634Y-17719394D02*
X14639110Y-17728918D01*
X14848634Y-17843204D02*
X14829587Y-17833680D01*
X14829587Y-17833680D02*
X14820063Y-17824156D01*
X14820063Y-17824156D02*
X14810539Y-17805109D01*
X14810539Y-17805109D02*
X14810539Y-17747966D01*
X14810539Y-17747966D02*
X14820063Y-17728918D01*
X14820063Y-17728918D02*
X14829587Y-17719394D01*
X14829587Y-17719394D02*
X14848634Y-17709870D01*
X14848634Y-17709870D02*
X14877206Y-17709870D01*
X14877206Y-17709870D02*
X14896253Y-17719394D01*
X14896253Y-17719394D02*
X14905777Y-17728918D01*
X14905777Y-17728918D02*
X14915301Y-17747966D01*
X14915301Y-17747966D02*
X14915301Y-17805109D01*
X14915301Y-17805109D02*
X14905777Y-17824156D01*
X14905777Y-17824156D02*
X14896253Y-17833680D01*
X14896253Y-17833680D02*
X14877206Y-17843204D01*
X14877206Y-17843204D02*
X14848634Y-17843204D01*
X15029587Y-17843204D02*
X15010539Y-17833680D01*
X15010539Y-17833680D02*
X15001015Y-17814632D01*
X15001015Y-17814632D02*
X15001015Y-17643204D01*
X15181968Y-17833680D02*
X15162920Y-17843204D01*
X15162920Y-17843204D02*
X15124825Y-17843204D01*
X15124825Y-17843204D02*
X15105777Y-17833680D01*
X15105777Y-17833680D02*
X15096253Y-17814632D01*
X15096253Y-17814632D02*
X15096253Y-17738442D01*
X15096253Y-17738442D02*
X15105777Y-17719394D01*
X15105777Y-17719394D02*
X15124825Y-17709870D01*
X15124825Y-17709870D02*
X15162920Y-17709870D01*
X15162920Y-17709870D02*
X15181968Y-17719394D01*
X15181968Y-17719394D02*
X15191491Y-17738442D01*
X15191491Y-17738442D02*
X15191491Y-17757490D01*
X15191491Y-17757490D02*
X15096253Y-17776537D01*
X15267682Y-17833680D02*
X15286730Y-17843204D01*
X15286730Y-17843204D02*
X15324825Y-17843204D01*
X15324825Y-17843204D02*
X15343872Y-17833680D01*
X15343872Y-17833680D02*
X15353396Y-17814632D01*
X15353396Y-17814632D02*
X15353396Y-17805109D01*
X15353396Y-17805109D02*
X15343872Y-17786061D01*
X15343872Y-17786061D02*
X15324825Y-17776537D01*
X15324825Y-17776537D02*
X15296253Y-17776537D01*
X15296253Y-17776537D02*
X15277206Y-17767013D01*
X15277206Y-17767013D02*
X15267682Y-17747966D01*
X15267682Y-17747966D02*
X15267682Y-17738442D01*
X15267682Y-17738442D02*
X15277206Y-17719394D01*
X15277206Y-17719394D02*
X15296253Y-17709870D01*
X15296253Y-17709870D02*
X15324825Y-17709870D01*
X15324825Y-17709870D02*
X15343872Y-17719394D01*
X15420063Y-17919394D02*
X15429587Y-17909870D01*
X15429587Y-17909870D02*
X15448634Y-17881299D01*
X15448634Y-17881299D02*
X15458158Y-17862251D01*
X15458158Y-17862251D02*
X15467682Y-17833680D01*
X15467682Y-17833680D02*
X15477206Y-17786061D01*
X15477206Y-17786061D02*
X15477206Y-17747966D01*
X15477206Y-17747966D02*
X15467682Y-17700347D01*
X15467682Y-17700347D02*
X15458158Y-17671775D01*
X15458158Y-17671775D02*
X15448634Y-17652728D01*
X15448634Y-17652728D02*
X15429587Y-17624156D01*
X15429587Y-17624156D02*
X15420063Y-17614632D01*
M02*
