%TF.GenerationSoftware,KiCad,Pcbnew,8.0.2-8.0.2-0~ubuntu22.04.1*%
%TF.CreationDate,2024-05-22T14:53:01-05:00*%
%TF.ProjectId,bias-supply,62696173-2d73-4757-9070-6c792e6b6963,0.1*%
%TF.SameCoordinates,Original*%
%TF.FileFunction,Paste,Top*%
%TF.FilePolarity,Positive*%
%FSLAX46Y46*%
G04 Gerber Fmt 4.6, Leading zero omitted, Abs format (unit mm)*
G04 Created by KiCad (PCBNEW 8.0.2-8.0.2-0~ubuntu22.04.1) date 2024-05-22 14:53:01*
%MOMM*%
%LPD*%
G01*
G04 APERTURE LIST*
G04 Aperture macros list*
%AMRoundRect*
0 Rectangle with rounded corners*
0 $1 Rounding radius*
0 $2 $3 $4 $5 $6 $7 $8 $9 X,Y pos of 4 corners*
0 Add a 4 corners polygon primitive as box body*
4,1,4,$2,$3,$4,$5,$6,$7,$8,$9,$2,$3,0*
0 Add four circle primitives for the rounded corners*
1,1,$1+$1,$2,$3*
1,1,$1+$1,$4,$5*
1,1,$1+$1,$6,$7*
1,1,$1+$1,$8,$9*
0 Add four rect primitives between the rounded corners*
20,1,$1+$1,$2,$3,$4,$5,0*
20,1,$1+$1,$4,$5,$6,$7,0*
20,1,$1+$1,$6,$7,$8,$9,0*
20,1,$1+$1,$8,$9,$2,$3,0*%
G04 Aperture macros list end*
%ADD10C,0.000000*%
%ADD11R,7.086600X0.711200*%
%ADD12R,2.590800X0.711200*%
%ADD13R,1.600200X1.397000*%
%ADD14R,1.461700X0.558800*%
%ADD15R,2.286000X2.286000*%
%ADD16R,0.532600X1.454899*%
%ADD17R,0.762000X1.803400*%
%ADD18RoundRect,0.250000X0.625000X-0.312500X0.625000X0.312500X-0.625000X0.312500X-0.625000X-0.312500X0*%
%ADD19RoundRect,0.250000X-0.650000X0.325000X-0.650000X-0.325000X0.650000X-0.325000X0.650000X0.325000X0*%
%ADD20RoundRect,0.250000X0.650000X-0.325000X0.650000X0.325000X-0.650000X0.325000X-0.650000X-0.325000X0*%
%ADD21R,1.300000X1.600000*%
%ADD22R,2.000000X1.600000*%
%ADD23RoundRect,0.250000X-0.312500X-0.625000X0.312500X-0.625000X0.312500X0.625000X-0.312500X0.625000X0*%
%ADD24RoundRect,0.250000X0.312500X0.625000X-0.312500X0.625000X-0.312500X-0.625000X0.312500X-0.625000X0*%
%ADD25R,4.000000X2.000000*%
%ADD26RoundRect,0.250000X1.750000X1.000000X-1.750000X1.000000X-1.750000X-1.000000X1.750000X-1.000000X0*%
%ADD27RoundRect,0.250000X-1.750000X-1.000000X1.750000X-1.000000X1.750000X1.000000X-1.750000X1.000000X0*%
%ADD28RoundRect,0.250000X-0.625000X0.312500X-0.625000X-0.312500X0.625000X-0.312500X0.625000X0.312500X0*%
%ADD29R,0.889000X0.660400*%
%ADD30R,0.508000X1.625600*%
%ADD31R,0.609600X1.625600*%
%ADD32RoundRect,0.250000X0.325000X0.650000X-0.325000X0.650000X-0.325000X-0.650000X0.325000X-0.650000X0*%
%ADD33RoundRect,0.250000X-0.700000X0.275000X-0.700000X-0.275000X0.700000X-0.275000X0.700000X0.275000X0*%
%ADD34RoundRect,0.250000X0.700000X-0.275000X0.700000X0.275000X-0.700000X0.275000X-0.700000X-0.275000X0*%
%ADD35RoundRect,0.250000X-0.325000X-0.650000X0.325000X-0.650000X0.325000X0.650000X-0.325000X0.650000X0*%
%ADD36R,0.660400X0.889000*%
%ADD37R,1.600000X1.300000*%
%ADD38R,1.600000X2.000000*%
%ADD39RoundRect,0.250000X-0.275000X-0.700000X0.275000X-0.700000X0.275000X0.700000X-0.275000X0.700000X0*%
%ADD40R,1.750000X0.650000*%
G04 APERTURE END LIST*
D10*
%TO.C,Q1*%
G36*
X161850900Y-113758700D02*
G01*
X161304800Y-114304800D01*
X161304800Y-114228600D01*
X160695200Y-114228600D01*
X160695200Y-114304800D01*
X160149100Y-113758700D01*
X160149100Y-110393200D01*
X161850900Y-110393200D01*
X161850900Y-113758700D01*
G37*
%TD*%
D11*
%TO.C,U3*%
X176000000Y-137097400D03*
D12*
X178250000Y-127902600D03*
D13*
X180651500Y-134599998D03*
X169348500Y-134599998D03*
X180651500Y-130400002D03*
X169348500Y-130400002D03*
%TD*%
D14*
%TO.C,U2*%
X130724752Y-133905000D03*
X130724752Y-132635000D03*
X130724752Y-131365000D03*
X130724752Y-130095000D03*
X125275248Y-130095000D03*
X125275248Y-131365000D03*
X125275248Y-132635000D03*
X125275248Y-133905000D03*
D15*
X128000000Y-132000000D03*
%TD*%
D16*
%TO.C,U1*%
X156690000Y-75721348D03*
X157960000Y-75721348D03*
X159230000Y-75721348D03*
X160500000Y-75721348D03*
X161770000Y-75721348D03*
X163040000Y-75721348D03*
X164310000Y-75721348D03*
X164310000Y-70278652D03*
X163040000Y-70278652D03*
X161770000Y-70278652D03*
X160500000Y-70278652D03*
X159230000Y-70278652D03*
X157960000Y-70278652D03*
X156690000Y-70278652D03*
%TD*%
D17*
%TO.C,BR1*%
X170306000Y-118459100D03*
X172806000Y-118459100D03*
X172806000Y-112540900D03*
X170306000Y-112540900D03*
%TD*%
D18*
%TO.C,JP18*%
X148000000Y-95712500D03*
X148000000Y-92787500D03*
%TD*%
D19*
%TO.C,C12*%
X167000000Y-66525000D03*
X167000000Y-69475000D03*
%TD*%
D20*
%TO.C,C1*%
X131000000Y-81475000D03*
X131000000Y-78525000D03*
%TD*%
D21*
%TO.C,RV2*%
X141750000Y-125050000D03*
D22*
X140500000Y-127950000D03*
D21*
X139250000Y-125050000D03*
%TD*%
D23*
%TO.C,R16*%
X157037500Y-127250000D03*
X159962500Y-127250000D03*
%TD*%
D19*
%TO.C,C14*%
X151500000Y-78525000D03*
X151500000Y-81475000D03*
%TD*%
D24*
%TO.C,R9*%
X181962500Y-77500000D03*
X179037500Y-77500000D03*
%TD*%
%TO.C,R8*%
X181962500Y-80500000D03*
X179037500Y-80500000D03*
%TD*%
D18*
%TO.C,JP17*%
X142000000Y-95712500D03*
X142000000Y-92787500D03*
%TD*%
D25*
%TO.C,FL2*%
X134750000Y-62750000D03*
X134750000Y-66250000D03*
X143250000Y-66250000D03*
X143250000Y-62750000D03*
%TD*%
D20*
%TO.C,C23*%
X137000000Y-133975000D03*
X137000000Y-131025000D03*
%TD*%
D26*
%TO.C,C21*%
X131500000Y-114500000D03*
X123500000Y-114500000D03*
%TD*%
D24*
%TO.C,R15*%
X142962500Y-131000000D03*
X140037500Y-131000000D03*
%TD*%
D19*
%TO.C,C22*%
X122500000Y-132635000D03*
X122500000Y-135585000D03*
%TD*%
D24*
%TO.C,R2*%
X163212500Y-81500000D03*
X160287500Y-81500000D03*
%TD*%
D20*
%TO.C,C13*%
X154500000Y-67475000D03*
X154500000Y-64525000D03*
%TD*%
D27*
%TO.C,C18*%
X149500000Y-103500000D03*
X141500000Y-103500000D03*
%TD*%
D28*
%TO.C,R5*%
X153000000Y-71537500D03*
X153000000Y-74462500D03*
%TD*%
D29*
%TO.C,D1*%
X156500000Y-114584200D03*
X156500000Y-111333000D03*
%TD*%
D30*
%TO.C,Q1*%
X162500000Y-115041400D03*
D31*
X161000000Y-115041400D03*
D30*
X159500000Y-115041400D03*
%TD*%
D32*
%TO.C,C17*%
X181975000Y-88500000D03*
X179025000Y-88500000D03*
%TD*%
D33*
%TO.C,FB1*%
X154000000Y-129925000D03*
X154000000Y-133075000D03*
%TD*%
D20*
%TO.C,C26*%
X157000000Y-132975000D03*
X157000000Y-130025000D03*
%TD*%
D34*
%TO.C,L2*%
X148000000Y-133075000D03*
X148000000Y-129925000D03*
%TD*%
D18*
%TO.C,R1*%
X157500000Y-81462500D03*
X157500000Y-78537500D03*
%TD*%
D20*
%TO.C,C8*%
X147000000Y-64200000D03*
X147000000Y-61250000D03*
%TD*%
D35*
%TO.C,C16*%
X160275000Y-87500000D03*
X163225000Y-87500000D03*
%TD*%
D19*
%TO.C,C3*%
X131000000Y-64525000D03*
X131000000Y-67475000D03*
%TD*%
D28*
%TO.C,R4*%
X157500000Y-64537500D03*
X157500000Y-67462500D03*
%TD*%
D18*
%TO.C,R13*%
X134000000Y-127962500D03*
X134000000Y-125037500D03*
%TD*%
D28*
%TO.C,R14*%
X145000000Y-125037500D03*
X145000000Y-127962500D03*
%TD*%
D32*
%TO.C,C9*%
X163225000Y-78250000D03*
X160275000Y-78250000D03*
%TD*%
D19*
%TO.C,C25*%
X151000000Y-130025000D03*
X151000000Y-132975000D03*
%TD*%
D20*
%TO.C,C4*%
X131000000Y-62475000D03*
X131000000Y-59525000D03*
%TD*%
D18*
%TO.C,JP19*%
X152000000Y-95712500D03*
X152000000Y-92787500D03*
%TD*%
%TO.C,JP15*%
X125000000Y-95712500D03*
X125000000Y-92787500D03*
%TD*%
D28*
%TO.C,R7*%
X176275000Y-73537500D03*
X176275000Y-76462500D03*
%TD*%
D18*
%TO.C,R12*%
X134000000Y-133962500D03*
X134000000Y-131037500D03*
%TD*%
D28*
%TO.C,JP11*%
X186000000Y-121287500D03*
X186000000Y-124212500D03*
%TD*%
D18*
%TO.C,JP16*%
X138000000Y-95712500D03*
X138000000Y-92787500D03*
%TD*%
D20*
%TO.C,C28*%
X163000000Y-132975000D03*
X163000000Y-130025000D03*
%TD*%
D19*
%TO.C,C2*%
X131000000Y-83525000D03*
X131000000Y-86475000D03*
%TD*%
D23*
%TO.C,JP9*%
X126537500Y-127500000D03*
X129462500Y-127500000D03*
%TD*%
D20*
%TO.C,C5*%
X147000000Y-79750000D03*
X147000000Y-76800000D03*
%TD*%
D36*
%TO.C,D2*%
X151874400Y-123500000D03*
X155125600Y-123500000D03*
%TD*%
D26*
%TO.C,C20*%
X131500000Y-103500000D03*
X123500000Y-103500000D03*
%TD*%
D24*
%TO.C,JP8*%
X129462500Y-124750000D03*
X126537500Y-124750000D03*
%TD*%
D23*
%TO.C,JP10*%
X169787500Y-125500000D03*
X172712500Y-125500000D03*
%TD*%
D24*
%TO.C,R10*%
X160962500Y-117958600D03*
X158037500Y-117958600D03*
%TD*%
D37*
%TO.C,RV1*%
X181950000Y-74306000D03*
D38*
X179050000Y-73056000D03*
D37*
X181950000Y-71806000D03*
%TD*%
D32*
%TO.C,C10*%
X163975000Y-67750000D03*
X161025000Y-67750000D03*
%TD*%
D18*
%TO.C,JP13*%
X115000000Y-95712500D03*
X115000000Y-92787500D03*
%TD*%
D19*
%TO.C,C6*%
X147000000Y-81800000D03*
X147000000Y-84750000D03*
%TD*%
D35*
%TO.C,C11*%
X160275000Y-84500000D03*
X163225000Y-84500000D03*
%TD*%
D25*
%TO.C,FL1*%
X134750000Y-79750000D03*
X134750000Y-83250000D03*
X143250000Y-83250000D03*
X143250000Y-79750000D03*
%TD*%
D32*
%TO.C,C15*%
X181975000Y-83500000D03*
X179025000Y-83500000D03*
%TD*%
D39*
%TO.C,L1*%
X143850000Y-73000000D03*
X147000000Y-73000000D03*
%TD*%
D20*
%TO.C,C24*%
X148000000Y-127975000D03*
X148000000Y-125025000D03*
%TD*%
%TO.C,C27*%
X160000000Y-132975000D03*
X160000000Y-130025000D03*
%TD*%
D19*
%TO.C,C7*%
X147000000Y-66250000D03*
X147000000Y-69200000D03*
%TD*%
D27*
%TO.C,C19*%
X141500000Y-114500000D03*
X149500000Y-114500000D03*
%TD*%
D40*
%TO.C,IC1*%
X176275000Y-87945000D03*
X176275000Y-86675000D03*
X176275000Y-85405000D03*
X176275000Y-84135000D03*
X176275000Y-82865000D03*
X176275000Y-81595000D03*
X176275000Y-80325000D03*
X176275000Y-79055000D03*
X166725000Y-79055000D03*
X166725000Y-80325000D03*
X166725000Y-81595000D03*
X166725000Y-82865000D03*
X166725000Y-84135000D03*
X166725000Y-85405000D03*
X166725000Y-86675000D03*
X166725000Y-87945000D03*
%TD*%
D18*
%TO.C,R6*%
X154500000Y-81462500D03*
X154500000Y-78537500D03*
%TD*%
D23*
%TO.C,R11*%
X163037500Y-117958600D03*
X165962500Y-117958600D03*
%TD*%
D28*
%TO.C,R3*%
X167000000Y-71537500D03*
X167000000Y-74462500D03*
%TD*%
D18*
%TO.C,JP14*%
X121000000Y-95712500D03*
X121000000Y-92787500D03*
%TD*%
D20*
%TO.C,JP7*%
X122500000Y-130000000D03*
X122500000Y-127050000D03*
%TD*%
D18*
%TO.C,JP12*%
X111000000Y-95712500D03*
X111000000Y-92787500D03*
%TD*%
M02*
