G04 #@! TF.GenerationSoftware,KiCad,Pcbnew,8.0.2-8.0.2-0~ubuntu22.04.1*
G04 #@! TF.CreationDate,2024-06-03T16:52:55-05:00*
G04 #@! TF.ProjectId,peak-holder,7065616b-2d68-46f6-9c64-65722e6b6963,rev?*
G04 #@! TF.SameCoordinates,Original*
G04 #@! TF.FileFunction,Paste,Bot*
G04 #@! TF.FilePolarity,Positive*
%FSLAX46Y46*%
G04 Gerber Fmt 4.6, Leading zero omitted, Abs format (unit mm)*
G04 Created by KiCad (PCBNEW 8.0.2-8.0.2-0~ubuntu22.04.1) date 2024-06-03 16:52:55*
%MOMM*%
%LPD*%
G01*
G04 APERTURE LIST*
G04 Aperture macros list*
%AMRoundRect*
0 Rectangle with rounded corners*
0 $1 Rounding radius*
0 $2 $3 $4 $5 $6 $7 $8 $9 X,Y pos of 4 corners*
0 Add a 4 corners polygon primitive as box body*
4,1,4,$2,$3,$4,$5,$6,$7,$8,$9,$2,$3,0*
0 Add four circle primitives for the rounded corners*
1,1,$1+$1,$2,$3*
1,1,$1+$1,$4,$5*
1,1,$1+$1,$6,$7*
1,1,$1+$1,$8,$9*
0 Add four rect primitives between the rounded corners*
20,1,$1+$1,$2,$3,$4,$5,0*
20,1,$1+$1,$4,$5,$6,$7,0*
20,1,$1+$1,$6,$7,$8,$9,0*
20,1,$1+$1,$8,$9,$2,$3,0*%
G04 Aperture macros list end*
%ADD10RoundRect,0.250000X0.250000X0.475000X-0.250000X0.475000X-0.250000X-0.475000X0.250000X-0.475000X0*%
%ADD11RoundRect,0.250000X-0.650000X0.325000X-0.650000X-0.325000X0.650000X-0.325000X0.650000X0.325000X0*%
%ADD12RoundRect,0.250000X-0.250000X-0.475000X0.250000X-0.475000X0.250000X0.475000X-0.250000X0.475000X0*%
%ADD13RoundRect,0.250000X0.475000X-0.250000X0.475000X0.250000X-0.475000X0.250000X-0.475000X-0.250000X0*%
%ADD14RoundRect,0.250000X-0.325000X-0.650000X0.325000X-0.650000X0.325000X0.650000X-0.325000X0.650000X0*%
%ADD15RoundRect,0.250000X-0.475000X0.250000X-0.475000X-0.250000X0.475000X-0.250000X0.475000X0.250000X0*%
%ADD16RoundRect,0.250000X0.650000X-0.325000X0.650000X0.325000X-0.650000X0.325000X-0.650000X-0.325000X0*%
G04 APERTURE END LIST*
D10*
X108911051Y-59750000D03*
X107011051Y-59750000D03*
D11*
X70760000Y-56120001D03*
X70760000Y-59070001D03*
D12*
X71410000Y-61955001D03*
X73310000Y-61955001D03*
X83160000Y-47300001D03*
X85060000Y-47300001D03*
X78960000Y-52970001D03*
X80860000Y-52970001D03*
X83160000Y-49370001D03*
X85060000Y-49370001D03*
D13*
X104106249Y-55150000D03*
X104106249Y-53250000D03*
D14*
X71410000Y-66155001D03*
X74360000Y-66155001D03*
D12*
X78960000Y-50857501D03*
X80860000Y-50857501D03*
X98349150Y-51116700D03*
X100249150Y-51116700D03*
D14*
X83160000Y-45055001D03*
X86110000Y-45055001D03*
D10*
X103911051Y-59750000D03*
X102011051Y-59750000D03*
D15*
X75060000Y-56120001D03*
X75060000Y-58020001D03*
D12*
X71410000Y-63970001D03*
X73310000Y-63970001D03*
D13*
X93518950Y-55500000D03*
X93518950Y-53600000D03*
D10*
X98911051Y-59750000D03*
X97011051Y-59750000D03*
D12*
X82384800Y-67981200D03*
X84284800Y-67981200D03*
X86984800Y-68000000D03*
X88884800Y-68000000D03*
D14*
X78960000Y-55257501D03*
X81910000Y-55257501D03*
D15*
X113349999Y-65088949D03*
X113349999Y-66988949D03*
D10*
X93911051Y-59750000D03*
X92011051Y-59750000D03*
D16*
X91183950Y-56550000D03*
X91183950Y-53600000D03*
D13*
X95683950Y-55500000D03*
X95683950Y-53600000D03*
D15*
X72995000Y-56120001D03*
X72995000Y-58020001D03*
D10*
X100249150Y-48865400D03*
X98349150Y-48865400D03*
M02*
