G04 #@! TF.GenerationSoftware,KiCad,Pcbnew,8.0.2-8.0.2-0~ubuntu22.04.1*
G04 #@! TF.CreationDate,2024-06-03T16:53:05-05:00*
G04 #@! TF.ProjectId,peak-holder,7065616b-2d68-46f6-9c64-65722e6b6963,rev?*
G04 #@! TF.SameCoordinates,Original*
G04 #@! TF.FileFunction,Soldermask,Bot*
G04 #@! TF.FilePolarity,Negative*
%FSLAX46Y46*%
G04 Gerber Fmt 4.6, Leading zero omitted, Abs format (unit mm)*
G04 Created by KiCad (PCBNEW 8.0.2-8.0.2-0~ubuntu22.04.1) date 2024-06-03 16:53:05*
%MOMM*%
%LPD*%
G01*
G04 APERTURE LIST*
G04 Aperture macros list*
%AMRoundRect*
0 Rectangle with rounded corners*
0 $1 Rounding radius*
0 $2 $3 $4 $5 $6 $7 $8 $9 X,Y pos of 4 corners*
0 Add a 4 corners polygon primitive as box body*
4,1,4,$2,$3,$4,$5,$6,$7,$8,$9,$2,$3,0*
0 Add four circle primitives for the rounded corners*
1,1,$1+$1,$2,$3*
1,1,$1+$1,$4,$5*
1,1,$1+$1,$6,$7*
1,1,$1+$1,$8,$9*
0 Add four rect primitives between the rounded corners*
20,1,$1+$1,$2,$3,$4,$5,0*
20,1,$1+$1,$4,$5,$6,$7,0*
20,1,$1+$1,$6,$7,$8,$9,0*
20,1,$1+$1,$8,$9,$2,$3,0*%
G04 Aperture macros list end*
%ADD10C,3.500000*%
%ADD11C,2.000000*%
%ADD12RoundRect,0.102000X-0.975000X0.975000X-0.975000X-0.975000X0.975000X-0.975000X0.975000X0.975000X0*%
%ADD13C,2.154000*%
%ADD14C,1.240000*%
%ADD15R,1.270000X1.270000*%
%ADD16C,1.270000*%
%ADD17RoundRect,0.250000X0.250000X0.475000X-0.250000X0.475000X-0.250000X-0.475000X0.250000X-0.475000X0*%
%ADD18RoundRect,0.250000X-0.650000X0.325000X-0.650000X-0.325000X0.650000X-0.325000X0.650000X0.325000X0*%
%ADD19RoundRect,0.250000X-0.250000X-0.475000X0.250000X-0.475000X0.250000X0.475000X-0.250000X0.475000X0*%
%ADD20RoundRect,0.250000X0.475000X-0.250000X0.475000X0.250000X-0.475000X0.250000X-0.475000X-0.250000X0*%
%ADD21RoundRect,0.250000X-0.325000X-0.650000X0.325000X-0.650000X0.325000X0.650000X-0.325000X0.650000X0*%
%ADD22RoundRect,0.250000X-0.475000X0.250000X-0.475000X-0.250000X0.475000X-0.250000X0.475000X0.250000X0*%
%ADD23RoundRect,0.250000X0.650000X-0.325000X0.650000X0.325000X-0.650000X0.325000X-0.650000X-0.325000X0*%
G04 APERTURE END LIST*
D10*
X56800000Y-38800000D03*
D11*
X108250000Y-70100000D03*
D12*
X61900000Y-49420000D03*
D13*
X61900000Y-54500000D03*
X61900000Y-59580000D03*
D11*
X98000000Y-54750000D03*
D10*
X56800000Y-69200000D03*
D14*
X85700000Y-59770000D03*
X86970000Y-61040000D03*
X86970000Y-58500000D03*
X84430000Y-61040000D03*
X84430000Y-58500000D03*
D10*
X119200000Y-38800000D03*
D11*
X104000000Y-39400000D03*
X115700000Y-62700000D03*
X115000000Y-44500000D03*
D15*
X70060000Y-50370001D03*
D16*
X75060000Y-50370001D03*
D11*
X93250000Y-70100000D03*
X88250000Y-69975000D03*
D14*
X85060000Y-41470000D03*
X83790000Y-40200000D03*
X83790000Y-42740000D03*
X86330000Y-40200000D03*
X86330000Y-42740000D03*
D11*
X103250000Y-70100000D03*
D10*
X119200000Y-69200000D03*
D11*
X83625000Y-70000000D03*
X98250000Y-70100000D03*
D17*
X108911051Y-59750000D03*
X107011051Y-59750000D03*
D18*
X70760000Y-56120001D03*
X70760000Y-59070001D03*
D19*
X71410000Y-61955001D03*
X73310000Y-61955001D03*
X83160000Y-47300001D03*
X85060000Y-47300001D03*
X78960000Y-52970001D03*
X80860000Y-52970001D03*
X83160000Y-49370001D03*
X85060000Y-49370001D03*
D20*
X104106249Y-55150000D03*
X104106249Y-53250000D03*
D21*
X71410000Y-66155001D03*
X74360000Y-66155001D03*
D19*
X78960000Y-50857501D03*
X80860000Y-50857501D03*
X98349150Y-51116700D03*
X100249150Y-51116700D03*
D21*
X83160000Y-45055001D03*
X86110000Y-45055001D03*
D17*
X103911051Y-59750000D03*
X102011051Y-59750000D03*
D22*
X75060000Y-56120001D03*
X75060000Y-58020001D03*
D19*
X71410000Y-63970001D03*
X73310000Y-63970001D03*
D20*
X93518950Y-55500000D03*
X93518950Y-53600000D03*
D17*
X98911051Y-59750000D03*
X97011051Y-59750000D03*
D19*
X82384800Y-67981200D03*
X84284800Y-67981200D03*
X86984800Y-68000000D03*
X88884800Y-68000000D03*
D21*
X78960000Y-55257501D03*
X81910000Y-55257501D03*
D22*
X113349999Y-65088949D03*
X113349999Y-66988949D03*
D17*
X93911051Y-59750000D03*
X92011051Y-59750000D03*
D23*
X91183950Y-56550000D03*
X91183950Y-53600000D03*
D20*
X95683950Y-55500000D03*
X95683950Y-53600000D03*
D22*
X72995000Y-56120001D03*
X72995000Y-58020001D03*
D17*
X100249150Y-48865400D03*
X98349150Y-48865400D03*
M02*
