G04 #@! TF.GenerationSoftware,KiCad,Pcbnew,8.0.2-8.0.2-0~ubuntu22.04.1*
G04 #@! TF.CreationDate,2024-06-03T16:52:52-05:00*
G04 #@! TF.ProjectId,peak-holder,7065616b-2d68-46f6-9c64-65722e6b6963,rev?*
G04 #@! TF.SameCoordinates,Original*
G04 #@! TF.FileFunction,Paste,Top*
G04 #@! TF.FilePolarity,Positive*
%FSLAX46Y46*%
G04 Gerber Fmt 4.6, Leading zero omitted, Abs format (unit mm)*
G04 Created by KiCad (PCBNEW 8.0.2-8.0.2-0~ubuntu22.04.1) date 2024-06-03 16:52:52*
%MOMM*%
%LPD*%
G01*
G04 APERTURE LIST*
G04 Aperture macros list*
%AMRoundRect*
0 Rectangle with rounded corners*
0 $1 Rounding radius*
0 $2 $3 $4 $5 $6 $7 $8 $9 X,Y pos of 4 corners*
0 Add a 4 corners polygon primitive as box body*
4,1,4,$2,$3,$4,$5,$6,$7,$8,$9,$2,$3,0*
0 Add four circle primitives for the rounded corners*
1,1,$1+$1,$2,$3*
1,1,$1+$1,$4,$5*
1,1,$1+$1,$6,$7*
1,1,$1+$1,$8,$9*
0 Add four rect primitives between the rounded corners*
20,1,$1+$1,$2,$3,$4,$5,0*
20,1,$1+$1,$4,$5,$6,$7,0*
20,1,$1+$1,$6,$7,$8,$9,0*
20,1,$1+$1,$8,$9,$2,$3,0*%
G04 Aperture macros list end*
%ADD10R,1.117600X0.355600*%
%ADD11R,0.355600X0.833300*%
%ADD12RoundRect,0.250000X-0.625000X0.312500X-0.625000X-0.312500X0.625000X-0.312500X0.625000X0.312500X0*%
%ADD13RoundRect,0.250000X-0.337500X-0.475000X0.337500X-0.475000X0.337500X0.475000X-0.337500X0.475000X0*%
%ADD14RoundRect,0.160000X-0.160000X0.197500X-0.160000X-0.197500X0.160000X-0.197500X0.160000X0.197500X0*%
%ADD15R,1.574800X0.279400*%
%ADD16RoundRect,0.250000X-0.350000X-0.450000X0.350000X-0.450000X0.350000X0.450000X-0.350000X0.450000X0*%
%ADD17RoundRect,0.250000X-0.550000X1.050000X-0.550000X-1.050000X0.550000X-1.050000X0.550000X1.050000X0*%
%ADD18R,0.833300X0.355600*%
%ADD19R,1.460500X0.533400*%
%ADD20RoundRect,0.250000X0.625000X-0.312500X0.625000X0.312500X-0.625000X0.312500X-0.625000X-0.312500X0*%
%ADD21RoundRect,0.250000X0.475000X-0.250000X0.475000X0.250000X-0.475000X0.250000X-0.475000X-0.250000X0*%
%ADD22RoundRect,0.150000X-0.150000X0.512500X-0.150000X-0.512500X0.150000X-0.512500X0.150000X0.512500X0*%
%ADD23RoundRect,0.250000X-0.262500X-0.450000X0.262500X-0.450000X0.262500X0.450000X-0.262500X0.450000X0*%
%ADD24R,1.300000X1.600000*%
%ADD25R,2.000000X1.600000*%
%ADD26RoundRect,0.160000X0.197500X0.160000X-0.197500X0.160000X-0.197500X-0.160000X0.197500X-0.160000X0*%
%ADD27RoundRect,0.250000X0.450000X-0.262500X0.450000X0.262500X-0.450000X0.262500X-0.450000X-0.262500X0*%
%ADD28R,1.168400X0.254000*%
G04 APERTURE END LIST*
D10*
X84615200Y-67981200D03*
X84615200Y-67320800D03*
X84615200Y-66660400D03*
X82684800Y-66660400D03*
X82684800Y-67981200D03*
X98018750Y-48865400D03*
X98018750Y-49525800D03*
X98018750Y-50186200D03*
X99949150Y-50186200D03*
X99949150Y-48865400D03*
D11*
X113349999Y-64711051D03*
X112700000Y-64711051D03*
X112050001Y-64711051D03*
X112050001Y-66788949D03*
X113349999Y-66788949D03*
D12*
X109480000Y-42797501D03*
X109480000Y-45722501D03*
D13*
X97212500Y-63500000D03*
X99287500Y-63500000D03*
D14*
X85060000Y-49022501D03*
X85060000Y-50217501D03*
D15*
X78964500Y-49370000D03*
X78964500Y-49870002D03*
X78964500Y-50370001D03*
X78964500Y-50870000D03*
X78964500Y-51370002D03*
X83155500Y-51370002D03*
X83155500Y-50870000D03*
X83155500Y-50370001D03*
X83155500Y-49870002D03*
X83155500Y-49370000D03*
D16*
X107250000Y-61500000D03*
X109250000Y-61500000D03*
D14*
X77165600Y-49175001D03*
X77165600Y-50370001D03*
D17*
X64700000Y-40000000D03*
X64700000Y-43600000D03*
D10*
X98018750Y-51116700D03*
X98018750Y-51777100D03*
X98018750Y-52437500D03*
X99949150Y-52437500D03*
X99949150Y-51116700D03*
D18*
X104288949Y-59750000D03*
X104288949Y-59100001D03*
X104288949Y-58450002D03*
X102211051Y-58450002D03*
X102211051Y-59750000D03*
D19*
X76921650Y-62025001D03*
X76921650Y-60755001D03*
X76921650Y-59485001D03*
X76921650Y-58215001D03*
X71473350Y-58215001D03*
X71473350Y-59485001D03*
X71473350Y-60755001D03*
X71473350Y-62025001D03*
D20*
X92750000Y-45737501D03*
X92750000Y-42812501D03*
D21*
X106197149Y-55637500D03*
X106197149Y-53737500D03*
D18*
X99288949Y-59750000D03*
X99288949Y-59100001D03*
X99288949Y-58450002D03*
X97211051Y-58450002D03*
X97211051Y-59750000D03*
D12*
X90250000Y-39887501D03*
X90250000Y-42812501D03*
D22*
X75060000Y-53845001D03*
X74110000Y-53845001D03*
X73160000Y-53845001D03*
X73160000Y-56120001D03*
X75060000Y-56120001D03*
D23*
X83875000Y-56361250D03*
X85700000Y-56361250D03*
D24*
X113500000Y-50350000D03*
D25*
X112250000Y-53250000D03*
D24*
X111000000Y-50350000D03*
D16*
X102250000Y-61500000D03*
X104250000Y-61500000D03*
D17*
X64700000Y-64800000D03*
X64700000Y-68400000D03*
D10*
X89215200Y-68000000D03*
X89215200Y-67339600D03*
X89215200Y-66679200D03*
X87284800Y-66679200D03*
X87284800Y-68000000D03*
D13*
X92212500Y-63500000D03*
X94287500Y-63500000D03*
D12*
X85700000Y-51600000D03*
X85700000Y-54525000D03*
D21*
X103768750Y-51637500D03*
X103768750Y-49737500D03*
D18*
X109288949Y-59750000D03*
X109288949Y-59100001D03*
X109288949Y-58450002D03*
X107211051Y-58450002D03*
X107211051Y-59750000D03*
D13*
X107212500Y-63500000D03*
X109287500Y-63500000D03*
D26*
X86200000Y-49022501D03*
X87395000Y-49022501D03*
D27*
X85060000Y-47562501D03*
X85060000Y-45737501D03*
D20*
X111980000Y-45722501D03*
X111980000Y-42797501D03*
D22*
X95683950Y-49527100D03*
X94733950Y-49527100D03*
X93783950Y-49527100D03*
X93783950Y-51802100D03*
X95683950Y-51802100D03*
D27*
X101768750Y-51600000D03*
X101768750Y-49775000D03*
D24*
X95500000Y-45712501D03*
D25*
X96750000Y-42812501D03*
D24*
X98000000Y-45712501D03*
D16*
X92250000Y-61500000D03*
X94250000Y-61500000D03*
D24*
X106750000Y-42822501D03*
D25*
X105500000Y-45722501D03*
D24*
X104250000Y-42822501D03*
D18*
X94288949Y-59750000D03*
X94288949Y-59100001D03*
X94288949Y-58450002D03*
X92211051Y-58450002D03*
X92211051Y-59750000D03*
D13*
X102212500Y-63500000D03*
X104287500Y-63500000D03*
D27*
X116000000Y-52175000D03*
X116000000Y-50350000D03*
D28*
X101363049Y-53937499D03*
X101363049Y-54437500D03*
X101363049Y-54937500D03*
X101363049Y-55437501D03*
X104106249Y-55437501D03*
X104106249Y-54937500D03*
X104106249Y-54437500D03*
X104106249Y-53937499D03*
D16*
X97250000Y-61500000D03*
X99250000Y-61500000D03*
D12*
X78964500Y-53157501D03*
X78964500Y-56082501D03*
D27*
X108500000Y-52087500D03*
X108500000Y-50262500D03*
D12*
X100750000Y-42787501D03*
X100750000Y-45712501D03*
M02*
