G04 #@! TF.GenerationSoftware,KiCad,Pcbnew,8.0.2-8.0.2-0~ubuntu22.04.1*
G04 #@! TF.CreationDate,2024-06-03T16:52:46-05:00*
G04 #@! TF.ProjectId,peak-holder,7065616b-2d68-46f6-9c64-65722e6b6963,rev?*
G04 #@! TF.SameCoordinates,Original*
G04 #@! TF.FileFunction,Copper,L2,Inr*
G04 #@! TF.FilePolarity,Positive*
%FSLAX46Y46*%
G04 Gerber Fmt 4.6, Leading zero omitted, Abs format (unit mm)*
G04 Created by KiCad (PCBNEW 8.0.2-8.0.2-0~ubuntu22.04.1) date 2024-06-03 16:52:46*
%MOMM*%
%LPD*%
G01*
G04 APERTURE LIST*
G04 #@! TA.AperFunction,ComponentPad*
%ADD10C,2.000000*%
G04 #@! TD*
G04 #@! TA.AperFunction,ComponentPad*
%ADD11R,1.950000X1.950000*%
G04 #@! TD*
G04 #@! TA.AperFunction,ComponentPad*
%ADD12C,1.950000*%
G04 #@! TD*
G04 #@! TA.AperFunction,ComponentPad*
%ADD13C,1.240000*%
G04 #@! TD*
G04 #@! TA.AperFunction,ComponentPad*
%ADD14R,1.270000X1.270000*%
G04 #@! TD*
G04 #@! TA.AperFunction,ComponentPad*
%ADD15C,1.270000*%
G04 #@! TD*
G04 #@! TA.AperFunction,ViaPad*
%ADD16C,0.600000*%
G04 #@! TD*
G04 APERTURE END LIST*
D10*
X108250000Y-70100000D03*
D11*
X61900000Y-49420000D03*
D12*
X61900000Y-54500000D03*
X61900000Y-59580000D03*
D10*
X98000000Y-54750000D03*
D13*
X85700000Y-59770000D03*
X86970000Y-61040000D03*
X86970000Y-58500000D03*
X84430000Y-61040000D03*
X84430000Y-58500000D03*
D10*
X104000000Y-39400000D03*
X115700000Y-62700000D03*
X115000000Y-44500000D03*
D14*
X70060000Y-50370001D03*
D15*
X75060000Y-50370001D03*
D10*
X93250000Y-70100000D03*
X88250000Y-69975000D03*
D13*
X85060000Y-41470000D03*
X83790000Y-40200000D03*
X83790000Y-42740000D03*
X86330000Y-40200000D03*
X86330000Y-42740000D03*
D10*
X103250000Y-70100000D03*
X83625000Y-70000000D03*
X98250000Y-70100000D03*
D16*
X80288889Y-52200000D03*
X65831104Y-72400000D03*
X68888880Y-72400000D03*
X122400000Y-44799998D03*
X79591096Y-35600000D03*
X73475544Y-35600000D03*
X78444440Y-47300000D03*
X88966666Y-47600000D03*
X53600000Y-46333331D03*
X93800000Y-47600000D03*
X73475544Y-72400000D03*
X76600000Y-56822222D03*
X87600000Y-52955555D03*
X53600000Y-37133333D03*
X122400000Y-53999996D03*
X104053304Y-35600000D03*
X74888888Y-47300000D03*
X122400000Y-70866659D03*
X119342184Y-72400000D03*
X56657776Y-35600000D03*
X88764424Y-35600000D03*
X99466640Y-35600000D03*
X87600000Y-54777777D03*
X62773328Y-72400000D03*
X91822200Y-72400000D03*
X90293312Y-35600000D03*
X58186664Y-72400000D03*
X120871072Y-72400000D03*
X53600000Y-55533329D03*
X53600000Y-63199994D03*
X55128888Y-35600000D03*
X82200000Y-55000000D03*
X122400000Y-47866664D03*
X53600000Y-43266665D03*
X99466640Y-72400000D03*
X78062208Y-72400000D03*
X94879976Y-72400000D03*
X53600000Y-57066662D03*
X76533320Y-35600000D03*
X56657776Y-72400000D03*
X114755520Y-35600000D03*
X59715552Y-72400000D03*
X65831104Y-35600000D03*
X100995528Y-72400000D03*
X73160000Y-48540740D03*
X87600000Y-50222222D03*
X104053304Y-72400000D03*
X108639968Y-72400000D03*
X122400000Y-37133333D03*
X85706648Y-35600000D03*
X97937752Y-35600000D03*
X59715552Y-35600000D03*
X71946656Y-72400000D03*
X87235536Y-35600000D03*
X67359992Y-35600000D03*
X96408864Y-35600000D03*
X122400000Y-35600000D03*
X53600000Y-70866659D03*
X122400000Y-52466663D03*
X81111104Y-47300000D03*
X87235536Y-72400000D03*
X91866664Y-47600000D03*
X71946656Y-35600000D03*
X105582192Y-35600000D03*
X116284408Y-35600000D03*
X107111080Y-72400000D03*
X55128888Y-72400000D03*
X108639968Y-35600000D03*
X82648872Y-35600000D03*
X53600000Y-66266660D03*
X53600000Y-41733332D03*
X81500000Y-50750000D03*
X93400000Y-44200000D03*
X53600000Y-67799993D03*
X73160000Y-50600000D03*
X122400000Y-63199994D03*
X53600000Y-69333326D03*
X81119984Y-35600000D03*
X53600000Y-61666661D03*
X80222216Y-47300000D03*
X87600000Y-56600000D03*
X102524416Y-35600000D03*
X64302216Y-72400000D03*
X88764424Y-72400000D03*
X73160000Y-47511111D03*
X84177760Y-72400000D03*
X122400000Y-61666661D03*
X92433330Y-44200000D03*
X81119984Y-72400000D03*
X53600000Y-60133328D03*
X111697744Y-72400000D03*
X113226632Y-35600000D03*
X87600000Y-51133333D03*
X53600000Y-50933330D03*
X70417768Y-72400000D03*
X122400000Y-46333331D03*
X75777776Y-47300000D03*
X93351088Y-35600000D03*
X53600000Y-40199999D03*
X94287500Y-63500000D03*
X87600000Y-53866666D03*
X88400000Y-48600000D03*
X77400000Y-52400000D03*
X61244440Y-35600000D03*
X119342184Y-35600000D03*
X53600000Y-64733327D03*
X122400000Y-69333326D03*
X110168856Y-72400000D03*
X82000000Y-46466666D03*
X53600000Y-52466663D03*
X70417768Y-35600000D03*
X122400000Y-40199999D03*
X89933332Y-47600000D03*
X76200000Y-52600000D03*
X53600000Y-58599995D03*
X122400000Y-58599995D03*
X100995528Y-35600000D03*
X122400000Y-60133328D03*
X117813296Y-72400000D03*
X122400000Y-50933330D03*
X82200000Y-54088889D03*
X79591096Y-72400000D03*
X122400000Y-49399997D03*
X81200000Y-52200000D03*
X76200000Y-53655555D03*
X53600000Y-49399997D03*
X99287500Y-63500000D03*
X122400000Y-43266665D03*
X96408864Y-72400000D03*
X90293312Y-72400000D03*
X68888880Y-35600000D03*
X122400000Y-66266660D03*
X87600000Y-55688888D03*
X62773328Y-35600000D03*
X122400000Y-64733327D03*
X90899998Y-47600000D03*
X58186664Y-35600000D03*
X79333328Y-47300000D03*
X91466664Y-44200000D03*
X93351088Y-72400000D03*
X90499998Y-44200000D03*
X111697744Y-35600000D03*
X76533320Y-72400000D03*
X53600000Y-38666666D03*
X77555552Y-47300000D03*
X116284408Y-72400000D03*
X78062208Y-35600000D03*
X92833330Y-47600000D03*
X120871072Y-35600000D03*
X110168856Y-35600000D03*
X76600000Y-54711110D03*
X67359992Y-72400000D03*
X76666664Y-47300000D03*
X53600000Y-53999996D03*
X104287500Y-63500000D03*
X73160000Y-49570369D03*
X85706648Y-72400000D03*
X114755520Y-72400000D03*
X107111080Y-35600000D03*
X88400000Y-49600000D03*
X122400000Y-72400000D03*
X82200000Y-53177778D03*
X122400000Y-57066662D03*
X53600000Y-72400000D03*
X82000000Y-45533333D03*
X94879976Y-35600000D03*
X82200000Y-56822222D03*
X53600000Y-47866664D03*
X113226632Y-72400000D03*
X76600000Y-55766665D03*
X75004432Y-72400000D03*
X84177760Y-35600000D03*
X122400000Y-38666666D03*
X87600000Y-52044444D03*
X97718750Y-50186200D03*
X82200000Y-52266667D03*
X53600000Y-35600000D03*
X117813296Y-35600000D03*
X82000000Y-47300000D03*
X89533332Y-44200000D03*
X53600000Y-44799998D03*
X82648872Y-72400000D03*
X75004432Y-35600000D03*
X74000000Y-47300000D03*
X97937752Y-72400000D03*
X122400000Y-41733332D03*
X82200000Y-55911111D03*
X122400000Y-55533329D03*
X64302216Y-35600000D03*
X102524416Y-72400000D03*
X61244440Y-72400000D03*
X122400000Y-67799993D03*
X105582192Y-72400000D03*
X91822200Y-35600000D03*
X77400000Y-51200000D03*
X107011051Y-59750000D03*
X97011051Y-59750000D03*
X95683950Y-52202100D03*
X109480000Y-42797501D03*
X102011051Y-59750000D03*
X71400000Y-62800000D03*
X116000000Y-52175000D03*
X113349999Y-66988949D03*
X83155500Y-49200000D03*
X75060000Y-57000000D03*
X106750000Y-42822501D03*
X75060000Y-55200000D03*
X104106249Y-53250000D03*
X100249150Y-51116700D03*
X108500000Y-50262500D03*
X92011051Y-59750000D03*
X100249150Y-48865400D03*
X86984800Y-68000000D03*
X82384800Y-67981200D03*
X107600000Y-65750000D03*
X102600000Y-65750000D03*
X97600000Y-65800000D03*
X96750000Y-42812501D03*
X93783950Y-49127100D03*
X100750000Y-42787501D03*
X95683950Y-49127100D03*
X93783950Y-52202100D03*
X105500000Y-45722501D03*
X92600000Y-65750000D03*
G04 #@! TA.AperFunction,Conductor*
G36*
X122943039Y-35019685D02*
G01*
X122988794Y-35072489D01*
X123000000Y-35124000D01*
X123000000Y-72876000D01*
X122980315Y-72943039D01*
X122927511Y-72988794D01*
X122876000Y-73000000D01*
X53124000Y-73000000D01*
X53056961Y-72980315D01*
X53011206Y-72927511D01*
X53000000Y-72876000D01*
X53000000Y-69068610D01*
X54795500Y-69068610D01*
X54795500Y-69331389D01*
X54813132Y-69465308D01*
X54829798Y-69591898D01*
X54897806Y-69845708D01*
X54897807Y-69845711D01*
X54897809Y-69845717D01*
X54998359Y-70088466D01*
X54998364Y-70088477D01*
X55075186Y-70221535D01*
X55129743Y-70316030D01*
X55129745Y-70316033D01*
X55129746Y-70316034D01*
X55289701Y-70524493D01*
X55289707Y-70524500D01*
X55475499Y-70710292D01*
X55475506Y-70710298D01*
X55507293Y-70734689D01*
X55683970Y-70870257D01*
X55799787Y-70937124D01*
X55911522Y-71001635D01*
X55911527Y-71001637D01*
X55911530Y-71001639D01*
X56154292Y-71102194D01*
X56408102Y-71170202D01*
X56668618Y-71204500D01*
X56668625Y-71204500D01*
X56931375Y-71204500D01*
X56931382Y-71204500D01*
X57191898Y-71170202D01*
X57445708Y-71102194D01*
X57688470Y-71001639D01*
X57916030Y-70870257D01*
X58124495Y-70710297D01*
X58310297Y-70524495D01*
X58470257Y-70316030D01*
X58601639Y-70088470D01*
X58638285Y-69999999D01*
X82419357Y-69999999D01*
X82419357Y-70000000D01*
X82439884Y-70221535D01*
X82439885Y-70221537D01*
X82500769Y-70435523D01*
X82500775Y-70435538D01*
X82599938Y-70634683D01*
X82599943Y-70634691D01*
X82734020Y-70812238D01*
X82898437Y-70962123D01*
X82898439Y-70962125D01*
X83087595Y-71079245D01*
X83087596Y-71079245D01*
X83087599Y-71079247D01*
X83295060Y-71159618D01*
X83513757Y-71200500D01*
X83513759Y-71200500D01*
X83736241Y-71200500D01*
X83736243Y-71200500D01*
X83954940Y-71159618D01*
X84162401Y-71079247D01*
X84351562Y-70962124D01*
X84515981Y-70812236D01*
X84650058Y-70634689D01*
X84749229Y-70435528D01*
X84810115Y-70221536D01*
X84830643Y-70000000D01*
X84828326Y-69975000D01*
X84828326Y-69974999D01*
X87044357Y-69974999D01*
X87044357Y-69975000D01*
X87064884Y-70196535D01*
X87064885Y-70196537D01*
X87125769Y-70410523D01*
X87125775Y-70410538D01*
X87224938Y-70609683D01*
X87224943Y-70609691D01*
X87359020Y-70787238D01*
X87523437Y-70937123D01*
X87523439Y-70937125D01*
X87712595Y-71054245D01*
X87712596Y-71054245D01*
X87712599Y-71054247D01*
X87920060Y-71134618D01*
X88138757Y-71175500D01*
X88138759Y-71175500D01*
X88361241Y-71175500D01*
X88361243Y-71175500D01*
X88579940Y-71134618D01*
X88787401Y-71054247D01*
X88976562Y-70937124D01*
X89140981Y-70787236D01*
X89275058Y-70609689D01*
X89374229Y-70410528D01*
X89435115Y-70196536D01*
X89444060Y-70099999D01*
X92044357Y-70099999D01*
X92044357Y-70100000D01*
X92064884Y-70321535D01*
X92064885Y-70321537D01*
X92125769Y-70535523D01*
X92125775Y-70535538D01*
X92224938Y-70734683D01*
X92224943Y-70734691D01*
X92359020Y-70912238D01*
X92523437Y-71062123D01*
X92523439Y-71062125D01*
X92712595Y-71179245D01*
X92712596Y-71179245D01*
X92712599Y-71179247D01*
X92920060Y-71259618D01*
X93138757Y-71300500D01*
X93138759Y-71300500D01*
X93361241Y-71300500D01*
X93361243Y-71300500D01*
X93579940Y-71259618D01*
X93787401Y-71179247D01*
X93976562Y-71062124D01*
X94140981Y-70912236D01*
X94275058Y-70734689D01*
X94374229Y-70535528D01*
X94435115Y-70321536D01*
X94455643Y-70100000D01*
X94455643Y-70099999D01*
X97044357Y-70099999D01*
X97044357Y-70100000D01*
X97064884Y-70321535D01*
X97064885Y-70321537D01*
X97125769Y-70535523D01*
X97125775Y-70535538D01*
X97224938Y-70734683D01*
X97224943Y-70734691D01*
X97359020Y-70912238D01*
X97523437Y-71062123D01*
X97523439Y-71062125D01*
X97712595Y-71179245D01*
X97712596Y-71179245D01*
X97712599Y-71179247D01*
X97920060Y-71259618D01*
X98138757Y-71300500D01*
X98138759Y-71300500D01*
X98361241Y-71300500D01*
X98361243Y-71300500D01*
X98579940Y-71259618D01*
X98787401Y-71179247D01*
X98976562Y-71062124D01*
X99140981Y-70912236D01*
X99275058Y-70734689D01*
X99374229Y-70535528D01*
X99435115Y-70321536D01*
X99455643Y-70100000D01*
X99455643Y-70099999D01*
X102044357Y-70099999D01*
X102044357Y-70100000D01*
X102064884Y-70321535D01*
X102064885Y-70321537D01*
X102125769Y-70535523D01*
X102125775Y-70535538D01*
X102224938Y-70734683D01*
X102224943Y-70734691D01*
X102359020Y-70912238D01*
X102523437Y-71062123D01*
X102523439Y-71062125D01*
X102712595Y-71179245D01*
X102712596Y-71179245D01*
X102712599Y-71179247D01*
X102920060Y-71259618D01*
X103138757Y-71300500D01*
X103138759Y-71300500D01*
X103361241Y-71300500D01*
X103361243Y-71300500D01*
X103579940Y-71259618D01*
X103787401Y-71179247D01*
X103976562Y-71062124D01*
X104140981Y-70912236D01*
X104275058Y-70734689D01*
X104374229Y-70535528D01*
X104435115Y-70321536D01*
X104455643Y-70100000D01*
X104455643Y-70099999D01*
X107044357Y-70099999D01*
X107044357Y-70100000D01*
X107064884Y-70321535D01*
X107064885Y-70321537D01*
X107125769Y-70535523D01*
X107125775Y-70535538D01*
X107224938Y-70734683D01*
X107224943Y-70734691D01*
X107359020Y-70912238D01*
X107523437Y-71062123D01*
X107523439Y-71062125D01*
X107712595Y-71179245D01*
X107712596Y-71179245D01*
X107712599Y-71179247D01*
X107920060Y-71259618D01*
X108138757Y-71300500D01*
X108138759Y-71300500D01*
X108361241Y-71300500D01*
X108361243Y-71300500D01*
X108579940Y-71259618D01*
X108787401Y-71179247D01*
X108976562Y-71062124D01*
X109140981Y-70912236D01*
X109275058Y-70734689D01*
X109374229Y-70535528D01*
X109435115Y-70321536D01*
X109455643Y-70100000D01*
X109435115Y-69878464D01*
X109374229Y-69664472D01*
X109374224Y-69664461D01*
X109275061Y-69465316D01*
X109275056Y-69465308D01*
X109140979Y-69287761D01*
X108976562Y-69137876D01*
X108976560Y-69137874D01*
X108864694Y-69068610D01*
X117195500Y-69068610D01*
X117195500Y-69331389D01*
X117213132Y-69465308D01*
X117229798Y-69591898D01*
X117297806Y-69845708D01*
X117297807Y-69845711D01*
X117297809Y-69845717D01*
X117398359Y-70088466D01*
X117398364Y-70088477D01*
X117475186Y-70221535D01*
X117529743Y-70316030D01*
X117529745Y-70316033D01*
X117529746Y-70316034D01*
X117689701Y-70524493D01*
X117689707Y-70524500D01*
X117875499Y-70710292D01*
X117875506Y-70710298D01*
X117907293Y-70734689D01*
X118083970Y-70870257D01*
X118199787Y-70937124D01*
X118311522Y-71001635D01*
X118311527Y-71001637D01*
X118311530Y-71001639D01*
X118554292Y-71102194D01*
X118808102Y-71170202D01*
X119068618Y-71204500D01*
X119068625Y-71204500D01*
X119331375Y-71204500D01*
X119331382Y-71204500D01*
X119591898Y-71170202D01*
X119845708Y-71102194D01*
X120088470Y-71001639D01*
X120316030Y-70870257D01*
X120524495Y-70710297D01*
X120710297Y-70524495D01*
X120870257Y-70316030D01*
X121001639Y-70088470D01*
X121102194Y-69845708D01*
X121170202Y-69591898D01*
X121204500Y-69331382D01*
X121204500Y-69068618D01*
X121170202Y-68808102D01*
X121102194Y-68554292D01*
X121001639Y-68311530D01*
X121001637Y-68311527D01*
X121001635Y-68311522D01*
X120954696Y-68230223D01*
X120870257Y-68083970D01*
X120710297Y-67875505D01*
X120710292Y-67875499D01*
X120524500Y-67689707D01*
X120524493Y-67689701D01*
X120316034Y-67529746D01*
X120316033Y-67529745D01*
X120316030Y-67529743D01*
X120225303Y-67477362D01*
X120088477Y-67398364D01*
X120088466Y-67398359D01*
X119845717Y-67297809D01*
X119845711Y-67297807D01*
X119845708Y-67297806D01*
X119591898Y-67229798D01*
X119534005Y-67222176D01*
X119331389Y-67195500D01*
X119331382Y-67195500D01*
X119068618Y-67195500D01*
X119068610Y-67195500D01*
X118837048Y-67225987D01*
X118808102Y-67229798D01*
X118554292Y-67297806D01*
X118554290Y-67297806D01*
X118554282Y-67297809D01*
X118311533Y-67398359D01*
X118311522Y-67398364D01*
X118083965Y-67529746D01*
X117875506Y-67689701D01*
X117875499Y-67689707D01*
X117689707Y-67875499D01*
X117689701Y-67875506D01*
X117529746Y-68083965D01*
X117398364Y-68311522D01*
X117398359Y-68311533D01*
X117297809Y-68554282D01*
X117297806Y-68554293D01*
X117229798Y-68808103D01*
X117195500Y-69068610D01*
X108864694Y-69068610D01*
X108787404Y-69020754D01*
X108787398Y-69020752D01*
X108579940Y-68940382D01*
X108361243Y-68899500D01*
X108138757Y-68899500D01*
X107920060Y-68940382D01*
X107788864Y-68991207D01*
X107712601Y-69020752D01*
X107712595Y-69020754D01*
X107523439Y-69137874D01*
X107523437Y-69137876D01*
X107359020Y-69287761D01*
X107224943Y-69465308D01*
X107224938Y-69465316D01*
X107125775Y-69664461D01*
X107125769Y-69664476D01*
X107064885Y-69878462D01*
X107064884Y-69878464D01*
X107044357Y-70099999D01*
X104455643Y-70099999D01*
X104435115Y-69878464D01*
X104374229Y-69664472D01*
X104374224Y-69664461D01*
X104275061Y-69465316D01*
X104275056Y-69465308D01*
X104140979Y-69287761D01*
X103976562Y-69137876D01*
X103976560Y-69137874D01*
X103787404Y-69020754D01*
X103787398Y-69020752D01*
X103579940Y-68940382D01*
X103361243Y-68899500D01*
X103138757Y-68899500D01*
X102920060Y-68940382D01*
X102788864Y-68991207D01*
X102712601Y-69020752D01*
X102712595Y-69020754D01*
X102523439Y-69137874D01*
X102523437Y-69137876D01*
X102359020Y-69287761D01*
X102224943Y-69465308D01*
X102224938Y-69465316D01*
X102125775Y-69664461D01*
X102125769Y-69664476D01*
X102064885Y-69878462D01*
X102064884Y-69878464D01*
X102044357Y-70099999D01*
X99455643Y-70099999D01*
X99435115Y-69878464D01*
X99374229Y-69664472D01*
X99374224Y-69664461D01*
X99275061Y-69465316D01*
X99275056Y-69465308D01*
X99140979Y-69287761D01*
X98976562Y-69137876D01*
X98976560Y-69137874D01*
X98787404Y-69020754D01*
X98787398Y-69020752D01*
X98579940Y-68940382D01*
X98361243Y-68899500D01*
X98138757Y-68899500D01*
X97920060Y-68940382D01*
X97788864Y-68991207D01*
X97712601Y-69020752D01*
X97712595Y-69020754D01*
X97523439Y-69137874D01*
X97523437Y-69137876D01*
X97359020Y-69287761D01*
X97224943Y-69465308D01*
X97224938Y-69465316D01*
X97125775Y-69664461D01*
X97125769Y-69664476D01*
X97064885Y-69878462D01*
X97064884Y-69878464D01*
X97044357Y-70099999D01*
X94455643Y-70099999D01*
X94435115Y-69878464D01*
X94374229Y-69664472D01*
X94374224Y-69664461D01*
X94275061Y-69465316D01*
X94275056Y-69465308D01*
X94140979Y-69287761D01*
X93976562Y-69137876D01*
X93976560Y-69137874D01*
X93787404Y-69020754D01*
X93787398Y-69020752D01*
X93579940Y-68940382D01*
X93361243Y-68899500D01*
X93138757Y-68899500D01*
X92920060Y-68940382D01*
X92788864Y-68991207D01*
X92712601Y-69020752D01*
X92712595Y-69020754D01*
X92523439Y-69137874D01*
X92523437Y-69137876D01*
X92359020Y-69287761D01*
X92224943Y-69465308D01*
X92224938Y-69465316D01*
X92125775Y-69664461D01*
X92125769Y-69664476D01*
X92064885Y-69878462D01*
X92064884Y-69878464D01*
X92044357Y-70099999D01*
X89444060Y-70099999D01*
X89455643Y-69975000D01*
X89435115Y-69753464D01*
X89374229Y-69539472D01*
X89374224Y-69539461D01*
X89275061Y-69340316D01*
X89275056Y-69340308D01*
X89140979Y-69162761D01*
X88976562Y-69012876D01*
X88976560Y-69012874D01*
X88787404Y-68895754D01*
X88787398Y-68895752D01*
X88579940Y-68815382D01*
X88361243Y-68774500D01*
X88138757Y-68774500D01*
X87920060Y-68815382D01*
X87855528Y-68840382D01*
X87712601Y-68895752D01*
X87712595Y-68895754D01*
X87523439Y-69012874D01*
X87523437Y-69012876D01*
X87359020Y-69162761D01*
X87224943Y-69340308D01*
X87224938Y-69340316D01*
X87125775Y-69539461D01*
X87125769Y-69539476D01*
X87064885Y-69753462D01*
X87064884Y-69753464D01*
X87044357Y-69974999D01*
X84828326Y-69974999D01*
X84810115Y-69778464D01*
X84810114Y-69778462D01*
X84803001Y-69753464D01*
X84749229Y-69564472D01*
X84749224Y-69564461D01*
X84650061Y-69365316D01*
X84650056Y-69365308D01*
X84515979Y-69187761D01*
X84351562Y-69037876D01*
X84351560Y-69037874D01*
X84162404Y-68920754D01*
X84162398Y-68920752D01*
X83954940Y-68840382D01*
X83736243Y-68799500D01*
X83513757Y-68799500D01*
X83295060Y-68840382D01*
X83163864Y-68891207D01*
X83087601Y-68920752D01*
X83087595Y-68920754D01*
X82898439Y-69037874D01*
X82898437Y-69037876D01*
X82734020Y-69187761D01*
X82599943Y-69365308D01*
X82599938Y-69365316D01*
X82500775Y-69564461D01*
X82500769Y-69564476D01*
X82439885Y-69778462D01*
X82439884Y-69778464D01*
X82419357Y-69999999D01*
X58638285Y-69999999D01*
X58702194Y-69845708D01*
X58770202Y-69591898D01*
X58804500Y-69331382D01*
X58804500Y-69068618D01*
X58770202Y-68808102D01*
X58702194Y-68554292D01*
X58601639Y-68311530D01*
X58601637Y-68311527D01*
X58601635Y-68311522D01*
X58554696Y-68230223D01*
X58470257Y-68083970D01*
X58391399Y-67981200D01*
X81879153Y-67981200D01*
X81899634Y-68123656D01*
X81959422Y-68254571D01*
X81959423Y-68254573D01*
X82053672Y-68363343D01*
X82174747Y-68441153D01*
X82174750Y-68441154D01*
X82174749Y-68441154D01*
X82312836Y-68481699D01*
X82312838Y-68481700D01*
X82312839Y-68481700D01*
X82456762Y-68481700D01*
X82456762Y-68481699D01*
X82594853Y-68441153D01*
X82715928Y-68363343D01*
X82810177Y-68254573D01*
X82869965Y-68123657D01*
X82887744Y-68000000D01*
X86479153Y-68000000D01*
X86499634Y-68142456D01*
X86550836Y-68254571D01*
X86559423Y-68273373D01*
X86653672Y-68382143D01*
X86774747Y-68459953D01*
X86774750Y-68459954D01*
X86774749Y-68459954D01*
X86912836Y-68500499D01*
X86912838Y-68500500D01*
X86912839Y-68500500D01*
X87056762Y-68500500D01*
X87056762Y-68500499D01*
X87194853Y-68459953D01*
X87315928Y-68382143D01*
X87410177Y-68273373D01*
X87469965Y-68142457D01*
X87490447Y-68000000D01*
X87469965Y-67857543D01*
X87410177Y-67726627D01*
X87315928Y-67617857D01*
X87194853Y-67540047D01*
X87194851Y-67540046D01*
X87194849Y-67540045D01*
X87194850Y-67540045D01*
X87056763Y-67499500D01*
X87056761Y-67499500D01*
X86912839Y-67499500D01*
X86912836Y-67499500D01*
X86774749Y-67540045D01*
X86653673Y-67617856D01*
X86559423Y-67726626D01*
X86559422Y-67726628D01*
X86499634Y-67857543D01*
X86479153Y-68000000D01*
X82887744Y-68000000D01*
X82890447Y-67981200D01*
X82869965Y-67838743D01*
X82810177Y-67707827D01*
X82715928Y-67599057D01*
X82594853Y-67521247D01*
X82594851Y-67521246D01*
X82594849Y-67521245D01*
X82594850Y-67521245D01*
X82456763Y-67480700D01*
X82456761Y-67480700D01*
X82312839Y-67480700D01*
X82312836Y-67480700D01*
X82174749Y-67521245D01*
X82053673Y-67599056D01*
X81959423Y-67707826D01*
X81959422Y-67707828D01*
X81899634Y-67838743D01*
X81879153Y-67981200D01*
X58391399Y-67981200D01*
X58310297Y-67875505D01*
X58310292Y-67875499D01*
X58124500Y-67689707D01*
X58124493Y-67689701D01*
X57916034Y-67529746D01*
X57916033Y-67529745D01*
X57916030Y-67529743D01*
X57825303Y-67477362D01*
X57688477Y-67398364D01*
X57688466Y-67398359D01*
X57445717Y-67297809D01*
X57445711Y-67297807D01*
X57445708Y-67297806D01*
X57191898Y-67229798D01*
X57134005Y-67222176D01*
X56931389Y-67195500D01*
X56931382Y-67195500D01*
X56668618Y-67195500D01*
X56668610Y-67195500D01*
X56437048Y-67225987D01*
X56408102Y-67229798D01*
X56154292Y-67297806D01*
X56154290Y-67297806D01*
X56154282Y-67297809D01*
X55911533Y-67398359D01*
X55911522Y-67398364D01*
X55683965Y-67529746D01*
X55475506Y-67689701D01*
X55475499Y-67689707D01*
X55289707Y-67875499D01*
X55289701Y-67875506D01*
X55129746Y-68083965D01*
X54998364Y-68311522D01*
X54998359Y-68311533D01*
X54897809Y-68554282D01*
X54897806Y-68554293D01*
X54829798Y-68808103D01*
X54795500Y-69068610D01*
X53000000Y-69068610D01*
X53000000Y-66988949D01*
X112844352Y-66988949D01*
X112864833Y-67131405D01*
X112924621Y-67262320D01*
X112924622Y-67262322D01*
X113018871Y-67371092D01*
X113139946Y-67448902D01*
X113139949Y-67448903D01*
X113139948Y-67448903D01*
X113278035Y-67489448D01*
X113278037Y-67489449D01*
X113278038Y-67489449D01*
X113421961Y-67489449D01*
X113421961Y-67489448D01*
X113560052Y-67448902D01*
X113681127Y-67371092D01*
X113775376Y-67262322D01*
X113835164Y-67131406D01*
X113855646Y-66988949D01*
X113835164Y-66846492D01*
X113775376Y-66715576D01*
X113681127Y-66606806D01*
X113560052Y-66528996D01*
X113560050Y-66528995D01*
X113560048Y-66528994D01*
X113560049Y-66528994D01*
X113421962Y-66488449D01*
X113421960Y-66488449D01*
X113278038Y-66488449D01*
X113278035Y-66488449D01*
X113139948Y-66528994D01*
X113018872Y-66606805D01*
X112924622Y-66715575D01*
X112924621Y-66715577D01*
X112864833Y-66846492D01*
X112844352Y-66988949D01*
X53000000Y-66988949D01*
X53000000Y-65750000D01*
X92094353Y-65750000D01*
X92114834Y-65892456D01*
X92137669Y-65942456D01*
X92174623Y-66023373D01*
X92268872Y-66132143D01*
X92389947Y-66209953D01*
X92389950Y-66209954D01*
X92389949Y-66209954D01*
X92528036Y-66250499D01*
X92528038Y-66250500D01*
X92528039Y-66250500D01*
X92671962Y-66250500D01*
X92671962Y-66250499D01*
X92810053Y-66209953D01*
X92931128Y-66132143D01*
X93025377Y-66023373D01*
X93085165Y-65892457D01*
X93098458Y-65800000D01*
X97094353Y-65800000D01*
X97114834Y-65942456D01*
X97174622Y-66073371D01*
X97174623Y-66073373D01*
X97268872Y-66182143D01*
X97389947Y-66259953D01*
X97389950Y-66259954D01*
X97389949Y-66259954D01*
X97528036Y-66300499D01*
X97528038Y-66300500D01*
X97528039Y-66300500D01*
X97671962Y-66300500D01*
X97671962Y-66300499D01*
X97810053Y-66259953D01*
X97931128Y-66182143D01*
X98025377Y-66073373D01*
X98085165Y-65942457D01*
X98105647Y-65800000D01*
X98098458Y-65750000D01*
X102094353Y-65750000D01*
X102114834Y-65892456D01*
X102137669Y-65942456D01*
X102174623Y-66023373D01*
X102268872Y-66132143D01*
X102389947Y-66209953D01*
X102389950Y-66209954D01*
X102389949Y-66209954D01*
X102528036Y-66250499D01*
X102528038Y-66250500D01*
X102528039Y-66250500D01*
X102671962Y-66250500D01*
X102671962Y-66250499D01*
X102810053Y-66209953D01*
X102931128Y-66132143D01*
X103025377Y-66023373D01*
X103085165Y-65892457D01*
X103105647Y-65750000D01*
X107094353Y-65750000D01*
X107114834Y-65892456D01*
X107137669Y-65942456D01*
X107174623Y-66023373D01*
X107268872Y-66132143D01*
X107389947Y-66209953D01*
X107389950Y-66209954D01*
X107389949Y-66209954D01*
X107528036Y-66250499D01*
X107528038Y-66250500D01*
X107528039Y-66250500D01*
X107671962Y-66250500D01*
X107671962Y-66250499D01*
X107810053Y-66209953D01*
X107931128Y-66132143D01*
X108025377Y-66023373D01*
X108085165Y-65892457D01*
X108105647Y-65750000D01*
X108085165Y-65607543D01*
X108025377Y-65476627D01*
X107931128Y-65367857D01*
X107810053Y-65290047D01*
X107810051Y-65290046D01*
X107810049Y-65290045D01*
X107810050Y-65290045D01*
X107671963Y-65249500D01*
X107671961Y-65249500D01*
X107528039Y-65249500D01*
X107528036Y-65249500D01*
X107389949Y-65290045D01*
X107268873Y-65367856D01*
X107174623Y-65476626D01*
X107174622Y-65476628D01*
X107114834Y-65607543D01*
X107094353Y-65750000D01*
X103105647Y-65750000D01*
X103085165Y-65607543D01*
X103025377Y-65476627D01*
X102931128Y-65367857D01*
X102810053Y-65290047D01*
X102810051Y-65290046D01*
X102810049Y-65290045D01*
X102810050Y-65290045D01*
X102671963Y-65249500D01*
X102671961Y-65249500D01*
X102528039Y-65249500D01*
X102528036Y-65249500D01*
X102389949Y-65290045D01*
X102268873Y-65367856D01*
X102174623Y-65476626D01*
X102174622Y-65476628D01*
X102114834Y-65607543D01*
X102094353Y-65750000D01*
X98098458Y-65750000D01*
X98085165Y-65657543D01*
X98025377Y-65526627D01*
X97931128Y-65417857D01*
X97810053Y-65340047D01*
X97810051Y-65340046D01*
X97810049Y-65340045D01*
X97810050Y-65340045D01*
X97671963Y-65299500D01*
X97671961Y-65299500D01*
X97528039Y-65299500D01*
X97528036Y-65299500D01*
X97389949Y-65340045D01*
X97268873Y-65417856D01*
X97174623Y-65526626D01*
X97174622Y-65526628D01*
X97114834Y-65657543D01*
X97094353Y-65800000D01*
X93098458Y-65800000D01*
X93105647Y-65750000D01*
X93085165Y-65607543D01*
X93025377Y-65476627D01*
X92931128Y-65367857D01*
X92810053Y-65290047D01*
X92810051Y-65290046D01*
X92810049Y-65290045D01*
X92810050Y-65290045D01*
X92671963Y-65249500D01*
X92671961Y-65249500D01*
X92528039Y-65249500D01*
X92528036Y-65249500D01*
X92389949Y-65290045D01*
X92268873Y-65367856D01*
X92174623Y-65476626D01*
X92174622Y-65476628D01*
X92114834Y-65607543D01*
X92094353Y-65750000D01*
X53000000Y-65750000D01*
X53000000Y-62800000D01*
X70894353Y-62800000D01*
X70914834Y-62942456D01*
X70974622Y-63073371D01*
X70974623Y-63073373D01*
X71068872Y-63182143D01*
X71189947Y-63259953D01*
X71189950Y-63259954D01*
X71189949Y-63259954D01*
X71328036Y-63300499D01*
X71328038Y-63300500D01*
X71328039Y-63300500D01*
X71471962Y-63300500D01*
X71471962Y-63300499D01*
X71610053Y-63259953D01*
X71731128Y-63182143D01*
X71825377Y-63073373D01*
X71885165Y-62942457D01*
X71905647Y-62800000D01*
X71891269Y-62699999D01*
X114494357Y-62699999D01*
X114494357Y-62700000D01*
X114514884Y-62921535D01*
X114514885Y-62921537D01*
X114575769Y-63135523D01*
X114575775Y-63135538D01*
X114674938Y-63334683D01*
X114674943Y-63334691D01*
X114809020Y-63512238D01*
X114973437Y-63662123D01*
X114973439Y-63662125D01*
X115162595Y-63779245D01*
X115162596Y-63779245D01*
X115162599Y-63779247D01*
X115370060Y-63859618D01*
X115588757Y-63900500D01*
X115588759Y-63900500D01*
X115811241Y-63900500D01*
X115811243Y-63900500D01*
X116029940Y-63859618D01*
X116237401Y-63779247D01*
X116426562Y-63662124D01*
X116590981Y-63512236D01*
X116725058Y-63334689D01*
X116824229Y-63135528D01*
X116885115Y-62921536D01*
X116905643Y-62700000D01*
X116885115Y-62478464D01*
X116824229Y-62264472D01*
X116753216Y-62121859D01*
X116725061Y-62065316D01*
X116725056Y-62065308D01*
X116590979Y-61887761D01*
X116426562Y-61737876D01*
X116426560Y-61737874D01*
X116237404Y-61620754D01*
X116237398Y-61620752D01*
X116029940Y-61540382D01*
X115811243Y-61499500D01*
X115588757Y-61499500D01*
X115370060Y-61540382D01*
X115238864Y-61591207D01*
X115162601Y-61620752D01*
X115162595Y-61620754D01*
X114973439Y-61737874D01*
X114973437Y-61737876D01*
X114809020Y-61887761D01*
X114674943Y-62065308D01*
X114674938Y-62065316D01*
X114575775Y-62264461D01*
X114575769Y-62264476D01*
X114514885Y-62478462D01*
X114514884Y-62478464D01*
X114494357Y-62699999D01*
X71891269Y-62699999D01*
X71885165Y-62657543D01*
X71825377Y-62526627D01*
X71731128Y-62417857D01*
X71610053Y-62340047D01*
X71610051Y-62340046D01*
X71610049Y-62340045D01*
X71610050Y-62340045D01*
X71471963Y-62299500D01*
X71471961Y-62299500D01*
X71328039Y-62299500D01*
X71328036Y-62299500D01*
X71189949Y-62340045D01*
X71068873Y-62417856D01*
X70974623Y-62526626D01*
X70974622Y-62526628D01*
X70914834Y-62657543D01*
X70894353Y-62800000D01*
X53000000Y-62800000D01*
X53000000Y-59579999D01*
X60719464Y-59579999D01*
X60719464Y-59580000D01*
X60739564Y-59796918D01*
X60739564Y-59796920D01*
X60739565Y-59796923D01*
X60785239Y-59957450D01*
X60799184Y-60006462D01*
X60841393Y-60091229D01*
X60896288Y-60201472D01*
X61027573Y-60375322D01*
X61188568Y-60522088D01*
X61188575Y-60522092D01*
X61188576Y-60522093D01*
X61373786Y-60636770D01*
X61373792Y-60636773D01*
X61396664Y-60645633D01*
X61576931Y-60715470D01*
X61791074Y-60755500D01*
X61791076Y-60755500D01*
X62008924Y-60755500D01*
X62008926Y-60755500D01*
X62223069Y-60715470D01*
X62426210Y-60636772D01*
X62611432Y-60522088D01*
X62772427Y-60375322D01*
X62903712Y-60201472D01*
X63000817Y-60006459D01*
X63060435Y-59796923D01*
X63080536Y-59580000D01*
X63060435Y-59363077D01*
X63000817Y-59153541D01*
X62903712Y-58958528D01*
X62772427Y-58784678D01*
X62611432Y-58637912D01*
X62611428Y-58637909D01*
X62611423Y-58637906D01*
X62426213Y-58523229D01*
X62426207Y-58523226D01*
X62341113Y-58490260D01*
X62223069Y-58444530D01*
X62008926Y-58404500D01*
X61791074Y-58404500D01*
X61576931Y-58444530D01*
X61528130Y-58463435D01*
X61373792Y-58523226D01*
X61373786Y-58523229D01*
X61188576Y-58637906D01*
X61188566Y-58637913D01*
X61027574Y-58784676D01*
X60896288Y-58958527D01*
X60799184Y-59153537D01*
X60739564Y-59363081D01*
X60719464Y-59579999D01*
X53000000Y-59579999D01*
X53000000Y-57000000D01*
X74554353Y-57000000D01*
X74574834Y-57142456D01*
X74629995Y-57263239D01*
X74634623Y-57273373D01*
X74728872Y-57382143D01*
X74849947Y-57459953D01*
X74849950Y-57459954D01*
X74849949Y-57459954D01*
X74988036Y-57500499D01*
X74988038Y-57500500D01*
X74988039Y-57500500D01*
X75131962Y-57500500D01*
X75131962Y-57500499D01*
X75270053Y-57459953D01*
X75391128Y-57382143D01*
X75485377Y-57273373D01*
X75545165Y-57142457D01*
X75565647Y-57000000D01*
X75545165Y-56857543D01*
X75485377Y-56726627D01*
X75391128Y-56617857D01*
X75270053Y-56540047D01*
X75270051Y-56540046D01*
X75270049Y-56540045D01*
X75270050Y-56540045D01*
X75131963Y-56499500D01*
X75131961Y-56499500D01*
X74988039Y-56499500D01*
X74988036Y-56499500D01*
X74849949Y-56540045D01*
X74728873Y-56617856D01*
X74634623Y-56726626D01*
X74634622Y-56726628D01*
X74574834Y-56857543D01*
X74554353Y-57000000D01*
X53000000Y-57000000D01*
X53000000Y-54499994D01*
X60419945Y-54499994D01*
X60419945Y-54500005D01*
X60440130Y-54743605D01*
X60500138Y-54980573D01*
X60598330Y-55204429D01*
X60694626Y-55351819D01*
X61298958Y-54747487D01*
X61323978Y-54807890D01*
X61395112Y-54914351D01*
X61485649Y-55004888D01*
X61592110Y-55076022D01*
X61652511Y-55101041D01*
X61047758Y-55705794D01*
X61047758Y-55705796D01*
X61090478Y-55739046D01*
X61090484Y-55739050D01*
X61305468Y-55855394D01*
X61305476Y-55855397D01*
X61536664Y-55934765D01*
X61777779Y-55975000D01*
X62022221Y-55975000D01*
X62263335Y-55934765D01*
X62494523Y-55855397D01*
X62494531Y-55855394D01*
X62709514Y-55739051D01*
X62709514Y-55739050D01*
X62752240Y-55705795D01*
X62752240Y-55705794D01*
X62147488Y-55101041D01*
X62207890Y-55076022D01*
X62314351Y-55004888D01*
X62404888Y-54914351D01*
X62476022Y-54807890D01*
X62501041Y-54747488D01*
X63105372Y-55351819D01*
X63201667Y-55204431D01*
X63201672Y-55204423D01*
X63203612Y-55200000D01*
X74554353Y-55200000D01*
X74574834Y-55342456D01*
X74634622Y-55473371D01*
X74634623Y-55473373D01*
X74728872Y-55582143D01*
X74849947Y-55659953D01*
X74849950Y-55659954D01*
X74849949Y-55659954D01*
X74988036Y-55700499D01*
X74988038Y-55700500D01*
X74988039Y-55700500D01*
X75131962Y-55700500D01*
X75131962Y-55700499D01*
X75270053Y-55659953D01*
X75391128Y-55582143D01*
X75485377Y-55473373D01*
X75545165Y-55342457D01*
X75565647Y-55200000D01*
X75545165Y-55057543D01*
X75485377Y-54926627D01*
X75391128Y-54817857D01*
X75270053Y-54740047D01*
X75270051Y-54740046D01*
X75270049Y-54740045D01*
X75270050Y-54740045D01*
X75131963Y-54699500D01*
X75131961Y-54699500D01*
X74988039Y-54699500D01*
X74988036Y-54699500D01*
X74849949Y-54740045D01*
X74728873Y-54817856D01*
X74634623Y-54926626D01*
X74634622Y-54926628D01*
X74574834Y-55057543D01*
X74554353Y-55200000D01*
X63203612Y-55200000D01*
X63299861Y-54980573D01*
X63359869Y-54743605D01*
X63380055Y-54500005D01*
X63380055Y-54499994D01*
X63359869Y-54256394D01*
X63299861Y-54019426D01*
X63201669Y-53795570D01*
X63105372Y-53648179D01*
X62501041Y-54252510D01*
X62476022Y-54192110D01*
X62404888Y-54085649D01*
X62314351Y-53995112D01*
X62207890Y-53923978D01*
X62147487Y-53898958D01*
X62752240Y-53294204D01*
X62752240Y-53294203D01*
X62709514Y-53260949D01*
X62494531Y-53144605D01*
X62494523Y-53144602D01*
X62263335Y-53065234D01*
X62022221Y-53025000D01*
X61777779Y-53025000D01*
X61536664Y-53065234D01*
X61305476Y-53144602D01*
X61305468Y-53144605D01*
X61090481Y-53260951D01*
X61047758Y-53294202D01*
X61047757Y-53294204D01*
X61652511Y-53898958D01*
X61592110Y-53923978D01*
X61485649Y-53995112D01*
X61395112Y-54085649D01*
X61323978Y-54192110D01*
X61298958Y-54252511D01*
X60694626Y-53648179D01*
X60598328Y-53795575D01*
X60500138Y-54019426D01*
X60440130Y-54256394D01*
X60419945Y-54499994D01*
X53000000Y-54499994D01*
X53000000Y-48425247D01*
X60724500Y-48425247D01*
X60724500Y-50414752D01*
X60736131Y-50473229D01*
X60736132Y-50473230D01*
X60780447Y-50539552D01*
X60846769Y-50583867D01*
X60846770Y-50583868D01*
X60905247Y-50595499D01*
X60905250Y-50595500D01*
X60905252Y-50595500D01*
X62894750Y-50595500D01*
X62894751Y-50595499D01*
X62909568Y-50592552D01*
X62953229Y-50583868D01*
X62953229Y-50583867D01*
X62953231Y-50583867D01*
X63019552Y-50539552D01*
X63063867Y-50473231D01*
X63063867Y-50473229D01*
X63063868Y-50473229D01*
X63075499Y-50414752D01*
X63075500Y-50414750D01*
X63075500Y-49687156D01*
X68925000Y-49687156D01*
X68925000Y-50120001D01*
X69771184Y-50120001D01*
X69755124Y-50136061D01*
X69704964Y-50222940D01*
X69679000Y-50319841D01*
X69679000Y-50420161D01*
X69704964Y-50517062D01*
X69755124Y-50603941D01*
X69771184Y-50620001D01*
X68925000Y-50620001D01*
X68925000Y-51052845D01*
X68931401Y-51112373D01*
X68931403Y-51112380D01*
X68981645Y-51247087D01*
X68981649Y-51247094D01*
X69067809Y-51362188D01*
X69067812Y-51362191D01*
X69182906Y-51448351D01*
X69182913Y-51448355D01*
X69317620Y-51498597D01*
X69317627Y-51498599D01*
X69377155Y-51505000D01*
X69377172Y-51505001D01*
X69810000Y-51505001D01*
X69810000Y-50658817D01*
X69826060Y-50674877D01*
X69912939Y-50725037D01*
X70009840Y-50751001D01*
X70110160Y-50751001D01*
X70207061Y-50725037D01*
X70293940Y-50674877D01*
X70310000Y-50658817D01*
X70310000Y-51505001D01*
X70742828Y-51505001D01*
X70742844Y-51505000D01*
X70802372Y-51498599D01*
X70802379Y-51498597D01*
X70937086Y-51448355D01*
X70937093Y-51448351D01*
X71052187Y-51362191D01*
X71052190Y-51362188D01*
X71138350Y-51247094D01*
X71138354Y-51247087D01*
X71188596Y-51112380D01*
X71188598Y-51112373D01*
X71194999Y-51052845D01*
X71195000Y-51052828D01*
X71195000Y-50620001D01*
X70348816Y-50620001D01*
X70364876Y-50603941D01*
X70415036Y-50517062D01*
X70441000Y-50420161D01*
X70441000Y-50319841D01*
X70415036Y-50222940D01*
X70364876Y-50136061D01*
X70348816Y-50120001D01*
X71195000Y-50120001D01*
X71195000Y-49687173D01*
X71194999Y-49687156D01*
X71188598Y-49627628D01*
X71188596Y-49627621D01*
X71138354Y-49492914D01*
X71138350Y-49492907D01*
X71052190Y-49377813D01*
X71052187Y-49377810D01*
X70937093Y-49291650D01*
X70937086Y-49291646D01*
X70802379Y-49241404D01*
X70802372Y-49241402D01*
X70742844Y-49235001D01*
X70310000Y-49235001D01*
X70310000Y-50081185D01*
X70293940Y-50065125D01*
X70207061Y-50014965D01*
X70110160Y-49989001D01*
X70009840Y-49989001D01*
X69912939Y-50014965D01*
X69826060Y-50065125D01*
X69810000Y-50081185D01*
X69810000Y-49235001D01*
X69377155Y-49235001D01*
X69317627Y-49241402D01*
X69317620Y-49241404D01*
X69182913Y-49291646D01*
X69182906Y-49291650D01*
X69067812Y-49377810D01*
X69067809Y-49377813D01*
X68981649Y-49492907D01*
X68981645Y-49492914D01*
X68931403Y-49627621D01*
X68931401Y-49627628D01*
X68925000Y-49687156D01*
X63075500Y-49687156D01*
X63075500Y-48425249D01*
X63075499Y-48425247D01*
X63063868Y-48366770D01*
X63063867Y-48366769D01*
X63019552Y-48300447D01*
X62953230Y-48256132D01*
X62953229Y-48256131D01*
X62894752Y-48244500D01*
X62894748Y-48244500D01*
X60905252Y-48244500D01*
X60905247Y-48244500D01*
X60846770Y-48256131D01*
X60846769Y-48256132D01*
X60780447Y-48300447D01*
X60736132Y-48366769D01*
X60736131Y-48366770D01*
X60724500Y-48425247D01*
X53000000Y-48425247D01*
X53000000Y-47900000D01*
X73600000Y-47900000D01*
X73600000Y-51200000D01*
X74933273Y-51200000D01*
X74959054Y-51202710D01*
X74972185Y-51205501D01*
X75147815Y-51205501D01*
X75160946Y-51202710D01*
X75186727Y-51200000D01*
X75400000Y-51200000D01*
X76786906Y-51200000D01*
X76853945Y-51219685D01*
X76899700Y-51272489D01*
X76909644Y-51306353D01*
X76914834Y-51342456D01*
X76974622Y-51473371D01*
X76974623Y-51473373D01*
X77068872Y-51582143D01*
X77189947Y-51659953D01*
X77189950Y-51659954D01*
X77189949Y-51659954D01*
X77328036Y-51700499D01*
X77328038Y-51700500D01*
X77328039Y-51700500D01*
X77471962Y-51700500D01*
X77471962Y-51700499D01*
X77610053Y-51659953D01*
X77731128Y-51582143D01*
X77825377Y-51473373D01*
X77885165Y-51342457D01*
X77890356Y-51306353D01*
X77919381Y-51242797D01*
X77978159Y-51205023D01*
X78013094Y-51200000D01*
X80600000Y-51200000D01*
X84076000Y-51200000D01*
X84143039Y-51219685D01*
X84188794Y-51272489D01*
X84200000Y-51324000D01*
X84200000Y-52000000D01*
X84276000Y-52000000D01*
X84343039Y-52019685D01*
X84388794Y-52072489D01*
X84400000Y-52124000D01*
X84400000Y-57263239D01*
X84380315Y-57330278D01*
X84327511Y-57376033D01*
X84298785Y-57385128D01*
X84122186Y-57418140D01*
X84122185Y-57418140D01*
X83928634Y-57493121D01*
X83928633Y-57493122D01*
X83834784Y-57551231D01*
X84363681Y-58080127D01*
X84365027Y-58082593D01*
X84267886Y-58108622D01*
X84172114Y-58163916D01*
X84093916Y-58242114D01*
X84038622Y-58337886D01*
X84012356Y-58435909D01*
X83478254Y-57901807D01*
X83478253Y-57901808D01*
X83473679Y-57907866D01*
X83473675Y-57907872D01*
X83381158Y-58093672D01*
X83324353Y-58293323D01*
X83305202Y-58499999D01*
X83305202Y-58500000D01*
X83324353Y-58706676D01*
X83381158Y-58906327D01*
X83473673Y-59092123D01*
X83473681Y-59092136D01*
X83478254Y-59098191D01*
X84012356Y-58564089D01*
X84038622Y-58662114D01*
X84093916Y-58757886D01*
X84172114Y-58836084D01*
X84267886Y-58891378D01*
X84365909Y-58917643D01*
X83834785Y-59448767D01*
X83834785Y-59448768D01*
X83928625Y-59506872D01*
X83928634Y-59506877D01*
X84122186Y-59581859D01*
X84326219Y-59620000D01*
X84533781Y-59620000D01*
X84734125Y-59582549D01*
X84803640Y-59589580D01*
X84858319Y-59633078D01*
X84880801Y-59699231D01*
X84880130Y-59718321D01*
X84874308Y-59769995D01*
X84874308Y-59770004D01*
X84880130Y-59821678D01*
X84868075Y-59890500D01*
X84820726Y-59941879D01*
X84753116Y-59959503D01*
X84734126Y-59957450D01*
X84533782Y-59920000D01*
X84326219Y-59920000D01*
X84122186Y-59958140D01*
X84122185Y-59958140D01*
X83928634Y-60033121D01*
X83928633Y-60033122D01*
X83834784Y-60091231D01*
X84365909Y-60622356D01*
X84267886Y-60648622D01*
X84172114Y-60703916D01*
X84093916Y-60782114D01*
X84038622Y-60877886D01*
X84012356Y-60975909D01*
X83478254Y-60441807D01*
X83478253Y-60441808D01*
X83473679Y-60447866D01*
X83473675Y-60447872D01*
X83381158Y-60633672D01*
X83324353Y-60833323D01*
X83305202Y-61039999D01*
X83305202Y-61040000D01*
X83324353Y-61246676D01*
X83381158Y-61446327D01*
X83473673Y-61632123D01*
X83473681Y-61632136D01*
X83478254Y-61638191D01*
X84012356Y-61104089D01*
X84038622Y-61202114D01*
X84093916Y-61297886D01*
X84172114Y-61376084D01*
X84267886Y-61431378D01*
X84365909Y-61457643D01*
X83834785Y-61988767D01*
X83834785Y-61988768D01*
X83928625Y-62046872D01*
X83928634Y-62046877D01*
X84122186Y-62121859D01*
X84326219Y-62160000D01*
X84533781Y-62160000D01*
X84737813Y-62121859D01*
X84737814Y-62121859D01*
X84931370Y-62046875D01*
X85025214Y-61988768D01*
X85025214Y-61988767D01*
X84494090Y-61457642D01*
X84592114Y-61431378D01*
X84687886Y-61376084D01*
X84766084Y-61297886D01*
X84821378Y-61202114D01*
X84847643Y-61104089D01*
X85381744Y-61638190D01*
X85381745Y-61638190D01*
X85386324Y-61632127D01*
X85386326Y-61632124D01*
X85478840Y-61446330D01*
X85478841Y-61446329D01*
X85535646Y-61246676D01*
X85554798Y-61040000D01*
X85554798Y-61039999D01*
X85535646Y-60833319D01*
X85535645Y-60833316D01*
X85510958Y-60746548D01*
X85511545Y-60676681D01*
X85549812Y-60618222D01*
X85613609Y-60589732D01*
X85644104Y-60589394D01*
X85690511Y-60594622D01*
X85699999Y-60595692D01*
X85700000Y-60595692D01*
X85700001Y-60595692D01*
X85708111Y-60594778D01*
X85755892Y-60589394D01*
X85824712Y-60601448D01*
X85876092Y-60648796D01*
X85893717Y-60716406D01*
X85889042Y-60746547D01*
X85864353Y-60833321D01*
X85845202Y-61039999D01*
X85845202Y-61040000D01*
X85864353Y-61246676D01*
X85921158Y-61446327D01*
X86013673Y-61632123D01*
X86013681Y-61632136D01*
X86018254Y-61638191D01*
X86552356Y-61104089D01*
X86578622Y-61202114D01*
X86633916Y-61297886D01*
X86712114Y-61376084D01*
X86807886Y-61431378D01*
X86905909Y-61457643D01*
X86374785Y-61988767D01*
X86374785Y-61988768D01*
X86468625Y-62046872D01*
X86468634Y-62046877D01*
X86662186Y-62121859D01*
X86866219Y-62160000D01*
X87073781Y-62160000D01*
X87277813Y-62121859D01*
X87277814Y-62121859D01*
X87471370Y-62046875D01*
X87565214Y-61988768D01*
X87565214Y-61988767D01*
X87034090Y-61457642D01*
X87132114Y-61431378D01*
X87227886Y-61376084D01*
X87306084Y-61297886D01*
X87361378Y-61202114D01*
X87387642Y-61104090D01*
X87921744Y-61638190D01*
X87921745Y-61638190D01*
X87926324Y-61632127D01*
X87926326Y-61632124D01*
X88018840Y-61446330D01*
X88018841Y-61446329D01*
X88075646Y-61246676D01*
X88094798Y-61040000D01*
X88094798Y-61039999D01*
X88075646Y-60833323D01*
X88018841Y-60633670D01*
X88018840Y-60633669D01*
X87926328Y-60447879D01*
X87926324Y-60447873D01*
X87921744Y-60441808D01*
X87387642Y-60975909D01*
X87361378Y-60877886D01*
X87306084Y-60782114D01*
X87227886Y-60703916D01*
X87132114Y-60648622D01*
X87034089Y-60622356D01*
X87565214Y-60091231D01*
X87565213Y-60091229D01*
X87471374Y-60033126D01*
X87277813Y-59958140D01*
X87073781Y-59920000D01*
X86866218Y-59920000D01*
X86665873Y-59957450D01*
X86596358Y-59950419D01*
X86541680Y-59906921D01*
X86519198Y-59840767D01*
X86519869Y-59821676D01*
X86525692Y-59770000D01*
X86525692Y-59769998D01*
X86523439Y-59750000D01*
X91505404Y-59750000D01*
X91525885Y-59892456D01*
X91577951Y-60006462D01*
X91585674Y-60023373D01*
X91679923Y-60132143D01*
X91800998Y-60209953D01*
X91801001Y-60209954D01*
X91801000Y-60209954D01*
X91939087Y-60250499D01*
X91939089Y-60250500D01*
X91939090Y-60250500D01*
X92083013Y-60250500D01*
X92083013Y-60250499D01*
X92221104Y-60209953D01*
X92342179Y-60132143D01*
X92436428Y-60023373D01*
X92496216Y-59892457D01*
X92516698Y-59750000D01*
X96505404Y-59750000D01*
X96525885Y-59892456D01*
X96577951Y-60006462D01*
X96585674Y-60023373D01*
X96679923Y-60132143D01*
X96800998Y-60209953D01*
X96801001Y-60209954D01*
X96801000Y-60209954D01*
X96939087Y-60250499D01*
X96939089Y-60250500D01*
X96939090Y-60250500D01*
X97083013Y-60250500D01*
X97083013Y-60250499D01*
X97221104Y-60209953D01*
X97342179Y-60132143D01*
X97436428Y-60023373D01*
X97496216Y-59892457D01*
X97516698Y-59750000D01*
X101505404Y-59750000D01*
X101525885Y-59892456D01*
X101577951Y-60006462D01*
X101585674Y-60023373D01*
X101679923Y-60132143D01*
X101800998Y-60209953D01*
X101801001Y-60209954D01*
X101801000Y-60209954D01*
X101939087Y-60250499D01*
X101939089Y-60250500D01*
X101939090Y-60250500D01*
X102083013Y-60250500D01*
X102083013Y-60250499D01*
X102221104Y-60209953D01*
X102342179Y-60132143D01*
X102436428Y-60023373D01*
X102496216Y-59892457D01*
X102516698Y-59750000D01*
X106505404Y-59750000D01*
X106525885Y-59892456D01*
X106577951Y-60006462D01*
X106585674Y-60023373D01*
X106679923Y-60132143D01*
X106800998Y-60209953D01*
X106801001Y-60209954D01*
X106801000Y-60209954D01*
X106939087Y-60250499D01*
X106939089Y-60250500D01*
X106939090Y-60250500D01*
X107083013Y-60250500D01*
X107083013Y-60250499D01*
X107221104Y-60209953D01*
X107342179Y-60132143D01*
X107436428Y-60023373D01*
X107496216Y-59892457D01*
X107516698Y-59750000D01*
X107496216Y-59607543D01*
X107436428Y-59476627D01*
X107342179Y-59367857D01*
X107221104Y-59290047D01*
X107221102Y-59290046D01*
X107221100Y-59290045D01*
X107221101Y-59290045D01*
X107083014Y-59249500D01*
X107083012Y-59249500D01*
X106939090Y-59249500D01*
X106939087Y-59249500D01*
X106801000Y-59290045D01*
X106679924Y-59367856D01*
X106585674Y-59476626D01*
X106585673Y-59476628D01*
X106525885Y-59607543D01*
X106505404Y-59750000D01*
X102516698Y-59750000D01*
X102496216Y-59607543D01*
X102436428Y-59476627D01*
X102342179Y-59367857D01*
X102221104Y-59290047D01*
X102221102Y-59290046D01*
X102221100Y-59290045D01*
X102221101Y-59290045D01*
X102083014Y-59249500D01*
X102083012Y-59249500D01*
X101939090Y-59249500D01*
X101939087Y-59249500D01*
X101801000Y-59290045D01*
X101679924Y-59367856D01*
X101585674Y-59476626D01*
X101585673Y-59476628D01*
X101525885Y-59607543D01*
X101505404Y-59750000D01*
X97516698Y-59750000D01*
X97496216Y-59607543D01*
X97436428Y-59476627D01*
X97342179Y-59367857D01*
X97221104Y-59290047D01*
X97221102Y-59290046D01*
X97221100Y-59290045D01*
X97221101Y-59290045D01*
X97083014Y-59249500D01*
X97083012Y-59249500D01*
X96939090Y-59249500D01*
X96939087Y-59249500D01*
X96801000Y-59290045D01*
X96679924Y-59367856D01*
X96585674Y-59476626D01*
X96585673Y-59476628D01*
X96525885Y-59607543D01*
X96505404Y-59750000D01*
X92516698Y-59750000D01*
X92496216Y-59607543D01*
X92436428Y-59476627D01*
X92342179Y-59367857D01*
X92221104Y-59290047D01*
X92221102Y-59290046D01*
X92221100Y-59290045D01*
X92221101Y-59290045D01*
X92083014Y-59249500D01*
X92083012Y-59249500D01*
X91939090Y-59249500D01*
X91939087Y-59249500D01*
X91801000Y-59290045D01*
X91679924Y-59367856D01*
X91585674Y-59476626D01*
X91585673Y-59476628D01*
X91525885Y-59607543D01*
X91505404Y-59750000D01*
X86523439Y-59750000D01*
X86519869Y-59718323D01*
X86531923Y-59649501D01*
X86579271Y-59598121D01*
X86646882Y-59580496D01*
X86665874Y-59582549D01*
X86866219Y-59620000D01*
X87073781Y-59620000D01*
X87277813Y-59581859D01*
X87277814Y-59581859D01*
X87471370Y-59506875D01*
X87565214Y-59448768D01*
X87034089Y-58917643D01*
X87132114Y-58891378D01*
X87227886Y-58836084D01*
X87306084Y-58757886D01*
X87361378Y-58662114D01*
X87387643Y-58564090D01*
X87921744Y-59098190D01*
X87921745Y-59098190D01*
X87926324Y-59092127D01*
X87926326Y-59092124D01*
X88018840Y-58906330D01*
X88018841Y-58906329D01*
X88075646Y-58706676D01*
X88094798Y-58500000D01*
X88094798Y-58499999D01*
X88075646Y-58293323D01*
X88018841Y-58093670D01*
X88018840Y-58093669D01*
X87926328Y-57907879D01*
X87926324Y-57907873D01*
X87921744Y-57901808D01*
X87387643Y-58435909D01*
X87361378Y-58337886D01*
X87306084Y-58242114D01*
X87227886Y-58163916D01*
X87132114Y-58108622D01*
X87100000Y-58100017D01*
X87100000Y-58067808D01*
X87119685Y-58000769D01*
X87136319Y-57980127D01*
X87565214Y-57551231D01*
X87565213Y-57551229D01*
X87471374Y-57493126D01*
X87277814Y-57418140D01*
X87277806Y-57418138D01*
X87201213Y-57403819D01*
X87138933Y-57372150D01*
X87103660Y-57311837D01*
X87100000Y-57281931D01*
X87100000Y-54749999D01*
X96794357Y-54749999D01*
X96794357Y-54750000D01*
X96814884Y-54971535D01*
X96814885Y-54971537D01*
X96875769Y-55185523D01*
X96875775Y-55185538D01*
X96974938Y-55384683D01*
X96974943Y-55384691D01*
X97109020Y-55562238D01*
X97273437Y-55712123D01*
X97273439Y-55712125D01*
X97462595Y-55829245D01*
X97462596Y-55829245D01*
X97462599Y-55829247D01*
X97670060Y-55909618D01*
X97888757Y-55950500D01*
X97888759Y-55950500D01*
X98111241Y-55950500D01*
X98111243Y-55950500D01*
X98329940Y-55909618D01*
X98537401Y-55829247D01*
X98726562Y-55712124D01*
X98890981Y-55562236D01*
X99025058Y-55384689D01*
X99124229Y-55185528D01*
X99185115Y-54971536D01*
X99205643Y-54750000D01*
X99205050Y-54743605D01*
X99185115Y-54528464D01*
X99185114Y-54528462D01*
X99177017Y-54500005D01*
X99124229Y-54314472D01*
X99124224Y-54314461D01*
X99025061Y-54115316D01*
X99025056Y-54115308D01*
X98890979Y-53937761D01*
X98726562Y-53787876D01*
X98726560Y-53787874D01*
X98537404Y-53670754D01*
X98537398Y-53670752D01*
X98329940Y-53590382D01*
X98111243Y-53549500D01*
X97888757Y-53549500D01*
X97670060Y-53590382D01*
X97562263Y-53632143D01*
X97462601Y-53670752D01*
X97462595Y-53670754D01*
X97273439Y-53787874D01*
X97273437Y-53787876D01*
X97109020Y-53937761D01*
X96974943Y-54115308D01*
X96974938Y-54115316D01*
X96875775Y-54314461D01*
X96875769Y-54314476D01*
X96814885Y-54528462D01*
X96814884Y-54528464D01*
X96794357Y-54749999D01*
X87100000Y-54749999D01*
X87100000Y-53250000D01*
X103600602Y-53250000D01*
X103621083Y-53392456D01*
X103680871Y-53523371D01*
X103680872Y-53523373D01*
X103775121Y-53632143D01*
X103896196Y-53709953D01*
X103896199Y-53709954D01*
X103896198Y-53709954D01*
X104034285Y-53750499D01*
X104034287Y-53750500D01*
X104034288Y-53750500D01*
X104178211Y-53750500D01*
X104178211Y-53750499D01*
X104316302Y-53709953D01*
X104437377Y-53632143D01*
X104531626Y-53523373D01*
X104591414Y-53392457D01*
X104611896Y-53250000D01*
X104591414Y-53107543D01*
X104531626Y-52976627D01*
X104437377Y-52867857D01*
X104316302Y-52790047D01*
X104316300Y-52790046D01*
X104316298Y-52790045D01*
X104316299Y-52790045D01*
X104178212Y-52749500D01*
X104178210Y-52749500D01*
X104034288Y-52749500D01*
X104034285Y-52749500D01*
X103896198Y-52790045D01*
X103775122Y-52867856D01*
X103680872Y-52976626D01*
X103680871Y-52976628D01*
X103621083Y-53107543D01*
X103600602Y-53250000D01*
X87100000Y-53250000D01*
X87100000Y-52202100D01*
X93278303Y-52202100D01*
X93298784Y-52344556D01*
X93346196Y-52448371D01*
X93358573Y-52475473D01*
X93452822Y-52584243D01*
X93573897Y-52662053D01*
X93573900Y-52662054D01*
X93573899Y-52662054D01*
X93711986Y-52702599D01*
X93711988Y-52702600D01*
X93711989Y-52702600D01*
X93855912Y-52702600D01*
X93855912Y-52702599D01*
X93994003Y-52662053D01*
X94115078Y-52584243D01*
X94209327Y-52475473D01*
X94269115Y-52344557D01*
X94289597Y-52202100D01*
X95178303Y-52202100D01*
X95198784Y-52344556D01*
X95246196Y-52448371D01*
X95258573Y-52475473D01*
X95352822Y-52584243D01*
X95473897Y-52662053D01*
X95473900Y-52662054D01*
X95473899Y-52662054D01*
X95611986Y-52702599D01*
X95611988Y-52702600D01*
X95611989Y-52702600D01*
X95755912Y-52702600D01*
X95755912Y-52702599D01*
X95894003Y-52662053D01*
X96015078Y-52584243D01*
X96109327Y-52475473D01*
X96169115Y-52344557D01*
X96189597Y-52202100D01*
X96185701Y-52175000D01*
X115494353Y-52175000D01*
X115514834Y-52317456D01*
X115527211Y-52344557D01*
X115574623Y-52448373D01*
X115668872Y-52557143D01*
X115789947Y-52634953D01*
X115789950Y-52634954D01*
X115789949Y-52634954D01*
X115928036Y-52675499D01*
X115928038Y-52675500D01*
X115928039Y-52675500D01*
X116071962Y-52675500D01*
X116071962Y-52675499D01*
X116210053Y-52634953D01*
X116331128Y-52557143D01*
X116425377Y-52448373D01*
X116485165Y-52317457D01*
X116505647Y-52175000D01*
X116485165Y-52032543D01*
X116425377Y-51901627D01*
X116331128Y-51792857D01*
X116210053Y-51715047D01*
X116210051Y-51715046D01*
X116210049Y-51715045D01*
X116210050Y-51715045D01*
X116071963Y-51674500D01*
X116071961Y-51674500D01*
X115928039Y-51674500D01*
X115928036Y-51674500D01*
X115789949Y-51715045D01*
X115668873Y-51792856D01*
X115574623Y-51901626D01*
X115574622Y-51901628D01*
X115514834Y-52032543D01*
X115494353Y-52175000D01*
X96185701Y-52175000D01*
X96169115Y-52059643D01*
X96109327Y-51928727D01*
X96015078Y-51819957D01*
X95894003Y-51742147D01*
X95894001Y-51742146D01*
X95893999Y-51742145D01*
X95894000Y-51742145D01*
X95755913Y-51701600D01*
X95755911Y-51701600D01*
X95611989Y-51701600D01*
X95611986Y-51701600D01*
X95473899Y-51742145D01*
X95352823Y-51819956D01*
X95258573Y-51928726D01*
X95258572Y-51928728D01*
X95198784Y-52059643D01*
X95178303Y-52202100D01*
X94289597Y-52202100D01*
X94269115Y-52059643D01*
X94209327Y-51928727D01*
X94115078Y-51819957D01*
X93994003Y-51742147D01*
X93994001Y-51742146D01*
X93993999Y-51742145D01*
X93994000Y-51742145D01*
X93855913Y-51701600D01*
X93855911Y-51701600D01*
X93711989Y-51701600D01*
X93711986Y-51701600D01*
X93573899Y-51742145D01*
X93452823Y-51819956D01*
X93358573Y-51928726D01*
X93358572Y-51928728D01*
X93298784Y-52059643D01*
X93278303Y-52202100D01*
X87100000Y-52202100D01*
X87100000Y-51116700D01*
X99743503Y-51116700D01*
X99763984Y-51259156D01*
X99823772Y-51390071D01*
X99823773Y-51390073D01*
X99918022Y-51498843D01*
X100039097Y-51576653D01*
X100039100Y-51576654D01*
X100039099Y-51576654D01*
X100177186Y-51617199D01*
X100177188Y-51617200D01*
X100177189Y-51617200D01*
X100321112Y-51617200D01*
X100321112Y-51617199D01*
X100459203Y-51576653D01*
X100580278Y-51498843D01*
X100674527Y-51390073D01*
X100734315Y-51259157D01*
X100754797Y-51116700D01*
X100734315Y-50974243D01*
X100674527Y-50843327D01*
X100580278Y-50734557D01*
X100459203Y-50656747D01*
X100459201Y-50656746D01*
X100459199Y-50656745D01*
X100459200Y-50656745D01*
X100321113Y-50616200D01*
X100321111Y-50616200D01*
X100177189Y-50616200D01*
X100177186Y-50616200D01*
X100039099Y-50656745D01*
X99918023Y-50734556D01*
X99823773Y-50843326D01*
X99823772Y-50843328D01*
X99763984Y-50974243D01*
X99743503Y-51116700D01*
X87100000Y-51116700D01*
X87100000Y-50262500D01*
X107994353Y-50262500D01*
X108014834Y-50404956D01*
X108046015Y-50473231D01*
X108074623Y-50535873D01*
X108168872Y-50644643D01*
X108289947Y-50722453D01*
X108289950Y-50722454D01*
X108289949Y-50722454D01*
X108428036Y-50762999D01*
X108428038Y-50763000D01*
X108428039Y-50763000D01*
X108571962Y-50763000D01*
X108571962Y-50762999D01*
X108710053Y-50722453D01*
X108831128Y-50644643D01*
X108925377Y-50535873D01*
X108985165Y-50404957D01*
X109005647Y-50262500D01*
X108985165Y-50120043D01*
X108925377Y-49989127D01*
X108831128Y-49880357D01*
X108710053Y-49802547D01*
X108710051Y-49802546D01*
X108710049Y-49802545D01*
X108710050Y-49802545D01*
X108571963Y-49762000D01*
X108571961Y-49762000D01*
X108428039Y-49762000D01*
X108428036Y-49762000D01*
X108289949Y-49802545D01*
X108168873Y-49880356D01*
X108074623Y-49989126D01*
X108074622Y-49989128D01*
X108014834Y-50120043D01*
X107994353Y-50262500D01*
X87100000Y-50262500D01*
X87100000Y-49127100D01*
X93278303Y-49127100D01*
X93298784Y-49269556D01*
X93324266Y-49325353D01*
X93358573Y-49400473D01*
X93452822Y-49509243D01*
X93573897Y-49587053D01*
X93573900Y-49587054D01*
X93573899Y-49587054D01*
X93711986Y-49627599D01*
X93711988Y-49627600D01*
X93711989Y-49627600D01*
X93855912Y-49627600D01*
X93855912Y-49627599D01*
X93994003Y-49587053D01*
X94115078Y-49509243D01*
X94209327Y-49400473D01*
X94269115Y-49269557D01*
X94289597Y-49127100D01*
X95178303Y-49127100D01*
X95198784Y-49269556D01*
X95224266Y-49325353D01*
X95258573Y-49400473D01*
X95352822Y-49509243D01*
X95473897Y-49587053D01*
X95473900Y-49587054D01*
X95473899Y-49587054D01*
X95611986Y-49627599D01*
X95611988Y-49627600D01*
X95611989Y-49627600D01*
X95755912Y-49627600D01*
X95755912Y-49627599D01*
X95894003Y-49587053D01*
X96015078Y-49509243D01*
X96109327Y-49400473D01*
X96169115Y-49269557D01*
X96189597Y-49127100D01*
X96169115Y-48984643D01*
X96114658Y-48865400D01*
X99743503Y-48865400D01*
X99763984Y-49007856D01*
X99818442Y-49127100D01*
X99823773Y-49138773D01*
X99918022Y-49247543D01*
X100039097Y-49325353D01*
X100039100Y-49325354D01*
X100039099Y-49325354D01*
X100177186Y-49365899D01*
X100177188Y-49365900D01*
X100177189Y-49365900D01*
X100321112Y-49365900D01*
X100321112Y-49365899D01*
X100459203Y-49325353D01*
X100580278Y-49247543D01*
X100674527Y-49138773D01*
X100734315Y-49007857D01*
X100754797Y-48865400D01*
X100734315Y-48722943D01*
X100674527Y-48592027D01*
X100580278Y-48483257D01*
X100459203Y-48405447D01*
X100459201Y-48405446D01*
X100459199Y-48405445D01*
X100459200Y-48405445D01*
X100321113Y-48364900D01*
X100321111Y-48364900D01*
X100177189Y-48364900D01*
X100177186Y-48364900D01*
X100039099Y-48405445D01*
X99918023Y-48483256D01*
X99823773Y-48592026D01*
X99823772Y-48592028D01*
X99763984Y-48722943D01*
X99743503Y-48865400D01*
X96114658Y-48865400D01*
X96109327Y-48853727D01*
X96015078Y-48744957D01*
X95894003Y-48667147D01*
X95894001Y-48667146D01*
X95893999Y-48667145D01*
X95894000Y-48667145D01*
X95755913Y-48626600D01*
X95755911Y-48626600D01*
X95611989Y-48626600D01*
X95611986Y-48626600D01*
X95473899Y-48667145D01*
X95352823Y-48744956D01*
X95258573Y-48853726D01*
X95258572Y-48853728D01*
X95198784Y-48984643D01*
X95178303Y-49127100D01*
X94289597Y-49127100D01*
X94269115Y-48984643D01*
X94209327Y-48853727D01*
X94115078Y-48744957D01*
X93994003Y-48667147D01*
X93994001Y-48667146D01*
X93993999Y-48667145D01*
X93994000Y-48667145D01*
X93855913Y-48626600D01*
X93855911Y-48626600D01*
X93711989Y-48626600D01*
X93711986Y-48626600D01*
X93573899Y-48667145D01*
X93452823Y-48744956D01*
X93358573Y-48853726D01*
X93358572Y-48853728D01*
X93298784Y-48984643D01*
X93278303Y-49127100D01*
X87100000Y-49127100D01*
X87100000Y-48800000D01*
X86524000Y-48800000D01*
X86456961Y-48780315D01*
X86411206Y-48727511D01*
X86400000Y-48676000D01*
X86400000Y-47211501D01*
X86419685Y-47144462D01*
X86472489Y-47098707D01*
X86524000Y-47087501D01*
X96700000Y-47087501D01*
X96700000Y-45722501D01*
X104994353Y-45722501D01*
X105014834Y-45864957D01*
X105074622Y-45995872D01*
X105074623Y-45995874D01*
X105168872Y-46104644D01*
X105289947Y-46182454D01*
X105289950Y-46182455D01*
X105289949Y-46182455D01*
X105428036Y-46223000D01*
X105428038Y-46223001D01*
X105428039Y-46223001D01*
X105571962Y-46223001D01*
X105571962Y-46223000D01*
X105710053Y-46182454D01*
X105831128Y-46104644D01*
X105925377Y-45995874D01*
X105985165Y-45864958D01*
X106005647Y-45722501D01*
X105985165Y-45580044D01*
X105925377Y-45449128D01*
X105831128Y-45340358D01*
X105710053Y-45262548D01*
X105710051Y-45262547D01*
X105710049Y-45262546D01*
X105710050Y-45262546D01*
X105571963Y-45222001D01*
X105571961Y-45222001D01*
X105428039Y-45222001D01*
X105428036Y-45222001D01*
X105289949Y-45262546D01*
X105168873Y-45340357D01*
X105074623Y-45449127D01*
X105074622Y-45449129D01*
X105014834Y-45580044D01*
X104994353Y-45722501D01*
X96700000Y-45722501D01*
X96700000Y-44499999D01*
X113794357Y-44499999D01*
X113794357Y-44500000D01*
X113814884Y-44721535D01*
X113814885Y-44721537D01*
X113875769Y-44935523D01*
X113875775Y-44935538D01*
X113974938Y-45134683D01*
X113974943Y-45134691D01*
X114109020Y-45312238D01*
X114273437Y-45462123D01*
X114273439Y-45462125D01*
X114462595Y-45579245D01*
X114462596Y-45579245D01*
X114462599Y-45579247D01*
X114670060Y-45659618D01*
X114888757Y-45700500D01*
X114888759Y-45700500D01*
X115111241Y-45700500D01*
X115111243Y-45700500D01*
X115329940Y-45659618D01*
X115537401Y-45579247D01*
X115726562Y-45462124D01*
X115890981Y-45312236D01*
X116025058Y-45134689D01*
X116124229Y-44935528D01*
X116185115Y-44721536D01*
X116205643Y-44500000D01*
X116185115Y-44278464D01*
X116124229Y-44064472D01*
X116124224Y-44064461D01*
X116025061Y-43865316D01*
X116025056Y-43865308D01*
X115890979Y-43687761D01*
X115726562Y-43537876D01*
X115726560Y-43537874D01*
X115537404Y-43420754D01*
X115537398Y-43420752D01*
X115329940Y-43340382D01*
X115111243Y-43299500D01*
X114888757Y-43299500D01*
X114670060Y-43340382D01*
X114538864Y-43391207D01*
X114462601Y-43420752D01*
X114462595Y-43420754D01*
X114273439Y-43537874D01*
X114273437Y-43537876D01*
X114109020Y-43687761D01*
X113974943Y-43865308D01*
X113974938Y-43865316D01*
X113875775Y-44064461D01*
X113875769Y-44064476D01*
X113814885Y-44278462D01*
X113814884Y-44278464D01*
X113794357Y-44499999D01*
X96700000Y-44499999D01*
X96700000Y-44387501D01*
X86200000Y-44387501D01*
X86200000Y-45076000D01*
X86180315Y-45143039D01*
X86127511Y-45188794D01*
X86076000Y-45200000D01*
X83700000Y-45200000D01*
X83700000Y-47776000D01*
X83680315Y-47843039D01*
X83627511Y-47888794D01*
X83576000Y-47900000D01*
X73600000Y-47900000D01*
X53000000Y-47900000D01*
X53000000Y-38668610D01*
X54795500Y-38668610D01*
X54795500Y-38931389D01*
X54815066Y-39080000D01*
X54829798Y-39191898D01*
X54897806Y-39445708D01*
X54897807Y-39445711D01*
X54897809Y-39445717D01*
X54998359Y-39688466D01*
X54998364Y-39688477D01*
X55051206Y-39780000D01*
X55129743Y-39916030D01*
X55129745Y-39916033D01*
X55129746Y-39916034D01*
X55289701Y-40124493D01*
X55289707Y-40124500D01*
X55475499Y-40310292D01*
X55475506Y-40310298D01*
X55543049Y-40362125D01*
X55683970Y-40470257D01*
X55797986Y-40536084D01*
X55911522Y-40601635D01*
X55911527Y-40601637D01*
X55911530Y-40601639D01*
X56154292Y-40702194D01*
X56408102Y-40770202D01*
X56668618Y-40804500D01*
X56668625Y-40804500D01*
X56931375Y-40804500D01*
X56931382Y-40804500D01*
X57191898Y-40770202D01*
X57445708Y-40702194D01*
X57688470Y-40601639D01*
X57916030Y-40470257D01*
X58124495Y-40310297D01*
X58234793Y-40199999D01*
X82665202Y-40199999D01*
X82665202Y-40200000D01*
X82684353Y-40406676D01*
X82741158Y-40606327D01*
X82833673Y-40792123D01*
X82833681Y-40792136D01*
X82838254Y-40798191D01*
X83372356Y-40264089D01*
X83398622Y-40362114D01*
X83453916Y-40457886D01*
X83532114Y-40536084D01*
X83627886Y-40591378D01*
X83725909Y-40617642D01*
X83194785Y-41148767D01*
X83194785Y-41148768D01*
X83288625Y-41206872D01*
X83288634Y-41206877D01*
X83482186Y-41281859D01*
X83686219Y-41320000D01*
X83893781Y-41320000D01*
X84094125Y-41282549D01*
X84163640Y-41289580D01*
X84218319Y-41333078D01*
X84240801Y-41399231D01*
X84240130Y-41418321D01*
X84234308Y-41469995D01*
X84234308Y-41470004D01*
X84240130Y-41521678D01*
X84228075Y-41590500D01*
X84180726Y-41641879D01*
X84113116Y-41659503D01*
X84094126Y-41657450D01*
X83893782Y-41620000D01*
X83686219Y-41620000D01*
X83482186Y-41658140D01*
X83482185Y-41658140D01*
X83288634Y-41733121D01*
X83288633Y-41733122D01*
X83194784Y-41791231D01*
X83725909Y-42322356D01*
X83627886Y-42348622D01*
X83532114Y-42403916D01*
X83453916Y-42482114D01*
X83398622Y-42577886D01*
X83372356Y-42675909D01*
X82838254Y-42141807D01*
X82838253Y-42141808D01*
X82833679Y-42147866D01*
X82833675Y-42147872D01*
X82741158Y-42333672D01*
X82684353Y-42533323D01*
X82665202Y-42739999D01*
X82665202Y-42740000D01*
X82684353Y-42946676D01*
X82741158Y-43146327D01*
X82833673Y-43332123D01*
X82833681Y-43332136D01*
X82838254Y-43338191D01*
X83372356Y-42804089D01*
X83398622Y-42902114D01*
X83453916Y-42997886D01*
X83532114Y-43076084D01*
X83627886Y-43131378D01*
X83725909Y-43157643D01*
X83194785Y-43688767D01*
X83194785Y-43688768D01*
X83288625Y-43746872D01*
X83288634Y-43746877D01*
X83482186Y-43821859D01*
X83686219Y-43860000D01*
X83893781Y-43860000D01*
X84097813Y-43821859D01*
X84097814Y-43821859D01*
X84291370Y-43746875D01*
X84385214Y-43688768D01*
X84385214Y-43688767D01*
X83854090Y-43157642D01*
X83952114Y-43131378D01*
X84047886Y-43076084D01*
X84126084Y-42997886D01*
X84181378Y-42902114D01*
X84207643Y-42804089D01*
X84741744Y-43338190D01*
X84741745Y-43338190D01*
X84746324Y-43332127D01*
X84746326Y-43332124D01*
X84838840Y-43146330D01*
X84838841Y-43146329D01*
X84895646Y-42946676D01*
X84914798Y-42740000D01*
X84914798Y-42739999D01*
X84895646Y-42533319D01*
X84895645Y-42533316D01*
X84870958Y-42446548D01*
X84871545Y-42376681D01*
X84909812Y-42318222D01*
X84973609Y-42289732D01*
X85004104Y-42289394D01*
X85050511Y-42294622D01*
X85059999Y-42295692D01*
X85060000Y-42295692D01*
X85060001Y-42295692D01*
X85068111Y-42294778D01*
X85115892Y-42289394D01*
X85184712Y-42301448D01*
X85236092Y-42348796D01*
X85253717Y-42416406D01*
X85249042Y-42446547D01*
X85224353Y-42533321D01*
X85205202Y-42739999D01*
X85205202Y-42740000D01*
X85224353Y-42946676D01*
X85281158Y-43146327D01*
X85373673Y-43332123D01*
X85373681Y-43332136D01*
X85378254Y-43338191D01*
X85912356Y-42804089D01*
X85938622Y-42902114D01*
X85993916Y-42997886D01*
X86072114Y-43076084D01*
X86167886Y-43131378D01*
X86265909Y-43157643D01*
X85734785Y-43688767D01*
X85734785Y-43688768D01*
X85828625Y-43746872D01*
X85828634Y-43746877D01*
X86022186Y-43821859D01*
X86226219Y-43860000D01*
X86433781Y-43860000D01*
X86637813Y-43821859D01*
X86637814Y-43821859D01*
X86831370Y-43746875D01*
X86925214Y-43688768D01*
X86925214Y-43688767D01*
X86394090Y-43157642D01*
X86492114Y-43131378D01*
X86587886Y-43076084D01*
X86666084Y-42997886D01*
X86721378Y-42902114D01*
X86747642Y-42804090D01*
X87281744Y-43338190D01*
X87281745Y-43338190D01*
X87286324Y-43332127D01*
X87286326Y-43332124D01*
X87378840Y-43146330D01*
X87378841Y-43146329D01*
X87435646Y-42946676D01*
X87448080Y-42812501D01*
X96244353Y-42812501D01*
X96264834Y-42954957D01*
X96313205Y-43060872D01*
X96324623Y-43085874D01*
X96418872Y-43194644D01*
X96539947Y-43272454D01*
X96539950Y-43272455D01*
X96539949Y-43272455D01*
X96678036Y-43313000D01*
X96678038Y-43313001D01*
X96678039Y-43313001D01*
X96821962Y-43313001D01*
X96821962Y-43313000D01*
X96960053Y-43272454D01*
X97081128Y-43194644D01*
X97175377Y-43085874D01*
X97235165Y-42954958D01*
X97255647Y-42812501D01*
X97252053Y-42787501D01*
X100244353Y-42787501D01*
X100264834Y-42929957D01*
X100280819Y-42964958D01*
X100324623Y-43060874D01*
X100418872Y-43169644D01*
X100539947Y-43247454D01*
X100539950Y-43247455D01*
X100539949Y-43247455D01*
X100647107Y-43278918D01*
X100659147Y-43282454D01*
X100678036Y-43288000D01*
X100678038Y-43288001D01*
X100678039Y-43288001D01*
X100821962Y-43288001D01*
X100821962Y-43288000D01*
X100960053Y-43247454D01*
X101081128Y-43169644D01*
X101175377Y-43060874D01*
X101235165Y-42929958D01*
X101250615Y-42822501D01*
X106244353Y-42822501D01*
X106264834Y-42964957D01*
X106308638Y-43060872D01*
X106324623Y-43095874D01*
X106418872Y-43204644D01*
X106539947Y-43282454D01*
X106539950Y-43282455D01*
X106539949Y-43282455D01*
X106678036Y-43323000D01*
X106678038Y-43323001D01*
X106678039Y-43323001D01*
X106821962Y-43323001D01*
X106821962Y-43323000D01*
X106929121Y-43291536D01*
X106960050Y-43282455D01*
X106960050Y-43282454D01*
X106960053Y-43282454D01*
X107081128Y-43204644D01*
X107175377Y-43095874D01*
X107235165Y-42964958D01*
X107255647Y-42822501D01*
X107252053Y-42797501D01*
X108974353Y-42797501D01*
X108994834Y-42939957D01*
X109006252Y-42964958D01*
X109054623Y-43070874D01*
X109148872Y-43179644D01*
X109269947Y-43257454D01*
X109269950Y-43257455D01*
X109269949Y-43257455D01*
X109408036Y-43298000D01*
X109408038Y-43298001D01*
X109408039Y-43298001D01*
X109551962Y-43298001D01*
X109551962Y-43298000D01*
X109690053Y-43257454D01*
X109811128Y-43179644D01*
X109905377Y-43070874D01*
X109965165Y-42939958D01*
X109985647Y-42797501D01*
X109965165Y-42655044D01*
X109905377Y-42524128D01*
X109811128Y-42415358D01*
X109690053Y-42337548D01*
X109690051Y-42337547D01*
X109690049Y-42337546D01*
X109690050Y-42337546D01*
X109551963Y-42297001D01*
X109551961Y-42297001D01*
X109408039Y-42297001D01*
X109408036Y-42297001D01*
X109269949Y-42337546D01*
X109148873Y-42415357D01*
X109054623Y-42524127D01*
X109054622Y-42524129D01*
X108994834Y-42655044D01*
X108974353Y-42797501D01*
X107252053Y-42797501D01*
X107235165Y-42680044D01*
X107175377Y-42549128D01*
X107081128Y-42440358D01*
X106960053Y-42362548D01*
X106960051Y-42362547D01*
X106960049Y-42362546D01*
X106960050Y-42362546D01*
X106821963Y-42322001D01*
X106821961Y-42322001D01*
X106678039Y-42322001D01*
X106678036Y-42322001D01*
X106539949Y-42362546D01*
X106418873Y-42440357D01*
X106324623Y-42549127D01*
X106324622Y-42549129D01*
X106264834Y-42680044D01*
X106244353Y-42822501D01*
X101250615Y-42822501D01*
X101255647Y-42787501D01*
X101235165Y-42645044D01*
X101175377Y-42514128D01*
X101081128Y-42405358D01*
X100960053Y-42327548D01*
X100960051Y-42327547D01*
X100960049Y-42327546D01*
X100960050Y-42327546D01*
X100821963Y-42287001D01*
X100821961Y-42287001D01*
X100678039Y-42287001D01*
X100678036Y-42287001D01*
X100539949Y-42327546D01*
X100418873Y-42405357D01*
X100324623Y-42514127D01*
X100324622Y-42514129D01*
X100264834Y-42645044D01*
X100244353Y-42787501D01*
X97252053Y-42787501D01*
X97235165Y-42670044D01*
X97175377Y-42539128D01*
X97081128Y-42430358D01*
X96960053Y-42352548D01*
X96960051Y-42352547D01*
X96960049Y-42352546D01*
X96960050Y-42352546D01*
X96821963Y-42312001D01*
X96821961Y-42312001D01*
X96678039Y-42312001D01*
X96678036Y-42312001D01*
X96539949Y-42352546D01*
X96418873Y-42430357D01*
X96324623Y-42539127D01*
X96324622Y-42539129D01*
X96264834Y-42670044D01*
X96244353Y-42812501D01*
X87448080Y-42812501D01*
X87454798Y-42740000D01*
X87454798Y-42739999D01*
X87435646Y-42533323D01*
X87378841Y-42333670D01*
X87378840Y-42333669D01*
X87286328Y-42147879D01*
X87286324Y-42147873D01*
X87281744Y-42141808D01*
X86747642Y-42675909D01*
X86721378Y-42577886D01*
X86666084Y-42482114D01*
X86587886Y-42403916D01*
X86492114Y-42348622D01*
X86394089Y-42322356D01*
X86925214Y-41791231D01*
X86925213Y-41791229D01*
X86831374Y-41733126D01*
X86637813Y-41658140D01*
X86433781Y-41620000D01*
X86226218Y-41620000D01*
X86025873Y-41657450D01*
X85956358Y-41650419D01*
X85901680Y-41606921D01*
X85879198Y-41540767D01*
X85879869Y-41521676D01*
X85885692Y-41470000D01*
X85885692Y-41469998D01*
X85879869Y-41418323D01*
X85891923Y-41349501D01*
X85939271Y-41298121D01*
X86006882Y-41280496D01*
X86025874Y-41282549D01*
X86226219Y-41320000D01*
X86433781Y-41320000D01*
X86637813Y-41281859D01*
X86637814Y-41281859D01*
X86831370Y-41206875D01*
X86925214Y-41148768D01*
X86925214Y-41148767D01*
X86394090Y-40617643D01*
X86492114Y-40591378D01*
X86587886Y-40536084D01*
X86666084Y-40457886D01*
X86721378Y-40362114D01*
X86747643Y-40264090D01*
X87281744Y-40798190D01*
X87281745Y-40798190D01*
X87286324Y-40792127D01*
X87286326Y-40792124D01*
X87378840Y-40606330D01*
X87378841Y-40606329D01*
X87435646Y-40406676D01*
X87454798Y-40200000D01*
X87454798Y-40199999D01*
X87435646Y-39993323D01*
X87378841Y-39793670D01*
X87378840Y-39793669D01*
X87286328Y-39607879D01*
X87286324Y-39607873D01*
X87281744Y-39601808D01*
X86747643Y-40135909D01*
X86721378Y-40037886D01*
X86666084Y-39942114D01*
X86587886Y-39863916D01*
X86492114Y-39808622D01*
X86394089Y-39782356D01*
X86776446Y-39399999D01*
X102794357Y-39399999D01*
X102794357Y-39400000D01*
X102814884Y-39621535D01*
X102814885Y-39621537D01*
X102875769Y-39835523D01*
X102875775Y-39835538D01*
X102974938Y-40034683D01*
X102974943Y-40034691D01*
X103109020Y-40212238D01*
X103273437Y-40362123D01*
X103273439Y-40362125D01*
X103462595Y-40479245D01*
X103462596Y-40479245D01*
X103462599Y-40479247D01*
X103670060Y-40559618D01*
X103888757Y-40600500D01*
X103888759Y-40600500D01*
X104111241Y-40600500D01*
X104111243Y-40600500D01*
X104329940Y-40559618D01*
X104537401Y-40479247D01*
X104726562Y-40362124D01*
X104890981Y-40212236D01*
X105025058Y-40034689D01*
X105124229Y-39835528D01*
X105185115Y-39621536D01*
X105205643Y-39400000D01*
X105185115Y-39178464D01*
X105124229Y-38964472D01*
X105107756Y-38931389D01*
X105025061Y-38765316D01*
X105025056Y-38765308D01*
X104952033Y-38668610D01*
X117195500Y-38668610D01*
X117195500Y-38931389D01*
X117215066Y-39080000D01*
X117229798Y-39191898D01*
X117297806Y-39445708D01*
X117297807Y-39445711D01*
X117297809Y-39445717D01*
X117398359Y-39688466D01*
X117398364Y-39688477D01*
X117451206Y-39780000D01*
X117529743Y-39916030D01*
X117529745Y-39916033D01*
X117529746Y-39916034D01*
X117689701Y-40124493D01*
X117689707Y-40124500D01*
X117875499Y-40310292D01*
X117875506Y-40310298D01*
X117943049Y-40362125D01*
X118083970Y-40470257D01*
X118197986Y-40536084D01*
X118311522Y-40601635D01*
X118311527Y-40601637D01*
X118311530Y-40601639D01*
X118554292Y-40702194D01*
X118808102Y-40770202D01*
X119068618Y-40804500D01*
X119068625Y-40804500D01*
X119331375Y-40804500D01*
X119331382Y-40804500D01*
X119591898Y-40770202D01*
X119845708Y-40702194D01*
X120088470Y-40601639D01*
X120316030Y-40470257D01*
X120524495Y-40310297D01*
X120710297Y-40124495D01*
X120870257Y-39916030D01*
X121001639Y-39688470D01*
X121102194Y-39445708D01*
X121170202Y-39191898D01*
X121204500Y-38931382D01*
X121204500Y-38668618D01*
X121170202Y-38408102D01*
X121102194Y-38154292D01*
X121001639Y-37911530D01*
X121001637Y-37911527D01*
X121001635Y-37911522D01*
X120954696Y-37830223D01*
X120870257Y-37683970D01*
X120710297Y-37475505D01*
X120710292Y-37475499D01*
X120524500Y-37289707D01*
X120524493Y-37289701D01*
X120316034Y-37129746D01*
X120316033Y-37129745D01*
X120316030Y-37129743D01*
X120225303Y-37077362D01*
X120088477Y-36998364D01*
X120088466Y-36998359D01*
X119845717Y-36897809D01*
X119845711Y-36897807D01*
X119845708Y-36897806D01*
X119591898Y-36829798D01*
X119534005Y-36822176D01*
X119331389Y-36795500D01*
X119331382Y-36795500D01*
X119068618Y-36795500D01*
X119068610Y-36795500D01*
X118837048Y-36825987D01*
X118808102Y-36829798D01*
X118554292Y-36897806D01*
X118554290Y-36897806D01*
X118554282Y-36897809D01*
X118311533Y-36998359D01*
X118311522Y-36998364D01*
X118083965Y-37129746D01*
X117875506Y-37289701D01*
X117875499Y-37289707D01*
X117689707Y-37475499D01*
X117689701Y-37475506D01*
X117529746Y-37683965D01*
X117398364Y-37911522D01*
X117398359Y-37911533D01*
X117297809Y-38154282D01*
X117297806Y-38154290D01*
X117297806Y-38154292D01*
X117253204Y-38320752D01*
X117229798Y-38408103D01*
X117195500Y-38668610D01*
X104952033Y-38668610D01*
X104890979Y-38587761D01*
X104726562Y-38437876D01*
X104726560Y-38437874D01*
X104537404Y-38320754D01*
X104537398Y-38320752D01*
X104329940Y-38240382D01*
X104111243Y-38199500D01*
X103888757Y-38199500D01*
X103670060Y-38240382D01*
X103538864Y-38291207D01*
X103462601Y-38320752D01*
X103462595Y-38320754D01*
X103273439Y-38437874D01*
X103273437Y-38437876D01*
X103109020Y-38587761D01*
X102974943Y-38765308D01*
X102974938Y-38765316D01*
X102875775Y-38964461D01*
X102875769Y-38964476D01*
X102814885Y-39178462D01*
X102814884Y-39178464D01*
X102794357Y-39399999D01*
X86776446Y-39399999D01*
X86925214Y-39251231D01*
X86925213Y-39251229D01*
X86831374Y-39193126D01*
X86637813Y-39118140D01*
X86433781Y-39080000D01*
X86226219Y-39080000D01*
X86022186Y-39118140D01*
X86022185Y-39118140D01*
X85828634Y-39193121D01*
X85828633Y-39193122D01*
X85734784Y-39251231D01*
X86265910Y-39782356D01*
X86167886Y-39808622D01*
X86072114Y-39863916D01*
X85993916Y-39942114D01*
X85938622Y-40037886D01*
X85912356Y-40135909D01*
X85378254Y-39601807D01*
X85378253Y-39601808D01*
X85373679Y-39607866D01*
X85373675Y-39607872D01*
X85281158Y-39793672D01*
X85224353Y-39993323D01*
X85205202Y-40199999D01*
X85205202Y-40200000D01*
X85224353Y-40406678D01*
X85249042Y-40493452D01*
X85248454Y-40563319D01*
X85210187Y-40621778D01*
X85146389Y-40650267D01*
X85115892Y-40650605D01*
X85060004Y-40644308D01*
X85059996Y-40644308D01*
X85004106Y-40650605D01*
X84935284Y-40638550D01*
X84883905Y-40591201D01*
X84866281Y-40523591D01*
X84870957Y-40493450D01*
X84895646Y-40406679D01*
X84914798Y-40200000D01*
X84914798Y-40199999D01*
X84895646Y-39993323D01*
X84838841Y-39793670D01*
X84838840Y-39793669D01*
X84746328Y-39607879D01*
X84746324Y-39607873D01*
X84741744Y-39601808D01*
X84207642Y-40135909D01*
X84181378Y-40037886D01*
X84126084Y-39942114D01*
X84047886Y-39863916D01*
X83952114Y-39808622D01*
X83854089Y-39782356D01*
X84385214Y-39251231D01*
X84385213Y-39251229D01*
X84291374Y-39193126D01*
X84097813Y-39118140D01*
X83893781Y-39080000D01*
X83686219Y-39080000D01*
X83482186Y-39118140D01*
X83482185Y-39118140D01*
X83288634Y-39193121D01*
X83288633Y-39193122D01*
X83194784Y-39251231D01*
X83725910Y-39782356D01*
X83627886Y-39808622D01*
X83532114Y-39863916D01*
X83453916Y-39942114D01*
X83398622Y-40037886D01*
X83372356Y-40135909D01*
X82838254Y-39601807D01*
X82838253Y-39601808D01*
X82833679Y-39607866D01*
X82833675Y-39607872D01*
X82741158Y-39793672D01*
X82684353Y-39993323D01*
X82665202Y-40199999D01*
X58234793Y-40199999D01*
X58310297Y-40124495D01*
X58470257Y-39916030D01*
X58601639Y-39688470D01*
X58702194Y-39445708D01*
X58770202Y-39191898D01*
X58804500Y-38931382D01*
X58804500Y-38668618D01*
X58770202Y-38408102D01*
X58702194Y-38154292D01*
X58601639Y-37911530D01*
X58601637Y-37911527D01*
X58601635Y-37911522D01*
X58554696Y-37830223D01*
X58470257Y-37683970D01*
X58310297Y-37475505D01*
X58310292Y-37475499D01*
X58124500Y-37289707D01*
X58124493Y-37289701D01*
X57916034Y-37129746D01*
X57916033Y-37129745D01*
X57916030Y-37129743D01*
X57825303Y-37077362D01*
X57688477Y-36998364D01*
X57688466Y-36998359D01*
X57445717Y-36897809D01*
X57445711Y-36897807D01*
X57445708Y-36897806D01*
X57191898Y-36829798D01*
X57134005Y-36822176D01*
X56931389Y-36795500D01*
X56931382Y-36795500D01*
X56668618Y-36795500D01*
X56668610Y-36795500D01*
X56437048Y-36825987D01*
X56408102Y-36829798D01*
X56154292Y-36897806D01*
X56154290Y-36897806D01*
X56154282Y-36897809D01*
X55911533Y-36998359D01*
X55911522Y-36998364D01*
X55683965Y-37129746D01*
X55475506Y-37289701D01*
X55475499Y-37289707D01*
X55289707Y-37475499D01*
X55289701Y-37475506D01*
X55129746Y-37683965D01*
X54998364Y-37911522D01*
X54998359Y-37911533D01*
X54897809Y-38154282D01*
X54897806Y-38154290D01*
X54897806Y-38154292D01*
X54853204Y-38320752D01*
X54829798Y-38408103D01*
X54795500Y-38668610D01*
X53000000Y-38668610D01*
X53000000Y-35124000D01*
X53019685Y-35056961D01*
X53072489Y-35011206D01*
X53124000Y-35000000D01*
X122876000Y-35000000D01*
X122943039Y-35019685D01*
G37*
G04 #@! TD.AperFunction*
M02*
