G04 #@! TF.GenerationSoftware,KiCad,Pcbnew,8.0.2-8.0.2-0~ubuntu22.04.1*
G04 #@! TF.CreationDate,2024-06-03T16:53:01-05:00*
G04 #@! TF.ProjectId,peak-holder,7065616b-2d68-46f6-9c64-65722e6b6963,rev?*
G04 #@! TF.SameCoordinates,Original*
G04 #@! TF.FileFunction,Legend,Bot*
G04 #@! TF.FilePolarity,Positive*
%FSLAX46Y46*%
G04 Gerber Fmt 4.6, Leading zero omitted, Abs format (unit mm)*
G04 Created by KiCad (PCBNEW 8.0.2-8.0.2-0~ubuntu22.04.1) date 2024-06-03 16:53:01*
%MOMM*%
%LPD*%
G01*
G04 APERTURE LIST*
G04 Aperture macros list*
%AMRoundRect*
0 Rectangle with rounded corners*
0 $1 Rounding radius*
0 $2 $3 $4 $5 $6 $7 $8 $9 X,Y pos of 4 corners*
0 Add a 4 corners polygon primitive as box body*
4,1,4,$2,$3,$4,$5,$6,$7,$8,$9,$2,$3,0*
0 Add four circle primitives for the rounded corners*
1,1,$1+$1,$2,$3*
1,1,$1+$1,$4,$5*
1,1,$1+$1,$6,$7*
1,1,$1+$1,$8,$9*
0 Add four rect primitives between the rounded corners*
20,1,$1+$1,$2,$3,$4,$5,0*
20,1,$1+$1,$4,$5,$6,$7,0*
20,1,$1+$1,$6,$7,$8,$9,0*
20,1,$1+$1,$8,$9,$2,$3,0*%
G04 Aperture macros list end*
%ADD10C,0.150000*%
%ADD11C,0.120000*%
%ADD12C,3.500000*%
%ADD13C,2.000000*%
%ADD14RoundRect,0.102000X-0.975000X0.975000X-0.975000X-0.975000X0.975000X-0.975000X0.975000X0.975000X0*%
%ADD15C,2.154000*%
%ADD16C,1.240000*%
%ADD17R,1.270000X1.270000*%
%ADD18C,1.270000*%
%ADD19RoundRect,0.250000X0.250000X0.475000X-0.250000X0.475000X-0.250000X-0.475000X0.250000X-0.475000X0*%
%ADD20RoundRect,0.250000X-0.650000X0.325000X-0.650000X-0.325000X0.650000X-0.325000X0.650000X0.325000X0*%
%ADD21RoundRect,0.250000X-0.250000X-0.475000X0.250000X-0.475000X0.250000X0.475000X-0.250000X0.475000X0*%
%ADD22RoundRect,0.250000X0.475000X-0.250000X0.475000X0.250000X-0.475000X0.250000X-0.475000X-0.250000X0*%
%ADD23RoundRect,0.250000X-0.325000X-0.650000X0.325000X-0.650000X0.325000X0.650000X-0.325000X0.650000X0*%
%ADD24RoundRect,0.250000X-0.475000X0.250000X-0.475000X-0.250000X0.475000X-0.250000X0.475000X0.250000X0*%
%ADD25RoundRect,0.250000X0.650000X-0.325000X0.650000X0.325000X-0.650000X0.325000X-0.650000X-0.325000X0*%
G04 APERTURE END LIST*
D10*
X108603908Y-58429580D02*
X108651527Y-58477200D01*
X108651527Y-58477200D02*
X108794384Y-58524819D01*
X108794384Y-58524819D02*
X108889622Y-58524819D01*
X108889622Y-58524819D02*
X109032479Y-58477200D01*
X109032479Y-58477200D02*
X109127717Y-58381961D01*
X109127717Y-58381961D02*
X109175336Y-58286723D01*
X109175336Y-58286723D02*
X109222955Y-58096247D01*
X109222955Y-58096247D02*
X109222955Y-57953390D01*
X109222955Y-57953390D02*
X109175336Y-57762914D01*
X109175336Y-57762914D02*
X109127717Y-57667676D01*
X109127717Y-57667676D02*
X109032479Y-57572438D01*
X109032479Y-57572438D02*
X108889622Y-57524819D01*
X108889622Y-57524819D02*
X108794384Y-57524819D01*
X108794384Y-57524819D02*
X108651527Y-57572438D01*
X108651527Y-57572438D02*
X108603908Y-57620057D01*
X108222955Y-57620057D02*
X108175336Y-57572438D01*
X108175336Y-57572438D02*
X108080098Y-57524819D01*
X108080098Y-57524819D02*
X107842003Y-57524819D01*
X107842003Y-57524819D02*
X107746765Y-57572438D01*
X107746765Y-57572438D02*
X107699146Y-57620057D01*
X107699146Y-57620057D02*
X107651527Y-57715295D01*
X107651527Y-57715295D02*
X107651527Y-57810533D01*
X107651527Y-57810533D02*
X107699146Y-57953390D01*
X107699146Y-57953390D02*
X108270574Y-58524819D01*
X108270574Y-58524819D02*
X107651527Y-58524819D01*
X107080098Y-57953390D02*
X107175336Y-57905771D01*
X107175336Y-57905771D02*
X107222955Y-57858152D01*
X107222955Y-57858152D02*
X107270574Y-57762914D01*
X107270574Y-57762914D02*
X107270574Y-57715295D01*
X107270574Y-57715295D02*
X107222955Y-57620057D01*
X107222955Y-57620057D02*
X107175336Y-57572438D01*
X107175336Y-57572438D02*
X107080098Y-57524819D01*
X107080098Y-57524819D02*
X106889622Y-57524819D01*
X106889622Y-57524819D02*
X106794384Y-57572438D01*
X106794384Y-57572438D02*
X106746765Y-57620057D01*
X106746765Y-57620057D02*
X106699146Y-57715295D01*
X106699146Y-57715295D02*
X106699146Y-57762914D01*
X106699146Y-57762914D02*
X106746765Y-57858152D01*
X106746765Y-57858152D02*
X106794384Y-57905771D01*
X106794384Y-57905771D02*
X106889622Y-57953390D01*
X106889622Y-57953390D02*
X107080098Y-57953390D01*
X107080098Y-57953390D02*
X107175336Y-58001009D01*
X107175336Y-58001009D02*
X107222955Y-58048628D01*
X107222955Y-58048628D02*
X107270574Y-58143866D01*
X107270574Y-58143866D02*
X107270574Y-58334342D01*
X107270574Y-58334342D02*
X107222955Y-58429580D01*
X107222955Y-58429580D02*
X107175336Y-58477200D01*
X107175336Y-58477200D02*
X107080098Y-58524819D01*
X107080098Y-58524819D02*
X106889622Y-58524819D01*
X106889622Y-58524819D02*
X106794384Y-58477200D01*
X106794384Y-58477200D02*
X106746765Y-58429580D01*
X106746765Y-58429580D02*
X106699146Y-58334342D01*
X106699146Y-58334342D02*
X106699146Y-58143866D01*
X106699146Y-58143866D02*
X106746765Y-58048628D01*
X106746765Y-58048628D02*
X106794384Y-58001009D01*
X106794384Y-58001009D02*
X106889622Y-57953390D01*
X71119580Y-53227143D02*
X71167200Y-53179524D01*
X71167200Y-53179524D02*
X71214819Y-53036667D01*
X71214819Y-53036667D02*
X71214819Y-52941429D01*
X71214819Y-52941429D02*
X71167200Y-52798572D01*
X71167200Y-52798572D02*
X71071961Y-52703334D01*
X71071961Y-52703334D02*
X70976723Y-52655715D01*
X70976723Y-52655715D02*
X70786247Y-52608096D01*
X70786247Y-52608096D02*
X70643390Y-52608096D01*
X70643390Y-52608096D02*
X70452914Y-52655715D01*
X70452914Y-52655715D02*
X70357676Y-52703334D01*
X70357676Y-52703334D02*
X70262438Y-52798572D01*
X70262438Y-52798572D02*
X70214819Y-52941429D01*
X70214819Y-52941429D02*
X70214819Y-53036667D01*
X70214819Y-53036667D02*
X70262438Y-53179524D01*
X70262438Y-53179524D02*
X70310057Y-53227143D01*
X71214819Y-54179524D02*
X71214819Y-53608096D01*
X71214819Y-53893810D02*
X70214819Y-53893810D01*
X70214819Y-53893810D02*
X70357676Y-53798572D01*
X70357676Y-53798572D02*
X70452914Y-53703334D01*
X70452914Y-53703334D02*
X70500533Y-53608096D01*
X70310057Y-54560477D02*
X70262438Y-54608096D01*
X70262438Y-54608096D02*
X70214819Y-54703334D01*
X70214819Y-54703334D02*
X70214819Y-54941429D01*
X70214819Y-54941429D02*
X70262438Y-55036667D01*
X70262438Y-55036667D02*
X70310057Y-55084286D01*
X70310057Y-55084286D02*
X70405295Y-55131905D01*
X70405295Y-55131905D02*
X70500533Y-55131905D01*
X70500533Y-55131905D02*
X70643390Y-55084286D01*
X70643390Y-55084286D02*
X71214819Y-54512858D01*
X71214819Y-54512858D02*
X71214819Y-55131905D01*
X69766666Y-62274581D02*
X69814285Y-62322201D01*
X69814285Y-62322201D02*
X69957142Y-62369820D01*
X69957142Y-62369820D02*
X70052380Y-62369820D01*
X70052380Y-62369820D02*
X70195237Y-62322201D01*
X70195237Y-62322201D02*
X70290475Y-62226962D01*
X70290475Y-62226962D02*
X70338094Y-62131724D01*
X70338094Y-62131724D02*
X70385713Y-61941248D01*
X70385713Y-61941248D02*
X70385713Y-61798391D01*
X70385713Y-61798391D02*
X70338094Y-61607915D01*
X70338094Y-61607915D02*
X70290475Y-61512677D01*
X70290475Y-61512677D02*
X70195237Y-61417439D01*
X70195237Y-61417439D02*
X70052380Y-61369820D01*
X70052380Y-61369820D02*
X69957142Y-61369820D01*
X69957142Y-61369820D02*
X69814285Y-61417439D01*
X69814285Y-61417439D02*
X69766666Y-61465058D01*
X69290475Y-62369820D02*
X69099999Y-62369820D01*
X69099999Y-62369820D02*
X69004761Y-62322201D01*
X69004761Y-62322201D02*
X68957142Y-62274581D01*
X68957142Y-62274581D02*
X68861904Y-62131724D01*
X68861904Y-62131724D02*
X68814285Y-61941248D01*
X68814285Y-61941248D02*
X68814285Y-61560296D01*
X68814285Y-61560296D02*
X68861904Y-61465058D01*
X68861904Y-61465058D02*
X68909523Y-61417439D01*
X68909523Y-61417439D02*
X69004761Y-61369820D01*
X69004761Y-61369820D02*
X69195237Y-61369820D01*
X69195237Y-61369820D02*
X69290475Y-61417439D01*
X69290475Y-61417439D02*
X69338094Y-61465058D01*
X69338094Y-61465058D02*
X69385713Y-61560296D01*
X69385713Y-61560296D02*
X69385713Y-61798391D01*
X69385713Y-61798391D02*
X69338094Y-61893629D01*
X69338094Y-61893629D02*
X69290475Y-61941248D01*
X69290475Y-61941248D02*
X69195237Y-61988867D01*
X69195237Y-61988867D02*
X69004761Y-61988867D01*
X69004761Y-61988867D02*
X68909523Y-61941248D01*
X68909523Y-61941248D02*
X68861904Y-61893629D01*
X68861904Y-61893629D02*
X68814285Y-61798391D01*
X81676666Y-47659581D02*
X81724285Y-47707201D01*
X81724285Y-47707201D02*
X81867142Y-47754820D01*
X81867142Y-47754820D02*
X81962380Y-47754820D01*
X81962380Y-47754820D02*
X82105237Y-47707201D01*
X82105237Y-47707201D02*
X82200475Y-47611962D01*
X82200475Y-47611962D02*
X82248094Y-47516724D01*
X82248094Y-47516724D02*
X82295713Y-47326248D01*
X82295713Y-47326248D02*
X82295713Y-47183391D01*
X82295713Y-47183391D02*
X82248094Y-46992915D01*
X82248094Y-46992915D02*
X82200475Y-46897677D01*
X82200475Y-46897677D02*
X82105237Y-46802439D01*
X82105237Y-46802439D02*
X81962380Y-46754820D01*
X81962380Y-46754820D02*
X81867142Y-46754820D01*
X81867142Y-46754820D02*
X81724285Y-46802439D01*
X81724285Y-46802439D02*
X81676666Y-46850058D01*
X80819523Y-46754820D02*
X81009999Y-46754820D01*
X81009999Y-46754820D02*
X81105237Y-46802439D01*
X81105237Y-46802439D02*
X81152856Y-46850058D01*
X81152856Y-46850058D02*
X81248094Y-46992915D01*
X81248094Y-46992915D02*
X81295713Y-47183391D01*
X81295713Y-47183391D02*
X81295713Y-47564343D01*
X81295713Y-47564343D02*
X81248094Y-47659581D01*
X81248094Y-47659581D02*
X81200475Y-47707201D01*
X81200475Y-47707201D02*
X81105237Y-47754820D01*
X81105237Y-47754820D02*
X80914761Y-47754820D01*
X80914761Y-47754820D02*
X80819523Y-47707201D01*
X80819523Y-47707201D02*
X80771904Y-47659581D01*
X80771904Y-47659581D02*
X80724285Y-47564343D01*
X80724285Y-47564343D02*
X80724285Y-47326248D01*
X80724285Y-47326248D02*
X80771904Y-47231010D01*
X80771904Y-47231010D02*
X80819523Y-47183391D01*
X80819523Y-47183391D02*
X80914761Y-47135772D01*
X80914761Y-47135772D02*
X81105237Y-47135772D01*
X81105237Y-47135772D02*
X81200475Y-47183391D01*
X81200475Y-47183391D02*
X81248094Y-47231010D01*
X81248094Y-47231010D02*
X81295713Y-47326248D01*
X82726666Y-53217081D02*
X82774285Y-53264701D01*
X82774285Y-53264701D02*
X82917142Y-53312320D01*
X82917142Y-53312320D02*
X83012380Y-53312320D01*
X83012380Y-53312320D02*
X83155237Y-53264701D01*
X83155237Y-53264701D02*
X83250475Y-53169462D01*
X83250475Y-53169462D02*
X83298094Y-53074224D01*
X83298094Y-53074224D02*
X83345713Y-52883748D01*
X83345713Y-52883748D02*
X83345713Y-52740891D01*
X83345713Y-52740891D02*
X83298094Y-52550415D01*
X83298094Y-52550415D02*
X83250475Y-52455177D01*
X83250475Y-52455177D02*
X83155237Y-52359939D01*
X83155237Y-52359939D02*
X83012380Y-52312320D01*
X83012380Y-52312320D02*
X82917142Y-52312320D01*
X82917142Y-52312320D02*
X82774285Y-52359939D01*
X82774285Y-52359939D02*
X82726666Y-52407558D01*
X82393332Y-52312320D02*
X81774285Y-52312320D01*
X81774285Y-52312320D02*
X82107618Y-52693272D01*
X82107618Y-52693272D02*
X81964761Y-52693272D01*
X81964761Y-52693272D02*
X81869523Y-52740891D01*
X81869523Y-52740891D02*
X81821904Y-52788510D01*
X81821904Y-52788510D02*
X81774285Y-52883748D01*
X81774285Y-52883748D02*
X81774285Y-53121843D01*
X81774285Y-53121843D02*
X81821904Y-53217081D01*
X81821904Y-53217081D02*
X81869523Y-53264701D01*
X81869523Y-53264701D02*
X81964761Y-53312320D01*
X81964761Y-53312320D02*
X82250475Y-53312320D01*
X82250475Y-53312320D02*
X82345713Y-53264701D01*
X82345713Y-53264701D02*
X82393332Y-53217081D01*
X81676666Y-49729581D02*
X81724285Y-49777201D01*
X81724285Y-49777201D02*
X81867142Y-49824820D01*
X81867142Y-49824820D02*
X81962380Y-49824820D01*
X81962380Y-49824820D02*
X82105237Y-49777201D01*
X82105237Y-49777201D02*
X82200475Y-49681962D01*
X82200475Y-49681962D02*
X82248094Y-49586724D01*
X82248094Y-49586724D02*
X82295713Y-49396248D01*
X82295713Y-49396248D02*
X82295713Y-49253391D01*
X82295713Y-49253391D02*
X82248094Y-49062915D01*
X82248094Y-49062915D02*
X82200475Y-48967677D01*
X82200475Y-48967677D02*
X82105237Y-48872439D01*
X82105237Y-48872439D02*
X81962380Y-48824820D01*
X81962380Y-48824820D02*
X81867142Y-48824820D01*
X81867142Y-48824820D02*
X81724285Y-48872439D01*
X81724285Y-48872439D02*
X81676666Y-48920058D01*
X81343332Y-48824820D02*
X80676666Y-48824820D01*
X80676666Y-48824820D02*
X81105237Y-49824820D01*
X106145829Y-53557142D02*
X106193449Y-53509523D01*
X106193449Y-53509523D02*
X106241068Y-53366666D01*
X106241068Y-53366666D02*
X106241068Y-53271428D01*
X106241068Y-53271428D02*
X106193449Y-53128571D01*
X106193449Y-53128571D02*
X106098210Y-53033333D01*
X106098210Y-53033333D02*
X106002972Y-52985714D01*
X106002972Y-52985714D02*
X105812496Y-52938095D01*
X105812496Y-52938095D02*
X105669639Y-52938095D01*
X105669639Y-52938095D02*
X105479163Y-52985714D01*
X105479163Y-52985714D02*
X105383925Y-53033333D01*
X105383925Y-53033333D02*
X105288687Y-53128571D01*
X105288687Y-53128571D02*
X105241068Y-53271428D01*
X105241068Y-53271428D02*
X105241068Y-53366666D01*
X105241068Y-53366666D02*
X105288687Y-53509523D01*
X105288687Y-53509523D02*
X105336306Y-53557142D01*
X105336306Y-53938095D02*
X105288687Y-53985714D01*
X105288687Y-53985714D02*
X105241068Y-54080952D01*
X105241068Y-54080952D02*
X105241068Y-54319047D01*
X105241068Y-54319047D02*
X105288687Y-54414285D01*
X105288687Y-54414285D02*
X105336306Y-54461904D01*
X105336306Y-54461904D02*
X105431544Y-54509523D01*
X105431544Y-54509523D02*
X105526782Y-54509523D01*
X105526782Y-54509523D02*
X105669639Y-54461904D01*
X105669639Y-54461904D02*
X106241068Y-53890476D01*
X106241068Y-53890476D02*
X106241068Y-54509523D01*
X105336306Y-54890476D02*
X105288687Y-54938095D01*
X105288687Y-54938095D02*
X105241068Y-55033333D01*
X105241068Y-55033333D02*
X105241068Y-55271428D01*
X105241068Y-55271428D02*
X105288687Y-55366666D01*
X105288687Y-55366666D02*
X105336306Y-55414285D01*
X105336306Y-55414285D02*
X105431544Y-55461904D01*
X105431544Y-55461904D02*
X105526782Y-55461904D01*
X105526782Y-55461904D02*
X105669639Y-55414285D01*
X105669639Y-55414285D02*
X106241068Y-54842857D01*
X106241068Y-54842857D02*
X106241068Y-55461904D01*
X69727857Y-66514581D02*
X69775476Y-66562201D01*
X69775476Y-66562201D02*
X69918333Y-66609820D01*
X69918333Y-66609820D02*
X70013571Y-66609820D01*
X70013571Y-66609820D02*
X70156428Y-66562201D01*
X70156428Y-66562201D02*
X70251666Y-66466962D01*
X70251666Y-66466962D02*
X70299285Y-66371724D01*
X70299285Y-66371724D02*
X70346904Y-66181248D01*
X70346904Y-66181248D02*
X70346904Y-66038391D01*
X70346904Y-66038391D02*
X70299285Y-65847915D01*
X70299285Y-65847915D02*
X70251666Y-65752677D01*
X70251666Y-65752677D02*
X70156428Y-65657439D01*
X70156428Y-65657439D02*
X70013571Y-65609820D01*
X70013571Y-65609820D02*
X69918333Y-65609820D01*
X69918333Y-65609820D02*
X69775476Y-65657439D01*
X69775476Y-65657439D02*
X69727857Y-65705058D01*
X68775476Y-66609820D02*
X69346904Y-66609820D01*
X69061190Y-66609820D02*
X69061190Y-65609820D01*
X69061190Y-65609820D02*
X69156428Y-65752677D01*
X69156428Y-65752677D02*
X69251666Y-65847915D01*
X69251666Y-65847915D02*
X69346904Y-65895534D01*
X68442142Y-65609820D02*
X67823095Y-65609820D01*
X67823095Y-65609820D02*
X68156428Y-65990772D01*
X68156428Y-65990772D02*
X68013571Y-65990772D01*
X68013571Y-65990772D02*
X67918333Y-66038391D01*
X67918333Y-66038391D02*
X67870714Y-66086010D01*
X67870714Y-66086010D02*
X67823095Y-66181248D01*
X67823095Y-66181248D02*
X67823095Y-66419343D01*
X67823095Y-66419343D02*
X67870714Y-66514581D01*
X67870714Y-66514581D02*
X67918333Y-66562201D01*
X67918333Y-66562201D02*
X68013571Y-66609820D01*
X68013571Y-66609820D02*
X68299285Y-66609820D01*
X68299285Y-66609820D02*
X68394523Y-66562201D01*
X68394523Y-66562201D02*
X68442142Y-66514581D01*
X82726666Y-51217081D02*
X82774285Y-51264701D01*
X82774285Y-51264701D02*
X82917142Y-51312320D01*
X82917142Y-51312320D02*
X83012380Y-51312320D01*
X83012380Y-51312320D02*
X83155237Y-51264701D01*
X83155237Y-51264701D02*
X83250475Y-51169462D01*
X83250475Y-51169462D02*
X83298094Y-51074224D01*
X83298094Y-51074224D02*
X83345713Y-50883748D01*
X83345713Y-50883748D02*
X83345713Y-50740891D01*
X83345713Y-50740891D02*
X83298094Y-50550415D01*
X83298094Y-50550415D02*
X83250475Y-50455177D01*
X83250475Y-50455177D02*
X83155237Y-50359939D01*
X83155237Y-50359939D02*
X83012380Y-50312320D01*
X83012380Y-50312320D02*
X82917142Y-50312320D01*
X82917142Y-50312320D02*
X82774285Y-50359939D01*
X82774285Y-50359939D02*
X82726666Y-50407558D01*
X81869523Y-50645653D02*
X81869523Y-51312320D01*
X82107618Y-50264701D02*
X82345713Y-50978986D01*
X82345713Y-50978986D02*
X81726666Y-50978986D01*
X99942007Y-53156280D02*
X99989626Y-53203900D01*
X99989626Y-53203900D02*
X100132483Y-53251519D01*
X100132483Y-53251519D02*
X100227721Y-53251519D01*
X100227721Y-53251519D02*
X100370578Y-53203900D01*
X100370578Y-53203900D02*
X100465816Y-53108661D01*
X100465816Y-53108661D02*
X100513435Y-53013423D01*
X100513435Y-53013423D02*
X100561054Y-52822947D01*
X100561054Y-52822947D02*
X100561054Y-52680090D01*
X100561054Y-52680090D02*
X100513435Y-52489614D01*
X100513435Y-52489614D02*
X100465816Y-52394376D01*
X100465816Y-52394376D02*
X100370578Y-52299138D01*
X100370578Y-52299138D02*
X100227721Y-52251519D01*
X100227721Y-52251519D02*
X100132483Y-52251519D01*
X100132483Y-52251519D02*
X99989626Y-52299138D01*
X99989626Y-52299138D02*
X99942007Y-52346757D01*
X99561054Y-52346757D02*
X99513435Y-52299138D01*
X99513435Y-52299138D02*
X99418197Y-52251519D01*
X99418197Y-52251519D02*
X99180102Y-52251519D01*
X99180102Y-52251519D02*
X99084864Y-52299138D01*
X99084864Y-52299138D02*
X99037245Y-52346757D01*
X99037245Y-52346757D02*
X98989626Y-52441995D01*
X98989626Y-52441995D02*
X98989626Y-52537233D01*
X98989626Y-52537233D02*
X99037245Y-52680090D01*
X99037245Y-52680090D02*
X99608673Y-53251519D01*
X99608673Y-53251519D02*
X98989626Y-53251519D01*
X98037245Y-53251519D02*
X98608673Y-53251519D01*
X98322959Y-53251519D02*
X98322959Y-52251519D01*
X98322959Y-52251519D02*
X98418197Y-52394376D01*
X98418197Y-52394376D02*
X98513435Y-52489614D01*
X98513435Y-52489614D02*
X98608673Y-52537233D01*
X81601666Y-45414581D02*
X81649285Y-45462201D01*
X81649285Y-45462201D02*
X81792142Y-45509820D01*
X81792142Y-45509820D02*
X81887380Y-45509820D01*
X81887380Y-45509820D02*
X82030237Y-45462201D01*
X82030237Y-45462201D02*
X82125475Y-45366962D01*
X82125475Y-45366962D02*
X82173094Y-45271724D01*
X82173094Y-45271724D02*
X82220713Y-45081248D01*
X82220713Y-45081248D02*
X82220713Y-44938391D01*
X82220713Y-44938391D02*
X82173094Y-44747915D01*
X82173094Y-44747915D02*
X82125475Y-44652677D01*
X82125475Y-44652677D02*
X82030237Y-44557439D01*
X82030237Y-44557439D02*
X81887380Y-44509820D01*
X81887380Y-44509820D02*
X81792142Y-44509820D01*
X81792142Y-44509820D02*
X81649285Y-44557439D01*
X81649285Y-44557439D02*
X81601666Y-44605058D01*
X80696904Y-44509820D02*
X81173094Y-44509820D01*
X81173094Y-44509820D02*
X81220713Y-44986010D01*
X81220713Y-44986010D02*
X81173094Y-44938391D01*
X81173094Y-44938391D02*
X81077856Y-44890772D01*
X81077856Y-44890772D02*
X80839761Y-44890772D01*
X80839761Y-44890772D02*
X80744523Y-44938391D01*
X80744523Y-44938391D02*
X80696904Y-44986010D01*
X80696904Y-44986010D02*
X80649285Y-45081248D01*
X80649285Y-45081248D02*
X80649285Y-45319343D01*
X80649285Y-45319343D02*
X80696904Y-45414581D01*
X80696904Y-45414581D02*
X80744523Y-45462201D01*
X80744523Y-45462201D02*
X80839761Y-45509820D01*
X80839761Y-45509820D02*
X81077856Y-45509820D01*
X81077856Y-45509820D02*
X81173094Y-45462201D01*
X81173094Y-45462201D02*
X81220713Y-45414581D01*
X103603908Y-58429580D02*
X103651527Y-58477200D01*
X103651527Y-58477200D02*
X103794384Y-58524819D01*
X103794384Y-58524819D02*
X103889622Y-58524819D01*
X103889622Y-58524819D02*
X104032479Y-58477200D01*
X104032479Y-58477200D02*
X104127717Y-58381961D01*
X104127717Y-58381961D02*
X104175336Y-58286723D01*
X104175336Y-58286723D02*
X104222955Y-58096247D01*
X104222955Y-58096247D02*
X104222955Y-57953390D01*
X104222955Y-57953390D02*
X104175336Y-57762914D01*
X104175336Y-57762914D02*
X104127717Y-57667676D01*
X104127717Y-57667676D02*
X104032479Y-57572438D01*
X104032479Y-57572438D02*
X103889622Y-57524819D01*
X103889622Y-57524819D02*
X103794384Y-57524819D01*
X103794384Y-57524819D02*
X103651527Y-57572438D01*
X103651527Y-57572438D02*
X103603908Y-57620057D01*
X103222955Y-57620057D02*
X103175336Y-57572438D01*
X103175336Y-57572438D02*
X103080098Y-57524819D01*
X103080098Y-57524819D02*
X102842003Y-57524819D01*
X102842003Y-57524819D02*
X102746765Y-57572438D01*
X102746765Y-57572438D02*
X102699146Y-57620057D01*
X102699146Y-57620057D02*
X102651527Y-57715295D01*
X102651527Y-57715295D02*
X102651527Y-57810533D01*
X102651527Y-57810533D02*
X102699146Y-57953390D01*
X102699146Y-57953390D02*
X103270574Y-58524819D01*
X103270574Y-58524819D02*
X102651527Y-58524819D01*
X102175336Y-58524819D02*
X101984860Y-58524819D01*
X101984860Y-58524819D02*
X101889622Y-58477200D01*
X101889622Y-58477200D02*
X101842003Y-58429580D01*
X101842003Y-58429580D02*
X101746765Y-58286723D01*
X101746765Y-58286723D02*
X101699146Y-58096247D01*
X101699146Y-58096247D02*
X101699146Y-57715295D01*
X101699146Y-57715295D02*
X101746765Y-57620057D01*
X101746765Y-57620057D02*
X101794384Y-57572438D01*
X101794384Y-57572438D02*
X101889622Y-57524819D01*
X101889622Y-57524819D02*
X102080098Y-57524819D01*
X102080098Y-57524819D02*
X102175336Y-57572438D01*
X102175336Y-57572438D02*
X102222955Y-57620057D01*
X102222955Y-57620057D02*
X102270574Y-57715295D01*
X102270574Y-57715295D02*
X102270574Y-57953390D01*
X102270574Y-57953390D02*
X102222955Y-58048628D01*
X102222955Y-58048628D02*
X102175336Y-58096247D01*
X102175336Y-58096247D02*
X102080098Y-58143866D01*
X102080098Y-58143866D02*
X101889622Y-58143866D01*
X101889622Y-58143866D02*
X101794384Y-58096247D01*
X101794384Y-58096247D02*
X101746765Y-58048628D01*
X101746765Y-58048628D02*
X101699146Y-57953390D01*
X75409580Y-53227143D02*
X75457200Y-53179524D01*
X75457200Y-53179524D02*
X75504819Y-53036667D01*
X75504819Y-53036667D02*
X75504819Y-52941429D01*
X75504819Y-52941429D02*
X75457200Y-52798572D01*
X75457200Y-52798572D02*
X75361961Y-52703334D01*
X75361961Y-52703334D02*
X75266723Y-52655715D01*
X75266723Y-52655715D02*
X75076247Y-52608096D01*
X75076247Y-52608096D02*
X74933390Y-52608096D01*
X74933390Y-52608096D02*
X74742914Y-52655715D01*
X74742914Y-52655715D02*
X74647676Y-52703334D01*
X74647676Y-52703334D02*
X74552438Y-52798572D01*
X74552438Y-52798572D02*
X74504819Y-52941429D01*
X74504819Y-52941429D02*
X74504819Y-53036667D01*
X74504819Y-53036667D02*
X74552438Y-53179524D01*
X74552438Y-53179524D02*
X74600057Y-53227143D01*
X75504819Y-54179524D02*
X75504819Y-53608096D01*
X75504819Y-53893810D02*
X74504819Y-53893810D01*
X74504819Y-53893810D02*
X74647676Y-53798572D01*
X74647676Y-53798572D02*
X74742914Y-53703334D01*
X74742914Y-53703334D02*
X74790533Y-53608096D01*
X75504819Y-55131905D02*
X75504819Y-54560477D01*
X75504819Y-54846191D02*
X74504819Y-54846191D01*
X74504819Y-54846191D02*
X74647676Y-54750953D01*
X74647676Y-54750953D02*
X74742914Y-54655715D01*
X74742914Y-54655715D02*
X74790533Y-54560477D01*
X69766666Y-64279581D02*
X69814285Y-64327201D01*
X69814285Y-64327201D02*
X69957142Y-64374820D01*
X69957142Y-64374820D02*
X70052380Y-64374820D01*
X70052380Y-64374820D02*
X70195237Y-64327201D01*
X70195237Y-64327201D02*
X70290475Y-64231962D01*
X70290475Y-64231962D02*
X70338094Y-64136724D01*
X70338094Y-64136724D02*
X70385713Y-63946248D01*
X70385713Y-63946248D02*
X70385713Y-63803391D01*
X70385713Y-63803391D02*
X70338094Y-63612915D01*
X70338094Y-63612915D02*
X70290475Y-63517677D01*
X70290475Y-63517677D02*
X70195237Y-63422439D01*
X70195237Y-63422439D02*
X70052380Y-63374820D01*
X70052380Y-63374820D02*
X69957142Y-63374820D01*
X69957142Y-63374820D02*
X69814285Y-63422439D01*
X69814285Y-63422439D02*
X69766666Y-63470058D01*
X69195237Y-63803391D02*
X69290475Y-63755772D01*
X69290475Y-63755772D02*
X69338094Y-63708153D01*
X69338094Y-63708153D02*
X69385713Y-63612915D01*
X69385713Y-63612915D02*
X69385713Y-63565296D01*
X69385713Y-63565296D02*
X69338094Y-63470058D01*
X69338094Y-63470058D02*
X69290475Y-63422439D01*
X69290475Y-63422439D02*
X69195237Y-63374820D01*
X69195237Y-63374820D02*
X69004761Y-63374820D01*
X69004761Y-63374820D02*
X68909523Y-63422439D01*
X68909523Y-63422439D02*
X68861904Y-63470058D01*
X68861904Y-63470058D02*
X68814285Y-63565296D01*
X68814285Y-63565296D02*
X68814285Y-63612915D01*
X68814285Y-63612915D02*
X68861904Y-63708153D01*
X68861904Y-63708153D02*
X68909523Y-63755772D01*
X68909523Y-63755772D02*
X69004761Y-63803391D01*
X69004761Y-63803391D02*
X69195237Y-63803391D01*
X69195237Y-63803391D02*
X69290475Y-63851010D01*
X69290475Y-63851010D02*
X69338094Y-63898629D01*
X69338094Y-63898629D02*
X69385713Y-63993867D01*
X69385713Y-63993867D02*
X69385713Y-64184343D01*
X69385713Y-64184343D02*
X69338094Y-64279581D01*
X69338094Y-64279581D02*
X69290475Y-64327201D01*
X69290475Y-64327201D02*
X69195237Y-64374820D01*
X69195237Y-64374820D02*
X69004761Y-64374820D01*
X69004761Y-64374820D02*
X68909523Y-64327201D01*
X68909523Y-64327201D02*
X68861904Y-64279581D01*
X68861904Y-64279581D02*
X68814285Y-64184343D01*
X68814285Y-64184343D02*
X68814285Y-63993867D01*
X68814285Y-63993867D02*
X68861904Y-63898629D01*
X68861904Y-63898629D02*
X68909523Y-63851010D01*
X68909523Y-63851010D02*
X69004761Y-63803391D01*
X94161807Y-57409580D02*
X94209426Y-57457200D01*
X94209426Y-57457200D02*
X94352283Y-57504819D01*
X94352283Y-57504819D02*
X94447521Y-57504819D01*
X94447521Y-57504819D02*
X94590378Y-57457200D01*
X94590378Y-57457200D02*
X94685616Y-57361961D01*
X94685616Y-57361961D02*
X94733235Y-57266723D01*
X94733235Y-57266723D02*
X94780854Y-57076247D01*
X94780854Y-57076247D02*
X94780854Y-56933390D01*
X94780854Y-56933390D02*
X94733235Y-56742914D01*
X94733235Y-56742914D02*
X94685616Y-56647676D01*
X94685616Y-56647676D02*
X94590378Y-56552438D01*
X94590378Y-56552438D02*
X94447521Y-56504819D01*
X94447521Y-56504819D02*
X94352283Y-56504819D01*
X94352283Y-56504819D02*
X94209426Y-56552438D01*
X94209426Y-56552438D02*
X94161807Y-56600057D01*
X93209426Y-57504819D02*
X93780854Y-57504819D01*
X93495140Y-57504819D02*
X93495140Y-56504819D01*
X93495140Y-56504819D02*
X93590378Y-56647676D01*
X93590378Y-56647676D02*
X93685616Y-56742914D01*
X93685616Y-56742914D02*
X93780854Y-56790533D01*
X92876092Y-56504819D02*
X92209426Y-56504819D01*
X92209426Y-56504819D02*
X92637997Y-57504819D01*
X98603908Y-61789580D02*
X98651527Y-61837200D01*
X98651527Y-61837200D02*
X98794384Y-61884819D01*
X98794384Y-61884819D02*
X98889622Y-61884819D01*
X98889622Y-61884819D02*
X99032479Y-61837200D01*
X99032479Y-61837200D02*
X99127717Y-61741961D01*
X99127717Y-61741961D02*
X99175336Y-61646723D01*
X99175336Y-61646723D02*
X99222955Y-61456247D01*
X99222955Y-61456247D02*
X99222955Y-61313390D01*
X99222955Y-61313390D02*
X99175336Y-61122914D01*
X99175336Y-61122914D02*
X99127717Y-61027676D01*
X99127717Y-61027676D02*
X99032479Y-60932438D01*
X99032479Y-60932438D02*
X98889622Y-60884819D01*
X98889622Y-60884819D02*
X98794384Y-60884819D01*
X98794384Y-60884819D02*
X98651527Y-60932438D01*
X98651527Y-60932438D02*
X98603908Y-60980057D01*
X98270574Y-60884819D02*
X97651527Y-60884819D01*
X97651527Y-60884819D02*
X97984860Y-61265771D01*
X97984860Y-61265771D02*
X97842003Y-61265771D01*
X97842003Y-61265771D02*
X97746765Y-61313390D01*
X97746765Y-61313390D02*
X97699146Y-61361009D01*
X97699146Y-61361009D02*
X97651527Y-61456247D01*
X97651527Y-61456247D02*
X97651527Y-61694342D01*
X97651527Y-61694342D02*
X97699146Y-61789580D01*
X97699146Y-61789580D02*
X97746765Y-61837200D01*
X97746765Y-61837200D02*
X97842003Y-61884819D01*
X97842003Y-61884819D02*
X98127717Y-61884819D01*
X98127717Y-61884819D02*
X98222955Y-61837200D01*
X98222955Y-61837200D02*
X98270574Y-61789580D01*
X97032479Y-60884819D02*
X96937241Y-60884819D01*
X96937241Y-60884819D02*
X96842003Y-60932438D01*
X96842003Y-60932438D02*
X96794384Y-60980057D01*
X96794384Y-60980057D02*
X96746765Y-61075295D01*
X96746765Y-61075295D02*
X96699146Y-61265771D01*
X96699146Y-61265771D02*
X96699146Y-61503866D01*
X96699146Y-61503866D02*
X96746765Y-61694342D01*
X96746765Y-61694342D02*
X96794384Y-61789580D01*
X96794384Y-61789580D02*
X96842003Y-61837200D01*
X96842003Y-61837200D02*
X96937241Y-61884819D01*
X96937241Y-61884819D02*
X97032479Y-61884819D01*
X97032479Y-61884819D02*
X97127717Y-61837200D01*
X97127717Y-61837200D02*
X97175336Y-61789580D01*
X97175336Y-61789580D02*
X97222955Y-61694342D01*
X97222955Y-61694342D02*
X97270574Y-61503866D01*
X97270574Y-61503866D02*
X97270574Y-61265771D01*
X97270574Y-61265771D02*
X97222955Y-61075295D01*
X97222955Y-61075295D02*
X97175336Y-60980057D01*
X97175336Y-60980057D02*
X97127717Y-60932438D01*
X97127717Y-60932438D02*
X97032479Y-60884819D01*
X83977657Y-66660780D02*
X84025276Y-66708400D01*
X84025276Y-66708400D02*
X84168133Y-66756019D01*
X84168133Y-66756019D02*
X84263371Y-66756019D01*
X84263371Y-66756019D02*
X84406228Y-66708400D01*
X84406228Y-66708400D02*
X84501466Y-66613161D01*
X84501466Y-66613161D02*
X84549085Y-66517923D01*
X84549085Y-66517923D02*
X84596704Y-66327447D01*
X84596704Y-66327447D02*
X84596704Y-66184590D01*
X84596704Y-66184590D02*
X84549085Y-65994114D01*
X84549085Y-65994114D02*
X84501466Y-65898876D01*
X84501466Y-65898876D02*
X84406228Y-65803638D01*
X84406228Y-65803638D02*
X84263371Y-65756019D01*
X84263371Y-65756019D02*
X84168133Y-65756019D01*
X84168133Y-65756019D02*
X84025276Y-65803638D01*
X84025276Y-65803638D02*
X83977657Y-65851257D01*
X83644323Y-65756019D02*
X83025276Y-65756019D01*
X83025276Y-65756019D02*
X83358609Y-66136971D01*
X83358609Y-66136971D02*
X83215752Y-66136971D01*
X83215752Y-66136971D02*
X83120514Y-66184590D01*
X83120514Y-66184590D02*
X83072895Y-66232209D01*
X83072895Y-66232209D02*
X83025276Y-66327447D01*
X83025276Y-66327447D02*
X83025276Y-66565542D01*
X83025276Y-66565542D02*
X83072895Y-66660780D01*
X83072895Y-66660780D02*
X83120514Y-66708400D01*
X83120514Y-66708400D02*
X83215752Y-66756019D01*
X83215752Y-66756019D02*
X83501466Y-66756019D01*
X83501466Y-66756019D02*
X83596704Y-66708400D01*
X83596704Y-66708400D02*
X83644323Y-66660780D01*
X82168133Y-66089352D02*
X82168133Y-66756019D01*
X82406228Y-65708400D02*
X82644323Y-66422685D01*
X82644323Y-66422685D02*
X82025276Y-66422685D01*
X88577657Y-66679580D02*
X88625276Y-66727200D01*
X88625276Y-66727200D02*
X88768133Y-66774819D01*
X88768133Y-66774819D02*
X88863371Y-66774819D01*
X88863371Y-66774819D02*
X89006228Y-66727200D01*
X89006228Y-66727200D02*
X89101466Y-66631961D01*
X89101466Y-66631961D02*
X89149085Y-66536723D01*
X89149085Y-66536723D02*
X89196704Y-66346247D01*
X89196704Y-66346247D02*
X89196704Y-66203390D01*
X89196704Y-66203390D02*
X89149085Y-66012914D01*
X89149085Y-66012914D02*
X89101466Y-65917676D01*
X89101466Y-65917676D02*
X89006228Y-65822438D01*
X89006228Y-65822438D02*
X88863371Y-65774819D01*
X88863371Y-65774819D02*
X88768133Y-65774819D01*
X88768133Y-65774819D02*
X88625276Y-65822438D01*
X88625276Y-65822438D02*
X88577657Y-65870057D01*
X88244323Y-65774819D02*
X87625276Y-65774819D01*
X87625276Y-65774819D02*
X87958609Y-66155771D01*
X87958609Y-66155771D02*
X87815752Y-66155771D01*
X87815752Y-66155771D02*
X87720514Y-66203390D01*
X87720514Y-66203390D02*
X87672895Y-66251009D01*
X87672895Y-66251009D02*
X87625276Y-66346247D01*
X87625276Y-66346247D02*
X87625276Y-66584342D01*
X87625276Y-66584342D02*
X87672895Y-66679580D01*
X87672895Y-66679580D02*
X87720514Y-66727200D01*
X87720514Y-66727200D02*
X87815752Y-66774819D01*
X87815752Y-66774819D02*
X88101466Y-66774819D01*
X88101466Y-66774819D02*
X88196704Y-66727200D01*
X88196704Y-66727200D02*
X88244323Y-66679580D01*
X87291942Y-65774819D02*
X86672895Y-65774819D01*
X86672895Y-65774819D02*
X87006228Y-66155771D01*
X87006228Y-66155771D02*
X86863371Y-66155771D01*
X86863371Y-66155771D02*
X86768133Y-66203390D01*
X86768133Y-66203390D02*
X86720514Y-66251009D01*
X86720514Y-66251009D02*
X86672895Y-66346247D01*
X86672895Y-66346247D02*
X86672895Y-66584342D01*
X86672895Y-66584342D02*
X86720514Y-66679580D01*
X86720514Y-66679580D02*
X86768133Y-66727200D01*
X86768133Y-66727200D02*
X86863371Y-66774819D01*
X86863371Y-66774819D02*
X87149085Y-66774819D01*
X87149085Y-66774819D02*
X87244323Y-66727200D01*
X87244323Y-66727200D02*
X87291942Y-66679580D01*
X83926666Y-55617081D02*
X83974285Y-55664701D01*
X83974285Y-55664701D02*
X84117142Y-55712320D01*
X84117142Y-55712320D02*
X84212380Y-55712320D01*
X84212380Y-55712320D02*
X84355237Y-55664701D01*
X84355237Y-55664701D02*
X84450475Y-55569462D01*
X84450475Y-55569462D02*
X84498094Y-55474224D01*
X84498094Y-55474224D02*
X84545713Y-55283748D01*
X84545713Y-55283748D02*
X84545713Y-55140891D01*
X84545713Y-55140891D02*
X84498094Y-54950415D01*
X84498094Y-54950415D02*
X84450475Y-54855177D01*
X84450475Y-54855177D02*
X84355237Y-54759939D01*
X84355237Y-54759939D02*
X84212380Y-54712320D01*
X84212380Y-54712320D02*
X84117142Y-54712320D01*
X84117142Y-54712320D02*
X83974285Y-54759939D01*
X83974285Y-54759939D02*
X83926666Y-54807558D01*
X83545713Y-54807558D02*
X83498094Y-54759939D01*
X83498094Y-54759939D02*
X83402856Y-54712320D01*
X83402856Y-54712320D02*
X83164761Y-54712320D01*
X83164761Y-54712320D02*
X83069523Y-54759939D01*
X83069523Y-54759939D02*
X83021904Y-54807558D01*
X83021904Y-54807558D02*
X82974285Y-54902796D01*
X82974285Y-54902796D02*
X82974285Y-54998034D01*
X82974285Y-54998034D02*
X83021904Y-55140891D01*
X83021904Y-55140891D02*
X83593332Y-55712320D01*
X83593332Y-55712320D02*
X82974285Y-55712320D01*
X112029579Y-65396091D02*
X112077199Y-65348472D01*
X112077199Y-65348472D02*
X112124818Y-65205615D01*
X112124818Y-65205615D02*
X112124818Y-65110377D01*
X112124818Y-65110377D02*
X112077199Y-64967520D01*
X112077199Y-64967520D02*
X111981960Y-64872282D01*
X111981960Y-64872282D02*
X111886722Y-64824663D01*
X111886722Y-64824663D02*
X111696246Y-64777044D01*
X111696246Y-64777044D02*
X111553389Y-64777044D01*
X111553389Y-64777044D02*
X111362913Y-64824663D01*
X111362913Y-64824663D02*
X111267675Y-64872282D01*
X111267675Y-64872282D02*
X111172437Y-64967520D01*
X111172437Y-64967520D02*
X111124818Y-65110377D01*
X111124818Y-65110377D02*
X111124818Y-65205615D01*
X111124818Y-65205615D02*
X111172437Y-65348472D01*
X111172437Y-65348472D02*
X111220056Y-65396091D01*
X111124818Y-65729425D02*
X111124818Y-66348472D01*
X111124818Y-66348472D02*
X111505770Y-66015139D01*
X111505770Y-66015139D02*
X111505770Y-66157996D01*
X111505770Y-66157996D02*
X111553389Y-66253234D01*
X111553389Y-66253234D02*
X111601008Y-66300853D01*
X111601008Y-66300853D02*
X111696246Y-66348472D01*
X111696246Y-66348472D02*
X111934341Y-66348472D01*
X111934341Y-66348472D02*
X112029579Y-66300853D01*
X112029579Y-66300853D02*
X112077199Y-66253234D01*
X112077199Y-66253234D02*
X112124818Y-66157996D01*
X112124818Y-66157996D02*
X112124818Y-65872282D01*
X112124818Y-65872282D02*
X112077199Y-65777044D01*
X112077199Y-65777044D02*
X112029579Y-65729425D01*
X111220056Y-66729425D02*
X111172437Y-66777044D01*
X111172437Y-66777044D02*
X111124818Y-66872282D01*
X111124818Y-66872282D02*
X111124818Y-67110377D01*
X111124818Y-67110377D02*
X111172437Y-67205615D01*
X111172437Y-67205615D02*
X111220056Y-67253234D01*
X111220056Y-67253234D02*
X111315294Y-67300853D01*
X111315294Y-67300853D02*
X111410532Y-67300853D01*
X111410532Y-67300853D02*
X111553389Y-67253234D01*
X111553389Y-67253234D02*
X112124818Y-66681806D01*
X112124818Y-66681806D02*
X112124818Y-67300853D01*
X93603908Y-61789580D02*
X93651527Y-61837200D01*
X93651527Y-61837200D02*
X93794384Y-61884819D01*
X93794384Y-61884819D02*
X93889622Y-61884819D01*
X93889622Y-61884819D02*
X94032479Y-61837200D01*
X94032479Y-61837200D02*
X94127717Y-61741961D01*
X94127717Y-61741961D02*
X94175336Y-61646723D01*
X94175336Y-61646723D02*
X94222955Y-61456247D01*
X94222955Y-61456247D02*
X94222955Y-61313390D01*
X94222955Y-61313390D02*
X94175336Y-61122914D01*
X94175336Y-61122914D02*
X94127717Y-61027676D01*
X94127717Y-61027676D02*
X94032479Y-60932438D01*
X94032479Y-60932438D02*
X93889622Y-60884819D01*
X93889622Y-60884819D02*
X93794384Y-60884819D01*
X93794384Y-60884819D02*
X93651527Y-60932438D01*
X93651527Y-60932438D02*
X93603908Y-60980057D01*
X93270574Y-60884819D02*
X92651527Y-60884819D01*
X92651527Y-60884819D02*
X92984860Y-61265771D01*
X92984860Y-61265771D02*
X92842003Y-61265771D01*
X92842003Y-61265771D02*
X92746765Y-61313390D01*
X92746765Y-61313390D02*
X92699146Y-61361009D01*
X92699146Y-61361009D02*
X92651527Y-61456247D01*
X92651527Y-61456247D02*
X92651527Y-61694342D01*
X92651527Y-61694342D02*
X92699146Y-61789580D01*
X92699146Y-61789580D02*
X92746765Y-61837200D01*
X92746765Y-61837200D02*
X92842003Y-61884819D01*
X92842003Y-61884819D02*
X93127717Y-61884819D01*
X93127717Y-61884819D02*
X93222955Y-61837200D01*
X93222955Y-61837200D02*
X93270574Y-61789580D01*
X91699146Y-61884819D02*
X92270574Y-61884819D01*
X91984860Y-61884819D02*
X91984860Y-60884819D01*
X91984860Y-60884819D02*
X92080098Y-61027676D01*
X92080098Y-61027676D02*
X92175336Y-61122914D01*
X92175336Y-61122914D02*
X92270574Y-61170533D01*
X91826807Y-58459580D02*
X91874426Y-58507200D01*
X91874426Y-58507200D02*
X92017283Y-58554819D01*
X92017283Y-58554819D02*
X92112521Y-58554819D01*
X92112521Y-58554819D02*
X92255378Y-58507200D01*
X92255378Y-58507200D02*
X92350616Y-58411961D01*
X92350616Y-58411961D02*
X92398235Y-58316723D01*
X92398235Y-58316723D02*
X92445854Y-58126247D01*
X92445854Y-58126247D02*
X92445854Y-57983390D01*
X92445854Y-57983390D02*
X92398235Y-57792914D01*
X92398235Y-57792914D02*
X92350616Y-57697676D01*
X92350616Y-57697676D02*
X92255378Y-57602438D01*
X92255378Y-57602438D02*
X92112521Y-57554819D01*
X92112521Y-57554819D02*
X92017283Y-57554819D01*
X92017283Y-57554819D02*
X91874426Y-57602438D01*
X91874426Y-57602438D02*
X91826807Y-57650057D01*
X90874426Y-58554819D02*
X91445854Y-58554819D01*
X91160140Y-58554819D02*
X91160140Y-57554819D01*
X91160140Y-57554819D02*
X91255378Y-57697676D01*
X91255378Y-57697676D02*
X91350616Y-57792914D01*
X91350616Y-57792914D02*
X91445854Y-57840533D01*
X90017283Y-57554819D02*
X90207759Y-57554819D01*
X90207759Y-57554819D02*
X90302997Y-57602438D01*
X90302997Y-57602438D02*
X90350616Y-57650057D01*
X90350616Y-57650057D02*
X90445854Y-57792914D01*
X90445854Y-57792914D02*
X90493473Y-57983390D01*
X90493473Y-57983390D02*
X90493473Y-58364342D01*
X90493473Y-58364342D02*
X90445854Y-58459580D01*
X90445854Y-58459580D02*
X90398235Y-58507200D01*
X90398235Y-58507200D02*
X90302997Y-58554819D01*
X90302997Y-58554819D02*
X90112521Y-58554819D01*
X90112521Y-58554819D02*
X90017283Y-58507200D01*
X90017283Y-58507200D02*
X89969664Y-58459580D01*
X89969664Y-58459580D02*
X89922045Y-58364342D01*
X89922045Y-58364342D02*
X89922045Y-58126247D01*
X89922045Y-58126247D02*
X89969664Y-58031009D01*
X89969664Y-58031009D02*
X90017283Y-57983390D01*
X90017283Y-57983390D02*
X90112521Y-57935771D01*
X90112521Y-57935771D02*
X90302997Y-57935771D01*
X90302997Y-57935771D02*
X90398235Y-57983390D01*
X90398235Y-57983390D02*
X90445854Y-58031009D01*
X90445854Y-58031009D02*
X90493473Y-58126247D01*
X97142857Y-57409580D02*
X97190476Y-57457200D01*
X97190476Y-57457200D02*
X97333333Y-57504819D01*
X97333333Y-57504819D02*
X97428571Y-57504819D01*
X97428571Y-57504819D02*
X97571428Y-57457200D01*
X97571428Y-57457200D02*
X97666666Y-57361961D01*
X97666666Y-57361961D02*
X97714285Y-57266723D01*
X97714285Y-57266723D02*
X97761904Y-57076247D01*
X97761904Y-57076247D02*
X97761904Y-56933390D01*
X97761904Y-56933390D02*
X97714285Y-56742914D01*
X97714285Y-56742914D02*
X97666666Y-56647676D01*
X97666666Y-56647676D02*
X97571428Y-56552438D01*
X97571428Y-56552438D02*
X97428571Y-56504819D01*
X97428571Y-56504819D02*
X97333333Y-56504819D01*
X97333333Y-56504819D02*
X97190476Y-56552438D01*
X97190476Y-56552438D02*
X97142857Y-56600057D01*
X96190476Y-57504819D02*
X96761904Y-57504819D01*
X96476190Y-57504819D02*
X96476190Y-56504819D01*
X96476190Y-56504819D02*
X96571428Y-56647676D01*
X96571428Y-56647676D02*
X96666666Y-56742914D01*
X96666666Y-56742914D02*
X96761904Y-56790533D01*
X95619047Y-56933390D02*
X95714285Y-56885771D01*
X95714285Y-56885771D02*
X95761904Y-56838152D01*
X95761904Y-56838152D02*
X95809523Y-56742914D01*
X95809523Y-56742914D02*
X95809523Y-56695295D01*
X95809523Y-56695295D02*
X95761904Y-56600057D01*
X95761904Y-56600057D02*
X95714285Y-56552438D01*
X95714285Y-56552438D02*
X95619047Y-56504819D01*
X95619047Y-56504819D02*
X95428571Y-56504819D01*
X95428571Y-56504819D02*
X95333333Y-56552438D01*
X95333333Y-56552438D02*
X95285714Y-56600057D01*
X95285714Y-56600057D02*
X95238095Y-56695295D01*
X95238095Y-56695295D02*
X95238095Y-56742914D01*
X95238095Y-56742914D02*
X95285714Y-56838152D01*
X95285714Y-56838152D02*
X95333333Y-56885771D01*
X95333333Y-56885771D02*
X95428571Y-56933390D01*
X95428571Y-56933390D02*
X95619047Y-56933390D01*
X95619047Y-56933390D02*
X95714285Y-56981009D01*
X95714285Y-56981009D02*
X95761904Y-57028628D01*
X95761904Y-57028628D02*
X95809523Y-57123866D01*
X95809523Y-57123866D02*
X95809523Y-57314342D01*
X95809523Y-57314342D02*
X95761904Y-57409580D01*
X95761904Y-57409580D02*
X95714285Y-57457200D01*
X95714285Y-57457200D02*
X95619047Y-57504819D01*
X95619047Y-57504819D02*
X95428571Y-57504819D01*
X95428571Y-57504819D02*
X95333333Y-57457200D01*
X95333333Y-57457200D02*
X95285714Y-57409580D01*
X95285714Y-57409580D02*
X95238095Y-57314342D01*
X95238095Y-57314342D02*
X95238095Y-57123866D01*
X95238095Y-57123866D02*
X95285714Y-57028628D01*
X95285714Y-57028628D02*
X95333333Y-56981009D01*
X95333333Y-56981009D02*
X95428571Y-56933390D01*
X73354580Y-53227143D02*
X73402200Y-53179524D01*
X73402200Y-53179524D02*
X73449819Y-53036667D01*
X73449819Y-53036667D02*
X73449819Y-52941429D01*
X73449819Y-52941429D02*
X73402200Y-52798572D01*
X73402200Y-52798572D02*
X73306961Y-52703334D01*
X73306961Y-52703334D02*
X73211723Y-52655715D01*
X73211723Y-52655715D02*
X73021247Y-52608096D01*
X73021247Y-52608096D02*
X72878390Y-52608096D01*
X72878390Y-52608096D02*
X72687914Y-52655715D01*
X72687914Y-52655715D02*
X72592676Y-52703334D01*
X72592676Y-52703334D02*
X72497438Y-52798572D01*
X72497438Y-52798572D02*
X72449819Y-52941429D01*
X72449819Y-52941429D02*
X72449819Y-53036667D01*
X72449819Y-53036667D02*
X72497438Y-53179524D01*
X72497438Y-53179524D02*
X72545057Y-53227143D01*
X73449819Y-54179524D02*
X73449819Y-53608096D01*
X73449819Y-53893810D02*
X72449819Y-53893810D01*
X72449819Y-53893810D02*
X72592676Y-53798572D01*
X72592676Y-53798572D02*
X72687914Y-53703334D01*
X72687914Y-53703334D02*
X72735533Y-53608096D01*
X72449819Y-54798572D02*
X72449819Y-54893810D01*
X72449819Y-54893810D02*
X72497438Y-54989048D01*
X72497438Y-54989048D02*
X72545057Y-55036667D01*
X72545057Y-55036667D02*
X72640295Y-55084286D01*
X72640295Y-55084286D02*
X72830771Y-55131905D01*
X72830771Y-55131905D02*
X73068866Y-55131905D01*
X73068866Y-55131905D02*
X73259342Y-55084286D01*
X73259342Y-55084286D02*
X73354580Y-55036667D01*
X73354580Y-55036667D02*
X73402200Y-54989048D01*
X73402200Y-54989048D02*
X73449819Y-54893810D01*
X73449819Y-54893810D02*
X73449819Y-54798572D01*
X73449819Y-54798572D02*
X73402200Y-54703334D01*
X73402200Y-54703334D02*
X73354580Y-54655715D01*
X73354580Y-54655715D02*
X73259342Y-54608096D01*
X73259342Y-54608096D02*
X73068866Y-54560477D01*
X73068866Y-54560477D02*
X72830771Y-54560477D01*
X72830771Y-54560477D02*
X72640295Y-54608096D01*
X72640295Y-54608096D02*
X72545057Y-54655715D01*
X72545057Y-54655715D02*
X72497438Y-54703334D01*
X72497438Y-54703334D02*
X72449819Y-54798572D01*
X99942007Y-47544980D02*
X99989626Y-47592600D01*
X99989626Y-47592600D02*
X100132483Y-47640219D01*
X100132483Y-47640219D02*
X100227721Y-47640219D01*
X100227721Y-47640219D02*
X100370578Y-47592600D01*
X100370578Y-47592600D02*
X100465816Y-47497361D01*
X100465816Y-47497361D02*
X100513435Y-47402123D01*
X100513435Y-47402123D02*
X100561054Y-47211647D01*
X100561054Y-47211647D02*
X100561054Y-47068790D01*
X100561054Y-47068790D02*
X100513435Y-46878314D01*
X100513435Y-46878314D02*
X100465816Y-46783076D01*
X100465816Y-46783076D02*
X100370578Y-46687838D01*
X100370578Y-46687838D02*
X100227721Y-46640219D01*
X100227721Y-46640219D02*
X100132483Y-46640219D01*
X100132483Y-46640219D02*
X99989626Y-46687838D01*
X99989626Y-46687838D02*
X99942007Y-46735457D01*
X98989626Y-47640219D02*
X99561054Y-47640219D01*
X99275340Y-47640219D02*
X99275340Y-46640219D01*
X99275340Y-46640219D02*
X99370578Y-46783076D01*
X99370578Y-46783076D02*
X99465816Y-46878314D01*
X99465816Y-46878314D02*
X99561054Y-46925933D01*
X98513435Y-47640219D02*
X98322959Y-47640219D01*
X98322959Y-47640219D02*
X98227721Y-47592600D01*
X98227721Y-47592600D02*
X98180102Y-47544980D01*
X98180102Y-47544980D02*
X98084864Y-47402123D01*
X98084864Y-47402123D02*
X98037245Y-47211647D01*
X98037245Y-47211647D02*
X98037245Y-46830695D01*
X98037245Y-46830695D02*
X98084864Y-46735457D01*
X98084864Y-46735457D02*
X98132483Y-46687838D01*
X98132483Y-46687838D02*
X98227721Y-46640219D01*
X98227721Y-46640219D02*
X98418197Y-46640219D01*
X98418197Y-46640219D02*
X98513435Y-46687838D01*
X98513435Y-46687838D02*
X98561054Y-46735457D01*
X98561054Y-46735457D02*
X98608673Y-46830695D01*
X98608673Y-46830695D02*
X98608673Y-47068790D01*
X98608673Y-47068790D02*
X98561054Y-47164028D01*
X98561054Y-47164028D02*
X98513435Y-47211647D01*
X98513435Y-47211647D02*
X98418197Y-47259266D01*
X98418197Y-47259266D02*
X98227721Y-47259266D01*
X98227721Y-47259266D02*
X98132483Y-47211647D01*
X98132483Y-47211647D02*
X98084864Y-47164028D01*
X98084864Y-47164028D02*
X98037245Y-47068790D01*
D11*
X107699799Y-59015000D02*
X108222303Y-59015000D01*
X107699799Y-60485000D02*
X108222303Y-60485000D01*
X69850000Y-58306253D02*
X69850000Y-56883749D01*
X71670000Y-58306253D02*
X71670000Y-56883749D01*
X72621252Y-61220001D02*
X72098748Y-61220001D01*
X72621252Y-62690001D02*
X72098748Y-62690001D01*
X84371252Y-46565001D02*
X83848748Y-46565001D01*
X84371252Y-48035001D02*
X83848748Y-48035001D01*
X80171252Y-52235001D02*
X79648748Y-52235001D01*
X80171252Y-53705001D02*
X79648748Y-53705001D01*
X84371252Y-48635001D02*
X83848748Y-48635001D01*
X84371252Y-50105001D02*
X83848748Y-50105001D01*
X103371249Y-53938748D02*
X103371249Y-54461252D01*
X104841249Y-53938748D02*
X104841249Y-54461252D01*
X73596252Y-65245001D02*
X72173748Y-65245001D01*
X73596252Y-67065001D02*
X72173748Y-67065001D01*
X80171252Y-50122501D02*
X79648748Y-50122501D01*
X80171252Y-51592501D02*
X79648748Y-51592501D01*
X99560402Y-50381700D02*
X99037898Y-50381700D01*
X99560402Y-51851700D02*
X99037898Y-51851700D01*
X85346252Y-44145001D02*
X83923748Y-44145001D01*
X85346252Y-45965001D02*
X83923748Y-45965001D01*
X102699799Y-59015000D02*
X103222303Y-59015000D01*
X102699799Y-60485000D02*
X103222303Y-60485000D01*
X74325000Y-57331253D02*
X74325000Y-56808749D01*
X75795000Y-57331253D02*
X75795000Y-56808749D01*
X72621252Y-63235001D02*
X72098748Y-63235001D01*
X72621252Y-64705001D02*
X72098748Y-64705001D01*
X92783950Y-54288748D02*
X92783950Y-54811252D01*
X94253950Y-54288748D02*
X94253950Y-54811252D01*
X97699799Y-59015000D02*
X98222303Y-59015000D01*
X97699799Y-60485000D02*
X98222303Y-60485000D01*
X83596052Y-67246200D02*
X83073548Y-67246200D01*
X83596052Y-68716200D02*
X83073548Y-68716200D01*
X88196052Y-67265000D02*
X87673548Y-67265000D01*
X88196052Y-68735000D02*
X87673548Y-68735000D01*
X81146252Y-54347501D02*
X79723748Y-54347501D01*
X81146252Y-56167501D02*
X79723748Y-56167501D01*
X112614999Y-66300201D02*
X112614999Y-65777697D01*
X114084999Y-66300201D02*
X114084999Y-65777697D01*
X92699799Y-59015000D02*
X93222303Y-59015000D01*
X92699799Y-60485000D02*
X93222303Y-60485000D01*
X90273950Y-54363748D02*
X90273950Y-55786252D01*
X92093950Y-54363748D02*
X92093950Y-55786252D01*
X94948950Y-54288748D02*
X94948950Y-54811252D01*
X96418950Y-54288748D02*
X96418950Y-54811252D01*
X72260000Y-57331253D02*
X72260000Y-56808749D01*
X73730000Y-57331253D02*
X73730000Y-56808749D01*
X99037898Y-48130400D02*
X99560402Y-48130400D01*
X99037898Y-49600400D02*
X99560402Y-49600400D01*
%LPC*%
D12*
X56800000Y-38800000D03*
D13*
X108250000Y-70100000D03*
D14*
X61900000Y-49420000D03*
D15*
X61900000Y-54500000D03*
X61900000Y-59580000D03*
D13*
X98000000Y-54750000D03*
D12*
X56800000Y-69200000D03*
D16*
X85700000Y-59770000D03*
X86970000Y-61040000D03*
X86970000Y-58500000D03*
X84430000Y-61040000D03*
X84430000Y-58500000D03*
D12*
X119200000Y-38800000D03*
D13*
X104000000Y-39400000D03*
X115700000Y-62700000D03*
X115000000Y-44500000D03*
D17*
X70060000Y-50370001D03*
D18*
X75060000Y-50370001D03*
D13*
X93250000Y-70100000D03*
X88250000Y-69975000D03*
D16*
X85060000Y-41470000D03*
X83790000Y-40200000D03*
X83790000Y-42740000D03*
X86330000Y-40200000D03*
X86330000Y-42740000D03*
D13*
X103250000Y-70100000D03*
D12*
X119200000Y-69200000D03*
D13*
X83625000Y-70000000D03*
X98250000Y-70100000D03*
D19*
X108911051Y-59750000D03*
X107011051Y-59750000D03*
D20*
X70760000Y-56120001D03*
X70760000Y-59070001D03*
D21*
X71410000Y-61955001D03*
X73310000Y-61955001D03*
X83160000Y-47300001D03*
X85060000Y-47300001D03*
X78960000Y-52970001D03*
X80860000Y-52970001D03*
X83160000Y-49370001D03*
X85060000Y-49370001D03*
D22*
X104106249Y-55150000D03*
X104106249Y-53250000D03*
D23*
X71410000Y-66155001D03*
X74360000Y-66155001D03*
D21*
X78960000Y-50857501D03*
X80860000Y-50857501D03*
X98349150Y-51116700D03*
X100249150Y-51116700D03*
D23*
X83160000Y-45055001D03*
X86110000Y-45055001D03*
D19*
X103911051Y-59750000D03*
X102011051Y-59750000D03*
D24*
X75060000Y-56120001D03*
X75060000Y-58020001D03*
D21*
X71410000Y-63970001D03*
X73310000Y-63970001D03*
D22*
X93518950Y-55500000D03*
X93518950Y-53600000D03*
D19*
X98911051Y-59750000D03*
X97011051Y-59750000D03*
D21*
X82384800Y-67981200D03*
X84284800Y-67981200D03*
X86984800Y-68000000D03*
X88884800Y-68000000D03*
D23*
X78960000Y-55257501D03*
X81910000Y-55257501D03*
D24*
X113349999Y-65088949D03*
X113349999Y-66988949D03*
D19*
X93911051Y-59750000D03*
X92011051Y-59750000D03*
D25*
X91183950Y-56550000D03*
X91183950Y-53600000D03*
D22*
X95683950Y-55500000D03*
X95683950Y-53600000D03*
D24*
X72995000Y-56120001D03*
X72995000Y-58020001D03*
D19*
X100249150Y-48865400D03*
X98349150Y-48865400D03*
%LPD*%
M02*
