M48
; DRILL file {KiCad 8.0.2-8.0.2-0~ubuntu22.04.1} date 2024-06-03T16:53:45-0500
; FORMAT={-:-/ absolute / metric / decimal}
; #@! TF.CreationDate,2024-06-03T16:53:45-05:00
; #@! TF.GenerationSoftware,Kicad,Pcbnew,8.0.2-8.0.2-0~ubuntu22.04.1
; #@! TF.FileFunction,Plated,1,4,PTH
FMAT,2
METRIC
; #@! TA.AperFunction,Plated,PTH,ViaDrill
T1C0.300
; #@! TA.AperFunction,Plated,PTH,ComponentDrill
T2C0.762
; #@! TA.AperFunction,Plated,PTH,ComponentDrill
T3C0.840
; #@! TA.AperFunction,Plated,PTH,ComponentDrill
T4C1.000
; #@! TA.AperFunction,Plated,PTH,ComponentDrill
T5C1.300
%
G90
G05
T1
X53.6Y-35.6
X53.6Y-37.133
X53.6Y-38.667
X53.6Y-40.2
X53.6Y-41.733
X53.6Y-43.267
X53.6Y-44.8
X53.6Y-46.333
X53.6Y-47.867
X53.6Y-49.4
X53.6Y-50.933
X53.6Y-52.467
X53.6Y-54.0
X53.6Y-55.533
X53.6Y-57.067
X53.6Y-58.6
X53.6Y-60.133
X53.6Y-61.667
X53.6Y-63.2
X53.6Y-64.733
X53.6Y-66.267
X53.6Y-67.8
X53.6Y-69.333
X53.6Y-70.867
X53.6Y-72.4
X55.129Y-35.6
X55.129Y-72.4
X56.658Y-35.6
X56.658Y-72.4
X58.187Y-35.6
X58.187Y-72.4
X59.716Y-35.6
X59.716Y-72.4
X61.244Y-35.6
X61.244Y-72.4
X62.773Y-35.6
X62.773Y-72.4
X64.302Y-35.6
X64.302Y-72.4
X65.831Y-35.6
X65.831Y-72.4
X67.36Y-35.6
X67.36Y-72.4
X68.889Y-35.6
X68.889Y-72.4
X70.418Y-35.6
X70.418Y-72.4
X71.4Y-62.8
X71.947Y-35.6
X71.947Y-72.4
X73.16Y-47.511
X73.16Y-48.541
X73.16Y-49.57
X73.16Y-50.6
X73.476Y-35.6
X73.476Y-72.4
X74.0Y-47.3
X74.889Y-47.3
X75.004Y-35.6
X75.004Y-72.4
X75.06Y-55.2
X75.06Y-57.0
X75.778Y-47.3
X76.2Y-52.6
X76.2Y-53.656
X76.533Y-35.6
X76.533Y-72.4
X76.6Y-54.711
X76.6Y-55.767
X76.6Y-56.822
X76.667Y-47.3
X77.4Y-51.2
X77.4Y-52.4
X77.556Y-47.3
X78.062Y-35.6
X78.062Y-72.4
X78.444Y-47.3
X79.333Y-47.3
X79.591Y-35.6
X79.591Y-72.4
X80.222Y-47.3
X80.289Y-52.2
X81.111Y-47.3
X81.12Y-35.6
X81.12Y-72.4
X81.2Y-52.2
X81.5Y-50.75
X82.0Y-45.533
X82.0Y-46.467
X82.0Y-47.3
X82.2Y-52.267
X82.2Y-53.178
X82.2Y-54.089
X82.2Y-55.0
X82.2Y-55.911
X82.2Y-56.822
X82.385Y-67.981
X82.649Y-35.6
X82.649Y-72.4
X83.155Y-49.2
X84.178Y-35.6
X84.178Y-72.4
X85.707Y-35.6
X85.707Y-72.4
X86.985Y-68.0
X87.236Y-35.6
X87.236Y-72.4
X87.6Y-50.222
X87.6Y-51.133
X87.6Y-52.044
X87.6Y-52.956
X87.6Y-53.867
X87.6Y-54.778
X87.6Y-55.689
X87.6Y-56.6
X88.4Y-48.6
X88.4Y-49.6
X88.764Y-35.6
X88.764Y-72.4
X88.967Y-47.6
X89.533Y-44.2
X89.933Y-47.6
X90.293Y-35.6
X90.293Y-72.4
X90.5Y-44.2
X90.9Y-47.6
X91.467Y-44.2
X91.822Y-35.6
X91.822Y-72.4
X91.867Y-47.6
X92.011Y-59.75
X92.433Y-44.2
X92.6Y-65.75
X92.833Y-47.6
X93.351Y-35.6
X93.351Y-72.4
X93.4Y-44.2
X93.784Y-49.127
X93.784Y-52.202
X93.8Y-47.6
X94.287Y-63.5
X94.88Y-35.6
X94.88Y-72.4
X95.684Y-49.127
X95.684Y-52.202
X96.409Y-35.6
X96.409Y-72.4
X96.75Y-42.813
X97.011Y-59.75
X97.6Y-65.8
X97.719Y-50.186
X97.938Y-35.6
X97.938Y-72.4
X99.287Y-63.5
X99.467Y-35.6
X99.467Y-72.4
X100.249Y-48.865
X100.249Y-51.117
X100.75Y-42.788
X100.996Y-35.6
X100.996Y-72.4
X102.011Y-59.75
X102.524Y-35.6
X102.524Y-72.4
X102.6Y-65.75
X104.053Y-35.6
X104.053Y-72.4
X104.106Y-53.25
X104.287Y-63.5
X105.5Y-45.723
X105.582Y-35.6
X105.582Y-72.4
X106.75Y-42.823
X107.011Y-59.75
X107.111Y-35.6
X107.111Y-72.4
X107.6Y-65.75
X108.5Y-50.262
X108.64Y-35.6
X108.64Y-72.4
X109.48Y-42.798
X110.169Y-35.6
X110.169Y-72.4
X111.698Y-35.6
X111.698Y-72.4
X113.227Y-35.6
X113.227Y-72.4
X113.35Y-66.989
X114.756Y-35.6
X114.756Y-72.4
X116.0Y-52.175
X116.284Y-35.6
X116.284Y-72.4
X117.813Y-35.6
X117.813Y-72.4
X119.342Y-35.6
X119.342Y-72.4
X120.871Y-35.6
X120.871Y-72.4
X122.4Y-35.6
X122.4Y-37.133
X122.4Y-38.667
X122.4Y-40.2
X122.4Y-41.733
X122.4Y-43.267
X122.4Y-44.8
X122.4Y-46.333
X122.4Y-47.867
X122.4Y-49.4
X122.4Y-50.933
X122.4Y-52.467
X122.4Y-54.0
X122.4Y-55.533
X122.4Y-57.067
X122.4Y-58.6
X122.4Y-60.133
X122.4Y-61.667
X122.4Y-63.2
X122.4Y-64.733
X122.4Y-66.267
X122.4Y-67.8
X122.4Y-69.333
X122.4Y-70.867
X122.4Y-72.4
T2
X70.06Y-50.37
X75.06Y-50.37
T3
X83.79Y-40.2
X83.79Y-42.74
X84.43Y-58.5
X84.43Y-61.04
X85.06Y-41.47
X85.7Y-59.77
X86.33Y-40.2
X86.33Y-42.74
X86.97Y-58.5
X86.97Y-61.04
T4
X83.625Y-70.0
X88.25Y-69.975
X93.25Y-70.1
X98.0Y-54.75
X98.25Y-70.1
X103.25Y-70.1
X104.0Y-39.4
X108.25Y-70.1
X115.0Y-44.5
X115.7Y-62.7
T5
X61.9Y-49.42
X61.9Y-54.5
X61.9Y-59.58
M30
