G04 #@! TF.GenerationSoftware,KiCad,Pcbnew,8.0.1-8.0.1-1~ubuntu22.04.1*
G04 #@! TF.CreationDate,2024-03-18T13:01:17-05:00*
G04 #@! TF.ProjectId,onsemi-version,6f6e7365-6d69-42d7-9665-7273696f6e2e,rev?*
G04 #@! TF.SameCoordinates,Original*
G04 #@! TF.FileFunction,Legend,Top*
G04 #@! TF.FilePolarity,Positive*
%FSLAX46Y46*%
G04 Gerber Fmt 4.6, Leading zero omitted, Abs format (unit mm)*
G04 Created by KiCad (PCBNEW 8.0.1-8.0.1-1~ubuntu22.04.1) date 2024-03-18 13:01:17*
%MOMM*%
%LPD*%
G01*
G04 APERTURE LIST*
G04 Aperture macros list*
%AMRoundRect*
0 Rectangle with rounded corners*
0 $1 Rounding radius*
0 $2 $3 $4 $5 $6 $7 $8 $9 X,Y pos of 4 corners*
0 Add a 4 corners polygon primitive as box body*
4,1,4,$2,$3,$4,$5,$6,$7,$8,$9,$2,$3,0*
0 Add four circle primitives for the rounded corners*
1,1,$1+$1,$2,$3*
1,1,$1+$1,$4,$5*
1,1,$1+$1,$6,$7*
1,1,$1+$1,$8,$9*
0 Add four rect primitives between the rounded corners*
20,1,$1+$1,$2,$3,$4,$5,0*
20,1,$1+$1,$4,$5,$6,$7,0*
20,1,$1+$1,$6,$7,$8,$9,0*
20,1,$1+$1,$8,$9,$2,$3,0*%
G04 Aperture macros list end*
%ADD10C,0.200000*%
%ADD11C,0.150000*%
%ADD12C,0.127000*%
%ADD13C,0.120000*%
%ADD14C,0.152400*%
%ADD15RoundRect,0.090000X0.210000X-0.460000X0.210000X0.460000X-0.210000X0.460000X-0.210000X-0.460000X0*%
%ADD16RoundRect,0.090000X0.460000X0.210000X-0.460000X0.210000X-0.460000X-0.210000X0.460000X-0.210000X0*%
%ADD17RoundRect,0.090000X-0.210000X0.460000X-0.210000X-0.460000X0.210000X-0.460000X0.210000X0.460000X0*%
%ADD18RoundRect,0.090000X-0.460000X-0.210000X0.460000X-0.210000X0.460000X0.210000X-0.460000X0.210000X0*%
%ADD19RoundRect,0.300000X-0.700000X-0.700000X0.700000X-0.700000X0.700000X0.700000X-0.700000X0.700000X0*%
%ADD20RoundRect,0.250000X0.475000X-0.250000X0.475000X0.250000X-0.475000X0.250000X-0.475000X-0.250000X0*%
%ADD21RoundRect,0.250000X0.250000X0.475000X-0.250000X0.475000X-0.250000X-0.475000X0.250000X-0.475000X0*%
%ADD22RoundRect,0.135000X-0.185000X0.135000X-0.185000X-0.135000X0.185000X-0.135000X0.185000X0.135000X0*%
%ADD23RoundRect,0.150000X-0.150000X0.587500X-0.150000X-0.587500X0.150000X-0.587500X0.150000X0.587500X0*%
%ADD24RoundRect,0.135000X0.135000X0.185000X-0.135000X0.185000X-0.135000X-0.185000X0.135000X-0.185000X0*%
%ADD25C,1.397000*%
%ADD26R,1.350000X1.350000*%
%ADD27C,1.350000*%
G04 APERTURE END LIST*
D10*
G36*
X44712968Y-37999453D02*
G01*
X44757929Y-38042922D01*
X44808426Y-38141102D01*
X44809765Y-38294141D01*
X44762389Y-38391656D01*
X44718919Y-38436619D01*
X44620955Y-38487004D01*
X44443185Y-38487622D01*
X44439409Y-38486956D01*
X44436293Y-38487646D01*
X44207208Y-38488442D01*
X44206484Y-37953257D01*
X44614961Y-37951838D01*
X44712968Y-37999453D01*
G37*
G36*
X46779635Y-37999453D02*
G01*
X46824596Y-38042922D01*
X46875093Y-38141102D01*
X46876432Y-38294141D01*
X46829056Y-38391656D01*
X46785586Y-38436619D01*
X46687622Y-38487004D01*
X46273875Y-38488442D01*
X46273151Y-37953257D01*
X46681628Y-37951838D01*
X46779635Y-37999453D01*
G37*
G36*
X54295213Y-39509155D02*
G01*
X42386021Y-39509155D01*
X42386021Y-38453599D01*
X42541577Y-38453599D01*
X42543276Y-38647830D01*
X42541695Y-38658460D01*
X42543475Y-38670497D01*
X42543498Y-38673108D01*
X42544062Y-38674471D01*
X42544563Y-38677853D01*
X42611090Y-38936771D01*
X42611795Y-38946679D01*
X42617400Y-38961328D01*
X42617825Y-38962980D01*
X42618254Y-38963559D01*
X42618801Y-38964988D01*
X42686852Y-39097298D01*
X42691764Y-39109156D01*
X42694943Y-39113030D01*
X42695911Y-39114911D01*
X42697909Y-39116644D01*
X42704200Y-39124309D01*
X42828088Y-39245932D01*
X42829245Y-39248245D01*
X42839536Y-39257171D01*
X42852686Y-39270080D01*
X42856005Y-39271454D01*
X42858721Y-39273810D01*
X42876622Y-39281801D01*
X43076161Y-39346469D01*
X43088735Y-39351678D01*
X43093757Y-39352172D01*
X43095737Y-39352814D01*
X43098370Y-39352626D01*
X43108244Y-39353599D01*
X43241553Y-39351923D01*
X43254084Y-39352814D01*
X43258961Y-39351704D01*
X43261086Y-39351678D01*
X43263528Y-39350666D01*
X43273199Y-39348467D01*
X43458405Y-39285012D01*
X43461086Y-39285012D01*
X43473914Y-39279697D01*
X43491100Y-39273810D01*
X43493815Y-39271454D01*
X43497134Y-39270080D01*
X43512288Y-39257644D01*
X43591391Y-39175824D01*
X43599801Y-39155520D01*
X43606323Y-39139775D01*
X43608244Y-39120266D01*
X43606323Y-38634090D01*
X43591391Y-38598042D01*
X43563801Y-38570452D01*
X43527753Y-38555520D01*
X43508244Y-38553599D01*
X43222068Y-38555520D01*
X43186020Y-38570452D01*
X43158430Y-38598042D01*
X43143498Y-38634090D01*
X43143498Y-38673108D01*
X43158430Y-38709156D01*
X43186020Y-38736746D01*
X43222068Y-38751678D01*
X43241577Y-38753599D01*
X43408634Y-38752477D01*
X43409921Y-39078116D01*
X43389739Y-39098990D01*
X43229928Y-39153745D01*
X43128422Y-39155021D01*
X42964293Y-39101829D01*
X42858993Y-38998455D01*
X42804213Y-38891947D01*
X42741527Y-38647981D01*
X42739988Y-38472103D01*
X42799187Y-38228565D01*
X42853969Y-38115806D01*
X42959355Y-38008456D01*
X43119758Y-37953498D01*
X43282119Y-37952077D01*
X43415164Y-38016715D01*
X43454084Y-38019481D01*
X43491100Y-38007142D01*
X43520577Y-37981578D01*
X43538026Y-37946679D01*
X43540792Y-37907759D01*
X43528453Y-37870743D01*
X43513585Y-37853599D01*
X44008244Y-37853599D01*
X44010165Y-39273108D01*
X44025097Y-39309156D01*
X44052687Y-39336746D01*
X44088735Y-39351678D01*
X44127753Y-39351678D01*
X44163801Y-39336746D01*
X44191391Y-39309156D01*
X44206323Y-39273108D01*
X44208244Y-39253599D01*
X44207476Y-38686588D01*
X44388972Y-38685957D01*
X44839082Y-39325826D01*
X44871987Y-39346795D01*
X44910412Y-39353576D01*
X44948506Y-39345136D01*
X44980471Y-39322761D01*
X45001440Y-39289856D01*
X45008221Y-39251431D01*
X44999781Y-39213337D01*
X44990167Y-39196253D01*
X44631230Y-38685994D01*
X44644230Y-38685070D01*
X44661086Y-38685012D01*
X44664406Y-38683636D01*
X44667990Y-38683382D01*
X44686298Y-38676376D01*
X44818608Y-38608325D01*
X44830469Y-38603413D01*
X44834344Y-38600232D01*
X44836223Y-38599266D01*
X44837955Y-38597268D01*
X44845622Y-38590976D01*
X44911812Y-38522512D01*
X44920577Y-38514911D01*
X44923219Y-38510713D01*
X44924725Y-38509156D01*
X44925735Y-38506715D01*
X44931020Y-38498321D01*
X44989723Y-38377490D01*
X44991391Y-38375823D01*
X44996349Y-38363852D01*
X45004693Y-38346679D01*
X45004947Y-38343095D01*
X45006323Y-38339775D01*
X45008244Y-38320266D01*
X45408244Y-38320266D01*
X45410165Y-39273108D01*
X45425097Y-39309156D01*
X45452687Y-39336746D01*
X45488735Y-39351678D01*
X45527753Y-39351678D01*
X45563801Y-39336746D01*
X45591391Y-39309156D01*
X45606323Y-39273108D01*
X45608244Y-39253599D01*
X45606323Y-38300757D01*
X45591391Y-38264709D01*
X45563801Y-38237119D01*
X45527753Y-38222187D01*
X45488735Y-38222187D01*
X45452687Y-38237119D01*
X45425097Y-38264709D01*
X45410165Y-38300757D01*
X45408244Y-38320266D01*
X45008244Y-38320266D01*
X45006625Y-38135274D01*
X45007459Y-38132773D01*
X45006482Y-38119039D01*
X45006323Y-38100757D01*
X45004947Y-38097436D01*
X45004693Y-38093853D01*
X44997687Y-38075544D01*
X44929638Y-37943239D01*
X44928203Y-37939775D01*
X45343498Y-37939775D01*
X45358430Y-37975823D01*
X45370866Y-37990977D01*
X45452686Y-38070080D01*
X45459997Y-38073108D01*
X45488735Y-38085012D01*
X45527753Y-38085012D01*
X45563801Y-38070080D01*
X45578955Y-38057644D01*
X45658058Y-37975824D01*
X45672989Y-37939775D01*
X45672989Y-37900757D01*
X45664396Y-37880011D01*
X45658058Y-37864708D01*
X45648940Y-37853599D01*
X46074911Y-37853599D01*
X46076832Y-39273108D01*
X46091764Y-39309156D01*
X46119354Y-39336746D01*
X46155402Y-39351678D01*
X46194420Y-39351678D01*
X46230468Y-39336746D01*
X46258058Y-39309156D01*
X46272990Y-39273108D01*
X46274911Y-39253599D01*
X46274143Y-38686588D01*
X46692694Y-38685133D01*
X46695737Y-38686148D01*
X46710897Y-38685070D01*
X46727753Y-38685012D01*
X46731073Y-38683636D01*
X46734657Y-38683382D01*
X46752965Y-38676376D01*
X46885275Y-38608325D01*
X46897136Y-38603413D01*
X46901011Y-38600232D01*
X46902890Y-38599266D01*
X46904622Y-38597268D01*
X46912289Y-38590976D01*
X46978479Y-38522512D01*
X46987244Y-38514911D01*
X46989886Y-38510713D01*
X46991392Y-38509156D01*
X46992402Y-38506715D01*
X46997687Y-38498321D01*
X47056390Y-38377490D01*
X47058058Y-38375823D01*
X47063016Y-38363852D01*
X47071360Y-38346679D01*
X47071614Y-38343095D01*
X47072990Y-38339775D01*
X47074911Y-38320266D01*
X47073292Y-38135274D01*
X47074126Y-38132773D01*
X47073149Y-38119039D01*
X47072990Y-38100757D01*
X47071614Y-38097436D01*
X47071360Y-38093853D01*
X47064354Y-38075544D01*
X46996305Y-37943239D01*
X46991392Y-37931376D01*
X46988209Y-37927499D01*
X46987244Y-37925621D01*
X46985247Y-37923889D01*
X46978955Y-37916223D01*
X46914182Y-37853599D01*
X47474911Y-37853599D01*
X47476832Y-39273108D01*
X47491764Y-39309156D01*
X47519354Y-39336746D01*
X47555402Y-39351678D01*
X47594420Y-39351678D01*
X47630468Y-39336746D01*
X47658058Y-39309156D01*
X47672990Y-39273108D01*
X47674911Y-39253599D01*
X47673620Y-38299784D01*
X47951034Y-38891599D01*
X47956072Y-38905451D01*
X47959054Y-38908707D01*
X47960951Y-38912754D01*
X47972161Y-38923020D01*
X47982423Y-38934226D01*
X47986448Y-38936104D01*
X47989726Y-38939106D01*
X48004008Y-38944299D01*
X48017781Y-38950727D01*
X48022220Y-38950922D01*
X48026395Y-38952440D01*
X48041578Y-38951772D01*
X48056761Y-38952440D01*
X48060934Y-38950922D01*
X48065376Y-38950727D01*
X48079160Y-38944294D01*
X48093430Y-38939105D01*
X48096703Y-38936107D01*
X48100733Y-38934227D01*
X48111002Y-38923012D01*
X48122205Y-38912754D01*
X48125515Y-38907164D01*
X48127085Y-38905451D01*
X48127966Y-38903028D01*
X48132196Y-38895887D01*
X48408848Y-38300403D01*
X48410165Y-39273108D01*
X48425097Y-39309156D01*
X48452687Y-39336746D01*
X48488735Y-39351678D01*
X48527753Y-39351678D01*
X48563801Y-39336746D01*
X48591391Y-39309156D01*
X48606323Y-39273108D01*
X48608244Y-39253599D01*
X48607000Y-38334881D01*
X50009318Y-38334881D01*
X50014071Y-38353900D01*
X50344350Y-39273161D01*
X50344589Y-39277954D01*
X50350731Y-39290921D01*
X50355775Y-39304959D01*
X50359143Y-39308679D01*
X50361292Y-39313216D01*
X50372142Y-39323038D01*
X50381961Y-39333885D01*
X50386495Y-39336032D01*
X50390218Y-39339403D01*
X50404004Y-39344326D01*
X50417223Y-39350588D01*
X50422234Y-39350837D01*
X50426963Y-39352526D01*
X50441578Y-39351799D01*
X50456193Y-39352526D01*
X50460921Y-39350837D01*
X50465933Y-39350588D01*
X50479151Y-39344326D01*
X50492938Y-39339403D01*
X50496660Y-39336032D01*
X50501195Y-39333885D01*
X50511015Y-39323036D01*
X50521864Y-39313216D01*
X50524011Y-39308681D01*
X50527382Y-39304959D01*
X50535752Y-39287233D01*
X50540766Y-39273108D01*
X51076833Y-39273108D01*
X51091765Y-39309156D01*
X51119355Y-39336746D01*
X51155403Y-39351678D01*
X51174912Y-39353599D01*
X52061087Y-39351678D01*
X52097135Y-39336746D01*
X52124725Y-39309156D01*
X52139657Y-39273108D01*
X52139657Y-39234090D01*
X52128204Y-39206442D01*
X52476832Y-39206442D01*
X52479688Y-39213337D01*
X52491764Y-39242491D01*
X52504201Y-39257644D01*
X52586021Y-39336747D01*
X52610281Y-39346795D01*
X52622069Y-39351678D01*
X52622070Y-39351678D01*
X52661086Y-39351678D01*
X52661088Y-39351678D01*
X52690722Y-39339403D01*
X52697135Y-39336747D01*
X52712288Y-39324310D01*
X52791392Y-39242491D01*
X52806324Y-39206443D01*
X52806324Y-39167424D01*
X52791393Y-39131376D01*
X52791392Y-39131375D01*
X52778955Y-39116222D01*
X52697135Y-39037119D01*
X52661087Y-39022187D01*
X52622069Y-39022187D01*
X52596578Y-39032745D01*
X52586020Y-39037119D01*
X52570867Y-39049556D01*
X52491793Y-39131345D01*
X52491763Y-39131376D01*
X52482884Y-39152814D01*
X52476832Y-39167424D01*
X52476832Y-39206442D01*
X52128204Y-39206442D01*
X52124725Y-39198042D01*
X52097135Y-39170452D01*
X52061087Y-39155520D01*
X52041578Y-39153599D01*
X51414409Y-39154958D01*
X52033176Y-38534121D01*
X52036224Y-38532598D01*
X52046475Y-38520778D01*
X52058059Y-38509156D01*
X52059433Y-38505837D01*
X52061789Y-38503122D01*
X52069780Y-38485221D01*
X52134448Y-38285681D01*
X52139657Y-38273108D01*
X52140151Y-38268085D01*
X52140793Y-38266106D01*
X52140605Y-38263472D01*
X52141578Y-38253599D01*
X52141421Y-38241091D01*
X53142363Y-38241091D01*
X53145129Y-38280011D01*
X53162578Y-38314910D01*
X53192054Y-38340475D01*
X53229070Y-38352814D01*
X53267990Y-38350048D01*
X53286299Y-38343042D01*
X53418604Y-38274994D01*
X53430470Y-38270080D01*
X53434347Y-38266897D01*
X53436223Y-38265933D01*
X53437953Y-38263938D01*
X53445623Y-38257643D01*
X53541991Y-38159477D01*
X53543338Y-39154766D01*
X53222069Y-39155520D01*
X53186021Y-39170452D01*
X53158431Y-39198042D01*
X53143499Y-39234090D01*
X53143499Y-39273108D01*
X53158431Y-39309156D01*
X53186021Y-39336746D01*
X53222069Y-39351678D01*
X53241578Y-39353599D01*
X54061087Y-39351678D01*
X54097135Y-39336746D01*
X54124725Y-39309156D01*
X54139657Y-39273108D01*
X54139657Y-39234090D01*
X54124725Y-39198042D01*
X54097135Y-39170452D01*
X54061087Y-39155520D01*
X54041578Y-39153599D01*
X53741443Y-39154302D01*
X53739696Y-37863006D01*
X53741578Y-37853494D01*
X53739670Y-37843955D01*
X53739657Y-37834090D01*
X53735867Y-37824941D01*
X53733926Y-37815234D01*
X53728474Y-37807093D01*
X53724725Y-37798042D01*
X53717725Y-37791042D01*
X53712215Y-37782814D01*
X53704061Y-37777378D01*
X53697135Y-37770452D01*
X53687988Y-37766663D01*
X53679750Y-37761171D01*
X53670139Y-37759269D01*
X53661087Y-37755520D01*
X53651184Y-37755520D01*
X53641473Y-37753599D01*
X53631868Y-37755520D01*
X53622069Y-37755520D01*
X53612920Y-37759309D01*
X53603213Y-37761251D01*
X53595072Y-37766702D01*
X53586021Y-37770452D01*
X53579021Y-37777451D01*
X53570793Y-37782962D01*
X53558504Y-37797968D01*
X53558431Y-37798042D01*
X53558417Y-37798074D01*
X53558373Y-37798129D01*
X53436416Y-37984027D01*
X53319768Y-38102850D01*
X53180267Y-38174599D01*
X53154702Y-38204075D01*
X53142363Y-38241091D01*
X52141421Y-38241091D01*
X52140086Y-38134894D01*
X52140793Y-38132774D01*
X52139901Y-38120234D01*
X52139657Y-38100757D01*
X52138281Y-38097436D01*
X52138027Y-38093854D01*
X52131021Y-38075545D01*
X52062973Y-37943239D01*
X52058059Y-37931375D01*
X52054876Y-37927497D01*
X52053912Y-37925622D01*
X52051917Y-37923891D01*
X52045622Y-37916222D01*
X51977163Y-37850036D01*
X51969557Y-37841266D01*
X51965356Y-37838621D01*
X51963802Y-37837119D01*
X51961365Y-37836109D01*
X51952967Y-37830823D01*
X51832136Y-37772119D01*
X51830469Y-37770452D01*
X51818498Y-37765493D01*
X51801325Y-37757150D01*
X51797741Y-37756895D01*
X51794421Y-37755520D01*
X51774912Y-37753599D01*
X51456923Y-37755330D01*
X51454085Y-37754384D01*
X51439430Y-37755425D01*
X51422069Y-37755520D01*
X51418748Y-37756895D01*
X51415165Y-37757150D01*
X51396856Y-37764156D01*
X51264545Y-37832207D01*
X51252687Y-37837119D01*
X51248811Y-37840299D01*
X51246933Y-37841266D01*
X51245200Y-37843263D01*
X51237534Y-37849556D01*
X51158431Y-37931376D01*
X51143499Y-37967424D01*
X51143499Y-38006442D01*
X51158431Y-38042490D01*
X51186021Y-38070080D01*
X51222069Y-38085012D01*
X51261087Y-38085012D01*
X51297135Y-38070080D01*
X51312289Y-38057644D01*
X51364235Y-38003913D01*
X51462279Y-37953486D01*
X51748480Y-37951928D01*
X51846300Y-37999452D01*
X51891265Y-38042924D01*
X51941841Y-38141260D01*
X51943000Y-38233420D01*
X51889914Y-38397222D01*
X51091766Y-39198041D01*
X51091765Y-39198042D01*
X51076833Y-39234090D01*
X51076833Y-39273108D01*
X50540766Y-39273108D01*
X50873838Y-38334881D01*
X50871900Y-38295911D01*
X50855197Y-38260649D01*
X50826271Y-38234462D01*
X50789526Y-38221339D01*
X50750556Y-38223277D01*
X50715294Y-38239980D01*
X50689108Y-38268906D01*
X50680737Y-38286632D01*
X50442018Y-38959077D01*
X50194049Y-38268906D01*
X50167862Y-38239980D01*
X50132600Y-38223277D01*
X50093630Y-38221339D01*
X50056885Y-38234462D01*
X50027959Y-38260649D01*
X50011256Y-38295911D01*
X50009318Y-38334881D01*
X48607000Y-38334881D01*
X48606351Y-37855086D01*
X48607084Y-37838416D01*
X48606326Y-37836331D01*
X48606323Y-37834090D01*
X48599674Y-37818039D01*
X48593750Y-37801747D01*
X48592244Y-37800103D01*
X48591391Y-37798042D01*
X48579117Y-37785768D01*
X48567399Y-37772972D01*
X48565377Y-37772028D01*
X48563801Y-37770452D01*
X48547761Y-37763807D01*
X48532041Y-37756472D01*
X48529815Y-37756374D01*
X48527753Y-37755520D01*
X48510378Y-37755520D01*
X48493061Y-37754759D01*
X48490968Y-37755520D01*
X48488735Y-37755520D01*
X48472684Y-37762168D01*
X48456392Y-37768093D01*
X48454748Y-37769598D01*
X48452687Y-37770452D01*
X48440413Y-37782725D01*
X48427616Y-37794445D01*
X48426049Y-37797089D01*
X48425097Y-37798042D01*
X48424194Y-37800221D01*
X48417625Y-37811311D01*
X48042218Y-38619359D01*
X47664389Y-37813327D01*
X47658058Y-37798042D01*
X47656489Y-37796473D01*
X47655538Y-37794444D01*
X47642741Y-37782725D01*
X47630468Y-37770452D01*
X47628406Y-37769598D01*
X47626763Y-37768093D01*
X47610461Y-37762164D01*
X47594420Y-37755520D01*
X47592189Y-37755520D01*
X47590094Y-37754758D01*
X47572754Y-37755520D01*
X47555402Y-37755520D01*
X47553342Y-37756373D01*
X47551114Y-37756471D01*
X47535383Y-37763812D01*
X47519354Y-37770452D01*
X47517777Y-37772028D01*
X47515756Y-37772972D01*
X47504037Y-37785768D01*
X47491764Y-37798042D01*
X47490910Y-37800103D01*
X47489405Y-37801747D01*
X47483476Y-37818048D01*
X47476832Y-37834090D01*
X47476530Y-37837148D01*
X47476070Y-37838416D01*
X47476173Y-37840775D01*
X47474911Y-37853599D01*
X46914182Y-37853599D01*
X46910493Y-37850032D01*
X46902890Y-37841266D01*
X46898692Y-37838624D01*
X46897136Y-37837119D01*
X46894695Y-37836108D01*
X46886299Y-37830823D01*
X46765468Y-37772119D01*
X46763801Y-37770452D01*
X46751830Y-37765493D01*
X46734657Y-37757150D01*
X46731073Y-37756895D01*
X46727753Y-37755520D01*
X46708244Y-37753599D01*
X46155402Y-37755520D01*
X46119354Y-37770452D01*
X46091764Y-37798042D01*
X46076832Y-37834090D01*
X46074911Y-37853599D01*
X45648940Y-37853599D01*
X45645621Y-37849555D01*
X45563801Y-37770452D01*
X45527753Y-37755520D01*
X45488735Y-37755520D01*
X45463244Y-37766078D01*
X45452686Y-37770452D01*
X45437533Y-37782889D01*
X45358431Y-37864708D01*
X45358430Y-37864709D01*
X45343498Y-37900757D01*
X45343498Y-37939775D01*
X44928203Y-37939775D01*
X44924725Y-37931376D01*
X44921542Y-37927499D01*
X44920577Y-37925621D01*
X44918580Y-37923889D01*
X44912288Y-37916223D01*
X44843826Y-37850032D01*
X44836223Y-37841266D01*
X44832025Y-37838624D01*
X44830469Y-37837119D01*
X44828028Y-37836108D01*
X44819632Y-37830823D01*
X44698801Y-37772119D01*
X44697134Y-37770452D01*
X44685163Y-37765493D01*
X44667990Y-37757150D01*
X44664406Y-37756895D01*
X44661086Y-37755520D01*
X44641577Y-37753599D01*
X44088735Y-37755520D01*
X44052687Y-37770452D01*
X44025097Y-37798042D01*
X44010165Y-37834090D01*
X44008244Y-37853599D01*
X43513585Y-37853599D01*
X43502889Y-37841266D01*
X43486299Y-37830823D01*
X43365468Y-37772119D01*
X43363801Y-37770452D01*
X43351830Y-37765493D01*
X43334657Y-37757150D01*
X43331073Y-37756895D01*
X43327753Y-37755520D01*
X43308244Y-37753599D01*
X43109201Y-37755340D01*
X43095737Y-37754384D01*
X43090821Y-37755501D01*
X43088735Y-37755520D01*
X43086292Y-37756531D01*
X43076621Y-37758731D01*
X42891413Y-37822188D01*
X42888735Y-37822188D01*
X42875914Y-37827498D01*
X42858721Y-37833389D01*
X42856005Y-37835743D01*
X42852686Y-37837119D01*
X42837533Y-37849556D01*
X42706022Y-37983518D01*
X42695911Y-37992287D01*
X42693225Y-37996552D01*
X42691764Y-37998042D01*
X42690754Y-38000479D01*
X42685468Y-38008878D01*
X42623313Y-38136812D01*
X42617825Y-38144219D01*
X42612574Y-38158915D01*
X42611795Y-38160520D01*
X42611743Y-38161240D01*
X42611230Y-38162679D01*
X42547753Y-38423817D01*
X42543498Y-38434090D01*
X42542301Y-38446244D01*
X42541695Y-38448738D01*
X42541912Y-38450196D01*
X42541577Y-38453599D01*
X42386021Y-38453599D01*
X42386021Y-37598043D01*
X54295213Y-37598043D01*
X54295213Y-39509155D01*
G37*
X44909933Y-81468422D02*
X45309933Y-82535088D01*
X45309933Y-82535088D02*
X45709933Y-81468422D01*
X45309933Y-80801755D02*
X45309933Y-79735089D01*
X45309933Y-79068422D02*
X45309933Y-78001756D01*
X45443266Y-76335089D02*
X45443266Y-75668422D01*
X45843266Y-76468422D02*
X44443266Y-76001756D01*
X44443266Y-76001756D02*
X45843266Y-75535089D01*
X44909933Y-75068422D02*
X45843266Y-75068422D01*
X45043266Y-75068422D02*
X44976600Y-75001756D01*
X44976600Y-75001756D02*
X44909933Y-74868422D01*
X44909933Y-74868422D02*
X44909933Y-74668422D01*
X44909933Y-74668422D02*
X44976600Y-74535089D01*
X44976600Y-74535089D02*
X45109933Y-74468422D01*
X45109933Y-74468422D02*
X45843266Y-74468422D01*
X45843266Y-73601755D02*
X45776600Y-73735089D01*
X45776600Y-73735089D02*
X45709933Y-73801755D01*
X45709933Y-73801755D02*
X45576600Y-73868422D01*
X45576600Y-73868422D02*
X45176600Y-73868422D01*
X45176600Y-73868422D02*
X45043266Y-73801755D01*
X45043266Y-73801755D02*
X44976600Y-73735089D01*
X44976600Y-73735089D02*
X44909933Y-73601755D01*
X44909933Y-73601755D02*
X44909933Y-73401755D01*
X44909933Y-73401755D02*
X44976600Y-73268422D01*
X44976600Y-73268422D02*
X45043266Y-73201755D01*
X45043266Y-73201755D02*
X45176600Y-73135089D01*
X45176600Y-73135089D02*
X45576600Y-73135089D01*
X45576600Y-73135089D02*
X45709933Y-73201755D01*
X45709933Y-73201755D02*
X45776600Y-73268422D01*
X45776600Y-73268422D02*
X45843266Y-73401755D01*
X45843266Y-73401755D02*
X45843266Y-73601755D01*
X45843266Y-71935088D02*
X44443266Y-71935088D01*
X45776600Y-71935088D02*
X45843266Y-72068422D01*
X45843266Y-72068422D02*
X45843266Y-72335088D01*
X45843266Y-72335088D02*
X45776600Y-72468422D01*
X45776600Y-72468422D02*
X45709933Y-72535088D01*
X45709933Y-72535088D02*
X45576600Y-72601755D01*
X45576600Y-72601755D02*
X45176600Y-72601755D01*
X45176600Y-72601755D02*
X45043266Y-72535088D01*
X45043266Y-72535088D02*
X44976600Y-72468422D01*
X44976600Y-72468422D02*
X44909933Y-72335088D01*
X44909933Y-72335088D02*
X44909933Y-72068422D01*
X44909933Y-72068422D02*
X44976600Y-71935088D01*
X45776600Y-70735088D02*
X45843266Y-70868421D01*
X45843266Y-70868421D02*
X45843266Y-71135088D01*
X45843266Y-71135088D02*
X45776600Y-71268421D01*
X45776600Y-71268421D02*
X45643266Y-71335088D01*
X45643266Y-71335088D02*
X45109933Y-71335088D01*
X45109933Y-71335088D02*
X44976600Y-71268421D01*
X44976600Y-71268421D02*
X44909933Y-71135088D01*
X44909933Y-71135088D02*
X44909933Y-70868421D01*
X44909933Y-70868421D02*
X44976600Y-70735088D01*
X44976600Y-70735088D02*
X45109933Y-70668421D01*
X45109933Y-70668421D02*
X45243266Y-70668421D01*
X45243266Y-70668421D02*
X45376600Y-71335088D01*
D11*
X48390476Y-70144295D02*
X48390476Y-70791914D01*
X48390476Y-70791914D02*
X48428571Y-70868104D01*
X48428571Y-70868104D02*
X48466666Y-70906200D01*
X48466666Y-70906200D02*
X48542857Y-70944295D01*
X48542857Y-70944295D02*
X48695238Y-70944295D01*
X48695238Y-70944295D02*
X48771428Y-70906200D01*
X48771428Y-70906200D02*
X48809523Y-70868104D01*
X48809523Y-70868104D02*
X48847619Y-70791914D01*
X48847619Y-70791914D02*
X48847619Y-70144295D01*
X49609523Y-70144295D02*
X49228571Y-70144295D01*
X49228571Y-70144295D02*
X49190475Y-70525247D01*
X49190475Y-70525247D02*
X49228571Y-70487152D01*
X49228571Y-70487152D02*
X49304761Y-70449057D01*
X49304761Y-70449057D02*
X49495237Y-70449057D01*
X49495237Y-70449057D02*
X49571428Y-70487152D01*
X49571428Y-70487152D02*
X49609523Y-70525247D01*
X49609523Y-70525247D02*
X49647618Y-70601438D01*
X49647618Y-70601438D02*
X49647618Y-70791914D01*
X49647618Y-70791914D02*
X49609523Y-70868104D01*
X49609523Y-70868104D02*
X49571428Y-70906200D01*
X49571428Y-70906200D02*
X49495237Y-70944295D01*
X49495237Y-70944295D02*
X49304761Y-70944295D01*
X49304761Y-70944295D02*
X49228571Y-70906200D01*
X49228571Y-70906200D02*
X49190475Y-70868104D01*
X57022142Y-94271580D02*
X56974523Y-94319200D01*
X56974523Y-94319200D02*
X56831666Y-94366819D01*
X56831666Y-94366819D02*
X56736428Y-94366819D01*
X56736428Y-94366819D02*
X56593571Y-94319200D01*
X56593571Y-94319200D02*
X56498333Y-94223961D01*
X56498333Y-94223961D02*
X56450714Y-94128723D01*
X56450714Y-94128723D02*
X56403095Y-93938247D01*
X56403095Y-93938247D02*
X56403095Y-93795390D01*
X56403095Y-93795390D02*
X56450714Y-93604914D01*
X56450714Y-93604914D02*
X56498333Y-93509676D01*
X56498333Y-93509676D02*
X56593571Y-93414438D01*
X56593571Y-93414438D02*
X56736428Y-93366819D01*
X56736428Y-93366819D02*
X56831666Y-93366819D01*
X56831666Y-93366819D02*
X56974523Y-93414438D01*
X56974523Y-93414438D02*
X57022142Y-93462057D01*
X57974523Y-94366819D02*
X57403095Y-94366819D01*
X57688809Y-94366819D02*
X57688809Y-93366819D01*
X57688809Y-93366819D02*
X57593571Y-93509676D01*
X57593571Y-93509676D02*
X57498333Y-93604914D01*
X57498333Y-93604914D02*
X57403095Y-93652533D01*
X58593571Y-93366819D02*
X58688809Y-93366819D01*
X58688809Y-93366819D02*
X58784047Y-93414438D01*
X58784047Y-93414438D02*
X58831666Y-93462057D01*
X58831666Y-93462057D02*
X58879285Y-93557295D01*
X58879285Y-93557295D02*
X58926904Y-93747771D01*
X58926904Y-93747771D02*
X58926904Y-93985866D01*
X58926904Y-93985866D02*
X58879285Y-94176342D01*
X58879285Y-94176342D02*
X58831666Y-94271580D01*
X58831666Y-94271580D02*
X58784047Y-94319200D01*
X58784047Y-94319200D02*
X58688809Y-94366819D01*
X58688809Y-94366819D02*
X58593571Y-94366819D01*
X58593571Y-94366819D02*
X58498333Y-94319200D01*
X58498333Y-94319200D02*
X58450714Y-94271580D01*
X58450714Y-94271580D02*
X58403095Y-94176342D01*
X58403095Y-94176342D02*
X58355476Y-93985866D01*
X58355476Y-93985866D02*
X58355476Y-93747771D01*
X58355476Y-93747771D02*
X58403095Y-93557295D01*
X58403095Y-93557295D02*
X58450714Y-93462057D01*
X58450714Y-93462057D02*
X58498333Y-93414438D01*
X58498333Y-93414438D02*
X58593571Y-93366819D01*
X58983333Y-56871580D02*
X58935714Y-56919200D01*
X58935714Y-56919200D02*
X58792857Y-56966819D01*
X58792857Y-56966819D02*
X58697619Y-56966819D01*
X58697619Y-56966819D02*
X58554762Y-56919200D01*
X58554762Y-56919200D02*
X58459524Y-56823961D01*
X58459524Y-56823961D02*
X58411905Y-56728723D01*
X58411905Y-56728723D02*
X58364286Y-56538247D01*
X58364286Y-56538247D02*
X58364286Y-56395390D01*
X58364286Y-56395390D02*
X58411905Y-56204914D01*
X58411905Y-56204914D02*
X58459524Y-56109676D01*
X58459524Y-56109676D02*
X58554762Y-56014438D01*
X58554762Y-56014438D02*
X58697619Y-55966819D01*
X58697619Y-55966819D02*
X58792857Y-55966819D01*
X58792857Y-55966819D02*
X58935714Y-56014438D01*
X58935714Y-56014438D02*
X58983333Y-56062057D01*
X59888095Y-55966819D02*
X59411905Y-55966819D01*
X59411905Y-55966819D02*
X59364286Y-56443009D01*
X59364286Y-56443009D02*
X59411905Y-56395390D01*
X59411905Y-56395390D02*
X59507143Y-56347771D01*
X59507143Y-56347771D02*
X59745238Y-56347771D01*
X59745238Y-56347771D02*
X59840476Y-56395390D01*
X59840476Y-56395390D02*
X59888095Y-56443009D01*
X59888095Y-56443009D02*
X59935714Y-56538247D01*
X59935714Y-56538247D02*
X59935714Y-56776342D01*
X59935714Y-56776342D02*
X59888095Y-56871580D01*
X59888095Y-56871580D02*
X59840476Y-56919200D01*
X59840476Y-56919200D02*
X59745238Y-56966819D01*
X59745238Y-56966819D02*
X59507143Y-56966819D01*
X59507143Y-56966819D02*
X59411905Y-56919200D01*
X59411905Y-56919200D02*
X59364286Y-56871580D01*
X48390476Y-77394295D02*
X48390476Y-78041914D01*
X48390476Y-78041914D02*
X48428571Y-78118104D01*
X48428571Y-78118104D02*
X48466666Y-78156200D01*
X48466666Y-78156200D02*
X48542857Y-78194295D01*
X48542857Y-78194295D02*
X48695238Y-78194295D01*
X48695238Y-78194295D02*
X48771428Y-78156200D01*
X48771428Y-78156200D02*
X48809523Y-78118104D01*
X48809523Y-78118104D02*
X48847619Y-78041914D01*
X48847619Y-78041914D02*
X48847619Y-77394295D01*
X49571428Y-77394295D02*
X49419047Y-77394295D01*
X49419047Y-77394295D02*
X49342856Y-77432390D01*
X49342856Y-77432390D02*
X49304761Y-77470485D01*
X49304761Y-77470485D02*
X49228571Y-77584771D01*
X49228571Y-77584771D02*
X49190475Y-77737152D01*
X49190475Y-77737152D02*
X49190475Y-78041914D01*
X49190475Y-78041914D02*
X49228571Y-78118104D01*
X49228571Y-78118104D02*
X49266666Y-78156200D01*
X49266666Y-78156200D02*
X49342856Y-78194295D01*
X49342856Y-78194295D02*
X49495237Y-78194295D01*
X49495237Y-78194295D02*
X49571428Y-78156200D01*
X49571428Y-78156200D02*
X49609523Y-78118104D01*
X49609523Y-78118104D02*
X49647618Y-78041914D01*
X49647618Y-78041914D02*
X49647618Y-77851438D01*
X49647618Y-77851438D02*
X49609523Y-77775247D01*
X49609523Y-77775247D02*
X49571428Y-77737152D01*
X49571428Y-77737152D02*
X49495237Y-77699057D01*
X49495237Y-77699057D02*
X49342856Y-77699057D01*
X49342856Y-77699057D02*
X49266666Y-77737152D01*
X49266666Y-77737152D02*
X49228571Y-77775247D01*
X49228571Y-77775247D02*
X49190475Y-77851438D01*
X48144819Y-61508666D02*
X47668628Y-61841999D01*
X48144819Y-62080094D02*
X47144819Y-62080094D01*
X47144819Y-62080094D02*
X47144819Y-61699142D01*
X47144819Y-61699142D02*
X47192438Y-61603904D01*
X47192438Y-61603904D02*
X47240057Y-61556285D01*
X47240057Y-61556285D02*
X47335295Y-61508666D01*
X47335295Y-61508666D02*
X47478152Y-61508666D01*
X47478152Y-61508666D02*
X47573390Y-61556285D01*
X47573390Y-61556285D02*
X47621009Y-61603904D01*
X47621009Y-61603904D02*
X47668628Y-61699142D01*
X47668628Y-61699142D02*
X47668628Y-62080094D01*
X47144819Y-61175332D02*
X47144819Y-60508666D01*
X47144819Y-60508666D02*
X48144819Y-60937237D01*
X58983333Y-71135580D02*
X58935714Y-71183200D01*
X58935714Y-71183200D02*
X58792857Y-71230819D01*
X58792857Y-71230819D02*
X58697619Y-71230819D01*
X58697619Y-71230819D02*
X58554762Y-71183200D01*
X58554762Y-71183200D02*
X58459524Y-71087961D01*
X58459524Y-71087961D02*
X58411905Y-70992723D01*
X58411905Y-70992723D02*
X58364286Y-70802247D01*
X58364286Y-70802247D02*
X58364286Y-70659390D01*
X58364286Y-70659390D02*
X58411905Y-70468914D01*
X58411905Y-70468914D02*
X58459524Y-70373676D01*
X58459524Y-70373676D02*
X58554762Y-70278438D01*
X58554762Y-70278438D02*
X58697619Y-70230819D01*
X58697619Y-70230819D02*
X58792857Y-70230819D01*
X58792857Y-70230819D02*
X58935714Y-70278438D01*
X58935714Y-70278438D02*
X58983333Y-70326057D01*
X59316667Y-70230819D02*
X59983333Y-70230819D01*
X59983333Y-70230819D02*
X59554762Y-71230819D01*
X61092261Y-84955557D02*
X60997023Y-84907938D01*
X60997023Y-84907938D02*
X60901785Y-84812700D01*
X60901785Y-84812700D02*
X60758928Y-84669842D01*
X60758928Y-84669842D02*
X60663690Y-84622223D01*
X60663690Y-84622223D02*
X60568452Y-84622223D01*
X60616071Y-84860319D02*
X60520833Y-84812700D01*
X60520833Y-84812700D02*
X60425595Y-84717461D01*
X60425595Y-84717461D02*
X60377976Y-84526985D01*
X60377976Y-84526985D02*
X60377976Y-84193652D01*
X60377976Y-84193652D02*
X60425595Y-84003176D01*
X60425595Y-84003176D02*
X60520833Y-83907938D01*
X60520833Y-83907938D02*
X60616071Y-83860319D01*
X60616071Y-83860319D02*
X60806547Y-83860319D01*
X60806547Y-83860319D02*
X60901785Y-83907938D01*
X60901785Y-83907938D02*
X60997023Y-84003176D01*
X60997023Y-84003176D02*
X61044642Y-84193652D01*
X61044642Y-84193652D02*
X61044642Y-84526985D01*
X61044642Y-84526985D02*
X60997023Y-84717461D01*
X60997023Y-84717461D02*
X60901785Y-84812700D01*
X60901785Y-84812700D02*
X60806547Y-84860319D01*
X60806547Y-84860319D02*
X60616071Y-84860319D01*
X61997023Y-84860319D02*
X61425595Y-84860319D01*
X61711309Y-84860319D02*
X61711309Y-83860319D01*
X61711309Y-83860319D02*
X61616071Y-84003176D01*
X61616071Y-84003176D02*
X61520833Y-84098414D01*
X61520833Y-84098414D02*
X61425595Y-84146033D01*
X48390476Y-55894295D02*
X48390476Y-56541914D01*
X48390476Y-56541914D02*
X48428571Y-56618104D01*
X48428571Y-56618104D02*
X48466666Y-56656200D01*
X48466666Y-56656200D02*
X48542857Y-56694295D01*
X48542857Y-56694295D02*
X48695238Y-56694295D01*
X48695238Y-56694295D02*
X48771428Y-56656200D01*
X48771428Y-56656200D02*
X48809523Y-56618104D01*
X48809523Y-56618104D02*
X48847619Y-56541914D01*
X48847619Y-56541914D02*
X48847619Y-55894295D01*
X49152380Y-55894295D02*
X49647618Y-55894295D01*
X49647618Y-55894295D02*
X49380952Y-56199057D01*
X49380952Y-56199057D02*
X49495237Y-56199057D01*
X49495237Y-56199057D02*
X49571428Y-56237152D01*
X49571428Y-56237152D02*
X49609523Y-56275247D01*
X49609523Y-56275247D02*
X49647618Y-56351438D01*
X49647618Y-56351438D02*
X49647618Y-56541914D01*
X49647618Y-56541914D02*
X49609523Y-56618104D01*
X49609523Y-56618104D02*
X49571428Y-56656200D01*
X49571428Y-56656200D02*
X49495237Y-56694295D01*
X49495237Y-56694295D02*
X49266666Y-56694295D01*
X49266666Y-56694295D02*
X49190475Y-56656200D01*
X49190475Y-56656200D02*
X49152380Y-56618104D01*
X58983333Y-78267580D02*
X58935714Y-78315200D01*
X58935714Y-78315200D02*
X58792857Y-78362819D01*
X58792857Y-78362819D02*
X58697619Y-78362819D01*
X58697619Y-78362819D02*
X58554762Y-78315200D01*
X58554762Y-78315200D02*
X58459524Y-78219961D01*
X58459524Y-78219961D02*
X58411905Y-78124723D01*
X58411905Y-78124723D02*
X58364286Y-77934247D01*
X58364286Y-77934247D02*
X58364286Y-77791390D01*
X58364286Y-77791390D02*
X58411905Y-77600914D01*
X58411905Y-77600914D02*
X58459524Y-77505676D01*
X58459524Y-77505676D02*
X58554762Y-77410438D01*
X58554762Y-77410438D02*
X58697619Y-77362819D01*
X58697619Y-77362819D02*
X58792857Y-77362819D01*
X58792857Y-77362819D02*
X58935714Y-77410438D01*
X58935714Y-77410438D02*
X58983333Y-77458057D01*
X59554762Y-77791390D02*
X59459524Y-77743771D01*
X59459524Y-77743771D02*
X59411905Y-77696152D01*
X59411905Y-77696152D02*
X59364286Y-77600914D01*
X59364286Y-77600914D02*
X59364286Y-77553295D01*
X59364286Y-77553295D02*
X59411905Y-77458057D01*
X59411905Y-77458057D02*
X59459524Y-77410438D01*
X59459524Y-77410438D02*
X59554762Y-77362819D01*
X59554762Y-77362819D02*
X59745238Y-77362819D01*
X59745238Y-77362819D02*
X59840476Y-77410438D01*
X59840476Y-77410438D02*
X59888095Y-77458057D01*
X59888095Y-77458057D02*
X59935714Y-77553295D01*
X59935714Y-77553295D02*
X59935714Y-77600914D01*
X59935714Y-77600914D02*
X59888095Y-77696152D01*
X59888095Y-77696152D02*
X59840476Y-77743771D01*
X59840476Y-77743771D02*
X59745238Y-77791390D01*
X59745238Y-77791390D02*
X59554762Y-77791390D01*
X59554762Y-77791390D02*
X59459524Y-77839009D01*
X59459524Y-77839009D02*
X59411905Y-77886628D01*
X59411905Y-77886628D02*
X59364286Y-77981866D01*
X59364286Y-77981866D02*
X59364286Y-78172342D01*
X59364286Y-78172342D02*
X59411905Y-78267580D01*
X59411905Y-78267580D02*
X59459524Y-78315200D01*
X59459524Y-78315200D02*
X59554762Y-78362819D01*
X59554762Y-78362819D02*
X59745238Y-78362819D01*
X59745238Y-78362819D02*
X59840476Y-78315200D01*
X59840476Y-78315200D02*
X59888095Y-78267580D01*
X59888095Y-78267580D02*
X59935714Y-78172342D01*
X59935714Y-78172342D02*
X59935714Y-77981866D01*
X59935714Y-77981866D02*
X59888095Y-77886628D01*
X59888095Y-77886628D02*
X59840476Y-77839009D01*
X59840476Y-77839009D02*
X59745238Y-77791390D01*
X48458333Y-93456819D02*
X48125000Y-92980628D01*
X47886905Y-93456819D02*
X47886905Y-92456819D01*
X47886905Y-92456819D02*
X48267857Y-92456819D01*
X48267857Y-92456819D02*
X48363095Y-92504438D01*
X48363095Y-92504438D02*
X48410714Y-92552057D01*
X48410714Y-92552057D02*
X48458333Y-92647295D01*
X48458333Y-92647295D02*
X48458333Y-92790152D01*
X48458333Y-92790152D02*
X48410714Y-92885390D01*
X48410714Y-92885390D02*
X48363095Y-92933009D01*
X48363095Y-92933009D02*
X48267857Y-92980628D01*
X48267857Y-92980628D02*
X47886905Y-92980628D01*
X49410714Y-93456819D02*
X48839286Y-93456819D01*
X49125000Y-93456819D02*
X49125000Y-92456819D01*
X49125000Y-92456819D02*
X49029762Y-92599676D01*
X49029762Y-92599676D02*
X48934524Y-92694914D01*
X48934524Y-92694914D02*
X48839286Y-92742533D01*
X47890476Y-41094295D02*
X47890476Y-41741914D01*
X47890476Y-41741914D02*
X47928571Y-41818104D01*
X47928571Y-41818104D02*
X47966666Y-41856200D01*
X47966666Y-41856200D02*
X48042857Y-41894295D01*
X48042857Y-41894295D02*
X48195238Y-41894295D01*
X48195238Y-41894295D02*
X48271428Y-41856200D01*
X48271428Y-41856200D02*
X48309523Y-41818104D01*
X48309523Y-41818104D02*
X48347619Y-41741914D01*
X48347619Y-41741914D02*
X48347619Y-41094295D01*
X49147618Y-41894295D02*
X48690475Y-41894295D01*
X48919047Y-41894295D02*
X48919047Y-41094295D01*
X48919047Y-41094295D02*
X48842856Y-41208580D01*
X48842856Y-41208580D02*
X48766666Y-41284771D01*
X48766666Y-41284771D02*
X48690475Y-41322866D01*
X48390476Y-62894295D02*
X48390476Y-63541914D01*
X48390476Y-63541914D02*
X48428571Y-63618104D01*
X48428571Y-63618104D02*
X48466666Y-63656200D01*
X48466666Y-63656200D02*
X48542857Y-63694295D01*
X48542857Y-63694295D02*
X48695238Y-63694295D01*
X48695238Y-63694295D02*
X48771428Y-63656200D01*
X48771428Y-63656200D02*
X48809523Y-63618104D01*
X48809523Y-63618104D02*
X48847619Y-63541914D01*
X48847619Y-63541914D02*
X48847619Y-62894295D01*
X49571428Y-63160961D02*
X49571428Y-63694295D01*
X49380952Y-62856200D02*
X49190475Y-63427628D01*
X49190475Y-63427628D02*
X49685714Y-63427628D01*
X41361666Y-84856819D02*
X41361666Y-85571104D01*
X41361666Y-85571104D02*
X41314047Y-85713961D01*
X41314047Y-85713961D02*
X41218809Y-85809200D01*
X41218809Y-85809200D02*
X41075952Y-85856819D01*
X41075952Y-85856819D02*
X40980714Y-85856819D01*
X41790238Y-84952057D02*
X41837857Y-84904438D01*
X41837857Y-84904438D02*
X41933095Y-84856819D01*
X41933095Y-84856819D02*
X42171190Y-84856819D01*
X42171190Y-84856819D02*
X42266428Y-84904438D01*
X42266428Y-84904438D02*
X42314047Y-84952057D01*
X42314047Y-84952057D02*
X42361666Y-85047295D01*
X42361666Y-85047295D02*
X42361666Y-85142533D01*
X42361666Y-85142533D02*
X42314047Y-85285390D01*
X42314047Y-85285390D02*
X41742619Y-85856819D01*
X41742619Y-85856819D02*
X42361666Y-85856819D01*
X48254819Y-81998666D02*
X47778628Y-82331999D01*
X48254819Y-82570094D02*
X47254819Y-82570094D01*
X47254819Y-82570094D02*
X47254819Y-82189142D01*
X47254819Y-82189142D02*
X47302438Y-82093904D01*
X47302438Y-82093904D02*
X47350057Y-82046285D01*
X47350057Y-82046285D02*
X47445295Y-81998666D01*
X47445295Y-81998666D02*
X47588152Y-81998666D01*
X47588152Y-81998666D02*
X47683390Y-82046285D01*
X47683390Y-82046285D02*
X47731009Y-82093904D01*
X47731009Y-82093904D02*
X47778628Y-82189142D01*
X47778628Y-82189142D02*
X47778628Y-82570094D01*
X47588152Y-81141523D02*
X48254819Y-81141523D01*
X47207200Y-81379618D02*
X47921485Y-81617713D01*
X47921485Y-81617713D02*
X47921485Y-80998666D01*
X48144819Y-75788666D02*
X47668628Y-76121999D01*
X48144819Y-76360094D02*
X47144819Y-76360094D01*
X47144819Y-76360094D02*
X47144819Y-75979142D01*
X47144819Y-75979142D02*
X47192438Y-75883904D01*
X47192438Y-75883904D02*
X47240057Y-75836285D01*
X47240057Y-75836285D02*
X47335295Y-75788666D01*
X47335295Y-75788666D02*
X47478152Y-75788666D01*
X47478152Y-75788666D02*
X47573390Y-75836285D01*
X47573390Y-75836285D02*
X47621009Y-75883904D01*
X47621009Y-75883904D02*
X47668628Y-75979142D01*
X47668628Y-75979142D02*
X47668628Y-76360094D01*
X47144819Y-74883904D02*
X47144819Y-75360094D01*
X47144819Y-75360094D02*
X47621009Y-75407713D01*
X47621009Y-75407713D02*
X47573390Y-75360094D01*
X47573390Y-75360094D02*
X47525771Y-75264856D01*
X47525771Y-75264856D02*
X47525771Y-75026761D01*
X47525771Y-75026761D02*
X47573390Y-74931523D01*
X47573390Y-74931523D02*
X47621009Y-74883904D01*
X47621009Y-74883904D02*
X47716247Y-74836285D01*
X47716247Y-74836285D02*
X47954342Y-74836285D01*
X47954342Y-74836285D02*
X48049580Y-74883904D01*
X48049580Y-74883904D02*
X48097200Y-74931523D01*
X48097200Y-74931523D02*
X48144819Y-75026761D01*
X48144819Y-75026761D02*
X48144819Y-75264856D01*
X48144819Y-75264856D02*
X48097200Y-75360094D01*
X48097200Y-75360094D02*
X48049580Y-75407713D01*
X58983333Y-64003580D02*
X58935714Y-64051200D01*
X58935714Y-64051200D02*
X58792857Y-64098819D01*
X58792857Y-64098819D02*
X58697619Y-64098819D01*
X58697619Y-64098819D02*
X58554762Y-64051200D01*
X58554762Y-64051200D02*
X58459524Y-63955961D01*
X58459524Y-63955961D02*
X58411905Y-63860723D01*
X58411905Y-63860723D02*
X58364286Y-63670247D01*
X58364286Y-63670247D02*
X58364286Y-63527390D01*
X58364286Y-63527390D02*
X58411905Y-63336914D01*
X58411905Y-63336914D02*
X58459524Y-63241676D01*
X58459524Y-63241676D02*
X58554762Y-63146438D01*
X58554762Y-63146438D02*
X58697619Y-63098819D01*
X58697619Y-63098819D02*
X58792857Y-63098819D01*
X58792857Y-63098819D02*
X58935714Y-63146438D01*
X58935714Y-63146438D02*
X58983333Y-63194057D01*
X59840476Y-63098819D02*
X59650000Y-63098819D01*
X59650000Y-63098819D02*
X59554762Y-63146438D01*
X59554762Y-63146438D02*
X59507143Y-63194057D01*
X59507143Y-63194057D02*
X59411905Y-63336914D01*
X59411905Y-63336914D02*
X59364286Y-63527390D01*
X59364286Y-63527390D02*
X59364286Y-63908342D01*
X59364286Y-63908342D02*
X59411905Y-64003580D01*
X59411905Y-64003580D02*
X59459524Y-64051200D01*
X59459524Y-64051200D02*
X59554762Y-64098819D01*
X59554762Y-64098819D02*
X59745238Y-64098819D01*
X59745238Y-64098819D02*
X59840476Y-64051200D01*
X59840476Y-64051200D02*
X59888095Y-64003580D01*
X59888095Y-64003580D02*
X59935714Y-63908342D01*
X59935714Y-63908342D02*
X59935714Y-63670247D01*
X59935714Y-63670247D02*
X59888095Y-63575009D01*
X59888095Y-63575009D02*
X59840476Y-63527390D01*
X59840476Y-63527390D02*
X59745238Y-63479771D01*
X59745238Y-63479771D02*
X59554762Y-63479771D01*
X59554762Y-63479771D02*
X59459524Y-63527390D01*
X59459524Y-63527390D02*
X59411905Y-63575009D01*
X59411905Y-63575009D02*
X59364286Y-63670247D01*
X48390476Y-48644295D02*
X48390476Y-49291914D01*
X48390476Y-49291914D02*
X48428571Y-49368104D01*
X48428571Y-49368104D02*
X48466666Y-49406200D01*
X48466666Y-49406200D02*
X48542857Y-49444295D01*
X48542857Y-49444295D02*
X48695238Y-49444295D01*
X48695238Y-49444295D02*
X48771428Y-49406200D01*
X48771428Y-49406200D02*
X48809523Y-49368104D01*
X48809523Y-49368104D02*
X48847619Y-49291914D01*
X48847619Y-49291914D02*
X48847619Y-48644295D01*
X49190475Y-48720485D02*
X49228571Y-48682390D01*
X49228571Y-48682390D02*
X49304761Y-48644295D01*
X49304761Y-48644295D02*
X49495237Y-48644295D01*
X49495237Y-48644295D02*
X49571428Y-48682390D01*
X49571428Y-48682390D02*
X49609523Y-48720485D01*
X49609523Y-48720485D02*
X49647618Y-48796676D01*
X49647618Y-48796676D02*
X49647618Y-48872866D01*
X49647618Y-48872866D02*
X49609523Y-48987152D01*
X49609523Y-48987152D02*
X49152380Y-49444295D01*
X49152380Y-49444295D02*
X49647618Y-49444295D01*
X48144819Y-68640666D02*
X47668628Y-68973999D01*
X48144819Y-69212094D02*
X47144819Y-69212094D01*
X47144819Y-69212094D02*
X47144819Y-68831142D01*
X47144819Y-68831142D02*
X47192438Y-68735904D01*
X47192438Y-68735904D02*
X47240057Y-68688285D01*
X47240057Y-68688285D02*
X47335295Y-68640666D01*
X47335295Y-68640666D02*
X47478152Y-68640666D01*
X47478152Y-68640666D02*
X47573390Y-68688285D01*
X47573390Y-68688285D02*
X47621009Y-68735904D01*
X47621009Y-68735904D02*
X47668628Y-68831142D01*
X47668628Y-68831142D02*
X47668628Y-69212094D01*
X47144819Y-67783523D02*
X47144819Y-67973999D01*
X47144819Y-67973999D02*
X47192438Y-68069237D01*
X47192438Y-68069237D02*
X47240057Y-68116856D01*
X47240057Y-68116856D02*
X47382914Y-68212094D01*
X47382914Y-68212094D02*
X47573390Y-68259713D01*
X47573390Y-68259713D02*
X47954342Y-68259713D01*
X47954342Y-68259713D02*
X48049580Y-68212094D01*
X48049580Y-68212094D02*
X48097200Y-68164475D01*
X48097200Y-68164475D02*
X48144819Y-68069237D01*
X48144819Y-68069237D02*
X48144819Y-67878761D01*
X48144819Y-67878761D02*
X48097200Y-67783523D01*
X48097200Y-67783523D02*
X48049580Y-67735904D01*
X48049580Y-67735904D02*
X47954342Y-67688285D01*
X47954342Y-67688285D02*
X47716247Y-67688285D01*
X47716247Y-67688285D02*
X47621009Y-67735904D01*
X47621009Y-67735904D02*
X47573390Y-67783523D01*
X47573390Y-67783523D02*
X47525771Y-67878761D01*
X47525771Y-67878761D02*
X47525771Y-68069237D01*
X47525771Y-68069237D02*
X47573390Y-68164475D01*
X47573390Y-68164475D02*
X47621009Y-68212094D01*
X47621009Y-68212094D02*
X47716247Y-68259713D01*
X52668333Y-93871580D02*
X52620714Y-93919200D01*
X52620714Y-93919200D02*
X52477857Y-93966819D01*
X52477857Y-93966819D02*
X52382619Y-93966819D01*
X52382619Y-93966819D02*
X52239762Y-93919200D01*
X52239762Y-93919200D02*
X52144524Y-93823961D01*
X52144524Y-93823961D02*
X52096905Y-93728723D01*
X52096905Y-93728723D02*
X52049286Y-93538247D01*
X52049286Y-93538247D02*
X52049286Y-93395390D01*
X52049286Y-93395390D02*
X52096905Y-93204914D01*
X52096905Y-93204914D02*
X52144524Y-93109676D01*
X52144524Y-93109676D02*
X52239762Y-93014438D01*
X52239762Y-93014438D02*
X52382619Y-92966819D01*
X52382619Y-92966819D02*
X52477857Y-92966819D01*
X52477857Y-92966819D02*
X52620714Y-93014438D01*
X52620714Y-93014438D02*
X52668333Y-93062057D01*
X53144524Y-93966819D02*
X53335000Y-93966819D01*
X53335000Y-93966819D02*
X53430238Y-93919200D01*
X53430238Y-93919200D02*
X53477857Y-93871580D01*
X53477857Y-93871580D02*
X53573095Y-93728723D01*
X53573095Y-93728723D02*
X53620714Y-93538247D01*
X53620714Y-93538247D02*
X53620714Y-93157295D01*
X53620714Y-93157295D02*
X53573095Y-93062057D01*
X53573095Y-93062057D02*
X53525476Y-93014438D01*
X53525476Y-93014438D02*
X53430238Y-92966819D01*
X53430238Y-92966819D02*
X53239762Y-92966819D01*
X53239762Y-92966819D02*
X53144524Y-93014438D01*
X53144524Y-93014438D02*
X53096905Y-93062057D01*
X53096905Y-93062057D02*
X53049286Y-93157295D01*
X53049286Y-93157295D02*
X53049286Y-93395390D01*
X53049286Y-93395390D02*
X53096905Y-93490628D01*
X53096905Y-93490628D02*
X53144524Y-93538247D01*
X53144524Y-93538247D02*
X53239762Y-93585866D01*
X53239762Y-93585866D02*
X53430238Y-93585866D01*
X53430238Y-93585866D02*
X53525476Y-93538247D01*
X53525476Y-93538247D02*
X53573095Y-93490628D01*
X53573095Y-93490628D02*
X53620714Y-93395390D01*
X52233333Y-90886819D02*
X51900000Y-90410628D01*
X51661905Y-90886819D02*
X51661905Y-89886819D01*
X51661905Y-89886819D02*
X52042857Y-89886819D01*
X52042857Y-89886819D02*
X52138095Y-89934438D01*
X52138095Y-89934438D02*
X52185714Y-89982057D01*
X52185714Y-89982057D02*
X52233333Y-90077295D01*
X52233333Y-90077295D02*
X52233333Y-90220152D01*
X52233333Y-90220152D02*
X52185714Y-90315390D01*
X52185714Y-90315390D02*
X52138095Y-90363009D01*
X52138095Y-90363009D02*
X52042857Y-90410628D01*
X52042857Y-90410628D02*
X51661905Y-90410628D01*
X52614286Y-89982057D02*
X52661905Y-89934438D01*
X52661905Y-89934438D02*
X52757143Y-89886819D01*
X52757143Y-89886819D02*
X52995238Y-89886819D01*
X52995238Y-89886819D02*
X53090476Y-89934438D01*
X53090476Y-89934438D02*
X53138095Y-89982057D01*
X53138095Y-89982057D02*
X53185714Y-90077295D01*
X53185714Y-90077295D02*
X53185714Y-90172533D01*
X53185714Y-90172533D02*
X53138095Y-90315390D01*
X53138095Y-90315390D02*
X52566667Y-90886819D01*
X52566667Y-90886819D02*
X53185714Y-90886819D01*
X57798333Y-90491580D02*
X57750714Y-90539200D01*
X57750714Y-90539200D02*
X57607857Y-90586819D01*
X57607857Y-90586819D02*
X57512619Y-90586819D01*
X57512619Y-90586819D02*
X57369762Y-90539200D01*
X57369762Y-90539200D02*
X57274524Y-90443961D01*
X57274524Y-90443961D02*
X57226905Y-90348723D01*
X57226905Y-90348723D02*
X57179286Y-90158247D01*
X57179286Y-90158247D02*
X57179286Y-90015390D01*
X57179286Y-90015390D02*
X57226905Y-89824914D01*
X57226905Y-89824914D02*
X57274524Y-89729676D01*
X57274524Y-89729676D02*
X57369762Y-89634438D01*
X57369762Y-89634438D02*
X57512619Y-89586819D01*
X57512619Y-89586819D02*
X57607857Y-89586819D01*
X57607857Y-89586819D02*
X57750714Y-89634438D01*
X57750714Y-89634438D02*
X57798333Y-89682057D01*
X58750714Y-90586819D02*
X58179286Y-90586819D01*
X58465000Y-90586819D02*
X58465000Y-89586819D01*
X58465000Y-89586819D02*
X58369762Y-89729676D01*
X58369762Y-89729676D02*
X58274524Y-89824914D01*
X58274524Y-89824914D02*
X58179286Y-89872533D01*
X58983333Y-49739580D02*
X58935714Y-49787200D01*
X58935714Y-49787200D02*
X58792857Y-49834819D01*
X58792857Y-49834819D02*
X58697619Y-49834819D01*
X58697619Y-49834819D02*
X58554762Y-49787200D01*
X58554762Y-49787200D02*
X58459524Y-49691961D01*
X58459524Y-49691961D02*
X58411905Y-49596723D01*
X58411905Y-49596723D02*
X58364286Y-49406247D01*
X58364286Y-49406247D02*
X58364286Y-49263390D01*
X58364286Y-49263390D02*
X58411905Y-49072914D01*
X58411905Y-49072914D02*
X58459524Y-48977676D01*
X58459524Y-48977676D02*
X58554762Y-48882438D01*
X58554762Y-48882438D02*
X58697619Y-48834819D01*
X58697619Y-48834819D02*
X58792857Y-48834819D01*
X58792857Y-48834819D02*
X58935714Y-48882438D01*
X58935714Y-48882438D02*
X58983333Y-48930057D01*
X59840476Y-49168152D02*
X59840476Y-49834819D01*
X59602381Y-48787200D02*
X59364286Y-49501485D01*
X59364286Y-49501485D02*
X59983333Y-49501485D01*
X58833333Y-42859580D02*
X58785714Y-42907200D01*
X58785714Y-42907200D02*
X58642857Y-42954819D01*
X58642857Y-42954819D02*
X58547619Y-42954819D01*
X58547619Y-42954819D02*
X58404762Y-42907200D01*
X58404762Y-42907200D02*
X58309524Y-42811961D01*
X58309524Y-42811961D02*
X58261905Y-42716723D01*
X58261905Y-42716723D02*
X58214286Y-42526247D01*
X58214286Y-42526247D02*
X58214286Y-42383390D01*
X58214286Y-42383390D02*
X58261905Y-42192914D01*
X58261905Y-42192914D02*
X58309524Y-42097676D01*
X58309524Y-42097676D02*
X58404762Y-42002438D01*
X58404762Y-42002438D02*
X58547619Y-41954819D01*
X58547619Y-41954819D02*
X58642857Y-41954819D01*
X58642857Y-41954819D02*
X58785714Y-42002438D01*
X58785714Y-42002438D02*
X58833333Y-42050057D01*
X59166667Y-41954819D02*
X59785714Y-41954819D01*
X59785714Y-41954819D02*
X59452381Y-42335771D01*
X59452381Y-42335771D02*
X59595238Y-42335771D01*
X59595238Y-42335771D02*
X59690476Y-42383390D01*
X59690476Y-42383390D02*
X59738095Y-42431009D01*
X59738095Y-42431009D02*
X59785714Y-42526247D01*
X59785714Y-42526247D02*
X59785714Y-42764342D01*
X59785714Y-42764342D02*
X59738095Y-42859580D01*
X59738095Y-42859580D02*
X59690476Y-42907200D01*
X59690476Y-42907200D02*
X59595238Y-42954819D01*
X59595238Y-42954819D02*
X59309524Y-42954819D01*
X59309524Y-42954819D02*
X59214286Y-42907200D01*
X59214286Y-42907200D02*
X59166667Y-42859580D01*
X48254819Y-46944666D02*
X47778628Y-47277999D01*
X48254819Y-47516094D02*
X47254819Y-47516094D01*
X47254819Y-47516094D02*
X47254819Y-47135142D01*
X47254819Y-47135142D02*
X47302438Y-47039904D01*
X47302438Y-47039904D02*
X47350057Y-46992285D01*
X47350057Y-46992285D02*
X47445295Y-46944666D01*
X47445295Y-46944666D02*
X47588152Y-46944666D01*
X47588152Y-46944666D02*
X47683390Y-46992285D01*
X47683390Y-46992285D02*
X47731009Y-47039904D01*
X47731009Y-47039904D02*
X47778628Y-47135142D01*
X47778628Y-47135142D02*
X47778628Y-47516094D01*
X48254819Y-46468475D02*
X48254819Y-46277999D01*
X48254819Y-46277999D02*
X48207200Y-46182761D01*
X48207200Y-46182761D02*
X48159580Y-46135142D01*
X48159580Y-46135142D02*
X48016723Y-46039904D01*
X48016723Y-46039904D02*
X47826247Y-45992285D01*
X47826247Y-45992285D02*
X47445295Y-45992285D01*
X47445295Y-45992285D02*
X47350057Y-46039904D01*
X47350057Y-46039904D02*
X47302438Y-46087523D01*
X47302438Y-46087523D02*
X47254819Y-46182761D01*
X47254819Y-46182761D02*
X47254819Y-46373237D01*
X47254819Y-46373237D02*
X47302438Y-46468475D01*
X47302438Y-46468475D02*
X47350057Y-46516094D01*
X47350057Y-46516094D02*
X47445295Y-46563713D01*
X47445295Y-46563713D02*
X47683390Y-46563713D01*
X47683390Y-46563713D02*
X47778628Y-46516094D01*
X47778628Y-46516094D02*
X47826247Y-46468475D01*
X47826247Y-46468475D02*
X47873866Y-46373237D01*
X47873866Y-46373237D02*
X47873866Y-46182761D01*
X47873866Y-46182761D02*
X47826247Y-46087523D01*
X47826247Y-46087523D02*
X47778628Y-46039904D01*
X47778628Y-46039904D02*
X47683390Y-45992285D01*
X60416666Y-86286819D02*
X60416666Y-87001104D01*
X60416666Y-87001104D02*
X60369047Y-87143961D01*
X60369047Y-87143961D02*
X60273809Y-87239200D01*
X60273809Y-87239200D02*
X60130952Y-87286819D01*
X60130952Y-87286819D02*
X60035714Y-87286819D01*
X61416666Y-87286819D02*
X60845238Y-87286819D01*
X61130952Y-87286819D02*
X61130952Y-86286819D01*
X61130952Y-86286819D02*
X61035714Y-86429676D01*
X61035714Y-86429676D02*
X60940476Y-86524914D01*
X60940476Y-86524914D02*
X60845238Y-86572533D01*
X48144819Y-54376666D02*
X47668628Y-54709999D01*
X48144819Y-54948094D02*
X47144819Y-54948094D01*
X47144819Y-54948094D02*
X47144819Y-54567142D01*
X47144819Y-54567142D02*
X47192438Y-54471904D01*
X47192438Y-54471904D02*
X47240057Y-54424285D01*
X47240057Y-54424285D02*
X47335295Y-54376666D01*
X47335295Y-54376666D02*
X47478152Y-54376666D01*
X47478152Y-54376666D02*
X47573390Y-54424285D01*
X47573390Y-54424285D02*
X47621009Y-54471904D01*
X47621009Y-54471904D02*
X47668628Y-54567142D01*
X47668628Y-54567142D02*
X47668628Y-54948094D01*
X47573390Y-53805237D02*
X47525771Y-53900475D01*
X47525771Y-53900475D02*
X47478152Y-53948094D01*
X47478152Y-53948094D02*
X47382914Y-53995713D01*
X47382914Y-53995713D02*
X47335295Y-53995713D01*
X47335295Y-53995713D02*
X47240057Y-53948094D01*
X47240057Y-53948094D02*
X47192438Y-53900475D01*
X47192438Y-53900475D02*
X47144819Y-53805237D01*
X47144819Y-53805237D02*
X47144819Y-53614761D01*
X47144819Y-53614761D02*
X47192438Y-53519523D01*
X47192438Y-53519523D02*
X47240057Y-53471904D01*
X47240057Y-53471904D02*
X47335295Y-53424285D01*
X47335295Y-53424285D02*
X47382914Y-53424285D01*
X47382914Y-53424285D02*
X47478152Y-53471904D01*
X47478152Y-53471904D02*
X47525771Y-53519523D01*
X47525771Y-53519523D02*
X47573390Y-53614761D01*
X47573390Y-53614761D02*
X47573390Y-53805237D01*
X47573390Y-53805237D02*
X47621009Y-53900475D01*
X47621009Y-53900475D02*
X47668628Y-53948094D01*
X47668628Y-53948094D02*
X47763866Y-53995713D01*
X47763866Y-53995713D02*
X47954342Y-53995713D01*
X47954342Y-53995713D02*
X48049580Y-53948094D01*
X48049580Y-53948094D02*
X48097200Y-53900475D01*
X48097200Y-53900475D02*
X48144819Y-53805237D01*
X48144819Y-53805237D02*
X48144819Y-53614761D01*
X48144819Y-53614761D02*
X48097200Y-53519523D01*
X48097200Y-53519523D02*
X48049580Y-53471904D01*
X48049580Y-53471904D02*
X47954342Y-53424285D01*
X47954342Y-53424285D02*
X47763866Y-53424285D01*
X47763866Y-53424285D02*
X47668628Y-53471904D01*
X47668628Y-53471904D02*
X47621009Y-53519523D01*
X47621009Y-53519523D02*
X47573390Y-53614761D01*
X41361666Y-89786819D02*
X41361666Y-90501104D01*
X41361666Y-90501104D02*
X41314047Y-90643961D01*
X41314047Y-90643961D02*
X41218809Y-90739200D01*
X41218809Y-90739200D02*
X41075952Y-90786819D01*
X41075952Y-90786819D02*
X40980714Y-90786819D01*
X41742619Y-89786819D02*
X42361666Y-89786819D01*
X42361666Y-89786819D02*
X42028333Y-90167771D01*
X42028333Y-90167771D02*
X42171190Y-90167771D01*
X42171190Y-90167771D02*
X42266428Y-90215390D01*
X42266428Y-90215390D02*
X42314047Y-90263009D01*
X42314047Y-90263009D02*
X42361666Y-90358247D01*
X42361666Y-90358247D02*
X42361666Y-90596342D01*
X42361666Y-90596342D02*
X42314047Y-90691580D01*
X42314047Y-90691580D02*
X42266428Y-90739200D01*
X42266428Y-90739200D02*
X42171190Y-90786819D01*
X42171190Y-90786819D02*
X41885476Y-90786819D01*
X41885476Y-90786819D02*
X41790238Y-90739200D01*
X41790238Y-90739200D02*
X41742619Y-90691580D01*
D12*
X50000000Y-68596000D02*
X55730000Y-68596000D01*
X50000000Y-69866000D02*
X50000000Y-75596000D01*
X51270000Y-75596000D02*
X57000000Y-75596000D01*
X57000000Y-68596000D02*
X57000000Y-74326000D01*
D10*
X49500000Y-74996000D02*
G75*
G02*
X49300000Y-74996000I-100000J0D01*
G01*
X49300000Y-74996000D02*
G75*
G02*
X49500000Y-74996000I100000J0D01*
G01*
D13*
X54390000Y-93043252D02*
X54390000Y-92520748D01*
X55860000Y-93043252D02*
X55860000Y-92520748D01*
X59411252Y-54097000D02*
X58888748Y-54097000D01*
X59411252Y-55567000D02*
X58888748Y-55567000D01*
D12*
X50000000Y-75728000D02*
X55730000Y-75728000D01*
X50000000Y-76998000D02*
X50000000Y-82728000D01*
X51270000Y-82728000D02*
X57000000Y-82728000D01*
X57000000Y-75728000D02*
X57000000Y-81458000D01*
D10*
X49500000Y-82128000D02*
G75*
G02*
X49300000Y-82128000I-100000J0D01*
G01*
X49300000Y-82128000D02*
G75*
G02*
X49500000Y-82128000I100000J0D01*
G01*
D13*
X48610000Y-61188359D02*
X48610000Y-61495641D01*
X49370000Y-61188359D02*
X49370000Y-61495641D01*
X59411252Y-68361000D02*
X58888748Y-68361000D01*
X59411252Y-69831000D02*
X58888748Y-69831000D01*
X58190000Y-81737500D02*
X58190000Y-81087500D01*
X58190000Y-81737500D02*
X58190000Y-82387500D01*
X61310000Y-81737500D02*
X61310000Y-80062500D01*
X61310000Y-81737500D02*
X61310000Y-82387500D01*
D12*
X50000000Y-54332000D02*
X55730000Y-54332000D01*
X50000000Y-55602000D02*
X50000000Y-61332000D01*
X51270000Y-61332000D02*
X57000000Y-61332000D01*
X57000000Y-54332000D02*
X57000000Y-60062000D01*
D10*
X49500000Y-60732000D02*
G75*
G02*
X49300000Y-60732000I-100000J0D01*
G01*
X49300000Y-60732000D02*
G75*
G02*
X49500000Y-60732000I100000J0D01*
G01*
D13*
X59411252Y-75493000D02*
X58888748Y-75493000D01*
X59411252Y-76963000D02*
X58888748Y-76963000D01*
X48778641Y-91452000D02*
X48471359Y-91452000D01*
X48778641Y-92212000D02*
X48471359Y-92212000D01*
D12*
X50000000Y-40068000D02*
X55730000Y-40068000D01*
X50000000Y-41338000D02*
X50000000Y-47068000D01*
X51270000Y-47068000D02*
X57000000Y-47068000D01*
X57000000Y-40068000D02*
X57000000Y-45798000D01*
D10*
X49500000Y-46468000D02*
G75*
G02*
X49300000Y-46468000I-100000J0D01*
G01*
X49300000Y-46468000D02*
G75*
G02*
X49500000Y-46468000I100000J0D01*
G01*
D12*
X50000000Y-61464000D02*
X55730000Y-61464000D01*
X50000000Y-62734000D02*
X50000000Y-68464000D01*
X51270000Y-68464000D02*
X57000000Y-68464000D01*
X57000000Y-61464000D02*
X57000000Y-67194000D01*
D10*
X49500000Y-67864000D02*
G75*
G02*
X49300000Y-67864000I-100000J0D01*
G01*
X49300000Y-67864000D02*
G75*
G02*
X49500000Y-67864000I100000J0D01*
G01*
D14*
X43251900Y-86413276D02*
X43251900Y-87390724D01*
X44706276Y-88845100D02*
X45683724Y-88845100D01*
X45683724Y-84958900D02*
X44706276Y-84958900D01*
X47138100Y-87390724D02*
X47138100Y-86413276D01*
D13*
X48610000Y-82584359D02*
X48610000Y-82891641D01*
X49370000Y-82584359D02*
X49370000Y-82891641D01*
X48610000Y-75468359D02*
X48610000Y-75775641D01*
X49370000Y-75468359D02*
X49370000Y-75775641D01*
X59411252Y-61229000D02*
X58888748Y-61229000D01*
X59411252Y-62699000D02*
X58888748Y-62699000D01*
D12*
X50000000Y-47200000D02*
X55730000Y-47200000D01*
X50000000Y-48470000D02*
X50000000Y-54200000D01*
X51270000Y-54200000D02*
X57000000Y-54200000D01*
X57000000Y-47200000D02*
X57000000Y-52930000D01*
D10*
X49500000Y-53600000D02*
G75*
G02*
X49300000Y-53600000I-100000J0D01*
G01*
X49300000Y-53600000D02*
G75*
G02*
X49500000Y-53600000I100000J0D01*
G01*
D13*
X48610000Y-68320359D02*
X48610000Y-68627641D01*
X49370000Y-68320359D02*
X49370000Y-68627641D01*
X50010000Y-93043252D02*
X50010000Y-92520748D01*
X51480000Y-93043252D02*
X51480000Y-92520748D01*
X53018641Y-91452000D02*
X52711359Y-91452000D01*
X53018641Y-92212000D02*
X52711359Y-92212000D01*
X58226252Y-91097000D02*
X57703748Y-91097000D01*
X58226252Y-92567000D02*
X57703748Y-92567000D01*
X59411252Y-46965000D02*
X58888748Y-46965000D01*
X59411252Y-48435000D02*
X58888748Y-48435000D01*
X59411252Y-39833000D02*
X58888748Y-39833000D01*
X59411252Y-41303000D02*
X58888748Y-41303000D01*
X48610000Y-46924359D02*
X48610000Y-47231641D01*
X49370000Y-46924359D02*
X49370000Y-47231641D01*
X48850000Y-84732000D02*
X48850000Y-88932000D01*
X48850000Y-88932000D02*
X59150000Y-88932000D01*
X50400000Y-86832000D02*
X50400000Y-87582000D01*
X50400000Y-87582000D02*
X51000000Y-88182000D01*
X51000000Y-88182000D02*
X54000000Y-88182000D01*
X57000000Y-88182000D02*
X54000000Y-88182000D01*
X57600000Y-86832000D02*
X57600000Y-87582000D01*
X57600000Y-87582000D02*
X57000000Y-88182000D01*
X59150000Y-84732000D02*
X48850000Y-84732000D01*
X59150000Y-88932000D02*
X59150000Y-84732000D01*
X59500000Y-84332000D02*
X58500000Y-84332000D01*
X59500000Y-85332000D02*
X59500000Y-84332000D01*
X48610000Y-54056359D02*
X48610000Y-54363641D01*
X49370000Y-54056359D02*
X49370000Y-54363641D01*
D14*
X43251900Y-91343276D02*
X43251900Y-92320724D01*
X44706276Y-93775100D02*
X45683724Y-93775100D01*
X45683724Y-89888900D02*
X44706276Y-89888900D01*
X47138100Y-92320724D02*
X47138100Y-91343276D01*
%LPC*%
D15*
X50650000Y-75096000D03*
D16*
X56500000Y-74946000D03*
D17*
X56350000Y-69096000D03*
D18*
X50500000Y-69246000D03*
D19*
X53500000Y-72096000D03*
D20*
X55125000Y-93732000D03*
X55125000Y-91832000D03*
D21*
X60100000Y-54832000D03*
X58200000Y-54832000D03*
D15*
X50650000Y-82228000D03*
D16*
X56500000Y-82078000D03*
D17*
X56350000Y-76228000D03*
D18*
X50500000Y-76378000D03*
D19*
X53500000Y-79228000D03*
D22*
X48990000Y-60832000D03*
X48990000Y-61852000D03*
D21*
X60100000Y-69096000D03*
X58200000Y-69096000D03*
D23*
X60700000Y-80800000D03*
X58800000Y-80800000D03*
X59750000Y-82675000D03*
D15*
X50650000Y-60832000D03*
D16*
X56500000Y-60682000D03*
D17*
X56350000Y-54832000D03*
D18*
X50500000Y-54982000D03*
D19*
X53500000Y-57832000D03*
D21*
X60100000Y-76228000D03*
X58200000Y-76228000D03*
D24*
X49135000Y-91832000D03*
X48115000Y-91832000D03*
D15*
X50650000Y-46568000D03*
D16*
X56500000Y-46418000D03*
D17*
X56350000Y-40568000D03*
D18*
X50500000Y-40718000D03*
D19*
X53500000Y-43568000D03*
D15*
X50650000Y-67964000D03*
D16*
X56500000Y-67814000D03*
D17*
X56350000Y-61964000D03*
D18*
X50500000Y-62114000D03*
D19*
X53500000Y-64964000D03*
D25*
X45195000Y-86902000D03*
X43925000Y-85632000D03*
X43925000Y-88172000D03*
X46465000Y-88172000D03*
X46465000Y-85632000D03*
D22*
X48990000Y-82228000D03*
X48990000Y-83248000D03*
X48990000Y-75112000D03*
X48990000Y-76132000D03*
D21*
X60100000Y-61964000D03*
X58200000Y-61964000D03*
D15*
X50650000Y-53700000D03*
D16*
X56500000Y-53550000D03*
D17*
X56350000Y-47700000D03*
D18*
X50500000Y-47850000D03*
D19*
X53500000Y-50700000D03*
D22*
X48990000Y-67964000D03*
X48990000Y-68984000D03*
D20*
X50745000Y-93732000D03*
X50745000Y-91832000D03*
D24*
X53375000Y-91832000D03*
X52355000Y-91832000D03*
D21*
X58915000Y-91832000D03*
X57015000Y-91832000D03*
X60100000Y-47700000D03*
X58200000Y-47700000D03*
X60100000Y-40568000D03*
X58200000Y-40568000D03*
D22*
X48990000Y-46568000D03*
X48990000Y-47588000D03*
D26*
X56000000Y-86832000D03*
D27*
X54000000Y-86832000D03*
X52000000Y-86832000D03*
D22*
X48990000Y-53700000D03*
X48990000Y-54720000D03*
D25*
X45195000Y-91832000D03*
X43925000Y-90562000D03*
X43925000Y-93102000D03*
X46465000Y-93102000D03*
X46465000Y-90562000D03*
%LPD*%
M02*
