%TF.GenerationSoftware,KiCad,Pcbnew,8.0.1-8.0.1-1~ubuntu22.04.1*%
%TF.CreationDate,2024-03-18T13:01:20-05:00*%
%TF.ProjectId,onsemi-version,6f6e7365-6d69-42d7-9665-7273696f6e2e,rev?*%
%TF.SameCoordinates,Original*%
%TF.FileFunction,Drillmap*%
%TF.FilePolarity,Positive*%
%FSLAX45Y45*%
G04 Gerber Fmt 4.5, Leading zero omitted, Abs format (unit mm)*
G04 Created by KiCad (PCBNEW 8.0.1-8.0.1-1~ubuntu22.04.1) date 2024-03-18 13:01:20*
%MOMM*%
%LPD*%
G01*
G04 APERTURE LIST*
%ADD10C,0.100000*%
%ADD11C,0.200000*%
G04 APERTURE END LIST*
D10*
X4050000Y-3558200D02*
X6375000Y-3558200D01*
X6375000Y-9558200D01*
X4050000Y-9558200D01*
X4050000Y-3558200D01*
D11*
X4305777Y-9874684D02*
X4305777Y-9674684D01*
X4305777Y-9674684D02*
X4353396Y-9674684D01*
X4353396Y-9674684D02*
X4381967Y-9684208D01*
X4381967Y-9684208D02*
X4401015Y-9703255D01*
X4401015Y-9703255D02*
X4410539Y-9722303D01*
X4410539Y-9722303D02*
X4420063Y-9760398D01*
X4420063Y-9760398D02*
X4420063Y-9788970D01*
X4420063Y-9788970D02*
X4410539Y-9827065D01*
X4410539Y-9827065D02*
X4401015Y-9846112D01*
X4401015Y-9846112D02*
X4381967Y-9865160D01*
X4381967Y-9865160D02*
X4353396Y-9874684D01*
X4353396Y-9874684D02*
X4305777Y-9874684D01*
X4505777Y-9874684D02*
X4505777Y-9741350D01*
X4505777Y-9779446D02*
X4515301Y-9760398D01*
X4515301Y-9760398D02*
X4524824Y-9750874D01*
X4524824Y-9750874D02*
X4543872Y-9741350D01*
X4543872Y-9741350D02*
X4562920Y-9741350D01*
X4629586Y-9874684D02*
X4629586Y-9741350D01*
X4629586Y-9674684D02*
X4620063Y-9684208D01*
X4620063Y-9684208D02*
X4629586Y-9693731D01*
X4629586Y-9693731D02*
X4639110Y-9684208D01*
X4639110Y-9684208D02*
X4629586Y-9674684D01*
X4629586Y-9674684D02*
X4629586Y-9693731D01*
X4753396Y-9874684D02*
X4734348Y-9865160D01*
X4734348Y-9865160D02*
X4724824Y-9846112D01*
X4724824Y-9846112D02*
X4724824Y-9674684D01*
X4858158Y-9874684D02*
X4839110Y-9865160D01*
X4839110Y-9865160D02*
X4829586Y-9846112D01*
X4829586Y-9846112D02*
X4829586Y-9674684D01*
X5086729Y-9874684D02*
X5086729Y-9674684D01*
X5086729Y-9674684D02*
X5153396Y-9817541D01*
X5153396Y-9817541D02*
X5220063Y-9674684D01*
X5220063Y-9674684D02*
X5220063Y-9874684D01*
X5401015Y-9874684D02*
X5401015Y-9769922D01*
X5401015Y-9769922D02*
X5391491Y-9750874D01*
X5391491Y-9750874D02*
X5372444Y-9741350D01*
X5372444Y-9741350D02*
X5334348Y-9741350D01*
X5334348Y-9741350D02*
X5315301Y-9750874D01*
X5401015Y-9865160D02*
X5381967Y-9874684D01*
X5381967Y-9874684D02*
X5334348Y-9874684D01*
X5334348Y-9874684D02*
X5315301Y-9865160D01*
X5315301Y-9865160D02*
X5305777Y-9846112D01*
X5305777Y-9846112D02*
X5305777Y-9827065D01*
X5305777Y-9827065D02*
X5315301Y-9808017D01*
X5315301Y-9808017D02*
X5334348Y-9798493D01*
X5334348Y-9798493D02*
X5381967Y-9798493D01*
X5381967Y-9798493D02*
X5401015Y-9788970D01*
X5496253Y-9741350D02*
X5496253Y-9941350D01*
X5496253Y-9750874D02*
X5515301Y-9741350D01*
X5515301Y-9741350D02*
X5553396Y-9741350D01*
X5553396Y-9741350D02*
X5572444Y-9750874D01*
X5572444Y-9750874D02*
X5581967Y-9760398D01*
X5581967Y-9760398D02*
X5591491Y-9779446D01*
X5591491Y-9779446D02*
X5591491Y-9836589D01*
X5591491Y-9836589D02*
X5581967Y-9855636D01*
X5581967Y-9855636D02*
X5572444Y-9865160D01*
X5572444Y-9865160D02*
X5553396Y-9874684D01*
X5553396Y-9874684D02*
X5515301Y-9874684D01*
X5515301Y-9874684D02*
X5496253Y-9865160D01*
X5677205Y-9855636D02*
X5686729Y-9865160D01*
X5686729Y-9865160D02*
X5677205Y-9874684D01*
X5677205Y-9874684D02*
X5667682Y-9865160D01*
X5667682Y-9865160D02*
X5677205Y-9855636D01*
X5677205Y-9855636D02*
X5677205Y-9874684D01*
X5677205Y-9750874D02*
X5686729Y-9760398D01*
X5686729Y-9760398D02*
X5677205Y-9769922D01*
X5677205Y-9769922D02*
X5667682Y-9760398D01*
X5667682Y-9760398D02*
X5677205Y-9750874D01*
X5677205Y-9750874D02*
X5677205Y-9769922D01*
M02*
