G04 #@! TF.GenerationSoftware,KiCad,Pcbnew,8.0.1-8.0.1-1~ubuntu22.04.1*
G04 #@! TF.CreationDate,2024-03-18T13:01:17-05:00*
G04 #@! TF.ProjectId,onsemi-version,6f6e7365-6d69-42d7-9665-7273696f6e2e,rev?*
G04 #@! TF.SameCoordinates,Original*
G04 #@! TF.FileFunction,Paste,Top*
G04 #@! TF.FilePolarity,Positive*
%FSLAX46Y46*%
G04 Gerber Fmt 4.6, Leading zero omitted, Abs format (unit mm)*
G04 Created by KiCad (PCBNEW 8.0.1-8.0.1-1~ubuntu22.04.1) date 2024-03-18 13:01:17*
%MOMM*%
%LPD*%
G01*
G04 APERTURE LIST*
G04 Aperture macros list*
%AMRoundRect*
0 Rectangle with rounded corners*
0 $1 Rounding radius*
0 $2 $3 $4 $5 $6 $7 $8 $9 X,Y pos of 4 corners*
0 Add a 4 corners polygon primitive as box body*
4,1,4,$2,$3,$4,$5,$6,$7,$8,$9,$2,$3,0*
0 Add four circle primitives for the rounded corners*
1,1,$1+$1,$2,$3*
1,1,$1+$1,$4,$5*
1,1,$1+$1,$6,$7*
1,1,$1+$1,$8,$9*
0 Add four rect primitives between the rounded corners*
20,1,$1+$1,$2,$3,$4,$5,0*
20,1,$1+$1,$4,$5,$6,$7,0*
20,1,$1+$1,$6,$7,$8,$9,0*
20,1,$1+$1,$8,$9,$2,$3,0*%
G04 Aperture macros list end*
%ADD10RoundRect,0.090000X0.210000X-0.460000X0.210000X0.460000X-0.210000X0.460000X-0.210000X-0.460000X0*%
%ADD11RoundRect,0.090000X0.460000X0.210000X-0.460000X0.210000X-0.460000X-0.210000X0.460000X-0.210000X0*%
%ADD12RoundRect,0.090000X-0.210000X0.460000X-0.210000X-0.460000X0.210000X-0.460000X0.210000X0.460000X0*%
%ADD13RoundRect,0.090000X-0.460000X-0.210000X0.460000X-0.210000X0.460000X0.210000X-0.460000X0.210000X0*%
%ADD14RoundRect,0.300000X-0.700000X-0.700000X0.700000X-0.700000X0.700000X0.700000X-0.700000X0.700000X0*%
%ADD15RoundRect,0.250000X0.475000X-0.250000X0.475000X0.250000X-0.475000X0.250000X-0.475000X-0.250000X0*%
%ADD16RoundRect,0.250000X0.250000X0.475000X-0.250000X0.475000X-0.250000X-0.475000X0.250000X-0.475000X0*%
%ADD17RoundRect,0.135000X-0.185000X0.135000X-0.185000X-0.135000X0.185000X-0.135000X0.185000X0.135000X0*%
%ADD18RoundRect,0.150000X-0.150000X0.587500X-0.150000X-0.587500X0.150000X-0.587500X0.150000X0.587500X0*%
%ADD19RoundRect,0.135000X0.135000X0.185000X-0.135000X0.185000X-0.135000X-0.185000X0.135000X-0.185000X0*%
G04 APERTURE END LIST*
D10*
X50650000Y-75096000D03*
D11*
X56500000Y-74946000D03*
D12*
X56350000Y-69096000D03*
D13*
X50500000Y-69246000D03*
D14*
X53500000Y-72096000D03*
D15*
X55125000Y-93732000D03*
X55125000Y-91832000D03*
D16*
X60100000Y-54832000D03*
X58200000Y-54832000D03*
D10*
X50650000Y-82228000D03*
D11*
X56500000Y-82078000D03*
D12*
X56350000Y-76228000D03*
D13*
X50500000Y-76378000D03*
D14*
X53500000Y-79228000D03*
D17*
X48990000Y-60832000D03*
X48990000Y-61852000D03*
D16*
X60100000Y-69096000D03*
X58200000Y-69096000D03*
D18*
X60700000Y-80800000D03*
X58800000Y-80800000D03*
X59750000Y-82675000D03*
D10*
X50650000Y-60832000D03*
D11*
X56500000Y-60682000D03*
D12*
X56350000Y-54832000D03*
D13*
X50500000Y-54982000D03*
D14*
X53500000Y-57832000D03*
D16*
X60100000Y-76228000D03*
X58200000Y-76228000D03*
D19*
X49135000Y-91832000D03*
X48115000Y-91832000D03*
D10*
X50650000Y-46568000D03*
D11*
X56500000Y-46418000D03*
D12*
X56350000Y-40568000D03*
D13*
X50500000Y-40718000D03*
D14*
X53500000Y-43568000D03*
D10*
X50650000Y-67964000D03*
D11*
X56500000Y-67814000D03*
D12*
X56350000Y-61964000D03*
D13*
X50500000Y-62114000D03*
D14*
X53500000Y-64964000D03*
D17*
X48990000Y-82228000D03*
X48990000Y-83248000D03*
X48990000Y-75112000D03*
X48990000Y-76132000D03*
D16*
X60100000Y-61964000D03*
X58200000Y-61964000D03*
D10*
X50650000Y-53700000D03*
D11*
X56500000Y-53550000D03*
D12*
X56350000Y-47700000D03*
D13*
X50500000Y-47850000D03*
D14*
X53500000Y-50700000D03*
D17*
X48990000Y-67964000D03*
X48990000Y-68984000D03*
D15*
X50745000Y-93732000D03*
X50745000Y-91832000D03*
D19*
X53375000Y-91832000D03*
X52355000Y-91832000D03*
D16*
X58915000Y-91832000D03*
X57015000Y-91832000D03*
X60100000Y-47700000D03*
X58200000Y-47700000D03*
X60100000Y-40568000D03*
X58200000Y-40568000D03*
D17*
X48990000Y-46568000D03*
X48990000Y-47588000D03*
X48990000Y-53700000D03*
X48990000Y-54720000D03*
M02*
